  0
SECTION
  2
HEADER
  9
$ACADVER
  1
AC1015
  9
$ACADMAINTVER
 70
    20
  9
$DWGCODEPAGE
  3
ANSI_936
  9
$INSBASE
 10
0.0
 20
0.0
 30
0.0
  9
$EXTMIN
 10
0.0
 20
0.0
 30
0.0
  9
$EXTMAX
 10
1000.0
 20
1000.0
 30
0.0
  9
$LIMMIN
 10
0.0
 20
0.0
  9
$LIMMAX
 10
420.0
 20
297.0
  9
$ORTHOMODE
 70
     0
  9
$REGENMODE
 70
     1
  9
$FILLMODE
 70
     1
  9
$QTEXTMODE
 70
     0
  9
$MIRRTEXT
 70
     0
  9
$LTSCALE
 40
1.0
  9
$ATTMODE
 70
     1
  9
$TEXTSIZE
 40
2.5
  9
$TRACEWID
 40
1.0
  9
$TEXTSTYLE
  7
Standard
  9
$CLAYER
  8
2
  9
$CELTYPE
  6
ByLayer
  9
$CECOLOR
 62
   256
  9
$CELTSCALE
 40
1.0
  9
$DISPSILH
 70
     0
  9
$DIMSCALE
 40
1.0
  9
$DIMASZ
 40
2.5
  9
$DIMEXO
 40
0.625
  9
$DIMDLI
 40
3.75
  9
$DIMRND
 40
0.0
  9
$DIMDLE
 40
0.0
  9
$DIMEXE
 40
1.25
  9
$DIMTP
 40
0.0
  9
$DIMTM
 40
0.0
  9
$DIMTXT
 40
2.5
  9
$DIMCEN
 40
2.5
  9
$DIMTSZ
 40
0.0
  9
$DIMTOL
 70
     0
  9
$DIMLIM
 70
     0
  9
$DIMTIH
 70
     0
  9
$DIMTOH
 70
     0
  9
$DIMSE1
 70
     0
  9
$DIMSE2
 70
     0
  9
$DIMTAD
 70
     1
  9
$DIMZIN
 70
     8
  9
$DIMBLK
  1

  9
$DIMASO
 70
     1
  9
$DIMSHO
 70
     1
  9
$DIMPOST
  1

  9
$DIMAPOST
  1

  9
$DIMALT
 70
     0
  9
$DIMALTD
 70
     3
  9
$DIMALTF
 40
0.03937007874016
  9
$DIMLFAC
 40
1.0
  9
$DIMTOFL
 70
     1
  9
$DIMTVP
 40
0.0
  9
$DIMTIX
 70
     0
  9
$DIMSOXD
 70
     0
  9
$DIMSAH
 70
     0
  9
$DIMBLK1
  1

  9
$DIMBLK2
  1

  9
$DIMSTYLE
  2
ISO-25
  9
$DIMCLRD
 70
     0
  9
$DIMCLRE
 70
     0
  9
$DIMCLRT
 70
     0
  9
$DIMTFAC
 40
1.0
  9
$DIMGAP
 40
0.625
  9
$DIMJUST
 70
     0
  9
$DIMSD1
 70
     0
  9
$DIMSD2
 70
     0
  9
$DIMTOLJ
 70
     0
  9
$DIMTZIN
 70
     8
  9
$DIMALTZ
 70
     0
  9
$DIMALTTZ
 70
     0
  9
$DIMUPT
 70
     0
  9
$DIMDEC
 70
     2
  9
$DIMTDEC
 70
     2
  9
$DIMALTU
 70
     2
  9
$DIMALTTD
 70
     3
  9
$DIMTXSTY
  7
Standard
  9
$DIMAUNIT
 70
     0
  9
$DIMADEC
 70
     0
  9
$DIMALTRND
 40
0.0
  9
$DIMAZIN
 70
     0
  9
$DIMDSEP
 70
    44
  9
$DIMATFIT
 70
     3
  9
$DIMFRAC
 70
     0
  9
$DIMLDRBLK
  1

  9
$DIMLUNIT
 70
     2
  9
$DIMLWD
 70
    -2
  9
$DIMLWE
 70
    -2
  9
$DIMTMOVE
 70
     0
  9
$LUNITS
 70
     2
  9
$LUPREC
 70
     4
  9
$SKETCHINC
 40
1.0
  9
$FILLETRAD
 40
0.0
  9
$AUNITS
 70
     0
  9
$AUPREC
 70
     0
  9
$MENU
  1
.
  9
$ELEVATION
 40
0.0
  9
$PELEVATION
 40
0.0
  9
$THICKNESS
 40
0.0
  9
$LIMCHECK
 70
     0
  9
$CHAMFERA
 40
0.0
  9
$CHAMFERB
 40
0.0
  9
$CHAMFERC
 40
0.0
  9
$CHAMFERD
 40
0.0
  9
$SKPOLY
 70
     0
  9
$TDCREATE
 40
2455505.725807523
  9
$TDUCREATE
 40
2455505.392474190
  9
$TDUPDATE
 40
2457096.654217790
  9
$TDUUPDATE
 40
2457096.320884456
  9
$TDINDWG
 40
0.1160466782
  9
$TDUSRTIMER
 40
0.1160459838
  9
$USRTIMER
 70
     1
  9
$ANGBASE
 50
0.0
  9
$ANGDIR
 70
     0
  9
$PDMODE
 70
     0
  9
$PDSIZE
 40
0.0
  9
$PLINEWID
 40
0.0
  9
$SPLFRAME
 70
     0
  9
$SPLINETYPE
 70
     6
  9
$SPLINESEGS
 70
     8
  9
$HANDSEED
  5
389
  9
$SURFTAB1
 70
     6
  9
$SURFTAB2
 70
     6
  9
$SURFTYPE
 70
     6
  9
$SURFU
 70
     6
  9
$SURFV
 70
     6
  9
$UCSBASE
  2

  9
$UCSNAME
  2

  9
$UCSORG
 10
0.0
 20
0.0
 30
0.0
  9
$UCSXDIR
 10
1.0
 20
0.0
 30
0.0
  9
$UCSYDIR
 10
0.0
 20
1.0
 30
0.0
  9
$UCSORTHOREF
  2

  9
$UCSORTHOVIEW
 70
     0
  9
$UCSORGTOP
 10
0.0
 20
0.0
 30
0.0
  9
$UCSORGBOTTOM
 10
0.0
 20
0.0
 30
0.0
  9
$UCSORGLEFT
 10
0.0
 20
0.0
 30
0.0
  9
$UCSORGRIGHT
 10
0.0
 20
0.0
 30
0.0
  9
$UCSORGFRONT
 10
0.0
 20
0.0
 30
0.0
  9
$UCSORGBACK
 10
0.0
 20
0.0
 30
0.0
  9
$PUCSBASE
  2

  9
$PUCSNAME
  2

  9
$PUCSORG
 10
0.0
 20
0.0
 30
0.0
  9
$PUCSXDIR
 10
1.0
 20
0.0
 30
0.0
  9
$PUCSYDIR
 10
0.0
 20
1.0
 30
0.0
  9
$PUCSORTHOREF
  2

  9
$PUCSORTHOVIEW
 70
     0
  9
$PUCSORGTOP
 10
0.0
 20
0.0
 30
0.0
  9
$PUCSORGBOTTOM
 10
0.0
 20
0.0
 30
0.0
  9
$PUCSORGLEFT
 10
0.0
 20
0.0
 30
0.0
  9
$PUCSORGRIGHT
 10
0.0
 20
0.0
 30
0.0
  9
$PUCSORGFRONT
 10
0.0
 20
0.0
 30
0.0
  9
$PUCSORGBACK
 10
0.0
 20
0.0
 30
0.0
  9
$USERI1
 70
     0
  9
$USERI2
 70
     0
  9
$USERI3
 70
     0
  9
$USERI4
 70
     0
  9
$USERI5
 70
     0
  9
$USERR1
 40
0.0
  9
$USERR2
 40
0.0
  9
$USERR3
 40
0.0
  9
$USERR4
 40
0.0
  9
$USERR5
 40
0.0
  9
$WORLDVIEW
 70
     1
  9
$SHADEDGE
 70
     3
  9
$SHADEDIF
 70
    70
  9
$TILEMODE
 70
     1
  9
$MAXACTVP
 70
    64
  9
$PINSBASE
 10
0.0
 20
0.0
 30
0.0
  9
$PLIMCHECK
 70
     0
  9
$PEXTMIN
 10
0.0
 20
0.0
 30
0.0
  9
$PEXTMAX
 10
0.0
 20
0.0
 30
0.0
  9
$PLIMMIN
 10
0.0
 20
0.0
  9
$PLIMMAX
 10
12.0
 20
9.0
  9
$UNITMODE
 70
     0
  9
$VISRETAIN
 70
     1
  9
$PLINEGEN
 70
     0
  9
$PSLTSCALE
 70
     1
  9
$TREEDEPTH
 70
  3020
  9
$CMLSTYLE
  2
Standard
  9
$CMLJUST
 70
     0
  9
$CMLSCALE
 40
20.0
  9
$PROXYGRAPHICS
 70
     1
  9
$MEASUREMENT
 70
     1
  9
$CELWEIGHT
370
    -1
  9
$ENDCAPS
280
     0
  9
$JOINSTYLE
280
     0
  9
$LWDISPLAY
290
     0
  9
$INSUNITS
 70
     4
  9
$HYPERLINKBASE
  1

  9
$STYLESHEET
  1

  9
$XEDIT
290
     1
  9
$CEPSNTYPE
380
     0
  9
$PSTYLEMODE
290
     1
  9
$FINGERPRINTGUID
  2
{FDEAD578-A652-11D2-9A35-0060089B3A3F}
  9
$VERSIONGUID
  2
{AC70F70C-FA07-44A0-A169-4D5C3F1517F2}
  9
$EXTNAMES
290
     1
  9
$PSVPSCALE
 40
0.0
  9
$OLESTARTUP
290
     0
  0
ENDSEC
  0
SECTION
  2
CLASSES
  0
CLASS
  1
ACDBDICTIONARYWDFLT
  2
AcDbDictionaryWithDefault
  3
ObjectDBX Classes
 90
        0
280
     0
281
     0
  0
CLASS
  1
ACDBPLACEHOLDER
  2
AcDbPlaceHolder
  3
ObjectDBX Classes
 90
        0
280
     0
281
     0
  0
CLASS
  1
LAYOUT
  2
AcDbLayout
  3
ObjectDBX Classes
 90
        0
280
     0
281
     0
  0
CLASS
  1
DICTIONARYVAR
  2
AcDbDictionaryVar
  3
ObjectDBX Classes
 90
        0
280
     0
281
     0
  0
CLASS
  1
MATERIAL
  2
AcDbMaterial
  3
ObjectDBX Classes
 90
        0
280
     0
281
     0
  0
CLASS
  1
SORTENTSTABLE
  2
AcDbSortentsTable
  3
ObjectDBX Classes
 90
    32768
280
     0
281
     0
  0
ENDSEC
  0
SECTION
  2
TABLES
  0
TABLE
  2
VPORT
  5
8
330
0
100
AcDbSymbolTable
 70
     2
  0
VPORT
  5
37F
330
8
100
AcDbSymbolTableRecord
100
AcDbViewportTableRecord
  2
*Active
 70
     0
 10
0.0
 20
0.0
 11
1.0
 21
1.0
 12
922.7403256977742
 22
539.0536301834762
 13
0.0
 23
0.0
 14
10.0
 24
10.0
 15
10.0
 25
10.0
 16
0.0
 26
0.0
 36
1.0
 17
0.0
 27
0.0
 37
0.0
 40
1230.291283106842
 41
2.425287356321839
 42
50.0
 43
0.0
 44
0.0
 50
0.0
 51
0.0
 71
     0
 72
  1000
 73
     1
 74
     3
 75
     0
 76
     0
 77
     0
 78
     0
281
     0
 65
     1
110
0.0
120
0.0
130
0.0
111
1.0
121
0.0
131
0.0
112
0.0
122
1.0
132
0.0
 79
     0
146
0.0
  0
ENDTAB
  0
TABLE
  2
LTYPE
  5
5
330
0
100
AcDbSymbolTable
 70
     2
  0
LTYPE
  5
14
330
5
100
AcDbSymbolTableRecord
100
AcDbLinetypeTableRecord
  2
ByBlock
 70
     0
  3

 72
    65
 73
     0
 40
0.0
  0
LTYPE
  5
15
330
5
100
AcDbSymbolTableRecord
100
AcDbLinetypeTableRecord
  2
ByLayer
 70
     0
  3

 72
    65
 73
     0
 40
0.0
  0
LTYPE
  5
16
330
5
100
AcDbSymbolTableRecord
100
AcDbLinetypeTableRecord
  2
Continuous
 70
     0
  3
Solid line
 72
    65
 73
     0
 40
0.0
  0
LTYPE
  5
326
330
5
100
AcDbSymbolTableRecord
100
AcDbLinetypeTableRecord
  2
ACAD_ISO03W100
 70
     0
  3
ISO dash space __    __    __    __    __    __
 72
    65
 73
     2
 40
30.0
 49
12.0
 74
     0
 49
-18.0
 74
     0
  0
ENDTAB
  0
TABLE
  2
LAYER
  5
2
330
0
100
AcDbSymbolTable
 70
     4
  0
LAYER
  5
10
330
2
100
AcDbSymbolTableRecord
100
AcDbLayerTableRecord
  2
0
 70
     0
 62
     2
  6
Continuous
370
    -3
390
F
  0
LAYER
  5
94
330
2
100
AcDbSymbolTableRecord
100
AcDbLayerTableRecord
  2
1
 70
     0
 62
     1
  6
Continuous
370
    -3
390
F
  0
LAYER
  5
95
330
2
100
AcDbSymbolTableRecord
100
AcDbLayerTableRecord
  2
2
 70
     0
 62
     7
  6
Continuous
370
    -3
390
F
  0
LAYER
  5
177
102
{ACAD_XDICTIONARY
360
178
102
}
330
2
100
AcDbSymbolTableRecord
100
AcDbLayerTableRecord
  2
3
 70
     0
 62
     7
  6
Continuous
370
    -3
390
F
  0
ENDTAB
  0
TABLE
  2
STYLE
  5
3
330
0
100
AcDbSymbolTable
 70
     2
  0
STYLE
  5
11
330
3
100
AcDbSymbolTableRecord
100
AcDbTextStyleTableRecord
  2
Standard
 70
     0
 40
0.0
 41
1.0
 50
0.0
 71
     0
 42
2.5
  3
txt
  4

  0
STYLE
  5
325
330
3
100
AcDbSymbolTableRecord
100
AcDbTextStyleTableRecord
  2

 70
     1
 40
0.0
 41
1.0
 50
0.0
 71
     0
 42
2.5
  3
ltypeshp.shx
  4

  0
ENDTAB
  0
TABLE
  2
VIEW
  5
6
330
0
100
AcDbSymbolTable
 70
     0
  0
ENDTAB
  0
TABLE
  2
UCS
  5
7
330
0
100
AcDbSymbolTable
 70
     0
  0
ENDTAB
  0
TABLE
  2
APPID
  5
9
330
0
100
AcDbSymbolTable
 70
     1
  0
APPID
  5
12
330
9
100
AcDbSymbolTableRecord
100
AcDbRegAppTableRecord
  2
ACAD
 70
     0
  0
ENDTAB
  0
TABLE
  2
DIMSTYLE
  5
A
330
0
100
AcDbSymbolTable
 70
     1
100
AcDbDimStyleTable
 71
     1
340
27
  0
DIMSTYLE
105
27
330
A
100
AcDbSymbolTableRecord
100
AcDbDimStyleTableRecord
  2
ISO-25
 70
     0
 41
2.5
 42
0.625
 43
3.75
 44
1.25
 73
     0
 74
     0
 77
     1
 78
     8
140
2.5
141
2.5
143
0.03937007874016
147
0.625
171
     3
172
     1
271
     2
272
     2
274
     3
278
    44
283
     0
284
     8
340
11
  0
ENDTAB
  0
TABLE
  2
BLOCK_RECORD
  5
1
330
0
100
AcDbSymbolTable
 70
     1
  0
BLOCK_RECORD
  5
1F
330
1
100
AcDbSymbolTableRecord
100
AcDbBlockTableRecord
  2
*Model_Space
340
22
  0
BLOCK_RECORD
  5
50
330
1
100
AcDbSymbolTableRecord
100
AcDbBlockTableRecord
  2
*Paper_Space
340
51
  0
BLOCK_RECORD
  5
55
330
1
100
AcDbSymbolTableRecord
100
AcDbBlockTableRecord
  2
*Paper_Space0
340
56
  0
ENDTAB
  0
ENDSEC
  0
SECTION
  2
BLOCKS
  0
BLOCK
  5
20
330
1F
100
AcDbEntity
  8
0
100
AcDbBlockBegin
  2
*Model_Space
 70
     0
 10
0.0
 20
0.0
 30
0.0
  3
*Model_Space
  1

  0
ENDBLK
  5
21
330
1F
100
AcDbEntity
  8
0
100
AcDbBlockEnd
  0
BLOCK
  5
52
330
50
100
AcDbEntity
 67
     1
  8
0
100
AcDbBlockBegin
  2
*Paper_Space
 70
     0
 10
0.0
 20
0.0
 30
0.0
  3
*Paper_Space
  1

  0
ENDBLK
  5
53
330
50
100
AcDbEntity
 67
     1
  8
0
100
AcDbBlockEnd
  0
BLOCK
  5
57
330
55
100
AcDbEntity
  8
0
100
AcDbBlockBegin
  2
*Paper_Space0
 70
     0
 10
0.0
 20
0.0
 30
0.0
  3
*Paper_Space0
  1

  0
ENDBLK
  5
58
330
55
100
AcDbEntity
  8
0
100
AcDbBlockEnd
  0
ENDSEC
  0
SECTION
  2
ENTITIES
  0
LWPOLYLINE
  5
96
330
1F
100
AcDbEntity
  8
0
 62
     2
100
AcDbPolyline
 90
        4
 70
     1
 43
0.0
 10
0.0
 20
0.0
 10
1000.0
 20
0.0
 10
1000.0
 20
1000.0
 10
0.0
 20
1000.0
  0
LINE
  5
B1
330
1F
100
AcDbEntity
  8
1
 62
     1
100
AcDbLine
 10
20.0
 20
20.0
 30
0.0
 11
980.0
 21
20.0
 31
0.0
  0
LINE
  5
B2
330
1F
100
AcDbEntity
  8
1
 62
     1
100
AcDbLine
 10
980.0
 20
20.0
 30
0.0
 11
980.0
 21
980.0
 31
0.0
  0
LINE
  5
B3
330
1F
100
AcDbEntity
  8
1
 62
     1
100
AcDbLine
 10
980.0
 20
980.0
 30
0.0
 11
20.0
 21
980.0
 31
0.0
  0
LINE
  5
B4
330
1F
100
AcDbEntity
  8
1
 62
     1
100
AcDbLine
 10
20.0
 20
980.0
 30
0.0
 11
20.0
 21
20.0
 31
0.0
  0
LINE
  5
208
330
1F
100
AcDbEntity
  8
3
100
AcDbLine
 10
501.2830316106846
 20
44.28641942796668
 30
0.0
 11
501.2830316106846
 21
940.362672758304
 31
0.0
  0
LINE
  5
209
330
1F
100
AcDbEntity
  8
3
100
AcDbLine
 10
53.24490494551618
 20
192.3245460931358
 30
0.0
 11
949.3211582758531
 21
192.3245460931356
 31
0.0
  0
HATCH
  5
20A
330
1F
100
AcDbEntity
  8
3
100
AcDbHatch
 10
0.0
 20
0.0
 30
0.0
210
0.0
220
0.0
230
1.0
  2
SOLID
 70
     1
 71
     0
 91
        2
 92
        7
 72
     0
 73
     1
 93
        3
 10
501.2830316106846
 20
940.362672758304
 10
501.2830316106846
 20
916.1853615774614
 10
517.3448216472535
 20
896.2764662614079
 97
        0
 92
        7
 72
     0
 73
     1
 93
        3
 10
501.2830316106846
 20
940.362672758296
 10
485.2212415741155
 20
896.2764662614166
 10
501.2830316106846
 20
916.1853615774614
 97
        0
 75
     0
 76
     1
 47
0.0758510857146228
 98
        2
 10
506.1281840787693
 20
919.7345489086924
 10
499.0760270948676
 20
919.161124646685
  0
LINE
  5
20B
330
1F
100
AcDbEntity
  8
3
100
AcDbLine
 10
501.2830316106846
 20
940.362672758304
 30
0.0
 11
485.2212415741155
 21
896.2764662614079
 31
0.0
  0
LINE
  5
20C
330
1F
100
AcDbEntity
  8
3
100
AcDbLine
 10
485.2212415741155
 20
896.2764662614079
 30
0.0
 11
501.2830316106846
 21
916.1853615774614
 31
0.0
  0
LINE
  5
20D
330
1F
100
AcDbEntity
  8
3
100
AcDbLine
 10
501.2830316106846
 20
940.362672758304
 30
0.0
 11
517.3448216472535
 21
896.2764662614079
 31
0.0
  0
LINE
  5
20E
330
1F
100
AcDbEntity
  8
3
100
AcDbLine
 10
517.3448216472535
 20
896.2764662614079
 30
0.0
 11
501.2830316106846
 21
940.362672758304
 31
0.0
  0
LINE
  5
20F
330
1F
100
AcDbEntity
  8
3
100
AcDbLine
 10
517.3448216472535
 20
896.2764662614079
 30
0.0
 11
501.2830316106846
 21
916.1853615774614
 31
0.0
  0
MTEXT
  5
215
330
1F
100
AcDbEntity
  8
3
100
AcDbMText
 10
446.6075858254038
 20
194.0345405409412
 30
0.0
 40
56.04447024
 41
333.363934740435
 71
     1
 72
     5
  1
{\fSimSun|b0|i0|c134|p2;o}
 11
0.9999421637257766
 21
-0.0107549618043136
 31
0.0
 73
     1
 44
1.0
1001
ACAD
1000
MTEXTBEGIN
1070
    73
1070
     1
1070
    44
1040
1.0
1070
    74
1070
     0
1000
MTEXTEND
  0
MTEXT
  5
21B
330
1F
100
AcDbEntity
  8
3
100
AcDbMText
 10
888.7995471710455
 20
175.50866649815
 30
0.0
 40
56.04447024
 41
287.6768225804923
 71
     1
 72
     5
  1
{\fRomantic|b0|i0|c2|p2;x}
 11
0.9999421637257766
 21
-0.0107549618043136
 31
0.0
 73
     1
 44
1.0
1001
ACAD
1000
MTEXTBEGIN
1070
    73
1070
     1
1070
    44
1040
1.0
1070
    74
1070
     0
1000
MTEXTEND
  0
LINE
  5
21C
330
1F
100
AcDbEntity
  8
3
100
AcDbLine
 10
905.2349517789663
 20
208.3863361297048
 30
0.0
 11
925.1438470950033
 21
192.3245460931358
 31
0.0
  0
LINE
  5
21D
330
1F
100
AcDbEntity
  8
3
100
AcDbLine
 10
905.2349517789663
 20
208.3863361297048
 30
0.0
 11
949.3211582758531
 21
192.3245460931358
 31
0.0
  0
LINE
  5
21E
330
1F
100
AcDbEntity
  8
3
100
AcDbLine
 10
949.3211582758531
 20
192.3245460931358
 30
0.0
 11
905.2349517789663
 21
208.3863361297048
 31
0.0
  0
LINE
  5
21F
330
1F
100
AcDbEntity
  8
3
100
AcDbLine
 10
905.2349517789663
 20
176.2627560565669
 30
0.0
 11
925.1438470950033
 21
192.3245460931358
 31
0.0
  0
LINE
  5
220
330
1F
100
AcDbEntity
  8
3
100
AcDbLine
 10
949.3211582758531
 20
192.3245460931358
 30
0.0
 11
905.2349517789663
 21
176.2627560565669
 31
0.0
  0
HATCH
  5
221
330
1F
100
AcDbEntity
  8
3
100
AcDbHatch
 10
0.0
 20
0.0
 30
0.0
210
0.0
220
0.0
230
1.0
  2
SOLID
 70
     1
 71
     0
 91
        2
 92
        7
 72
     0
 73
     1
 93
        3
 10
949.3211582758531
 20
192.3245460931358
 10
925.1438470950033
 20
192.3245460931358
 10
905.2349517789656
 20
208.3863361297048
 97
        0
 92
        7
 72
     0
 73
     1
 93
        3
 10
949.3211582758531
 20
192.3245460931358
 10
905.2349517789656
 20
176.2627560565746
 10
925.1438470950033
 20
192.3245460931358
 97
        0
 75
     0
 76
     1
 47
0.0758510857146228
 98
        2
 10
928.6930344262415
 20
197.1696985612204
 10
928.1196101642265
 20
190.1175415773185
  0
MTEXT
  5
224
330
1F
100
AcDbEntity
  8
3
100
AcDbMText
 10
551.2911402448954
 20
930.4335027966152
 30
0.0
 40
56.04447024
 41
253.5562335700771
 71
     1
 72
     5
  1
{\fRomantic|b0|i0|c2|p2;y}
 11
0.9999421637257766
 21
-0.0107549618043136
 31
0.0
 73
     1
 44
1.0
1001
ACAD
1000
MTEXTBEGIN
1070
    73
1070
     1
1070
    44
1040
1.0
1070
    74
1070
     0
1000
MTEXTEND
  0
LINE
  5
2A0
330
1F
100
AcDbEntity
  8
3
  6
ACAD_ISO03W100
100
AcDbLine
 10
110.4169274625891
 20
342.3245460931357
 30
0.0
 11
809.4366059699384
 21
342.3245460931355
 31
0.0
  0
LWPOLYLINE
  5
2F7
330
1F
100
AcDbEntity
  8
2
100
AcDbPolyline
 90
       79
 70
     0
 43
0.0
 10
201.2830316106848
 20
209.2734286273743
 10
242.2580774315578
 20
214.8245460931426
 10
281.5370035029923
 20
222.3245460931388
 10
312.0041055392509
 20
229.8245460931426
 10
336.8975404672823
 20
237.3245460931426
 10
357.9446398057776
 20
244.8245460931389
 10
376.1764665387167
 20
252.3245460931426
 10
392.2580774315576
 20
259.8245460931388
 10
406.6435685749605
 20
267.3245460931426
 10
419.6568282281807
 20
274.8245460931426
 10
431.5370035029921
 20
282.3245460931389
 10
442.4657053524864
 20
289.8245460931426
 10
452.5841028414872
 20
297.3245460931389
 10
462.0041055392505
 20
304.8245460931426
 10
470.8159295744264
 20
312.3245460931427
 10
479.0933659059523
 20
319.8245460931389
 10
486.8975404672822
 20
327.3245460931427
 10
494.2796563185113
 20
334.824546093139
 10
501.283031610685
 20
342.3245460931427
 10
507.9446398057775
 20
349.8245460931427
 10
514.2962912639052
 20
357.3245460931389
 10
520.3655519616006
 20
364.8245460931427
 10
526.1764665387166
 20
372.324546093139
 10
531.7501336469433
 20
379.8245460931427
 10
537.1051683881963
 20
387.3245460931427
 10
542.2580774315576
 20
394.8245460931389
 10
547.2235658772117
 20
402.3245460931423
 10
552.0147902481695
 20
409.8245460931389
 10
556.6435685749604
 20
417.3245460931425
 10
561.1205560201199
 20
424.8245460931427
 10
565.455392610151
 20
432.3245460931389
 10
569.6568282281805
 20
439.8245460931423
 10
573.7328289416618
 20
447.3245460931389
 10
577.6906679134555
 20
454.8245460931425
 10
581.537003502992
 20
462.3245460931427
 10
585.2779466642971
 20
469.8245460931389
 10
588.9191193542358
 20
477.3245460931423
 10
592.4657053524863
 20
484.8245460931389
 10
595.9224946464094
 20
492.3245460931425
 10
599.2939223345456
 20
499.8245460931427
 10
602.5841028414872
 20
507.3245460931388
 10
605.7968601062166
 20
514.8245460931424
 10
608.9357542996297
 20
522.3245460931389
 10
612.0041055392504
 20
529.8245460931424
 10
615.005014997325
 20
537.3245460931424
 10
617.941383738522
 20
544.8245460931389
 10
620.8159295744264
 20
552.3245460931424
 10
623.6312021799823
 20
559.8245460931389
 10
626.3895966826533
 20
567.3245460931424
 10
629.0933659059519
 20
574.8245460931424
 10
631.7446314239207
 20
582.3245460931389
 10
634.3453935627332
 20
589.8245460931424
 10
636.8975404672822
 20
597.3245460931389
 10
639.4028563358733
 20
604.8245460931426
 10
641.8630289129215
 20
612.3245460931424
 10
644.2796563185111
 20
619.8245460931389
 10
646.6542532838795
 20
627.3245460931424
 10
648.9882568539761
 20
634.8245460931389
 10
651.2830316106848
 20
642.3245460931426
 10
653.5398744644046
 20
649.8245460931424
 10
655.7600190558297
 20
657.3245460931389
 10
657.9446398057772
 20
664.8245460931424
 10
660.0948556458753
 20
672.3245460931389
 10
662.2117334601791
 20
679.8245460931426
 10
664.296291263905
 20
687.3245460931425
 10
666.349501143268
 20
694.8245460931389
 10
668.3722919773864
 20
702.3245460931425
 10
670.3655519616006
 20
709.8245460931389
 10
672.3301309491801
 20
717.3245460931426
 10
674.2668426269522
 20
724.8245460931425
 10
676.1764665387166
 20
732.3245460931389
 10
678.0597499692667
 20
739.8245460931425
 10
679.9174097000216
 20
747.3245460931389
 10
681.7501336469433
 20
754.8245460931426
 10
683.5585823899457
 20
762.3245460931425
 10
685.3433906024001
 20
769.8245460931389
 10
687.105168388196
 20
777.3245460931425
 10
688.8445025339461
 20
784.8245460931389
 10
690.5619576821191
 20
792.3245460931426
  0
MTEXT
  5
323
330
1F
100
AcDbEntity
  8
3
100
AcDbMText
 10
524.3276134855987
 20
359.9292658126008
 30
0.0
 40
56.04447024
 41
206.8268532324935
 71
     1
 72
     5
  1
{\fSimSun|b0|i0|c134|p2;(0,1)}
 11
0.9999421637257766
 21
-0.0107549618043136
 31
0.0
 73
     1
 44
1.0
1001
ACAD
1000
MTEXTBEGIN
1070
    73
1070
     1
1070
    44
1040
1.0
1070
    74
1070
     0
1000
MTEXTEND
  0
MTEXT
  5
328
330
1F
100
AcDbEntity
  8
3
100
AcDbMText
 10
116.0976582181465
 20
419.2916983890358
 30
0.0
 40
56.04447024
 41
511.9839457502827
 71
     1
 72
     5
  1
{\fSimSun|b0|i0|c134|p2;y=1}
 11
0.9999421637257766
 21
-0.0107549618043136
 31
0.0
 73
     1
 44
1.0
1001
ACAD
1000
MTEXTBEGIN
1070
    73
1070
     1
1070
    44
1040
1.0
1070
    74
1070
     0
1000
MTEXTEND
  0
MTEXT
  5
329
330
1F
100
AcDbEntity
  8
3
100
AcDbMText
 10
711.8840410257416
 20
774.2681954642903
 30
0.0
 40
30.0
 41
343.5158186531045
 71
     1
 72
     5
  1
{\fSimSun|b0|i0|c134|p2;y=a;   (a>1)}
 11
0.9999421637257766
 21
-0.0107549618043136
 31
0.0
 73
     1
 44
1.0
1001
ACAD
1000
MTEXTBEGIN
1070
    73
1070
     1
1070
    44
1040
1.0
1070
    74
1070
     0
1000
MTEXTEND
  0
MTEXT
  5
32A
330
1F
100
AcDbEntity
  8
3
100
AcDbMText
 10
777.2126722375708
 20
781.1935946798183
 30
0.0
 40
25.0
 41
823.9012440654807
 71
     1
 72
     5
  1
{\fSimSun|b0|i0|c134|p2;x}
 11
0.9999421637257766
 21
-0.0107549618043136
 31
0.0
 73
     1
 44
1.0
1001
ACAD
1000
MTEXTBEGIN
1070
    73
1070
     1
1070
    44
1040
1.0
1070
    74
1070
     0
1000
MTEXTEND
  0
ENDSEC
  0
SECTION
  2
OBJECTS
  0
DICTIONARY
  5
C
330
0
100
AcDbDictionary
281
     1
  3
ACAD_COLOR
350
6B
  3
ACAD_GROUP
350
D
  3
ACAD_LAYOUT
350
1A
  3
ACAD_MATERIAL
350
6A
  3
ACAD_MLINESTYLE
350
17
  3
ACAD_PLOTSETTINGS
350
19
  3
ACAD_PLOTSTYLENAME
350
E
  3
ACDBHEADERROUNDTRIPXREC
350
380
  3
AcDbVariableDictionary
350
5E
  0
DICTIONARY
  5
178
330
177
100
AcDbDictionary
280
     1
281
     1
  3
ACAD_XREC_ROUNDTRIP
360
179
  3
ADSK_XREC_LAYER_RECONCILED
360
17A
  0
DICTIONARY
  5
6B
102
{ACAD_REACTORS
330
C
102
}
330
C
100
AcDbDictionary
281
     1
  0
DICTIONARY
  5
D
102
{ACAD_REACTORS
330
C
102
}
330
C
100
AcDbDictionary
281
     1
  0
DICTIONARY
  5
1A
102
{ACAD_REACTORS
330
C
102
}
330
C
100
AcDbDictionary
281
     1
  3
Layout1
350
51
  3
Layout2
350
56
  3
Model
350
22
  0
DICTIONARY
  5
6A
102
{ACAD_REACTORS
330
C
102
}
330
C
100
AcDbDictionary
281
     1
  3
Global
350
140
  0
DICTIONARY
  5
17
102
{ACAD_REACTORS
330
C
102
}
330
C
100
AcDbDictionary
281
     1
  3
Standard
350
18
  0
DICTIONARY
  5
19
102
{ACAD_REACTORS
330
C
102
}
330
C
100
AcDbDictionary
281
     1
  0
ACDBDICTIONARYWDFLT
  5
E
102
{ACAD_REACTORS
330
C
102
}
330
C
100
AcDbDictionary
281
     1
  3
Normal
350
F
100
AcDbDictionaryWithDefault
340
F
  0
DICTIONARY
  5
380
102
{ACAD_REACTORS
330
C
102
}
330
C
100
AcDbDictionary
281
     1
  3
COLORDICT
350
382
  3
MATERIALDICT
350
381
  0
DICTIONARY
  5
5E
102
{ACAD_REACTORS
330
C
102
}
330
C
100
AcDbDictionary
281
     1
  3
DIMASSOC
350
5F
  3
HIDETEXT
350
63
  3
PROJECTNAME
350
85
  0
XRECORD
  5
179
102
{ACAD_REACTORS
330
178
102
}
330
178
100
AcDbXrecord
280
     1
102
MATERIAL
340
140
  0
XRECORD
  5
17A
102
{ACAD_REACTORS
330
178
102
}
330
178
100
AcDbXrecord
280
     1
290
     1
  0
LAYOUT
  5
51
102
{ACAD_XDICTIONARY
360
385
102
}
102
{ACAD_REACTORS
330
1A
102
}
330
1A
100
AcDbPlotSettings
  1

  2
None
  4

  6

 40
0.0
 41
0.0
 42
0.0
 43
0.0
 44
0.0
 45
0.0
 46
0.0
 47
0.0
 48
0.0
 49
0.0
140
0.0
141
0.0
142
1.0
143
1.0
 70
   688
 72
     0
 73
     0
 74
     5
  7

 75
    16
147
1.0
148
0.0
149
0.0
100
AcDbLayout
  1
Layout1
 70
     1
 71
     1
 10
0.0
 20
0.0
 11
12.0
 21
9.0
 12
0.0
 22
0.0
 32
0.0
 14
0.0
 24
0.0
 34
0.0
 15
0.0
 25
0.0
 35
0.0
146
0.0
 13
0.0
 23
0.0
 33
0.0
 16
1.0
 26
0.0
 36
0.0
 17
0.0
 27
1.0
 37
0.0
 76
     0
330
50
  0
LAYOUT
  5
56
102
{ACAD_XDICTIONARY
360
387
102
}
102
{ACAD_REACTORS
330
1A
102
}
330
1A
100
AcDbPlotSettings
  1

  2
None
  4

  6

 40
0.0
 41
0.0
 42
0.0
 43
0.0
 44
0.0
 45
0.0
 46
0.0
 47
0.0
 48
0.0
 49
0.0
140
0.0
141
0.0
142
1.0
143
1.0
 70
   688
 72
     0
 73
     0
 74
     5
  7

 75
    16
147
1.0
148
0.0
149
0.0
100
AcDbLayout
  1
Layout2
 70
     1
 71
     2
 10
0.0
 20
0.0
 11
12.0
 21
9.0
 12
0.0
 22
0.0
 32
0.0
 14
0.0
 24
0.0
 34
0.0
 15
0.0
 25
0.0
 35
0.0
146
0.0
 13
0.0
 23
0.0
 33
0.0
 16
1.0
 26
0.0
 36
0.0
 17
0.0
 27
1.0
 37
0.0
 76
     0
330
55
  0
LAYOUT
  5
22
102
{ACAD_XDICTIONARY
360
383
102
}
102
{ACAD_REACTORS
330
1A
102
}
330
1A
100
AcDbPlotSettings
  1

  2
none_device
  4
ANSI_A_(8.50_x_11.00_Inches)
  6

 40
6.349999904632567
 41
19.04999923706055
 42
6.350006103515625
 43
19.04998779296875
 44
215.8999938964844
 45
279.3999938964844
 46
0.0
 47
0.0
 48
0.0
 49
0.0
140
0.0
141
0.0
142
1.0
143
78.436453180766
 70
 11952
 72
     0
 73
     1
 74
     0
  7

 75
     0
147
0.0127491741332998
148
0.0
149
0.0
100
AcDbLayout
  1
Model
 70
     1
 71
     0
 10
0.0
 20
0.0
 11
12.0
 21
9.0
 12
0.0
 22
0.0
 32
0.0
 14
0.0
 24
0.0
 34
0.0
 15
0.0
 25
0.0
 35
0.0
146
0.0
 13
0.0
 23
0.0
 33
0.0
 16
1.0
 26
0.0
 36
0.0
 17
0.0
 27
1.0
 37
0.0
 76
     0
330
1F
  0
MATERIAL
  5
140
330
6A
100
AcDbMaterial
  1
Global
 72
     0
 73
     2
 43
0.0008202099737533
 43
0.0
 43
0.0
 43
0.0
 43
0.0
 43
0.0008202099737533
 43
0.0
 43
0.0
 43
0.0
 43
0.0
 43
1.0
 43
0.0
 43
0.0
 43
0.0
 43
0.0
 43
1.0
 77
     0
 78
     2
 47
0.0008202099737533
 47
0.0
 47
0.0
 47
0.0
 47
0.0
 47
0.0008202099737533
 47
0.0
 47
0.0
 47
0.0
 47
0.0
 47
1.0
 47
0.0
 47
0.0
 47
0.0
 47
0.0
 47
1.0
171
     0
172
     2
 49
0.0008202099737533
 49
0.0
 49
0.0
 49
0.0
 49
0.0
 49
0.0008202099737533
 49
0.0
 49
0.0
 49
0.0
 49
0.0
 49
1.0
 49
0.0
 49
0.0
 49
0.0
 49
0.0
 49
1.0
175
     0
176
     2
142
0.0008202099737533
142
0.0
142
0.0
142
0.0
142
0.0
142
0.0008202099737533
142
0.0
142
0.0
142
0.0
142
0.0
142
1.0
142
0.0
142
0.0
142
0.0
142
0.0
142
1.0
179
     0
270
     2
144
0.0008202099737533
144
0.0
144
0.0
144
0.0
144
0.0
144
0.0008202099737533
144
0.0
144
0.0
144
0.0
144
0.0
144
1.0
144
0.0
144
0.0
144
0.0
144
0.0
144
1.0
274
     2
147
0.0008202099737533
147
0.0
147
0.0
147
0.0
147
0.0
147
0.0008202099737533
147
0.0
147
0.0
147
0.0
147
0.0
147
1.0
147
0.0
147
0.0
147
0.0
147
0.0
147
1.0
  0
MLINESTYLE
  5
18
102
{ACAD_REACTORS
330
17
102
}
330
17
100
AcDbMlineStyle
  2
STANDARD
 70
     0
  3

 62
   256
 51
90.0
 52
90.0
 71
     2
 49
0.5
 62
   256
  6
BYLAYER
 49
-0.5
 62
   256
  6
BYLAYER
  0
ACDBPLACEHOLDER
  5
F
102
{ACAD_REACTORS
330
E
102
}
330
E
  0
XRECORD
  5
382
102
{ACAD_REACTORS
330
380
102
}
330
380
100
AcDbXrecord
280
     1
340
6B
  0
XRECORD
  5
381
102
{ACAD_REACTORS
330
380
102
}
330
380
100
AcDbXrecord
280
     1
340
6A
  0
DICTIONARYVAR
  5
5F
102
{ACAD_REACTORS
330
5E
102
}
330
5E
100
DictionaryVariables
280
     0
  1
2
  0
DICTIONARYVAR
  5
63
102
{ACAD_REACTORS
330
5E
102
}
330
5E
100
DictionaryVariables
280
     0
  1
1
  0
DICTIONARYVAR
  5
85
102
{ACAD_REACTORS
330
5E
102
}
330
5E
100
DictionaryVariables
280
     0
  1

  0
DICTIONARY
  5
385
330
51
100
AcDbDictionary
280
     1
281
     1
  3
ACAD_XREC_ROUNDTRIP
360
386
  0
DICTIONARY
  5
387
330
56
100
AcDbDictionary
280
     1
281
     1
  3
ACAD_XREC_ROUNDTRIP
360
388
  0
DICTIONARY
  5
383
330
22
100
AcDbDictionary
280
     1
281
     1
  3
ACAD_XREC_ROUNDTRIP
360
384
  0
XRECORD
  5
386
102
{ACAD_REACTORS
330
385
102
}
330
385
100
AcDbXrecord
280
     1
102
SHADEPLOT
 70
     0
102
SHADEPLOTRESLEVEL
 70
     2
102
SHADEPLOTCUSTOMDPI
 70
   300
  0
XRECORD
  5
388
102
{ACAD_REACTORS
330
387
102
}
330
387
100
AcDbXrecord
280
     1
102
SHADEPLOT
 70
     0
102
SHADEPLOTRESLEVEL
 70
     2
102
SHADEPLOTCUSTOMDPI
 70
   300
  0
XRECORD
  5
384
102
{ACAD_REACTORS
330
383
102
}
330
383
100
AcDbXrecord
280
     1
102
SHADEPLOT
 70
     0
102
SHADEPLOTRESLEVEL
 70
     2
102
SHADEPLOTCUSTOMDPI
 70
   300
  0
ENDSEC
  0
EOF
