  0
SECTION
  2
HEADER
  9
$ACADVER
  1
AC1015
  9
$ACADMAINTVER
 70
    20
  9
$DWGCODEPAGE
  3
ANSI_936
  9
$INSBASE
 10
0.0
 20
0.0
 30
0.0
  9
$EXTMIN
 10
0.0
 20
-1278.173236740593
 30
0.0
  9
$EXTMAX
 10
2446.599753156144
 20
2.539610597829204E+18
 30
0.0
  9
$LIMMIN
 10
0.0
 20
0.0
  9
$LIMMAX
 10
420.0
 20
297.0
  9
$ORTHOMODE
 70
     0
  9
$REGENMODE
 70
     1
  9
$FILLMODE
 70
     1
  9
$QTEXTMODE
 70
     0
  9
$MIRRTEXT
 70
     0
  9
$LTSCALE
 40
1.0
  9
$ATTMODE
 70
     1
  9
$TEXTSIZE
 40
2.5
  9
$TRACEWID
 40
1.0
  9
$TEXTSTYLE
  7
Standard
  9
$CLAYER
  8
2
  9
$CELTYPE
  6
ByLayer
  9
$CECOLOR
 62
   256
  9
$CELTSCALE
 40
1.0
  9
$DISPSILH
 70
     0
  9
$DIMSCALE
 40
1.0
  9
$DIMASZ
 40
2.5
  9
$DIMEXO
 40
0.625
  9
$DIMDLI
 40
3.75
  9
$DIMRND
 40
0.0
  9
$DIMDLE
 40
0.0
  9
$DIMEXE
 40
1.25
  9
$DIMTP
 40
0.0
  9
$DIMTM
 40
0.0
  9
$DIMTXT
 40
2.5
  9
$DIMCEN
 40
2.5
  9
$DIMTSZ
 40
0.0
  9
$DIMTOL
 70
     0
  9
$DIMLIM
 70
     0
  9
$DIMTIH
 70
     0
  9
$DIMTOH
 70
     0
  9
$DIMSE1
 70
     0
  9
$DIMSE2
 70
     0
  9
$DIMTAD
 70
     1
  9
$DIMZIN
 70
     8
  9
$DIMBLK
  1

  9
$DIMASO
 70
     1
  9
$DIMSHO
 70
     1
  9
$DIMPOST
  1

  9
$DIMAPOST
  1

  9
$DIMALT
 70
     0
  9
$DIMALTD
 70
     3
  9
$DIMALTF
 40
0.03937007874016
  9
$DIMLFAC
 40
1.0
  9
$DIMTOFL
 70
     1
  9
$DIMTVP
 40
0.0
  9
$DIMTIX
 70
     0
  9
$DIMSOXD
 70
     0
  9
$DIMSAH
 70
     0
  9
$DIMBLK1
  1

  9
$DIMBLK2
  1

  9
$DIMSTYLE
  2
ISO-25
  9
$DIMCLRD
 70
     0
  9
$DIMCLRE
 70
     0
  9
$DIMCLRT
 70
     0
  9
$DIMTFAC
 40
1.0
  9
$DIMGAP
 40
0.625
  9
$DIMJUST
 70
     0
  9
$DIMSD1
 70
     0
  9
$DIMSD2
 70
     0
  9
$DIMTOLJ
 70
     0
  9
$DIMTZIN
 70
     8
  9
$DIMALTZ
 70
     0
  9
$DIMALTTZ
 70
     0
  9
$DIMUPT
 70
     0
  9
$DIMDEC
 70
     2
  9
$DIMTDEC
 70
     2
  9
$DIMALTU
 70
     2
  9
$DIMALTTD
 70
     3
  9
$DIMTXSTY
  7
Standard
  9
$DIMAUNIT
 70
     0
  9
$DIMADEC
 70
     0
  9
$DIMALTRND
 40
0.0
  9
$DIMAZIN
 70
     0
  9
$DIMDSEP
 70
    44
  9
$DIMATFIT
 70
     3
  9
$DIMFRAC
 70
     0
  9
$DIMLDRBLK
  1

  9
$DIMLUNIT
 70
     2
  9
$DIMLWD
 70
    -2
  9
$DIMLWE
 70
    -2
  9
$DIMTMOVE
 70
     0
  9
$LUNITS
 70
     2
  9
$LUPREC
 70
     4
  9
$SKETCHINC
 40
1.0
  9
$FILLETRAD
 40
0.0
  9
$AUNITS
 70
     0
  9
$AUPREC
 70
     0
  9
$MENU
  1
.
  9
$ELEVATION
 40
0.0
  9
$PELEVATION
 40
0.0
  9
$THICKNESS
 40
0.0
  9
$LIMCHECK
 70
     0
  9
$CHAMFERA
 40
0.0
  9
$CHAMFERB
 40
0.0
  9
$CHAMFERC
 40
0.0
  9
$CHAMFERD
 40
0.0
  9
$SKPOLY
 70
     0
  9
$TDCREATE
 40
2455505.725807523
  9
$TDUCREATE
 40
2455505.392474190
  9
$TDUPDATE
 40
2457096.596870857
  9
$TDUUPDATE
 40
2457096.263537524
  9
$TDINDWG
 40
0.0617992130
  9
$TDUSRTIMER
 40
0.0617987037
  9
$USRTIMER
 70
     1
  9
$ANGBASE
 50
0.0
  9
$ANGDIR
 70
     0
  9
$PDMODE
 70
     0
  9
$PDSIZE
 40
0.0
  9
$PLINEWID
 40
0.0
  9
$SPLFRAME
 70
     0
  9
$SPLINETYPE
 70
     6
  9
$SPLINESEGS
 70
     8
  9
$HANDSEED
  5
261
  9
$SURFTAB1
 70
     6
  9
$SURFTAB2
 70
     6
  9
$SURFTYPE
 70
     6
  9
$SURFU
 70
     6
  9
$SURFV
 70
     6
  9
$UCSBASE
  2

  9
$UCSNAME
  2

  9
$UCSORG
 10
0.0
 20
0.0
 30
0.0
  9
$UCSXDIR
 10
1.0
 20
0.0
 30
0.0
  9
$UCSYDIR
 10
0.0
 20
1.0
 30
0.0
  9
$UCSORTHOREF
  2

  9
$UCSORTHOVIEW
 70
     0
  9
$UCSORGTOP
 10
0.0
 20
0.0
 30
0.0
  9
$UCSORGBOTTOM
 10
0.0
 20
0.0
 30
0.0
  9
$UCSORGLEFT
 10
0.0
 20
0.0
 30
0.0
  9
$UCSORGRIGHT
 10
0.0
 20
0.0
 30
0.0
  9
$UCSORGFRONT
 10
0.0
 20
0.0
 30
0.0
  9
$UCSORGBACK
 10
0.0
 20
0.0
 30
0.0
  9
$PUCSBASE
  2

  9
$PUCSNAME
  2

  9
$PUCSORG
 10
0.0
 20
0.0
 30
0.0
  9
$PUCSXDIR
 10
1.0
 20
0.0
 30
0.0
  9
$PUCSYDIR
 10
0.0
 20
1.0
 30
0.0
  9
$PUCSORTHOREF
  2

  9
$PUCSORTHOVIEW
 70
     0
  9
$PUCSORGTOP
 10
0.0
 20
0.0
 30
0.0
  9
$PUCSORGBOTTOM
 10
0.0
 20
0.0
 30
0.0
  9
$PUCSORGLEFT
 10
0.0
 20
0.0
 30
0.0
  9
$PUCSORGRIGHT
 10
0.0
 20
0.0
 30
0.0
  9
$PUCSORGFRONT
 10
0.0
 20
0.0
 30
0.0
  9
$PUCSORGBACK
 10
0.0
 20
0.0
 30
0.0
  9
$USERI1
 70
     0
  9
$USERI2
 70
     0
  9
$USERI3
 70
     0
  9
$USERI4
 70
     0
  9
$USERI5
 70
     0
  9
$USERR1
 40
0.0
  9
$USERR2
 40
0.0
  9
$USERR3
 40
0.0
  9
$USERR4
 40
0.0
  9
$USERR5
 40
0.0
  9
$WORLDVIEW
 70
     1
  9
$SHADEDGE
 70
     3
  9
$SHADEDIF
 70
    70
  9
$TILEMODE
 70
     1
  9
$MAXACTVP
 70
    64
  9
$PINSBASE
 10
0.0
 20
0.0
 30
0.0
  9
$PLIMCHECK
 70
     0
  9
$PEXTMIN
 10
0.0
 20
0.0
 30
0.0
  9
$PEXTMAX
 10
0.0
 20
0.0
 30
0.0
  9
$PLIMMIN
 10
0.0
 20
0.0
  9
$PLIMMAX
 10
12.0
 20
9.0
  9
$UNITMODE
 70
     0
  9
$VISRETAIN
 70
     1
  9
$PLINEGEN
 70
     0
  9
$PSLTSCALE
 70
     1
  9
$TREEDEPTH
 70
  3020
  9
$CMLSTYLE
  2
Standard
  9
$CMLJUST
 70
     0
  9
$CMLSCALE
 40
20.0
  9
$PROXYGRAPHICS
 70
     1
  9
$MEASUREMENT
 70
     1
  9
$CELWEIGHT
370
    -1
  9
$ENDCAPS
280
     0
  9
$JOINSTYLE
280
     0
  9
$LWDISPLAY
290
     0
  9
$INSUNITS
 70
     4
  9
$HYPERLINKBASE
  1

  9
$STYLESHEET
  1

  9
$XEDIT
290
     1
  9
$CEPSNTYPE
380
     0
  9
$PSTYLEMODE
290
     1
  9
$FINGERPRINTGUID
  2
{FDEAD578-A652-11D2-9A35-0060089B3A3F}
  9
$VERSIONGUID
  2
{3F753407-AB29-4CF3-845C-0DAFE8AD1E8C}
  9
$EXTNAMES
290
     1
  9
$PSVPSCALE
 40
0.0
  9
$OLESTARTUP
290
     0
  0
ENDSEC
  0
SECTION
  2
CLASSES
  0
CLASS
  1
ACDBDICTIONARYWDFLT
  2
AcDbDictionaryWithDefault
  3
ObjectDBX Classes
 90
        0
280
     0
281
     0
  0
CLASS
  1
ACDBPLACEHOLDER
  2
AcDbPlaceHolder
  3
ObjectDBX Classes
 90
        0
280
     0
281
     0
  0
CLASS
  1
LAYOUT
  2
AcDbLayout
  3
ObjectDBX Classes
 90
        0
280
     0
281
     0
  0
CLASS
  1
DICTIONARYVAR
  2
AcDbDictionaryVar
  3
ObjectDBX Classes
 90
        0
280
     0
281
     0
  0
CLASS
  1
MATERIAL
  2
AcDbMaterial
  3
ObjectDBX Classes
 90
        0
280
     0
281
     0
  0
CLASS
  1
SORTENTSTABLE
  2
AcDbSortentsTable
  3
ObjectDBX Classes
 90
    32768
280
     0
281
     0
  0
ENDSEC
  0
SECTION
  2
TABLES
  0
TABLE
  2
VPORT
  5
8
330
0
100
AcDbSymbolTable
 70
     5
  0
VPORT
  5
257
330
8
100
AcDbSymbolTableRecord
100
AcDbViewportTableRecord
  2
*Active
 70
     0
 10
0.0
 20
0.0
 11
1.0
 21
1.0
 12
969.984028073766
 22
618.2912953469877
 13
0.0
 23
0.0
 14
10.0
 24
10.0
 15
10.0
 25
10.0
 16
0.0
 26
0.0
 36
1.0
 17
0.0
 27
0.0
 37
0.0
 40
1530.832328324635
 41
2.425287356321839
 42
50.0
 43
0.0
 44
0.0
 50
0.0
 51
0.0
 71
     0
 72
  1000
 73
     1
 74
     3
 75
     0
 76
     0
 77
     0
 78
     0
281
     0
 65
     1
110
0.0
120
0.0
130
0.0
111
1.0
121
0.0
131
0.0
112
0.0
122
1.0
132
0.0
 79
     0
146
0.0
  0
ENDTAB
  0
TABLE
  2
LTYPE
  5
5
330
0
100
AcDbSymbolTable
 70
     1
  0
LTYPE
  5
14
330
5
100
AcDbSymbolTableRecord
100
AcDbLinetypeTableRecord
  2
ByBlock
 70
     0
  3

 72
    65
 73
     0
 40
0.0
  0
LTYPE
  5
15
330
5
100
AcDbSymbolTableRecord
100
AcDbLinetypeTableRecord
  2
ByLayer
 70
     0
  3

 72
    65
 73
     0
 40
0.0
  0
LTYPE
  5
16
330
5
100
AcDbSymbolTableRecord
100
AcDbLinetypeTableRecord
  2
Continuous
 70
     0
  3
Solid line
 72
    65
 73
     0
 40
0.0
  0
ENDTAB
  0
TABLE
  2
LAYER
  5
2
330
0
100
AcDbSymbolTable
 70
     4
  0
LAYER
  5
10
330
2
100
AcDbSymbolTableRecord
100
AcDbLayerTableRecord
  2
0
 70
     0
 62
     2
  6
Continuous
370
    -3
390
F
  0
LAYER
  5
94
330
2
100
AcDbSymbolTableRecord
100
AcDbLayerTableRecord
  2
1
 70
     0
 62
     1
  6
Continuous
370
    -3
390
F
  0
LAYER
  5
95
330
2
100
AcDbSymbolTableRecord
100
AcDbLayerTableRecord
  2
2
 70
     0
 62
     7
  6
Continuous
370
    -3
390
F
  0
LAYER
  5
177
102
{ACAD_XDICTIONARY
360
178
102
}
330
2
100
AcDbSymbolTableRecord
100
AcDbLayerTableRecord
  2
3
 70
     0
 62
     7
  6
Continuous
370
    -3
390
F
  0
ENDTAB
  0
TABLE
  2
STYLE
  5
3
330
0
100
AcDbSymbolTable
 70
     1
  0
STYLE
  5
11
330
3
100
AcDbSymbolTableRecord
100
AcDbTextStyleTableRecord
  2
Standard
 70
     0
 40
0.0
 41
1.0
 50
0.0
 71
     0
 42
2.5
  3
txt
  4

  0
ENDTAB
  0
TABLE
  2
VIEW
  5
6
330
0
100
AcDbSymbolTable
 70
     0
  0
ENDTAB
  0
TABLE
  2
UCS
  5
7
330
0
100
AcDbSymbolTable
 70
     0
  0
ENDTAB
  0
TABLE
  2
APPID
  5
9
330
0
100
AcDbSymbolTable
 70
     1
  0
APPID
  5
12
330
9
100
AcDbSymbolTableRecord
100
AcDbRegAppTableRecord
  2
ACAD
 70
     0
  0
ENDTAB
  0
TABLE
  2
DIMSTYLE
  5
A
330
0
100
AcDbSymbolTable
 70
     1
100
AcDbDimStyleTable
 71
     1
340
27
  0
DIMSTYLE
105
27
330
A
100
AcDbSymbolTableRecord
100
AcDbDimStyleTableRecord
  2
ISO-25
 70
     0
 41
2.5
 42
0.625
 43
3.75
 44
1.25
 73
     0
 74
     0
 77
     1
 78
     8
140
2.5
141
2.5
143
0.03937007874016
147
0.625
171
     3
172
     1
271
     2
272
     2
274
     3
278
    44
283
     0
284
     8
340
11
  0
ENDTAB
  0
TABLE
  2
BLOCK_RECORD
  5
1
330
0
100
AcDbSymbolTable
 70
     2
  0
BLOCK_RECORD
  5
1F
330
1
100
AcDbSymbolTableRecord
100
AcDbBlockTableRecord
  2
*Model_Space
340
22
  0
BLOCK_RECORD
  5
50
330
1
100
AcDbSymbolTableRecord
100
AcDbBlockTableRecord
  2
*Paper_Space
340
51
  0
BLOCK_RECORD
  5
55
330
1
100
AcDbSymbolTableRecord
100
AcDbBlockTableRecord
  2
*Paper_Space0
340
56
  0
ENDTAB
  0
ENDSEC
  0
SECTION
  2
BLOCKS
  0
BLOCK
  5
20
330
1F
100
AcDbEntity
  8
0
100
AcDbBlockBegin
  2
*Model_Space
 70
     0
 10
0.0
 20
0.0
 30
0.0
  3
*Model_Space
  1

  0
ENDBLK
  5
21
330
1F
100
AcDbEntity
  8
0
100
AcDbBlockEnd
  0
BLOCK
  5
52
330
50
100
AcDbEntity
 67
     1
  8
0
100
AcDbBlockBegin
  2
*Paper_Space
 70
     0
 10
0.0
 20
0.0
 30
0.0
  3
*Paper_Space
  1

  0
ENDBLK
  5
53
330
50
100
AcDbEntity
 67
     1
  8
0
100
AcDbBlockEnd
  0
BLOCK
  5
57
330
55
100
AcDbEntity
  8
0
100
AcDbBlockBegin
  2
*Paper_Space0
 70
     0
 10
0.0
 20
0.0
 30
0.0
  3
*Paper_Space0
  1

  0
ENDBLK
  5
58
330
55
100
AcDbEntity
  8
0
100
AcDbBlockEnd
  0
ENDSEC
  0
SECTION
  2
ENTITIES
  0
LWPOLYLINE
  5
96
330
1F
100
AcDbEntity
  8
0
 62
     2
100
AcDbPolyline
 90
        4
 70
     1
 43
0.0
 10
0.0
 20
0.0
 10
1000.0
 20
0.0
 10
1000.0
 20
1000.0
 10
0.0
 20
1000.0
  0
LINE
  5
B1
330
1F
100
AcDbEntity
  8
1
 62
     1
100
AcDbLine
 10
20.0
 20
20.0
 30
0.0
 11
980.0
 21
20.0
 31
0.0
  0
LINE
  5
B2
330
1F
100
AcDbEntity
  8
1
 62
     1
100
AcDbLine
 10
980.0
 20
20.0
 30
0.0
 11
980.0
 21
980.0
 31
0.0
  0
LINE
  5
B3
330
1F
100
AcDbEntity
  8
1
 62
     1
100
AcDbLine
 10
980.0
 20
980.0
 30
0.0
 11
20.0
 21
980.0
 31
0.0
  0
LINE
  5
B4
330
1F
100
AcDbEntity
  8
1
 62
     1
100
AcDbLine
 10
20.0
 20
980.0
 30
0.0
 11
20.0
 21
20.0
 31
0.0
  0
LINE
  5
208
330
1F
100
AcDbEntity
  8
3
100
AcDbLine
 10
51.96187333483135
 20
499.9999999999999
 30
0.0
 11
948.0381266651688
 21
499.9999999999999
 31
0.0
  0
LINE
  5
209
330
1F
100
AcDbEntity
  8
3
100
AcDbLine
 10
499.9999999999998
 20
948.0381266651685
 30
0.0
 11
499.9999999999998
 21
51.96187333483128
 31
0.0
  0
HATCH
  5
20A
330
1F
100
AcDbEntity
  8
3
100
AcDbHatch
 10
0.0
 20
0.0
 30
0.0
210
0.0
220
0.0
230
1.0
  2
SOLID
 70
     1
 71
     0
 91
        2
 92
        7
 72
     0
 73
     1
 93
        3
 10
948.0381266651688
 20
499.9999999999999
 10
923.8608154843259
 20
499.9999999999999
 10
903.9519201682729
 20
483.938209963431
 97
        0
 92
        7
 72
     0
 73
     1
 93
        3
 10
948.0381266651606
 20
499.9999999999999
 10
903.9519201682811
 20
516.0617900365688
 10
923.8608154843259
 20
499.9999999999999
 97
        0
 75
     0
 76
     1
 47
0.0758510857146228
 98
        2
 10
927.410002815557
 20
495.1548475319152
 10
926.8365785535497
 20
502.2070045158169
  0
LINE
  5
20B
330
1F
100
AcDbEntity
  8
3
100
AcDbLine
 10
948.0381266651688
 20
499.9999999999999
 30
0.0
 11
903.9519201682729
 21
516.061790036569
 31
0.0
  0
LINE
  5
20C
330
1F
100
AcDbEntity
  8
3
100
AcDbLine
 10
903.9519201682729
 20
516.061790036569
 30
0.0
 11
923.8608154843259
 21
499.9999999999999
 31
0.0
  0
LINE
  5
20D
330
1F
100
AcDbEntity
  8
3
100
AcDbLine
 10
948.0381266651688
 20
499.9999999999999
 30
0.0
 11
903.9519201682729
 21
483.938209963431
 31
0.0
  0
LINE
  5
20E
330
1F
100
AcDbEntity
  8
3
100
AcDbLine
 10
903.9519201682729
 20
483.938209963431
 30
0.0
 11
948.0381266651688
 21
499.9999999999999
 31
0.0
  0
LINE
  5
20F
330
1F
100
AcDbEntity
  8
3
100
AcDbLine
 10
903.9519201682729
 20
483.938209963431
 30
0.0
 11
923.8608154843259
 21
499.9999999999999
 31
0.0
  0
LINE
  5
210
330
1F
100
AcDbEntity
  8
3
100
AcDbLine
 10
499.9999999999998
 20
655.5726442384436
 30
0.0
 11
528.1574437206367
 21
655.5726442384436
 31
0.0
  0
LINE
  5
211
330
1F
100
AcDbEntity
  8
3
100
AcDbLine
 10
344.4273557615638
 20
499.9999999999999
 30
0.0
 11
344.4273557615638
 21
528.1574437206367
 31
0.0
  0
LINE
  5
212
330
1F
100
AcDbEntity
  8
3
100
AcDbLine
 10
188.8547115231197
 20
499.9999999999999
 30
0.0
 11
188.8547115231197
 21
528.1574437206367
 31
0.0
  0
LINE
  5
213
330
1F
100
AcDbEntity
  8
3
100
AcDbLine
 10
655.5726442384361
 20
499.9999999999999
 30
0.0
 11
655.5726442384361
 21
528.1574437206367
 31
0.0
  0
LINE
  5
214
330
1F
100
AcDbEntity
  8
3
100
AcDbLine
 10
811.1452884768805
 20
499.9999999999999
 30
0.0
 11
811.1452884768805
 21
528.1574437206367
 31
0.0
  0
MTEXT
  5
215
330
1F
100
AcDbEntity
  8
3
100
AcDbMText
 10
525.136871432142
 20
501.7099944478053
 30
0.0
 40
56.04447024
 41
253.5562335700771
 71
     1
 72
     5
  1
{\fSimSun|b0|i0|c134|p2;o}
 11
0.9999421637257766
 21
-0.0107549618043136
 31
0.0
 73
     1
 44
1.0
1001
ACAD
1000
MTEXTBEGIN
1070
    73
1070
     1
1070
    44
1040
1.0
1070
    74
1070
     0
1000
MTEXTEND
  0
MTEXT
  5
21B
330
1F
100
AcDbEntity
  8
3
100
AcDbMText
 10
926.3823144792517
 20
497.221073618645
 30
0.0
 40
56.04447024
 41
253.5562335700771
 71
     1
 72
     5
  1
{\fRomantic|b0|i0|c2|p2;x}
 11
0.9999421637257766
 21
-0.0107549618043136
 31
0.0
 73
     1
 44
1.0
1001
ACAD
1000
MTEXTBEGIN
1070
    73
1070
     1
1070
    44
1040
1.0
1070
    74
1070
     0
1000
MTEXTEND
  0
LINE
  5
21C
330
1F
100
AcDbEntity
  8
3
100
AcDbLine
 10
516.0617900365689
 20
903.9519201682811
 30
0.0
 11
499.9999999999998
 21
923.8608154843182
 31
0.0
  0
LINE
  5
21D
330
1F
100
AcDbEntity
  8
3
100
AcDbLine
 10
516.0617900365689
 20
903.9519201682811
 30
0.0
 11
499.9999999999998
 21
948.0381266651685
 31
0.0
  0
LINE
  5
21E
330
1F
100
AcDbEntity
  8
3
100
AcDbLine
 10
499.9999999999998
 20
948.0381266651685
 30
0.0
 11
516.0617900365689
 21
903.9519201682811
 31
0.0
  0
LINE
  5
21F
330
1F
100
AcDbEntity
  8
3
100
AcDbLine
 10
483.9382099634311
 20
903.9519201682811
 30
0.0
 11
499.9999999999998
 21
923.8608154843182
 31
0.0
  0
LINE
  5
220
330
1F
100
AcDbEntity
  8
3
100
AcDbLine
 10
499.9999999999998
 20
948.0381266651685
 30
0.0
 11
483.9382099634311
 21
903.9519201682811
 31
0.0
  0
HATCH
  5
221
330
1F
100
AcDbEntity
  8
3
100
AcDbHatch
 10
0.0
 20
0.0
 30
0.0
210
0.0
220
0.0
230
1.0
  2
SOLID
 70
     1
 71
     0
 91
        2
 92
        7
 72
     0
 73
     1
 93
        3
 10
499.9999999999998
 20
948.0381266651685
 10
499.9999999999998
 20
923.8608154843182
 10
516.0617900365689
 20
903.9519201682809
 97
        0
 92
        7
 72
     0
 73
     1
 93
        3
 10
499.9999999999998
 20
948.0381266651685
 10
483.9382099634388
 20
903.9519201682809
 10
499.9999999999998
 20
923.8608154843182
 97
        0
 75
     0
 76
     1
 47
0.0758510857146228
 98
        2
 10
504.8451524680845
 20
927.4100028155569
 10
497.7929954841827
 20
926.8365785535419
  0
LINE
  5
222
330
1F
100
AcDbEntity
  8
3
100
AcDbLine
 10
499.9999999999998
 20
811.1452884768802
 30
0.0
 11
528.1574437206367
 21
811.1452884768802
 31
0.0
  0
MTEXT
  5
224
330
1F
100
AcDbEntity
  8
3
100
AcDbMText
 10
540.0742930539313
 20
961.8629744189311
 30
0.0
 40
56.04447024
 41
253.5562335700771
 71
     1
 72
     5
  1
{\fRomantic|b0|i0|c2|p2;y}
 11
0.9999421637257766
 21
-0.0107549618043136
 31
0.0
 73
     1
 44
1.0
1001
ACAD
1000
MTEXTBEGIN
1070
    73
1070
     1
1070
    44
1040
1.0
1070
    74
1070
     0
1000
MTEXTEND
  0
LINE
  5
225
330
1F
100
AcDbEntity
  8
3
100
AcDbLine
 10
499.9999999999998
 20
344.427355761556
 30
0.0
 11
528.1574437206367
 21
344.427355761556
 31
0.0
  0
LINE
  5
228
330
1F
100
AcDbEntity
  8
3
100
AcDbLine
 10
499.9999999999998
 20
188.8547115231198
 30
0.0
 11
528.1574437206367
 21
188.8547115231198
 31
0.0
  0
LWPOLYLINE
  5
230
330
1F
100
AcDbEntity
  8
2
100
AcDbPolyline
 90
        2
 70
     0
 43
0.0
 10
582.1063888888893
 20
-1278.173236740578
 10
582.1098073262159
 20
-1277.464540885491
  0
LWPOLYLINE
  5
232
330
1F
100
AcDbEntity
  8
2
100
AcDbPolyline
 90
       31
 70
     0
 43
0.0
 10
594.488998982432
 20
51.96187333483128
 10
595.0705555555469
 20
72.57493785543193
 10
599.3919444444473
 20
166.3790583763184
 10
603.7133333333331
 20
230.5448558664939
 10
608.0347222222189
 20
277.8230145911221
 10
612.3561111111048
 20
314.5988936001231
 10
616.6775000000052
 20
344.429999999993
 10
620.998888888891
 20
369.4612703777384
 10
625.3202777777769
 20
391.068713280707
 10
629.6416666666628
 20
410.1816186221549
 10
633.9630555555486
 20
427.4565176208125
 10
638.284444444449
 20
443.3771506552002
 10
642.6058333333348
 20
458.3151441334921
 10
646.9272222222207
 20
472.568811611185
 10
651.2486111111066
 20
486.3893886152655
 10
655.570000000007
 20
500.0
 10
659.8913888888928
 20
513.6106113847199
 10
664.2127777777787
 20
527.4311883888003
 10
668.5341666666645
 20
541.6848558664932
 10
672.8555555555503
 20
556.6228493447852
 10
677.1769444444507
 20
572.5434823791728
 10
681.4983333333366
 20
589.8183813778305
 10
685.8197222222225
 20
608.9312867192784
 10
690.1411111111083
 20
630.538729622247
 10
694.4624999999941
 20
655.5699999999924
 10
698.7838888888945
 20
685.4011063998768
 10
703.1052777777804
 20
722.1769854088634
 10
707.4266666666662
 20
769.4551441334915
 10
711.7480555555521
 20
833.620941623667
 10
716.0694444444525
 20
927.4250621445535
 10
716.6510010175678
 20
948.0381266651688
  0
LWPOLYLINE
  5
236
330
1F
100
AcDbEntity
  8
2
100
AcDbPolyline
 90
       30
 70
     0
 43
0.0
 10
438.9163547439959
 20
51.96187333483128
 10
439.4979113171108
 20
72.57493785543193
 10
443.8193002060112
 20
166.3790583763184
 10
448.1406890948971
 20
230.5448558664939
 10
452.4620779837829
 20
277.8230145911221
 10
456.7834668726687
 20
314.5988936001231
 10
461.1048557615691
 20
344.429999999993
 10
465.426244650455
 20
369.4612703777384
 10
469.7476335393409
 20
391.068713280707
 10
474.0690224282267
 20
410.1816186221549
 10
478.3904113171125
 20
427.4565176208125
 10
482.711800206013
 20
443.3771506552002
 10
487.0331890948988
 20
458.3151441334921
 10
491.3545779837846
 20
472.568811611185
 10
495.6759668726705
 20
486.3893886152655
 10
499.9973557615709
 20
500.0
 10
504.3187446504568
 20
513.6106113847199
 10
508.6401335393426
 20
527.4311883888003
 10
512.9615224282284
 20
541.6848558664932
 10
517.2829113171143
 20
556.6228493447852
 10
521.6043002060147
 20
572.5434823791728
 10
525.9256890949005
 20
589.8183813778305
 10
530.2470779837864
 20
608.9312867192784
 10
534.5684668726723
 20
630.538729622247
 10
538.8898557615581
 20
655.5699999999924
 10
543.2112446504585
 20
685.4011063998768
 10
547.5326335393443
 20
722.1769854088634
 10
551.8540224282302
 20
769.4551441334915
 10
556.175411317116
 20
833.620941623667
 10
557.6033948440664
 20
864.6180914538868
  0
LWPOLYLINE
  5
237
330
1F
100
AcDbEntity
  8
2
100
AcDbPolyline
 90
       30
 70
     0
 43
0.0
 10
283.2863145898069
 20
51.96187333483123
 10
283.8678711629217
 20
72.57493785543187
 10
288.1892600518222
 20
166.3790583763183
 10
292.510648940708
 20
230.5448558664938
 10
296.8320378295938
 20
277.823014591122
 10
301.1534267184797
 20
314.5988936001231
 10
305.4748156073801
 20
344.4299999999929
 10
309.796204496266
 20
369.4612703777384
 10
314.1175933851518
 20
391.0687132807069
 10
318.4389822740377
 20
410.1816186221548
 10
322.7603711629235
 20
427.4565176208124
 10
327.0817600518239
 20
443.3771506552002
 10
331.4031489407097
 20
458.315144133492
 10
335.7245378295956
 20
472.568811611185
 10
340.0459267184814
 20
486.3893886152654
 10
344.3673156073818
 20
499.9999999999999
 10
348.6887044962677
 20
513.6106113847199
 10
353.0100933851536
 20
527.4311883888003
 10
357.3314822740394
 20
541.6848558664932
 10
361.6528711629253
 20
556.6228493447852
 10
365.9742600518256
 20
572.5434823791728
 10
370.2956489407115
 20
589.8183813778305
 10
374.6170378295973
 20
608.9312867192784
 10
378.9384267184832
 20
630.538729622247
 10
383.259815607369
 20
655.5699999999924
 10
387.5812044962694
 20
685.4011063998768
 10
391.9025933851553
 20
722.1769854088634
 10
396.2239822740412
 20
769.4551441334915
 10
400.545371162927
 20
833.620941623667
 10
401.9733546898773
 20
864.6180914538868
  0
ENDSEC
  0
SECTION
  2
OBJECTS
  0
DICTIONARY
  5
C
330
0
100
AcDbDictionary
281
     1
  3
ACAD_COLOR
350
6B
  3
ACAD_GROUP
350
D
  3
ACAD_LAYOUT
350
1A
  3
ACAD_MATERIAL
350
6A
  3
ACAD_MLINESTYLE
350
17
  3
ACAD_PLOTSETTINGS
350
19
  3
ACAD_PLOTSTYLENAME
350
E
  3
ACDBHEADERROUNDTRIPXREC
350
258
  3
AcDbVariableDictionary
350
5E
  0
DICTIONARY
  5
178
330
177
100
AcDbDictionary
280
     1
281
     1
  3
ACAD_XREC_ROUNDTRIP
360
179
  3
ADSK_XREC_LAYER_RECONCILED
360
17A
  0
DICTIONARY
  5
6B
102
{ACAD_REACTORS
330
C
102
}
330
C
100
AcDbDictionary
281
     1
  0
DICTIONARY
  5
D
102
{ACAD_REACTORS
330
C
102
}
330
C
100
AcDbDictionary
281
     1
  0
DICTIONARY
  5
1A
102
{ACAD_REACTORS
330
C
102
}
330
C
100
AcDbDictionary
281
     1
  3
Layout1
350
51
  3
Layout2
350
56
  3
Model
350
22
  0
DICTIONARY
  5
6A
102
{ACAD_REACTORS
330
C
102
}
330
C
100
AcDbDictionary
281
     1
  3
Global
350
140
  0
DICTIONARY
  5
17
102
{ACAD_REACTORS
330
C
102
}
330
C
100
AcDbDictionary
281
     1
  3
Standard
350
18
  0
DICTIONARY
  5
19
102
{ACAD_REACTORS
330
C
102
}
330
C
100
AcDbDictionary
281
     1
  0
ACDBDICTIONARYWDFLT
  5
E
102
{ACAD_REACTORS
330
C
102
}
330
C
100
AcDbDictionary
281
     1
  3
Normal
350
F
100
AcDbDictionaryWithDefault
340
F
  0
DICTIONARY
  5
258
102
{ACAD_REACTORS
330
C
102
}
330
C
100
AcDbDictionary
281
     1
  3
COLORDICT
350
25A
  3
MATERIALDICT
350
259
  0
DICTIONARY
  5
5E
102
{ACAD_REACTORS
330
C
102
}
330
C
100
AcDbDictionary
281
     1
  3
DIMASSOC
350
5F
  3
HIDETEXT
350
63
  3
PROJECTNAME
350
85
  0
XRECORD
  5
179
102
{ACAD_REACTORS
330
178
102
}
330
178
100
AcDbXrecord
280
     1
102
MATERIAL
340
140
  0
XRECORD
  5
17A
102
{ACAD_REACTORS
330
178
102
}
330
178
100
AcDbXrecord
280
     1
290
     1
  0
LAYOUT
  5
51
102
{ACAD_XDICTIONARY
360
25D
102
}
102
{ACAD_REACTORS
330
1A
102
}
330
1A
100
AcDbPlotSettings
  1

  2
None
  4

  6

 40
0.0
 41
0.0
 42
0.0
 43
0.0
 44
0.0
 45
0.0
 46
0.0
 47
0.0
 48
0.0
 49
0.0
140
0.0
141
0.0
142
1.0
143
1.0
 70
   688
 72
     0
 73
     0
 74
     5
  7

 75
    16
147
1.0
148
0.0
149
0.0
100
AcDbLayout
  1
Layout1
 70
     1
 71
     1
 10
0.0
 20
0.0
 11
12.0
 21
9.0
 12
0.0
 22
0.0
 32
0.0
 14
0.0
 24
0.0
 34
0.0
 15
0.0
 25
0.0
 35
0.0
146
0.0
 13
0.0
 23
0.0
 33
0.0
 16
1.0
 26
0.0
 36
0.0
 17
0.0
 27
1.0
 37
0.0
 76
     0
330
50
  0
LAYOUT
  5
56
102
{ACAD_XDICTIONARY
360
25F
102
}
102
{ACAD_REACTORS
330
1A
102
}
330
1A
100
AcDbPlotSettings
  1

  2
None
  4

  6

 40
0.0
 41
0.0
 42
0.0
 43
0.0
 44
0.0
 45
0.0
 46
0.0
 47
0.0
 48
0.0
 49
0.0
140
0.0
141
0.0
142
1.0
143
1.0
 70
   688
 72
     0
 73
     0
 74
     5
  7

 75
    16
147
1.0
148
0.0
149
0.0
100
AcDbLayout
  1
Layout2
 70
     1
 71
     2
 10
0.0
 20
0.0
 11
12.0
 21
9.0
 12
0.0
 22
0.0
 32
0.0
 14
0.0
 24
0.0
 34
0.0
 15
0.0
 25
0.0
 35
0.0
146
0.0
 13
0.0
 23
0.0
 33
0.0
 16
1.0
 26
0.0
 36
0.0
 17
0.0
 27
1.0
 37
0.0
 76
     0
330
55
  0
LAYOUT
  5
22
102
{ACAD_XDICTIONARY
360
25B
102
}
102
{ACAD_REACTORS
330
1A
102
}
330
1A
100
AcDbPlotSettings
  1

  2
none_device
  4
ANSI_A_(8.50_x_11.00_Inches)
  6

 40
6.349999904632567
 41
19.04999923706055
 42
6.350006103515625
 43
19.04998779296875
 44
215.8999938964844
 45
279.3999938964844
 46
0.0
 47
0.0
 48
0.0
 49
0.0
140
0.0
141
0.0
142
1.0
143
78.436453180766
 70
 11952
 72
     0
 73
     1
 74
     0
  7

 75
     0
147
0.0127491741332998
148
0.0
149
0.0
100
AcDbLayout
  1
Model
 70
     1
 71
     0
 10
0.0
 20
0.0
 11
12.0
 21
9.0
 12
0.0
 22
0.0
 32
0.0
 14
0.0
 24
0.0
 34
0.0
 15
0.0
 25
0.0
 35
0.0
146
0.0
 13
0.0
 23
0.0
 33
0.0
 16
1.0
 26
0.0
 36
0.0
 17
0.0
 27
1.0
 37
0.0
 76
     0
330
1F
  0
MATERIAL
  5
140
330
6A
100
AcDbMaterial
  1
Global
 72
     0
 73
     2
 43
0.0008202099737533
 43
0.0
 43
0.0
 43
0.0
 43
0.0
 43
0.0008202099737533
 43
0.0
 43
0.0
 43
0.0
 43
0.0
 43
1.0
 43
0.0
 43
0.0
 43
0.0
 43
0.0
 43
1.0
 77
     0
 78
     2
 47
0.0008202099737533
 47
0.0
 47
0.0
 47
0.0
 47
0.0
 47
0.0008202099737533
 47
0.0
 47
0.0
 47
0.0
 47
0.0
 47
1.0
 47
0.0
 47
0.0
 47
0.0
 47
0.0
 47
1.0
171
     0
172
     2
 49
0.0008202099737533
 49
0.0
 49
0.0
 49
0.0
 49
0.0
 49
0.0008202099737533
 49
0.0
 49
0.0
 49
0.0
 49
0.0
 49
1.0
 49
0.0
 49
0.0
 49
0.0
 49
0.0
 49
1.0
175
     0
176
     2
142
0.0008202099737533
142
0.0
142
0.0
142
0.0
142
0.0
142
0.0008202099737533
142
0.0
142
0.0
142
0.0
142
0.0
142
1.0
142
0.0
142
0.0
142
0.0
142
0.0
142
1.0
179
     0
270
     2
144
0.0008202099737533
144
0.0
144
0.0
144
0.0
144
0.0
144
0.0008202099737533
144
0.0
144
0.0
144
0.0
144
0.0
144
1.0
144
0.0
144
0.0
144
0.0
144
0.0
144
1.0
274
     2
147
0.0008202099737533
147
0.0
147
0.0
147
0.0
147
0.0
147
0.0008202099737533
147
0.0
147
0.0
147
0.0
147
0.0
147
1.0
147
0.0
147
0.0
147
0.0
147
0.0
147
1.0
  0
MLINESTYLE
  5
18
102
{ACAD_REACTORS
330
17
102
}
330
17
100
AcDbMlineStyle
  2
STANDARD
 70
     0
  3

 62
   256
 51
90.0
 52
90.0
 71
     2
 49
0.5
 62
   256
  6
BYLAYER
 49
-0.5
 62
   256
  6
BYLAYER
  0
ACDBPLACEHOLDER
  5
F
102
{ACAD_REACTORS
330
E
102
}
330
E
  0
XRECORD
  5
25A
102
{ACAD_REACTORS
330
258
102
}
330
258
100
AcDbXrecord
280
     1
340
6B
  0
XRECORD
  5
259
102
{ACAD_REACTORS
330
258
102
}
330
258
100
AcDbXrecord
280
     1
340
6A
  0
DICTIONARYVAR
  5
5F
102
{ACAD_REACTORS
330
5E
102
}
330
5E
100
DictionaryVariables
280
     0
  1
2
  0
DICTIONARYVAR
  5
63
102
{ACAD_REACTORS
330
5E
102
}
330
5E
100
DictionaryVariables
280
     0
  1
1
  0
DICTIONARYVAR
  5
85
102
{ACAD_REACTORS
330
5E
102
}
330
5E
100
DictionaryVariables
280
     0
  1

  0
DICTIONARY
  5
25D
330
51
100
AcDbDictionary
280
     1
281
     1
  3
ACAD_XREC_ROUNDTRIP
360
25E
  0
DICTIONARY
  5
25F
330
56
100
AcDbDictionary
280
     1
281
     1
  3
ACAD_XREC_ROUNDTRIP
360
260
  0
DICTIONARY
  5
25B
330
22
100
AcDbDictionary
280
     1
281
     1
  3
ACAD_XREC_ROUNDTRIP
360
25C
  0
XRECORD
  5
25E
102
{ACAD_REACTORS
330
25D
102
}
330
25D
100
AcDbXrecord
280
     1
102
SHADEPLOT
 70
     0
102
SHADEPLOTRESLEVEL
 70
     2
102
SHADEPLOTCUSTOMDPI
 70
   300
  0
XRECORD
  5
260
102
{ACAD_REACTORS
330
25F
102
}
330
25F
100
AcDbXrecord
280
     1
102
SHADEPLOT
 70
     0
102
SHADEPLOTRESLEVEL
 70
     2
102
SHADEPLOTCUSTOMDPI
 70
   300
  0
XRECORD
  5
25C
102
{ACAD_REACTORS
330
25B
102
}
330
25B
100
AcDbXrecord
280
     1
102
SHADEPLOT
 70
     0
102
SHADEPLOTRESLEVEL
 70
     2
102
SHADEPLOTCUSTOMDPI
 70
   300
  0
ENDSEC
  0
EOF
