  0
SECTION
  2
HEADER
  9
$ACADVER
  1
AC1015
  9
$ACADMAINTVER
 70
    20
  9
$DWGCODEPAGE
  3
ANSI_936
  9
$INSBASE
 10
0.0
 20
0.0
 30
0.0
  9
$EXTMIN
 10
-0.3873451170163621
 20
-155.57
 30
0.0
  9
$EXTMAX
 10
2558.824473670574
 20
1000.0
 30
0.0
  9
$LIMMIN
 10
0.0
 20
0.0
  9
$LIMMAX
 10
420.0
 20
297.0
  9
$ORTHOMODE
 70
     0
  9
$REGENMODE
 70
     1
  9
$FILLMODE
 70
     1
  9
$QTEXTMODE
 70
     0
  9
$MIRRTEXT
 70
     0
  9
$LTSCALE
 40
1.0
  9
$ATTMODE
 70
     1
  9
$TEXTSIZE
 40
2.5
  9
$TRACEWID
 40
1.0
  9
$TEXTSTYLE
  7
Standard
  9
$CLAYER
  8
2
  9
$CELTYPE
  6
ByLayer
  9
$CECOLOR
 62
   256
  9
$CELTSCALE
 40
1.0
  9
$DISPSILH
 70
     0
  9
$DIMSCALE
 40
1.0
  9
$DIMASZ
 40
2.5
  9
$DIMEXO
 40
0.625
  9
$DIMDLI
 40
3.75
  9
$DIMRND
 40
0.0
  9
$DIMDLE
 40
0.0
  9
$DIMEXE
 40
1.25
  9
$DIMTP
 40
0.0
  9
$DIMTM
 40
0.0
  9
$DIMTXT
 40
2.5
  9
$DIMCEN
 40
2.5
  9
$DIMTSZ
 40
0.0
  9
$DIMTOL
 70
     0
  9
$DIMLIM
 70
     0
  9
$DIMTIH
 70
     0
  9
$DIMTOH
 70
     0
  9
$DIMSE1
 70
     0
  9
$DIMSE2
 70
     0
  9
$DIMTAD
 70
     1
  9
$DIMZIN
 70
     8
  9
$DIMBLK
  1

  9
$DIMASO
 70
     1
  9
$DIMSHO
 70
     1
  9
$DIMPOST
  1

  9
$DIMAPOST
  1

  9
$DIMALT
 70
     0
  9
$DIMALTD
 70
     3
  9
$DIMALTF
 40
0.03937007874016
  9
$DIMLFAC
 40
1.0
  9
$DIMTOFL
 70
     1
  9
$DIMTVP
 40
0.0
  9
$DIMTIX
 70
     0
  9
$DIMSOXD
 70
     0
  9
$DIMSAH
 70
     0
  9
$DIMBLK1
  1

  9
$DIMBLK2
  1

  9
$DIMSTYLE
  2
ISO-25
  9
$DIMCLRD
 70
     0
  9
$DIMCLRE
 70
     0
  9
$DIMCLRT
 70
     0
  9
$DIMTFAC
 40
1.0
  9
$DIMGAP
 40
0.625
  9
$DIMJUST
 70
     0
  9
$DIMSD1
 70
     0
  9
$DIMSD2
 70
     0
  9
$DIMTOLJ
 70
     0
  9
$DIMTZIN
 70
     8
  9
$DIMALTZ
 70
     0
  9
$DIMALTTZ
 70
     0
  9
$DIMUPT
 70
     0
  9
$DIMDEC
 70
     2
  9
$DIMTDEC
 70
     2
  9
$DIMALTU
 70
     2
  9
$DIMALTTD
 70
     3
  9
$DIMTXSTY
  7
Standard
  9
$DIMAUNIT
 70
     0
  9
$DIMADEC
 70
     0
  9
$DIMALTRND
 40
0.0
  9
$DIMAZIN
 70
     0
  9
$DIMDSEP
 70
    44
  9
$DIMATFIT
 70
     3
  9
$DIMFRAC
 70
     0
  9
$DIMLDRBLK
  1

  9
$DIMLUNIT
 70
     2
  9
$DIMLWD
 70
    -2
  9
$DIMLWE
 70
    -2
  9
$DIMTMOVE
 70
     0
  9
$LUNITS
 70
     2
  9
$LUPREC
 70
     4
  9
$SKETCHINC
 40
1.0
  9
$FILLETRAD
 40
0.0
  9
$AUNITS
 70
     0
  9
$AUPREC
 70
     0
  9
$MENU
  1
.
  9
$ELEVATION
 40
0.0
  9
$PELEVATION
 40
0.0
  9
$THICKNESS
 40
0.0
  9
$LIMCHECK
 70
     0
  9
$CHAMFERA
 40
0.0
  9
$CHAMFERB
 40
0.0
  9
$CHAMFERC
 40
0.0
  9
$CHAMFERD
 40
0.0
  9
$SKPOLY
 70
     0
  9
$TDCREATE
 40
2455505.725807523
  9
$TDUCREATE
 40
2455505.392474190
  9
$TDUPDATE
 40
2457096.590692963
  9
$TDUUPDATE
 40
2457096.257359629
  9
$TDINDWG
 40
0.0650036343
  9
$TDUSRTIMER
 40
0.0650029398
  9
$USRTIMER
 70
     1
  9
$ANGBASE
 50
0.0
  9
$ANGDIR
 70
     0
  9
$PDMODE
 70
     0
  9
$PDSIZE
 40
0.0
  9
$PLINEWID
 40
0.0
  9
$SPLFRAME
 70
     0
  9
$SPLINETYPE
 70
     6
  9
$SPLINESEGS
 70
     8
  9
$HANDSEED
  5
28E
  9
$SURFTAB1
 70
     6
  9
$SURFTAB2
 70
     6
  9
$SURFTYPE
 70
     6
  9
$SURFU
 70
     6
  9
$SURFV
 70
     6
  9
$UCSBASE
  2

  9
$UCSNAME
  2

  9
$UCSORG
 10
0.0
 20
0.0
 30
0.0
  9
$UCSXDIR
 10
1.0
 20
0.0
 30
0.0
  9
$UCSYDIR
 10
0.0
 20
1.0
 30
0.0
  9
$UCSORTHOREF
  2

  9
$UCSORTHOVIEW
 70
     0
  9
$UCSORGTOP
 10
0.0
 20
0.0
 30
0.0
  9
$UCSORGBOTTOM
 10
0.0
 20
0.0
 30
0.0
  9
$UCSORGLEFT
 10
0.0
 20
0.0
 30
0.0
  9
$UCSORGRIGHT
 10
0.0
 20
0.0
 30
0.0
  9
$UCSORGFRONT
 10
0.0
 20
0.0
 30
0.0
  9
$UCSORGBACK
 10
0.0
 20
0.0
 30
0.0
  9
$PUCSBASE
  2

  9
$PUCSNAME
  2

  9
$PUCSORG
 10
0.0
 20
0.0
 30
0.0
  9
$PUCSXDIR
 10
1.0
 20
0.0
 30
0.0
  9
$PUCSYDIR
 10
0.0
 20
1.0
 30
0.0
  9
$PUCSORTHOREF
  2

  9
$PUCSORTHOVIEW
 70
     0
  9
$PUCSORGTOP
 10
0.0
 20
0.0
 30
0.0
  9
$PUCSORGBOTTOM
 10
0.0
 20
0.0
 30
0.0
  9
$PUCSORGLEFT
 10
0.0
 20
0.0
 30
0.0
  9
$PUCSORGRIGHT
 10
0.0
 20
0.0
 30
0.0
  9
$PUCSORGFRONT
 10
0.0
 20
0.0
 30
0.0
  9
$PUCSORGBACK
 10
0.0
 20
0.0
 30
0.0
  9
$USERI1
 70
     0
  9
$USERI2
 70
     0
  9
$USERI3
 70
     0
  9
$USERI4
 70
     0
  9
$USERI5
 70
     0
  9
$USERR1
 40
0.0
  9
$USERR2
 40
0.0
  9
$USERR3
 40
0.0
  9
$USERR4
 40
0.0
  9
$USERR5
 40
0.0
  9
$WORLDVIEW
 70
     1
  9
$SHADEDGE
 70
     3
  9
$SHADEDIF
 70
    70
  9
$TILEMODE
 70
     1
  9
$MAXACTVP
 70
    64
  9
$PINSBASE
 10
0.0
 20
0.0
 30
0.0
  9
$PLIMCHECK
 70
     0
  9
$PEXTMIN
 10
0.0
 20
0.0
 30
0.0
  9
$PEXTMAX
 10
0.0
 20
0.0
 30
0.0
  9
$PLIMMIN
 10
0.0
 20
0.0
  9
$PLIMMAX
 10
12.0
 20
9.0
  9
$UNITMODE
 70
     0
  9
$VISRETAIN
 70
     1
  9
$PLINEGEN
 70
     0
  9
$PSLTSCALE
 70
     1
  9
$TREEDEPTH
 70
  3020
  9
$CMLSTYLE
  2
Standard
  9
$CMLJUST
 70
     0
  9
$CMLSCALE
 40
20.0
  9
$PROXYGRAPHICS
 70
     1
  9
$MEASUREMENT
 70
     1
  9
$CELWEIGHT
370
    -1
  9
$ENDCAPS
280
     0
  9
$JOINSTYLE
280
     0
  9
$LWDISPLAY
290
     0
  9
$INSUNITS
 70
     4
  9
$HYPERLINKBASE
  1

  9
$STYLESHEET
  1

  9
$XEDIT
290
     1
  9
$CEPSNTYPE
380
     0
  9
$PSTYLEMODE
290
     1
  9
$FINGERPRINTGUID
  2
{FDEAD578-A652-11D2-9A35-0060089B3A3F}
  9
$VERSIONGUID
  2
{0988BD68-CB44-4A42-9A88-09248D297A51}
  9
$EXTNAMES
290
     1
  9
$PSVPSCALE
 40
0.0
  9
$OLESTARTUP
290
     0
  0
ENDSEC
  0
SECTION
  2
CLASSES
  0
CLASS
  1
ACDBDICTIONARYWDFLT
  2
AcDbDictionaryWithDefault
  3
ObjectDBX Classes
 90
        0
280
     0
281
     0
  0
CLASS
  1
ACDBPLACEHOLDER
  2
AcDbPlaceHolder
  3
ObjectDBX Classes
 90
        0
280
     0
281
     0
  0
CLASS
  1
LAYOUT
  2
AcDbLayout
  3
ObjectDBX Classes
 90
        0
280
     0
281
     0
  0
CLASS
  1
DICTIONARYVAR
  2
AcDbDictionaryVar
  3
ObjectDBX Classes
 90
        0
280
     0
281
     0
  0
CLASS
  1
MATERIAL
  2
AcDbMaterial
  3
ObjectDBX Classes
 90
        0
280
     0
281
     0
  0
CLASS
  1
SORTENTSTABLE
  2
AcDbSortentsTable
  3
ObjectDBX Classes
 90
    32768
280
     0
281
     0
  0
CLASS
  1
DIMASSOC
  2
AcDbDimAssoc
  3
"AcDbDimAssoc|Product Desc:     AcDim ARX App For Dimension|Company:          Autodesk, Inc.|WEB Address:      www.autodesk.com"
 90
        0
280
     0
281
     0
  0
ENDSEC
  0
SECTION
  2
TABLES
  0
TABLE
  2
VPORT
  5
8
330
0
100
AcDbSymbolTable
 70
     8
  0
VPORT
  5
284
330
8
100
AcDbSymbolTableRecord
100
AcDbViewportTableRecord
  2
*Active
 70
     0
 10
0.0
 20
0.0
 11
1.0
 21
1.0
 12
999.2594822803781
 22
513.2190112893838
 13
0.0
 23
0.0
 14
10.0
 24
10.0
 15
10.0
 25
10.0
 16
0.0
 26
0.0
 36
1.0
 17
0.0
 27
0.0
 37
0.0
 40
1146.646236672419
 41
2.425287356321839
 42
50.0
 43
0.0
 44
0.0
 50
0.0
 51
0.0
 71
     0
 72
  1000
 73
     1
 74
     3
 75
     0
 76
     0
 77
     0
 78
     0
281
     0
 65
     1
110
0.0
120
0.0
130
0.0
111
1.0
121
0.0
131
0.0
112
0.0
122
1.0
132
0.0
 79
     0
146
0.0
  0
ENDTAB
  0
TABLE
  2
LTYPE
  5
5
330
0
100
AcDbSymbolTable
 70
     1
  0
LTYPE
  5
14
330
5
100
AcDbSymbolTableRecord
100
AcDbLinetypeTableRecord
  2
ByBlock
 70
     0
  3

 72
    65
 73
     0
 40
0.0
  0
LTYPE
  5
15
330
5
100
AcDbSymbolTableRecord
100
AcDbLinetypeTableRecord
  2
ByLayer
 70
     0
  3

 72
    65
 73
     0
 40
0.0
  0
LTYPE
  5
16
330
5
100
AcDbSymbolTableRecord
100
AcDbLinetypeTableRecord
  2
Continuous
 70
     0
  3
Solid line
 72
    65
 73
     0
 40
0.0
  0
ENDTAB
  0
TABLE
  2
LAYER
  5
2
330
0
100
AcDbSymbolTable
 70
     5
  0
LAYER
  5
10
330
2
100
AcDbSymbolTableRecord
100
AcDbLayerTableRecord
  2
0
 70
     0
 62
     2
  6
Continuous
370
    -3
390
F
  0
LAYER
  5
94
330
2
100
AcDbSymbolTableRecord
100
AcDbLayerTableRecord
  2
1
 70
     0
 62
     1
  6
Continuous
370
    -3
390
F
  0
LAYER
  5
95
330
2
100
AcDbSymbolTableRecord
100
AcDbLayerTableRecord
  2
2
 70
     0
 62
     7
  6
Continuous
370
    -3
390
F
  0
LAYER
  5
177
102
{ACAD_XDICTIONARY
360
178
102
}
330
2
100
AcDbSymbolTableRecord
100
AcDbLayerTableRecord
  2
3
 70
     0
 62
     7
  6
Continuous
370
    -3
390
F
  0
LAYER
  5
22B
330
2
100
AcDbSymbolTableRecord
100
AcDbLayerTableRecord
  2
Defpoints
 70
     0
 62
     7
  6
Continuous
290
     0
370
    -3
390
F
  0
ENDTAB
  0
TABLE
  2
STYLE
  5
3
330
0
100
AcDbSymbolTable
 70
     1
  0
STYLE
  5
11
330
3
100
AcDbSymbolTableRecord
100
AcDbTextStyleTableRecord
  2
Standard
 70
     0
 40
0.0
 41
1.0
 50
0.0
 71
     0
 42
2.5
  3
txt
  4

  0
ENDTAB
  0
TABLE
  2
VIEW
  5
6
330
0
100
AcDbSymbolTable
 70
     0
  0
ENDTAB
  0
TABLE
  2
UCS
  5
7
330
0
100
AcDbSymbolTable
 70
     0
  0
ENDTAB
  0
TABLE
  2
APPID
  5
9
330
0
100
AcDbSymbolTable
 70
     1
  0
APPID
  5
12
330
9
100
AcDbSymbolTableRecord
100
AcDbRegAppTableRecord
  2
ACAD
 70
     0
  0
ENDTAB
  0
TABLE
  2
DIMSTYLE
  5
A
330
0
100
AcDbSymbolTable
 70
     1
100
AcDbDimStyleTable
 71
     1
340
27
  0
DIMSTYLE
105
27
330
A
100
AcDbSymbolTableRecord
100
AcDbDimStyleTableRecord
  2
ISO-25
 70
     0
 41
2.5
 42
0.625
 43
3.75
 44
1.25
 73
     0
 74
     0
 77
     1
 78
     8
140
2.5
141
2.5
143
0.03937007874016
147
0.625
171
     3
172
     1
271
     2
272
     2
274
     3
278
    44
283
     0
284
     8
340
11
  0
ENDTAB
  0
TABLE
  2
BLOCK_RECORD
  5
1
330
0
100
AcDbSymbolTable
 70
     3
  0
BLOCK_RECORD
  5
1F
330
1
100
AcDbSymbolTableRecord
100
AcDbBlockTableRecord
  2
*Model_Space
340
22
  0
BLOCK_RECORD
  5
50
330
1
100
AcDbSymbolTableRecord
100
AcDbBlockTableRecord
  2
*Paper_Space
340
51
  0
BLOCK_RECORD
  5
55
330
1
100
AcDbSymbolTableRecord
100
AcDbBlockTableRecord
  2
*Paper_Space0
340
56
  0
BLOCK_RECORD
  5
22C
330
1
100
AcDbSymbolTableRecord
100
AcDbBlockTableRecord
  2
*D2
340
0
  0
ENDTAB
  0
ENDSEC
  0
SECTION
  2
BLOCKS
  0
BLOCK
  5
20
330
1F
100
AcDbEntity
  8
0
100
AcDbBlockBegin
  2
*Model_Space
 70
     0
 10
0.0
 20
0.0
 30
0.0
  3
*Model_Space
  1

  0
ENDBLK
  5
21
330
1F
100
AcDbEntity
  8
0
100
AcDbBlockEnd
  0
BLOCK
  5
52
330
50
100
AcDbEntity
 67
     1
  8
0
100
AcDbBlockBegin
  2
*Paper_Space
 70
     0
 10
0.0
 20
0.0
 30
0.0
  3
*Paper_Space
  1

  0
ENDBLK
  5
53
330
50
100
AcDbEntity
 67
     1
  8
0
100
AcDbBlockEnd
  0
BLOCK
  5
57
330
55
100
AcDbEntity
  8
0
100
AcDbBlockBegin
  2
*Paper_Space0
 70
     0
 10
0.0
 20
0.0
 30
0.0
  3
*Paper_Space0
  1

  0
ENDBLK
  5
58
330
55
100
AcDbEntity
  8
0
100
AcDbBlockEnd
  0
BLOCK
  5
236
330
22C
100
AcDbEntity
  8
0
100
AcDbBlockBegin
  2
*D2
 70
     1
 10
0.0
 20
0.0
 30
0.0
  3
*D2
  1

  0
LINE
  5
239
330
22C
100
AcDbEntity
  8
2
 62
     0
370
    -2
100
AcDbLine
 10
663.962080458652
 20
542.1098211944903
 30
0.0
 11
663.962080458652
 21
560.8546707872005
 31
0.0
  0
LINE
  5
23A
330
22C
100
AcDbEntity
  8
2
 62
     0
370
    -2
100
AcDbLine
 10
508.3894362202158
 20
542.1098211944903
 30
0.0
 11
508.3894362202158
 21
560.8546707872005
 31
0.0
  0
LINE
  5
23B
330
22C
100
AcDbEntity
  8
2
 62
     0
370
    -2
100
AcDbLine
 10
661.462080458652
 20
559.6046707872005
 30
0.0
 11
510.8894362202159
 21
559.6046707872005
 31
0.0
  0
SOLID
  5
23C
330
22C
100
AcDbEntity
  8
2
 62
     0
100
AcDbTrace
 10
661.462080458652
 20
560.0213374538672
 30
0.0
 11
661.462080458652
 21
559.1880041205339
 31
0.0
 12
663.962080458652
 22
559.6046707872005
 32
0.0
 13
663.962080458652
 23
559.6046707872005
 33
0.0
  0
SOLID
  5
23D
330
22C
100
AcDbEntity
  8
2
 62
     0
100
AcDbTrace
 10
510.8894362202159
 20
560.0213374538672
 30
0.0
 11
510.8894362202159
 21
559.1880041205339
 31
0.0
 12
508.3894362202158
 22
559.6046707872005
 32
0.0
 13
508.3894362202158
 23
559.6046707872005
 33
0.0
  0
MTEXT
  5
23E
330
22C
100
AcDbEntity
  8
2
 62
     0
100
AcDbMText
 10
586.1757583394339
 20
561.6880041205339
 30
0.0
 40
2.5
 41
0.0
 71
     5
 72
     1
  1
155,57
 73
     1
 44
1.0
1001
ACAD
1000
MTEXTBEGIN
1070
    73
1070
     1
1070
    44
1040
1.0
1070
    74
1070
     0
1000
MTEXTEND
  0
POINT
  5
23F
330
22C
100
AcDbEntity
  8
Defpoints
 62
     0
100
AcDbPoint
 10
663.962080458652
 20
541.4848211944903
 30
0.0
  0
POINT
  5
240
330
22C
100
AcDbEntity
  8
Defpoints
 62
     0
100
AcDbPoint
 10
508.3894362202158
 20
541.4848211944903
 30
0.0
  0
POINT
  5
241
330
22C
100
AcDbEntity
  8
Defpoints
 62
     0
100
AcDbPoint
 10
508.3894362202158
 20
559.6046707872005
 30
0.0
  0
ENDBLK
  5
237
330
22C
100
AcDbEntity
  8
0
100
AcDbBlockEnd
  0
ENDSEC
  0
SECTION
  2
ENTITIES
  0
LWPOLYLINE
  5
96
330
1F
100
AcDbEntity
  8
0
 62
     2
100
AcDbPolyline
 90
        4
 70
     1
 43
0.0
 10
0.0
 20
0.0
 10
1000.0
 20
0.0
 10
1000.0
 20
1000.0
 10
0.0
 20
1000.0
  0
LINE
  5
B1
330
1F
100
AcDbEntity
  8
1
 62
     1
100
AcDbLine
 10
20.0
 20
20.0
 30
0.0
 11
980.0
 21
20.0
 31
0.0
  0
LINE
  5
B2
330
1F
100
AcDbEntity
  8
1
 62
     1
100
AcDbLine
 10
979.9999999999998
 20
16.73461739012606
 30
0.0
 11
979.9999999999998
 21
976.7346173901259
 31
0.0
  0
LINE
  5
B3
330
1F
100
AcDbEntity
  8
1
 62
     1
100
AcDbLine
 10
979.9999999999998
 20
976.7346173901259
 30
0.0
 11
19.99999999999988
 21
976.7346173901259
 31
0.0
  0
LINE
  5
B4
330
1F
100
AcDbEntity
  8
1
 62
     1
100
AcDbLine
 10
20.0
 20
980.0
 30
0.0
 11
20.0
 21
20.0
 31
0.0
  0
LWPOLYLINE
  5
1B7
330
1F
100
AcDbEntity
  8
2
100
AcDbPolyline
 90
       73
 70
     0
 43
0.0
 10
430.6044362202158
 20
513.3300217122972
 10
434.9258251091048
 20
526.8888406115504
 10
439.2472139979937
 20
540.3444687119415
 10
443.5686028868826
 20
553.5945005588964
 10
447.8899917757714
 20
566.5380954094715
 10
452.2113806646603
 20
579.0767446912978
 10
456.5327695535493
 20
591.1150217122972
 10
460.8541584424379
 20
602.5613079154294
 10
465.175547331327
 20
613.3284901512321
 10
469.4969362202159
 20
623.3346236614883
 10
473.8183251091048
 20
632.5035557283166
 10
478.1397139979937
 20
640.7655052423357
 10
482.4611028868824
 20
648.0575937790424
 10
486.7824917757713
 20
654.3243241415889
 10
491.1038806646603
 20
659.5180027279609
 10
495.4252695535493
 20
663.5991025080875
 10
499.746658442438
 20
666.5365638484064
 10
504.0680473313269
 20
668.3080308944302
 10
508.3894362202158
 20
668.9000217122972
 10
512.7108251091048
 20
668.3080308944302
 10
517.0322139979937
 20
666.5365638484064
 10
521.3536028868825
 20
663.5991025080875
 10
525.6749917757714
 20
659.5180027279609
 10
529.9963806646603
 20
654.3243241415889
 10
534.3177695535493
 20
648.0575937790424
 10
538.639158442438
 20
640.7655052423357
 10
542.9605473313269
 20
632.5035557283166
 10
547.2819362202159
 20
623.3346236614885
 10
551.6033251091048
 20
613.3284901512321
 10
555.9247139979937
 20
602.5613079154294
 10
560.2461028868825
 20
591.1150217122972
 10
564.5674917757714
 20
579.0767446912978
 10
568.8888806646604
 20
566.5380954094715
 10
573.2102695535493
 20
553.5945005588964
 10
577.5316584424381
 20
540.3444687119415
 10
581.8530473313269
 20
526.8888406115504
 10
586.1744362202159
 20
513.3300217122972
 10
590.4958251091051
 20
499.7712028130441
 10
594.8172139979943
 20
486.3155747126529
 10
599.138602886882
 20
473.0655428656982
 10
603.4599917757713
 20
460.1219480151229
 10
607.7813806646605
 20
447.5832987332966
 10
612.1027695535497
 20
435.5450217122973
 10
616.4241584424374
 20
424.0987355091649
 10
620.7455473313266
 20
413.3315532733623
 10
625.0669362202159
 20
403.3254197631061
 10
629.3883251091052
 20
394.1564876962778
 10
633.7097139979944
 20
385.8945381822588
 10
638.031102886882
 20
378.6024496455523
 10
642.3524917757713
 20
372.3357192830056
 10
646.6738806646604
 20
367.1420406966336
 10
650.9952695535497
 20
363.060940916507
 10
655.3166584424374
 20
360.1234795761881
 10
659.6380473313266
 20
358.3520125301643
 10
663.9594362202159
 20
357.7600217122973
 10
668.280825109105
 20
358.3520125301643
 10
672.6022139979943
 20
360.1234795761881
 10
676.923602886882
 20
363.060940916507
 10
681.2449917757712
 20
367.1420406966334
 10
685.5663806646605
 20
372.3357192830056
 10
689.8877695535498
 20
378.602449645552
 10
694.2091584424375
 20
385.8945381822588
 10
698.5305473313267
 20
394.1564876962778
 10
702.851936220216
 20
403.3254197631059
 10
707.1733251091051
 20
413.3315532733622
 10
711.4947139979943
 20
424.0987355091649
 10
715.816102886882
 20
435.5450217122973
 10
720.1374917757712
 20
447.5832987332965
 10
724.4588806646604
 20
460.1219480151229
 10
728.7802695535496
 20
473.065542865698
 10
733.1016584424373
 20
486.3155747126527
 10
737.4230473313266
 20
499.7712028130441
 10
741.7444362202159
 20
513.3300217122972
  0
LINE
  5
209
330
1F
100
AcDbEntity
  8
3
100
AcDbLine
 10
60.35130955504723
 20
513.3273774738533
 30
0.0
 11
956.4275628853847
 21
513.3273774738533
 31
0.0
  0
LINE
  5
20A
330
1F
100
AcDbEntity
  8
3
100
AcDbLine
 10
508.3894362202158
 20
961.365504139022
 30
0.0
 11
508.3894362202158
 21
65.28925080868475
 31
0.0
  0
LINE
  5
20B
330
1F
100
AcDbEntity
  8
3
100
AcDbLine
 10
524.4512262567845
 20
917.2792976421346
 30
0.0
 11
508.3894362202158
 21
937.1881929581716
 31
0.0
  0
LINE
  5
20C
330
1F
100
AcDbEntity
  8
3
100
AcDbLine
 10
524.4512262567845
 20
917.2792976421346
 30
0.0
 11
508.3894362202158
 21
961.365504139022
 31
0.0
  0
LINE
  5
20D
330
1F
100
AcDbEntity
  8
3
100
AcDbLine
 10
508.3894362202158
 20
961.365504139022
 30
0.0
 11
524.4512262567845
 21
917.2792976421346
 31
0.0
  0
LINE
  5
20E
330
1F
100
AcDbEntity
  8
3
100
AcDbLine
 10
492.3276461836469
 20
917.2792976421346
 30
0.0
 11
508.3894362202158
 21
937.1881929581716
 31
0.0
  0
LINE
  5
20F
330
1F
100
AcDbEntity
  8
3
100
AcDbLine
 10
508.3894362202158
 20
961.365504139022
 30
0.0
 11
492.3276461836469
 21
917.2792976421346
 31
0.0
  0
HATCH
  5
210
330
1F
100
AcDbEntity
  8
3
100
AcDbHatch
 10
0.0
 20
0.0
 30
0.0
210
0.0
220
0.0
230
1.0
  2
SOLID
 70
     1
 71
     0
 91
        2
 92
        7
 72
     0
 73
     1
 93
        3
 10
508.3894362202158
 20
961.365504139022
 10
508.3894362202158
 20
937.1881929581716
 10
524.4512262567845
 20
917.2792976421344
 97
        0
 92
        7
 72
     0
 73
     1
 93
        3
 10
508.3894362202158
 20
961.365504139022
 10
492.3276461836547
 20
917.2792976421344
 10
508.3894362202158
 20
937.1881929581716
 97
        0
 75
     0
 76
     1
 47
0.0758510857146228
 98
        2
 10
513.2345886883004
 20
940.7373802894104
 10
506.1824317043988
 20
940.1639560273952
  0
LINE
  5
211
330
1F
100
AcDbEntity
  8
3
100
AcDbLine
 10
508.3894362202158
 20
668.9000217122972
 30
0.0
 11
536.5468799408526
 21
668.9000217122972
 31
0.0
  0
LINE
  5
212
330
1F
100
AcDbEntity
  8
3
100
AcDbLine
 10
508.3894362202158
 20
824.4726659507337
 30
0.0
 11
536.5468799408526
 21
824.4726659507337
 31
0.0
  0
LINE
  5
213
330
1F
100
AcDbEntity
  8
3
100
AcDbLine
 10
508.3894362202158
 20
357.7547332354095
 30
0.0
 11
536.5468799408526
 21
357.7547332354095
 31
0.0
  0
LINE
  5
214
330
1F
100
AcDbEntity
  8
3
100
AcDbLine
 10
352.8167919817797
 20
513.3273774738533
 30
0.0
 11
352.8167919817797
 21
541.4848211944903
 31
0.0
  0
LINE
  5
215
330
1F
100
AcDbEntity
  8
3
100
AcDbLine
 10
197.2441477433356
 20
513.3273774738533
 30
0.0
 11
197.2441477433356
 21
541.4848211944903
 31
0.0
  0
LINE
  5
216
330
1F
100
AcDbEntity
  8
3
100
AcDbLine
 10
663.962080458652
 20
513.3273774738533
 30
0.0
 11
663.962080458652
 21
541.4848211944903
 31
0.0
  0
MTEXT
  5
21F
330
1F
100
AcDbEntity
  8
3
100
AcDbMText
 10
548.4637292741472
 20
975.1903518927846
 30
0.0
 40
56.04447024
 41
253.5562335700771
 71
     1
 72
     5
  1
{\fRomantic|b0|i0|c2|p2;y}
 11
0.9999421637257766
 21
-0.0107549618043136
 31
0.0
 73
     1
 44
1.0
1001
ACAD
1000
MTEXTBEGIN
1070
    73
1070
     1
1070
    44
1040
1.0
1070
    74
1070
     0
1000
MTEXTEND
  0
LINE
  5
220
330
1F
100
AcDbEntity
  8
3
100
AcDbLine
 10
508.3894362202158
 20
202.1820889969733
 30
0.0
 11
536.5468799408526
 21
202.1820889969733
 31
0.0
  0
HATCH
  5
221
330
1F
100
AcDbEntity
  8
3
100
AcDbHatch
 10
0.0
 20
0.0
 30
0.0
210
0.0
220
0.0
230
1.0
  2
SOLID
 70
     1
 71
     0
 91
        2
 92
        7
 72
     0
 73
     1
 93
        3
 10
956.4275628853847
 20
513.3273774738533
 10
932.2502517045418
 20
513.3273774738533
 10
912.3413563884888
 20
497.2655874372845
 97
        0
 92
        7
 72
     0
 73
     1
 93
        3
 10
956.4275628853765
 20
513.3273774738533
 10
912.341356388497
 20
529.3891675104223
 10
932.2502517045418
 20
513.3273774738533
 97
        0
 75
     0
 76
     1
 47
0.0758510857146228
 98
        2
 10
935.7994390357729
 20
508.4822250057688
 10
935.2260147737656
 20
515.5343819896704
  0
LINE
  5
222
330
1F
100
AcDbEntity
  8
3
100
AcDbLine
 10
956.4275628853847
 20
513.3273774738533
 30
0.0
 11
912.3413563884888
 21
529.3891675104226
 31
0.0
  0
LINE
  5
223
330
1F
100
AcDbEntity
  8
3
100
AcDbLine
 10
912.3413563884888
 20
529.3891675104226
 30
0.0
 11
932.2502517045418
 21
513.3273774738533
 31
0.0
  0
LINE
  5
224
330
1F
100
AcDbEntity
  8
3
100
AcDbLine
 10
956.4275628853847
 20
513.3273774738533
 30
0.0
 11
912.3413563884888
 21
497.2655874372845
 31
0.0
  0
LINE
  5
225
330
1F
100
AcDbEntity
  8
3
100
AcDbLine
 10
912.3413563884888
 20
497.2655874372845
 30
0.0
 11
956.4275628853847
 21
513.3273774738533
 31
0.0
  0
LINE
  5
226
330
1F
100
AcDbEntity
  8
3
100
AcDbLine
 10
912.3413563884888
 20
497.2655874372845
 30
0.0
 11
932.2502517045418
 21
513.3273774738533
 31
0.0
  0
LINE
  5
227
330
1F
100
AcDbEntity
  8
3
100
AcDbLine
 10
819.5347246970964
 20
513.3273774738533
 30
0.0
 11
819.5347246970964
 21
541.4848211944903
 31
0.0
  0
MTEXT
  5
229
330
1F
100
AcDbEntity
  8
3
100
AcDbMText
 10
934.7717506994676
 20
510.5484510924985
 30
0.0
 40
56.04447024
 41
253.5562335700771
 71
     1
 72
     5
  1
{\fRomantic|b0|i0|c2|p2;x}
 11
0.9999421637257766
 21
-0.0107549618043136
 31
0.0
 73
     1
 44
1.0
1001
ACAD
1000
MTEXTBEGIN
1070
    73
1070
     1
1070
    44
1040
1.0
1070
    74
1070
     0
1000
MTEXTEND
  0
LWPOLYLINE
  5
243
330
1F
100
AcDbEntity
  8
2
100
AcDbPolyline
 90
       55
 70
     0
 43
0.0
 10
430.6044362202158
 20
513.3300217122967
 10
426.283047331327
 20
499.7712028130435
 10
421.9616584424381
 20
486.3155747126524
 10
417.6402695535492
 20
473.0655428656976
 10
413.3188806646603
 20
460.1219480151224
 10
408.9974917757714
 20
447.5832987332962
 10
404.6761028868825
 20
435.5450217122968
 10
400.3547139979938
 20
424.0987355091646
 10
396.0333251091048
 20
413.3315532733619
 10
391.7119362202159
 20
403.3254197631057
 10
387.390547331327
 20
394.1564876962774
 10
383.069158442438
 20
385.8945381822583
 10
378.7477695535494
 20
378.6024496455516
 10
374.4263806646604
 20
372.3357192830051
 10
370.1049917757715
 20
367.1420406966331
 10
365.7836028868825
 20
363.0609409165065
 10
361.4622139979938
 20
360.1234795761876
 10
357.1408251091049
 20
358.3520125301638
 10
352.8194362202159
 20
357.7600217122969
 10
348.498047331327
 20
358.3520125301638
 10
344.1766584424381
 20
360.1234795761876
 10
339.8552695535493
 20
363.0609409165065
 10
335.5338806646604
 20
367.1420406966331
 10
331.2124917757715
 20
372.3357192830051
 10
326.8911028868826
 20
378.6024496455516
 10
322.5697139979938
 20
385.8945381822583
 10
318.2483251091048
 20
394.1564876962774
 10
313.9269362202159
 20
403.3254197631054
 10
309.605547331327
 20
413.3315532733619
 10
305.2841584424381
 20
424.0987355091646
 10
300.9627695535493
 20
435.5450217122968
 10
296.6413806646603
 20
447.5832987332962
 10
292.3199917757713
 20
460.1219480151224
 10
287.9986028868824
 20
473.0655428656976
 10
283.6772139979936
 20
486.3155747126524
 10
279.3558251091048
 20
499.7712028130435
 10
275.0344362202158
 20
513.3300217122967
 10
270.7130473313266
 20
526.8888406115499
 10
266.3916584424374
 20
540.344468711941
 10
262.0702695535497
 20
553.5945005588959
 10
257.7488806646604
 20
566.5380954094711
 10
253.4274917757711
 20
579.0767446912973
 10
249.106102886882
 20
591.1150217122967
 10
244.7847139979943
 20
602.561307915429
 10
240.4633251091051
 20
613.3284901512316
 10
236.1419362202158
 20
623.3346236614878
 10
231.8205473313266
 20
632.5035557283162
 10
227.4991584424373
 20
640.7655052423352
 10
223.1777695535496
 20
648.0575937790417
 10
218.8563806646604
 20
654.3243241415884
 10
214.5349917757712
 20
659.5180027279605
 10
210.213602886882
 20
663.599102508087
 10
205.8922139979943
 20
666.5365638484059
 10
201.5708251091051
 20
668.3080308944298
 10
197.2494362202158
 20
668.9000217122967
  0
MTEXT
  5
24F
330
1F
100
AcDbEntity
  8
3
100
AcDbMText
 10
518.8277249162362
 20
515.404742278573
 30
0.0
 40
56.04447024
 41
253.5562335700771
 71
     1
 72
     5
  1
{\fSimSun|b0|i0|c134|p2;o}
 11
0.9999421637257766
 21
-0.0107549618043136
 31
0.0
 73
     1
 44
1.0
1001
ACAD
1000
MTEXTBEGIN
1070
    73
1070
     1
1070
    44
1040
1.0
1070
    74
1070
     0
1000
MTEXTEND
  0
LWPOLYLINE
  5
279
330
1F
100
AcDbEntity
  8
2
100
AcDbPolyline
 90
       19
 70
     0
 43
0.0
 10
819.5294362202158
 20
668.9000217122972
 10
815.2080473313267
 20
668.3080308944302
 10
810.8866584424374
 20
666.5365638484064
 10
806.5652695535497
 20
663.5991025080875
 10
802.2438806646604
 20
659.518002727961
 10
797.9224917757712
 20
654.3243241415889
 10
793.6011028868819
 20
648.0575937790424
 10
789.2797139979943
 20
640.7655052423357
 10
784.9583251091051
 20
632.5035557283166
 10
780.6369362202158
 20
623.3346236614885
 10
776.3155473313267
 20
613.3284901512324
 10
771.9941584424374
 20
602.5613079154294
 10
767.6727695535497
 20
591.1150217122972
 10
763.3513806646605
 20
579.0767446912979
 10
759.0299917757713
 20
566.5380954094715
 10
754.7086028868821
 20
553.5945005588964
 10
750.3872139979944
 20
540.3444687119416
 10
746.0658251091051
 20
526.8888406115504
 10
741.7444362202159
 20
513.3300217122972
  0
ENDSEC
  0
SECTION
  2
OBJECTS
  0
DICTIONARY
  5
C
330
0
100
AcDbDictionary
281
     1
  3
ACAD_COLOR
350
6B
  3
ACAD_GROUP
350
D
  3
ACAD_LAYOUT
350
1A
  3
ACAD_MATERIAL
350
6A
  3
ACAD_MLINESTYLE
350
17
  3
ACAD_PLOTSETTINGS
350
19
  3
ACAD_PLOTSTYLENAME
350
E
  3
ACDBHEADERROUNDTRIPXREC
350
285
  3
AcDbVariableDictionary
350
5E
  0
DICTIONARY
  5
178
330
177
100
AcDbDictionary
280
     1
281
     1
  3
ACAD_XREC_ROUNDTRIP
360
179
  3
ADSK_XREC_LAYER_RECONCILED
360
17A
  0
DICTIONARY
  5
6B
102
{ACAD_REACTORS
330
C
102
}
330
C
100
AcDbDictionary
281
     1
  0
DICTIONARY
  5
D
102
{ACAD_REACTORS
330
C
102
}
330
C
100
AcDbDictionary
281
     1
  0
DICTIONARY
  5
1A
102
{ACAD_REACTORS
330
C
102
}
330
C
100
AcDbDictionary
281
     1
  3
Layout1
350
51
  3
Layout2
350
56
  3
Model
350
22
  0
DICTIONARY
  5
6A
102
{ACAD_REACTORS
330
C
102
}
330
C
100
AcDbDictionary
281
     1
  3
Global
350
140
  0
DICTIONARY
  5
17
102
{ACAD_REACTORS
330
C
102
}
330
C
100
AcDbDictionary
281
     1
  3
Standard
350
18
  0
DICTIONARY
  5
19
102
{ACAD_REACTORS
330
C
102
}
330
C
100
AcDbDictionary
281
     1
  0
ACDBDICTIONARYWDFLT
  5
E
102
{ACAD_REACTORS
330
C
102
}
330
C
100
AcDbDictionary
281
     1
  3
Normal
350
F
100
AcDbDictionaryWithDefault
340
F
  0
DICTIONARY
  5
285
102
{ACAD_REACTORS
330
C
102
}
330
C
100
AcDbDictionary
281
     1
  3
COLORDICT
350
287
  3
MATERIALDICT
350
286
  0
DICTIONARY
  5
5E
102
{ACAD_REACTORS
330
C
102
}
330
C
100
AcDbDictionary
281
     1
  3
DIMASSOC
350
5F
  3
HIDETEXT
350
63
  3
PROJECTNAME
350
85
  0
XRECORD
  5
179
102
{ACAD_REACTORS
330
178
102
}
330
178
100
AcDbXrecord
280
     1
102
MATERIAL
340
140
  0
XRECORD
  5
17A
102
{ACAD_REACTORS
330
178
102
}
330
178
100
AcDbXrecord
280
     1
290
     1
  0
LAYOUT
  5
51
102
{ACAD_XDICTIONARY
360
28A
102
}
102
{ACAD_REACTORS
330
1A
102
}
330
1A
100
AcDbPlotSettings
  1

  2
None
  4

  6

 40
0.0
 41
0.0
 42
0.0
 43
0.0
 44
0.0
 45
0.0
 46
0.0
 47
0.0
 48
0.0
 49
0.0
140
0.0
141
0.0
142
1.0
143
1.0
 70
   688
 72
     0
 73
     0
 74
     5
  7

 75
    16
147
1.0
148
0.0
149
0.0
100
AcDbLayout
  1
Layout1
 70
     1
 71
     1
 10
0.0
 20
0.0
 11
12.0
 21
9.0
 12
0.0
 22
0.0
 32
0.0
 14
0.0
 24
0.0
 34
0.0
 15
0.0
 25
0.0
 35
0.0
146
0.0
 13
0.0
 23
0.0
 33
0.0
 16
1.0
 26
0.0
 36
0.0
 17
0.0
 27
1.0
 37
0.0
 76
     0
330
50
  0
LAYOUT
  5
56
102
{ACAD_XDICTIONARY
360
28C
102
}
102
{ACAD_REACTORS
330
1A
102
}
330
1A
100
AcDbPlotSettings
  1

  2
None
  4

  6

 40
0.0
 41
0.0
 42
0.0
 43
0.0
 44
0.0
 45
0.0
 46
0.0
 47
0.0
 48
0.0
 49
0.0
140
0.0
141
0.0
142
1.0
143
1.0
 70
   688
 72
     0
 73
     0
 74
     5
  7

 75
    16
147
1.0
148
0.0
149
0.0
100
AcDbLayout
  1
Layout2
 70
     1
 71
     2
 10
0.0
 20
0.0
 11
12.0
 21
9.0
 12
0.0
 22
0.0
 32
0.0
 14
0.0
 24
0.0
 34
0.0
 15
0.0
 25
0.0
 35
0.0
146
0.0
 13
0.0
 23
0.0
 33
0.0
 16
1.0
 26
0.0
 36
0.0
 17
0.0
 27
1.0
 37
0.0
 76
     0
330
55
  0
LAYOUT
  5
22
102
{ACAD_XDICTIONARY
360
288
102
}
102
{ACAD_REACTORS
330
1A
102
}
330
1A
100
AcDbPlotSettings
  1

  2
none_device
  4
ANSI_A_(8.50_x_11.00_Inches)
  6

 40
6.349999904632567
 41
19.04999923706055
 42
6.350006103515625
 43
19.04998779296875
 44
215.8999938964844
 45
279.3999938964844
 46
0.0
 47
0.0
 48
0.0
 49
0.0
140
0.0
141
0.0
142
1.0
143
78.436453180766
 70
 11952
 72
     0
 73
     1
 74
     0
  7

 75
     0
147
0.0127491741332998
148
0.0
149
0.0
100
AcDbLayout
  1
Model
 70
     1
 71
     0
 10
0.0
 20
0.0
 11
12.0
 21
9.0
 12
0.0
 22
0.0
 32
0.0
 14
0.0
 24
0.0
 34
0.0
 15
0.0
 25
0.0
 35
0.0
146
0.0
 13
0.0
 23
0.0
 33
0.0
 16
1.0
 26
0.0
 36
0.0
 17
0.0
 27
1.0
 37
0.0
 76
     0
330
1F
  0
MATERIAL
  5
140
330
6A
100
AcDbMaterial
  1
Global
 72
     0
 73
     2
 43
0.0008202099737533
 43
0.0
 43
0.0
 43
0.0
 43
0.0
 43
0.0008202099737533
 43
0.0
 43
0.0
 43
0.0
 43
0.0
 43
1.0
 43
0.0
 43
0.0
 43
0.0
 43
0.0
 43
1.0
 77
     0
 78
     2
 47
0.0008202099737533
 47
0.0
 47
0.0
 47
0.0
 47
0.0
 47
0.0008202099737533
 47
0.0
 47
0.0
 47
0.0
 47
0.0
 47
1.0
 47
0.0
 47
0.0
 47
0.0
 47
0.0
 47
1.0
171
     0
172
     2
 49
0.0008202099737533
 49
0.0
 49
0.0
 49
0.0
 49
0.0
 49
0.0008202099737533
 49
0.0
 49
0.0
 49
0.0
 49
0.0
 49
1.0
 49
0.0
 49
0.0
 49
0.0
 49
0.0
 49
1.0
175
     0
176
     2
142
0.0008202099737533
142
0.0
142
0.0
142
0.0
142
0.0
142
0.0008202099737533
142
0.0
142
0.0
142
0.0
142
0.0
142
1.0
142
0.0
142
0.0
142
0.0
142
0.0
142
1.0
179
     0
270
     2
144
0.0008202099737533
144
0.0
144
0.0
144
0.0
144
0.0
144
0.0008202099737533
144
0.0
144
0.0
144
0.0
144
0.0
144
1.0
144
0.0
144
0.0
144
0.0
144
0.0
144
1.0
274
     2
147
0.0008202099737533
147
0.0
147
0.0
147
0.0
147
0.0
147
0.0008202099737533
147
0.0
147
0.0
147
0.0
147
0.0
147
1.0
147
0.0
147
0.0
147
0.0
147
0.0
147
1.0
  0
MLINESTYLE
  5
18
102
{ACAD_REACTORS
330
17
102
}
330
17
100
AcDbMlineStyle
  2
STANDARD
 70
     0
  3

 62
   256
 51
90.0
 52
90.0
 71
     2
 49
0.5
 62
   256
  6
BYLAYER
 49
-0.5
 62
   256
  6
BYLAYER
  0
ACDBPLACEHOLDER
  5
F
102
{ACAD_REACTORS
330
E
102
}
330
E
  0
XRECORD
  5
287
102
{ACAD_REACTORS
330
285
102
}
330
285
100
AcDbXrecord
280
     1
340
6B
  0
XRECORD
  5
286
102
{ACAD_REACTORS
330
285
102
}
330
285
100
AcDbXrecord
280
     1
340
6A
  0
DICTIONARYVAR
  5
5F
102
{ACAD_REACTORS
330
5E
102
}
330
5E
100
DictionaryVariables
280
     0
  1
2
  0
DICTIONARYVAR
  5
63
102
{ACAD_REACTORS
330
5E
102
}
330
5E
100
DictionaryVariables
280
     0
  1
1
  0
DICTIONARYVAR
  5
85
102
{ACAD_REACTORS
330
5E
102
}
330
5E
100
DictionaryVariables
280
     0
  1

  0
DICTIONARY
  5
28A
330
51
100
AcDbDictionary
280
     1
281
     1
  3
ACAD_XREC_ROUNDTRIP
360
28B
  0
DICTIONARY
  5
28C
330
56
100
AcDbDictionary
280
     1
281
     1
  3
ACAD_XREC_ROUNDTRIP
360
28D
  0
DICTIONARY
  5
288
330
22
100
AcDbDictionary
280
     1
281
     1
  3
ACAD_XREC_ROUNDTRIP
360
289
  0
XRECORD
  5
28B
102
{ACAD_REACTORS
330
28A
102
}
330
28A
100
AcDbXrecord
280
     1
102
SHADEPLOT
 70
     0
102
SHADEPLOTRESLEVEL
 70
     2
102
SHADEPLOTCUSTOMDPI
 70
   300
  0
XRECORD
  5
28D
102
{ACAD_REACTORS
330
28C
102
}
330
28C
100
AcDbXrecord
280
     1
102
SHADEPLOT
 70
     0
102
SHADEPLOTRESLEVEL
 70
     2
102
SHADEPLOTCUSTOMDPI
 70
   300
  0
XRECORD
  5
289
102
{ACAD_REACTORS
330
288
102
}
330
288
100
AcDbXrecord
280
     1
102
SHADEPLOT
 70
     0
102
SHADEPLOTRESLEVEL
 70
     2
102
SHADEPLOTCUSTOMDPI
 70
   300
  0
ENDSEC
  0
EOF
