  0
SECTION
  2
HEADER
  9
$ACADVER
  1
AC1015
  9
$ACADMAINTVER
 70
    20
  9
$DWGCODEPAGE
  3
ANSI_936
  9
$INSBASE
 10
0.0
 20
0.0
 30
0.0
  9
$EXTMIN
 10
-405.5721227625035
 20
-120.5122255875758
 30
0.0
  9
$EXTMAX
 10
2595.20460864855
 20
2393.165389849514
 30
0.0
  9
$LIMMIN
 10
0.0
 20
0.0
  9
$LIMMAX
 10
420.0
 20
297.0
  9
$ORTHOMODE
 70
     0
  9
$REGENMODE
 70
     1
  9
$FILLMODE
 70
     1
  9
$QTEXTMODE
 70
     0
  9
$MIRRTEXT
 70
     0
  9
$LTSCALE
 40
1.0
  9
$ATTMODE
 70
     1
  9
$TEXTSIZE
 40
2.5
  9
$TRACEWID
 40
1.0
  9
$TEXTSTYLE
  7
Standard
  9
$CLAYER
  8
2
  9
$CELTYPE
  6
ByLayer
  9
$CECOLOR
 62
   256
  9
$CELTSCALE
 40
1.0
  9
$DISPSILH
 70
     0
  9
$DIMSCALE
 40
1.0
  9
$DIMASZ
 40
2.5
  9
$DIMEXO
 40
0.625
  9
$DIMDLI
 40
3.75
  9
$DIMRND
 40
0.0
  9
$DIMDLE
 40
0.0
  9
$DIMEXE
 40
1.25
  9
$DIMTP
 40
0.0
  9
$DIMTM
 40
0.0
  9
$DIMTXT
 40
2.5
  9
$DIMCEN
 40
2.5
  9
$DIMTSZ
 40
0.0
  9
$DIMTOL
 70
     0
  9
$DIMLIM
 70
     0
  9
$DIMTIH
 70
     0
  9
$DIMTOH
 70
     0
  9
$DIMSE1
 70
     0
  9
$DIMSE2
 70
     0
  9
$DIMTAD
 70
     1
  9
$DIMZIN
 70
     8
  9
$DIMBLK
  1

  9
$DIMASO
 70
     1
  9
$DIMSHO
 70
     1
  9
$DIMPOST
  1

  9
$DIMAPOST
  1

  9
$DIMALT
 70
     0
  9
$DIMALTD
 70
     3
  9
$DIMALTF
 40
0.03937007874016
  9
$DIMLFAC
 40
1.0
  9
$DIMTOFL
 70
     1
  9
$DIMTVP
 40
0.0
  9
$DIMTIX
 70
     0
  9
$DIMSOXD
 70
     0
  9
$DIMSAH
 70
     0
  9
$DIMBLK1
  1

  9
$DIMBLK2
  1

  9
$DIMSTYLE
  2
ISO-25
  9
$DIMCLRD
 70
     0
  9
$DIMCLRE
 70
     0
  9
$DIMCLRT
 70
     0
  9
$DIMTFAC
 40
1.0
  9
$DIMGAP
 40
0.625
  9
$DIMJUST
 70
     0
  9
$DIMSD1
 70
     0
  9
$DIMSD2
 70
     0
  9
$DIMTOLJ
 70
     0
  9
$DIMTZIN
 70
     8
  9
$DIMALTZ
 70
     0
  9
$DIMALTTZ
 70
     0
  9
$DIMUPT
 70
     0
  9
$DIMDEC
 70
     2
  9
$DIMTDEC
 70
     2
  9
$DIMALTU
 70
     2
  9
$DIMALTTD
 70
     3
  9
$DIMTXSTY
  7
Standard
  9
$DIMAUNIT
 70
     0
  9
$DIMADEC
 70
     0
  9
$DIMALTRND
 40
0.0
  9
$DIMAZIN
 70
     0
  9
$DIMDSEP
 70
    44
  9
$DIMATFIT
 70
     3
  9
$DIMFRAC
 70
     0
  9
$DIMLDRBLK
  1

  9
$DIMLUNIT
 70
     2
  9
$DIMLWD
 70
    -2
  9
$DIMLWE
 70
    -2
  9
$DIMTMOVE
 70
     0
  9
$LUNITS
 70
     2
  9
$LUPREC
 70
     4
  9
$SKETCHINC
 40
1.0
  9
$FILLETRAD
 40
0.0
  9
$AUNITS
 70
     0
  9
$AUPREC
 70
     0
  9
$MENU
  1
.
  9
$ELEVATION
 40
0.0
  9
$PELEVATION
 40
0.0
  9
$THICKNESS
 40
0.0
  9
$LIMCHECK
 70
     0
  9
$CHAMFERA
 40
0.0
  9
$CHAMFERB
 40
0.0
  9
$CHAMFERC
 40
0.0
  9
$CHAMFERD
 40
0.0
  9
$SKPOLY
 70
     0
  9
$TDCREATE
 40
2455505.725807523
  9
$TDUCREATE
 40
2455505.392474190
  9
$TDUPDATE
 40
2457096.683643090
  9
$TDUUPDATE
 40
2457096.350309757
  9
$TDINDWG
 40
0.1371221065
  9
$TDUSRTIMER
 40
0.1371212269
  9
$USRTIMER
 70
     1
  9
$ANGBASE
 50
0.0
  9
$ANGDIR
 70
     0
  9
$PDMODE
 70
     0
  9
$PDSIZE
 40
0.0
  9
$PLINEWID
 40
0.0
  9
$SPLFRAME
 70
     0
  9
$SPLINETYPE
 70
     6
  9
$SPLINESEGS
 70
     8
  9
$HANDSEED
  5
415
  9
$SURFTAB1
 70
     6
  9
$SURFTAB2
 70
     6
  9
$SURFTYPE
 70
     6
  9
$SURFU
 70
     6
  9
$SURFV
 70
     6
  9
$UCSBASE
  2

  9
$UCSNAME
  2

  9
$UCSORG
 10
0.0
 20
0.0
 30
0.0
  9
$UCSXDIR
 10
1.0
 20
0.0
 30
0.0
  9
$UCSYDIR
 10
0.0
 20
1.0
 30
0.0
  9
$UCSORTHOREF
  2

  9
$UCSORTHOVIEW
 70
     0
  9
$UCSORGTOP
 10
0.0
 20
0.0
 30
0.0
  9
$UCSORGBOTTOM
 10
0.0
 20
0.0
 30
0.0
  9
$UCSORGLEFT
 10
0.0
 20
0.0
 30
0.0
  9
$UCSORGRIGHT
 10
0.0
 20
0.0
 30
0.0
  9
$UCSORGFRONT
 10
0.0
 20
0.0
 30
0.0
  9
$UCSORGBACK
 10
0.0
 20
0.0
 30
0.0
  9
$PUCSBASE
  2

  9
$PUCSNAME
  2

  9
$PUCSORG
 10
0.0
 20
0.0
 30
0.0
  9
$PUCSXDIR
 10
1.0
 20
0.0
 30
0.0
  9
$PUCSYDIR
 10
0.0
 20
1.0
 30
0.0
  9
$PUCSORTHOREF
  2

  9
$PUCSORTHOVIEW
 70
     0
  9
$PUCSORGTOP
 10
0.0
 20
0.0
 30
0.0
  9
$PUCSORGBOTTOM
 10
0.0
 20
0.0
 30
0.0
  9
$PUCSORGLEFT
 10
0.0
 20
0.0
 30
0.0
  9
$PUCSORGRIGHT
 10
0.0
 20
0.0
 30
0.0
  9
$PUCSORGFRONT
 10
0.0
 20
0.0
 30
0.0
  9
$PUCSORGBACK
 10
0.0
 20
0.0
 30
0.0
  9
$USERI1
 70
     0
  9
$USERI2
 70
     0
  9
$USERI3
 70
     0
  9
$USERI4
 70
     0
  9
$USERI5
 70
     0
  9
$USERR1
 40
0.0
  9
$USERR2
 40
0.0
  9
$USERR3
 40
0.0
  9
$USERR4
 40
0.0
  9
$USERR5
 40
0.0
  9
$WORLDVIEW
 70
     1
  9
$SHADEDGE
 70
     3
  9
$SHADEDIF
 70
    70
  9
$TILEMODE
 70
     1
  9
$MAXACTVP
 70
    64
  9
$PINSBASE
 10
0.0
 20
0.0
 30
0.0
  9
$PLIMCHECK
 70
     0
  9
$PEXTMIN
 10
0.0
 20
0.0
 30
0.0
  9
$PEXTMAX
 10
0.0
 20
0.0
 30
0.0
  9
$PLIMMIN
 10
0.0
 20
0.0
  9
$PLIMMAX
 10
12.0
 20
9.0
  9
$UNITMODE
 70
     0
  9
$VISRETAIN
 70
     1
  9
$PLINEGEN
 70
     0
  9
$PSLTSCALE
 70
     1
  9
$TREEDEPTH
 70
  3020
  9
$CMLSTYLE
  2
Standard
  9
$CMLJUST
 70
     0
  9
$CMLSCALE
 40
20.0
  9
$PROXYGRAPHICS
 70
     1
  9
$MEASUREMENT
 70
     1
  9
$CELWEIGHT
370
    -1
  9
$ENDCAPS
280
     0
  9
$JOINSTYLE
280
     0
  9
$LWDISPLAY
290
     0
  9
$INSUNITS
 70
     4
  9
$HYPERLINKBASE
  1

  9
$STYLESHEET
  1

  9
$XEDIT
290
     1
  9
$CEPSNTYPE
380
     0
  9
$PSTYLEMODE
290
     1
  9
$FINGERPRINTGUID
  2
{FDEAD578-A652-11D2-9A35-0060089B3A3F}
  9
$VERSIONGUID
  2
{A95775F4-BE5E-444C-B7C3-B672E911ADD2}
  9
$EXTNAMES
290
     1
  9
$PSVPSCALE
 40
0.0
  9
$OLESTARTUP
290
     0
  0
ENDSEC
  0
SECTION
  2
CLASSES
  0
CLASS
  1
ACDBDICTIONARYWDFLT
  2
AcDbDictionaryWithDefault
  3
ObjectDBX Classes
 90
        0
280
     0
281
     0
  0
CLASS
  1
ACDBPLACEHOLDER
  2
AcDbPlaceHolder
  3
ObjectDBX Classes
 90
        0
280
     0
281
     0
  0
CLASS
  1
LAYOUT
  2
AcDbLayout
  3
ObjectDBX Classes
 90
        0
280
     0
281
     0
  0
CLASS
  1
DICTIONARYVAR
  2
AcDbDictionaryVar
  3
ObjectDBX Classes
 90
        0
280
     0
281
     0
  0
CLASS
  1
MATERIAL
  2
AcDbMaterial
  3
ObjectDBX Classes
 90
        0
280
     0
281
     0
  0
CLASS
  1
SORTENTSTABLE
  2
AcDbSortentsTable
  3
ObjectDBX Classes
 90
    32768
280
     0
281
     0
  0
ENDSEC
  0
SECTION
  2
TABLES
  0
TABLE
  2
VPORT
  5
8
330
0
100
AcDbSymbolTable
 70
     7
  0
VPORT
  5
40B
330
8
100
AcDbSymbolTableRecord
100
AcDbViewportTableRecord
  2
*Active
 70
     0
 10
0.0
 20
0.0
 11
1.0
 21
1.0
 12
651.8415398035285
 22
585.5347163545603
 13
0.0
 23
0.0
 14
10.0
 24
10.0
 15
10.0
 25
10.0
 16
0.0
 26
0.0
 36
1.0
 17
0.0
 27
0.0
 37
0.0
 40
1202.560722767246
 41
2.425287356321839
 42
50.0
 43
0.0
 44
0.0
 50
0.0
 51
0.0
 71
     0
 72
  1000
 73
     1
 74
     3
 75
     0
 76
     0
 77
     0
 78
     0
281
     0
 65
     1
110
0.0
120
0.0
130
0.0
111
1.0
121
0.0
131
0.0
112
0.0
122
1.0
132
0.0
 79
     0
146
0.0
  0
ENDTAB
  0
TABLE
  2
LTYPE
  5
5
330
0
100
AcDbSymbolTable
 70
     2
  0
LTYPE
  5
14
330
5
100
AcDbSymbolTableRecord
100
AcDbLinetypeTableRecord
  2
ByBlock
 70
     0
  3

 72
    65
 73
     0
 40
0.0
  0
LTYPE
  5
15
330
5
100
AcDbSymbolTableRecord
100
AcDbLinetypeTableRecord
  2
ByLayer
 70
     0
  3

 72
    65
 73
     0
 40
0.0
  0
LTYPE
  5
16
330
5
100
AcDbSymbolTableRecord
100
AcDbLinetypeTableRecord
  2
Continuous
 70
     0
  3
Solid line
 72
    65
 73
     0
 40
0.0
  0
LTYPE
  5
326
330
5
100
AcDbSymbolTableRecord
100
AcDbLinetypeTableRecord
  2
ACAD_ISO03W100
 70
     0
  3
ISO dash space __    __    __    __    __    __
 72
    65
 73
     2
 40
30.0
 49
12.0
 74
     0
 49
-18.0
 74
     0
  0
ENDTAB
  0
TABLE
  2
LAYER
  5
2
330
0
100
AcDbSymbolTable
 70
     4
  0
LAYER
  5
10
330
2
100
AcDbSymbolTableRecord
100
AcDbLayerTableRecord
  2
0
 70
     0
 62
     2
  6
Continuous
370
    -3
390
F
  0
LAYER
  5
94
330
2
100
AcDbSymbolTableRecord
100
AcDbLayerTableRecord
  2
1
 70
     0
 62
     1
  6
Continuous
370
    -3
390
F
  0
LAYER
  5
95
330
2
100
AcDbSymbolTableRecord
100
AcDbLayerTableRecord
  2
2
 70
     0
 62
     7
  6
Continuous
370
    -3
390
F
  0
LAYER
  5
177
102
{ACAD_XDICTIONARY
360
178
102
}
330
2
100
AcDbSymbolTableRecord
100
AcDbLayerTableRecord
  2
3
 70
     0
 62
     7
  6
Continuous
370
    -3
390
F
  0
ENDTAB
  0
TABLE
  2
STYLE
  5
3
330
0
100
AcDbSymbolTable
 70
     2
  0
STYLE
  5
11
330
3
100
AcDbSymbolTableRecord
100
AcDbTextStyleTableRecord
  2
Standard
 70
     0
 40
0.0
 41
1.0
 50
0.0
 71
     0
 42
2.5
  3
txt
  4

  0
STYLE
  5
325
330
3
100
AcDbSymbolTableRecord
100
AcDbTextStyleTableRecord
  2

 70
     1
 40
0.0
 41
1.0
 50
0.0
 71
     0
 42
2.5
  3
ltypeshp.shx
  4

  0
ENDTAB
  0
TABLE
  2
VIEW
  5
6
330
0
100
AcDbSymbolTable
 70
     0
  0
ENDTAB
  0
TABLE
  2
UCS
  5
7
330
0
100
AcDbSymbolTable
 70
     0
  0
ENDTAB
  0
TABLE
  2
APPID
  5
9
330
0
100
AcDbSymbolTable
 70
     1
  0
APPID
  5
12
330
9
100
AcDbSymbolTableRecord
100
AcDbRegAppTableRecord
  2
ACAD
 70
     0
  0
ENDTAB
  0
TABLE
  2
DIMSTYLE
  5
A
330
0
100
AcDbSymbolTable
 70
     1
100
AcDbDimStyleTable
 71
     1
340
27
  0
DIMSTYLE
105
27
330
A
100
AcDbSymbolTableRecord
100
AcDbDimStyleTableRecord
  2
ISO-25
 70
     0
 41
2.5
 42
0.625
 43
3.75
 44
1.25
 73
     0
 74
     0
 77
     1
 78
     8
140
2.5
141
2.5
143
0.03937007874016
147
0.625
171
     3
172
     1
271
     2
272
     2
274
     3
278
    44
283
     0
284
     8
340
11
  0
ENDTAB
  0
TABLE
  2
BLOCK_RECORD
  5
1
330
0
100
AcDbSymbolTable
 70
     4
  0
BLOCK_RECORD
  5
1F
330
1
100
AcDbSymbolTableRecord
100
AcDbBlockTableRecord
  2
*Model_Space
340
22
  0
BLOCK_RECORD
  5
50
330
1
100
AcDbSymbolTableRecord
100
AcDbBlockTableRecord
  2
*Paper_Space
340
51
  0
BLOCK_RECORD
  5
55
330
1
100
AcDbSymbolTableRecord
100
AcDbBlockTableRecord
  2
*Paper_Space0
340
56
  0
BLOCK_RECORD
  5
39E
330
1
100
AcDbSymbolTableRecord
100
AcDbBlockTableRecord
  2
A$C18803420
340
0
  0
ENDTAB
  0
ENDSEC
  0
SECTION
  2
BLOCKS
  0
BLOCK
  5
20
330
1F
100
AcDbEntity
  8
0
100
AcDbBlockBegin
  2
*Model_Space
 70
     0
 10
0.0
 20
0.0
 30
0.0
  3
*Model_Space
  1

  0
ENDBLK
  5
21
330
1F
100
AcDbEntity
  8
0
100
AcDbBlockEnd
  0
BLOCK
  5
52
330
50
100
AcDbEntity
 67
     1
  8
0
100
AcDbBlockBegin
  2
*Paper_Space
 70
     0
 10
0.0
 20
0.0
 30
0.0
  3
*Paper_Space
  1

  0
ENDBLK
  5
53
330
50
100
AcDbEntity
 67
     1
  8
0
100
AcDbBlockEnd
  0
BLOCK
  5
57
330
55
100
AcDbEntity
  8
0
100
AcDbBlockBegin
  2
*Paper_Space0
 70
     0
 10
0.0
 20
0.0
 30
0.0
  3
*Paper_Space0
  1

  0
ENDBLK
  5
58
330
55
100
AcDbEntity
  8
0
100
AcDbBlockEnd
  0
BLOCK
  5
3C0
330
39E
100
AcDbEntity
  8
0
100
AcDbBlockBegin
  2
A$C18803420
 70
     0
 10
0.0
 20
0.0
 30
0.0
  3
A$C18803420
  1

  0
LWPOLYLINE
  5
39F
330
39E
100
AcDbEntity
  8
2
100
AcDbPolyline
 90
       30
 70
     0
 43
0.0
 10
283.2869675223688
 20
51.96158223331313
 10
283.8685240954836
 20
72.57464675391378
 10
288.1899129843841
 20
166.3787672748002
 10
292.5113018732699
 20
230.5445647649757
 10
296.8326907621557
 20
277.8227234896039
 10
301.1540796510416
 20
314.598602498605
 10
305.4754685399421
 20
344.4297088984748
 10
309.7968574288279
 20
369.4609792762203
 10
314.1182463177138
 20
391.0684221791888
 10
318.4396352065996
 20
410.1813275206367
 10
322.7610240954854
 20
427.4562265192943
 10
327.0824129843858
 20
443.3768595536821
 10
331.4038018732716
 20
458.3148530319738
 10
335.7251907621576
 20
472.5685205096668
 10
340.0465796510433
 20
486.3890975137472
 10
344.3679685399438
 20
499.9997088984817
 10
348.6893574288296
 20
513.6103202832017
 10
353.0107463177156
 20
527.4308972872821
 10
357.3321352066013
 20
541.6845647649751
 10
361.6535240954873
 20
556.6225582432671
 10
365.9749129843876
 20
572.5431912776546
 10
370.2963018732735
 20
589.8180902763124
 10
374.6176907621593
 20
608.9309956177603
 10
378.9390796510451
 20
630.538438520729
 10
383.2604685399309
 20
655.5697088984742
 10
387.5818574288313
 20
685.4008152983587
 10
391.9032463177173
 20
722.1766943073453
 10
396.2246352066031
 20
769.4548530319734
 10
400.546024095489
 20
833.620650522149
 10
401.9740076224392
 20
864.6178003523685
  0
LWPOLYLINE
  5
3A0
330
39E
100
AcDbEntity
  8
2
100
AcDbPolyline
 90
       30
 70
     0
 43
0.0
 10
438.9170076765578
 20
51.9615822333132
 10
439.4985642496727
 20
72.57464675391386
 10
443.819953138573
 20
166.3787672748003
 10
448.141342027459
 20
230.5445647649758
 10
452.4627309163448
 20
277.822723489604
 10
456.7841198052305
 20
314.598602498605
 10
461.105508694131
 20
344.4297088984749
 10
465.4268975830169
 20
369.4609792762203
 10
469.7482864719027
 20
391.0684221791889
 10
474.0696753607886
 20
410.1813275206367
 10
478.3910642496744
 20
427.4562265192944
 10
482.712453138575
 20
443.3768595536821
 10
487.0338420274607
 20
458.314853031974
 10
491.3552309163465
 20
472.5685205096668
 10
495.6766198052324
 20
486.3890975137474
 10
499.9980086941327
 20
499.9997088984819
 10
504.3193975830187
 20
513.6103202832017
 10
508.6407864719046
 20
527.4308972872821
 10
512.9621753607903
 20
541.6845647649751
 10
517.2835642496762
 20
556.6225582432671
 10
521.6049531385766
 20
572.5431912776546
 10
525.9263420274623
 20
589.8180902763124
 10
530.2477309163483
 20
608.9309956177603
 10
534.5691198052342
 20
630.538438520729
 10
538.89050869412
 20
655.5697088984742
 10
543.2118975830205
 20
685.4008152983587
 10
547.5332864719063
 20
722.1766943073453
 10
551.8546753607921
 20
769.4548530319734
 10
556.1760642496778
 20
833.620650522149
 10
557.6040477766283
 20
864.6178003523685
  0
LWPOLYLINE
  5
3A1
330
39E
100
AcDbEntity
  8
2
100
AcDbPolyline
 90
       31
 70
     0
 43
0.0
 10
594.4896519149939
 20
51.9615822333132
 10
595.0712084881088
 20
72.57464675391386
 10
599.3925973770092
 20
166.3787672748003
 10
603.7139862658951
 20
230.5445647649758
 10
608.0353751547808
 20
277.822723489604
 10
612.3567640436666
 20
314.598602498605
 10
616.6781529325671
 20
344.4297088984749
 10
620.9995418214528
 20
369.4609792762203
 10
625.3209307103388
 20
391.0684221791889
 10
629.6423195992247
 20
410.1813275206367
 10
633.9637084881105
 20
427.4562265192944
 10
638.285097377011
 20
443.3768595536821
 10
642.6064862658967
 20
458.314853031974
 10
646.9278751547826
 20
472.5685205096668
 10
651.2492640436686
 20
486.3890975137474
 10
655.5706529325689
 20
499.9997088984819
 10
659.8920418214547
 20
513.6103202832017
 10
664.2134307103407
 20
527.4308972872821
 10
668.5348195992264
 20
541.6845647649751
 10
672.8562084881121
 20
556.6225582432671
 10
677.1775973770127
 20
572.5431912776546
 10
681.4989862658985
 20
589.8180902763124
 10
685.8203751547844
 20
608.9309956177603
 10
690.1417640436701
 20
630.538438520729
 10
694.463152932556
 20
655.5697088984742
 10
698.7845418214564
 20
685.4008152983587
 10
703.1059307103422
 20
722.1766943073453
 10
707.4273195992282
 20
769.4548530319734
 10
711.748708488114
 20
833.620650522149
 10
716.0700973770144
 20
927.4247710430355
 10
716.6516539501296
 20
948.0378355636506
  0
LINE
  5
3A2
330
39E
100
AcDbEntity
  8
3
100
AcDbLine
 10
500.0006529325617
 20
188.8544204216017
 30
0.0
 11
528.1580966531986
 21
188.8544204216017
 31
0.0
  0
LINE
  5
3A3
330
39E
100
AcDbEntity
  8
3
100
AcDbLine
 10
500.0006529325617
 20
344.4270646600379
 30
0.0
 11
528.1580966531986
 21
344.4270646600379
 31
0.0
  0
MTEXT
  5
3A4
330
39E
100
AcDbEntity
  8
3
100
AcDbMText
 10
540.0749459864932
 20
961.8626833174131
 30
0.0
 40
56.04447024
 41
253.5562335700771
 71
     1
 72
     5
  1
{\fRomantic|b0|i0|c2|p2;y}
 11
0.9999421637257766
 21
-0.0107549618043136
 31
0.0
 73
     1
 44
1.0
1001
ACAD
1000
MTEXTBEGIN
1070
    73
1070
     1
1070
    44
1040
1.0
1070
    74
1070
     0
1000
MTEXTEND
  0
LINE
  5
3A5
330
39E
100
AcDbEntity
  8
3
100
AcDbLine
 10
500.0006529325617
 20
811.144997375362
 30
0.0
 11
528.1580966531986
 21
811.144997375362
 31
0.0
  0
HATCH
  5
3A6
330
39E
100
AcDbEntity
  8
3
100
AcDbHatch
 10
0.0
 20
0.0
 30
0.0
210
0.0
220
0.0
230
1.0
  2
SOLID
 70
     1
 71
     0
 91
        2
 92
        7
 72
     0
 73
     1
 93
        3
 10
500.0006529325617
 20
948.0378355636501
 10
500.0006529325617
 20
923.8605243828001
 10
516.0624429691308
 20
903.9516290667627
 97
        0
 92
        7
 72
     0
 73
     1
 93
        3
 10
500.0006529325617
 20
948.0378355636501
 10
483.9388628960007
 20
903.9516290667627
 10
500.0006529325617
 20
923.8605243828001
 97
        0
 75
     0
 76
     1
 47
0.0758510857146228
 98
        2
 10
504.8458054006464
 20
927.4097117140387
 10
497.7936484167446
 20
926.8362874520239
  0
LINE
  5
3A7
330
39E
100
AcDbEntity
  8
3
100
AcDbLine
 10
500.0006529325617
 20
948.0378355636501
 30
0.0
 11
483.9388628959929
 21
903.9516290667632
 31
0.0
  0
LINE
  5
3A8
330
39E
100
AcDbEntity
  8
3
100
AcDbLine
 10
483.9388628959929
 20
903.9516290667632
 30
0.0
 11
500.0006529325617
 21
923.8605243828001
 31
0.0
  0
LINE
  5
3A9
330
39E
100
AcDbEntity
  8
3
100
AcDbLine
 10
500.0006529325617
 20
948.0378355636501
 30
0.0
 11
516.0624429691308
 21
903.9516290667632
 31
0.0
  0
LINE
  5
3AA
330
39E
100
AcDbEntity
  8
3
100
AcDbLine
 10
516.0624429691308
 20
903.9516290667632
 30
0.0
 11
500.0006529325617
 21
948.0378355636501
 31
0.0
  0
LINE
  5
3AB
330
39E
100
AcDbEntity
  8
3
100
AcDbLine
 10
516.0624429691308
 20
903.9516290667632
 30
0.0
 11
500.0006529325617
 21
923.8605243828001
 31
0.0
  0
MTEXT
  5
3AC
330
39E
100
AcDbEntity
  8
3
100
AcDbMText
 10
926.3829674118134
 20
497.2207825171269
 30
0.0
 40
56.04447024
 41
253.5562335700771
 71
     1
 72
     5
  1
{\fRomantic|b0|i0|c2|p2;x}
 11
0.9999421637257766
 21
-0.0107549618043136
 31
0.0
 73
     1
 44
1.0
1001
ACAD
1000
MTEXTBEGIN
1070
    73
1070
     1
1070
    44
1040
1.0
1070
    74
1070
     0
1000
MTEXTEND
  0
MTEXT
  5
3AD
330
39E
100
AcDbEntity
  8
3
100
AcDbMText
 10
525.1375243647039
 20
501.7097033462873
 30
0.0
 40
56.04447024
 41
253.5562335700771
 71
     1
 72
     5
  1
{\fSimSun|b0|i0|c134|p2;o}
 11
0.9999421637257766
 21
-0.0107549618043136
 31
0.0
 73
     1
 44
1.0
1001
ACAD
1000
MTEXTBEGIN
1070
    73
1070
     1
1070
    44
1040
1.0
1070
    74
1070
     0
1000
MTEXTEND
  0
LINE
  5
3AE
330
39E
100
AcDbEntity
  8
3
100
AcDbLine
 10
811.1459414094424
 20
499.9997088984817
 30
0.0
 11
811.1459414094424
 21
528.1571526191186
 31
0.0
  0
LINE
  5
3AF
330
39E
100
AcDbEntity
  8
3
100
AcDbLine
 10
655.573297170998
 20
499.9997088984817
 30
0.0
 11
655.573297170998
 21
528.1571526191186
 31
0.0
  0
LINE
  5
3B0
330
39E
100
AcDbEntity
  8
3
100
AcDbLine
 10
188.8553644556816
 20
499.9997088984817
 30
0.0
 11
188.8553644556816
 21
528.1571526191186
 31
0.0
  0
LINE
  5
3B1
330
39E
100
AcDbEntity
  8
3
100
AcDbLine
 10
344.4280086941257
 20
499.9997088984817
 30
0.0
 11
344.4280086941257
 21
528.1571526191186
 31
0.0
  0
LINE
  5
3B2
330
39E
100
AcDbEntity
  8
3
100
AcDbLine
 10
500.0006529325617
 20
655.5723531369254
 30
0.0
 11
528.1580966531986
 21
655.5723531369254
 31
0.0
  0
LINE
  5
3B3
330
39E
100
AcDbEntity
  8
3
100
AcDbLine
 10
903.9525731008346
 20
483.9379188619129
 30
0.0
 11
923.8614684168879
 21
499.9997088984817
 31
0.0
  0
LINE
  5
3B4
330
39E
100
AcDbEntity
  8
3
100
AcDbLine
 10
903.9525731008346
 20
483.9379188619129
 30
0.0
 11
948.0387795977307
 21
499.9997088984817
 31
0.0
  0
LINE
  5
3B5
330
39E
100
AcDbEntity
  8
3
100
AcDbLine
 10
948.0387795977307
 20
499.9997088984817
 30
0.0
 11
903.9525731008346
 21
483.9379188619129
 31
0.0
  0
LINE
  5
3B6
330
39E
100
AcDbEntity
  8
3
100
AcDbLine
 10
903.9525731008346
 20
516.0614989350508
 30
0.0
 11
923.8614684168879
 21
499.9997088984817
 31
0.0
  0
LINE
  5
3B7
330
39E
100
AcDbEntity
  8
3
100
AcDbLine
 10
948.0387795977307
 20
499.9997088984817
 30
0.0
 11
903.9525731008346
 21
516.0614989350508
 31
0.0
  0
HATCH
  5
3B8
330
39E
100
AcDbEntity
  8
3
100
AcDbHatch
 10
0.0
 20
0.0
 30
0.0
210
0.0
220
0.0
230
1.0
  2
SOLID
 70
     1
 71
     0
 91
        2
 92
        7
 72
     0
 73
     1
 93
        3
 10
948.0387795977307
 20
499.9997088984817
 10
923.8614684168879
 20
499.9997088984817
 10
903.9525731008346
 20
483.9379188619129
 97
        0
 92
        7
 72
     0
 73
     1
 93
        3
 10
948.0387795977225
 20
499.9997088984817
 10
903.9525731008431
 20
516.0614989350507
 10
923.8614684168879
 20
499.9997088984817
 97
        0
 75
     0
 76
     1
 47
0.0758510857146228
 98
        2
 10
927.4106557481188
 20
495.154556430397
 10
926.8372314861116
 20
502.2067134142988
  0
LINE
  5
3B9
330
39E
100
AcDbEntity
  8
3
100
AcDbLine
 10
500.0006529325617
 20
948.0378355636501
 30
0.0
 11
500.0006529325617
 21
51.9615822333132
 31
0.0
  0
LINE
  5
3BA
330
39E
100
AcDbEntity
  8
3
100
AcDbLine
 10
51.96252626739329
 20
499.9997088984817
 30
0.0
 11
948.0387795977307
 21
499.9997088984817
 31
0.0
  0
LINE
  5
3BB
330
39E
100
AcDbEntity
  8
1
 62
     1
100
AcDbLine
 10
20.00065293256193
 20
979.9997088984818
 30
0.0
 11
20.00065293256193
 21
19.99970889848191
 31
0.0
  0
LINE
  5
3BC
330
39E
100
AcDbEntity
  8
1
 62
     1
100
AcDbLine
 10
980.0006529325619
 20
979.9997088984818
 30
0.0
 11
20.00065293256193
 21
979.9997088984818
 31
0.0
  0
LINE
  5
3BD
330
39E
100
AcDbEntity
  8
1
 62
     1
100
AcDbLine
 10
980.0006529325619
 20
19.99970889848191
 30
0.0
 11
980.0006529325619
 21
979.9997088984818
 31
0.0
  0
LINE
  5
3BE
330
39E
100
AcDbEntity
  8
1
 62
     1
100
AcDbLine
 10
20.00065293256193
 20
19.99970889848191
 30
0.0
 11
980.0006529325619
 21
19.99970889848191
 31
0.0
  0
LWPOLYLINE
  5
3BF
330
39E
100
AcDbEntity
  8
0
 62
     2
100
AcDbPolyline
 90
        4
 70
     1
 43
0.0
 10
0.000652932561934
 20
-0.0002911015180871
 10
1000.000652932562
 20
-0.0002911015180871
 10
1000.000652932562
 20
999.9997088984819
 10
0.000652932561934
 20
999.9997088984819
  0
ENDBLK
  5
3C1
330
39E
100
AcDbEntity
  8
0
100
AcDbBlockEnd
  0
ENDSEC
  0
SECTION
  2
ENTITIES
  0
LWPOLYLINE
  5
96
330
1F
100
AcDbEntity
  8
0
 62
     2
100
AcDbPolyline
 90
        4
 70
     1
 43
0.0
 10
0.0
 20
0.0
 10
1000.0
 20
0.0
 10
1000.0
 20
1000.0
 10
0.0
 20
1000.0
  0
LINE
  5
B1
330
1F
100
AcDbEntity
  8
1
 62
     1
100
AcDbLine
 10
847.4736197758609
 20
23.99292268171809
 30
0.0
 11
847.4736197758609
 21
983.9929226817179
 31
0.0
  0
LINE
  5
B2
330
1F
100
AcDbEntity
  8
1
 62
     1
100
AcDbLine
 10
847.4736197758609
 20
983.9929226817179
 30
0.0
 11
160.5122255875757
 21
983.9929226817179
 31
0.0
  0
LINE
  5
B3
330
1F
100
AcDbEntity
  8
1
 62
     1
100
AcDbLine
 10
160.5122255875757
 20
983.9929226817179
 30
0.0
 11
160.5122255875756
 21
23.99292268171814
 31
0.0
  0
LINE
  5
B4
330
1F
100
AcDbEntity
  8
1
 62
     1
100
AcDbLine
 10
160.5122255875756
 20
23.99292268171814
 30
0.0
 11
847.4736197758609
 21
23.99292268171809
 31
0.0
  0
LINE
  5
38D
330
1F
100
AcDbEntity
  8
3
100
AcDbLine
 10
500.0
 20
55.95479601654949
 30
0.0
 11
500.0
 21
952.0310493468869
 31
0.0
  0
HATCH
  5
38E
330
1F
100
AcDbEntity
  8
3
100
AcDbHatch
 10
0.0
 20
0.0
 30
0.0
210
0.0
220
0.0
230
1.0
  2
SOLID
 70
     1
 71
     0
 91
        2
 92
        7
 72
     0
 73
     1
 93
        3
 10
500.0
 20
952.0310493468869
 10
500.0
 20
927.853738166044
 10
516.0617900365687
 20
907.9448428499908
 97
        0
 92
        7
 72
     0
 73
     1
 93
        3
 10
500.0
 20
952.0310493468787
 10
483.9382099634311
 20
907.9448428499993
 10
500.0
 20
927.853738166044
 97
        0
 75
     0
 76
     1
 47
0.0758510857146228
 98
        2
 10
504.8451524680845
 20
931.402925497275
 10
497.792995484183
 20
930.8295012352678
  0
LINE
  5
38F
330
1F
100
AcDbEntity
  8
3
100
AcDbLine
 10
500.0
 20
952.0310493468869
 30
0.0
 11
483.9382099634308
 21
907.9448428499908
 31
0.0
  0
LINE
  5
390
330
1F
100
AcDbEntity
  8
3
100
AcDbLine
 10
483.9382099634308
 20
907.9448428499908
 30
0.0
 11
500.0
 21
927.853738166044
 31
0.0
  0
LINE
  5
391
330
1F
100
AcDbEntity
  8
3
100
AcDbLine
 10
500.0
 20
952.0310493468869
 30
0.0
 11
516.0617900365687
 21
907.9448428499908
 31
0.0
  0
LINE
  5
392
330
1F
100
AcDbEntity
  8
3
100
AcDbLine
 10
516.0617900365687
 20
907.9448428499908
 30
0.0
 11
500.0
 21
952.0310493468869
 31
0.0
  0
LINE
  5
393
330
1F
100
AcDbEntity
  8
3
100
AcDbLine
 10
516.0617900365687
 20
907.9448428499908
 30
0.0
 11
500.0
 21
927.853738166044
 31
0.0
  0
MTEXT
  5
394
330
1F
100
AcDbEntity
  8
3
100
AcDbMText
 10
757.9776747338473
 20
501.2139963003635
 30
0.0
 40
56.04447024
 41
421.9511334185565
 71
     1
 72
     5
  1
{\fRomantic|b0|i0|c2|p2;x}
 11
0.9999421637257766
 21
-0.0107549618043136
 31
0.0
 73
     1
 44
1.0
1001
ACAD
1000
MTEXTBEGIN
1070
    73
1070
     1
1070
    44
1040
1.0
1070
    74
1070
     0
1000
MTEXTEND
  0
MTEXT
  5
395
330
1F
100
AcDbEntity
  8
3
100
AcDbMText
 10
525.136871432142
 20
505.7029171295239
 30
0.0
 40
56.04447024
 41
253.5562335700771
 71
     1
 72
     5
  1
{\fSimSun|b0|i0|c134|p2;o}
 11
0.9999421637257766
 21
-0.0107549618043136
 31
0.0
 73
     1
 44
1.0
1001
ACAD
1000
MTEXTBEGIN
1070
    73
1070
     1
1070
    44
1040
1.0
1070
    74
1070
     0
1000
MTEXTEND
  0
LINE
  5
396
330
1F
100
AcDbEntity
  8
3
100
AcDbLine
 10
184.5094410482634
 20
503.9929226817178
 30
0.0
 11
815.4905589517367
 21
503.9929226817178
 31
0.0
  0
MTEXT
  5
397
330
1F
100
AcDbEntity
  8
3
100
AcDbMText
 10
424.5493667825066
 20
983.9929226817179
 30
0.0
 40
56.04447024
 41
370.6392192179734
 71
     1
 72
     5
  1
{\fRomantic|b0|i0|c2|p2;y}
 11
0.9999421637257766
 21
-0.0107549618043136
 31
0.0
 73
     1
 44
1.0
1001
ACAD
1000
MTEXTBEGIN
1070
    73
1070
     1
1070
    44
1040
1.0
1070
    74
1070
     0
1000
MTEXTEND
  0
LINE
  5
398
330
1F
100
AcDbEntity
  8
3
100
AcDbLine
 10
776.5988048955144
 20
520.0547127182869
 30
0.0
 11
796.5077002115511
 21
503.9929226817179
 31
0.0
  0
LINE
  5
399
330
1F
100
AcDbEntity
  8
3
100
AcDbLine
 10
776.5988048955144
 20
520.0547127182869
 30
0.0
 11
820.6850113924012
 21
503.9929226817179
 31
0.0
  0
LINE
  5
39A
330
1F
100
AcDbEntity
  8
3
100
AcDbLine
 10
820.6850113924012
 20
503.9929226817179
 30
0.0
 11
776.5988048955144
 21
520.0547127182869
 31
0.0
  0
LINE
  5
39B
330
1F
100
AcDbEntity
  8
3
100
AcDbLine
 10
776.5988048955144
 20
487.9311326451492
 30
0.0
 11
796.5077002115511
 21
503.9929226817179
 31
0.0
  0
LINE
  5
39C
330
1F
100
AcDbEntity
  8
3
100
AcDbLine
 10
820.6850113924012
 20
503.9929226817179
 30
0.0
 11
776.5988048955144
 21
487.9311326451492
 31
0.0
  0
HATCH
  5
39D
330
1F
100
AcDbEntity
  8
3
100
AcDbHatch
 10
0.0
 20
0.0
 30
0.0
210
0.0
220
0.0
230
1.0
  2
SOLID
 70
     1
 71
     0
 91
        2
 92
        7
 72
     0
 73
     1
 93
        3
 10
820.6850113924012
 20
503.9929226817179
 10
796.5077002115511
 20
503.9929226817179
 10
776.5988048955135
 20
520.0547127182869
 97
        0
 92
        7
 72
     0
 73
     1
 93
        3
 10
820.6850113924012
 20
503.9929226817179
 10
776.5988048955135
 20
487.9311326451569
 10
796.5077002115511
 20
503.9929226817179
 97
        0
 75
     0
 76
     1
 47
0.0758510857146228
 98
        2
 10
800.0568875427896
 20
508.8380751498026
 10
799.4834632807749
 20
501.7859181659008
  0
LWPOLYLINE
  5
3C3
330
1F
100
AcDbEntity
  8
2
100
AcDbPolyline
 90
       16
 70
     0
 43
0.0
 10
500.0000000000024
 20
653.9929226817316
 10
474.6875000000024
 20
657.7429226817316
 10
463.9824261644441
 20
661.4929226817289
 10
455.6194985804601
 20
665.2429226817316
 10
448.4460234317481
 20
668.9929226817289
 10
442.0188271397561
 20
672.7429226817316
 10
436.112281109749
 20
676.4929226817316
 10
430.5933349292041
 20
680.2429226817289
 10
425.3759422170065
 20
683.9929226817316
 10
420.4007841982753
 20
687.7429226817289
 10
415.6250000000023
 20
691.4929226817316
 10
374.2211762656403
 20
728.9929226817316
 10
338.4341755661195
 20
766.4929226817316
 10
305.1442841485028
 20
803.9929226817317
 10
273.2490008291048
 20
841.4929226817317
 10
262.9093729389936
 20
853.9929226817177
  0
LWPOLYLINE
  5
3C4
330
1F
100
AcDbEntity
  8
2
100
AcDbPolyline
 90
       16
 70
     0
 43
0.0
 10
499.9999999999972
 20
653.9929226817316
 10
525.3124999999973
 20
657.7429226817316
 10
536.0175738355556
 20
661.4929226817289
 10
544.3805014195395
 20
665.2429226817316
 10
551.5539765682515
 20
668.9929226817289
 10
557.9811728602435
 20
672.7429226817316
 10
563.8877188902506
 20
676.4929226817316
 10
569.4066650707955
 20
680.2429226817289
 10
574.624057782993
 20
683.9929226817316
 10
579.5992158017242
 20
687.7429226817289
 10
584.3749999999972
 20
691.4929226817316
 10
625.7788237343593
 20
728.9929226817316
 10
661.5658244338801
 20
766.4929226817316
 10
694.8557158514968
 20
803.9929226817317
 10
726.7509991708948
 20
841.4929226817317
 10
737.0906270610062
 20
853.9929226817177
  0
LWPOLYLINE
  5
3C6
330
1F
100
AcDbEntity
  8
2
100
AcDbPolyline
 90
       16
 70
     0
 43
0.0
 10
499.9999999999972
 20
353.9929226817039
 10
525.3124999999973
 20
350.2429226817039
 10
536.0175738355556
 20
346.4929226817066
 10
544.3805014195395
 20
342.7429226817038
 10
551.5539765682515
 20
338.9929226817065
 10
557.9811728602435
 20
335.2429226817038
 10
563.8877188902506
 20
331.4929226817038
 10
569.4066650707955
 20
327.7429226817066
 10
574.624057782993
 20
323.9929226817038
 10
579.5992158017242
 20
320.2429226817065
 10
584.3749999999972
 20
316.4929226817038
 10
625.7788237343593
 20
278.9929226817038
 10
661.5658244338801
 20
241.4929226817038
 10
694.8557158514968
 20
203.9929226817038
 10
726.7509991708948
 20
166.4929226817038
 10
737.090627061006
 20
153.9929226817179
  0
LWPOLYLINE
  5
3C7
330
1F
100
AcDbEntity
  8
2
100
AcDbPolyline
 90
       16
 70
     0
 43
0.0
 10
500.0000000000024
 20
353.9929226817039
 10
474.6875000000024
 20
350.2429226817039
 10
463.9824261644441
 20
346.4929226817066
 10
455.6194985804601
 20
342.7429226817039
 10
448.4460234317481
 20
338.9929226817066
 10
442.0188271397561
 20
335.2429226817039
 10
436.112281109749
 20
331.4929226817039
 10
430.5933349292041
 20
327.7429226817066
 10
425.3759422170065
 20
323.9929226817039
 10
420.4007841982753
 20
320.2429226817066
 10
415.6250000000023
 20
316.4929226817039
 10
374.2211762656403
 20
278.9929226817039
 10
338.4341755661195
 20
241.4929226817038
 10
305.1442841485028
 20
203.9929226817039
 10
273.2490008291048
 20
166.4929226817038
 10
262.9093729389938
 20
153.992922681718
  0
HATCH
  5
3D6
330
1F
100
AcDbEntity
  8
2
100
AcDbHatch
 10
0.0
 20
0.0
 30
0.0
210
0.0
220
0.0
230
1.0
  2
SOLID
 70
     1
 71
     0
 91
        2
 92
        7
 72
     1
 73
     1
 93
        2
 10
499.9999999999984
 20
689.4929226817175
 42
0.0
 10
499.9999999999984
 20
693.4929226817175
 42
1.0
 97
        0
 92
        7
 72
     1
 73
     1
 93
        2
 10
499.9999999999984
 20
693.4929226817175
 42
0.0
 10
499.9999999999984
 20
689.4929226817175
 42
1.0
 97
        0
 75
     0
 76
     1
 47
0.1970274522294647
 98
        2
 10
499.3997802601365
 20
690.6274034931501
 10
500.9146353007262
 20
691.1563412275999
  0
CIRCLE
  5
3D7
330
1F
100
AcDbEntity
  8
2
100
AcDbCircle
 10
499.9999999999984
 20
691.4929226817174
 30
0.0
 40
2.0
  0
CIRCLE
  5
3D9
330
1F
100
AcDbEntity
  8
2
100
AcDbCircle
 10
500.0000000000004
 20
316.4929226817175
 30
0.0
 40
2.0
  0
HATCH
  5
3DA
330
1F
100
AcDbEntity
  8
2
100
AcDbHatch
 10
0.0
 20
0.0
 30
0.0
210
0.0
220
0.0
230
1.0
  2
SOLID
 70
     1
 71
     0
 91
        2
 92
        7
 72
     1
 73
     1
 93
        2
 10
500.0000000000004
 20
314.4929226817175
 42
0.0
 10
500.0000000000004
 20
318.4929226817175
 42
1.0
 97
        0
 92
        7
 72
     1
 73
     1
 93
        2
 10
500.0000000000004
 20
318.4929226817175
 42
0.0
 10
500.0000000000004
 20
314.4929226817175
 42
1.0
 97
        0
 75
     0
 76
     1
 47
0.1970274522294647
 98
        2
 10
499.3997802601385
 20
315.6274034931501
 10
500.9146353007282
 20
316.1563412275999
  0
LINE
  5
3DD
330
1F
100
AcDbEntity
  8
2
  6
ACAD_ISO03W100
100
AcDbLine
 10
500.0
 20
691.4929226817178
 30
0.0
 11
338.4341755661196
 21
766.7318352484334
 31
0.0
  0
LINE
  5
3DE
330
1F
100
AcDbEntity
  8
2
  6
ACAD_ISO03W100
100
AcDbLine
 10
338.4341755661196
 20
766.7318352484334
 30
0.0
 11
499.9999999999998
 21
316.4929226817179
 31
0.0
  0
MTEXT
  5
3DF
330
1F
100
AcDbEntity
  8
3
100
AcDbMText
 10
293.4056851606801
 20
770.1274324131737
 30
0.0
 40
40.0
 41
703.5186365516807
 71
     1
 72
     5
  1
{\fSimSun|b0|i0|c134|p2;M}
 11
0.9999421637257766
 21
-0.0107549618043136
 31
0.0
 73
     1
 44
1.0
1001
ACAD
1000
MTEXTBEGIN
1070
    73
1070
     1
1070
    44
1040
1.0
1070
    74
1070
     0
1000
MTEXTEND
  0
MTEXT
  5
3E0
330
1F
100
AcDbEntity
  8
3
100
AcDbMText
 10
510.0038929891889
 20
725.7393975037557
 30
0.0
 40
30.0
 41
445.0750530406161
 71
     1
 72
     5
  1
{\fSimSun|b0|i0|c134|p2;F2}
 11
0.9999421637257766
 21
-0.0107549618043136
 31
0.0
 73
     1
 44
1.0
1001
ACAD
1000
MTEXTBEGIN
1070
    73
1070
     1
1070
    44
1040
1.0
1070
    74
1070
     0
1000
MTEXTEND
  0
MTEXT
  5
3E1
330
1F
100
AcDbEntity
  8
3
100
AcDbMText
 10
510.6249758760095
 20
321.4509383547702
 30
0.0
 40
30.0
 41
106.8
 71
     1
 72
     5
  1
{\fSimSun|b0|i0|c134|p2;F1}
 11
0.9999421637257766
 21
-0.0107549618043136
 31
0.0
 73
     1
 44
1.0
1001
ACAD
1000
MTEXTBEGIN
1070
    73
1070
     1
1070
    44
1040
1.0
1070
    74
1070
     0
1000
MTEXTEND
  0
ENDSEC
  0
SECTION
  2
OBJECTS
  0
DICTIONARY
  5
C
330
0
100
AcDbDictionary
281
     1
  3
ACAD_COLOR
350
6B
  3
ACAD_GROUP
350
D
  3
ACAD_LAYOUT
350
1A
  3
ACAD_MATERIAL
350
6A
  3
ACAD_MLINESTYLE
350
17
  3
ACAD_PLOTSETTINGS
350
19
  3
ACAD_PLOTSTYLENAME
350
E
  3
ACDBHEADERROUNDTRIPXREC
350
40C
  3
AcDbVariableDictionary
350
5E
  0
DICTIONARY
  5
178
330
177
100
AcDbDictionary
280
     1
281
     1
  3
ACAD_XREC_ROUNDTRIP
360
179
  3
ADSK_XREC_LAYER_RECONCILED
360
17A
  0
DICTIONARY
  5
6B
102
{ACAD_REACTORS
330
C
102
}
330
C
100
AcDbDictionary
281
     1
  0
DICTIONARY
  5
D
102
{ACAD_REACTORS
330
C
102
}
330
C
100
AcDbDictionary
281
     1
  0
DICTIONARY
  5
1A
102
{ACAD_REACTORS
330
C
102
}
330
C
100
AcDbDictionary
281
     1
  3
Layout1
350
51
  3
Layout2
350
56
  3
Model
350
22
  0
DICTIONARY
  5
6A
102
{ACAD_REACTORS
330
C
102
}
330
C
100
AcDbDictionary
281
     1
  3
Global
350
140
  0
DICTIONARY
  5
17
102
{ACAD_REACTORS
330
C
102
}
330
C
100
AcDbDictionary
281
     1
  3
Standard
350
18
  0
DICTIONARY
  5
19
102
{ACAD_REACTORS
330
C
102
}
330
C
100
AcDbDictionary
281
     1
  0
ACDBDICTIONARYWDFLT
  5
E
102
{ACAD_REACTORS
330
C
102
}
330
C
100
AcDbDictionary
281
     1
  3
Normal
350
F
100
AcDbDictionaryWithDefault
340
F
  0
DICTIONARY
  5
40C
102
{ACAD_REACTORS
330
C
102
}
330
C
100
AcDbDictionary
281
     1
  3
COLORDICT
350
40E
  3
MATERIALDICT
350
40D
  0
DICTIONARY
  5
5E
102
{ACAD_REACTORS
330
C
102
}
330
C
100
AcDbDictionary
281
     1
  3
DIMASSOC
350
5F
  3
HIDETEXT
350
63
  3
PROJECTNAME
350
85
  0
XRECORD
  5
179
102
{ACAD_REACTORS
330
178
102
}
330
178
100
AcDbXrecord
280
     1
102
MATERIAL
340
140
  0
XRECORD
  5
17A
102
{ACAD_REACTORS
330
178
102
}
330
178
100
AcDbXrecord
280
     1
290
     1
  0
LAYOUT
  5
51
102
{ACAD_XDICTIONARY
360
411
102
}
102
{ACAD_REACTORS
330
1A
102
}
330
1A
100
AcDbPlotSettings
  1

  2
None
  4

  6

 40
0.0
 41
0.0
 42
0.0
 43
0.0
 44
0.0
 45
0.0
 46
0.0
 47
0.0
 48
0.0
 49
0.0
140
0.0
141
0.0
142
1.0
143
1.0
 70
   688
 72
     0
 73
     0
 74
     5
  7

 75
    16
147
1.0
148
0.0
149
0.0
100
AcDbLayout
  1
Layout1
 70
     1
 71
     1
 10
0.0
 20
0.0
 11
12.0
 21
9.0
 12
0.0
 22
0.0
 32
0.0
 14
0.0
 24
0.0
 34
0.0
 15
0.0
 25
0.0
 35
0.0
146
0.0
 13
0.0
 23
0.0
 33
0.0
 16
1.0
 26
0.0
 36
0.0
 17
0.0
 27
1.0
 37
0.0
 76
     0
330
50
  0
LAYOUT
  5
56
102
{ACAD_XDICTIONARY
360
413
102
}
102
{ACAD_REACTORS
330
1A
102
}
330
1A
100
AcDbPlotSettings
  1

  2
None
  4

  6

 40
0.0
 41
0.0
 42
0.0
 43
0.0
 44
0.0
 45
0.0
 46
0.0
 47
0.0
 48
0.0
 49
0.0
140
0.0
141
0.0
142
1.0
143
1.0
 70
   688
 72
     0
 73
     0
 74
     5
  7

 75
    16
147
1.0
148
0.0
149
0.0
100
AcDbLayout
  1
Layout2
 70
     1
 71
     2
 10
0.0
 20
0.0
 11
12.0
 21
9.0
 12
0.0
 22
0.0
 32
0.0
 14
0.0
 24
0.0
 34
0.0
 15
0.0
 25
0.0
 35
0.0
146
0.0
 13
0.0
 23
0.0
 33
0.0
 16
1.0
 26
0.0
 36
0.0
 17
0.0
 27
1.0
 37
0.0
 76
     0
330
55
  0
LAYOUT
  5
22
102
{ACAD_XDICTIONARY
360
40F
102
}
102
{ACAD_REACTORS
330
1A
102
}
330
1A
100
AcDbPlotSettings
  1

  2
none_device
  4
ANSI_A_(8.50_x_11.00_Inches)
  6

 40
6.349999904632567
 41
19.04999923706055
 42
6.350006103515625
 43
19.04998779296875
 44
215.8999938964844
 45
279.3999938964844
 46
0.0
 47
0.0
 48
0.0
 49
0.0
140
0.0
141
0.0
142
1.0
143
78.436453180766
 70
 11952
 72
     0
 73
     1
 74
     0
  7

 75
     0
147
0.0127491741332998
148
0.0
149
0.0
100
AcDbLayout
  1
Model
 70
     1
 71
     0
 10
0.0
 20
0.0
 11
12.0
 21
9.0
 12
0.0
 22
0.0
 32
0.0
 14
0.0
 24
0.0
 34
0.0
 15
0.0
 25
0.0
 35
0.0
146
0.0
 13
0.0
 23
0.0
 33
0.0
 16
1.0
 26
0.0
 36
0.0
 17
0.0
 27
1.0
 37
0.0
 76
     0
330
1F
  0
MATERIAL
  5
140
330
6A
100
AcDbMaterial
  1
Global
 72
     0
 73
     2
 43
0.0008202099737533
 43
0.0
 43
0.0
 43
0.0
 43
0.0
 43
0.0008202099737533
 43
0.0
 43
0.0
 43
0.0
 43
0.0
 43
1.0
 43
0.0
 43
0.0
 43
0.0
 43
0.0
 43
1.0
 77
     0
 78
     2
 47
0.0008202099737533
 47
0.0
 47
0.0
 47
0.0
 47
0.0
 47
0.0008202099737533
 47
0.0
 47
0.0
 47
0.0
 47
0.0
 47
1.0
 47
0.0
 47
0.0
 47
0.0
 47
0.0
 47
1.0
171
     0
172
     2
 49
0.0008202099737533
 49
0.0
 49
0.0
 49
0.0
 49
0.0
 49
0.0008202099737533
 49
0.0
 49
0.0
 49
0.0
 49
0.0
 49
1.0
 49
0.0
 49
0.0
 49
0.0
 49
0.0
 49
1.0
175
     0
176
     2
142
0.0008202099737533
142
0.0
142
0.0
142
0.0
142
0.0
142
0.0008202099737533
142
0.0
142
0.0
142
0.0
142
0.0
142
1.0
142
0.0
142
0.0
142
0.0
142
0.0
142
1.0
179
     0
270
     2
144
0.0008202099737533
144
0.0
144
0.0
144
0.0
144
0.0
144
0.0008202099737533
144
0.0
144
0.0
144
0.0
144
0.0
144
1.0
144
0.0
144
0.0
144
0.0
144
0.0
144
1.0
274
     2
147
0.0008202099737533
147
0.0
147
0.0
147
0.0
147
0.0
147
0.0008202099737533
147
0.0
147
0.0
147
0.0
147
0.0
147
1.0
147
0.0
147
0.0
147
0.0
147
0.0
147
1.0
  0
MLINESTYLE
  5
18
102
{ACAD_REACTORS
330
17
102
}
330
17
100
AcDbMlineStyle
  2
STANDARD
 70
     0
  3

 62
   256
 51
90.0
 52
90.0
 71
     2
 49
0.5
 62
   256
  6
BYLAYER
 49
-0.5
 62
   256
  6
BYLAYER
  0
ACDBPLACEHOLDER
  5
F
102
{ACAD_REACTORS
330
E
102
}
330
E
  0
XRECORD
  5
40E
102
{ACAD_REACTORS
330
40C
102
}
330
40C
100
AcDbXrecord
280
     1
340
6B
  0
XRECORD
  5
40D
102
{ACAD_REACTORS
330
40C
102
}
330
40C
100
AcDbXrecord
280
     1
340
6A
  0
DICTIONARYVAR
  5
5F
102
{ACAD_REACTORS
330
5E
102
}
330
5E
100
DictionaryVariables
280
     0
  1
2
  0
DICTIONARYVAR
  5
63
102
{ACAD_REACTORS
330
5E
102
}
330
5E
100
DictionaryVariables
280
     0
  1
1
  0
DICTIONARYVAR
  5
85
102
{ACAD_REACTORS
330
5E
102
}
330
5E
100
DictionaryVariables
280
     0
  1

  0
DICTIONARY
  5
411
330
51
100
AcDbDictionary
280
     1
281
     1
  3
ACAD_XREC_ROUNDTRIP
360
412
  0
DICTIONARY
  5
413
330
56
100
AcDbDictionary
280
     1
281
     1
  3
ACAD_XREC_ROUNDTRIP
360
414
  0
DICTIONARY
  5
40F
330
22
100
AcDbDictionary
280
     1
281
     1
  3
ACAD_XREC_ROUNDTRIP
360
410
  0
XRECORD
  5
412
102
{ACAD_REACTORS
330
411
102
}
330
411
100
AcDbXrecord
280
     1
102
SHADEPLOT
 70
     0
102
SHADEPLOTRESLEVEL
 70
     2
102
SHADEPLOTCUSTOMDPI
 70
   300
  0
XRECORD
  5
414
102
{ACAD_REACTORS
330
413
102
}
330
413
100
AcDbXrecord
280
     1
102
SHADEPLOT
 70
     0
102
SHADEPLOTRESLEVEL
 70
     2
102
SHADEPLOTCUSTOMDPI
 70
   300
  0
XRECORD
  5
410
102
{ACAD_REACTORS
330
40F
102
}
330
40F
100
AcDbXrecord
280
     1
102
SHADEPLOT
 70
     0
102
SHADEPLOTRESLEVEL
 70
     2
102
SHADEPLOTCUSTOMDPI
 70
   300
  0
ENDSEC
  0
EOF
