  0
SECTION
  2
HEADER
  9
$ACADVER
  1
AC1015
  9
$ACADMAINTVER
 70
    20
  9
$DWGCODEPAGE
  3
ANSI_936
  9
$INSBASE
 10
0.0
 20
0.0
 30
0.0
  9
$EXTMIN
 10
0.0
 20
0.0
 30
0.0
  9
$EXTMAX
 10
1000.0
 20
1000.0
 30
0.0
  9
$LIMMIN
 10
0.0
 20
0.0
  9
$LIMMAX
 10
420.0
 20
297.0
  9
$ORTHOMODE
 70
     0
  9
$REGENMODE
 70
     1
  9
$FILLMODE
 70
     1
  9
$QTEXTMODE
 70
     0
  9
$MIRRTEXT
 70
     0
  9
$LTSCALE
 40
1.0
  9
$ATTMODE
 70
     1
  9
$TEXTSIZE
 40
2.5
  9
$TRACEWID
 40
1.0
  9
$TEXTSTYLE
  7
Standard
  9
$CLAYER
  8
2
  9
$CELTYPE
  6
ByLayer
  9
$CECOLOR
 62
   256
  9
$CELTSCALE
 40
1.0
  9
$DISPSILH
 70
     0
  9
$DIMSCALE
 40
1.0
  9
$DIMASZ
 40
2.5
  9
$DIMEXO
 40
0.625
  9
$DIMDLI
 40
3.75
  9
$DIMRND
 40
0.0
  9
$DIMDLE
 40
0.0
  9
$DIMEXE
 40
1.25
  9
$DIMTP
 40
0.0
  9
$DIMTM
 40
0.0
  9
$DIMTXT
 40
2.5
  9
$DIMCEN
 40
2.5
  9
$DIMTSZ
 40
0.0
  9
$DIMTOL
 70
     0
  9
$DIMLIM
 70
     0
  9
$DIMTIH
 70
     0
  9
$DIMTOH
 70
     0
  9
$DIMSE1
 70
     0
  9
$DIMSE2
 70
     0
  9
$DIMTAD
 70
     1
  9
$DIMZIN
 70
     8
  9
$DIMBLK
  1

  9
$DIMASO
 70
     1
  9
$DIMSHO
 70
     1
  9
$DIMPOST
  1

  9
$DIMAPOST
  1

  9
$DIMALT
 70
     0
  9
$DIMALTD
 70
     3
  9
$DIMALTF
 40
0.03937007874016
  9
$DIMLFAC
 40
1.0
  9
$DIMTOFL
 70
     1
  9
$DIMTVP
 40
0.0
  9
$DIMTIX
 70
     0
  9
$DIMSOXD
 70
     0
  9
$DIMSAH
 70
     0
  9
$DIMBLK1
  1

  9
$DIMBLK2
  1

  9
$DIMSTYLE
  2
ISO-25
  9
$DIMCLRD
 70
     0
  9
$DIMCLRE
 70
     0
  9
$DIMCLRT
 70
     0
  9
$DIMTFAC
 40
1.0
  9
$DIMGAP
 40
0.625
  9
$DIMJUST
 70
     0
  9
$DIMSD1
 70
     0
  9
$DIMSD2
 70
     0
  9
$DIMTOLJ
 70
     0
  9
$DIMTZIN
 70
     8
  9
$DIMALTZ
 70
     0
  9
$DIMALTTZ
 70
     0
  9
$DIMUPT
 70
     0
  9
$DIMDEC
 70
     2
  9
$DIMTDEC
 70
     2
  9
$DIMALTU
 70
     2
  9
$DIMALTTD
 70
     3
  9
$DIMTXSTY
  7
Standard
  9
$DIMAUNIT
 70
     0
  9
$DIMADEC
 70
     0
  9
$DIMALTRND
 40
0.0
  9
$DIMAZIN
 70
     0
  9
$DIMDSEP
 70
    44
  9
$DIMATFIT
 70
     3
  9
$DIMFRAC
 70
     0
  9
$DIMLDRBLK
  1

  9
$DIMLUNIT
 70
     2
  9
$DIMLWD
 70
    -2
  9
$DIMLWE
 70
    -2
  9
$DIMTMOVE
 70
     0
  9
$LUNITS
 70
     2
  9
$LUPREC
 70
     4
  9
$SKETCHINC
 40
1.0
  9
$FILLETRAD
 40
0.0
  9
$AUNITS
 70
     0
  9
$AUPREC
 70
     0
  9
$MENU
  1
.
  9
$ELEVATION
 40
0.0
  9
$PELEVATION
 40
0.0
  9
$THICKNESS
 40
0.0
  9
$LIMCHECK
 70
     0
  9
$CHAMFERA
 40
0.0
  9
$CHAMFERB
 40
0.0
  9
$CHAMFERC
 40
0.0
  9
$CHAMFERD
 40
0.0
  9
$SKPOLY
 70
     0
  9
$TDCREATE
 40
2455505.725807523
  9
$TDUCREATE
 40
2455505.392474190
  9
$TDUPDATE
 40
2457096.655487847
  9
$TDUUPDATE
 40
2457096.322154514
  9
$TDINDWG
 40
0.1108345370
  9
$TDUSRTIMER
 40
0.1108338426
  9
$USRTIMER
 70
     1
  9
$ANGBASE
 50
0.0
  9
$ANGDIR
 70
     0
  9
$PDMODE
 70
     0
  9
$PDSIZE
 40
0.0
  9
$PLINEWID
 40
0.0
  9
$SPLFRAME
 70
     0
  9
$SPLINETYPE
 70
     6
  9
$SPLINESEGS
 70
     8
  9
$HANDSEED
  5
36E
  9
$SURFTAB1
 70
     6
  9
$SURFTAB2
 70
     6
  9
$SURFTYPE
 70
     6
  9
$SURFU
 70
     6
  9
$SURFV
 70
     6
  9
$UCSBASE
  2

  9
$UCSNAME
  2

  9
$UCSORG
 10
0.0
 20
0.0
 30
0.0
  9
$UCSXDIR
 10
1.0
 20
0.0
 30
0.0
  9
$UCSYDIR
 10
0.0
 20
1.0
 30
0.0
  9
$UCSORTHOREF
  2

  9
$UCSORTHOVIEW
 70
     0
  9
$UCSORGTOP
 10
0.0
 20
0.0
 30
0.0
  9
$UCSORGBOTTOM
 10
0.0
 20
0.0
 30
0.0
  9
$UCSORGLEFT
 10
0.0
 20
0.0
 30
0.0
  9
$UCSORGRIGHT
 10
0.0
 20
0.0
 30
0.0
  9
$UCSORGFRONT
 10
0.0
 20
0.0
 30
0.0
  9
$UCSORGBACK
 10
0.0
 20
0.0
 30
0.0
  9
$PUCSBASE
  2

  9
$PUCSNAME
  2

  9
$PUCSORG
 10
0.0
 20
0.0
 30
0.0
  9
$PUCSXDIR
 10
1.0
 20
0.0
 30
0.0
  9
$PUCSYDIR
 10
0.0
 20
1.0
 30
0.0
  9
$PUCSORTHOREF
  2

  9
$PUCSORTHOVIEW
 70
     0
  9
$PUCSORGTOP
 10
0.0
 20
0.0
 30
0.0
  9
$PUCSORGBOTTOM
 10
0.0
 20
0.0
 30
0.0
  9
$PUCSORGLEFT
 10
0.0
 20
0.0
 30
0.0
  9
$PUCSORGRIGHT
 10
0.0
 20
0.0
 30
0.0
  9
$PUCSORGFRONT
 10
0.0
 20
0.0
 30
0.0
  9
$PUCSORGBACK
 10
0.0
 20
0.0
 30
0.0
  9
$USERI1
 70
     0
  9
$USERI2
 70
     0
  9
$USERI3
 70
     0
  9
$USERI4
 70
     0
  9
$USERI5
 70
     0
  9
$USERR1
 40
0.0
  9
$USERR2
 40
0.0
  9
$USERR3
 40
0.0
  9
$USERR4
 40
0.0
  9
$USERR5
 40
0.0
  9
$WORLDVIEW
 70
     1
  9
$SHADEDGE
 70
     3
  9
$SHADEDIF
 70
    70
  9
$TILEMODE
 70
     1
  9
$MAXACTVP
 70
    64
  9
$PINSBASE
 10
0.0
 20
0.0
 30
0.0
  9
$PLIMCHECK
 70
     0
  9
$PEXTMIN
 10
0.0
 20
0.0
 30
0.0
  9
$PEXTMAX
 10
0.0
 20
0.0
 30
0.0
  9
$PLIMMIN
 10
0.0
 20
0.0
  9
$PLIMMAX
 10
12.0
 20
9.0
  9
$UNITMODE
 70
     0
  9
$VISRETAIN
 70
     1
  9
$PLINEGEN
 70
     0
  9
$PSLTSCALE
 70
     1
  9
$TREEDEPTH
 70
  3020
  9
$CMLSTYLE
  2
Standard
  9
$CMLJUST
 70
     0
  9
$CMLSCALE
 40
20.0
  9
$PROXYGRAPHICS
 70
     1
  9
$MEASUREMENT
 70
     1
  9
$CELWEIGHT
370
    -1
  9
$ENDCAPS
280
     0
  9
$JOINSTYLE
280
     0
  9
$LWDISPLAY
290
     0
  9
$INSUNITS
 70
     4
  9
$HYPERLINKBASE
  1

  9
$STYLESHEET
  1

  9
$XEDIT
290
     1
  9
$CEPSNTYPE
380
     0
  9
$PSTYLEMODE
290
     1
  9
$FINGERPRINTGUID
  2
{FDEAD578-A652-11D2-9A35-0060089B3A3F}
  9
$VERSIONGUID
  2
{C2EA2E89-0C98-418B-9AEF-0346E553214C}
  9
$EXTNAMES
290
     1
  9
$PSVPSCALE
 40
0.0
  9
$OLESTARTUP
290
     0
  0
ENDSEC
  0
SECTION
  2
CLASSES
  0
CLASS
  1
ACDBDICTIONARYWDFLT
  2
AcDbDictionaryWithDefault
  3
ObjectDBX Classes
 90
        0
280
     0
281
     0
  0
CLASS
  1
ACDBPLACEHOLDER
  2
AcDbPlaceHolder
  3
ObjectDBX Classes
 90
        0
280
     0
281
     0
  0
CLASS
  1
LAYOUT
  2
AcDbLayout
  3
ObjectDBX Classes
 90
        0
280
     0
281
     0
  0
CLASS
  1
DICTIONARYVAR
  2
AcDbDictionaryVar
  3
ObjectDBX Classes
 90
        0
280
     0
281
     0
  0
CLASS
  1
MATERIAL
  2
AcDbMaterial
  3
ObjectDBX Classes
 90
        0
280
     0
281
     0
  0
CLASS
  1
SORTENTSTABLE
  2
AcDbSortentsTable
  3
ObjectDBX Classes
 90
    32768
280
     0
281
     0
  0
ENDSEC
  0
SECTION
  2
TABLES
  0
TABLE
  2
VPORT
  5
8
330
0
100
AcDbSymbolTable
 70
     2
  0
VPORT
  5
364
330
8
100
AcDbSymbolTableRecord
100
AcDbViewportTableRecord
  2
*Active
 70
     0
 10
0.0
 20
0.0
 11
1.0
 21
1.0
 12
728.3066563585744
 22
428.4531205984864
 13
0.0
 23
0.0
 14
10.0
 24
10.0
 15
10.0
 25
10.0
 16
0.0
 26
0.0
 36
1.0
 17
0.0
 27
0.0
 37
0.0
 40
1286.211168220391
 41
2.425287356321839
 42
50.0
 43
0.0
 44
0.0
 50
0.0
 51
0.0
 71
     0
 72
  1000
 73
     1
 74
     3
 75
     0
 76
     0
 77
     0
 78
     0
281
     0
 65
     1
110
0.0
120
0.0
130
0.0
111
1.0
121
0.0
131
0.0
112
0.0
122
1.0
132
0.0
 79
     0
146
0.0
  0
ENDTAB
  0
TABLE
  2
LTYPE
  5
5
330
0
100
AcDbSymbolTable
 70
     2
  0
LTYPE
  5
14
330
5
100
AcDbSymbolTableRecord
100
AcDbLinetypeTableRecord
  2
ByBlock
 70
     0
  3

 72
    65
 73
     0
 40
0.0
  0
LTYPE
  5
15
330
5
100
AcDbSymbolTableRecord
100
AcDbLinetypeTableRecord
  2
ByLayer
 70
     0
  3

 72
    65
 73
     0
 40
0.0
  0
LTYPE
  5
16
330
5
100
AcDbSymbolTableRecord
100
AcDbLinetypeTableRecord
  2
Continuous
 70
     0
  3
Solid line
 72
    65
 73
     0
 40
0.0
  0
LTYPE
  5
326
330
5
100
AcDbSymbolTableRecord
100
AcDbLinetypeTableRecord
  2
ACAD_ISO03W100
 70
     0
  3
ISO dash space __    __    __    __    __    __
 72
    65
 73
     2
 40
30.0
 49
12.0
 74
     0
 49
-18.0
 74
     0
  0
ENDTAB
  0
TABLE
  2
LAYER
  5
2
330
0
100
AcDbSymbolTable
 70
     4
  0
LAYER
  5
10
330
2
100
AcDbSymbolTableRecord
100
AcDbLayerTableRecord
  2
0
 70
     0
 62
     2
  6
Continuous
370
    -3
390
F
  0
LAYER
  5
94
330
2
100
AcDbSymbolTableRecord
100
AcDbLayerTableRecord
  2
1
 70
     0
 62
     1
  6
Continuous
370
    -3
390
F
  0
LAYER
  5
95
330
2
100
AcDbSymbolTableRecord
100
AcDbLayerTableRecord
  2
2
 70
     0
 62
     7
  6
Continuous
370
    -3
390
F
  0
LAYER
  5
177
102
{ACAD_XDICTIONARY
360
178
102
}
330
2
100
AcDbSymbolTableRecord
100
AcDbLayerTableRecord
  2
3
 70
     0
 62
     7
  6
Continuous
370
    -3
390
F
  0
ENDTAB
  0
TABLE
  2
STYLE
  5
3
330
0
100
AcDbSymbolTable
 70
     2
  0
STYLE
  5
11
330
3
100
AcDbSymbolTableRecord
100
AcDbTextStyleTableRecord
  2
Standard
 70
     0
 40
0.0
 41
1.0
 50
0.0
 71
     0
 42
2.5
  3
txt
  4

  0
STYLE
  5
325
330
3
100
AcDbSymbolTableRecord
100
AcDbTextStyleTableRecord
  2

 70
     1
 40
0.0
 41
1.0
 50
0.0
 71
     0
 42
2.5
  3
ltypeshp.shx
  4

  0
ENDTAB
  0
TABLE
  2
VIEW
  5
6
330
0
100
AcDbSymbolTable
 70
     0
  0
ENDTAB
  0
TABLE
  2
UCS
  5
7
330
0
100
AcDbSymbolTable
 70
     0
  0
ENDTAB
  0
TABLE
  2
APPID
  5
9
330
0
100
AcDbSymbolTable
 70
     1
  0
APPID
  5
12
330
9
100
AcDbSymbolTableRecord
100
AcDbRegAppTableRecord
  2
ACAD
 70
     0
  0
ENDTAB
  0
TABLE
  2
DIMSTYLE
  5
A
330
0
100
AcDbSymbolTable
 70
     1
100
AcDbDimStyleTable
 71
     1
340
27
  0
DIMSTYLE
105
27
330
A
100
AcDbSymbolTableRecord
100
AcDbDimStyleTableRecord
  2
ISO-25
 70
     0
 41
2.5
 42
0.625
 43
3.75
 44
1.25
 73
     0
 74
     0
 77
     1
 78
     8
140
2.5
141
2.5
143
0.03937007874016
147
0.625
171
     3
172
     1
271
     2
272
     2
274
     3
278
    44
283
     0
284
     8
340
11
  0
ENDTAB
  0
TABLE
  2
BLOCK_RECORD
  5
1
330
0
100
AcDbSymbolTable
 70
     1
  0
BLOCK_RECORD
  5
1F
330
1
100
AcDbSymbolTableRecord
100
AcDbBlockTableRecord
  2
*Model_Space
340
22
  0
BLOCK_RECORD
  5
50
330
1
100
AcDbSymbolTableRecord
100
AcDbBlockTableRecord
  2
*Paper_Space
340
51
  0
BLOCK_RECORD
  5
55
330
1
100
AcDbSymbolTableRecord
100
AcDbBlockTableRecord
  2
*Paper_Space0
340
56
  0
ENDTAB
  0
ENDSEC
  0
SECTION
  2
BLOCKS
  0
BLOCK
  5
20
330
1F
100
AcDbEntity
  8
0
100
AcDbBlockBegin
  2
*Model_Space
 70
     0
 10
0.0
 20
0.0
 30
0.0
  3
*Model_Space
  1

  0
ENDBLK
  5
21
330
1F
100
AcDbEntity
  8
0
100
AcDbBlockEnd
  0
BLOCK
  5
52
330
50
100
AcDbEntity
 67
     1
  8
0
100
AcDbBlockBegin
  2
*Paper_Space
 70
     0
 10
0.0
 20
0.0
 30
0.0
  3
*Paper_Space
  1

  0
ENDBLK
  5
53
330
50
100
AcDbEntity
 67
     1
  8
0
100
AcDbBlockEnd
  0
BLOCK
  5
57
330
55
100
AcDbEntity
  8
0
100
AcDbBlockBegin
  2
*Paper_Space0
 70
     0
 10
0.0
 20
0.0
 30
0.0
  3
*Paper_Space0
  1

  0
ENDBLK
  5
58
330
55
100
AcDbEntity
  8
0
100
AcDbBlockEnd
  0
ENDSEC
  0
SECTION
  2
ENTITIES
  0
LWPOLYLINE
  5
96
330
1F
100
AcDbEntity
  8
0
 62
     2
100
AcDbPolyline
 90
        4
 70
     1
 43
0.0
 10
0.0
 20
0.0
 10
1000.0
 20
0.0
 10
1000.0
 20
1000.0
 10
0.0
 20
1000.0
  0
LINE
  5
B1
330
1F
100
AcDbEntity
  8
1
 62
     1
100
AcDbLine
 10
20.0
 20
20.0
 30
0.0
 11
980.0
 21
20.0
 31
0.0
  0
LINE
  5
B2
330
1F
100
AcDbEntity
  8
1
 62
     1
100
AcDbLine
 10
980.0
 20
20.0
 30
0.0
 11
980.0
 21
980.0
 31
0.0
  0
LINE
  5
B3
330
1F
100
AcDbEntity
  8
1
 62
     1
100
AcDbLine
 10
980.0
 20
980.0
 30
0.0
 11
20.0
 21
980.0
 31
0.0
  0
LINE
  5
B4
330
1F
100
AcDbEntity
  8
1
 62
     1
100
AcDbLine
 10
20.0
 20
980.0
 30
0.0
 11
20.0
 21
20.0
 31
0.0
  0
LINE
  5
208
330
1F
100
AcDbEntity
  8
3
100
AcDbLine
 10
51.96187333483135
 20
499.9999999999998
 30
0.0
 11
948.0381266651688
 21
499.9999999999998
 31
0.0
  0
LINE
  5
209
330
1F
100
AcDbEntity
  8
3
100
AcDbLine
 10
200.0000000000004
 20
948.0381266651683
 30
0.0
 11
200.0000000000004
 21
51.9618733348313
 31
0.0
  0
HATCH
  5
20A
330
1F
100
AcDbEntity
  8
3
100
AcDbHatch
 10
0.0
 20
0.0
 30
0.0
210
0.0
220
0.0
230
1.0
  2
SOLID
 70
     1
 71
     0
 91
        2
 92
        7
 72
     0
 73
     1
 93
        3
 10
948.0381266651688
 20
499.9999999999998
 10
923.8608154843261
 20
499.9999999999998
 10
903.9519201682727
 20
483.938209963431
 97
        0
 92
        7
 72
     0
 73
     1
 93
        3
 10
948.0381266651606
 20
499.9999999999998
 10
903.9519201682812
 20
516.0617900365688
 10
923.8608154843261
 20
499.9999999999998
 97
        0
 75
     0
 76
     1
 47
0.0758510857146228
 98
        2
 10
927.4100028155569
 20
495.1548475319151
 10
926.8365785535497
 20
502.2070045158169
  0
LINE
  5
20B
330
1F
100
AcDbEntity
  8
3
100
AcDbLine
 10
948.0381266651688
 20
499.9999999999998
 30
0.0
 11
903.9519201682727
 21
516.0617900365689
 31
0.0
  0
LINE
  5
20C
330
1F
100
AcDbEntity
  8
3
100
AcDbLine
 10
903.9519201682727
 20
516.0617900365689
 30
0.0
 11
923.8608154843261
 21
499.9999999999998
 31
0.0
  0
LINE
  5
20D
330
1F
100
AcDbEntity
  8
3
100
AcDbLine
 10
948.0381266651688
 20
499.9999999999998
 30
0.0
 11
903.9519201682727
 21
483.938209963431
 31
0.0
  0
LINE
  5
20E
330
1F
100
AcDbEntity
  8
3
100
AcDbLine
 10
903.9519201682727
 20
483.938209963431
 30
0.0
 11
948.0381266651688
 21
499.9999999999998
 31
0.0
  0
LINE
  5
20F
330
1F
100
AcDbEntity
  8
3
100
AcDbLine
 10
903.9519201682727
 20
483.938209963431
 30
0.0
 11
923.8608154843261
 21
499.9999999999998
 31
0.0
  0
MTEXT
  5
215
330
1F
100
AcDbEntity
  8
3
100
AcDbMText
 10
145.3245542147197
 20
501.7099944478053
 30
0.0
 40
56.04447024
 41
333.363934740435
 71
     1
 72
     5
  1
{\fSimSun|b0|i0|c134|p2;o}
 11
0.9999421637257766
 21
-0.0107549618043136
 31
0.0
 73
     1
 44
1.0
1001
ACAD
1000
MTEXTBEGIN
1070
    73
1070
     1
1070
    44
1040
1.0
1070
    74
1070
     0
1000
MTEXTEND
  0
MTEXT
  5
21B
330
1F
100
AcDbEntity
  8
3
100
AcDbMText
 10
926.3823144792516
 20
497.221073618645
 30
0.0
 40
56.04447024
 41
253.5562335700771
 71
     1
 72
     5
  1
{\fRomantic|b0|i0|c2|p2;x}
 11
0.9999421637257766
 21
-0.0107549618043136
 31
0.0
 73
     1
 44
1.0
1001
ACAD
1000
MTEXTBEGIN
1070
    73
1070
     1
1070
    44
1040
1.0
1070
    74
1070
     0
1000
MTEXTEND
  0
LINE
  5
21C
330
1F
100
AcDbEntity
  8
3
100
AcDbLine
 10
216.0617900365695
 20
903.9519201682812
 30
0.0
 11
200.0000000000004
 21
923.8608154843182
 31
0.0
  0
LINE
  5
21D
330
1F
100
AcDbEntity
  8
3
100
AcDbLine
 10
216.0617900365695
 20
903.9519201682812
 30
0.0
 11
200.0000000000004
 21
948.0381266651683
 31
0.0
  0
LINE
  5
21E
330
1F
100
AcDbEntity
  8
3
100
AcDbLine
 10
200.0000000000004
 20
948.0381266651683
 30
0.0
 11
216.0617900365695
 21
903.9519201682812
 31
0.0
  0
LINE
  5
21F
330
1F
100
AcDbEntity
  8
3
100
AcDbLine
 10
183.9382099634315
 20
903.9519201682812
 30
0.0
 11
200.0000000000004
 21
923.8608154843182
 31
0.0
  0
LINE
  5
220
330
1F
100
AcDbEntity
  8
3
100
AcDbLine
 10
200.0000000000004
 20
948.0381266651683
 30
0.0
 11
183.9382099634315
 21
903.9519201682812
 31
0.0
  0
HATCH
  5
221
330
1F
100
AcDbEntity
  8
3
100
AcDbHatch
 10
0.0
 20
0.0
 30
0.0
210
0.0
220
0.0
230
1.0
  2
SOLID
 70
     1
 71
     0
 91
        2
 92
        7
 72
     0
 73
     1
 93
        3
 10
200.0000000000004
 20
948.0381266651683
 10
200.0000000000004
 20
923.8608154843182
 10
216.0617900365695
 20
903.9519201682807
 97
        0
 92
        7
 72
     0
 73
     1
 93
        3
 10
200.0000000000004
 20
948.0381266651683
 10
183.9382099634393
 20
903.9519201682807
 10
200.0000000000004
 20
923.8608154843182
 97
        0
 75
     0
 76
     1
 47
0.0758510857146228
 98
        2
 10
204.8451524680851
 20
927.4100028155569
 10
197.7929954841832
 20
926.836578553542
  0
MTEXT
  5
224
330
1F
100
AcDbEntity
  8
3
100
AcDbMText
 10
240.0742930539318
 20
961.8629744189313
 30
0.0
 40
56.04447024
 41
253.5562335700771
 71
     1
 72
     5
  1
{\fRomantic|b0|i0|c2|p2;y}
 11
0.9999421637257766
 21
-0.0107549618043136
 31
0.0
 73
     1
 44
1.0
1001
ACAD
1000
MTEXTBEGIN
1070
    73
1070
     1
1070
    44
1040
1.0
1070
    74
1070
     0
1000
MTEXTEND
  0
LINE
  5
29E
330
1F
100
AcDbEntity
  8
3
100
AcDbLine
 10
200.0000000000004
 20
514.0787218603183
 30
0.0
 11
200.0000000000004
 21
499.9999999999998
 31
0.0
  0
LINE
  5
2A0
330
1F
100
AcDbEntity
  8
3
  6
ACAD_ISO03W100
100
AcDbLine
 10
350.0000000000004
 20
890.8661041480954
 30
0.0
 11
350.0000000000003
 21
191.846425640746
 31
0.0
  0
LWPOLYLINE
  5
2F7
330
1F
100
AcDbEntity
  8
2
100
AcDbPolyline
 90
       79
 70
     0
 43
0.0
 10
216.9488825342391
 20
199.9999999999999
 10
222.5000000000073
 20
240.9750458208728
 10
230.0000000000036
 20
280.2539718923071
 10
237.5000000000073
 20
310.7210739285656
 10
245.0000000000073
 20
335.6145088565972
 10
252.5000000000036
 20
356.6616081950924
 10
260.0000000000073
 20
374.8934349280316
 10
267.5000000000036
 20
390.9750458208728
 10
275.0000000000073
 20
405.3605369642755
 10
282.5000000000073
 20
418.3737966174958
 10
290.0000000000036
 20
430.253971892307
 10
297.5000000000073
 20
441.1826737418013
 10
305.0000000000036
 20
451.3010712308022
 10
312.5000000000073
 20
460.7210739285656
 10
320.0000000000073
 20
469.5328979637415
 10
327.5000000000036
 20
477.8103342952672
 10
335.0000000000073
 20
485.6145088565972
 10
342.5000000000036
 20
492.9966247078263
 10
350.0000000000073
 20
500.0
 10
357.5000000000073
 20
506.6616081950924
 10
365.0000000000036
 20
513.0132596532201
 10
372.5000000000073
 20
519.0825203509157
 10
380.0000000000036
 20
524.8934349280316
 10
387.5000000000073
 20
530.4671020362584
 10
395.0000000000073
 20
535.8221367775113
 10
402.5000000000036
 20
540.9750458208726
 10
410.0000000000071
 20
545.9405342665268
 10
417.5000000000036
 20
550.7317586374846
 10
425.0000000000071
 20
555.3605369642755
 10
432.5000000000073
 20
559.8375244094349
 10
440.0000000000036
 20
564.172360999466
 10
447.5000000000071
 20
568.3737966174957
 10
455.0000000000036
 20
572.449797330977
 10
462.5000000000071
 20
576.4076363027705
 10
470.0000000000073
 20
580.2539718923071
 10
477.5000000000036
 20
583.9949150536122
 10
485.0000000000071
 20
587.6360877435509
 10
492.5000000000036
 20
591.1826737418014
 10
500.0000000000071
 20
594.6394630357245
 10
507.5000000000073
 20
598.0108907238608
 10
515.0000000000036
 20
601.3010712308022
 10
522.5000000000071
 20
604.5138284955318
 10
530.0000000000036
 20
607.6527226889448
 10
537.5000000000071
 20
610.7210739285656
 10
545.0000000000073
 20
613.7219833866402
 10
552.5000000000036
 20
616.6583521278371
 10
560.0000000000071
 20
619.5328979637415
 10
567.5000000000036
 20
622.3481705692975
 10
575.0000000000072
 20
625.1065650719684
 10
582.5000000000073
 20
627.8103342952672
 10
590.0000000000036
 20
630.4615998132358
 10
597.5000000000072
 20
633.0623619520483
 10
605.0000000000036
 20
635.6145088565972
 10
612.5000000000072
 20
638.1198247251886
 10
620.0000000000073
 20
640.5799973022367
 10
627.5000000000036
 20
642.9966247078262
 10
635.0000000000072
 20
645.3712216731946
 10
642.5000000000036
 20
647.7052252432912
 10
650.0000000000072
 20
650.0
 10
657.5000000000073
 20
652.2568428537198
 10
665.0000000000036
 20
654.4769874451449
 10
672.5000000000072
 20
656.6616081950924
 10
680.0000000000036
 20
658.8118240351905
 10
687.5000000000072
 20
660.9287018494942
 10
695.0000000000073
 20
663.0132596532201
 10
702.5000000000036
 20
665.0664695325831
 10
710.0000000000072
 20
667.0892603667016
 10
717.5000000000036
 20
669.0825203509157
 10
725.0000000000072
 20
671.0470993384952
 10
732.5000000000073
 20
672.9838110162672
 10
740.0000000000036
 20
674.8934349280316
 10
747.5000000000072
 20
676.776718358582
 10
755.0000000000036
 20
678.6343780893368
 10
762.5000000000072
 20
680.4671020362584
 10
770.0000000000073
 20
682.2755507792607
 10
777.5000000000036
 20
684.0603589917154
 10
785.0000000000073
 20
685.8221367775112
 10
792.5000000000036
 20
687.5614709232612
 10
800.0000000000072
 20
689.2789260714343
  0
MTEXT
  5
323
330
1F
100
AcDbEntity
  8
3
100
AcDbMText
 10
379.7788252245887
 20
501.7099944478053
 30
0.0
 40
56.04447024
 41
253.5562335700771
 71
     1
 72
     5
  1
{\fSimSun|b0|i0|c134|p2;(1,0)}
 11
0.9999421637257766
 21
-0.0107549618043136
 31
0.0
 73
     1
 44
1.0
1001
ACAD
1000
MTEXTBEGIN
1070
    73
1070
     1
1070
    44
1040
1.0
1070
    74
1070
     0
1000
MTEXTEND
  0
MTEXT
  5
328
330
1F
100
AcDbEntity
  8
3
100
AcDbMText
 10
379.7788252245887
 20
888.509984314841
 30
0.0
 40
30.0
 41
253.5562335700771
 71
     1
 72
     5
  1
{\fSimSun|b0|i0|c134|p2;x=1}
 11
0.9999421637257766
 21
-0.0107549618043136
 31
0.0
 73
     1
 44
1.0
1001
ACAD
1000
MTEXTBEGIN
1070
    73
1070
     1
1070
    44
1040
1.0
1070
    74
1070
     0
1000
MTEXTEND
  0
MTEXT
  5
329
330
1F
100
AcDbEntity
  8
3
100
AcDbMText
 10
574.0846806746437
 20
735.1071191540285
 30
0.0
 40
30.0
 41
423.110505055135
 71
     1
 72
     5
  1
{\fSimSun|b0|i0|c134|p2;y=log x(a>1)}
 11
0.9999421637257766
 21
-0.0107549618043136
 31
0.0
 73
     1
 44
1.0
1001
ACAD
1000
MTEXTBEGIN
1070
    73
1070
     1
1070
    44
1040
1.0
1070
    74
1070
     0
1000
MTEXTEND
  0
MTEXT
  5
32A
330
1F
100
AcDbEntity
  8
3
100
AcDbMText
 10
660.2352461529382
 20
715.3647566456612
 30
0.0
 40
25.0
 41
388.8288550425878
 71
     1
 72
     5
  1
{\fSimSun|b0|i0|c134|p2;a}
 11
0.9999421637257766
 21
-0.0107549618043136
 31
0.0
 73
     1
 44
1.0
1001
ACAD
1000
MTEXTBEGIN
1070
    73
1070
     1
1070
    44
1040
1.0
1070
    74
1070
     0
1000
MTEXTEND
  0
ENDSEC
  0
SECTION
  2
OBJECTS
  0
DICTIONARY
  5
C
330
0
100
AcDbDictionary
281
     1
  3
ACAD_COLOR
350
6B
  3
ACAD_GROUP
350
D
  3
ACAD_LAYOUT
350
1A
  3
ACAD_MATERIAL
350
6A
  3
ACAD_MLINESTYLE
350
17
  3
ACAD_PLOTSETTINGS
350
19
  3
ACAD_PLOTSTYLENAME
350
E
  3
ACDBHEADERROUNDTRIPXREC
350
365
  3
AcDbVariableDictionary
350
5E
  0
DICTIONARY
  5
178
330
177
100
AcDbDictionary
280
     1
281
     1
  3
ACAD_XREC_ROUNDTRIP
360
179
  3
ADSK_XREC_LAYER_RECONCILED
360
17A
  0
DICTIONARY
  5
6B
102
{ACAD_REACTORS
330
C
102
}
330
C
100
AcDbDictionary
281
     1
  0
DICTIONARY
  5
D
102
{ACAD_REACTORS
330
C
102
}
330
C
100
AcDbDictionary
281
     1
  0
DICTIONARY
  5
1A
102
{ACAD_REACTORS
330
C
102
}
330
C
100
AcDbDictionary
281
     1
  3
Layout1
350
51
  3
Layout2
350
56
  3
Model
350
22
  0
DICTIONARY
  5
6A
102
{ACAD_REACTORS
330
C
102
}
330
C
100
AcDbDictionary
281
     1
  3
Global
350
140
  0
DICTIONARY
  5
17
102
{ACAD_REACTORS
330
C
102
}
330
C
100
AcDbDictionary
281
     1
  3
Standard
350
18
  0
DICTIONARY
  5
19
102
{ACAD_REACTORS
330
C
102
}
330
C
100
AcDbDictionary
281
     1
  0
ACDBDICTIONARYWDFLT
  5
E
102
{ACAD_REACTORS
330
C
102
}
330
C
100
AcDbDictionary
281
     1
  3
Normal
350
F
100
AcDbDictionaryWithDefault
340
F
  0
DICTIONARY
  5
365
102
{ACAD_REACTORS
330
C
102
}
330
C
100
AcDbDictionary
281
     1
  3
COLORDICT
350
367
  3
MATERIALDICT
350
366
  0
DICTIONARY
  5
5E
102
{ACAD_REACTORS
330
C
102
}
330
C
100
AcDbDictionary
281
     1
  3
DIMASSOC
350
5F
  3
HIDETEXT
350
63
  3
PROJECTNAME
350
85
  0
XRECORD
  5
179
102
{ACAD_REACTORS
330
178
102
}
330
178
100
AcDbXrecord
280
     1
102
MATERIAL
340
140
  0
XRECORD
  5
17A
102
{ACAD_REACTORS
330
178
102
}
330
178
100
AcDbXrecord
280
     1
290
     1
  0
LAYOUT
  5
51
102
{ACAD_XDICTIONARY
360
36A
102
}
102
{ACAD_REACTORS
330
1A
102
}
330
1A
100
AcDbPlotSettings
  1

  2
None
  4

  6

 40
0.0
 41
0.0
 42
0.0
 43
0.0
 44
0.0
 45
0.0
 46
0.0
 47
0.0
 48
0.0
 49
0.0
140
0.0
141
0.0
142
1.0
143
1.0
 70
   688
 72
     0
 73
     0
 74
     5
  7

 75
    16
147
1.0
148
0.0
149
0.0
100
AcDbLayout
  1
Layout1
 70
     1
 71
     1
 10
0.0
 20
0.0
 11
12.0
 21
9.0
 12
0.0
 22
0.0
 32
0.0
 14
0.0
 24
0.0
 34
0.0
 15
0.0
 25
0.0
 35
0.0
146
0.0
 13
0.0
 23
0.0
 33
0.0
 16
1.0
 26
0.0
 36
0.0
 17
0.0
 27
1.0
 37
0.0
 76
     0
330
50
  0
LAYOUT
  5
56
102
{ACAD_XDICTIONARY
360
36C
102
}
102
{ACAD_REACTORS
330
1A
102
}
330
1A
100
AcDbPlotSettings
  1

  2
None
  4

  6

 40
0.0
 41
0.0
 42
0.0
 43
0.0
 44
0.0
 45
0.0
 46
0.0
 47
0.0
 48
0.0
 49
0.0
140
0.0
141
0.0
142
1.0
143
1.0
 70
   688
 72
     0
 73
     0
 74
     5
  7

 75
    16
147
1.0
148
0.0
149
0.0
100
AcDbLayout
  1
Layout2
 70
     1
 71
     2
 10
0.0
 20
0.0
 11
12.0
 21
9.0
 12
0.0
 22
0.0
 32
0.0
 14
0.0
 24
0.0
 34
0.0
 15
0.0
 25
0.0
 35
0.0
146
0.0
 13
0.0
 23
0.0
 33
0.0
 16
1.0
 26
0.0
 36
0.0
 17
0.0
 27
1.0
 37
0.0
 76
     0
330
55
  0
LAYOUT
  5
22
102
{ACAD_XDICTIONARY
360
368
102
}
102
{ACAD_REACTORS
330
1A
102
}
330
1A
100
AcDbPlotSettings
  1

  2
none_device
  4
ANSI_A_(8.50_x_11.00_Inches)
  6

 40
6.349999904632567
 41
19.04999923706055
 42
6.350006103515625
 43
19.04998779296875
 44
215.8999938964844
 45
279.3999938964844
 46
0.0
 47
0.0
 48
0.0
 49
0.0
140
0.0
141
0.0
142
1.0
143
78.436453180766
 70
 11952
 72
     0
 73
     1
 74
     0
  7

 75
     0
147
0.0127491741332998
148
0.0
149
0.0
100
AcDbLayout
  1
Model
 70
     1
 71
     0
 10
0.0
 20
0.0
 11
12.0
 21
9.0
 12
0.0
 22
0.0
 32
0.0
 14
0.0
 24
0.0
 34
0.0
 15
0.0
 25
0.0
 35
0.0
146
0.0
 13
0.0
 23
0.0
 33
0.0
 16
1.0
 26
0.0
 36
0.0
 17
0.0
 27
1.0
 37
0.0
 76
     0
330
1F
  0
MATERIAL
  5
140
330
6A
100
AcDbMaterial
  1
Global
 72
     0
 73
     2
 43
0.0008202099737533
 43
0.0
 43
0.0
 43
0.0
 43
0.0
 43
0.0008202099737533
 43
0.0
 43
0.0
 43
0.0
 43
0.0
 43
1.0
 43
0.0
 43
0.0
 43
0.0
 43
0.0
 43
1.0
 77
     0
 78
     2
 47
0.0008202099737533
 47
0.0
 47
0.0
 47
0.0
 47
0.0
 47
0.0008202099737533
 47
0.0
 47
0.0
 47
0.0
 47
0.0
 47
1.0
 47
0.0
 47
0.0
 47
0.0
 47
0.0
 47
1.0
171
     0
172
     2
 49
0.0008202099737533
 49
0.0
 49
0.0
 49
0.0
 49
0.0
 49
0.0008202099737533
 49
0.0
 49
0.0
 49
0.0
 49
0.0
 49
1.0
 49
0.0
 49
0.0
 49
0.0
 49
0.0
 49
1.0
175
     0
176
     2
142
0.0008202099737533
142
0.0
142
0.0
142
0.0
142
0.0
142
0.0008202099737533
142
0.0
142
0.0
142
0.0
142
0.0
142
1.0
142
0.0
142
0.0
142
0.0
142
0.0
142
1.0
179
     0
270
     2
144
0.0008202099737533
144
0.0
144
0.0
144
0.0
144
0.0
144
0.0008202099737533
144
0.0
144
0.0
144
0.0
144
0.0
144
1.0
144
0.0
144
0.0
144
0.0
144
0.0
144
1.0
274
     2
147
0.0008202099737533
147
0.0
147
0.0
147
0.0
147
0.0
147
0.0008202099737533
147
0.0
147
0.0
147
0.0
147
0.0
147
1.0
147
0.0
147
0.0
147
0.0
147
0.0
147
1.0
  0
MLINESTYLE
  5
18
102
{ACAD_REACTORS
330
17
102
}
330
17
100
AcDbMlineStyle
  2
STANDARD
 70
     0
  3

 62
   256
 51
90.0
 52
90.0
 71
     2
 49
0.5
 62
   256
  6
BYLAYER
 49
-0.5
 62
   256
  6
BYLAYER
  0
ACDBPLACEHOLDER
  5
F
102
{ACAD_REACTORS
330
E
102
}
330
E
  0
XRECORD
  5
367
102
{ACAD_REACTORS
330
365
102
}
330
365
100
AcDbXrecord
280
     1
340
6B
  0
XRECORD
  5
366
102
{ACAD_REACTORS
330
365
102
}
330
365
100
AcDbXrecord
280
     1
340
6A
  0
DICTIONARYVAR
  5
5F
102
{ACAD_REACTORS
330
5E
102
}
330
5E
100
DictionaryVariables
280
     0
  1
2
  0
DICTIONARYVAR
  5
63
102
{ACAD_REACTORS
330
5E
102
}
330
5E
100
DictionaryVariables
280
     0
  1
1
  0
DICTIONARYVAR
  5
85
102
{ACAD_REACTORS
330
5E
102
}
330
5E
100
DictionaryVariables
280
     0
  1

  0
DICTIONARY
  5
36A
330
51
100
AcDbDictionary
280
     1
281
     1
  3
ACAD_XREC_ROUNDTRIP
360
36B
  0
DICTIONARY
  5
36C
330
56
100
AcDbDictionary
280
     1
281
     1
  3
ACAD_XREC_ROUNDTRIP
360
36D
  0
DICTIONARY
  5
368
330
22
100
AcDbDictionary
280
     1
281
     1
  3
ACAD_XREC_ROUNDTRIP
360
369
  0
XRECORD
  5
36B
102
{ACAD_REACTORS
330
36A
102
}
330
36A
100
AcDbXrecord
280
     1
102
SHADEPLOT
 70
     0
102
SHADEPLOTRESLEVEL
 70
     2
102
SHADEPLOTCUSTOMDPI
 70
   300
  0
XRECORD
  5
36D
102
{ACAD_REACTORS
330
36C
102
}
330
36C
100
AcDbXrecord
280
     1
102
SHADEPLOT
 70
     0
102
SHADEPLOTRESLEVEL
 70
     2
102
SHADEPLOTCUSTOMDPI
 70
   300
  0
XRECORD
  5
369
102
{ACAD_REACTORS
330
368
102
}
330
368
100
AcDbXrecord
280
     1
102
SHADEPLOT
 70
     0
102
SHADEPLOTRESLEVEL
 70
     2
102
SHADEPLOTCUSTOMDPI
 70
   300
  0
ENDSEC
  0
EOF
