  0
SECTION
  2
HEADER
  9
$ACADVER
  1
AC1015
  9
$ACADMAINTVER
 70
    20
  9
$DWGCODEPAGE
  3
ANSI_936
  9
$INSBASE
 10
0.0
 20
0.0
 30
0.0
  9
$EXTMIN
 10
0.0000540642358828
 20
0.0000259300286416
 30
0.0
  9
$EXTMAX
 10
1000.088742488128
 20
1000.000025930028
 30
0.0
  9
$LIMMIN
 10
0.0
 20
0.0
  9
$LIMMAX
 10
420.0
 20
297.0
  9
$ORTHOMODE
 70
     0
  9
$REGENMODE
 70
     1
  9
$FILLMODE
 70
     1
  9
$QTEXTMODE
 70
     0
  9
$MIRRTEXT
 70
     0
  9
$LTSCALE
 40
1.0
  9
$ATTMODE
 70
     1
  9
$TEXTSIZE
 40
2.5
  9
$TRACEWID
 40
1.0
  9
$TEXTSTYLE
  7
Standard
  9
$CLAYER
  8
2
  9
$CELTYPE
  6
ByLayer
  9
$CECOLOR
 62
   256
  9
$CELTSCALE
 40
1.0
  9
$DISPSILH
 70
     0
  9
$DIMSCALE
 40
1.0
  9
$DIMASZ
 40
2.5
  9
$DIMEXO
 40
0.625
  9
$DIMDLI
 40
3.75
  9
$DIMRND
 40
0.0
  9
$DIMDLE
 40
0.0
  9
$DIMEXE
 40
1.25
  9
$DIMTP
 40
0.0
  9
$DIMTM
 40
0.0
  9
$DIMTXT
 40
2.5
  9
$DIMCEN
 40
2.5
  9
$DIMTSZ
 40
0.0
  9
$DIMTOL
 70
     0
  9
$DIMLIM
 70
     0
  9
$DIMTIH
 70
     0
  9
$DIMTOH
 70
     0
  9
$DIMSE1
 70
     0
  9
$DIMSE2
 70
     0
  9
$DIMTAD
 70
     1
  9
$DIMZIN
 70
     8
  9
$DIMBLK
  1

  9
$DIMASO
 70
     1
  9
$DIMSHO
 70
     1
  9
$DIMPOST
  1

  9
$DIMAPOST
  1

  9
$DIMALT
 70
     0
  9
$DIMALTD
 70
     3
  9
$DIMALTF
 40
0.03937007874016
  9
$DIMLFAC
 40
1.0
  9
$DIMTOFL
 70
     1
  9
$DIMTVP
 40
0.0
  9
$DIMTIX
 70
     0
  9
$DIMSOXD
 70
     0
  9
$DIMSAH
 70
     0
  9
$DIMBLK1
  1

  9
$DIMBLK2
  1

  9
$DIMSTYLE
  2
ISO-25
  9
$DIMCLRD
 70
     0
  9
$DIMCLRE
 70
     0
  9
$DIMCLRT
 70
     0
  9
$DIMTFAC
 40
1.0
  9
$DIMGAP
 40
0.625
  9
$DIMJUST
 70
     0
  9
$DIMSD1
 70
     0
  9
$DIMSD2
 70
     0
  9
$DIMTOLJ
 70
     0
  9
$DIMTZIN
 70
     8
  9
$DIMALTZ
 70
     0
  9
$DIMALTTZ
 70
     0
  9
$DIMUPT
 70
     0
  9
$DIMDEC
 70
     2
  9
$DIMTDEC
 70
     2
  9
$DIMALTU
 70
     2
  9
$DIMALTTD
 70
     3
  9
$DIMTXSTY
  7
Standard
  9
$DIMAUNIT
 70
     0
  9
$DIMADEC
 70
     0
  9
$DIMALTRND
 40
0.0
  9
$DIMAZIN
 70
     0
  9
$DIMDSEP
 70
    44
  9
$DIMATFIT
 70
     3
  9
$DIMFRAC
 70
     0
  9
$DIMLDRBLK
  1

  9
$DIMLUNIT
 70
     2
  9
$DIMLWD
 70
    -2
  9
$DIMLWE
 70
    -2
  9
$DIMTMOVE
 70
     0
  9
$LUNITS
 70
     2
  9
$LUPREC
 70
     4
  9
$SKETCHINC
 40
1.0
  9
$FILLETRAD
 40
0.0
  9
$AUNITS
 70
     0
  9
$AUPREC
 70
     0
  9
$MENU
  1
.
  9
$ELEVATION
 40
0.0
  9
$PELEVATION
 40
0.0
  9
$THICKNESS
 40
0.0
  9
$LIMCHECK
 70
     0
  9
$CHAMFERA
 40
0.0
  9
$CHAMFERB
 40
0.0
  9
$CHAMFERC
 40
0.0
  9
$CHAMFERD
 40
0.0
  9
$SKPOLY
 70
     0
  9
$TDCREATE
 40
2455505.725807523
  9
$TDUCREATE
 40
2455505.392474190
  9
$TDUPDATE
 40
2457095.958037593
  9
$TDUUPDATE
 40
2457095.624704260
  9
$TDINDWG
 40
0.0541672106
  9
$TDUSRTIMER
 40
0.0541665278
  9
$USRTIMER
 70
     1
  9
$ANGBASE
 50
0.0
  9
$ANGDIR
 70
     0
  9
$PDMODE
 70
     0
  9
$PDSIZE
 40
0.0
  9
$PLINEWID
 40
0.0
  9
$SPLFRAME
 70
     0
  9
$SPLINETYPE
 70
     6
  9
$SPLINESEGS
 70
     8
  9
$HANDSEED
  5
30E
  9
$SURFTAB1
 70
     6
  9
$SURFTAB2
 70
     6
  9
$SURFTYPE
 70
     6
  9
$SURFU
 70
     6
  9
$SURFV
 70
     6
  9
$UCSBASE
  2

  9
$UCSNAME
  2

  9
$UCSORG
 10
0.0
 20
0.0
 30
0.0
  9
$UCSXDIR
 10
1.0
 20
0.0
 30
0.0
  9
$UCSYDIR
 10
0.0
 20
1.0
 30
0.0
  9
$UCSORTHOREF
  2

  9
$UCSORTHOVIEW
 70
     0
  9
$UCSORGTOP
 10
0.0
 20
0.0
 30
0.0
  9
$UCSORGBOTTOM
 10
0.0
 20
0.0
 30
0.0
  9
$UCSORGLEFT
 10
0.0
 20
0.0
 30
0.0
  9
$UCSORGRIGHT
 10
0.0
 20
0.0
 30
0.0
  9
$UCSORGFRONT
 10
0.0
 20
0.0
 30
0.0
  9
$UCSORGBACK
 10
0.0
 20
0.0
 30
0.0
  9
$PUCSBASE
  2

  9
$PUCSNAME
  2

  9
$PUCSORG
 10
0.0
 20
0.0
 30
0.0
  9
$PUCSXDIR
 10
1.0
 20
0.0
 30
0.0
  9
$PUCSYDIR
 10
0.0
 20
1.0
 30
0.0
  9
$PUCSORTHOREF
  2

  9
$PUCSORTHOVIEW
 70
     0
  9
$PUCSORGTOP
 10
0.0
 20
0.0
 30
0.0
  9
$PUCSORGBOTTOM
 10
0.0
 20
0.0
 30
0.0
  9
$PUCSORGLEFT
 10
0.0
 20
0.0
 30
0.0
  9
$PUCSORGRIGHT
 10
0.0
 20
0.0
 30
0.0
  9
$PUCSORGFRONT
 10
0.0
 20
0.0
 30
0.0
  9
$PUCSORGBACK
 10
0.0
 20
0.0
 30
0.0
  9
$USERI1
 70
     0
  9
$USERI2
 70
     0
  9
$USERI3
 70
     0
  9
$USERI4
 70
     0
  9
$USERI5
 70
     0
  9
$USERR1
 40
0.0
  9
$USERR2
 40
0.0
  9
$USERR3
 40
0.0
  9
$USERR4
 40
0.0
  9
$USERR5
 40
0.0
  9
$WORLDVIEW
 70
     1
  9
$SHADEDGE
 70
     3
  9
$SHADEDIF
 70
    70
  9
$TILEMODE
 70
     1
  9
$MAXACTVP
 70
    64
  9
$PINSBASE
 10
0.0
 20
0.0
 30
0.0
  9
$PLIMCHECK
 70
     0
  9
$PEXTMIN
 10
0.0
 20
0.0
 30
0.0
  9
$PEXTMAX
 10
0.0
 20
0.0
 30
0.0
  9
$PLIMMIN
 10
0.0
 20
0.0
  9
$PLIMMAX
 10
12.0
 20
9.0
  9
$UNITMODE
 70
     0
  9
$VISRETAIN
 70
     1
  9
$PLINEGEN
 70
     0
  9
$PSLTSCALE
 70
     1
  9
$TREEDEPTH
 70
  3020
  9
$CMLSTYLE
  2
Standard
  9
$CMLJUST
 70
     0
  9
$CMLSCALE
 40
20.0
  9
$PROXYGRAPHICS
 70
     1
  9
$MEASUREMENT
 70
     1
  9
$CELWEIGHT
370
    -1
  9
$ENDCAPS
280
     0
  9
$JOINSTYLE
280
     0
  9
$LWDISPLAY
290
     0
  9
$INSUNITS
 70
     4
  9
$HYPERLINKBASE
  1

  9
$STYLESHEET
  1

  9
$XEDIT
290
     1
  9
$CEPSNTYPE
380
     0
  9
$PSTYLEMODE
290
     1
  9
$FINGERPRINTGUID
  2
{FDEAD578-A652-11D2-9A35-0060089B3A3F}
  9
$VERSIONGUID
  2
{71E64208-D393-43DD-8EA4-1B0274573C4B}
  9
$EXTNAMES
290
     1
  9
$PSVPSCALE
 40
0.0
  9
$OLESTARTUP
290
     0
  0
ENDSEC
  0
SECTION
  2
CLASSES
  0
CLASS
  1
ACDBDICTIONARYWDFLT
  2
AcDbDictionaryWithDefault
  3
ObjectDBX Classes
 90
        0
280
     0
281
     0
  0
CLASS
  1
ACDBPLACEHOLDER
  2
AcDbPlaceHolder
  3
ObjectDBX Classes
 90
        0
280
     0
281
     0
  0
CLASS
  1
LAYOUT
  2
AcDbLayout
  3
ObjectDBX Classes
 90
        0
280
     0
281
     0
  0
CLASS
  1
DICTIONARYVAR
  2
AcDbDictionaryVar
  3
ObjectDBX Classes
 90
        0
280
     0
281
     0
  0
ENDSEC
  0
SECTION
  2
TABLES
  0
TABLE
  2
VPORT
  5
8
330
0
100
AcDbSymbolTable
 70
     3
  0
VPORT
  5
304
330
8
100
AcDbSymbolTableRecord
100
AcDbViewportTableRecord
  2
*Active
 70
     0
 10
0.0
 20
0.0
 11
1.0
 21
1.0
 12
831.4536531895939
 22
541.3693295215188
 13
0.0
 23
0.0
 14
10.0
 24
10.0
 15
10.0
 25
10.0
 16
0.0
 26
0.0
 36
1.0
 17
0.0
 27
0.0
 37
0.0
 40
1321.05766956376
 41
2.425287356321839
 42
50.0
 43
0.0
 44
0.0
 50
0.0
 51
0.0
 71
     0
 72
  1000
 73
     1
 74
     3
 75
     0
 76
     0
 77
     0
 78
     0
281
     0
 65
     1
110
0.0
120
0.0
130
0.0
111
1.0
121
0.0
131
0.0
112
0.0
122
1.0
132
0.0
 79
     0
146
0.0
  0
ENDTAB
  0
TABLE
  2
LTYPE
  5
5
330
0
100
AcDbSymbolTable
 70
     1
  0
LTYPE
  5
14
330
5
100
AcDbSymbolTableRecord
100
AcDbLinetypeTableRecord
  2
ByBlock
 70
     0
  3

 72
    65
 73
     0
 40
0.0
  0
LTYPE
  5
15
330
5
100
AcDbSymbolTableRecord
100
AcDbLinetypeTableRecord
  2
ByLayer
 70
     0
  3

 72
    65
 73
     0
 40
0.0
  0
LTYPE
  5
16
330
5
100
AcDbSymbolTableRecord
100
AcDbLinetypeTableRecord
  2
Continuous
 70
     0
  3
Solid line
 72
    65
 73
     0
 40
0.0
  0
ENDTAB
  0
TABLE
  2
LAYER
  5
2
330
0
100
AcDbSymbolTable
 70
     4
  0
LAYER
  5
10
330
2
100
AcDbSymbolTableRecord
100
AcDbLayerTableRecord
  2
0
 70
     0
 62
     2
  6
Continuous
370
    -3
390
F
  0
LAYER
  5
94
330
2
100
AcDbSymbolTableRecord
100
AcDbLayerTableRecord
  2
1
 70
     0
 62
     1
  6
Continuous
370
    -3
390
F
  0
LAYER
  5
95
330
2
100
AcDbSymbolTableRecord
100
AcDbLayerTableRecord
  2
2
 70
     0
 62
     7
  6
Continuous
370
    -3
390
F
  0
LAYER
  5
10E
330
2
100
AcDbSymbolTableRecord
100
AcDbLayerTableRecord
  2
3
 70
     0
 62
     7
  6
Continuous
370
    -3
390
F
  0
ENDTAB
  0
TABLE
  2
STYLE
  5
3
330
0
100
AcDbSymbolTable
 70
     1
  0
STYLE
  5
11
330
3
100
AcDbSymbolTableRecord
100
AcDbTextStyleTableRecord
  2
Standard
 70
     0
 40
0.0
 41
1.0
 50
0.0
 71
     0
 42
2.5
  3
txt
  4

  0
ENDTAB
  0
TABLE
  2
VIEW
  5
6
330
0
100
AcDbSymbolTable
 70
     0
  0
ENDTAB
  0
TABLE
  2
UCS
  5
7
330
0
100
AcDbSymbolTable
 70
     0
  0
ENDTAB
  0
TABLE
  2
APPID
  5
9
330
0
100
AcDbSymbolTable
 70
     1
  0
APPID
  5
12
330
9
100
AcDbSymbolTableRecord
100
AcDbRegAppTableRecord
  2
ACAD
 70
     0
  0
ENDTAB
  0
TABLE
  2
DIMSTYLE
  5
A
330
0
100
AcDbSymbolTable
 70
     1
100
AcDbDimStyleTable
 71
     0
  0
DIMSTYLE
105
27
330
A
100
AcDbSymbolTableRecord
100
AcDbDimStyleTableRecord
  2
ISO-25
 70
     0
 41
2.5
 42
0.625
 43
3.75
 44
1.25
 73
     0
 74
     0
 77
     1
 78
     8
140
2.5
141
2.5
143
0.03937007874016
147
0.625
171
     3
172
     1
271
     2
272
     2
274
     3
278
    44
283
     0
284
     8
340
11
  0
ENDTAB
  0
TABLE
  2
BLOCK_RECORD
  5
1
330
0
100
AcDbSymbolTable
 70
     1
  0
BLOCK_RECORD
  5
1F
330
1
100
AcDbSymbolTableRecord
100
AcDbBlockTableRecord
  2
*Model_Space
340
22
  0
BLOCK_RECORD
  5
50
330
1
100
AcDbSymbolTableRecord
100
AcDbBlockTableRecord
  2
*Paper_Space
340
51
  0
BLOCK_RECORD
  5
55
330
1
100
AcDbSymbolTableRecord
100
AcDbBlockTableRecord
  2
*Paper_Space0
340
56
  0
ENDTAB
  0
ENDSEC
  0
SECTION
  2
BLOCKS
  0
BLOCK
  5
20
330
1F
100
AcDbEntity
  8
0
100
AcDbBlockBegin
  2
*Model_Space
 70
     0
 10
0.0
 20
0.0
 30
0.0
  3
*Model_Space
  1

  0
ENDBLK
  5
21
330
1F
100
AcDbEntity
  8
0
100
AcDbBlockEnd
  0
BLOCK
  5
52
330
50
100
AcDbEntity
 67
     1
  8
0
100
AcDbBlockBegin
  2
*Paper_Space
 70
     0
 10
0.0
 20
0.0
 30
0.0
  3
*Paper_Space
  1

  0
ENDBLK
  5
53
330
50
100
AcDbEntity
 67
     1
  8
0
100
AcDbBlockEnd
  0
BLOCK
  5
57
330
55
100
AcDbEntity
  8
0
100
AcDbBlockBegin
  2
*Paper_Space0
 70
     0
 10
0.0
 20
0.0
 30
0.0
  3
*Paper_Space0
  1

  0
ENDBLK
  5
58
330
55
100
AcDbEntity
  8
0
100
AcDbBlockEnd
  0
ENDSEC
  0
SECTION
  2
ENTITIES
  0
LINE
  5
2C6
330
1F
100
AcDbEntity
  8
1
 62
     1
100
AcDbLine
 10
27.23407124428877
 20
634.829249157535
 30
0.0
 11
27.23407124428877
 21
365.1708027025218
 31
0.0
  0
LINE
  5
2C7
330
1F
100
AcDbEntity
  8
1
 62
     1
100
AcDbLine
 10
972.7660368841831
 20
634.829249157535
 30
0.0
 11
27.23407124428877
 21
634.829249157535
 31
0.0
  0
LINE
  5
2C8
330
1F
100
AcDbEntity
  8
1
 62
     1
100
AcDbLine
 10
972.766036884183
 20
365.1708027025217
 30
0.0
 11
972.7660368841824
 21
634.829249157535
 31
0.0
  0
LWPOLYLINE
  5
2CA
330
1F
100
AcDbEntity
  8
0
 62
     2
100
AcDbPolyline
 90
        4
 70
     1
 43
0.0
 10
0.0000540642358828
 20
0.0000259300286416
 10
1000.000054064236
 20
0.0000259300286416
 10
1000.000054064236
 20
1000.000025930028
 10
0.0000540642358828
 20
1000.000025930028
  0
SPLINE
  5
2CB
330
1F
100
AcDbEntity
  8
3
100
AcDbSpline
210
0.0
220
0.0
230
1.0
 70
     8
 71
     3
 72
    10
 73
     6
 74
     4
 42
0.0000000001
 43
0.0000000001
 44
0.0000000001
 40
0.0
 40
0.0
 40
0.0
 40
0.0
 40
40.05603753330979
 40
72.87161810899317
 40
137.2780945651802
 40
137.2780945651802
 40
137.2780945651802
 40
137.2780945651802
 10
944.3768383424439
 20
432.1102297705006
 30
0.0
 10
934.3193642133458
 20
414.6126095308681
 30
0.0
 10
916.0223868034544
 20
382.7802072654577
 30
0.0
 10
886.3474798278243
 20
445.4979026492699
 30
0.0
 10
886.4273241374196
 20
478.2817708414011
 30
0.0
 10
886.4802184167949
 20
500.0000259300284
 30
0.0
 11
944.3768383424439
 21
432.1102297705006
 31
0.0
 11
914.9732560357906
 21
399.2947215402678
 31
0.0
 11
895.5797927443997
 21
429.7397046914155
 31
0.0
 11
886.4802184167949
 21
500.0000259300284
 31
0.0
  0
SPLINE
  5
2CC
330
1F
100
AcDbEntity
  8
3
100
AcDbSpline
210
0.0
220
0.0
230
1.0
 70
     8
 71
     3
 72
    10
 73
     6
 74
     4
 42
0.0000000001
 43
0.0000000001
 44
0.0000000001
 40
0.0
 40
0.0
 40
0.0
 40
0.0
 40
40.05603753330679
 40
72.87161810898711
 40
137.278094565178
 40
137.278094565178
 40
137.278094565178
 40
137.278094565178
 10
828.5835984911463
 20
567.88982208956
 30
0.0
 10
838.6410726202441
 20
585.3874423291904
 30
0.0
 10
856.9380500301349
 20
617.2198445945967
 30
0.0
 10
886.6129570057678
 20
554.5021492107894
 30
0.0
 10
886.5331126961713
 20
521.7182810186573
 30
0.0
 10
886.4802184167949
 20
500.0000259300284
 30
0.0
 11
828.5835984911463
 21
567.88982208956
 31
0.0
 11
857.987180797799
 21
600.7053303197888
 31
0.0
 11
877.3806440891901
 21
570.2603471686452
 31
0.0
 11
886.4802184167949
 21
500.0000259300284
 31
0.0
  0
SPLINE
  5
2CD
330
1F
100
AcDbEntity
  8
3
100
AcDbSpline
210
0.0
220
0.0
230
1.0
 70
     8
 71
     3
 72
    10
 73
     6
 74
     4
 42
0.0000000001
 43
0.0000000001
 44
0.0000000001
 40
0.0
 40
0.0
 40
0.0
 40
0.0
 40
40.05603753330942
 40
72.87161810899272
 40
137.2780945651798
 40
137.2780945651798
 40
137.2780945651798
 40
137.2780945651798
 10
834.3768383424432
 20
432.1102297705006
 30
0.0
 10
824.3193642133451
 20
414.612609530868
 30
0.0
 10
806.0223868034542
 20
382.7802072654577
 30
0.0
 10
776.3474798278248
 20
445.49790264927
 30
0.0
 10
776.4273241374196
 20
478.2817708414009
 30
0.0
 10
776.4802184167948
 20
500.0000259300284
 30
0.0
 11
834.3768383424432
 21
432.1102297705006
 31
0.0
 11
804.9732560357908
 21
399.2947215402678
 31
0.0
 11
785.5797927443999
 21
429.7397046914155
 31
0.0
 11
776.4802184167948
 21
500.0000259300284
 31
0.0
  0
SPLINE
  5
2CE
330
1F
100
AcDbEntity
  8
3
100
AcDbSpline
210
0.0
220
0.0
230
1.0
 70
     8
 71
     3
 72
    10
 73
     6
 74
     4
 42
0.0000000001
 43
0.0000000001
 44
0.0000000001
 40
0.0
 40
0.0
 40
0.0
 40
0.0
 40
40.05603753330679
 40
72.87161810898711
 40
137.278094565178
 40
137.278094565178
 40
137.278094565178
 40
137.278094565178
 10
718.5835984911463
 20
567.88982208956
 30
0.0
 10
728.6410726202442
 20
585.3874423291904
 30
0.0
 10
746.9380500301351
 20
617.2198445945967
 30
0.0
 10
776.6129570057672
 20
554.5021492107894
 30
0.0
 10
776.5331126961712
 20
521.7182810186573
 30
0.0
 10
776.4802184167948
 20
500.0000259300284
 30
0.0
 11
718.5835984911463
 21
567.88982208956
 31
0.0
 11
747.987180797799
 21
600.7053303197888
 31
0.0
 11
767.3806440891901
 21
570.2603471686452
 31
0.0
 11
776.4802184167948
 21
500.0000259300284
 31
0.0
  0
SPLINE
  5
2CF
330
1F
100
AcDbEntity
  8
3
100
AcDbSpline
210
0.0
220
0.0
230
1.0
 70
     8
 71
     3
 72
    10
 73
     6
 74
     4
 42
0.0000000001
 43
0.0000000001
 44
0.0000000001
 40
0.0
 40
0.0
 40
0.0
 40
0.0
 40
40.05603753330965
 40
72.87161810899295
 40
137.27809456518
 40
137.27809456518
 40
137.27809456518
 40
137.27809456518
 10
724.3768383424438
 20
432.1102297705006
 30
0.0
 10
714.3193642133454
 20
414.612609530868
 30
0.0
 10
696.0223868034542
 20
382.7802072654577
 30
0.0
 10
666.3474798278245
 20
445.4979026492699
 30
0.0
 10
666.4273241374196
 20
478.2817708414009
 30
0.0
 10
666.480218416795
 20
500.0000259300284
 30
0.0
 11
724.3768383424438
 21
432.1102297705006
 31
0.0
 11
694.9732560357907
 21
399.2947215402678
 31
0.0
 11
675.5797927443999
 21
429.7397046914155
 31
0.0
 11
666.480218416795
 21
500.0000259300284
 31
0.0
  0
SPLINE
  5
2D0
330
1F
100
AcDbEntity
  8
3
100
AcDbSpline
210
0.0
220
0.0
230
1.0
 70
     8
 71
     3
 72
    10
 73
     6
 74
     4
 42
0.0000000001
 43
0.0000000001
 44
0.0000000001
 40
0.0
 40
0.0
 40
0.0
 40
0.0
 40
40.05603753330686
 40
72.87161810898706
 40
137.278094565178
 40
137.278094565178
 40
137.278094565178
 40
137.278094565178
 10
608.5835984911462
 20
567.88982208956
 30
0.0
 10
618.6410726202443
 20
585.3874423291904
 30
0.0
 10
636.9380500301351
 20
617.2198445945967
 30
0.0
 10
666.6129570057672
 20
554.5021492107891
 30
0.0
 10
666.533112696171
 20
521.718281018657
 30
0.0
 10
666.480218416795
 20
500.0000259300284
 30
0.0
 11
608.5835984911462
 21
567.88982208956
 31
0.0
 11
637.9871807977991
 21
600.7053303197888
 31
0.0
 11
657.3806440891899
 21
570.2603471686452
 31
0.0
 11
666.480218416795
 21
500.0000259300284
 31
0.0
  0
SPLINE
  5
2D1
330
1F
100
AcDbEntity
  8
3
100
AcDbSpline
210
0.0
220
0.0
230
1.0
 70
     8
 71
     3
 72
    10
 73
     6
 74
     4
 42
0.0000000001
 43
0.0000000001
 44
0.0000000001
 40
0.0
 40
0.0
 40
0.0
 40
0.0
 40
40.05603753330965
 40
72.87161810899295
 40
137.27809456518
 40
137.27809456518
 40
137.27809456518
 40
137.27809456518
 10
614.3768383424438
 20
432.1102297705006
 30
0.0
 10
604.3193642133454
 20
414.612609530868
 30
0.0
 10
586.0223868034543
 20
382.7802072654577
 30
0.0
 10
556.3474798278247
 20
445.4979026492699
 30
0.0
 10
556.4273241374197
 20
478.2817708414009
 30
0.0
 10
556.4802184167949
 20
500.0000259300284
 30
0.0
 11
614.3768383424438
 21
432.1102297705006
 31
0.0
 11
584.9732560357908
 21
399.2947215402678
 31
0.0
 11
565.5797927443999
 21
429.7397046914155
 31
0.0
 11
556.4802184167949
 21
500.0000259300284
 31
0.0
  0
SPLINE
  5
2D2
330
1F
100
AcDbEntity
  8
3
100
AcDbSpline
210
0.0
220
0.0
230
1.0
 70
     8
 71
     3
 72
    10
 73
     6
 74
     4
 42
0.0000000001
 43
0.0000000001
 44
0.0000000001
 40
0.0
 40
0.0
 40
0.0
 40
0.0
 40
40.05603753330686
 40
72.87161810898706
 40
137.278094565178
 40
137.278094565178
 40
137.278094565178
 40
137.278094565178
 10
498.5835984911463
 20
567.88982208956
 30
0.0
 10
508.6410726202443
 20
585.3874423291904
 30
0.0
 10
526.938050030135
 20
617.2198445945967
 30
0.0
 10
556.6129570057673
 20
554.5021492107891
 30
0.0
 10
556.5331126961711
 20
521.718281018657
 30
0.0
 10
556.4802184167949
 20
500.0000259300284
 30
0.0
 11
498.5835984911463
 21
567.88982208956
 31
0.0
 11
527.9871807977992
 21
600.7053303197888
 31
0.0
 11
547.3806440891898
 21
570.2603471686452
 31
0.0
 11
556.4802184167949
 21
500.0000259300284
 31
0.0
  0
SPLINE
  5
2D3
330
1F
100
AcDbEntity
  8
3
100
AcDbSpline
210
0.0
220
0.0
230
1.0
 70
     8
 71
     3
 72
    10
 73
     6
 74
     4
 42
0.0000000001
 43
0.0000000001
 44
0.0000000001
 40
0.0
 40
0.0
 40
0.0
 40
0.0
 40
40.05603753330961
 40
72.87161810899291
 40
137.27809456518
 40
137.27809456518
 40
137.27809456518
 40
137.27809456518
 10
504.3768383424435
 20
432.1102297705006
 30
0.0
 10
494.3193642133453
 20
414.612609530868
 30
0.0
 10
476.0223868034541
 20
382.7802072654576
 30
0.0
 10
446.3474798278247
 20
445.4979026492701
 30
0.0
 10
446.4273241374197
 20
478.2817708414011
 30
0.0
 10
446.4802184167949
 20
500.0000259300284
 30
0.0
 11
504.3768383424435
 21
432.1102297705006
 31
0.0
 11
474.9732560357905
 21
399.2947215402678
 31
0.0
 11
455.5797927443998
 21
429.7397046914155
 31
0.0
 11
446.4802184167949
 21
500.0000259300284
 31
0.0
  0
SPLINE
  5
2D4
330
1F
100
AcDbEntity
  8
3
100
AcDbSpline
210
0.0
220
0.0
230
1.0
 70
     8
 71
     3
 72
    10
 73
     6
 74
     4
 42
0.0000000001
 43
0.0000000001
 44
0.0000000001
 40
0.0
 40
0.0
 40
0.0
 40
0.0
 40
40.05603753330686
 40
72.87161810898702
 40
137.2780945651779
 40
137.2780945651779
 40
137.2780945651779
 40
137.2780945651779
 10
388.5835984911463
 20
567.88982208956
 30
0.0
 10
398.6410726202445
 20
585.3874423291904
 30
0.0
 10
416.9380500301354
 20
617.2198445945968
 30
0.0
 10
446.6129570057669
 20
554.5021492107891
 30
0.0
 10
446.5331126961708
 20
521.718281018657
 30
0.0
 10
446.4802184167949
 20
500.0000259300284
 30
0.0
 11
388.5835984911463
 21
567.88982208956
 31
0.0
 11
417.9871807977991
 21
600.7053303197888
 31
0.0
 11
437.3806440891898
 21
570.2603471686452
 31
0.0
 11
446.4802184167949
 21
500.0000259300284
 31
0.0
  0
SPLINE
  5
2D5
330
1F
100
AcDbEntity
  8
3
100
AcDbSpline
210
0.0
220
0.0
230
1.0
 70
     8
 71
     3
 72
    10
 73
     6
 74
     4
 42
0.0000000001
 43
0.0000000001
 44
0.0000000001
 40
0.0
 40
0.0
 40
0.0
 40
0.0
 40
40.05603753330957
 40
72.87161810899288
 40
137.2780945651799
 40
137.2780945651799
 40
137.2780945651799
 40
137.2780945651799
 10
394.3768383424435
 20
432.1102297705006
 30
0.0
 10
384.3193642133453
 20
414.6126095308679
 30
0.0
 10
366.0223868034542
 20
382.7802072654576
 30
0.0
 10
336.3474798278248
 20
445.4979026492701
 30
0.0
 10
336.4273241374198
 20
478.2817708414011
 30
0.0
 10
336.480218416795
 20
500.0000259300284
 30
0.0
 11
394.3768383424435
 21
432.1102297705006
 31
0.0
 11
364.9732560357906
 21
399.2947215402678
 31
0.0
 11
345.5797927443999
 21
429.7397046914155
 31
0.0
 11
336.480218416795
 21
500.0000259300284
 31
0.0
  0
SPLINE
  5
2D6
330
1F
100
AcDbEntity
  8
3
100
AcDbSpline
210
0.0
220
0.0
230
1.0
 70
     8
 71
     3
 72
    10
 73
     6
 74
     4
 42
0.0000000001
 43
0.0000000001
 44
0.0000000001
 40
0.0
 40
0.0
 40
0.0
 40
0.0
 40
40.05603753330698
 40
72.87161810898718
 40
137.2780945651781
 40
137.2780945651781
 40
137.2780945651781
 40
137.2780945651781
 10
278.5835984911462
 20
567.88982208956
 30
0.0
 10
288.6410726202444
 20
585.3874423291904
 30
0.0
 10
306.9380500301353
 20
617.2198445945967
 30
0.0
 10
336.6129570057673
 20
554.5021492107894
 30
0.0
 10
336.5331126961712
 20
521.718281018657
 30
0.0
 10
336.480218416795
 20
500.0000259300284
 30
0.0
 11
278.5835984911462
 21
567.88982208956
 31
0.0
 11
307.9871807977992
 21
600.7053303197888
 31
0.0
 11
327.3806440891901
 21
570.2603471686452
 31
0.0
 11
336.480218416795
 21
500.0000259300284
 31
0.0
  0
SPLINE
  5
2D7
330
1F
100
AcDbEntity
  8
3
100
AcDbSpline
210
0.0
220
0.0
230
1.0
 70
     8
 71
     3
 72
    10
 73
     6
 74
     4
 42
0.0000000001
 43
0.0000000001
 44
0.0000000001
 40
0.0
 40
0.0
 40
0.0
 40
0.0
 40
40.05603753330968
 40
72.87161810899299
 40
137.27809456518
 40
137.27809456518
 40
137.27809456518
 40
137.27809456518
 10
284.3768383424438
 20
432.1102297705006
 30
0.0
 10
274.3193642133455
 20
414.612609530868
 30
0.0
 10
256.0223868034543
 20
382.7802072654576
 30
0.0
 10
226.3474798278248
 20
445.49790264927
 30
0.0
 10
226.4273241374198
 20
478.2817708414011
 30
0.0
 10
226.480218416795
 20
500.0000259300284
 30
0.0
 11
284.3768383424438
 21
432.1102297705006
 31
0.0
 11
254.9732560357907
 21
399.2947215402678
 31
0.0
 11
235.5797927443999
 21
429.7397046914155
 31
0.0
 11
226.480218416795
 21
500.0000259300284
 31
0.0
  0
SPLINE
  5
2D8
330
1F
100
AcDbEntity
  8
3
100
AcDbSpline
210
0.0
220
0.0
230
1.0
 70
     8
 71
     3
 72
    10
 73
     6
 74
     4
 42
0.0000000001
 43
0.0000000001
 44
0.0000000001
 40
0.0
 40
0.0
 40
0.0
 40
0.0
 40
40.05603753330694
 40
72.87161810898715
 40
137.278094565178
 40
137.278094565178
 40
137.278094565178
 40
137.278094565178
 10
168.5835984911462
 20
567.88982208956
 30
0.0
 10
178.6410726202443
 20
585.3874423291904
 30
0.0
 10
196.9380500301353
 20
617.2198445945968
 30
0.0
 10
226.6129570057673
 20
554.5021492107891
 30
0.0
 10
226.5331126961712
 20
521.718281018657
 30
0.0
 10
226.480218416795
 20
500.0000259300284
 30
0.0
 11
168.5835984911462
 21
567.88982208956
 31
0.0
 11
197.9871807977992
 21
600.7053303197888
 31
0.0
 11
217.3806440891901
 21
570.2603471686452
 31
0.0
 11
226.480218416795
 21
500.0000259300284
 31
0.0
  0
SPLINE
  5
2D9
330
1F
100
AcDbEntity
  8
3
100
AcDbSpline
210
0.0
220
0.0
230
1.0
 70
     8
 71
     3
 72
    10
 73
     6
 74
     4
 42
0.0000000001
 43
0.0000000001
 44
0.0000000001
 40
0.0
 40
0.0
 40
0.0
 40
0.0
 40
40.0560375333097
 40
72.87161810899298
 40
137.27809456518
 40
137.27809456518
 40
137.27809456518
 40
137.27809456518
 10
174.3768383424437
 20
432.1102297705006
 30
0.0
 10
164.3193642133454
 20
414.612609530868
 30
0.0
 10
146.0223868034541
 20
382.7802072654577
 30
0.0
 10
116.3474798278248
 20
445.49790264927
 30
0.0
 10
116.4273241374196
 20
478.2817708414009
 30
0.0
 10
116.4802184167949
 20
500.0000259300284
 30
0.0
 11
174.3768383424437
 21
432.1102297705006
 31
0.0
 11
144.9732560357906
 21
399.2947215402678
 31
0.0
 11
125.5797927443999
 21
429.7397046914155
 31
0.0
 11
116.4802184167949
 21
500.0000259300284
 31
0.0
  0
SPLINE
  5
2DA
330
1F
100
AcDbEntity
  8
3
100
AcDbSpline
210
0.0
220
0.0
230
1.0
 70
     8
 71
     3
 72
    10
 73
     6
 74
     4
 42
0.0000000001
 43
0.0000000001
 44
0.0000000001
 40
0.0
 40
0.0
 40
0.0
 40
0.0
 40
40.05603753330691
 40
72.87161810898709
 40
137.278094565178
 40
137.278094565178
 40
137.278094565178
 40
137.278094565178
 10
58.58359849114622
 20
567.88982208956
 30
0.0
 10
68.64107262024437
 20
585.3874423291904
 30
0.0
 10
86.93805003013526
 20
617.2198445945968
 30
0.0
 10
116.6129570057671
 20
554.5021492107891
 30
0.0
 10
116.533112696171
 20
521.718281018657
 30
0.0
 10
116.4802184167949
 20
500.0000259300284
 30
0.0
 11
58.58359849114622
 21
567.88982208956
 31
0.0
 11
87.98718079779916
 21
600.7053303197888
 31
0.0
 11
107.3806440891899
 21
570.2603471686452
 31
0.0
 11
116.4802184167949
 21
500.0000259300284
 31
0.0
  0
LINE
  5
2F7
330
1F
100
AcDbEntity
  8
1
 62
     1
100
AcDbLine
 10
972.7660368841831
 20
365.1708027025218
 30
0.0
 11
27.23407124428877
 21
365.1708027025218
 31
0.0
  0
ENDSEC
  0
SECTION
  2
OBJECTS
  0
DICTIONARY
  5
C
330
0
100
AcDbDictionary
281
     1
  3
ACAD_COLOR
350
6B
  3
ACAD_GROUP
350
D
  3
ACAD_LAYOUT
350
1A
  3
ACAD_MATERIAL
350
6A
  3
ACAD_MLINESTYLE
350
17
  3
ACAD_PLOTSETTINGS
350
19
  3
ACAD_PLOTSTYLENAME
350
E
  3
ACDBHEADERROUNDTRIPXREC
350
305
  3
AcDbVariableDictionary
350
5E
  0
DICTIONARY
  5
6B
102
{ACAD_REACTORS
330
C
102
}
330
C
100
AcDbDictionary
281
     1
  0
DICTIONARY
  5
D
102
{ACAD_REACTORS
330
C
102
}
330
C
100
AcDbDictionary
281
     1
  0
DICTIONARY
  5
1A
102
{ACAD_REACTORS
330
C
102
}
330
C
100
AcDbDictionary
281
     1
  3
Layout1
350
51
  3
Layout2
350
56
  3
Model
350
22
  0
DICTIONARY
  5
6A
102
{ACAD_REACTORS
330
C
102
}
330
C
100
AcDbDictionary
281
     1
  0
DICTIONARY
  5
17
102
{ACAD_REACTORS
330
C
102
}
330
C
100
AcDbDictionary
281
     1
  3
Standard
350
18
  0
DICTIONARY
  5
19
102
{ACAD_REACTORS
330
C
102
}
330
C
100
AcDbDictionary
281
     1
  0
ACDBDICTIONARYWDFLT
  5
E
102
{ACAD_REACTORS
330
C
102
}
330
C
100
AcDbDictionary
281
     1
  3
Normal
350
F
100
AcDbDictionaryWithDefault
340
F
  0
DICTIONARY
  5
305
102
{ACAD_REACTORS
330
C
102
}
330
C
100
AcDbDictionary
281
     1
  3
COLORDICT
350
307
  3
MATERIALDICT
350
306
  0
DICTIONARY
  5
5E
102
{ACAD_REACTORS
330
C
102
}
330
C
100
AcDbDictionary
281
     1
  3
DIMASSOC
350
5F
  3
HIDETEXT
350
63
  3
PROJECTNAME
350
85
  0
LAYOUT
  5
51
102
{ACAD_XDICTIONARY
360
30A
102
}
102
{ACAD_REACTORS
330
1A
102
}
330
1A
100
AcDbPlotSettings
  1

  2
None
  4

  6

 40
0.0
 41
0.0
 42
0.0
 43
0.0
 44
0.0
 45
0.0
 46
0.0
 47
0.0
 48
0.0
 49
0.0
140
0.0
141
0.0
142
1.0
143
1.0
 70
   688
 72
     0
 73
     0
 74
     5
  7

 75
    16
147
1.0
148
0.0
149
0.0
100
AcDbLayout
  1
Layout1
 70
     1
 71
     1
 10
0.0
 20
0.0
 11
12.0
 21
9.0
 12
0.0
 22
0.0
 32
0.0
 14
0.0
 24
0.0
 34
0.0
 15
0.0
 25
0.0
 35
0.0
146
0.0
 13
0.0
 23
0.0
 33
0.0
 16
1.0
 26
0.0
 36
0.0
 17
0.0
 27
1.0
 37
0.0
 76
     0
330
50
  0
LAYOUT
  5
56
102
{ACAD_XDICTIONARY
360
30C
102
}
102
{ACAD_REACTORS
330
1A
102
}
330
1A
100
AcDbPlotSettings
  1

  2
None
  4

  6

 40
0.0
 41
0.0
 42
0.0
 43
0.0
 44
0.0
 45
0.0
 46
0.0
 47
0.0
 48
0.0
 49
0.0
140
0.0
141
0.0
142
1.0
143
1.0
 70
   688
 72
     0
 73
     0
 74
     5
  7

 75
    16
147
1.0
148
0.0
149
0.0
100
AcDbLayout
  1
Layout2
 70
     1
 71
     2
 10
0.0
 20
0.0
 11
12.0
 21
9.0
 12
0.0
 22
0.0
 32
0.0
 14
0.0
 24
0.0
 34
0.0
 15
0.0
 25
0.0
 35
0.0
146
0.0
 13
0.0
 23
0.0
 33
0.0
 16
1.0
 26
0.0
 36
0.0
 17
0.0
 27
1.0
 37
0.0
 76
     0
330
55
  0
LAYOUT
  5
22
102
{ACAD_XDICTIONARY
360
308
102
}
102
{ACAD_REACTORS
330
1A
102
}
330
1A
100
AcDbPlotSettings
  1

  2
none_device
  4
ANSI_A_(8.50_x_11.00_Inches)
  6

 40
6.349999904632567
 41
19.04999923706055
 42
6.350006103515625
 43
19.04998779296875
 44
215.8999938964844
 45
279.3999938964844
 46
0.0
 47
0.0
 48
0.0
 49
0.0
140
0.0
141
0.0
142
1.0
143
78.436453180766
 70
 11952
 72
     0
 73
     1
 74
     0
  7

 75
     0
147
0.0127491741332998
148
0.0
149
0.0
100
AcDbLayout
  1
Model
 70
     1
 71
     0
 10
0.0
 20
0.0
 11
12.0
 21
9.0
 12
0.0
 22
0.0
 32
0.0
 14
0.0
 24
0.0
 34
0.0
 15
0.0
 25
0.0
 35
0.0
146
0.0
 13
0.0
 23
0.0
 33
0.0
 16
1.0
 26
0.0
 36
0.0
 17
0.0
 27
1.0
 37
0.0
 76
     0
330
1F
  0
MLINESTYLE
  5
18
102
{ACAD_REACTORS
330
17
102
}
330
17
100
AcDbMlineStyle
  2
STANDARD
 70
     0
  3

 62
   256
 51
90.0
 52
90.0
 71
     2
 49
0.5
 62
   256
  6
BYLAYER
 49
-0.5
 62
   256
  6
BYLAYER
  0
ACDBPLACEHOLDER
  5
F
102
{ACAD_REACTORS
330
E
102
}
330
E
  0
XRECORD
  5
307
102
{ACAD_REACTORS
330
305
102
}
330
305
100
AcDbXrecord
280
     1
340
6B
  0
XRECORD
  5
306
102
{ACAD_REACTORS
330
305
102
}
330
305
100
AcDbXrecord
280
     1
340
6A
  0
DICTIONARYVAR
  5
5F
102
{ACAD_REACTORS
330
5E
102
}
330
5E
100
DictionaryVariables
280
     0
  1
2
  0
DICTIONARYVAR
  5
63
102
{ACAD_REACTORS
330
5E
102
}
330
5E
100
DictionaryVariables
280
     0
  1
1
  0
DICTIONARYVAR
  5
85
102
{ACAD_REACTORS
330
5E
102
}
330
5E
100
DictionaryVariables
280
     0
  1

  0
DICTIONARY
  5
30A
330
51
100
AcDbDictionary
280
     1
281
     1
  3
ACAD_XREC_ROUNDTRIP
360
30B
  0
DICTIONARY
  5
30C
330
56
100
AcDbDictionary
280
     1
281
     1
  3
ACAD_XREC_ROUNDTRIP
360
30D
  0
DICTIONARY
  5
308
330
22
100
AcDbDictionary
280
     1
281
     1
  3
ACAD_XREC_ROUNDTRIP
360
309
  0
XRECORD
  5
30B
102
{ACAD_REACTORS
330
30A
102
}
330
30A
100
AcDbXrecord
280
     1
102
SHADEPLOT
 70
     0
102
SHADEPLOTRESLEVEL
 70
     2
102
SHADEPLOTCUSTOMDPI
 70
   300
  0
XRECORD
  5
30D
102
{ACAD_REACTORS
330
30C
102
}
330
30C
100
AcDbXrecord
280
     1
102
SHADEPLOT
 70
     0
102
SHADEPLOTRESLEVEL
 70
     2
102
SHADEPLOTCUSTOMDPI
 70
   300
  0
XRECORD
  5
309
102
{ACAD_REACTORS
330
308
102
}
330
308
100
AcDbXrecord
280
     1
102
SHADEPLOT
 70
     0
102
SHADEPLOTRESLEVEL
 70
     2
102
SHADEPLOTCUSTOMDPI
 70
   300
  0
ENDSEC
  0
EOF
