  0
SECTION
  2
HEADER
  9
$ACADVER
  1
AC1015
  9
$ACADMAINTVER
 70
    20
  9
$DWGCODEPAGE
  3
ANSI_936
  9
$INSBASE
 10
0.0
 20
0.0
 30
0.0
  9
$EXTMIN
 10
0.0000991628548945
 20
-0.0000266564384219
 30
0.0
  9
$EXTMAX
 10
1000.000099162855
 20
999.9999733435615
 30
0.0
  9
$LIMMIN
 10
0.0
 20
0.0
  9
$LIMMAX
 10
420.0
 20
297.0
  9
$ORTHOMODE
 70
     0
  9
$REGENMODE
 70
     1
  9
$FILLMODE
 70
     1
  9
$QTEXTMODE
 70
     0
  9
$MIRRTEXT
 70
     0
  9
$LTSCALE
 40
1.0
  9
$ATTMODE
 70
     1
  9
$TEXTSIZE
 40
2.5
  9
$TRACEWID
 40
1.0
  9
$TEXTSTYLE
  7
Standard
  9
$CLAYER
  8
2
  9
$CELTYPE
  6
ByLayer
  9
$CECOLOR
 62
   256
  9
$CELTSCALE
 40
1.0
  9
$DISPSILH
 70
     0
  9
$DIMSCALE
 40
1.0
  9
$DIMASZ
 40
2.5
  9
$DIMEXO
 40
0.625
  9
$DIMDLI
 40
3.75
  9
$DIMRND
 40
0.0
  9
$DIMDLE
 40
0.0
  9
$DIMEXE
 40
1.25
  9
$DIMTP
 40
0.0
  9
$DIMTM
 40
0.0
  9
$DIMTXT
 40
2.5
  9
$DIMCEN
 40
2.5
  9
$DIMTSZ
 40
0.0
  9
$DIMTOL
 70
     0
  9
$DIMLIM
 70
     0
  9
$DIMTIH
 70
     0
  9
$DIMTOH
 70
     0
  9
$DIMSE1
 70
     0
  9
$DIMSE2
 70
     0
  9
$DIMTAD
 70
     1
  9
$DIMZIN
 70
     8
  9
$DIMBLK
  1

  9
$DIMASO
 70
     1
  9
$DIMSHO
 70
     1
  9
$DIMPOST
  1

  9
$DIMAPOST
  1

  9
$DIMALT
 70
     0
  9
$DIMALTD
 70
     3
  9
$DIMALTF
 40
0.03937007874016
  9
$DIMLFAC
 40
1.0
  9
$DIMTOFL
 70
     1
  9
$DIMTVP
 40
0.0
  9
$DIMTIX
 70
     0
  9
$DIMSOXD
 70
     0
  9
$DIMSAH
 70
     0
  9
$DIMBLK1
  1

  9
$DIMBLK2
  1

  9
$DIMSTYLE
  2
ISO-25
  9
$DIMCLRD
 70
     0
  9
$DIMCLRE
 70
     0
  9
$DIMCLRT
 70
     0
  9
$DIMTFAC
 40
1.0
  9
$DIMGAP
 40
0.625
  9
$DIMJUST
 70
     0
  9
$DIMSD1
 70
     0
  9
$DIMSD2
 70
     0
  9
$DIMTOLJ
 70
     0
  9
$DIMTZIN
 70
     8
  9
$DIMALTZ
 70
     0
  9
$DIMALTTZ
 70
     0
  9
$DIMUPT
 70
     0
  9
$DIMDEC
 70
     2
  9
$DIMTDEC
 70
     2
  9
$DIMALTU
 70
     2
  9
$DIMALTTD
 70
     3
  9
$DIMTXSTY
  7
Standard
  9
$DIMAUNIT
 70
     0
  9
$DIMADEC
 70
     0
  9
$DIMALTRND
 40
0.0
  9
$DIMAZIN
 70
     0
  9
$DIMDSEP
 70
    44
  9
$DIMATFIT
 70
     3
  9
$DIMFRAC
 70
     0
  9
$DIMLDRBLK
  1

  9
$DIMLUNIT
 70
     2
  9
$DIMLWD
 70
    -2
  9
$DIMLWE
 70
    -2
  9
$DIMTMOVE
 70
     0
  9
$LUNITS
 70
     2
  9
$LUPREC
 70
     4
  9
$SKETCHINC
 40
1.0
  9
$FILLETRAD
 40
0.0
  9
$AUNITS
 70
     0
  9
$AUPREC
 70
     0
  9
$MENU
  1
.
  9
$ELEVATION
 40
0.0
  9
$PELEVATION
 40
0.0
  9
$THICKNESS
 40
0.0
  9
$LIMCHECK
 70
     0
  9
$CHAMFERA
 40
0.0
  9
$CHAMFERB
 40
0.0
  9
$CHAMFERC
 40
0.0
  9
$CHAMFERD
 40
0.0
  9
$SKPOLY
 70
     0
  9
$TDCREATE
 40
2455505.725807523
  9
$TDUCREATE
 40
2455505.392474190
  9
$TDUPDATE
 40
2457095.952022558
  9
$TDUUPDATE
 40
2457095.618689224
  9
$TDINDWG
 40
0.0536724884
  9
$TDUSRTIMER
 40
0.0536718403
  9
$USRTIMER
 70
     1
  9
$ANGBASE
 50
0.0
  9
$ANGDIR
 70
     0
  9
$PDMODE
 70
     0
  9
$PDSIZE
 40
0.0
  9
$PLINEWID
 40
0.0
  9
$SPLFRAME
 70
     0
  9
$SPLINETYPE
 70
     6
  9
$SPLINESEGS
 70
     8
  9
$HANDSEED
  5
286
  9
$SURFTAB1
 70
     6
  9
$SURFTAB2
 70
     6
  9
$SURFTYPE
 70
     6
  9
$SURFU
 70
     6
  9
$SURFV
 70
     6
  9
$UCSBASE
  2

  9
$UCSNAME
  2

  9
$UCSORG
 10
0.0
 20
0.0
 30
0.0
  9
$UCSXDIR
 10
1.0
 20
0.0
 30
0.0
  9
$UCSYDIR
 10
0.0
 20
1.0
 30
0.0
  9
$UCSORTHOREF
  2

  9
$UCSORTHOVIEW
 70
     0
  9
$UCSORGTOP
 10
0.0
 20
0.0
 30
0.0
  9
$UCSORGBOTTOM
 10
0.0
 20
0.0
 30
0.0
  9
$UCSORGLEFT
 10
0.0
 20
0.0
 30
0.0
  9
$UCSORGRIGHT
 10
0.0
 20
0.0
 30
0.0
  9
$UCSORGFRONT
 10
0.0
 20
0.0
 30
0.0
  9
$UCSORGBACK
 10
0.0
 20
0.0
 30
0.0
  9
$PUCSBASE
  2

  9
$PUCSNAME
  2

  9
$PUCSORG
 10
0.0
 20
0.0
 30
0.0
  9
$PUCSXDIR
 10
1.0
 20
0.0
 30
0.0
  9
$PUCSYDIR
 10
0.0
 20
1.0
 30
0.0
  9
$PUCSORTHOREF
  2

  9
$PUCSORTHOVIEW
 70
     0
  9
$PUCSORGTOP
 10
0.0
 20
0.0
 30
0.0
  9
$PUCSORGBOTTOM
 10
0.0
 20
0.0
 30
0.0
  9
$PUCSORGLEFT
 10
0.0
 20
0.0
 30
0.0
  9
$PUCSORGRIGHT
 10
0.0
 20
0.0
 30
0.0
  9
$PUCSORGFRONT
 10
0.0
 20
0.0
 30
0.0
  9
$PUCSORGBACK
 10
0.0
 20
0.0
 30
0.0
  9
$USERI1
 70
     0
  9
$USERI2
 70
     0
  9
$USERI3
 70
     0
  9
$USERI4
 70
     0
  9
$USERI5
 70
     0
  9
$USERR1
 40
0.0
  9
$USERR2
 40
0.0
  9
$USERR3
 40
0.0
  9
$USERR4
 40
0.0
  9
$USERR5
 40
0.0
  9
$WORLDVIEW
 70
     1
  9
$SHADEDGE
 70
     3
  9
$SHADEDIF
 70
    70
  9
$TILEMODE
 70
     1
  9
$MAXACTVP
 70
    64
  9
$PINSBASE
 10
0.0
 20
0.0
 30
0.0
  9
$PLIMCHECK
 70
     0
  9
$PEXTMIN
 10
0.0
 20
0.0
 30
0.0
  9
$PEXTMAX
 10
0.0
 20
0.0
 30
0.0
  9
$PLIMMIN
 10
0.0
 20
0.0
  9
$PLIMMAX
 10
12.0
 20
9.0
  9
$UNITMODE
 70
     0
  9
$VISRETAIN
 70
     1
  9
$PLINEGEN
 70
     0
  9
$PSLTSCALE
 70
     1
  9
$TREEDEPTH
 70
  3020
  9
$CMLSTYLE
  2
Standard
  9
$CMLJUST
 70
     0
  9
$CMLSCALE
 40
20.0
  9
$PROXYGRAPHICS
 70
     1
  9
$MEASUREMENT
 70
     1
  9
$CELWEIGHT
370
    -1
  9
$ENDCAPS
280
     0
  9
$JOINSTYLE
280
     0
  9
$LWDISPLAY
290
     0
  9
$INSUNITS
 70
     4
  9
$HYPERLINKBASE
  1

  9
$STYLESHEET
  1

  9
$XEDIT
290
     1
  9
$CEPSNTYPE
380
     0
  9
$PSTYLEMODE
290
     1
  9
$FINGERPRINTGUID
  2
{FDEAD578-A652-11D2-9A35-0060089B3A3F}
  9
$VERSIONGUID
  2
{9956CC6C-3F9C-4A7C-9C3B-5663CD9E0578}
  9
$EXTNAMES
290
     1
  9
$PSVPSCALE
 40
0.0
  9
$OLESTARTUP
290
     0
  0
ENDSEC
  0
SECTION
  2
CLASSES
  0
CLASS
  1
ACDBDICTIONARYWDFLT
  2
AcDbDictionaryWithDefault
  3
ObjectDBX Classes
 90
        0
280
     0
281
     0
  0
CLASS
  1
ACDBPLACEHOLDER
  2
AcDbPlaceHolder
  3
ObjectDBX Classes
 90
        0
280
     0
281
     0
  0
CLASS
  1
LAYOUT
  2
AcDbLayout
  3
ObjectDBX Classes
 90
        0
280
     0
281
     0
  0
CLASS
  1
DICTIONARYVAR
  2
AcDbDictionaryVar
  3
ObjectDBX Classes
 90
        0
280
     0
281
     0
  0
ENDSEC
  0
SECTION
  2
TABLES
  0
TABLE
  2
VPORT
  5
8
330
0
100
AcDbSymbolTable
 70
     3
  0
VPORT
  5
27C
330
8
100
AcDbSymbolTableRecord
100
AcDbViewportTableRecord
  2
*Active
 70
     0
 10
0.0
 20
0.0
 11
1.0
 21
1.0
 12
644.1588242956241
 22
521.8583128609544
 13
0.0
 23
0.0
 14
10.0
 24
10.0
 15
10.0
 25
10.0
 16
0.0
 26
0.0
 36
1.0
 17
0.0
 27
0.0
 37
0.0
 40
1215.270427355287
 41
2.425287356321839
 42
50.0
 43
0.0
 44
0.0
 50
0.0
 51
0.0
 71
     0
 72
  1000
 73
     1
 74
     3
 75
     0
 76
     0
 77
     0
 78
     0
281
     0
 65
     1
110
0.0
120
0.0
130
0.0
111
1.0
121
0.0
131
0.0
112
0.0
122
1.0
132
0.0
 79
     0
146
0.0
  0
ENDTAB
  0
TABLE
  2
LTYPE
  5
5
330
0
100
AcDbSymbolTable
 70
     1
  0
LTYPE
  5
14
330
5
100
AcDbSymbolTableRecord
100
AcDbLinetypeTableRecord
  2
ByBlock
 70
     0
  3

 72
    65
 73
     0
 40
0.0
  0
LTYPE
  5
15
330
5
100
AcDbSymbolTableRecord
100
AcDbLinetypeTableRecord
  2
ByLayer
 70
     0
  3

 72
    65
 73
     0
 40
0.0
  0
LTYPE
  5
16
330
5
100
AcDbSymbolTableRecord
100
AcDbLinetypeTableRecord
  2
Continuous
 70
     0
  3
Solid line
 72
    65
 73
     0
 40
0.0
  0
ENDTAB
  0
TABLE
  2
LAYER
  5
2
330
0
100
AcDbSymbolTable
 70
     4
  0
LAYER
  5
10
330
2
100
AcDbSymbolTableRecord
100
AcDbLayerTableRecord
  2
0
 70
     0
 62
     2
  6
Continuous
370
    -3
390
F
  0
LAYER
  5
94
330
2
100
AcDbSymbolTableRecord
100
AcDbLayerTableRecord
  2
1
 70
     0
 62
     1
  6
Continuous
370
    -3
390
F
  0
LAYER
  5
95
330
2
100
AcDbSymbolTableRecord
100
AcDbLayerTableRecord
  2
2
 70
     0
 62
     7
  6
Continuous
370
    -3
390
F
  0
LAYER
  5
10E
330
2
100
AcDbSymbolTableRecord
100
AcDbLayerTableRecord
  2
3
 70
     0
 62
     7
  6
Continuous
370
    -3
390
F
  0
ENDTAB
  0
TABLE
  2
STYLE
  5
3
330
0
100
AcDbSymbolTable
 70
     1
  0
STYLE
  5
11
330
3
100
AcDbSymbolTableRecord
100
AcDbTextStyleTableRecord
  2
Standard
 70
     0
 40
0.0
 41
1.0
 50
0.0
 71
     0
 42
2.5
  3
txt
  4

  0
ENDTAB
  0
TABLE
  2
VIEW
  5
6
330
0
100
AcDbSymbolTable
 70
     0
  0
ENDTAB
  0
TABLE
  2
UCS
  5
7
330
0
100
AcDbSymbolTable
 70
     0
  0
ENDTAB
  0
TABLE
  2
APPID
  5
9
330
0
100
AcDbSymbolTable
 70
     1
  0
APPID
  5
12
330
9
100
AcDbSymbolTableRecord
100
AcDbRegAppTableRecord
  2
ACAD
 70
     0
  0
ENDTAB
  0
TABLE
  2
DIMSTYLE
  5
A
330
0
100
AcDbSymbolTable
 70
     1
100
AcDbDimStyleTable
 71
     0
  0
DIMSTYLE
105
27
330
A
100
AcDbSymbolTableRecord
100
AcDbDimStyleTableRecord
  2
ISO-25
 70
     0
 41
2.5
 42
0.625
 43
3.75
 44
1.25
 73
     0
 74
     0
 77
     1
 78
     8
140
2.5
141
2.5
143
0.03937007874016
147
0.625
171
     3
172
     1
271
     2
272
     2
274
     3
278
    44
283
     0
284
     8
340
11
  0
ENDTAB
  0
TABLE
  2
BLOCK_RECORD
  5
1
330
0
100
AcDbSymbolTable
 70
     1
  0
BLOCK_RECORD
  5
1F
330
1
100
AcDbSymbolTableRecord
100
AcDbBlockTableRecord
  2
*Model_Space
340
22
  0
BLOCK_RECORD
  5
50
330
1
100
AcDbSymbolTableRecord
100
AcDbBlockTableRecord
  2
*Paper_Space
340
51
  0
BLOCK_RECORD
  5
55
330
1
100
AcDbSymbolTableRecord
100
AcDbBlockTableRecord
  2
*Paper_Space0
340
56
  0
ENDTAB
  0
ENDSEC
  0
SECTION
  2
BLOCKS
  0
BLOCK
  5
20
330
1F
100
AcDbEntity
  8
0
100
AcDbBlockBegin
  2
*Model_Space
 70
     0
 10
0.0
 20
0.0
 30
0.0
  3
*Model_Space
  1

  0
ENDBLK
  5
21
330
1F
100
AcDbEntity
  8
0
100
AcDbBlockEnd
  0
BLOCK
  5
52
330
50
100
AcDbEntity
 67
     1
  8
0
100
AcDbBlockBegin
  2
*Paper_Space
 70
     0
 10
0.0
 20
0.0
 30
0.0
  3
*Paper_Space
  1

  0
ENDBLK
  5
53
330
50
100
AcDbEntity
 67
     1
  8
0
100
AcDbBlockEnd
  0
BLOCK
  5
57
330
55
100
AcDbEntity
  8
0
100
AcDbBlockBegin
  2
*Paper_Space0
 70
     0
 10
0.0
 20
0.0
 30
0.0
  3
*Paper_Space0
  1

  0
ENDBLK
  5
58
330
55
100
AcDbEntity
  8
0
100
AcDbBlockEnd
  0
ENDSEC
  0
SECTION
  2
ENTITIES
  0
MTEXT
  5
220
330
1F
100
AcDbEntity
  8
3
100
AcDbMText
 10
676.2912224536742
 20
604.6125117521646
 30
0.0
 40
30.45907585298857
 41
137.8028647293189
 71
     1
 72
     5
  1
{\f@Batang|b0|i0|c0|p18;30}
 11
0.8307183448815127
 21
-0.5566929418245933
 31
0.0
 73
     1
 44
1.0
1001
ACAD
1000
MTEXTBEGIN
1070
    73
1070
     1
1070
    44
1040
1.0
1070
    74
1070
     0
1000
MTEXTEND
  0
MTEXT
  5
221
330
1F
100
AcDbEntity
  8
3
100
AcDbMText
 10
478.0096220823407
 20
643.8084639531811
 30
0.0
 40
30.45907585298857
 41
137.8028647293189
 71
     1
 72
     5
  1
{\f@Batang|b0|i0|c0|p18;20}
 11
0.999222921683401
 21
0.0394151339270585
 31
0.0
 73
     1
 44
1.0
1001
ACAD
1000
MTEXTBEGIN
1070
    73
1070
     1
1070
    44
1040
1.0
1070
    74
1070
     0
1000
MTEXTEND
  0
MTEXT
  5
222
330
1F
100
AcDbEntity
  8
3
100
AcDbMText
 10
288.2750042381854
 20
586.5214032387609
 30
0.0
 40
30.45907585298857
 41
137.8028647293189
 71
     1
 72
     5
  1
{\f@Batang|b0|i0|c0|p18;10}
 11
0.8847043201888784
 21
0.4661526207575523
 31
0.0
 73
     1
 44
1.0
1001
ACAD
1000
MTEXTBEGIN
1070
    73
1070
     1
1070
    44
1040
1.0
1070
    74
1070
     0
1000
MTEXTEND
  0
MTEXT
  5
223
330
1F
100
AcDbEntity
  8
3
100
AcDbMText
 10
164.7598939848778
 20
455.7257628467488
 30
0.0
 40
30.45907585298857
 41
137.8028647293189
 71
     1
 72
     5
  1
{\f@Batang|b0|i0|c0|p18;0}
 11
0.4995887359395656
 21
0.8662627170335262
 31
0.0
 73
     1
 44
1.0
1001
ACAD
1000
MTEXTBEGIN
1070
    73
1070
     1
1070
    44
1040
1.0
1070
    74
1070
     0
1000
MTEXTEND
  0
LINE
  5
224
330
1F
100
AcDbEntity
  8
3
100
AcDbLine
 10
903.9141951575485
 20
520.856740402859
 30
0.0
 11
884.4268145227399
 21
508.2014874419985
 31
0.0
  0
LINE
  5
225
330
1F
100
AcDbEntity
  8
3
100
AcDbLine
 10
889.6326684197433
 20
541.6364907414304
 30
0.0
 11
870.8343192735958
 21
527.9786906251929
 31
0.0
  0
LINE
  5
226
330
1F
100
AcDbEntity
  8
3
100
AcDbLine
 10
874.2831859135103
 20
561.6403257959331
 30
0.0
 11
844.8923206497548
 21
537.8400723746341
 31
0.0
  0
LINE
  5
227
330
1F
100
AcDbEntity
  8
3
100
AcDbLine
 10
857.9078195034995
 20
580.8134164449175
 30
0.0
 11
829.8028424229707
 21
555.507581407383
 31
0.0
  0
LINE
  5
228
330
1F
100
AcDbEntity
  8
3
100
AcDbLine
 10
840.5514529308035
 20
599.1032105796013
 30
0.0
 11
798.7266653462645
 21
557.2784229797439
 31
0.0
  0
LINE
  5
229
330
1F
100
AcDbEntity
  8
3
100
AcDbLine
 10
822.2616587897615
 20
616.4595771455952
 30
0.0
 11
796.9558237668855
 21
588.3546000606539
 31
0.0
  0
LINE
  5
22A
330
1F
100
AcDbEntity
  8
3
100
AcDbLine
 10
803.0885681347694
 20
632.8349435485793
 30
0.0
 11
779.2883147324448
 21
603.444078286249
 31
0.0
  0
LINE
  5
22B
330
1F
100
AcDbEntity
  8
3
100
AcDbLine
 10
783.0847330746433
 20
648.1844260474829
 30
0.0
 11
760.8552961329142
 21
617.5882309268537
 31
0.0
  0
LINE
  5
22C
330
1F
100
AcDbEntity
  8
3
100
AcDbLine
 10
762.3049827308441
 20
662.4659527776694
 30
0.0
 11
741.7072915909832
 21
630.7482898432085
 31
0.0
  0
LINE
  5
22D
330
1F
100
AcDbEntity
  8
3
100
AcDbLine
 10
740.8062729546639
 20
675.6403790670922
 30
0.0
 11
701.6092133232935
 21
607.749080249526
 31
0.0
  0
LINE
  5
22E
330
1F
100
AcDbEntity
  8
3
100
AcDbLine
 10
718.6475302153601
 20
687.6715947292458
 30
0.0
 11
701.4780739509141
 21
653.9746394764104
 31
0.0
  0
LINE
  5
22F
330
1F
100
AcDbEntity
  8
3
100
AcDbLine
 10
695.8894900864181
 20
698.5266230380642
 30
0.0
 11
680.5071263423108
 21
663.9772683831218
 31
0.0
  0
LINE
  5
230
330
1F
100
AcDbEntity
  8
3
100
AcDbLine
 10
672.5945307739257
 20
708.1757111154965
 30
0.0
 11
659.041421539618
 21
672.8686544383171
 31
0.0
  0
LINE
  5
231
330
1F
100
AcDbEntity
  8
3
100
AcDbLine
 10
648.8265021421644
 20
716.5924114818145
 30
0.0
 11
637.1397955476254
 21
680.6244269708225
 31
0.0
  0
LINE
  5
232
330
1F
100
AcDbEntity
  8
3
100
AcDbLine
 10
624.6505507055478
 20
723.7536545463293
 30
0.0
 11
609.3416159588014
 21
666.6199322220437
 31
0.0
  0
LINE
  5
233
330
1F
100
AcDbEntity
  8
3
100
AcDbLine
 10
600.1329410664802
 20
729.6398118395968
 30
0.0
 11
592.2699336230143
 21
692.6472702384887
 31
0.0
  0
LINE
  5
234
330
1F
100
AcDbEntity
  8
3
100
AcDbLine
 10
575.3408742887491
 20
734.2347498136194
 30
0.0
 11
569.4246828629279
 21
696.8813871959119
 31
0.0
  0
LINE
  5
235
330
1F
100
AcDbEntity
  8
3
100
AcDbLine
 10
550.3423037041484
 20
737.5258740627972
 30
0.0
 11
547.9134763624613
 21
714.4171254991065
 31
0.0
  0
LINE
  5
236
330
1F
100
AcDbEntity
  8
3
100
AcDbLine
 10
525.2057486570438
 20
739.5041638443242
 30
0.0
 11
523.2264563396443
 21
701.7370164660398
 31
0.0
  0
LINE
  5
237
330
1F
100
AcDbEntity
  8
3
100
AcDbLine
 10
474.7944647348506
 20
739.5041638397064
 30
0.0
 11
476.7737570589248
 21
701.7370164663957
 31
0.0
  0
LINE
  5
238
330
1F
100
AcDbEntity
  8
3
100
AcDbLine
 10
449.6579096881112
 20
737.5258740535798
 30
0.0
 11
453.6110692331693
 21
699.9140733998083
 31
0.0
  0
LINE
  5
239
330
1F
100
AcDbEntity
  8
3
100
AcDbLine
 10
424.6593391041114
 20
734.2347497998201
 30
0.0
 11
430.5755305346034
 21
696.88138719682
 31
0.0
  0
LINE
  5
23A
330
1F
100
AcDbEntity
  8
3
100
AcDbLine
 10
399.867272327222
 20
729.6398118212598
 30
0.0
 11
407.7302797736534
 21
692.6472702395265
 31
0.0
  0
LINE
  5
23B
330
1F
100
AcDbEntity
  8
3
100
AcDbLine
 10
375.3496626892319
 20
723.7536545234995
 30
0.0
 11
390.6585974405382
 21
666.6199322240653
 31
0.0
  0
LINE
  5
23C
330
1F
100
AcDbEntity
  8
3
100
AcDbLine
 10
351.173711253925
 20
716.5924114545579
 30
0.0
 11
362.8604178466242
 21
680.6244269716238
 31
0.0
  0
LINE
  5
23D
330
1F
100
AcDbEntity
  8
3
100
AcDbLine
 10
327.4056826237085
 20
708.1757110838903
 30
0.0
 11
340.9587918531625
 21
672.8686544387002
 31
0.0
  0
LINE
  5
23E
330
1F
100
AcDbEntity
  8
3
100
AcDbLine
 10
304.1107233129793
 20
698.5266230021872
 30
0.0
 11
319.4930870488223
 21
663.9772683828278
 31
0.0
  0
LINE
  5
23F
330
1F
100
AcDbEntity
  8
3
100
AcDbLine
 10
281.3526831860277
 20
687.6715946892011
 30
0.0
 11
298.5221394384643
 21
653.9746394751857
 31
0.0
  0
LINE
  5
240
330
1F
100
AcDbEntity
  8
3
100
AcDbLine
 10
259.1939404489283
 20
675.6403790229908
 30
0.0
 11
298.3910000706896
 21
607.749080250795
 31
0.0
  0
LINE
  5
241
330
1F
100
AcDbEntity
  8
3
100
AcDbLine
 10
237.6952306751614
 20
662.4659527296318
 30
0.0
 11
258.2929217946641
 21
630.7482898392232
 31
0.0
  0
LINE
  5
242
330
1F
100
AcDbEntity
  8
3
100
AcDbLine
 10
216.9154803339764
 20
648.1844259956379
 30
0.0
 11
239.1449172508361
 21
617.588230921016
 31
0.0
  0
LINE
  5
243
330
1F
100
AcDbEntity
  8
3
100
AcDbLine
 10
196.9116452766593
 20
632.8349434930741
 30
0.0
 11
220.7118986494261
 21
603.4440782782204
 31
0.0
  0
LINE
  5
244
330
1F
100
AcDbEntity
  8
3
100
AcDbLine
 10
177.7385546246692
 20
616.4595770865766
 30
0.0
 11
203.0443896131954
 21
588.3546000501183
 31
0.0
  0
LINE
  5
245
330
1F
100
AcDbEntity
  8
3
100
AcDbLine
 10
159.4487604868062
 20
599.1032105172339
 30
0.0
 11
201.2735480349074
 21
557.2784229691328
 31
0.0
  0
LINE
  5
246
330
1F
100
AcDbEntity
  8
3
100
AcDbLine
 10
142.0923939174591
 20
580.813416379371
 30
0.0
 11
170.1973709539173
 21
555.5075813908358
 31
0.0
  0
LINE
  5
247
330
1F
100
AcDbEntity
  8
3
100
AcDbLine
 10
125.7170275109573
 20
561.6403257273852
 30
0.0
 11
155.107892725811
 21
537.8400723546007
 31
0.0
  0
LINE
  5
248
330
1F
100
AcDbEntity
  8
3
100
AcDbLine
 10
110.3675450083887
 20
541.6364906700729
 30
0.0
 11
140.9637400830197
 21
519.4070537531954
 31
0.0
  0
LINE
  5
249
330
1F
100
AcDbEntity
  8
3
100
AcDbLine
 10
96.08601827439072
 20
520.8567403288876
 30
0.0
 11
115.5733988494859
 21
508.2014874118882
 31
0.0
  0
ARC
  5
24A
330
1F
100
AcDbEntity
  8
3
100
AcDbCircle
 10
500.0001066958893
 20
258.5518643081509
 30
0.0
 40
481.6123324917963
100
AcDbArc
 50
29.99999999995822
 51
150.0000000000418
  0
LINE
  5
24B
330
1F
100
AcDbEntity
  8
3
100
AcDbLine
 10
500.0001066958893
 20
258.5518643081555
 30
0.0
 11
82.91159198211795
 21
499.3580305540522
 31
0.0
  0
LINE
  5
24C
330
1F
100
AcDbEntity
  8
3
100
AcDbLine
 10
500.0001066958893
 20
258.5518643081509
 30
0.0
 11
917.0886214096563
 21
499.3580305540477
 31
0.0
  0
LINE
  5
24D
330
1F
100
AcDbEntity
  8
3
100
AcDbLine
 10
500.0001066958893
 20
740.164196799949
 30
0.0
 11
500.0001066958893
 21
661.7700775578825
 31
0.0
  0
LWPOLYLINE
  5
24E
330
1F
100
AcDbEntity
  8
0
 62
     2
100
AcDbPolyline
 90
        4
 70
     1
 43
0.0
 10
0.0000991628548945
 20
-0.0000266564384219
 10
1000.000099162855
 20
-0.0000266564384219
 10
1000.000099162855
 20
999.9999733435615
 10
0.0000991628548945
 20
999.9999733435615
  0
LINE
  5
24F
330
1F
100
AcDbEntity
  8
1
 62
     1
100
AcDbLine
 10
38.20307691367413
 20
224.8860749450664
 30
0.0
 11
961.7971214120359
 21
224.8860749450664
 31
0.0
  0
LINE
  5
250
330
1F
100
AcDbEntity
  8
1
 62
     1
100
AcDbLine
 10
961.7971214120361
 20
224.8860749450664
 30
0.0
 11
961.7971214120359
 21
775.1138717420567
 31
0.0
  0
LINE
  5
251
330
1F
100
AcDbEntity
  8
1
 62
     1
100
AcDbLine
 10
961.7971214120359
 20
775.1138717420567
 30
0.0
 11
38.20307691367413
 21
775.1138717420567
 31
0.0
  0
LINE
  5
252
330
1F
100
AcDbEntity
  8
1
 62
     1
100
AcDbLine
 10
38.20307691367413
 20
775.1138717420567
 30
0.0
 11
38.20307691367413
 21
224.8860749450664
 31
0.0
  0
ENDSEC
  0
SECTION
  2
OBJECTS
  0
DICTIONARY
  5
C
330
0
100
AcDbDictionary
281
     1
  3
ACAD_COLOR
350
6B
  3
ACAD_GROUP
350
D
  3
ACAD_LAYOUT
350
1A
  3
ACAD_MATERIAL
350
6A
  3
ACAD_MLINESTYLE
350
17
  3
ACAD_PLOTSETTINGS
350
19
  3
ACAD_PLOTSTYLENAME
350
E
  3
ACDBHEADERROUNDTRIPXREC
350
27D
  3
AcDbVariableDictionary
350
5E
  0
DICTIONARY
  5
6B
102
{ACAD_REACTORS
330
C
102
}
330
C
100
AcDbDictionary
281
     1
  0
DICTIONARY
  5
D
102
{ACAD_REACTORS
330
C
102
}
330
C
100
AcDbDictionary
281
     1
  0
DICTIONARY
  5
1A
102
{ACAD_REACTORS
330
C
102
}
330
C
100
AcDbDictionary
281
     1
  3
Layout1
350
51
  3
Layout2
350
56
  3
Model
350
22
  0
DICTIONARY
  5
6A
102
{ACAD_REACTORS
330
C
102
}
330
C
100
AcDbDictionary
281
     1
  0
DICTIONARY
  5
17
102
{ACAD_REACTORS
330
C
102
}
330
C
100
AcDbDictionary
281
     1
  3
Standard
350
18
  0
DICTIONARY
  5
19
102
{ACAD_REACTORS
330
C
102
}
330
C
100
AcDbDictionary
281
     1
  0
ACDBDICTIONARYWDFLT
  5
E
102
{ACAD_REACTORS
330
C
102
}
330
C
100
AcDbDictionary
281
     1
  3
Normal
350
F
100
AcDbDictionaryWithDefault
340
F
  0
DICTIONARY
  5
27D
102
{ACAD_REACTORS
330
C
102
}
330
C
100
AcDbDictionary
281
     1
  3
COLORDICT
350
27F
  3
MATERIALDICT
350
27E
  0
DICTIONARY
  5
5E
102
{ACAD_REACTORS
330
C
102
}
330
C
100
AcDbDictionary
281
     1
  3
DIMASSOC
350
5F
  3
HIDETEXT
350
63
  3
PROJECTNAME
350
85
  0
LAYOUT
  5
51
102
{ACAD_XDICTIONARY
360
282
102
}
102
{ACAD_REACTORS
330
1A
102
}
330
1A
100
AcDbPlotSettings
  1

  2
None
  4

  6

 40
0.0
 41
0.0
 42
0.0
 43
0.0
 44
0.0
 45
0.0
 46
0.0
 47
0.0
 48
0.0
 49
0.0
140
0.0
141
0.0
142
1.0
143
1.0
 70
   688
 72
     0
 73
     0
 74
     5
  7

 75
    16
147
1.0
148
0.0
149
0.0
100
AcDbLayout
  1
Layout1
 70
     1
 71
     1
 10
0.0
 20
0.0
 11
12.0
 21
9.0
 12
0.0
 22
0.0
 32
0.0
 14
0.0
 24
0.0
 34
0.0
 15
0.0
 25
0.0
 35
0.0
146
0.0
 13
0.0
 23
0.0
 33
0.0
 16
1.0
 26
0.0
 36
0.0
 17
0.0
 27
1.0
 37
0.0
 76
     0
330
50
  0
LAYOUT
  5
56
102
{ACAD_XDICTIONARY
360
284
102
}
102
{ACAD_REACTORS
330
1A
102
}
330
1A
100
AcDbPlotSettings
  1

  2
None
  4

  6

 40
0.0
 41
0.0
 42
0.0
 43
0.0
 44
0.0
 45
0.0
 46
0.0
 47
0.0
 48
0.0
 49
0.0
140
0.0
141
0.0
142
1.0
143
1.0
 70
   688
 72
     0
 73
     0
 74
     5
  7

 75
    16
147
1.0
148
0.0
149
0.0
100
AcDbLayout
  1
Layout2
 70
     1
 71
     2
 10
0.0
 20
0.0
 11
12.0
 21
9.0
 12
0.0
 22
0.0
 32
0.0
 14
0.0
 24
0.0
 34
0.0
 15
0.0
 25
0.0
 35
0.0
146
0.0
 13
0.0
 23
0.0
 33
0.0
 16
1.0
 26
0.0
 36
0.0
 17
0.0
 27
1.0
 37
0.0
 76
     0
330
55
  0
LAYOUT
  5
22
102
{ACAD_XDICTIONARY
360
280
102
}
102
{ACAD_REACTORS
330
1A
102
}
330
1A
100
AcDbPlotSettings
  1

  2
none_device
  4
ANSI_A_(8.50_x_11.00_Inches)
  6

 40
6.349999904632567
 41
19.04999923706055
 42
6.350006103515625
 43
19.04998779296875
 44
215.8999938964844
 45
279.3999938964844
 46
0.0
 47
0.0
 48
0.0
 49
0.0
140
0.0
141
0.0
142
1.0
143
78.436453180766
 70
 11952
 72
     0
 73
     1
 74
     0
  7

 75
     0
147
0.0127491741332998
148
0.0
149
0.0
100
AcDbLayout
  1
Model
 70
     1
 71
     0
 10
0.0
 20
0.0
 11
12.0
 21
9.0
 12
0.0
 22
0.0
 32
0.0
 14
0.0
 24
0.0
 34
0.0
 15
0.0
 25
0.0
 35
0.0
146
0.0
 13
0.0
 23
0.0
 33
0.0
 16
1.0
 26
0.0
 36
0.0
 17
0.0
 27
1.0
 37
0.0
 76
     0
330
1F
  0
MLINESTYLE
  5
18
102
{ACAD_REACTORS
330
17
102
}
330
17
100
AcDbMlineStyle
  2
STANDARD
 70
     0
  3

 62
   256
 51
90.0
 52
90.0
 71
     2
 49
0.5
 62
   256
  6
BYLAYER
 49
-0.5
 62
   256
  6
BYLAYER
  0
ACDBPLACEHOLDER
  5
F
102
{ACAD_REACTORS
330
E
102
}
330
E
  0
XRECORD
  5
27F
102
{ACAD_REACTORS
330
27D
102
}
330
27D
100
AcDbXrecord
280
     1
340
6B
  0
XRECORD
  5
27E
102
{ACAD_REACTORS
330
27D
102
}
330
27D
100
AcDbXrecord
280
     1
340
6A
  0
DICTIONARYVAR
  5
5F
102
{ACAD_REACTORS
330
5E
102
}
330
5E
100
DictionaryVariables
280
     0
  1
2
  0
DICTIONARYVAR
  5
63
102
{ACAD_REACTORS
330
5E
102
}
330
5E
100
DictionaryVariables
280
     0
  1
1
  0
DICTIONARYVAR
  5
85
102
{ACAD_REACTORS
330
5E
102
}
330
5E
100
DictionaryVariables
280
     0
  1

  0
DICTIONARY
  5
282
330
51
100
AcDbDictionary
280
     1
281
     1
  3
ACAD_XREC_ROUNDTRIP
360
283
  0
DICTIONARY
  5
284
330
56
100
AcDbDictionary
280
     1
281
     1
  3
ACAD_XREC_ROUNDTRIP
360
285
  0
DICTIONARY
  5
280
330
22
100
AcDbDictionary
280
     1
281
     1
  3
ACAD_XREC_ROUNDTRIP
360
281
  0
XRECORD
  5
283
102
{ACAD_REACTORS
330
282
102
}
330
282
100
AcDbXrecord
280
     1
102
SHADEPLOT
 70
     0
102
SHADEPLOTRESLEVEL
 70
     2
102
SHADEPLOTCUSTOMDPI
 70
   300
  0
XRECORD
  5
285
102
{ACAD_REACTORS
330
284
102
}
330
284
100
AcDbXrecord
280
     1
102
SHADEPLOT
 70
     0
102
SHADEPLOTRESLEVEL
 70
     2
102
SHADEPLOTCUSTOMDPI
 70
   300
  0
XRECORD
  5
281
102
{ACAD_REACTORS
330
280
102
}
330
280
100
AcDbXrecord
280
     1
102
SHADEPLOT
 70
     0
102
SHADEPLOTRESLEVEL
 70
     2
102
SHADEPLOTCUSTOMDPI
 70
   300
  0
ENDSEC
  0
EOF
