  0
SECTION
  2
HEADER
  9
$ACADVER
  1
AC1015
  9
$ACADMAINTVER
 70
    20
  9
$DWGCODEPAGE
  3
ANSI_936
  9
$INSBASE
 10
0.0
 20
0.0
 30
0.0
  9
$EXTMIN
 10
0.0000372446666006
 20
0.0000387385953218
 30
0.0
  9
$EXTMAX
 10
1000.000037244666
 20
1000.000038738595
 30
0.0
  9
$LIMMIN
 10
0.0
 20
0.0
  9
$LIMMAX
 10
420.0
 20
297.0
  9
$ORTHOMODE
 70
     0
  9
$REGENMODE
 70
     1
  9
$FILLMODE
 70
     1
  9
$QTEXTMODE
 70
     0
  9
$MIRRTEXT
 70
     0
  9
$LTSCALE
 40
1.0
  9
$ATTMODE
 70
     1
  9
$TEXTSIZE
 40
2.5
  9
$TRACEWID
 40
1.0
  9
$TEXTSTYLE
  7
Standard
  9
$CLAYER
  8
2
  9
$CELTYPE
  6
ByLayer
  9
$CECOLOR
 62
   256
  9
$CELTSCALE
 40
1.0
  9
$DISPSILH
 70
     0
  9
$DIMSCALE
 40
1.0
  9
$DIMASZ
 40
2.5
  9
$DIMEXO
 40
0.625
  9
$DIMDLI
 40
3.75
  9
$DIMRND
 40
0.0
  9
$DIMDLE
 40
0.0
  9
$DIMEXE
 40
1.25
  9
$DIMTP
 40
0.0
  9
$DIMTM
 40
0.0
  9
$DIMTXT
 40
2.5
  9
$DIMCEN
 40
2.5
  9
$DIMTSZ
 40
0.0
  9
$DIMTOL
 70
     0
  9
$DIMLIM
 70
     0
  9
$DIMTIH
 70
     0
  9
$DIMTOH
 70
     0
  9
$DIMSE1
 70
     0
  9
$DIMSE2
 70
     0
  9
$DIMTAD
 70
     1
  9
$DIMZIN
 70
     8
  9
$DIMBLK
  1

  9
$DIMASO
 70
     1
  9
$DIMSHO
 70
     1
  9
$DIMPOST
  1

  9
$DIMAPOST
  1

  9
$DIMALT
 70
     0
  9
$DIMALTD
 70
     3
  9
$DIMALTF
 40
0.03937007874016
  9
$DIMLFAC
 40
1.0
  9
$DIMTOFL
 70
     1
  9
$DIMTVP
 40
0.0
  9
$DIMTIX
 70
     0
  9
$DIMSOXD
 70
     0
  9
$DIMSAH
 70
     0
  9
$DIMBLK1
  1

  9
$DIMBLK2
  1

  9
$DIMSTYLE
  2
ISO-25
  9
$DIMCLRD
 70
     0
  9
$DIMCLRE
 70
     0
  9
$DIMCLRT
 70
     0
  9
$DIMTFAC
 40
1.0
  9
$DIMGAP
 40
0.625
  9
$DIMJUST
 70
     0
  9
$DIMSD1
 70
     0
  9
$DIMSD2
 70
     0
  9
$DIMTOLJ
 70
     0
  9
$DIMTZIN
 70
     8
  9
$DIMALTZ
 70
     0
  9
$DIMALTTZ
 70
     0
  9
$DIMUPT
 70
     0
  9
$DIMDEC
 70
     2
  9
$DIMTDEC
 70
     2
  9
$DIMALTU
 70
     2
  9
$DIMALTTD
 70
     3
  9
$DIMTXSTY
  7
Standard
  9
$DIMAUNIT
 70
     0
  9
$DIMADEC
 70
     0
  9
$DIMALTRND
 40
0.0
  9
$DIMAZIN
 70
     0
  9
$DIMDSEP
 70
    44
  9
$DIMATFIT
 70
     3
  9
$DIMFRAC
 70
     0
  9
$DIMLDRBLK
  1

  9
$DIMLUNIT
 70
     2
  9
$DIMLWD
 70
    -2
  9
$DIMLWE
 70
    -2
  9
$DIMTMOVE
 70
     0
  9
$LUNITS
 70
     2
  9
$LUPREC
 70
     4
  9
$SKETCHINC
 40
1.0
  9
$FILLETRAD
 40
0.0
  9
$AUNITS
 70
     0
  9
$AUPREC
 70
     0
  9
$MENU
  1
.
  9
$ELEVATION
 40
0.0
  9
$PELEVATION
 40
0.0
  9
$THICKNESS
 40
0.0
  9
$LIMCHECK
 70
     0
  9
$CHAMFERA
 40
0.0
  9
$CHAMFERB
 40
0.0
  9
$CHAMFERC
 40
0.0
  9
$CHAMFERD
 40
0.0
  9
$SKPOLY
 70
     0
  9
$TDCREATE
 40
2455505.725807523
  9
$TDUCREATE
 40
2455505.392474190
  9
$TDUPDATE
 40
2457122.708299884
  9
$TDUUPDATE
 40
2457122.374966551
  9
$TDINDWG
 40
0.0796160880
  9
$TDUSRTIMER
 40
0.0796148380
  9
$USRTIMER
 70
     1
  9
$ANGBASE
 50
0.0
  9
$ANGDIR
 70
     0
  9
$PDMODE
 70
     0
  9
$PDSIZE
 40
0.0
  9
$PLINEWID
 40
0.0
  9
$SPLFRAME
 70
     0
  9
$SPLINETYPE
 70
     6
  9
$SPLINESEGS
 70
     8
  9
$HANDSEED
  5
455
  9
$SURFTAB1
 70
     6
  9
$SURFTAB2
 70
     6
  9
$SURFTYPE
 70
     6
  9
$SURFU
 70
     6
  9
$SURFV
 70
     6
  9
$UCSBASE
  2

  9
$UCSNAME
  2

  9
$UCSORG
 10
0.0
 20
0.0
 30
0.0
  9
$UCSXDIR
 10
1.0
 20
0.0
 30
0.0
  9
$UCSYDIR
 10
0.0
 20
1.0
 30
0.0
  9
$UCSORTHOREF
  2

  9
$UCSORTHOVIEW
 70
     0
  9
$UCSORGTOP
 10
0.0
 20
0.0
 30
0.0
  9
$UCSORGBOTTOM
 10
0.0
 20
0.0
 30
0.0
  9
$UCSORGLEFT
 10
0.0
 20
0.0
 30
0.0
  9
$UCSORGRIGHT
 10
0.0
 20
0.0
 30
0.0
  9
$UCSORGFRONT
 10
0.0
 20
0.0
 30
0.0
  9
$UCSORGBACK
 10
0.0
 20
0.0
 30
0.0
  9
$PUCSBASE
  2

  9
$PUCSNAME
  2

  9
$PUCSORG
 10
0.0
 20
0.0
 30
0.0
  9
$PUCSXDIR
 10
1.0
 20
0.0
 30
0.0
  9
$PUCSYDIR
 10
0.0
 20
1.0
 30
0.0
  9
$PUCSORTHOREF
  2

  9
$PUCSORTHOVIEW
 70
     0
  9
$PUCSORGTOP
 10
0.0
 20
0.0
 30
0.0
  9
$PUCSORGBOTTOM
 10
0.0
 20
0.0
 30
0.0
  9
$PUCSORGLEFT
 10
0.0
 20
0.0
 30
0.0
  9
$PUCSORGRIGHT
 10
0.0
 20
0.0
 30
0.0
  9
$PUCSORGFRONT
 10
0.0
 20
0.0
 30
0.0
  9
$PUCSORGBACK
 10
0.0
 20
0.0
 30
0.0
  9
$USERI1
 70
     0
  9
$USERI2
 70
     0
  9
$USERI3
 70
     0
  9
$USERI4
 70
     0
  9
$USERI5
 70
     0
  9
$USERR1
 40
0.0
  9
$USERR2
 40
0.0
  9
$USERR3
 40
0.0
  9
$USERR4
 40
0.0
  9
$USERR5
 40
0.0
  9
$WORLDVIEW
 70
     1
  9
$SHADEDGE
 70
     3
  9
$SHADEDIF
 70
    70
  9
$TILEMODE
 70
     1
  9
$MAXACTVP
 70
    64
  9
$PINSBASE
 10
0.0
 20
0.0
 30
0.0
  9
$PLIMCHECK
 70
     0
  9
$PEXTMIN
 10
0.0
 20
0.0
 30
0.0
  9
$PEXTMAX
 10
0.0
 20
0.0
 30
0.0
  9
$PLIMMIN
 10
0.0
 20
0.0
  9
$PLIMMAX
 10
12.0
 20
9.0
  9
$UNITMODE
 70
     0
  9
$VISRETAIN
 70
     1
  9
$PLINEGEN
 70
     0
  9
$PSLTSCALE
 70
     1
  9
$TREEDEPTH
 70
  3020
  9
$CMLSTYLE
  2
Standard
  9
$CMLJUST
 70
     0
  9
$CMLSCALE
 40
20.0
  9
$PROXYGRAPHICS
 70
     1
  9
$MEASUREMENT
 70
     1
  9
$CELWEIGHT
370
    -1
  9
$ENDCAPS
280
     0
  9
$JOINSTYLE
280
     0
  9
$LWDISPLAY
290
     0
  9
$INSUNITS
 70
     4
  9
$HYPERLINKBASE
  1

  9
$STYLESHEET
  1

  9
$XEDIT
290
     1
  9
$CEPSNTYPE
380
     0
  9
$PSTYLEMODE
290
     1
  9
$FINGERPRINTGUID
  2
{FDEAD578-A652-11D2-9A35-0060089B3A3F}
  9
$VERSIONGUID
  2
{0702FC30-3F16-40D6-A776-B11510AC7FF3}
  9
$EXTNAMES
290
     1
  9
$PSVPSCALE
 40
0.0
  9
$OLESTARTUP
290
     0
  0
ENDSEC
  0
SECTION
  2
CLASSES
  0
CLASS
  1
ACDBDICTIONARYWDFLT
  2
AcDbDictionaryWithDefault
  3
ObjectDBX Classes
 90
        0
280
     0
281
     0
  0
CLASS
  1
ACDBPLACEHOLDER
  2
AcDbPlaceHolder
  3
ObjectDBX Classes
 90
        0
280
     0
281
     0
  0
CLASS
  1
LAYOUT
  2
AcDbLayout
  3
ObjectDBX Classes
 90
        0
280
     0
281
     0
  0
CLASS
  1
DICTIONARYVAR
  2
AcDbDictionaryVar
  3
ObjectDBX Classes
 90
        0
280
     0
281
     0
  0
ENDSEC
  0
SECTION
  2
TABLES
  0
TABLE
  2
VPORT
  5
8
330
0
100
AcDbSymbolTable
 70
     5
  0
VPORT
  5
44B
330
8
100
AcDbSymbolTableRecord
100
AcDbViewportTableRecord
  2
*Active
 70
     0
 10
0.0
 20
0.0
 11
1.0
 21
1.0
 12
772.6341048903734
 22
470.848853628854
 13
0.0
 23
0.0
 14
10.0
 24
10.0
 15
10.0
 25
10.0
 16
0.0
 26
0.0
 36
1.0
 17
0.0
 27
0.0
 37
0.0
 40
1673.252482772046
 41
2.425287356321839
 42
50.0
 43
0.0
 44
0.0
 50
0.0
 51
0.0
 71
     0
 72
  1000
 73
     1
 74
     3
 75
     0
 76
     0
 77
     0
 78
     0
281
     0
 65
     1
110
0.0
120
0.0
130
0.0
111
1.0
121
0.0
131
0.0
112
0.0
122
1.0
132
0.0
 79
     0
146
0.0
  0
ENDTAB
  0
TABLE
  2
LTYPE
  5
5
330
0
100
AcDbSymbolTable
 70
     1
  0
LTYPE
  5
14
330
5
100
AcDbSymbolTableRecord
100
AcDbLinetypeTableRecord
  2
ByBlock
 70
     0
  3

 72
    65
 73
     0
 40
0.0
  0
LTYPE
  5
15
330
5
100
AcDbSymbolTableRecord
100
AcDbLinetypeTableRecord
  2
ByLayer
 70
     0
  3

 72
    65
 73
     0
 40
0.0
  0
LTYPE
  5
16
330
5
100
AcDbSymbolTableRecord
100
AcDbLinetypeTableRecord
  2
Continuous
 70
     0
  3
Solid line
 72
    65
 73
     0
 40
0.0
  0
ENDTAB
  0
TABLE
  2
LAYER
  5
2
330
0
100
AcDbSymbolTable
 70
     4
  0
LAYER
  5
10
330
2
100
AcDbSymbolTableRecord
100
AcDbLayerTableRecord
  2
0
 70
     0
 62
     2
  6
Continuous
370
    -3
390
F
  0
LAYER
  5
94
330
2
100
AcDbSymbolTableRecord
100
AcDbLayerTableRecord
  2
1
 70
     0
 62
     1
  6
Continuous
370
    -3
390
F
  0
LAYER
  5
95
330
2
100
AcDbSymbolTableRecord
100
AcDbLayerTableRecord
  2
2
 70
     0
 62
     7
  6
Continuous
370
    -3
390
F
  0
LAYER
  5
10E
330
2
100
AcDbSymbolTableRecord
100
AcDbLayerTableRecord
  2
3
 70
     0
 62
     7
  6
Continuous
370
    -3
390
F
  0
ENDTAB
  0
TABLE
  2
STYLE
  5
3
330
0
100
AcDbSymbolTable
 70
     1
  0
STYLE
  5
11
330
3
100
AcDbSymbolTableRecord
100
AcDbTextStyleTableRecord
  2
Standard
 70
     0
 40
0.0
 41
1.0
 50
0.0
 71
     0
 42
2.5
  3
txt
  4

  0
ENDTAB
  0
TABLE
  2
VIEW
  5
6
330
0
100
AcDbSymbolTable
 70
     0
  0
ENDTAB
  0
TABLE
  2
UCS
  5
7
330
0
100
AcDbSymbolTable
 70
     0
  0
ENDTAB
  0
TABLE
  2
APPID
  5
9
330
0
100
AcDbSymbolTable
 70
     1
  0
APPID
  5
12
330
9
100
AcDbSymbolTableRecord
100
AcDbRegAppTableRecord
  2
ACAD
 70
     0
  0
ENDTAB
  0
TABLE
  2
DIMSTYLE
  5
A
330
0
100
AcDbSymbolTable
 70
     1
100
AcDbDimStyleTable
 71
     0
  0
DIMSTYLE
105
27
330
A
100
AcDbSymbolTableRecord
100
AcDbDimStyleTableRecord
  2
ISO-25
 70
     0
 41
2.5
 42
0.625
 43
3.75
 44
1.25
 73
     0
 74
     0
 77
     1
 78
     8
140
2.5
141
2.5
143
0.03937007874016
147
0.625
171
     3
172
     1
271
     2
272
     2
274
     3
278
    44
283
     0
284
     8
340
11
  0
ENDTAB
  0
TABLE
  2
BLOCK_RECORD
  5
1
330
0
100
AcDbSymbolTable
 70
     1
  0
BLOCK_RECORD
  5
1F
330
1
100
AcDbSymbolTableRecord
100
AcDbBlockTableRecord
  2
*Model_Space
340
22
  0
BLOCK_RECORD
  5
50
330
1
100
AcDbSymbolTableRecord
100
AcDbBlockTableRecord
  2
*Paper_Space
340
51
  0
BLOCK_RECORD
  5
55
330
1
100
AcDbSymbolTableRecord
100
AcDbBlockTableRecord
  2
*Paper_Space0
340
56
  0
ENDTAB
  0
ENDSEC
  0
SECTION
  2
BLOCKS
  0
BLOCK
  5
20
330
1F
100
AcDbEntity
  8
0
100
AcDbBlockBegin
  2
*Model_Space
 70
     0
 10
0.0
 20
0.0
 30
0.0
  3
*Model_Space
  1

  0
ENDBLK
  5
21
330
1F
100
AcDbEntity
  8
0
100
AcDbBlockEnd
  0
BLOCK
  5
52
330
50
100
AcDbEntity
 67
     1
  8
0
100
AcDbBlockBegin
  2
*Paper_Space
 70
     0
 10
0.0
 20
0.0
 30
0.0
  3
*Paper_Space
  1

  0
ENDBLK
  5
53
330
50
100
AcDbEntity
 67
     1
  8
0
100
AcDbBlockEnd
  0
BLOCK
  5
57
330
55
100
AcDbEntity
  8
0
100
AcDbBlockBegin
  2
*Paper_Space0
 70
     0
 10
0.0
 20
0.0
 30
0.0
  3
*Paper_Space0
  1

  0
ENDBLK
  5
58
330
55
100
AcDbEntity
  8
0
100
AcDbBlockEnd
  0
ENDSEC
  0
SECTION
  2
ENTITIES
  0
LINE
  5
302
330
1F
100
AcDbEntity
  8
1
 62
     1
100
AcDbLine
 10
40.66064043032975
 20
962.7614955632513
 30
0.0
 11
959.3394340590027
 21
962.7614955632513
 31
0.0
  0
LWPOLYLINE
  5
303
330
1F
100
AcDbEntity
  8
0
 62
     2
100
AcDbPolyline
 90
        4
 70
     1
 43
0.0
 10
0.0000372446666006
 20
0.0000387385953218
 10
1000.000037244666
 20
0.0000387385953218
 10
1000.000037244666
 20
1000.000038738595
 10
0.0000372446666006
 20
1000.000038738595
  0
LINE
  5
304
330
1F
100
AcDbEntity
  8
1
 62
     1
100
AcDbLine
 10
40.66064043032975
 20
37.23858191393835
 30
0.0
 11
959.3394340590027
 21
37.23858191393835
 31
0.0
  0
LINE
  5
305
330
1F
100
AcDbEntity
  8
1
 62
     1
100
AcDbLine
 10
959.3394340590027
 20
37.23858191393835
 30
0.0
 11
959.3394340590027
 21
962.761495563252
 31
0.0
  0
LINE
  5
306
330
1F
100
AcDbEntity
  8
1
 62
     1
100
AcDbLine
 10
40.66064043032975
 20
962.7614955632513
 30
0.0
 11
40.66064043032975
 21
37.23858191393835
 31
0.0
  0
CIRCLE
  5
3C1
102
{ACAD_REACTORS
330
3E5
102
}
330
1F
100
AcDbEntity
  8
2
100
AcDbCircle
 10
103.1443130879129
 20
893.3081086406099
 30
0.0
 40
9.413323007706546
  0
CIRCLE
  5
3C2
102
{ACAD_REACTORS
330
403
102
}
330
1F
100
AcDbEntity
  8
2
100
AcDbCircle
 10
103.1443130879129
 20
734.9531086406097
 30
0.0
 40
9.413323007706546
  0
CIRCLE
  5
3C3
102
{ACAD_REACTORS
330
404
102
}
330
1F
100
AcDbEntity
  8
2
100
AcDbCircle
 10
103.1443130879129
 20
576.5981086406099
 30
0.0
 40
9.413323007706546
  0
CIRCLE
  5
3C4
102
{ACAD_REACTORS
330
405
102
}
330
1F
100
AcDbEntity
  8
2
100
AcDbCircle
 10
103.1443130879129
 20
418.2431086406096
 30
0.0
 40
9.413323007706546
  0
CIRCLE
  5
3C5
102
{ACAD_REACTORS
330
40B
102
}
330
1F
100
AcDbEntity
  8
2
100
AcDbCircle
 10
110.7703467912581
 20
264.6011929367152
 30
0.0
 40
9.228748046771123
  0
CIRCLE
  5
3C6
102
{ACAD_REACTORS
330
40C
102
}
330
1F
100
AcDbEntity
  8
2
100
AcDbCircle
 10
110.7703467912581
 20
109.351192936715
 30
0.0
 40
9.228748046771123
  0
CIRCLE
  5
3C7
102
{ACAD_REACTORS
330
3E8
102
}
330
1F
100
AcDbEntity
  8
2
100
AcDbCircle
 10
261.4993130879128
 20
893.3081086406099
 30
0.0
 40
9.413323007706546
  0
CIRCLE
  5
3C8
102
{ACAD_REACTORS
330
3F5
102
}
330
1F
100
AcDbEntity
  8
2
100
AcDbCircle
 10
261.4993130879128
 20
734.9531086406097
 30
0.0
 40
9.413323007706546
  0
CIRCLE
  5
3C9
102
{ACAD_REACTORS
330
3FE
102
}
330
1F
100
AcDbEntity
  8
2
100
AcDbCircle
 10
261.4993130879128
 20
576.5981086406099
 30
0.0
 40
9.413323007706546
  0
CIRCLE
  5
3CA
102
{ACAD_REACTORS
330
406
102
}
330
1F
100
AcDbEntity
  8
2
100
AcDbCircle
 10
261.4993130879128
 20
418.2431086406096
 30
0.0
 40
9.413323007706546
  0
CIRCLE
  5
3CB
102
{ACAD_REACTORS
330
40D
102
}
330
1F
100
AcDbEntity
  8
2
100
AcDbCircle
 10
266.0203467912581
 20
264.6011929367152
 30
0.0
 40
9.228748046771123
  0
CIRCLE
  5
3CC
102
{ACAD_REACTORS
330
40E
102
}
330
1F
100
AcDbEntity
  8
2
100
AcDbCircle
 10
266.0203467912581
 20
109.351192936715
 30
0.0
 40
9.228748046771123
  0
CIRCLE
  5
3CD
102
{ACAD_REACTORS
330
3EB
102
}
330
1F
100
AcDbEntity
  8
2
100
AcDbCircle
 10
419.8543130879127
 20
893.3081086406099
 30
0.0
 40
9.413323007706546
  0
CIRCLE
  5
3CE
102
{ACAD_REACTORS
330
3F6
102
}
330
1F
100
AcDbEntity
  8
2
100
AcDbCircle
 10
419.8543130879127
 20
734.9531086406097
 30
0.0
 40
9.413323007706546
  0
CIRCLE
  5
3CF
102
{ACAD_REACTORS
330
3FF
102
}
330
1F
100
AcDbEntity
  8
2
100
AcDbCircle
 10
419.8543130879127
 20
576.5981086406099
 30
0.0
 40
9.413323007706546
  0
CIRCLE
  5
3D0
102
{ACAD_REACTORS
330
407
102
}
330
1F
100
AcDbEntity
  8
2
100
AcDbCircle
 10
419.8543130879127
 20
418.2431086406096
 30
0.0
 40
9.413323007706546
  0
CIRCLE
  5
3D1
102
{ACAD_REACTORS
330
40F
102
}
330
1F
100
AcDbEntity
  8
2
100
AcDbCircle
 10
421.270346791258
 20
264.6011929367152
 30
0.0
 40
9.228748046771123
  0
CIRCLE
  5
3D2
102
{ACAD_REACTORS
330
410
102
}
330
1F
100
AcDbEntity
  8
2
100
AcDbCircle
 10
421.270346791258
 20
109.351192936715
 30
0.0
 40
9.228748046771123
  0
CIRCLE
  5
3D3
102
{ACAD_REACTORS
330
3EE
102
}
330
1F
100
AcDbEntity
  8
2
100
AcDbCircle
 10
578.2093130879127
 20
893.3081086406099
 30
0.0
 40
9.413323007706546
  0
CIRCLE
  5
3D4
102
{ACAD_REACTORS
330
3F7
102
}
330
1F
100
AcDbEntity
  8
2
100
AcDbCircle
 10
578.2093130879127
 20
734.9531086406097
 30
0.0
 40
9.413323007706546
  0
CIRCLE
  5
3D5
102
{ACAD_REACTORS
330
400
102
}
330
1F
100
AcDbEntity
  8
2
100
AcDbCircle
 10
578.2093130879127
 20
576.5981086406099
 30
0.0
 40
9.413323007706546
  0
CIRCLE
  5
3D6
102
{ACAD_REACTORS
330
408
102
}
330
1F
100
AcDbEntity
  8
2
100
AcDbCircle
 10
578.2093130879127
 20
418.2431086406096
 30
0.0
 40
9.413323007706546
  0
CIRCLE
  5
3D7
102
{ACAD_REACTORS
330
411
102
}
330
1F
100
AcDbEntity
  8
2
100
AcDbCircle
 10
576.5203467912581
 20
264.6011929367152
 30
0.0
 40
9.228748046771123
  0
CIRCLE
  5
3D8
102
{ACAD_REACTORS
330
412
102
}
330
1F
100
AcDbEntity
  8
2
100
AcDbCircle
 10
576.5203467912581
 20
109.351192936715
 30
0.0
 40
9.228748046771123
  0
CIRCLE
  5
3D9
102
{ACAD_REACTORS
330
3F1
102
}
330
1F
100
AcDbEntity
  8
2
100
AcDbCircle
 10
736.5643130879127
 20
893.3081086406099
 30
0.0
 40
9.413323007706546
  0
CIRCLE
  5
3DA
102
{ACAD_REACTORS
330
3F8
102
}
330
1F
100
AcDbEntity
  8
2
100
AcDbCircle
 10
736.5643130879127
 20
734.9531086406097
 30
0.0
 40
9.413323007706546
  0
CIRCLE
  5
3DB
102
{ACAD_REACTORS
330
401
102
}
330
1F
100
AcDbEntity
  8
2
100
AcDbCircle
 10
736.5643130879127
 20
576.5981086406099
 30
0.0
 40
9.413323007706546
  0
CIRCLE
  5
3DC
102
{ACAD_REACTORS
330
409
102
}
330
1F
100
AcDbEntity
  8
2
100
AcDbCircle
 10
736.5643130879127
 20
418.2431086406096
 30
0.0
 40
9.413323007706546
  0
CIRCLE
  5
3DD
102
{ACAD_REACTORS
330
413
102
}
330
1F
100
AcDbEntity
  8
2
100
AcDbCircle
 10
731.7703467912579
 20
264.6011929367152
 30
0.0
 40
9.228748046771123
  0
CIRCLE
  5
3DE
102
{ACAD_REACTORS
330
414
102
}
330
1F
100
AcDbEntity
  8
2
100
AcDbCircle
 10
731.7703467912579
 20
109.351192936715
 30
0.0
 40
9.228748046771123
  0
CIRCLE
  5
3DF
102
{ACAD_REACTORS
330
3F4
102
}
330
1F
100
AcDbEntity
  8
2
100
AcDbCircle
 10
894.9193130879127
 20
893.3081086406099
 30
0.0
 40
9.413323007706546
  0
CIRCLE
  5
3E0
102
{ACAD_REACTORS
330
3FB
102
}
330
1F
100
AcDbEntity
  8
2
100
AcDbCircle
 10
894.9193130879127
 20
734.9531086406097
 30
0.0
 40
9.413323007706546
  0
CIRCLE
  5
3E1
102
{ACAD_REACTORS
330
402
102
}
330
1F
100
AcDbEntity
  8
2
100
AcDbCircle
 10
894.9193130879127
 20
576.5981086406099
 30
0.0
 40
9.413323007706546
  0
CIRCLE
  5
3E2
102
{ACAD_REACTORS
330
40A
102
}
330
1F
100
AcDbEntity
  8
2
100
AcDbCircle
 10
894.9193130879127
 20
418.2431086406096
 30
0.0
 40
9.413323007706546
  0
CIRCLE
  5
3E3
102
{ACAD_REACTORS
330
415
102
}
330
1F
100
AcDbEntity
  8
2
100
AcDbCircle
 10
887.0203467912579
 20
264.6011929367152
 30
0.0
 40
9.228748046771123
  0
CIRCLE
  5
3E4
102
{ACAD_REACTORS
330
416
102
}
330
1F
100
AcDbEntity
  8
2
100
AcDbCircle
 10
887.0203467912579
 20
109.351192936715
 30
0.0
 40
9.228748046771123
  0
HATCH
  5
3E5
330
1F
100
AcDbEntity
  8
2
100
AcDbHatch
 10
0.0
 20
0.0
 30
0.0
210
0.0
220
0.0
230
1.0
  2
SOLID
 70
     1
 71
     1
 91
        1
 92
        1
 93
        1
 72
     2
 10
103.1443130879129
 20
893.3081086406099
 40
9.413323007706546
 50
0.0
 51
360.0
 73
     1
 97
        1
330
3C1
 75
     0
 76
     1
 98
        1
 10
-87.61506017524553
 20
-99.87047982982133
  0
HATCH
  5
3E8
330
1F
100
AcDbEntity
  8
2
100
AcDbHatch
 10
0.0
 20
0.0
 30
0.0
210
0.0
220
0.0
230
1.0
  2
SOLID
 70
     1
 71
     1
 91
        1
 92
        7
 72
     1
 73
     1
 93
        2
 10
270.9126360956194
 20
893.3081086406099
 42
1.0
 10
252.0859900802063
 20
893.3081086406099
 42
1.0
 97
        1
330
3C7
 75
     0
 76
     1
 47
0.6376144777287692
 98
        1
 10
262.8041572549242
 20
892.2183735474867
  0
HATCH
  5
3EB
330
1F
100
AcDbEntity
  8
2
100
AcDbHatch
 10
0.0
 20
0.0
 30
0.0
210
0.0
220
0.0
230
1.0
  2
SOLID
 70
     1
 71
     1
 91
        1
 92
        7
 72
     1
 73
     1
 93
        2
 10
410.440990080206
 20
893.3081086406099
 42
1.0
 10
429.2676360956192
 20
893.3081086406099
 42
1.0
 97
        1
330
3CD
 75
     0
 76
     1
 47
0.6376144777287692
 98
        1
 10
421.4946439150238
 20
893.7142164789262
  0
HATCH
  5
3EE
330
1F
100
AcDbEntity
  8
2
100
AcDbHatch
 10
0.0
 20
0.0
 30
0.0
210
0.0
220
0.0
230
1.0
  2
SOLID
 70
     1
 71
     1
 91
        1
 92
        7
 72
     1
 73
     1
 93
        2
 10
587.6226360956193
 20
893.3081086406099
 42
1.0
 10
568.7959900802061
 20
893.3081086406099
 42
1.0
 97
        1
330
3D3
 75
     0
 76
     1
 47
0.6376144777287692
 98
        1
 10
580.1851241800017
 20
892.9662950132065
  0
HATCH
  5
3F1
330
1F
100
AcDbEntity
  8
2
100
AcDbHatch
 10
0.0
 20
0.0
 30
0.0
210
0.0
220
0.0
230
1.0
  2
SOLID
 70
     1
 71
     1
 91
        1
 92
        7
 72
     1
 73
     1
 93
        2
 10
745.9776360956192
 20
893.3081086406099
 42
1.0
 10
727.1509900802061
 20
893.3081086406099
 42
1.0
 97
        1
330
3D9
 75
     0
 76
     1
 47
0.6376144777287692
 98
        1
 10
740.3726896963063
 20
892.9662950132065
  0
HATCH
  5
3F4
330
1F
100
AcDbEntity
  8
2
100
AcDbHatch
 10
0.0
 20
0.0
 30
0.0
210
0.0
220
0.0
230
1.0
  2
SOLID
 70
     1
 71
     1
 91
        1
 92
        7
 72
     1
 73
     1
 93
        2
 10
904.3326360956193
 20
893.3081086406099
 42
1.0
 10
885.5059900802061
 20
893.3081086406099
 42
1.0
 97
        1
330
3DF
 75
     0
 76
     1
 47
0.6376144777287692
 98
        1
 10
896.8175548745387
 20
891.4704520817677
  0
HATCH
  5
3F5
330
1F
100
AcDbEntity
  8
2
100
AcDbHatch
 10
0.0
 20
0.0
 30
0.0
210
0.0
220
0.0
230
1.0
  2
SOLID
 70
     1
 71
     1
 91
        1
 92
        1
 93
        1
 72
     2
 10
261.4993130879128
 20
734.9531086406097
 40
9.413323007706546
 50
0.0
 51
360.0
 73
     1
 97
        1
330
3C8
 75
     0
 76
     1
 98
        1
 10
-87.61506017524553
 20
-99.87047982982133
  0
HATCH
  5
3F6
330
1F
100
AcDbEntity
  8
2
100
AcDbHatch
 10
0.0
 20
0.0
 30
0.0
210
0.0
220
0.0
230
1.0
  2
SOLID
 70
     1
 71
     1
 91
        1
 92
        1
 93
        1
 72
     2
 10
419.8543130879127
 20
734.9531086406097
 40
9.413323007706546
 50
0.0
 51
360.0
 73
     1
 97
        1
330
3CE
 75
     0
 76
     1
 98
        1
 10
-87.61506017524553
 20
-99.87047982982133
  0
HATCH
  5
3F7
330
1F
100
AcDbEntity
  8
2
100
AcDbHatch
 10
0.0
 20
0.0
 30
0.0
210
0.0
220
0.0
230
1.0
  2
SOLID
 70
     1
 71
     1
 91
        1
 92
        1
 93
        1
 72
     2
 10
578.2093130879127
 20
734.9531086406097
 40
9.413323007706546
 50
0.0
 51
360.0
 73
     1
 97
        1
330
3D4
 75
     0
 76
     1
 98
        1
 10
-87.61506017524553
 20
-99.87047982982133
  0
HATCH
  5
3F8
330
1F
100
AcDbEntity
  8
2
100
AcDbHatch
 10
0.0
 20
0.0
 30
0.0
210
0.0
220
0.0
230
1.0
  2
SOLID
 70
     1
 71
     1
 91
        1
 92
        1
 93
        1
 72
     2
 10
736.5643130879127
 20
734.9531086406097
 40
9.413323007706546
 50
0.0
 51
360.0
 73
     1
 97
        1
330
3DA
 75
     0
 76
     1
 98
        1
 10
-87.61506017524553
 20
-99.87047982982133
  0
HATCH
  5
3FB
330
1F
100
AcDbEntity
  8
2
100
AcDbHatch
 10
0.0
 20
0.0
 30
0.0
210
0.0
220
0.0
230
1.0
  2
SOLID
 70
     1
 71
     1
 91
        1
 92
        7
 72
     1
 73
     1
 93
        2
 10
885.5059900802061
 20
734.9531086406097
 42
1.0
 10
904.3326360956193
 20
734.9531086406097
 42
1.0
 97
        1
330
3E0
 75
     0
 76
     1
 47
0.5028891396276569
 98
        1
 10
892.6924965919674
 20
738.7051340493597
  0
HATCH
  5
3FE
330
1F
100
AcDbEntity
  8
2
100
AcDbHatch
 10
0.0
 20
0.0
 30
0.0
210
0.0
220
0.0
230
1.0
  2
SOLID
 70
     1
 71
     1
 91
        1
 92
        7
 72
     1
 73
     1
 93
        2
 10
270.9126360956194
 20
576.5981086406099
 42
1.0
 10
252.0859900802063
 20
576.5981086406099
 42
1.0
 97
        1
330
3C9
 75
     0
 76
     1
 47
0.5028891396276569
 98
        1
 10
265.1222034925403
 20
576.0610657946672
  0
HATCH
  5
3FF
330
1F
100
AcDbEntity
  8
2
100
AcDbHatch
 10
0.0
 20
0.0
 30
0.0
210
0.0
220
0.0
230
1.0
  2
SOLID
 70
     1
 71
     1
 91
        1
 92
        1
 93
        1
 72
     2
 10
419.8543130879127
 20
576.5981086406099
 40
9.413323007706546
 50
0.0
 51
360.0
 73
     1
 97
        1
330
3CF
 75
     0
 76
     1
 98
        1
 10
-87.61506017524553
 20
-99.87047982982133
  0
HATCH
  5
400
330
1F
100
AcDbEntity
  8
2
100
AcDbHatch
 10
0.0
 20
0.0
 30
0.0
210
0.0
220
0.0
230
1.0
  2
SOLID
 70
     1
 71
     1
 91
        1
 92
        1
 93
        1
 72
     2
 10
578.2093130879127
 20
576.5981086406099
 40
9.413323007706546
 50
0.0
 51
360.0
 73
     1
 97
        1
330
3D5
 75
     0
 76
     1
 98
        1
 10
-87.61506017524553
 20
-99.87047982982133
  0
HATCH
  5
401
330
1F
100
AcDbEntity
  8
2
100
AcDbHatch
 10
0.0
 20
0.0
 30
0.0
210
0.0
220
0.0
230
1.0
  2
SOLID
 70
     1
 71
     1
 91
        1
 92
        1
 93
        1
 72
     2
 10
736.5643130879127
 20
576.5981086406099
 40
9.413323007706546
 50
0.0
 51
360.0
 73
     1
 97
        1
330
3DB
 75
     0
 76
     1
 98
        1
 10
-87.61506017524553
 20
-99.87047982982133
  0
HATCH
  5
402
330
1F
100
AcDbEntity
  8
2
100
AcDbHatch
 10
0.0
 20
0.0
 30
0.0
210
0.0
220
0.0
230
1.0
  2
SOLID
 70
     1
 71
     1
 91
        1
 92
        1
 93
        1
 72
     2
 10
894.9193130879127
 20
576.5981086406099
 40
9.413323007706546
 50
0.0
 51
360.0
 73
     1
 97
        1
330
3E1
 75
     0
 76
     1
 98
        1
 10
-87.61506017524553
 20
-99.87047982982133
  0
HATCH
  5
403
330
1F
100
AcDbEntity
  8
2
100
AcDbHatch
 10
0.0
 20
0.0
 30
0.0
210
0.0
220
0.0
230
1.0
  2
SOLID
 70
     1
 71
     1
 91
        1
 92
        1
 93
        1
 72
     2
 10
103.1443130879129
 20
734.9531086406097
 40
9.413323007706546
 50
0.0
 51
360.0
 73
     1
 97
        1
330
3C2
 75
     0
 76
     1
 98
        1
 10
-87.61506017524553
 20
-99.87047982982133
  0
HATCH
  5
404
330
1F
100
AcDbEntity
  8
2
100
AcDbHatch
 10
0.0
 20
0.0
 30
0.0
210
0.0
220
0.0
230
1.0
  2
SOLID
 70
     1
 71
     1
 91
        1
 92
        1
 93
        1
 72
     2
 10
103.1443130879129
 20
576.5981086406099
 40
9.413323007706546
 50
0.0
 51
360.0
 73
     1
 97
        1
330
3C3
 75
     0
 76
     1
 98
        1
 10
-87.61506017524553
 20
-99.87047982982133
  0
HATCH
  5
405
330
1F
100
AcDbEntity
  8
2
100
AcDbHatch
 10
0.0
 20
0.0
 30
0.0
210
0.0
220
0.0
230
1.0
  2
SOLID
 70
     1
 71
     1
 91
        1
 92
        1
 93
        1
 72
     2
 10
103.1443130879129
 20
418.2431086406096
 40
9.413323007706546
 50
0.0
 51
360.0
 73
     1
 97
        1
330
3C4
 75
     0
 76
     1
 98
        1
 10
-87.61506017524553
 20
-99.87047982982133
  0
HATCH
  5
406
330
1F
100
AcDbEntity
  8
2
100
AcDbHatch
 10
0.0
 20
0.0
 30
0.0
210
0.0
220
0.0
230
1.0
  2
SOLID
 70
     1
 71
     1
 91
        1
 92
        1
 93
        1
 72
     2
 10
261.4993130879128
 20
418.2431086406096
 40
9.413323007706546
 50
0.0
 51
360.0
 73
     1
 97
        1
330
3CA
 75
     0
 76
     1
 98
        1
 10
-87.61506017524553
 20
-99.87047982982133
  0
HATCH
  5
407
330
1F
100
AcDbEntity
  8
2
100
AcDbHatch
 10
0.0
 20
0.0
 30
0.0
210
0.0
220
0.0
230
1.0
  2
SOLID
 70
     1
 71
     1
 91
        1
 92
        1
 93
        1
 72
     2
 10
419.8543130879127
 20
418.2431086406096
 40
9.413323007706546
 50
0.0
 51
360.0
 73
     1
 97
        1
330
3D0
 75
     0
 76
     1
 98
        1
 10
-87.61506017524553
 20
-99.87047982982133
  0
HATCH
  5
408
330
1F
100
AcDbEntity
  8
2
100
AcDbHatch
 10
0.0
 20
0.0
 30
0.0
210
0.0
220
0.0
230
1.0
  2
SOLID
 70
     1
 71
     1
 91
        1
 92
        1
 93
        1
 72
     2
 10
578.2093130879127
 20
418.2431086406096
 40
9.413323007706546
 50
0.0
 51
360.0
 73
     1
 97
        1
330
3D6
 75
     0
 76
     1
 98
        1
 10
-87.61506017524553
 20
-99.87047982982133
  0
HATCH
  5
409
330
1F
100
AcDbEntity
  8
2
100
AcDbHatch
 10
0.0
 20
0.0
 30
0.0
210
0.0
220
0.0
230
1.0
  2
SOLID
 70
     1
 71
     1
 91
        1
 92
        1
 93
        1
 72
     2
 10
736.5643130879127
 20
418.2431086406096
 40
9.413323007706546
 50
0.0
 51
360.0
 73
     1
 97
        1
330
3DC
 75
     0
 76
     1
 98
        1
 10
-87.61506017524553
 20
-99.87047982982133
  0
HATCH
  5
40A
330
1F
100
AcDbEntity
  8
2
100
AcDbHatch
 10
0.0
 20
0.0
 30
0.0
210
0.0
220
0.0
230
1.0
  2
SOLID
 70
     1
 71
     1
 91
        1
 92
        1
 93
        1
 72
     2
 10
894.9193130879127
 20
418.2431086406096
 40
9.413323007706546
 50
0.0
 51
360.0
 73
     1
 97
        1
330
3E2
 75
     0
 76
     1
 98
        1
 10
-87.61506017524553
 20
-99.87047982982133
  0
HATCH
  5
40B
330
1F
100
AcDbEntity
  8
2
100
AcDbHatch
 10
0.0
 20
0.0
 30
0.0
210
0.0
220
0.0
230
1.0
  2
SOLID
 70
     1
 71
     1
 91
        1
 92
        1
 93
        1
 72
     2
 10
110.7703467912581
 20
264.6011929367152
 40
9.228748046771123
 50
0.0
 51
360.0
 73
     1
 97
        1
330
3C5
 75
     0
 76
     1
 98
        1
 10
-76.2486466039952
 20
-88.10330556370765
  0
HATCH
  5
40C
330
1F
100
AcDbEntity
  8
2
100
AcDbHatch
 10
0.0
 20
0.0
 30
0.0
210
0.0
220
0.0
230
1.0
  2
SOLID
 70
     1
 71
     1
 91
        1
 92
        1
 93
        1
 72
     2
 10
110.7703467912581
 20
109.351192936715
 40
9.228748046771123
 50
0.0
 51
360.0
 73
     1
 97
        1
330
3C6
 75
     0
 76
     1
 98
        1
 10
-76.2486466039952
 20
-88.10330556370765
  0
HATCH
  5
40D
330
1F
100
AcDbEntity
  8
2
100
AcDbHatch
 10
0.0
 20
0.0
 30
0.0
210
0.0
220
0.0
230
1.0
  2
SOLID
 70
     1
 71
     1
 91
        1
 92
        1
 93
        1
 72
     2
 10
266.0203467912581
 20
264.6011929367152
 40
9.228748046771123
 50
0.0
 51
360.0
 73
     1
 97
        1
330
3CB
 75
     0
 76
     1
 98
        1
 10
-76.2486466039952
 20
-88.10330556370765
  0
HATCH
  5
40E
330
1F
100
AcDbEntity
  8
2
100
AcDbHatch
 10
0.0
 20
0.0
 30
0.0
210
0.0
220
0.0
230
1.0
  2
SOLID
 70
     1
 71
     1
 91
        1
 92
        1
 93
        1
 72
     2
 10
266.0203467912581
 20
109.351192936715
 40
9.228748046771123
 50
0.0
 51
360.0
 73
     1
 97
        1
330
3CC
 75
     0
 76
     1
 98
        1
 10
-76.2486466039952
 20
-88.10330556370765
  0
HATCH
  5
40F
330
1F
100
AcDbEntity
  8
2
100
AcDbHatch
 10
0.0
 20
0.0
 30
0.0
210
0.0
220
0.0
230
1.0
  2
SOLID
 70
     1
 71
     1
 91
        1
 92
        1
 93
        1
 72
     2
 10
421.270346791258
 20
264.6011929367152
 40
9.228748046771123
 50
0.0
 51
360.0
 73
     1
 97
        1
330
3D1
 75
     0
 76
     1
 98
        1
 10
-76.2486466039952
 20
-88.10330556370765
  0
HATCH
  5
410
330
1F
100
AcDbEntity
  8
2
100
AcDbHatch
 10
0.0
 20
0.0
 30
0.0
210
0.0
220
0.0
230
1.0
  2
SOLID
 70
     1
 71
     1
 91
        1
 92
        1
 93
        1
 72
     2
 10
421.270346791258
 20
109.351192936715
 40
9.228748046771123
 50
0.0
 51
360.0
 73
     1
 97
        1
330
3D2
 75
     0
 76
     1
 98
        1
 10
-76.2486466039952
 20
-88.10330556370765
  0
HATCH
  5
411
330
1F
100
AcDbEntity
  8
2
100
AcDbHatch
 10
0.0
 20
0.0
 30
0.0
210
0.0
220
0.0
230
1.0
  2
SOLID
 70
     1
 71
     1
 91
        1
 92
        1
 93
        1
 72
     2
 10
576.5203467912581
 20
264.6011929367152
 40
9.228748046771123
 50
0.0
 51
360.0
 73
     1
 97
        1
330
3D7
 75
     0
 76
     1
 98
        1
 10
-76.2486466039952
 20
-88.10330556370765
  0
HATCH
  5
412
330
1F
100
AcDbEntity
  8
2
100
AcDbHatch
 10
0.0
 20
0.0
 30
0.0
210
0.0
220
0.0
230
1.0
  2
SOLID
 70
     1
 71
     1
 91
        1
 92
        1
 93
        1
 72
     2
 10
576.5203467912581
 20
109.351192936715
 40
9.228748046771123
 50
0.0
 51
360.0
 73
     1
 97
        1
330
3D8
 75
     0
 76
     1
 98
        1
 10
-76.2486466039952
 20
-88.10330556370765
  0
HATCH
  5
413
330
1F
100
AcDbEntity
  8
2
100
AcDbHatch
 10
0.0
 20
0.0
 30
0.0
210
0.0
220
0.0
230
1.0
  2
SOLID
 70
     1
 71
     1
 91
        1
 92
        1
 93
        1
 72
     2
 10
731.7703467912579
 20
264.6011929367152
 40
9.228748046771123
 50
0.0
 51
360.0
 73
     1
 97
        1
330
3DD
 75
     0
 76
     1
 98
        1
 10
-76.2486466039952
 20
-88.10330556370765
  0
HATCH
  5
414
330
1F
100
AcDbEntity
  8
2
100
AcDbHatch
 10
0.0
 20
0.0
 30
0.0
210
0.0
220
0.0
230
1.0
  2
SOLID
 70
     1
 71
     1
 91
        1
 92
        1
 93
        1
 72
     2
 10
731.7703467912579
 20
109.351192936715
 40
9.228748046771123
 50
0.0
 51
360.0
 73
     1
 97
        1
330
3DE
 75
     0
 76
     1
 98
        1
 10
-76.2486466039952
 20
-88.10330556370765
  0
HATCH
  5
415
330
1F
100
AcDbEntity
  8
2
100
AcDbHatch
 10
0.0
 20
0.0
 30
0.0
210
0.0
220
0.0
230
1.0
  2
SOLID
 70
     1
 71
     1
 91
        1
 92
        1
 93
        1
 72
     2
 10
887.0203467912579
 20
264.6011929367152
 40
9.228748046771123
 50
0.0
 51
360.0
 73
     1
 97
        1
330
3E3
 75
     0
 76
     1
 98
        1
 10
-76.2486466039952
 20
-88.10330556370765
  0
HATCH
  5
416
330
1F
100
AcDbEntity
  8
2
100
AcDbHatch
 10
0.0
 20
0.0
 30
0.0
210
0.0
220
0.0
230
1.0
  2
SOLID
 70
     1
 71
     1
 91
        1
 92
        1
 93
        1
 72
     2
 10
887.0203467912579
 20
109.351192936715
 40
9.228748046771123
 50
0.0
 51
360.0
 73
     1
 97
        1
330
3E4
 75
     0
 76
     1
 98
        1
 10
-76.2486466039952
 20
-88.10330556370765
  0
ENDSEC
  0
SECTION
  2
OBJECTS
  0
DICTIONARY
  5
C
330
0
100
AcDbDictionary
281
     1
  3
ACAD_COLOR
350
6B
  3
ACAD_GROUP
350
D
  3
ACAD_LAYOUT
350
1A
  3
ACAD_MATERIAL
350
6A
  3
ACAD_MLINESTYLE
350
17
  3
ACAD_PLOTSETTINGS
350
19
  3
ACAD_PLOTSTYLENAME
350
E
  3
ACDBHEADERROUNDTRIPXREC
350
44C
  3
AcDbVariableDictionary
350
5E
  0
DICTIONARY
  5
6B
102
{ACAD_REACTORS
330
C
102
}
330
C
100
AcDbDictionary
281
     1
  0
DICTIONARY
  5
D
102
{ACAD_REACTORS
330
C
102
}
330
C
100
AcDbDictionary
281
     1
  0
DICTIONARY
  5
1A
102
{ACAD_REACTORS
330
C
102
}
330
C
100
AcDbDictionary
281
     1
  3
Layout1
350
51
  3
Layout2
350
56
  3
Model
350
22
  0
DICTIONARY
  5
6A
102
{ACAD_REACTORS
330
C
102
}
330
C
100
AcDbDictionary
281
     1
  0
DICTIONARY
  5
17
102
{ACAD_REACTORS
330
C
102
}
330
C
100
AcDbDictionary
281
     1
  3
Standard
350
18
  0
DICTIONARY
  5
19
102
{ACAD_REACTORS
330
C
102
}
330
C
100
AcDbDictionary
281
     1
  0
ACDBDICTIONARYWDFLT
  5
E
102
{ACAD_REACTORS
330
C
102
}
330
C
100
AcDbDictionary
281
     1
  3
Normal
350
F
100
AcDbDictionaryWithDefault
340
F
  0
DICTIONARY
  5
44C
102
{ACAD_REACTORS
330
C
102
}
330
C
100
AcDbDictionary
281
     1
  3
COLORDICT
350
44E
  3
MATERIALDICT
350
44D
  0
DICTIONARY
  5
5E
102
{ACAD_REACTORS
330
C
102
}
330
C
100
AcDbDictionary
281
     1
  3
DIMASSOC
350
5F
  3
HIDETEXT
350
63
  3
PROJECTNAME
350
85
  0
LAYOUT
  5
51
102
{ACAD_XDICTIONARY
360
451
102
}
102
{ACAD_REACTORS
330
1A
102
}
330
1A
100
AcDbPlotSettings
  1

  2
None
  4

  6

 40
0.0
 41
0.0
 42
0.0
 43
0.0
 44
0.0
 45
0.0
 46
0.0
 47
0.0
 48
0.0
 49
0.0
140
0.0
141
0.0
142
1.0
143
1.0
 70
   688
 72
     0
 73
     0
 74
     5
  7

 75
    16
147
1.0
148
0.0
149
0.0
100
AcDbLayout
  1
Layout1
 70
     1
 71
     1
 10
0.0
 20
0.0
 11
12.0
 21
9.0
 12
0.0
 22
0.0
 32
0.0
 14
0.0
 24
0.0
 34
0.0
 15
0.0
 25
0.0
 35
0.0
146
0.0
 13
0.0
 23
0.0
 33
0.0
 16
1.0
 26
0.0
 36
0.0
 17
0.0
 27
1.0
 37
0.0
 76
     0
330
50
  0
LAYOUT
  5
56
102
{ACAD_XDICTIONARY
360
453
102
}
102
{ACAD_REACTORS
330
1A
102
}
330
1A
100
AcDbPlotSettings
  1

  2
None
  4

  6

 40
0.0
 41
0.0
 42
0.0
 43
0.0
 44
0.0
 45
0.0
 46
0.0
 47
0.0
 48
0.0
 49
0.0
140
0.0
141
0.0
142
1.0
143
1.0
 70
   688
 72
     0
 73
     0
 74
     5
  7

 75
    16
147
1.0
148
0.0
149
0.0
100
AcDbLayout
  1
Layout2
 70
     1
 71
     2
 10
0.0
 20
0.0
 11
12.0
 21
9.0
 12
0.0
 22
0.0
 32
0.0
 14
0.0
 24
0.0
 34
0.0
 15
0.0
 25
0.0
 35
0.0
146
0.0
 13
0.0
 23
0.0
 33
0.0
 16
1.0
 26
0.0
 36
0.0
 17
0.0
 27
1.0
 37
0.0
 76
     0
330
55
  0
LAYOUT
  5
22
102
{ACAD_XDICTIONARY
360
44F
102
}
102
{ACAD_REACTORS
330
1A
102
}
330
1A
100
AcDbPlotSettings
  1

  2
none_device
  4
ANSI_A_(8.50_x_11.00_Inches)
  6

 40
6.349999904632567
 41
19.04999923706055
 42
6.350006103515625
 43
19.04998779296875
 44
215.8999938964844
 45
279.3999938964844
 46
0.0
 47
0.0
 48
0.0
 49
0.0
140
0.0
141
0.0
142
1.0
143
78.436453180766
 70
 11952
 72
     0
 73
     1
 74
     0
  7

 75
     0
147
0.0127491741332998
148
0.0
149
0.0
100
AcDbLayout
  1
Model
 70
     1
 71
     0
 10
0.0
 20
0.0
 11
12.0
 21
9.0
 12
0.0
 22
0.0
 32
0.0
 14
0.0
 24
0.0
 34
0.0
 15
0.0
 25
0.0
 35
0.0
146
0.0
 13
0.0
 23
0.0
 33
0.0
 16
1.0
 26
0.0
 36
0.0
 17
0.0
 27
1.0
 37
0.0
 76
     0
330
1F
  0
MLINESTYLE
  5
18
102
{ACAD_REACTORS
330
17
102
}
330
17
100
AcDbMlineStyle
  2
STANDARD
 70
     0
  3

 62
   256
 51
90.0
 52
90.0
 71
     2
 49
0.5
 62
   256
  6
BYLAYER
 49
-0.5
 62
   256
  6
BYLAYER
  0
ACDBPLACEHOLDER
  5
F
102
{ACAD_REACTORS
330
E
102
}
330
E
  0
XRECORD
  5
44E
102
{ACAD_REACTORS
330
44C
102
}
330
44C
100
AcDbXrecord
280
     1
340
6B
  0
XRECORD
  5
44D
102
{ACAD_REACTORS
330
44C
102
}
330
44C
100
AcDbXrecord
280
     1
340
6A
  0
DICTIONARYVAR
  5
5F
102
{ACAD_REACTORS
330
5E
102
}
330
5E
100
DictionaryVariables
280
     0
  1
2
  0
DICTIONARYVAR
  5
63
102
{ACAD_REACTORS
330
5E
102
}
330
5E
100
DictionaryVariables
280
     0
  1
1
  0
DICTIONARYVAR
  5
85
102
{ACAD_REACTORS
330
5E
102
}
330
5E
100
DictionaryVariables
280
     0
  1

  0
DICTIONARY
  5
451
330
51
100
AcDbDictionary
280
     1
281
     1
  3
ACAD_XREC_ROUNDTRIP
360
452
  0
DICTIONARY
  5
453
330
56
100
AcDbDictionary
280
     1
281
     1
  3
ACAD_XREC_ROUNDTRIP
360
454
  0
DICTIONARY
  5
44F
330
22
100
AcDbDictionary
280
     1
281
     1
  3
ACAD_XREC_ROUNDTRIP
360
450
  0
XRECORD
  5
452
102
{ACAD_REACTORS
330
451
102
}
330
451
100
AcDbXrecord
280
     1
102
SHADEPLOT
 70
     0
102
SHADEPLOTRESLEVEL
 70
     2
102
SHADEPLOTCUSTOMDPI
 70
   300
  0
XRECORD
  5
454
102
{ACAD_REACTORS
330
453
102
}
330
453
100
AcDbXrecord
280
     1
102
SHADEPLOT
 70
     0
102
SHADEPLOTRESLEVEL
 70
     2
102
SHADEPLOTCUSTOMDPI
 70
   300
  0
XRECORD
  5
450
102
{ACAD_REACTORS
330
44F
102
}
330
44F
100
AcDbXrecord
280
     1
102
SHADEPLOT
 70
     0
102
SHADEPLOTRESLEVEL
 70
     2
102
SHADEPLOTCUSTOMDPI
 70
   300
  0
ENDSEC
  0
EOF
