  0
SECTION
  2
HEADER
  9
$ACADVER
  1
AC1015
  9
$ACADMAINTVER
 70
    20
  9
$DWGCODEPAGE
  3
ANSI_936
  9
$INSBASE
 10
0.0
 20
0.0
 30
0.0
  9
$EXTMIN
 10
-0.0000631308794254
 20
0.0000429149658885
 30
0.0
  9
$EXTMAX
 10
999.9999368691206
 20
1000.000042914966
 30
0.0
  9
$LIMMIN
 10
0.0
 20
0.0
  9
$LIMMAX
 10
420.0
 20
297.0
  9
$ORTHOMODE
 70
     0
  9
$REGENMODE
 70
     1
  9
$FILLMODE
 70
     1
  9
$QTEXTMODE
 70
     0
  9
$MIRRTEXT
 70
     0
  9
$LTSCALE
 40
1.0
  9
$ATTMODE
 70
     1
  9
$TEXTSIZE
 40
2.5
  9
$TRACEWID
 40
1.0
  9
$TEXTSTYLE
  7
Standard
  9
$CLAYER
  8
2
  9
$CELTYPE
  6
ByLayer
  9
$CECOLOR
 62
   256
  9
$CELTSCALE
 40
1.0
  9
$DISPSILH
 70
     0
  9
$DIMSCALE
 40
1.0
  9
$DIMASZ
 40
2.5
  9
$DIMEXO
 40
0.625
  9
$DIMDLI
 40
3.75
  9
$DIMRND
 40
0.0
  9
$DIMDLE
 40
0.0
  9
$DIMEXE
 40
1.25
  9
$DIMTP
 40
0.0
  9
$DIMTM
 40
0.0
  9
$DIMTXT
 40
2.5
  9
$DIMCEN
 40
2.5
  9
$DIMTSZ
 40
0.0
  9
$DIMTOL
 70
     0
  9
$DIMLIM
 70
     0
  9
$DIMTIH
 70
     0
  9
$DIMTOH
 70
     0
  9
$DIMSE1
 70
     0
  9
$DIMSE2
 70
     0
  9
$DIMTAD
 70
     1
  9
$DIMZIN
 70
     8
  9
$DIMBLK
  1

  9
$DIMASO
 70
     1
  9
$DIMSHO
 70
     1
  9
$DIMPOST
  1

  9
$DIMAPOST
  1

  9
$DIMALT
 70
     0
  9
$DIMALTD
 70
     3
  9
$DIMALTF
 40
0.03937007874016
  9
$DIMLFAC
 40
1.0
  9
$DIMTOFL
 70
     1
  9
$DIMTVP
 40
0.0
  9
$DIMTIX
 70
     0
  9
$DIMSOXD
 70
     0
  9
$DIMSAH
 70
     0
  9
$DIMBLK1
  1

  9
$DIMBLK2
  1

  9
$DIMSTYLE
  2
ISO-25
  9
$DIMCLRD
 70
     0
  9
$DIMCLRE
 70
     0
  9
$DIMCLRT
 70
     0
  9
$DIMTFAC
 40
1.0
  9
$DIMGAP
 40
0.625
  9
$DIMJUST
 70
     0
  9
$DIMSD1
 70
     0
  9
$DIMSD2
 70
     0
  9
$DIMTOLJ
 70
     0
  9
$DIMTZIN
 70
     8
  9
$DIMALTZ
 70
     0
  9
$DIMALTTZ
 70
     0
  9
$DIMUPT
 70
     0
  9
$DIMDEC
 70
     2
  9
$DIMTDEC
 70
     2
  9
$DIMALTU
 70
     2
  9
$DIMALTTD
 70
     3
  9
$DIMTXSTY
  7
Standard
  9
$DIMAUNIT
 70
     0
  9
$DIMADEC
 70
     0
  9
$DIMALTRND
 40
0.0
  9
$DIMAZIN
 70
     0
  9
$DIMDSEP
 70
    44
  9
$DIMATFIT
 70
     3
  9
$DIMFRAC
 70
     0
  9
$DIMLDRBLK
  1

  9
$DIMLUNIT
 70
     2
  9
$DIMLWD
 70
    -2
  9
$DIMLWE
 70
    -2
  9
$DIMTMOVE
 70
     0
  9
$LUNITS
 70
     2
  9
$LUPREC
 70
     4
  9
$SKETCHINC
 40
1.0
  9
$FILLETRAD
 40
0.0
  9
$AUNITS
 70
     0
  9
$AUPREC
 70
     0
  9
$MENU
  1
.
  9
$ELEVATION
 40
0.0
  9
$PELEVATION
 40
0.0
  9
$THICKNESS
 40
0.0
  9
$LIMCHECK
 70
     0
  9
$CHAMFERA
 40
0.0
  9
$CHAMFERB
 40
0.0
  9
$CHAMFERC
 40
0.0
  9
$CHAMFERD
 40
0.0
  9
$SKPOLY
 70
     0
  9
$TDCREATE
 40
2455505.725807523
  9
$TDUCREATE
 40
2455505.392474190
  9
$TDUPDATE
 40
2457095.960805313
  9
$TDUUPDATE
 40
2457095.627471979
  9
$TDINDWG
 40
0.0538395255
  9
$TDUSRTIMER
 40
0.0538387500
  9
$USRTIMER
 70
     1
  9
$ANGBASE
 50
0.0
  9
$ANGDIR
 70
     0
  9
$PDMODE
 70
     0
  9
$PDSIZE
 40
0.0
  9
$PLINEWID
 40
0.0
  9
$SPLFRAME
 70
     0
  9
$SPLINETYPE
 70
     6
  9
$SPLINESEGS
 70
     8
  9
$HANDSEED
  5
349
  9
$SURFTAB1
 70
     6
  9
$SURFTAB2
 70
     6
  9
$SURFTYPE
 70
     6
  9
$SURFU
 70
     6
  9
$SURFV
 70
     6
  9
$UCSBASE
  2

  9
$UCSNAME
  2

  9
$UCSORG
 10
0.0
 20
0.0
 30
0.0
  9
$UCSXDIR
 10
1.0
 20
0.0
 30
0.0
  9
$UCSYDIR
 10
0.0
 20
1.0
 30
0.0
  9
$UCSORTHOREF
  2

  9
$UCSORTHOVIEW
 70
     0
  9
$UCSORGTOP
 10
0.0
 20
0.0
 30
0.0
  9
$UCSORGBOTTOM
 10
0.0
 20
0.0
 30
0.0
  9
$UCSORGLEFT
 10
0.0
 20
0.0
 30
0.0
  9
$UCSORGRIGHT
 10
0.0
 20
0.0
 30
0.0
  9
$UCSORGFRONT
 10
0.0
 20
0.0
 30
0.0
  9
$UCSORGBACK
 10
0.0
 20
0.0
 30
0.0
  9
$PUCSBASE
  2

  9
$PUCSNAME
  2

  9
$PUCSORG
 10
0.0
 20
0.0
 30
0.0
  9
$PUCSXDIR
 10
1.0
 20
0.0
 30
0.0
  9
$PUCSYDIR
 10
0.0
 20
1.0
 30
0.0
  9
$PUCSORTHOREF
  2

  9
$PUCSORTHOVIEW
 70
     0
  9
$PUCSORGTOP
 10
0.0
 20
0.0
 30
0.0
  9
$PUCSORGBOTTOM
 10
0.0
 20
0.0
 30
0.0
  9
$PUCSORGLEFT
 10
0.0
 20
0.0
 30
0.0
  9
$PUCSORGRIGHT
 10
0.0
 20
0.0
 30
0.0
  9
$PUCSORGFRONT
 10
0.0
 20
0.0
 30
0.0
  9
$PUCSORGBACK
 10
0.0
 20
0.0
 30
0.0
  9
$USERI1
 70
     0
  9
$USERI2
 70
     0
  9
$USERI3
 70
     0
  9
$USERI4
 70
     0
  9
$USERI5
 70
     0
  9
$USERR1
 40
0.0
  9
$USERR2
 40
0.0
  9
$USERR3
 40
0.0
  9
$USERR4
 40
0.0
  9
$USERR5
 40
0.0
  9
$WORLDVIEW
 70
     1
  9
$SHADEDGE
 70
     3
  9
$SHADEDIF
 70
    70
  9
$TILEMODE
 70
     1
  9
$MAXACTVP
 70
    64
  9
$PINSBASE
 10
0.0
 20
0.0
 30
0.0
  9
$PLIMCHECK
 70
     0
  9
$PEXTMIN
 10
0.0
 20
0.0
 30
0.0
  9
$PEXTMAX
 10
0.0
 20
0.0
 30
0.0
  9
$PLIMMIN
 10
0.0
 20
0.0
  9
$PLIMMAX
 10
12.0
 20
9.0
  9
$UNITMODE
 70
     0
  9
$VISRETAIN
 70
     1
  9
$PLINEGEN
 70
     0
  9
$PSLTSCALE
 70
     1
  9
$TREEDEPTH
 70
  3020
  9
$CMLSTYLE
  2
Standard
  9
$CMLJUST
 70
     0
  9
$CMLSCALE
 40
20.0
  9
$PROXYGRAPHICS
 70
     1
  9
$MEASUREMENT
 70
     1
  9
$CELWEIGHT
370
    -1
  9
$ENDCAPS
280
     0
  9
$JOINSTYLE
280
     0
  9
$LWDISPLAY
290
     0
  9
$INSUNITS
 70
     4
  9
$HYPERLINKBASE
  1

  9
$STYLESHEET
  1

  9
$XEDIT
290
     1
  9
$CEPSNTYPE
380
     0
  9
$PSTYLEMODE
290
     1
  9
$FINGERPRINTGUID
  2
{FDEAD578-A652-11D2-9A35-0060089B3A3F}
  9
$VERSIONGUID
  2
{30A7295B-C2DA-449E-A29B-FC517F4EC9BC}
  9
$EXTNAMES
290
     1
  9
$PSVPSCALE
 40
0.0
  9
$OLESTARTUP
290
     0
  0
ENDSEC
  0
SECTION
  2
CLASSES
  0
CLASS
  1
ACDBDICTIONARYWDFLT
  2
AcDbDictionaryWithDefault
  3
ObjectDBX Classes
 90
        0
280
     0
281
     0
  0
CLASS
  1
ACDBPLACEHOLDER
  2
AcDbPlaceHolder
  3
ObjectDBX Classes
 90
        0
280
     0
281
     0
  0
CLASS
  1
LAYOUT
  2
AcDbLayout
  3
ObjectDBX Classes
 90
        0
280
     0
281
     0
  0
CLASS
  1
DICTIONARYVAR
  2
AcDbDictionaryVar
  3
ObjectDBX Classes
 90
        0
280
     0
281
     0
  0
ENDSEC
  0
SECTION
  2
TABLES
  0
TABLE
  2
VPORT
  5
8
330
0
100
AcDbSymbolTable
 70
     3
  0
VPORT
  5
33F
330
8
100
AcDbSymbolTableRecord
100
AcDbViewportTableRecord
  2
*Active
 70
     0
 10
0.0
 20
0.0
 11
1.0
 21
1.0
 12
680.717692869631
 22
469.5927480902589
 13
0.0
 23
0.0
 14
10.0
 24
10.0
 15
10.0
 25
10.0
 16
0.0
 26
0.0
 36
1.0
 17
0.0
 27
0.0
 37
0.0
 40
1188.461494508552
 41
2.425287356321839
 42
50.0
 43
0.0
 44
0.0
 50
0.0
 51
0.0
 71
     0
 72
  1000
 73
     1
 74
     3
 75
     0
 76
     0
 77
     0
 78
     0
281
     0
 65
     1
110
0.0
120
0.0
130
0.0
111
1.0
121
0.0
131
0.0
112
0.0
122
1.0
132
0.0
 79
     0
146
0.0
  0
ENDTAB
  0
TABLE
  2
LTYPE
  5
5
330
0
100
AcDbSymbolTable
 70
     1
  0
LTYPE
  5
14
330
5
100
AcDbSymbolTableRecord
100
AcDbLinetypeTableRecord
  2
ByBlock
 70
     0
  3

 72
    65
 73
     0
 40
0.0
  0
LTYPE
  5
15
330
5
100
AcDbSymbolTableRecord
100
AcDbLinetypeTableRecord
  2
ByLayer
 70
     0
  3

 72
    65
 73
     0
 40
0.0
  0
LTYPE
  5
16
330
5
100
AcDbSymbolTableRecord
100
AcDbLinetypeTableRecord
  2
Continuous
 70
     0
  3
Solid line
 72
    65
 73
     0
 40
0.0
  0
ENDTAB
  0
TABLE
  2
LAYER
  5
2
330
0
100
AcDbSymbolTable
 70
     4
  0
LAYER
  5
10
330
2
100
AcDbSymbolTableRecord
100
AcDbLayerTableRecord
  2
0
 70
     0
 62
     2
  6
Continuous
370
    -3
390
F
  0
LAYER
  5
94
330
2
100
AcDbSymbolTableRecord
100
AcDbLayerTableRecord
  2
1
 70
     0
 62
     1
  6
Continuous
370
    -3
390
F
  0
LAYER
  5
95
330
2
100
AcDbSymbolTableRecord
100
AcDbLayerTableRecord
  2
2
 70
     0
 62
     7
  6
Continuous
370
    -3
390
F
  0
LAYER
  5
10E
330
2
100
AcDbSymbolTableRecord
100
AcDbLayerTableRecord
  2
3
 70
     0
 62
     7
  6
Continuous
370
    -3
390
F
  0
ENDTAB
  0
TABLE
  2
STYLE
  5
3
330
0
100
AcDbSymbolTable
 70
     1
  0
STYLE
  5
11
330
3
100
AcDbSymbolTableRecord
100
AcDbTextStyleTableRecord
  2
Standard
 70
     0
 40
0.0
 41
1.0
 50
0.0
 71
     0
 42
2.5
  3
txt
  4

  0
ENDTAB
  0
TABLE
  2
VIEW
  5
6
330
0
100
AcDbSymbolTable
 70
     0
  0
ENDTAB
  0
TABLE
  2
UCS
  5
7
330
0
100
AcDbSymbolTable
 70
     0
  0
ENDTAB
  0
TABLE
  2
APPID
  5
9
330
0
100
AcDbSymbolTable
 70
     1
  0
APPID
  5
12
330
9
100
AcDbSymbolTableRecord
100
AcDbRegAppTableRecord
  2
ACAD
 70
     0
  0
ENDTAB
  0
TABLE
  2
DIMSTYLE
  5
A
330
0
100
AcDbSymbolTable
 70
     1
100
AcDbDimStyleTable
 71
     0
  0
DIMSTYLE
105
27
330
A
100
AcDbSymbolTableRecord
100
AcDbDimStyleTableRecord
  2
ISO-25
 70
     0
 41
2.5
 42
0.625
 43
3.75
 44
1.25
 73
     0
 74
     0
 77
     1
 78
     8
140
2.5
141
2.5
143
0.03937007874016
147
0.625
171
     3
172
     1
271
     2
272
     2
274
     3
278
    44
283
     0
284
     8
340
11
  0
ENDTAB
  0
TABLE
  2
BLOCK_RECORD
  5
1
330
0
100
AcDbSymbolTable
 70
     1
  0
BLOCK_RECORD
  5
1F
330
1
100
AcDbSymbolTableRecord
100
AcDbBlockTableRecord
  2
*Model_Space
340
22
  0
BLOCK_RECORD
  5
50
330
1
100
AcDbSymbolTableRecord
100
AcDbBlockTableRecord
  2
*Paper_Space
340
51
  0
BLOCK_RECORD
  5
55
330
1
100
AcDbSymbolTableRecord
100
AcDbBlockTableRecord
  2
*Paper_Space0
340
56
  0
ENDTAB
  0
ENDSEC
  0
SECTION
  2
BLOCKS
  0
BLOCK
  5
20
330
1F
100
AcDbEntity
  8
0
100
AcDbBlockBegin
  2
*Model_Space
 70
     0
 10
0.0
 20
0.0
 30
0.0
  3
*Model_Space
  1

  0
ENDBLK
  5
21
330
1F
100
AcDbEntity
  8
0
100
AcDbBlockEnd
  0
BLOCK
  5
52
330
50
100
AcDbEntity
 67
     1
  8
0
100
AcDbBlockBegin
  2
*Paper_Space
 70
     0
 10
0.0
 20
0.0
 30
0.0
  3
*Paper_Space
  1

  0
ENDBLK
  5
53
330
50
100
AcDbEntity
 67
     1
  8
0
100
AcDbBlockEnd
  0
BLOCK
  5
57
330
55
100
AcDbEntity
  8
0
100
AcDbBlockBegin
  2
*Paper_Space0
 70
     0
 10
0.0
 20
0.0
 30
0.0
  3
*Paper_Space0
  1

  0
ENDBLK
  5
58
330
55
100
AcDbEntity
  8
0
100
AcDbBlockEnd
  0
ENDSEC
  0
SECTION
  2
ENTITIES
  0
LINE
  5
302
330
1F
100
AcDbEntity
  8
1
 62
     1
100
AcDbLine
 10
352.6456192569184
 20
973.6637439195449
 30
0.0
 11
647.3542544813228
 21
973.6637439195449
 31
0.0
  0
LINE
  5
303
330
1F
100
AcDbEntity
  8
1
 62
     1
100
AcDbLine
 10
352.6456192569184
 20
26.33634191038709
 30
0.0
 11
352.6456192569184
 21
973.6637439195449
 31
0.0
  0
LINE
  5
304
330
1F
100
AcDbEntity
  8
1
 62
     1
100
AcDbLine
 10
647.3542544813228
 20
26.33634191038709
 30
0.0
 11
352.6456192569184
 21
26.33634191038709
 31
0.0
  0
LINE
  5
305
330
1F
100
AcDbEntity
  8
1
 62
     1
100
AcDbLine
 10
647.3542544813228
 20
973.6637439195449
 30
0.0
 11
647.3542544813228
 21
26.33634191038709
 31
0.0
  0
SPLINE
  5
306
330
1F
100
AcDbEntity
  8
3
100
AcDbSpline
210
0.0
220
0.0
230
1.0
 70
     8
 71
     3
 72
    10
 73
     6
 74
     4
 42
0.0000000001
 43
0.0000000001
 44
0.0000000001
 40
0.0
 40
0.0
 40
0.0
 40
0.0
 40
40.05603753330475
 40
72.87161810899191
 40
137.2780945651788
 40
137.2780945651788
 40
137.2780945651788
 40
137.2780945651788
 10
569.9811940861597
 20
58.10673651122556
 30
0.0
 10
587.4788143257908
 20
68.16421064031977
 30
0.0
 10
619.3112165912016
 20
86.46118805020567
 30
0.0
 10
556.5935212073934
 20
116.136095025849
 30
0.0
 10
523.8096530152597
 20
116.0562507162489
 30
0.0
 10
502.0913979266318
 20
116.0033564368703
 30
0.0
 11
569.9811940861597
 21
58.10673651122556
 31
0.0
 11
602.7967023163926
 21
87.51031881787046
 31
0.0
 11
572.3517191652449
 21
106.9037821092692
 31
0.0
 11
502.0913979266318
 21
116.0033564368703
 31
0.0
  0
SPLINE
  5
307
330
1F
100
AcDbEntity
  8
3
100
AcDbSpline
210
0.0
220
0.0
230
1.0
 70
     8
 71
     3
 72
    10
 73
     6
 74
     4
 42
0.0000000001
 43
0.0000000001
 44
0.0000000001
 40
0.0
 40
0.0
 40
0.0
 40
0.0
 40
40.05603753329942
 40
72.87161810898052
 40
137.2780945651743
 40
137.2780945651743
 40
137.2780945651743
 40
137.2780945651743
 10
434.2016017670962
 20
173.8999763625149
 30
0.0
 10
416.7039815274693
 20
163.8425022334207
 30
0.0
 10
384.8715792620664
 20
145.5455248235353
 30
0.0
 10
447.5892746458658
 20
115.8706178478875
 30
0.0
 10
480.3731428380006
 20
115.95046215749
 30
0.0
 10
502.0913979266318
 20
116.0033564368703
 30
0.0
 11
434.2016017670962
 21
173.8999763625149
 31
0.0
 11
401.3860935368714
 21
144.4963940558699
 31
0.0
 11
431.831076688011
 21
125.1029307644712
 31
0.0
 11
502.0913979266318
 21
116.0033564368703
 31
0.0
  0
SPLINE
  5
308
330
1F
100
AcDbEntity
  8
3
100
AcDbSpline
210
0.0
220
0.0
230
1.0
 70
     8
 71
     3
 72
    10
 73
     6
 74
     4
 42
0.0000000001
 43
0.0000000001
 44
0.0000000001
 40
0.0
 40
0.0
 40
0.0
 40
0.0
 40
40.05603753330483
 40
72.87161810899199
 40
137.2780945651789
 40
137.2780945651789
 40
137.2780945651789
 40
137.2780945651789
 10
569.9811940861597
 20
168.1067365112255
 30
0.0
 10
587.4788143257908
 20
178.1642106403198
 30
0.0
 10
619.3112165912016
 20
196.4611880502057
 30
0.0
 10
556.5935212073934
 20
226.1360950258491
 30
0.0
 10
523.8096530152597
 20
226.056250716249
 30
0.0
 10
502.0913979266318
 20
226.0033564368703
 30
0.0
 11
569.9811940861597
 21
168.1067365112255
 31
0.0
 11
602.7967023163926
 21
197.5103188178705
 31
0.0
 11
572.3517191652449
 21
216.9037821092694
 31
0.0
 11
502.0913979266318
 21
226.0033564368703
 31
0.0
  0
SPLINE
  5
309
330
1F
100
AcDbEntity
  8
3
100
AcDbSpline
210
0.0
220
0.0
230
1.0
 70
     8
 71
     3
 72
    10
 73
     6
 74
     4
 42
0.0000000001
 43
0.0000000001
 44
0.0000000001
 40
0.0
 40
0.0
 40
0.0
 40
0.0
 40
40.05603753329945
 40
72.87161810898055
 40
137.2780945651743
 40
137.2780945651743
 40
137.2780945651743
 40
137.2780945651743
 10
434.2016017670962
 20
283.8999763625149
 30
0.0
 10
416.7039815274693
 20
273.8425022334207
 30
0.0
 10
384.8715792620664
 20
255.5455248235353
 30
0.0
 10
447.589274645866
 20
225.8706178478877
 30
0.0
 10
480.3731428380009
 20
225.95046215749
 30
0.0
 10
502.0913979266318
 20
226.0033564368703
 30
0.0
 11
434.2016017670962
 21
283.8999763625149
 31
0.0
 11
401.3860935368714
 21
254.4963940558699
 31
0.0
 11
431.831076688011
 21
235.1029307644712
 31
0.0
 11
502.0913979266318
 21
226.0033564368703
 31
0.0
  0
SPLINE
  5
30A
330
1F
100
AcDbEntity
  8
3
100
AcDbSpline
210
0.0
220
0.0
230
1.0
 70
     8
 71
     3
 72
    10
 73
     6
 74
     4
 42
0.0000000001
 43
0.0000000001
 44
0.0000000001
 40
0.0
 40
0.0
 40
0.0
 40
0.0
 40
40.05603753330479
 40
72.87161810899199
 40
137.2780945651789
 40
137.2780945651789
 40
137.2780945651789
 40
137.2780945651789
 10
569.9811940861597
 20
278.1067365112255
 30
0.0
 10
587.4788143257908
 20
288.1642106403197
 30
0.0
 10
619.3112165912018
 20
306.4611880502056
 30
0.0
 10
556.5935212073932
 20
336.1360950258491
 30
0.0
 10
523.8096530152597
 20
336.056250716249
 30
0.0
 10
502.0913979266318
 20
336.0033564368703
 30
0.0
 11
569.9811940861597
 21
278.1067365112255
 31
0.0
 11
602.7967023163926
 21
307.5103188178705
 31
0.0
 11
572.3517191652449
 21
326.9037821092693
 31
0.0
 11
502.0913979266318
 21
336.0033564368703
 31
0.0
  0
SPLINE
  5
30B
330
1F
100
AcDbEntity
  8
3
100
AcDbSpline
210
0.0
220
0.0
230
1.0
 70
     8
 71
     3
 72
    10
 73
     6
 74
     4
 42
0.0000000001
 43
0.0000000001
 44
0.0000000001
 40
0.0
 40
0.0
 40
0.0
 40
0.0
 40
40.05603753329949
 40
72.87161810898059
 40
137.2780945651744
 40
137.2780945651744
 40
137.2780945651744
 40
137.2780945651744
 10
434.2016017670962
 20
393.899976362515
 30
0.0
 10
416.7039815274692
 20
383.8425022334208
 30
0.0
 10
384.8715792620664
 20
365.5455248235355
 30
0.0
 10
447.5892746458661
 20
335.8706178478876
 30
0.0
 10
480.3731428380009
 20
335.9504621574901
 30
0.0
 10
502.0913979266318
 20
336.0033564368703
 30
0.0
 11
434.2016017670962
 21
393.899976362515
 31
0.0
 11
401.3860935368714
 21
364.4963940558699
 31
0.0
 11
431.831076688011
 21
345.1029307644712
 31
0.0
 11
502.0913979266318
 21
336.0033564368703
 31
0.0
  0
SPLINE
  5
30C
330
1F
100
AcDbEntity
  8
3
100
AcDbSpline
210
0.0
220
0.0
230
1.0
 70
     8
 71
     3
 72
    10
 73
     6
 74
     4
 42
0.0000000001
 43
0.0000000001
 44
0.0000000001
 40
0.0
 40
0.0
 40
0.0
 40
0.0
 40
40.05603753330468
 40
72.87161810899184
 40
137.2780945651788
 40
137.2780945651788
 40
137.2780945651788
 40
137.2780945651788
 10
569.9811940861597
 20
388.1067365112256
 30
0.0
 10
587.4788143257908
 20
398.1642106403197
 30
0.0
 10
619.3112165912016
 20
416.4611880502054
 30
0.0
 10
556.5935212073934
 20
446.1360950258489
 30
0.0
 10
523.8096530152597
 20
446.0562507162488
 30
0.0
 10
502.0913979266318
 20
446.00335643687
 30
0.0
 11
569.9811940861597
 21
388.1067365112256
 31
0.0
 11
602.7967023163926
 21
417.5103188178702
 31
0.0
 11
572.3517191652449
 21
436.9037821092691
 31
0.0
 11
502.0913979266318
 21
446.00335643687
 31
0.0
  0
SPLINE
  5
30D
330
1F
100
AcDbEntity
  8
3
100
AcDbSpline
210
0.0
220
0.0
230
1.0
 70
     8
 71
     3
 72
    10
 73
     6
 74
     4
 42
0.0000000001
 43
0.0000000001
 44
0.0000000001
 40
0.0
 40
0.0
 40
0.0
 40
0.0
 40
40.05603753329942
 40
72.87161810898048
 40
137.2780945651743
 40
137.2780945651743
 40
137.2780945651743
 40
137.2780945651743
 10
434.2016017670962
 20
503.8999763625148
 30
0.0
 10
416.7039815274693
 20
493.8425022334206
 30
0.0
 10
384.8715792620664
 20
475.5455248235352
 30
0.0
 10
447.5892746458661
 20
445.8706178478877
 30
0.0
 10
480.3731428380009
 20
445.9504621574899
 30
0.0
 10
502.0913979266318
 20
446.00335643687
 30
0.0
 11
434.2016017670962
 21
503.8999763625148
 31
0.0
 11
401.3860935368714
 21
474.4963940558698
 31
0.0
 11
431.831076688011
 21
455.1029307644712
 31
0.0
 11
502.0913979266318
 21
446.00335643687
 31
0.0
  0
SPLINE
  5
30E
330
1F
100
AcDbEntity
  8
3
100
AcDbSpline
210
0.0
220
0.0
230
1.0
 70
     8
 71
     3
 72
    10
 73
     6
 74
     4
 42
0.0000000001
 43
0.0000000001
 44
0.0000000001
 40
0.0
 40
0.0
 40
0.0
 40
0.0
 40
40.05603753330479
 40
72.87161810899189
 40
137.2780945651788
 40
137.2780945651788
 40
137.2780945651788
 40
137.2780945651788
 10
569.9811940861597
 20
498.1067365112255
 30
0.0
 10
587.4788143257908
 20
508.1642106403198
 30
0.0
 10
619.3112165912018
 20
526.4611880502059
 30
0.0
 10
556.5935212073932
 20
556.1360950258488
 30
0.0
 10
523.8096530152597
 20
556.0562507162488
 30
0.0
 10
502.0913979266318
 20
556.00335643687
 30
0.0
 11
569.9811940861597
 21
498.1067365112255
 31
0.0
 11
602.7967023163926
 21
527.5103188178705
 31
0.0
 11
572.3517191652449
 21
546.9037821092692
 31
0.0
 11
502.0913979266318
 21
556.00335643687
 31
0.0
  0
SPLINE
  5
30F
330
1F
100
AcDbEntity
  8
3
100
AcDbSpline
210
0.0
220
0.0
230
1.0
 70
     8
 71
     3
 72
    10
 73
     6
 74
     4
 42
0.0000000001
 43
0.0000000001
 44
0.0000000001
 40
0.0
 40
0.0
 40
0.0
 40
0.0
 40
40.05603753329934
 40
72.87161810898047
 40
137.2780945651743
 40
137.2780945651743
 40
137.2780945651743
 40
137.2780945651743
 10
434.2016017670962
 20
613.8999763625147
 30
0.0
 10
416.7039815274693
 20
603.8425022334209
 30
0.0
 10
384.8715792620665
 20
585.5455248235355
 30
0.0
 10
447.5892746458659
 20
555.8706178478876
 30
0.0
 10
480.3731428380008
 20
555.9504621574899
 30
0.0
 10
502.0913979266318
 20
556.00335643687
 30
0.0
 11
434.2016017670962
 21
613.8999763625147
 31
0.0
 11
401.3860935368714
 21
584.49639405587
 31
0.0
 11
431.831076688011
 21
565.1029307644712
 31
0.0
 11
502.0913979266318
 21
556.00335643687
 31
0.0
  0
SPLINE
  5
310
330
1F
100
AcDbEntity
  8
3
100
AcDbSpline
210
0.0
220
0.0
230
1.0
 70
     8
 71
     3
 72
    10
 73
     6
 74
     4
 42
0.0000000001
 43
0.0000000001
 44
0.0000000001
 40
0.0
 40
0.0
 40
0.0
 40
0.0
 40
40.05603753330471
 40
72.87161810899196
 40
137.2780945651789
 40
137.2780945651789
 40
137.2780945651789
 40
137.2780945651789
 10
569.9811940861597
 20
608.1067365112255
 30
0.0
 10
587.4788143257908
 20
618.1642106403196
 30
0.0
 10
619.3112165912018
 20
636.4611880502059
 30
0.0
 10
556.5935212073932
 20
666.136095025849
 30
0.0
 10
523.8096530152597
 20
666.056250716249
 30
0.0
 10
502.0913979266318
 20
666.0033564368703
 30
0.0
 11
569.9811940861597
 21
608.1067365112255
 31
0.0
 11
602.7967023163926
 21
637.5103188178704
 31
0.0
 11
572.3517191652449
 21
656.9037821092693
 31
0.0
 11
502.0913979266318
 21
666.0033564368703
 31
0.0
  0
SPLINE
  5
311
330
1F
100
AcDbEntity
  8
3
100
AcDbSpline
210
0.0
220
0.0
230
1.0
 70
     8
 71
     3
 72
    10
 73
     6
 74
     4
 42
0.0000000001
 43
0.0000000001
 44
0.0000000001
 40
0.0
 40
0.0
 40
0.0
 40
0.0
 40
40.05603753329934
 40
72.87161810898052
 40
137.2780945651743
 40
137.2780945651743
 40
137.2780945651743
 40
137.2780945651743
 10
434.2016017670962
 20
723.8999763625147
 30
0.0
 10
416.7039815274693
 20
713.8425022334208
 30
0.0
 10
384.8715792620666
 20
695.5455248235355
 30
0.0
 10
447.5892746458658
 20
665.8706178478873
 30
0.0
 10
480.3731428380008
 20
665.9504621574899
 30
0.0
 10
502.0913979266318
 20
666.0033564368703
 30
0.0
 11
434.2016017670962
 21
723.8999763625147
 31
0.0
 11
401.3860935368714
 21
694.49639405587
 31
0.0
 11
431.831076688011
 21
675.102930764471
 31
0.0
 11
502.0913979266318
 21
666.0033564368703
 31
0.0
  0
SPLINE
  5
312
330
1F
100
AcDbEntity
  8
3
100
AcDbSpline
210
0.0
220
0.0
230
1.0
 70
     8
 71
     3
 72
    10
 73
     6
 74
     4
 42
0.0000000001
 43
0.0000000001
 44
0.0000000001
 40
0.0
 40
0.0
 40
0.0
 40
0.0
 40
40.05603753330471
 40
72.87161810899182
 40
137.2780945651788
 40
137.2780945651788
 40
137.2780945651788
 40
137.2780945651788
 10
569.9811940861597
 20
718.1067365112258
 30
0.0
 10
587.4788143257908
 20
728.1642106403198
 30
0.0
 10
619.3112165912016
 20
746.4611880502056
 30
0.0
 10
556.5935212073932
 20
776.136095025849
 30
0.0
 10
523.8096530152597
 20
776.0562507162489
 30
0.0
 10
502.0913979266318
 20
776.0033564368702
 30
0.0
 11
569.9811940861597
 21
718.1067365112258
 31
0.0
 11
602.7967023163926
 21
747.5103188178705
 31
0.0
 11
572.3517191652449
 21
766.9037821092692
 31
0.0
 11
502.0913979266318
 21
776.0033564368702
 31
0.0
  0
SPLINE
  5
313
330
1F
100
AcDbEntity
  8
3
100
AcDbSpline
210
0.0
220
0.0
230
1.0
 70
     8
 71
     3
 72
    10
 73
     6
 74
     4
 42
0.0000000001
 43
0.0000000001
 44
0.0000000001
 40
0.0
 40
0.0
 40
0.0
 40
0.0
 40
40.05603753329934
 40
72.87161810898047
 40
137.2780945651743
 40
137.2780945651743
 40
137.2780945651743
 40
137.2780945651743
 10
434.2016017670962
 20
833.899976362515
 30
0.0
 10
416.7039815274693
 20
823.8425022334208
 30
0.0
 10
384.8715792620664
 20
805.5455248235356
 30
0.0
 10
447.5892746458659
 20
775.8706178478874
 30
0.0
 10
480.3731428380008
 20
775.9504621574899
 30
0.0
 10
502.0913979266318
 20
776.0033564368702
 30
0.0
 11
434.2016017670962
 21
833.899976362515
 31
0.0
 11
401.3860935368714
 21
804.49639405587
 31
0.0
 11
431.831076688011
 21
785.1029307644712
 31
0.0
 11
502.0913979266318
 21
776.0033564368702
 31
0.0
  0
SPLINE
  5
314
330
1F
100
AcDbEntity
  8
3
100
AcDbSpline
210
0.0
220
0.0
230
1.0
 70
     8
 71
     3
 72
    10
 73
     6
 74
     4
 42
0.0000000001
 43
0.0000000001
 44
0.0000000001
 40
0.0
 40
0.0
 40
0.0
 40
0.0
 40
40.05603753330471
 40
72.87161810899175
 40
137.2780945651787
 40
137.2780945651787
 40
137.2780945651787
 40
137.2780945651787
 10
569.9811940861597
 20
828.1067365112258
 30
0.0
 10
587.478814325791
 20
838.1642106403202
 30
0.0
 10
619.3112165912021
 20
856.4611880502061
 30
0.0
 10
556.5935212073925
 20
886.1360950258484
 30
0.0
 10
523.8096530152597
 20
886.0562507162489
 30
0.0
 10
502.0913979266318
 20
886.0033564368702
 30
0.0
 11
569.9811940861597
 21
828.1067365112258
 31
0.0
 11
602.7967023163926
 21
857.5103188178704
 31
0.0
 11
572.3517191652449
 21
876.9037821092691
 31
0.0
 11
502.0913979266318
 21
886.0033564368702
 31
0.0
  0
SPLINE
  5
315
330
1F
100
AcDbEntity
  8
3
100
AcDbSpline
210
0.0
220
0.0
230
1.0
 70
     8
 71
     3
 72
    10
 73
     6
 74
     4
 42
0.0000000001
 43
0.0000000001
 44
0.0000000001
 40
0.0
 40
0.0
 40
0.0
 40
0.0
 40
40.05603753329942
 40
72.87161810898055
 40
137.2780945651743
 40
137.2780945651743
 40
137.2780945651743
 40
137.2780945651743
 10
434.2016017670962
 20
943.8999763625149
 30
0.0
 10
416.7039815274693
 20
933.8425022334211
 30
0.0
 10
384.8715792620664
 20
915.5455248235355
 30
0.0
 10
447.5892746458658
 20
885.8706178478874
 30
0.0
 10
480.3731428380006
 20
885.9504621574899
 30
0.0
 10
502.0913979266318
 20
886.0033564368702
 30
0.0
 11
434.2016017670962
 21
943.8999763625149
 31
0.0
 11
401.3860935368714
 21
914.4963940558699
 31
0.0
 11
431.831076688011
 21
895.1029307644713
 31
0.0
 11
502.0913979266318
 21
886.0033564368702
 31
0.0
  0
LWPOLYLINE
  5
316
330
1F
100
AcDbEntity
  8
0
 62
     2
100
AcDbPolyline
 90
        4
 70
     1
 43
0.0
 10
999.9999368691206
 20
1000.000042914966
 10
999.9999368691206
 20
0.0000429149658885
 10
-0.0000631308794254
 20
0.0000429149658885
 10
-0.0000631308794254
 20
1000.000042914966
  0
ENDSEC
  0
SECTION
  2
OBJECTS
  0
DICTIONARY
  5
C
330
0
100
AcDbDictionary
281
     1
  3
ACAD_COLOR
350
6B
  3
ACAD_GROUP
350
D
  3
ACAD_LAYOUT
350
1A
  3
ACAD_MATERIAL
350
6A
  3
ACAD_MLINESTYLE
350
17
  3
ACAD_PLOTSETTINGS
350
19
  3
ACAD_PLOTSTYLENAME
350
E
  3
ACDBHEADERROUNDTRIPXREC
350
340
  3
AcDbVariableDictionary
350
5E
  0
DICTIONARY
  5
6B
102
{ACAD_REACTORS
330
C
102
}
330
C
100
AcDbDictionary
281
     1
  0
DICTIONARY
  5
D
102
{ACAD_REACTORS
330
C
102
}
330
C
100
AcDbDictionary
281
     1
  0
DICTIONARY
  5
1A
102
{ACAD_REACTORS
330
C
102
}
330
C
100
AcDbDictionary
281
     1
  3
Layout1
350
51
  3
Layout2
350
56
  3
Model
350
22
  0
DICTIONARY
  5
6A
102
{ACAD_REACTORS
330
C
102
}
330
C
100
AcDbDictionary
281
     1
  0
DICTIONARY
  5
17
102
{ACAD_REACTORS
330
C
102
}
330
C
100
AcDbDictionary
281
     1
  3
Standard
350
18
  0
DICTIONARY
  5
19
102
{ACAD_REACTORS
330
C
102
}
330
C
100
AcDbDictionary
281
     1
  0
ACDBDICTIONARYWDFLT
  5
E
102
{ACAD_REACTORS
330
C
102
}
330
C
100
AcDbDictionary
281
     1
  3
Normal
350
F
100
AcDbDictionaryWithDefault
340
F
  0
DICTIONARY
  5
340
102
{ACAD_REACTORS
330
C
102
}
330
C
100
AcDbDictionary
281
     1
  3
COLORDICT
350
342
  3
MATERIALDICT
350
341
  0
DICTIONARY
  5
5E
102
{ACAD_REACTORS
330
C
102
}
330
C
100
AcDbDictionary
281
     1
  3
DIMASSOC
350
5F
  3
HIDETEXT
350
63
  3
PROJECTNAME
350
85
  0
LAYOUT
  5
51
102
{ACAD_XDICTIONARY
360
345
102
}
102
{ACAD_REACTORS
330
1A
102
}
330
1A
100
AcDbPlotSettings
  1

  2
None
  4

  6

 40
0.0
 41
0.0
 42
0.0
 43
0.0
 44
0.0
 45
0.0
 46
0.0
 47
0.0
 48
0.0
 49
0.0
140
0.0
141
0.0
142
1.0
143
1.0
 70
   688
 72
     0
 73
     0
 74
     5
  7

 75
    16
147
1.0
148
0.0
149
0.0
100
AcDbLayout
  1
Layout1
 70
     1
 71
     1
 10
0.0
 20
0.0
 11
12.0
 21
9.0
 12
0.0
 22
0.0
 32
0.0
 14
0.0
 24
0.0
 34
0.0
 15
0.0
 25
0.0
 35
0.0
146
0.0
 13
0.0
 23
0.0
 33
0.0
 16
1.0
 26
0.0
 36
0.0
 17
0.0
 27
1.0
 37
0.0
 76
     0
330
50
  0
LAYOUT
  5
56
102
{ACAD_XDICTIONARY
360
347
102
}
102
{ACAD_REACTORS
330
1A
102
}
330
1A
100
AcDbPlotSettings
  1

  2
None
  4

  6

 40
0.0
 41
0.0
 42
0.0
 43
0.0
 44
0.0
 45
0.0
 46
0.0
 47
0.0
 48
0.0
 49
0.0
140
0.0
141
0.0
142
1.0
143
1.0
 70
   688
 72
     0
 73
     0
 74
     5
  7

 75
    16
147
1.0
148
0.0
149
0.0
100
AcDbLayout
  1
Layout2
 70
     1
 71
     2
 10
0.0
 20
0.0
 11
12.0
 21
9.0
 12
0.0
 22
0.0
 32
0.0
 14
0.0
 24
0.0
 34
0.0
 15
0.0
 25
0.0
 35
0.0
146
0.0
 13
0.0
 23
0.0
 33
0.0
 16
1.0
 26
0.0
 36
0.0
 17
0.0
 27
1.0
 37
0.0
 76
     0
330
55
  0
LAYOUT
  5
22
102
{ACAD_XDICTIONARY
360
343
102
}
102
{ACAD_REACTORS
330
1A
102
}
330
1A
100
AcDbPlotSettings
  1

  2
none_device
  4
ANSI_A_(8.50_x_11.00_Inches)
  6

 40
6.349999904632567
 41
19.04999923706055
 42
6.350006103515625
 43
19.04998779296875
 44
215.8999938964844
 45
279.3999938964844
 46
0.0
 47
0.0
 48
0.0
 49
0.0
140
0.0
141
0.0
142
1.0
143
78.436453180766
 70
 11952
 72
     0
 73
     1
 74
     0
  7

 75
     0
147
0.0127491741332998
148
0.0
149
0.0
100
AcDbLayout
  1
Model
 70
     1
 71
     0
 10
0.0
 20
0.0
 11
12.0
 21
9.0
 12
0.0
 22
0.0
 32
0.0
 14
0.0
 24
0.0
 34
0.0
 15
0.0
 25
0.0
 35
0.0
146
0.0
 13
0.0
 23
0.0
 33
0.0
 16
1.0
 26
0.0
 36
0.0
 17
0.0
 27
1.0
 37
0.0
 76
     0
330
1F
  0
MLINESTYLE
  5
18
102
{ACAD_REACTORS
330
17
102
}
330
17
100
AcDbMlineStyle
  2
STANDARD
 70
     0
  3

 62
   256
 51
90.0
 52
90.0
 71
     2
 49
0.5
 62
   256
  6
BYLAYER
 49
-0.5
 62
   256
  6
BYLAYER
  0
ACDBPLACEHOLDER
  5
F
102
{ACAD_REACTORS
330
E
102
}
330
E
  0
XRECORD
  5
342
102
{ACAD_REACTORS
330
340
102
}
330
340
100
AcDbXrecord
280
     1
340
6B
  0
XRECORD
  5
341
102
{ACAD_REACTORS
330
340
102
}
330
340
100
AcDbXrecord
280
     1
340
6A
  0
DICTIONARYVAR
  5
5F
102
{ACAD_REACTORS
330
5E
102
}
330
5E
100
DictionaryVariables
280
     0
  1
2
  0
DICTIONARYVAR
  5
63
102
{ACAD_REACTORS
330
5E
102
}
330
5E
100
DictionaryVariables
280
     0
  1
1
  0
DICTIONARYVAR
  5
85
102
{ACAD_REACTORS
330
5E
102
}
330
5E
100
DictionaryVariables
280
     0
  1

  0
DICTIONARY
  5
345
330
51
100
AcDbDictionary
280
     1
281
     1
  3
ACAD_XREC_ROUNDTRIP
360
346
  0
DICTIONARY
  5
347
330
56
100
AcDbDictionary
280
     1
281
     1
  3
ACAD_XREC_ROUNDTRIP
360
348
  0
DICTIONARY
  5
343
330
22
100
AcDbDictionary
280
     1
281
     1
  3
ACAD_XREC_ROUNDTRIP
360
344
  0
XRECORD
  5
346
102
{ACAD_REACTORS
330
345
102
}
330
345
100
AcDbXrecord
280
     1
102
SHADEPLOT
 70
     0
102
SHADEPLOTRESLEVEL
 70
     2
102
SHADEPLOTCUSTOMDPI
 70
   300
  0
XRECORD
  5
348
102
{ACAD_REACTORS
330
347
102
}
330
347
100
AcDbXrecord
280
     1
102
SHADEPLOT
 70
     0
102
SHADEPLOTRESLEVEL
 70
     2
102
SHADEPLOTCUSTOMDPI
 70
   300
  0
XRECORD
  5
344
102
{ACAD_REACTORS
330
343
102
}
330
343
100
AcDbXrecord
280
     1
102
SHADEPLOT
 70
     0
102
SHADEPLOTRESLEVEL
 70
     2
102
SHADEPLOTCUSTOMDPI
 70
   300
  0
ENDSEC
  0
EOF
