  0
SECTION
  2
HEADER
  9
$ACADVER
  1
AC1015
  9
$ACADMAINTVER
 70
    20
  9
$DWGCODEPAGE
  3
ANSI_936
  9
$INSBASE
 10
0.0
 20
0.0
 30
0.0
  9
$EXTMIN
 10
-0.0001112738973461
 20
-32.89115655496289
 30
0.0
  9
$EXTMAX
 10
2444.151200605873
 20
1092.095855482372
 30
0.0
  9
$LIMMIN
 10
0.0
 20
0.0
  9
$LIMMAX
 10
420.0
 20
297.0
  9
$ORTHOMODE
 70
     0
  9
$REGENMODE
 70
     1
  9
$FILLMODE
 70
     1
  9
$QTEXTMODE
 70
     0
  9
$MIRRTEXT
 70
     0
  9
$LTSCALE
 40
1.0
  9
$ATTMODE
 70
     1
  9
$TEXTSIZE
 40
2.5
  9
$TRACEWID
 40
1.0
  9
$TEXTSTYLE
  7
Standard
  9
$CLAYER
  8
2
  9
$CELTYPE
  6
ByLayer
  9
$CECOLOR
 62
   256
  9
$CELTSCALE
 40
1.0
  9
$DISPSILH
 70
     0
  9
$DIMSCALE
 40
1.0
  9
$DIMASZ
 40
2.5
  9
$DIMEXO
 40
0.625
  9
$DIMDLI
 40
3.75
  9
$DIMRND
 40
0.0
  9
$DIMDLE
 40
0.0
  9
$DIMEXE
 40
1.25
  9
$DIMTP
 40
0.0
  9
$DIMTM
 40
0.0
  9
$DIMTXT
 40
2.5
  9
$DIMCEN
 40
2.5
  9
$DIMTSZ
 40
0.0
  9
$DIMTOL
 70
     0
  9
$DIMLIM
 70
     0
  9
$DIMTIH
 70
     0
  9
$DIMTOH
 70
     0
  9
$DIMSE1
 70
     0
  9
$DIMSE2
 70
     0
  9
$DIMTAD
 70
     1
  9
$DIMZIN
 70
     8
  9
$DIMBLK
  1

  9
$DIMASO
 70
     1
  9
$DIMSHO
 70
     1
  9
$DIMPOST
  1

  9
$DIMAPOST
  1

  9
$DIMALT
 70
     0
  9
$DIMALTD
 70
     3
  9
$DIMALTF
 40
0.03937007874016
  9
$DIMLFAC
 40
1.0
  9
$DIMTOFL
 70
     1
  9
$DIMTVP
 40
0.0
  9
$DIMTIX
 70
     0
  9
$DIMSOXD
 70
     0
  9
$DIMSAH
 70
     0
  9
$DIMBLK1
  1

  9
$DIMBLK2
  1

  9
$DIMSTYLE
  2
ISO-25
  9
$DIMCLRD
 70
     0
  9
$DIMCLRE
 70
     0
  9
$DIMCLRT
 70
     0
  9
$DIMTFAC
 40
1.0
  9
$DIMGAP
 40
0.625
  9
$DIMJUST
 70
     0
  9
$DIMSD1
 70
     0
  9
$DIMSD2
 70
     0
  9
$DIMTOLJ
 70
     0
  9
$DIMTZIN
 70
     8
  9
$DIMALTZ
 70
     0
  9
$DIMALTTZ
 70
     0
  9
$DIMUPT
 70
     0
  9
$DIMDEC
 70
     2
  9
$DIMTDEC
 70
     2
  9
$DIMALTU
 70
     2
  9
$DIMALTTD
 70
     3
  9
$DIMTXSTY
  7
Standard
  9
$DIMAUNIT
 70
     0
  9
$DIMADEC
 70
     0
  9
$DIMALTRND
 40
0.0
  9
$DIMAZIN
 70
     0
  9
$DIMDSEP
 70
    44
  9
$DIMATFIT
 70
     3
  9
$DIMFRAC
 70
     0
  9
$DIMLDRBLK
  1

  9
$DIMLUNIT
 70
     2
  9
$DIMLWD
 70
    -2
  9
$DIMLWE
 70
    -2
  9
$DIMTMOVE
 70
     0
  9
$LUNITS
 70
     2
  9
$LUPREC
 70
     4
  9
$SKETCHINC
 40
1.0
  9
$FILLETRAD
 40
0.0
  9
$AUNITS
 70
     0
  9
$AUPREC
 70
     0
  9
$MENU
  1
.
  9
$ELEVATION
 40
0.0
  9
$PELEVATION
 40
0.0
  9
$THICKNESS
 40
0.0
  9
$LIMCHECK
 70
     0
  9
$CHAMFERA
 40
0.0
  9
$CHAMFERB
 40
0.0
  9
$CHAMFERC
 40
0.0
  9
$CHAMFERD
 40
0.0
  9
$SKPOLY
 70
     0
  9
$TDCREATE
 40
2455505.725807523
  9
$TDUCREATE
 40
2455505.392474190
  9
$TDUPDATE
 40
2457095.959500104
  9
$TDUUPDATE
 40
2457095.626166771
  9
$TDINDWG
 40
0.0543268634
  9
$TDUSRTIMER
 40
0.0543261690
  9
$USRTIMER
 70
     1
  9
$ANGBASE
 50
0.0
  9
$ANGDIR
 70
     0
  9
$PDMODE
 70
     0
  9
$PDSIZE
 40
0.0
  9
$PLINEWID
 40
0.0
  9
$SPLFRAME
 70
     0
  9
$SPLINETYPE
 70
     6
  9
$SPLINESEGS
 70
     8
  9
$HANDSEED
  5
33F
  9
$SURFTAB1
 70
     6
  9
$SURFTAB2
 70
     6
  9
$SURFTYPE
 70
     6
  9
$SURFU
 70
     6
  9
$SURFV
 70
     6
  9
$UCSBASE
  2

  9
$UCSNAME
  2

  9
$UCSORG
 10
0.0
 20
0.0
 30
0.0
  9
$UCSXDIR
 10
1.0
 20
0.0
 30
0.0
  9
$UCSYDIR
 10
0.0
 20
1.0
 30
0.0
  9
$UCSORTHOREF
  2

  9
$UCSORTHOVIEW
 70
     0
  9
$UCSORGTOP
 10
0.0
 20
0.0
 30
0.0
  9
$UCSORGBOTTOM
 10
0.0
 20
0.0
 30
0.0
  9
$UCSORGLEFT
 10
0.0
 20
0.0
 30
0.0
  9
$UCSORGRIGHT
 10
0.0
 20
0.0
 30
0.0
  9
$UCSORGFRONT
 10
0.0
 20
0.0
 30
0.0
  9
$UCSORGBACK
 10
0.0
 20
0.0
 30
0.0
  9
$PUCSBASE
  2

  9
$PUCSNAME
  2

  9
$PUCSORG
 10
0.0
 20
0.0
 30
0.0
  9
$PUCSXDIR
 10
1.0
 20
0.0
 30
0.0
  9
$PUCSYDIR
 10
0.0
 20
1.0
 30
0.0
  9
$PUCSORTHOREF
  2

  9
$PUCSORTHOVIEW
 70
     0
  9
$PUCSORGTOP
 10
0.0
 20
0.0
 30
0.0
  9
$PUCSORGBOTTOM
 10
0.0
 20
0.0
 30
0.0
  9
$PUCSORGLEFT
 10
0.0
 20
0.0
 30
0.0
  9
$PUCSORGRIGHT
 10
0.0
 20
0.0
 30
0.0
  9
$PUCSORGFRONT
 10
0.0
 20
0.0
 30
0.0
  9
$PUCSORGBACK
 10
0.0
 20
0.0
 30
0.0
  9
$USERI1
 70
     0
  9
$USERI2
 70
     0
  9
$USERI3
 70
     0
  9
$USERI4
 70
     0
  9
$USERI5
 70
     0
  9
$USERR1
 40
0.0
  9
$USERR2
 40
0.0
  9
$USERR3
 40
0.0
  9
$USERR4
 40
0.0
  9
$USERR5
 40
0.0
  9
$WORLDVIEW
 70
     1
  9
$SHADEDGE
 70
     3
  9
$SHADEDIF
 70
    70
  9
$TILEMODE
 70
     1
  9
$MAXACTVP
 70
    64
  9
$PINSBASE
 10
0.0
 20
0.0
 30
0.0
  9
$PLIMCHECK
 70
     0
  9
$PEXTMIN
 10
0.0
 20
0.0
 30
0.0
  9
$PEXTMAX
 10
0.0
 20
0.0
 30
0.0
  9
$PLIMMIN
 10
0.0
 20
0.0
  9
$PLIMMAX
 10
12.0
 20
9.0
  9
$UNITMODE
 70
     0
  9
$VISRETAIN
 70
     1
  9
$PLINEGEN
 70
     0
  9
$PSLTSCALE
 70
     1
  9
$TREEDEPTH
 70
  3020
  9
$CMLSTYLE
  2
Standard
  9
$CMLJUST
 70
     0
  9
$CMLSCALE
 40
20.0
  9
$PROXYGRAPHICS
 70
     1
  9
$MEASUREMENT
 70
     1
  9
$CELWEIGHT
370
    -1
  9
$ENDCAPS
280
     0
  9
$JOINSTYLE
280
     0
  9
$LWDISPLAY
290
     0
  9
$INSUNITS
 70
     4
  9
$HYPERLINKBASE
  1

  9
$STYLESHEET
  1

  9
$XEDIT
290
     1
  9
$CEPSNTYPE
380
     0
  9
$PSTYLEMODE
290
     1
  9
$FINGERPRINTGUID
  2
{FDEAD578-A652-11D2-9A35-0060089B3A3F}
  9
$VERSIONGUID
  2
{A93075B5-4317-4EBC-A32A-B5D614502158}
  9
$EXTNAMES
290
     1
  9
$PSVPSCALE
 40
0.0
  9
$OLESTARTUP
290
     0
  0
ENDSEC
  0
SECTION
  2
CLASSES
  0
CLASS
  1
ACDBDICTIONARYWDFLT
  2
AcDbDictionaryWithDefault
  3
ObjectDBX Classes
 90
        0
280
     0
281
     0
  0
CLASS
  1
ACDBPLACEHOLDER
  2
AcDbPlaceHolder
  3
ObjectDBX Classes
 90
        0
280
     0
281
     0
  0
CLASS
  1
LAYOUT
  2
AcDbLayout
  3
ObjectDBX Classes
 90
        0
280
     0
281
     0
  0
CLASS
  1
DICTIONARYVAR
  2
AcDbDictionaryVar
  3
ObjectDBX Classes
 90
        0
280
     0
281
     0
  0
ENDSEC
  0
SECTION
  2
TABLES
  0
TABLE
  2
VPORT
  5
8
330
0
100
AcDbSymbolTable
 70
     3
  0
VPORT
  5
335
330
8
100
AcDbSymbolTableRecord
100
AcDbViewportTableRecord
  2
*Active
 70
     0
 10
0.0
 20
0.0
 11
1.0
 21
1.0
 12
1067.674006685978
 22
431.75643420914
 13
0.0
 23
0.0
 14
10.0
 24
10.0
 15
10.0
 25
10.0
 16
0.0
 26
0.0
 36
1.0
 17
0.0
 27
0.0
 37
0.0
 40
2131.575499795989
 41
2.425287356321839
 42
50.0
 43
0.0
 44
0.0
 50
0.0
 51
0.0
 71
     0
 72
  1000
 73
     1
 74
     3
 75
     0
 76
     0
 77
     0
 78
     0
281
     0
 65
     1
110
0.0
120
0.0
130
0.0
111
1.0
121
0.0
131
0.0
112
0.0
122
1.0
132
0.0
 79
     0
146
0.0
  0
ENDTAB
  0
TABLE
  2
LTYPE
  5
5
330
0
100
AcDbSymbolTable
 70
     1
  0
LTYPE
  5
14
330
5
100
AcDbSymbolTableRecord
100
AcDbLinetypeTableRecord
  2
ByBlock
 70
     0
  3

 72
    65
 73
     0
 40
0.0
  0
LTYPE
  5
15
330
5
100
AcDbSymbolTableRecord
100
AcDbLinetypeTableRecord
  2
ByLayer
 70
     0
  3

 72
    65
 73
     0
 40
0.0
  0
LTYPE
  5
16
330
5
100
AcDbSymbolTableRecord
100
AcDbLinetypeTableRecord
  2
Continuous
 70
     0
  3
Solid line
 72
    65
 73
     0
 40
0.0
  0
ENDTAB
  0
TABLE
  2
LAYER
  5
2
330
0
100
AcDbSymbolTable
 70
     4
  0
LAYER
  5
10
330
2
100
AcDbSymbolTableRecord
100
AcDbLayerTableRecord
  2
0
 70
     0
 62
     2
  6
Continuous
370
    -3
390
F
  0
LAYER
  5
94
330
2
100
AcDbSymbolTableRecord
100
AcDbLayerTableRecord
  2
1
 70
     0
 62
     1
  6
Continuous
370
    -3
390
F
  0
LAYER
  5
95
330
2
100
AcDbSymbolTableRecord
100
AcDbLayerTableRecord
  2
2
 70
     0
 62
     7
  6
Continuous
370
    -3
390
F
  0
LAYER
  5
10E
330
2
100
AcDbSymbolTableRecord
100
AcDbLayerTableRecord
  2
3
 70
     0
 62
     7
  6
Continuous
370
    -3
390
F
  0
ENDTAB
  0
TABLE
  2
STYLE
  5
3
330
0
100
AcDbSymbolTable
 70
     1
  0
STYLE
  5
11
330
3
100
AcDbSymbolTableRecord
100
AcDbTextStyleTableRecord
  2
Standard
 70
     0
 40
0.0
 41
1.0
 50
0.0
 71
     0
 42
2.5
  3
txt
  4

  0
ENDTAB
  0
TABLE
  2
VIEW
  5
6
330
0
100
AcDbSymbolTable
 70
     0
  0
ENDTAB
  0
TABLE
  2
UCS
  5
7
330
0
100
AcDbSymbolTable
 70
     0
  0
ENDTAB
  0
TABLE
  2
APPID
  5
9
330
0
100
AcDbSymbolTable
 70
     1
  0
APPID
  5
12
330
9
100
AcDbSymbolTableRecord
100
AcDbRegAppTableRecord
  2
ACAD
 70
     0
  0
ENDTAB
  0
TABLE
  2
DIMSTYLE
  5
A
330
0
100
AcDbSymbolTable
 70
     1
100
AcDbDimStyleTable
 71
     0
  0
DIMSTYLE
105
27
330
A
100
AcDbSymbolTableRecord
100
AcDbDimStyleTableRecord
  2
ISO-25
 70
     0
 41
2.5
 42
0.625
 43
3.75
 44
1.25
 73
     0
 74
     0
 77
     1
 78
     8
140
2.5
141
2.5
143
0.03937007874016
147
0.625
171
     3
172
     1
271
     2
272
     2
274
     3
278
    44
283
     0
284
     8
340
11
  0
ENDTAB
  0
TABLE
  2
BLOCK_RECORD
  5
1
330
0
100
AcDbSymbolTable
 70
     2
  0
BLOCK_RECORD
  5
1F
330
1
100
AcDbSymbolTableRecord
100
AcDbBlockTableRecord
  2
*Model_Space
340
22
  0
BLOCK_RECORD
  5
50
330
1
100
AcDbSymbolTableRecord
100
AcDbBlockTableRecord
  2
*Paper_Space
340
51
  0
BLOCK_RECORD
  5
55
330
1
100
AcDbSymbolTableRecord
100
AcDbBlockTableRecord
  2
*Paper_Space0
340
56
  0
ENDTAB
  0
ENDSEC
  0
SECTION
  2
BLOCKS
  0
BLOCK
  5
20
330
1F
100
AcDbEntity
  8
0
100
AcDbBlockBegin
  2
*Model_Space
 70
     0
 10
0.0
 20
0.0
 30
0.0
  3
*Model_Space
  1

  0
ENDBLK
  5
21
330
1F
100
AcDbEntity
  8
0
100
AcDbBlockEnd
  0
BLOCK
  5
52
330
50
100
AcDbEntity
 67
     1
  8
0
100
AcDbBlockBegin
  2
*Paper_Space
 70
     0
 10
0.0
 20
0.0
 30
0.0
  3
*Paper_Space
  1

  0
ENDBLK
  5
53
330
50
100
AcDbEntity
 67
     1
  8
0
100
AcDbBlockEnd
  0
BLOCK
  5
57
330
55
100
AcDbEntity
  8
0
100
AcDbBlockBegin
  2
*Paper_Space0
 70
     0
 10
0.0
 20
0.0
 30
0.0
  3
*Paper_Space0
  1

  0
ENDBLK
  5
58
330
55
100
AcDbEntity
  8
0
100
AcDbBlockEnd
  0
ENDSEC
  0
SECTION
  2
ENTITIES
  0
LWPOLYLINE
  5
2C6
330
1F
100
AcDbEntity
  8
0
 62
     2
100
AcDbPolyline
 90
        4
 70
     1
 43
0.0
 10
999.9998887261027
 20
0.0000259300286416
 10
-0.0001112738973461
 20
0.0000259300286416
 10
-0.0001112738973461
 20
1000.000025930028
 10
999.9998887261027
 20
1000.000025930028
  0
SPLINE
  5
2C7
330
1F
100
AcDbEntity
  8
3
100
AcDbSpline
210
0.0
220
0.0
230
1.0
 70
     8
 71
     3
 72
    10
 73
     6
 74
     4
 42
0.0000000001
 43
0.0000000001
 44
0.0000000001
 40
0.0
 40
0.0
 40
0.0
 40
0.0
 40
40.05603753330208
 40
72.87161810898618
 40
137.2780945651761
 40
137.2780945651761
 40
137.2780945651761
 40
137.2780945651761
 10
943.4324834047641
 20
568.1849261730124
 30
0.0
 10
933.37500927567
 20
585.6825464126411
 30
0.0
 10
915.0780318657844
 20
617.5149486780481
 30
0.0
 10
885.403124890138
 20
554.7972532942443
 30
0.0
 10
885.4829691997418
 20
522.0133851021102
 30
0.0
 10
885.5358634791231
 20
500.2951300134805
 30
0.0
 11
943.4324834047641
 21
568.1849261730124
 31
0.0
 11
914.0289010981192
 21
601.000434403241
 31
0.0
 11
894.6354378067203
 21
570.5554512520975
 31
0.0
 11
885.5358634791231
 21
500.2951300134805
 31
0.0
  0
SPLINE
  5
2C8
330
1F
100
AcDbEntity
  8
3
100
AcDbSpline
210
0.0
220
0.0
230
1.0
 70
     8
 71
     3
 72
    10
 73
     6
 74
     4
 42
0.0000000001
 43
0.0000000001
 44
0.0000000001
 40
0.0
 40
0.0
 40
0.0
 40
0.0
 40
40.05603753330471
 40
72.87161810899199
 40
137.2780945651791
 40
137.2780945651791
 40
137.2780945651791
 40
137.2780945651791
 10
827.6392435534747
 20
432.4053338539528
 30
0.0
 10
837.696717682569
 20
414.9077136143218
 30
0.0
 10
855.9936950924548
 20
383.0753113489108
 30
0.0
 10
885.6686020680976
 20
445.7930067327193
 30
0.0
 10
885.5887577585001
 20
478.5768749248526
 30
0.0
 10
885.5358634791231
 20
500.2951300134805
 30
0.0
 11
827.6392435534747
 21
432.4053338539528
 31
0.0
 11
857.0428258601195
 21
399.58982562372
 31
0.0
 11
876.4362891515183
 21
430.0348087748677
 31
0.0
 11
885.5358634791231
 21
500.2951300134805
 31
0.0
  0
SPLINE
  5
2C9
330
1F
100
AcDbEntity
  8
3
100
AcDbSpline
210
0.0
220
0.0
230
1.0
 70
     8
 71
     3
 72
    10
 73
     6
 74
     4
 42
0.0000000001
 43
0.0000000001
 44
0.0000000001
 40
0.0
 40
0.0
 40
0.0
 40
0.0
 40
40.05603753330201
 40
72.87161810898618
 40
137.2780945651761
 40
137.2780945651761
 40
137.2780945651761
 40
137.2780945651761
 10
833.432483404764
 20
568.1849261730124
 30
0.0
 10
823.37500927567
 20
585.6825464126414
 30
0.0
 10
805.0780318657844
 20
617.5149486780481
 30
0.0
 10
775.403124890138
 20
554.7972532942445
 30
0.0
 10
775.482969199742
 20
522.0133851021103
 30
0.0
 10
775.5358634791234
 20
500.2951300134805
 30
0.0
 11
833.432483404764
 21
568.1849261730124
 31
0.0
 11
804.0289010981192
 21
601.000434403241
 31
0.0
 11
784.6354378067201
 21
570.5554512520975
 31
0.0
 11
775.5358634791234
 21
500.2951300134805
 31
0.0
  0
SPLINE
  5
2CA
330
1F
100
AcDbEntity
  8
3
100
AcDbSpline
210
0.0
220
0.0
230
1.0
 70
     8
 71
     3
 72
    10
 73
     6
 74
     4
 42
0.0000000001
 43
0.0000000001
 44
0.0000000001
 40
0.0
 40
0.0
 40
0.0
 40
0.0
 40
40.05603753330471
 40
72.87161810899199
 40
137.2780945651791
 40
137.2780945651791
 40
137.2780945651791
 40
137.2780945651791
 10
717.6392435534746
 20
432.4053338539528
 30
0.0
 10
727.696717682569
 20
414.9077136143218
 30
0.0
 10
745.9936950924547
 20
383.0753113489108
 30
0.0
 10
775.6686020680977
 20
445.7930067327193
 30
0.0
 10
775.5887577585001
 20
478.5768749248526
 30
0.0
 10
775.5358634791234
 20
500.2951300134805
 30
0.0
 11
717.6392435534746
 21
432.4053338539528
 31
0.0
 11
747.0428258601195
 21
399.58982562372
 31
0.0
 11
766.4362891515184
 21
430.0348087748677
 31
0.0
 11
775.5358634791234
 21
500.2951300134805
 31
0.0
  0
SPLINE
  5
2CB
330
1F
100
AcDbEntity
  8
3
100
AcDbSpline
210
0.0
220
0.0
230
1.0
 70
     8
 71
     3
 72
    10
 73
     6
 74
     4
 42
0.0000000001
 43
0.0000000001
 44
0.0000000001
 40
0.0
 40
0.0
 40
0.0
 40
0.0
 40
40.05603753330208
 40
72.87161810898618
 40
137.2780945651761
 40
137.2780945651761
 40
137.2780945651761
 40
137.2780945651761
 10
723.4324834047638
 20
568.1849261730124
 30
0.0
 10
713.3750092756695
 20
585.6825464126411
 30
0.0
 10
695.0780318657841
 20
617.5149486780481
 30
0.0
 10
665.4031248901382
 20
554.7972532942447
 30
0.0
 10
665.4829691997422
 20
522.0133851021103
 30
0.0
 10
665.5358634791234
 20
500.2951300134805
 30
0.0
 11
723.4324834047638
 21
568.1849261730124
 31
0.0
 11
694.0289010981189
 21
601.000434403241
 31
0.0
 11
674.6354378067201
 21
570.5554512520975
 31
0.0
 11
665.5358634791234
 21
500.2951300134805
 31
0.0
  0
SPLINE
  5
2CC
330
1F
100
AcDbEntity
  8
3
100
AcDbSpline
210
0.0
220
0.0
230
1.0
 70
     8
 71
     3
 72
    10
 73
     6
 74
     4
 42
0.0000000001
 43
0.0000000001
 44
0.0000000001
 40
0.0
 40
0.0
 40
0.0
 40
0.0
 40
40.05603753330471
 40
72.87161810899192
 40
137.278094565179
 40
137.278094565179
 40
137.278094565179
 40
137.278094565179
 10
607.6392435534747
 20
432.4053338539528
 30
0.0
 10
617.6967176825687
 20
414.9077136143217
 30
0.0
 10
635.993695092455
 20
383.0753113489108
 30
0.0
 10
665.6686020680977
 20
445.7930067327198
 30
0.0
 10
665.5887577585003
 20
478.5768749248527
 30
0.0
 10
665.5358634791234
 20
500.2951300134805
 30
0.0
 11
607.6392435534747
 21
432.4053338539528
 31
0.0
 11
637.0428258601195
 21
399.58982562372
 31
0.0
 11
656.4362891515184
 21
430.0348087748677
 31
0.0
 11
665.5358634791234
 21
500.2951300134805
 31
0.0
  0
SPLINE
  5
2CD
330
1F
100
AcDbEntity
  8
3
100
AcDbSpline
210
0.0
220
0.0
230
1.0
 70
     8
 71
     3
 72
    10
 73
     6
 74
     4
 42
0.0000000001
 43
0.0000000001
 44
0.0000000001
 40
0.0
 40
0.0
 40
0.0
 40
0.0
 40
40.05603753330208
 40
72.87161810898613
 40
137.2780945651761
 40
137.2780945651761
 40
137.2780945651761
 40
137.2780945651761
 10
613.4324834047638
 20
568.1849261730124
 30
0.0
 10
603.3750092756697
 20
585.6825464126414
 30
0.0
 10
585.0780318657844
 20
617.5149486780483
 30
0.0
 10
555.4031248901383
 20
554.7972532942443
 30
0.0
 10
555.4829691997422
 20
522.0133851021103
 30
0.0
 10
555.5358634791234
 20
500.2951300134805
 30
0.0
 11
613.4324834047638
 21
568.1849261730124
 31
0.0
 11
584.0289010981189
 21
601.000434403241
 31
0.0
 11
564.6354378067203
 21
570.5554512520975
 31
0.0
 11
555.5358634791234
 21
500.2951300134805
 31
0.0
  0
SPLINE
  5
2CE
330
1F
100
AcDbEntity
  8
3
100
AcDbSpline
210
0.0
220
0.0
230
1.0
 70
     8
 71
     3
 72
    10
 73
     6
 74
     4
 42
0.0000000001
 43
0.0000000001
 44
0.0000000001
 40
0.0
 40
0.0
 40
0.0
 40
0.0
 40
40.05603753330479
 40
72.87161810899196
 40
137.2780945651791
 40
137.2780945651791
 40
137.2780945651791
 40
137.2780945651791
 10
497.6392435534746
 20
432.4053338539528
 30
0.0
 10
507.6967176825688
 20
414.9077136143218
 30
0.0
 10
525.993695092455
 20
383.0753113489109
 30
0.0
 10
555.6686020680972
 20
445.7930067327194
 30
0.0
 10
555.5887577585001
 20
478.5768749248526
 30
0.0
 10
555.5358634791234
 20
500.2951300134805
 30
0.0
 11
497.6392435534746
 21
432.4053338539528
 31
0.0
 11
527.0428258601196
 21
399.58982562372
 31
0.0
 11
546.4362891515183
 21
430.0348087748677
 31
0.0
 11
555.5358634791234
 21
500.2951300134805
 31
0.0
  0
SPLINE
  5
2CF
330
1F
100
AcDbEntity
  8
3
100
AcDbSpline
210
0.0
220
0.0
230
1.0
 70
     8
 71
     3
 72
    10
 73
     6
 74
     4
 42
0.0000000001
 43
0.0000000001
 44
0.0000000001
 40
0.0
 40
0.0
 40
0.0
 40
0.0
 40
40.05603753330208
 40
72.87161810898613
 40
137.2780945651761
 40
137.2780945651761
 40
137.2780945651761
 40
137.2780945651761
 10
503.4324834047638
 20
568.1849261730124
 30
0.0
 10
493.3750092756697
 20
585.6825464126414
 30
0.0
 10
475.0780318657842
 20
617.5149486780483
 30
0.0
 10
445.4031248901382
 20
554.7972532942443
 30
0.0
 10
445.4829691997422
 20
522.0133851021103
 30
0.0
 10
445.5358634791234
 20
500.2951300134805
 30
0.0
 11
503.4324834047638
 21
568.1849261730124
 31
0.0
 11
474.0289010981189
 21
601.000434403241
 31
0.0
 11
454.6354378067203
 21
570.5554512520975
 31
0.0
 11
445.5358634791234
 21
500.2951300134805
 31
0.0
  0
SPLINE
  5
2D0
330
1F
100
AcDbEntity
  8
3
100
AcDbSpline
210
0.0
220
0.0
230
1.0
 70
     8
 71
     3
 72
    10
 73
     6
 74
     4
 42
0.0000000001
 43
0.0000000001
 44
0.0000000001
 40
0.0
 40
0.0
 40
0.0
 40
0.0
 40
40.05603753330476
 40
72.87161810899192
 40
137.278094565179
 40
137.278094565179
 40
137.278094565179
 40
137.278094565179
 10
387.6392435534747
 20
432.4053338539528
 30
0.0
 10
397.6967176825689
 20
414.9077136143218
 30
0.0
 10
415.9936950924548
 20
383.0753113489108
 30
0.0
 10
445.6686020680974
 20
445.7930067327197
 30
0.0
 10
445.5887577585002
 20
478.5768749248527
 30
0.0
 10
445.5358634791234
 20
500.2951300134805
 30
0.0
 11
387.6392435534747
 21
432.4053338539528
 31
0.0
 11
417.0428258601195
 21
399.58982562372
 31
0.0
 11
436.4362891515182
 21
430.0348087748677
 31
0.0
 11
445.5358634791234
 21
500.2951300134805
 31
0.0
  0
SPLINE
  5
2D1
330
1F
100
AcDbEntity
  8
3
100
AcDbSpline
210
0.0
220
0.0
230
1.0
 70
     8
 71
     3
 72
    10
 73
     6
 74
     4
 42
0.0000000001
 43
0.0000000001
 44
0.0000000001
 40
0.0
 40
0.0
 40
0.0
 40
0.0
 40
40.05603753330208
 40
72.87161810898618
 40
137.2780945651761
 40
137.2780945651761
 40
137.2780945651761
 40
137.2780945651761
 10
393.4324834047641
 20
568.1849261730124
 30
0.0
 10
383.3750092756698
 20
585.6825464126411
 30
0.0
 10
365.0780318657843
 20
617.5149486780481
 30
0.0
 10
335.4031248901381
 20
554.7972532942443
 30
0.0
 10
335.4829691997422
 20
522.0133851021102
 30
0.0
 10
335.5358634791235
 20
500.2951300134805
 30
0.0
 11
393.4324834047641
 21
568.1849261730124
 31
0.0
 11
364.0289010981191
 21
601.000434403241
 31
0.0
 11
344.6354378067203
 21
570.5554512520975
 31
0.0
 11
335.5358634791235
 21
500.2951300134805
 31
0.0
  0
SPLINE
  5
2D2
330
1F
100
AcDbEntity
  8
3
100
AcDbSpline
210
0.0
220
0.0
230
1.0
 70
     8
 71
     3
 72
    10
 73
     6
 74
     4
 42
0.0000000001
 43
0.0000000001
 44
0.0000000001
 40
0.0
 40
0.0
 40
0.0
 40
0.0
 40
40.05603753330483
 40
72.87161810899204
 40
137.2780945651792
 40
137.2780945651792
 40
137.2780945651792
 40
137.2780945651792
 10
277.6392435534746
 20
432.4053338539528
 30
0.0
 10
287.6967176825688
 20
414.9077136143218
 30
0.0
 10
305.9936950924549
 20
383.0753113489107
 30
0.0
 10
335.6686020680977
 20
445.7930067327197
 30
0.0
 10
335.5887577585004
 20
478.5768749248527
 30
0.0
 10
335.5358634791235
 20
500.2951300134805
 30
0.0
 11
277.6392435534746
 21
432.4053338539528
 31
0.0
 11
307.0428258601196
 21
399.58982562372
 31
0.0
 11
326.4362891515184
 21
430.0348087748677
 31
0.0
 11
335.5358634791235
 21
500.2951300134805
 31
0.0
  0
SPLINE
  5
2D3
330
1F
100
AcDbEntity
  8
3
100
AcDbSpline
210
0.0
220
0.0
230
1.0
 70
     8
 71
     3
 72
    10
 73
     6
 74
     4
 42
0.0000000001
 43
0.0000000001
 44
0.0000000001
 40
0.0
 40
0.0
 40
0.0
 40
0.0
 40
40.05603753330205
 40
72.87161810898616
 40
137.2780945651761
 40
137.2780945651761
 40
137.2780945651761
 40
137.2780945651761
 10
283.432483404764
 20
568.1849261730124
 30
0.0
 10
273.37500927567
 20
585.6825464126412
 30
0.0
 10
255.0780318657844
 20
617.5149486780481
 30
0.0
 10
225.4031248901382
 20
554.7972532942445
 30
0.0
 10
225.4829691997421
 20
522.0133851021102
 30
0.0
 10
225.5358634791234
 20
500.2951300134805
 30
0.0
 11
283.432483404764
 21
568.1849261730124
 31
0.0
 11
254.0289010981191
 21
601.000434403241
 31
0.0
 11
234.6354378067203
 21
570.5554512520975
 31
0.0
 11
225.5358634791234
 21
500.2951300134805
 31
0.0
  0
SPLINE
  5
2D4
330
1F
100
AcDbEntity
  8
3
100
AcDbSpline
210
0.0
220
0.0
230
1.0
 70
     8
 71
     3
 72
    10
 73
     6
 74
     4
 42
0.0000000001
 43
0.0000000001
 44
0.0000000001
 40
0.0
 40
0.0
 40
0.0
 40
0.0
 40
40.05603753330485
 40
72.87161810899205
 40
137.2780945651792
 40
137.2780945651792
 40
137.2780945651792
 40
137.2780945651792
 10
167.6392435534745
 20
432.4053338539528
 30
0.0
 10
177.6967176825688
 20
414.9077136143218
 30
0.0
 10
195.9936950924549
 20
383.0753113489108
 30
0.0
 10
225.6686020680977
 20
445.7930067327197
 30
0.0
 10
225.5887577585003
 20
478.5768749248526
 30
0.0
 10
225.5358634791234
 20
500.2951300134805
 30
0.0
 11
167.6392435534745
 21
432.4053338539528
 31
0.0
 11
197.0428258601195
 21
399.58982562372
 31
0.0
 11
216.4362891515184
 21
430.0348087748677
 31
0.0
 11
225.5358634791234
 21
500.2951300134805
 31
0.0
  0
SPLINE
  5
2D5
330
1F
100
AcDbEntity
  8
3
100
AcDbSpline
210
0.0
220
0.0
230
1.0
 70
     8
 71
     3
 72
    10
 73
     6
 74
     4
 42
0.0000000001
 43
0.0000000001
 44
0.0000000001
 40
0.0
 40
0.0
 40
0.0
 40
0.0
 40
40.05603753330205
 40
72.87161810898618
 40
137.2780945651761
 40
137.2780945651761
 40
137.2780945651761
 40
137.2780945651761
 10
173.4324834047639
 20
568.1849261730124
 30
0.0
 10
163.3750092756699
 20
585.6825464126411
 30
0.0
 10
145.0780318657843
 20
617.5149486780481
 30
0.0
 10
115.403124890138
 20
554.7972532942445
 30
0.0
 10
115.4829691997419
 20
522.0133851021103
 30
0.0
 10
115.5358634791232
 20
500.2951300134805
 30
0.0
 11
173.4324834047639
 21
568.1849261730124
 31
0.0
 11
144.028901098119
 21
601.000434403241
 31
0.0
 11
124.6354378067201
 21
570.5554512520975
 31
0.0
 11
115.5358634791232
 21
500.2951300134805
 31
0.0
  0
SPLINE
  5
2D6
330
1F
100
AcDbEntity
  8
3
100
AcDbSpline
210
0.0
220
0.0
230
1.0
 70
     8
 71
     3
 72
    10
 73
     6
 74
     4
 42
0.0000000001
 43
0.0000000001
 44
0.0000000001
 40
0.0
 40
0.0
 40
0.0
 40
0.0
 40
40.0560375333048
 40
72.87161810899201
 40
137.2780945651791
 40
137.2780945651791
 40
137.2780945651791
 40
137.2780945651791
 10
57.63924355347461
 20
432.4053338539528
 30
0.0
 10
67.69671768256888
 20
414.9077136143218
 30
0.0
 10
85.99369509245491
 20
383.0753113489109
 30
0.0
 10
115.6686020680976
 20
445.7930067327195
 30
0.0
 10
115.5887577585002
 20
478.5768749248527
 30
0.0
 10
115.5358634791232
 20
500.2951300134805
 30
0.0
 11
57.63924355347461
 21
432.4053338539528
 31
0.0
 11
87.04282586011959
 21
399.58982562372
 31
0.0
 11
106.4362891515183
 21
430.0348087748677
 31
0.0
 11
115.5358634791232
 21
500.2951300134805
 31
0.0
  0
LINE
  5
327
330
1F
100
AcDbEntity
  8
1
 62
     1
100
AcDbLine
 10
27.23390590615554
 20
634.829249157535
 30
0.0
 11
27.23390590615554
 21
365.1708027025218
 31
0.0
  0
LINE
  5
328
330
1F
100
AcDbEntity
  8
1
 62
     1
100
AcDbLine
 10
972.7658715460503
 20
365.1708027025218
 30
0.0
 11
27.23390590615554
 21
365.1708027025218
 31
0.0
  0
LINE
  5
329
330
1F
100
AcDbEntity
  8
1
 62
     1
100
AcDbLine
 10
972.7658715460503
 20
634.829249157535
 30
0.0
 11
27.23390590615554
 21
634.829249157535
 31
0.0
  0
LINE
  5
32A
330
1F
100
AcDbEntity
  8
1
 62
     1
100
AcDbLine
 10
972.7658715460497
 20
365.1708027025216
 30
0.0
 11
972.7658715460492
 21
634.829249157535
 31
0.0
  0
ENDSEC
  0
SECTION
  2
OBJECTS
  0
DICTIONARY
  5
C
330
0
100
AcDbDictionary
281
     1
  3
ACAD_COLOR
350
6B
  3
ACAD_GROUP
350
D
  3
ACAD_LAYOUT
350
1A
  3
ACAD_MATERIAL
350
6A
  3
ACAD_MLINESTYLE
350
17
  3
ACAD_PLOTSETTINGS
350
19
  3
ACAD_PLOTSTYLENAME
350
E
  3
ACDBHEADERROUNDTRIPXREC
350
336
  3
AcDbVariableDictionary
350
5E
  0
DICTIONARY
  5
6B
102
{ACAD_REACTORS
330
C
102
}
330
C
100
AcDbDictionary
281
     1
  0
DICTIONARY
  5
D
102
{ACAD_REACTORS
330
C
102
}
330
C
100
AcDbDictionary
281
     1
  0
DICTIONARY
  5
1A
102
{ACAD_REACTORS
330
C
102
}
330
C
100
AcDbDictionary
281
     1
  3
Layout1
350
51
  3
Layout2
350
56
  3
Model
350
22
  0
DICTIONARY
  5
6A
102
{ACAD_REACTORS
330
C
102
}
330
C
100
AcDbDictionary
281
     1
  0
DICTIONARY
  5
17
102
{ACAD_REACTORS
330
C
102
}
330
C
100
AcDbDictionary
281
     1
  3
Standard
350
18
  0
DICTIONARY
  5
19
102
{ACAD_REACTORS
330
C
102
}
330
C
100
AcDbDictionary
281
     1
  0
ACDBDICTIONARYWDFLT
  5
E
102
{ACAD_REACTORS
330
C
102
}
330
C
100
AcDbDictionary
281
     1
  3
Normal
350
F
100
AcDbDictionaryWithDefault
340
F
  0
DICTIONARY
  5
336
102
{ACAD_REACTORS
330
C
102
}
330
C
100
AcDbDictionary
281
     1
  3
COLORDICT
350
338
  3
MATERIALDICT
350
337
  0
DICTIONARY
  5
5E
102
{ACAD_REACTORS
330
C
102
}
330
C
100
AcDbDictionary
281
     1
  3
DIMASSOC
350
5F
  3
HIDETEXT
350
63
  3
PROJECTNAME
350
85
  0
LAYOUT
  5
51
102
{ACAD_XDICTIONARY
360
33B
102
}
102
{ACAD_REACTORS
330
1A
102
}
330
1A
100
AcDbPlotSettings
  1

  2
None
  4

  6

 40
0.0
 41
0.0
 42
0.0
 43
0.0
 44
0.0
 45
0.0
 46
0.0
 47
0.0
 48
0.0
 49
0.0
140
0.0
141
0.0
142
1.0
143
1.0
 70
   688
 72
     0
 73
     0
 74
     5
  7

 75
    16
147
1.0
148
0.0
149
0.0
100
AcDbLayout
  1
Layout1
 70
     1
 71
     1
 10
0.0
 20
0.0
 11
12.0
 21
9.0
 12
0.0
 22
0.0
 32
0.0
 14
0.0
 24
0.0
 34
0.0
 15
0.0
 25
0.0
 35
0.0
146
0.0
 13
0.0
 23
0.0
 33
0.0
 16
1.0
 26
0.0
 36
0.0
 17
0.0
 27
1.0
 37
0.0
 76
     0
330
50
  0
LAYOUT
  5
56
102
{ACAD_XDICTIONARY
360
33D
102
}
102
{ACAD_REACTORS
330
1A
102
}
330
1A
100
AcDbPlotSettings
  1

  2
None
  4

  6

 40
0.0
 41
0.0
 42
0.0
 43
0.0
 44
0.0
 45
0.0
 46
0.0
 47
0.0
 48
0.0
 49
0.0
140
0.0
141
0.0
142
1.0
143
1.0
 70
   688
 72
     0
 73
     0
 74
     5
  7

 75
    16
147
1.0
148
0.0
149
0.0
100
AcDbLayout
  1
Layout2
 70
     1
 71
     2
 10
0.0
 20
0.0
 11
12.0
 21
9.0
 12
0.0
 22
0.0
 32
0.0
 14
0.0
 24
0.0
 34
0.0
 15
0.0
 25
0.0
 35
0.0
146
0.0
 13
0.0
 23
0.0
 33
0.0
 16
1.0
 26
0.0
 36
0.0
 17
0.0
 27
1.0
 37
0.0
 76
     0
330
55
  0
LAYOUT
  5
22
102
{ACAD_XDICTIONARY
360
339
102
}
102
{ACAD_REACTORS
330
1A
102
}
330
1A
100
AcDbPlotSettings
  1

  2
none_device
  4
ANSI_A_(8.50_x_11.00_Inches)
  6

 40
6.349999904632567
 41
19.04999923706055
 42
6.350006103515625
 43
19.04998779296875
 44
215.8999938964844
 45
279.3999938964844
 46
0.0
 47
0.0
 48
0.0
 49
0.0
140
0.0
141
0.0
142
1.0
143
78.436453180766
 70
 11952
 72
     0
 73
     1
 74
     0
  7

 75
     0
147
0.0127491741332998
148
0.0
149
0.0
100
AcDbLayout
  1
Model
 70
     1
 71
     0
 10
0.0
 20
0.0
 11
12.0
 21
9.0
 12
0.0
 22
0.0
 32
0.0
 14
0.0
 24
0.0
 34
0.0
 15
0.0
 25
0.0
 35
0.0
146
0.0
 13
0.0
 23
0.0
 33
0.0
 16
1.0
 26
0.0
 36
0.0
 17
0.0
 27
1.0
 37
0.0
 76
     0
330
1F
  0
MLINESTYLE
  5
18
102
{ACAD_REACTORS
330
17
102
}
330
17
100
AcDbMlineStyle
  2
STANDARD
 70
     0
  3

 62
   256
 51
90.0
 52
90.0
 71
     2
 49
0.5
 62
   256
  6
BYLAYER
 49
-0.5
 62
   256
  6
BYLAYER
  0
ACDBPLACEHOLDER
  5
F
102
{ACAD_REACTORS
330
E
102
}
330
E
  0
XRECORD
  5
338
102
{ACAD_REACTORS
330
336
102
}
330
336
100
AcDbXrecord
280
     1
340
6B
  0
XRECORD
  5
337
102
{ACAD_REACTORS
330
336
102
}
330
336
100
AcDbXrecord
280
     1
340
6A
  0
DICTIONARYVAR
  5
5F
102
{ACAD_REACTORS
330
5E
102
}
330
5E
100
DictionaryVariables
280
     0
  1
2
  0
DICTIONARYVAR
  5
63
102
{ACAD_REACTORS
330
5E
102
}
330
5E
100
DictionaryVariables
280
     0
  1
1
  0
DICTIONARYVAR
  5
85
102
{ACAD_REACTORS
330
5E
102
}
330
5E
100
DictionaryVariables
280
     0
  1

  0
DICTIONARY
  5
33B
330
51
100
AcDbDictionary
280
     1
281
     1
  3
ACAD_XREC_ROUNDTRIP
360
33C
  0
DICTIONARY
  5
33D
330
56
100
AcDbDictionary
280
     1
281
     1
  3
ACAD_XREC_ROUNDTRIP
360
33E
  0
DICTIONARY
  5
339
330
22
100
AcDbDictionary
280
     1
281
     1
  3
ACAD_XREC_ROUNDTRIP
360
33A
  0
XRECORD
  5
33C
102
{ACAD_REACTORS
330
33B
102
}
330
33B
100
AcDbXrecord
280
     1
102
SHADEPLOT
 70
     0
102
SHADEPLOTRESLEVEL
 70
     2
102
SHADEPLOTCUSTOMDPI
 70
   300
  0
XRECORD
  5
33E
102
{ACAD_REACTORS
330
33D
102
}
330
33D
100
AcDbXrecord
280
     1
102
SHADEPLOT
 70
     0
102
SHADEPLOTRESLEVEL
 70
     2
102
SHADEPLOTCUSTOMDPI
 70
   300
  0
XRECORD
  5
33A
102
{ACAD_REACTORS
330
339
102
}
330
339
100
AcDbXrecord
280
     1
102
SHADEPLOT
 70
     0
102
SHADEPLOTRESLEVEL
 70
     2
102
SHADEPLOTCUSTOMDPI
 70
   300
  0
ENDSEC
  0
EOF
