  0
SECTION
  2
HEADER
  9
$ACADVER
  1
AC1015
  9
$ACADMAINTVER
 70
    20
  9
$DWGCODEPAGE
  3
ANSI_936
  9
$INSBASE
 10
0.0
 20
0.0
 30
0.0
  9
$EXTMIN
 10
-1509.087005600378
 20
-1.451514405635862
 30
0.0
  9
$EXTMAX
 10
2161.892970647253
 20
1000.00000903281
 30
0.0
  9
$LIMMIN
 10
0.0
 20
0.0
  9
$LIMMAX
 10
420.0
 20
297.0
  9
$ORTHOMODE
 70
     0
  9
$REGENMODE
 70
     1
  9
$FILLMODE
 70
     1
  9
$QTEXTMODE
 70
     0
  9
$MIRRTEXT
 70
     0
  9
$LTSCALE
 40
1.0
  9
$ATTMODE
 70
     1
  9
$TEXTSIZE
 40
2.5
  9
$TRACEWID
 40
1.0
  9
$TEXTSTYLE
  7
Standard
  9
$CLAYER
  8
2
  9
$CELTYPE
  6
ByLayer
  9
$CECOLOR
 62
   256
  9
$CELTSCALE
 40
1.0
  9
$DISPSILH
 70
     0
  9
$DIMSCALE
 40
1.0
  9
$DIMASZ
 40
2.5
  9
$DIMEXO
 40
0.625
  9
$DIMDLI
 40
3.75
  9
$DIMRND
 40
0.0
  9
$DIMDLE
 40
0.0
  9
$DIMEXE
 40
1.25
  9
$DIMTP
 40
0.0
  9
$DIMTM
 40
0.0
  9
$DIMTXT
 40
2.5
  9
$DIMCEN
 40
2.5
  9
$DIMTSZ
 40
0.0
  9
$DIMTOL
 70
     0
  9
$DIMLIM
 70
     0
  9
$DIMTIH
 70
     0
  9
$DIMTOH
 70
     0
  9
$DIMSE1
 70
     0
  9
$DIMSE2
 70
     0
  9
$DIMTAD
 70
     1
  9
$DIMZIN
 70
     8
  9
$DIMBLK
  1

  9
$DIMASO
 70
     1
  9
$DIMSHO
 70
     1
  9
$DIMPOST
  1

  9
$DIMAPOST
  1

  9
$DIMALT
 70
     0
  9
$DIMALTD
 70
     3
  9
$DIMALTF
 40
0.03937007874016
  9
$DIMLFAC
 40
1.0
  9
$DIMTOFL
 70
     1
  9
$DIMTVP
 40
0.0
  9
$DIMTIX
 70
     0
  9
$DIMSOXD
 70
     0
  9
$DIMSAH
 70
     0
  9
$DIMBLK1
  1

  9
$DIMBLK2
  1

  9
$DIMSTYLE
  2
ISO-25
  9
$DIMCLRD
 70
     0
  9
$DIMCLRE
 70
     0
  9
$DIMCLRT
 70
     0
  9
$DIMTFAC
 40
1.0
  9
$DIMGAP
 40
0.625
  9
$DIMJUST
 70
     0
  9
$DIMSD1
 70
     0
  9
$DIMSD2
 70
     0
  9
$DIMTOLJ
 70
     0
  9
$DIMTZIN
 70
     8
  9
$DIMALTZ
 70
     0
  9
$DIMALTTZ
 70
     0
  9
$DIMUPT
 70
     0
  9
$DIMDEC
 70
     2
  9
$DIMTDEC
 70
     2
  9
$DIMALTU
 70
     2
  9
$DIMALTTD
 70
     3
  9
$DIMTXSTY
  7
Standard
  9
$DIMAUNIT
 70
     0
  9
$DIMADEC
 70
     0
  9
$DIMALTRND
 40
0.0
  9
$DIMAZIN
 70
     0
  9
$DIMDSEP
 70
    44
  9
$DIMATFIT
 70
     3
  9
$DIMFRAC
 70
     0
  9
$DIMLDRBLK
  1

  9
$DIMLUNIT
 70
     2
  9
$DIMLWD
 70
    -2
  9
$DIMLWE
 70
    -2
  9
$DIMTMOVE
 70
     0
  9
$LUNITS
 70
     2
  9
$LUPREC
 70
     4
  9
$SKETCHINC
 40
1.0
  9
$FILLETRAD
 40
0.0
  9
$AUNITS
 70
     0
  9
$AUPREC
 70
     0
  9
$MENU
  1
.
  9
$ELEVATION
 40
0.0
  9
$PELEVATION
 40
0.0
  9
$THICKNESS
 40
0.0
  9
$LIMCHECK
 70
     0
  9
$CHAMFERA
 40
0.0
  9
$CHAMFERB
 40
0.0
  9
$CHAMFERC
 40
0.0
  9
$CHAMFERD
 40
0.0
  9
$SKPOLY
 70
     0
  9
$TDCREATE
 40
2455505.725807523
  9
$TDUCREATE
 40
2455505.392474190
  9
$TDUPDATE
 40
2457122.706538576
  9
$TDUUPDATE
 40
2457122.373205244
  9
$TDINDWG
 40
0.0860021296
  9
$TDUSRTIMER
 40
0.0860013310
  9
$USRTIMER
 70
     1
  9
$ANGBASE
 50
0.0
  9
$ANGDIR
 70
     0
  9
$PDMODE
 70
     0
  9
$PDSIZE
 40
0.0
  9
$PLINEWID
 40
0.0
  9
$SPLFRAME
 70
     0
  9
$SPLINETYPE
 70
     6
  9
$SPLINESEGS
 70
     8
  9
$HANDSEED
  5
41A
  9
$SURFTAB1
 70
     6
  9
$SURFTAB2
 70
     6
  9
$SURFTYPE
 70
     6
  9
$SURFU
 70
     6
  9
$SURFV
 70
     6
  9
$UCSBASE
  2

  9
$UCSNAME
  2

  9
$UCSORG
 10
0.0
 20
0.0
 30
0.0
  9
$UCSXDIR
 10
1.0
 20
0.0
 30
0.0
  9
$UCSYDIR
 10
0.0
 20
1.0
 30
0.0
  9
$UCSORTHOREF
  2

  9
$UCSORTHOVIEW
 70
     0
  9
$UCSORGTOP
 10
0.0
 20
0.0
 30
0.0
  9
$UCSORGBOTTOM
 10
0.0
 20
0.0
 30
0.0
  9
$UCSORGLEFT
 10
0.0
 20
0.0
 30
0.0
  9
$UCSORGRIGHT
 10
0.0
 20
0.0
 30
0.0
  9
$UCSORGFRONT
 10
0.0
 20
0.0
 30
0.0
  9
$UCSORGBACK
 10
0.0
 20
0.0
 30
0.0
  9
$PUCSBASE
  2

  9
$PUCSNAME
  2

  9
$PUCSORG
 10
0.0
 20
0.0
 30
0.0
  9
$PUCSXDIR
 10
1.0
 20
0.0
 30
0.0
  9
$PUCSYDIR
 10
0.0
 20
1.0
 30
0.0
  9
$PUCSORTHOREF
  2

  9
$PUCSORTHOVIEW
 70
     0
  9
$PUCSORGTOP
 10
0.0
 20
0.0
 30
0.0
  9
$PUCSORGBOTTOM
 10
0.0
 20
0.0
 30
0.0
  9
$PUCSORGLEFT
 10
0.0
 20
0.0
 30
0.0
  9
$PUCSORGRIGHT
 10
0.0
 20
0.0
 30
0.0
  9
$PUCSORGFRONT
 10
0.0
 20
0.0
 30
0.0
  9
$PUCSORGBACK
 10
0.0
 20
0.0
 30
0.0
  9
$USERI1
 70
     0
  9
$USERI2
 70
     0
  9
$USERI3
 70
     0
  9
$USERI4
 70
     0
  9
$USERI5
 70
     0
  9
$USERR1
 40
0.0
  9
$USERR2
 40
0.0
  9
$USERR3
 40
0.0
  9
$USERR4
 40
0.0
  9
$USERR5
 40
0.0
  9
$WORLDVIEW
 70
     1
  9
$SHADEDGE
 70
     3
  9
$SHADEDIF
 70
    70
  9
$TILEMODE
 70
     1
  9
$MAXACTVP
 70
    64
  9
$PINSBASE
 10
0.0
 20
0.0
 30
0.0
  9
$PLIMCHECK
 70
     0
  9
$PEXTMIN
 10
0.0
 20
0.0
 30
0.0
  9
$PEXTMAX
 10
0.0
 20
0.0
 30
0.0
  9
$PLIMMIN
 10
0.0
 20
0.0
  9
$PLIMMAX
 10
12.0
 20
9.0
  9
$UNITMODE
 70
     0
  9
$VISRETAIN
 70
     1
  9
$PLINEGEN
 70
     0
  9
$PSLTSCALE
 70
     1
  9
$TREEDEPTH
 70
  3020
  9
$CMLSTYLE
  2
Standard
  9
$CMLJUST
 70
     0
  9
$CMLSCALE
 40
20.0
  9
$PROXYGRAPHICS
 70
     1
  9
$MEASUREMENT
 70
     1
  9
$CELWEIGHT
370
    -1
  9
$ENDCAPS
280
     0
  9
$JOINSTYLE
280
     0
  9
$LWDISPLAY
290
     0
  9
$INSUNITS
 70
     4
  9
$HYPERLINKBASE
  1

  9
$STYLESHEET
  1

  9
$XEDIT
290
     1
  9
$CEPSNTYPE
380
     0
  9
$PSTYLEMODE
290
     1
  9
$FINGERPRINTGUID
  2
{FDEAD578-A652-11D2-9A35-0060089B3A3F}
  9
$VERSIONGUID
  2
{18E9AE7B-34FE-45CC-B382-9CABE2D88DC3}
  9
$EXTNAMES
290
     1
  9
$PSVPSCALE
 40
0.0
  9
$OLESTARTUP
290
     0
  0
ENDSEC
  0
SECTION
  2
CLASSES
  0
CLASS
  1
ACDBDICTIONARYWDFLT
  2
AcDbDictionaryWithDefault
  3
ObjectDBX Classes
 90
        0
280
     0
281
     0
  0
CLASS
  1
ACDBPLACEHOLDER
  2
AcDbPlaceHolder
  3
ObjectDBX Classes
 90
        0
280
     0
281
     0
  0
CLASS
  1
LAYOUT
  2
AcDbLayout
  3
ObjectDBX Classes
 90
        0
280
     0
281
     0
  0
CLASS
  1
DICTIONARYVAR
  2
AcDbDictionaryVar
  3
ObjectDBX Classes
 90
        0
280
     0
281
     0
  0
ENDSEC
  0
SECTION
  2
TABLES
  0
TABLE
  2
VPORT
  5
8
330
0
100
AcDbSymbolTable
 70
     3
  0
VPORT
  5
410
330
8
100
AcDbSymbolTableRecord
100
AcDbViewportTableRecord
  2
*Active
 70
     0
 10
0.0
 20
0.0
 11
1.0
 21
1.0
 12
1248.598080660587
 22
519.0493991380073
 13
0.0
 23
0.0
 14
10.0
 24
10.0
 15
10.0
 25
10.0
 16
0.0
 26
0.0
 36
1.0
 17
0.0
 27
0.0
 37
0.0
 40
1516.879204515517
 41
2.425287356321839
 42
50.0
 43
0.0
 44
0.0
 50
0.0
 51
0.0
 71
     0
 72
  1000
 73
     1
 74
     3
 75
     0
 76
     0
 77
     0
 78
     0
281
     0
 65
     1
110
0.0
120
0.0
130
0.0
111
1.0
121
0.0
131
0.0
112
0.0
122
1.0
132
0.0
 79
     0
146
0.0
  0
ENDTAB
  0
TABLE
  2
LTYPE
  5
5
330
0
100
AcDbSymbolTable
 70
     1
  0
LTYPE
  5
14
330
5
100
AcDbSymbolTableRecord
100
AcDbLinetypeTableRecord
  2
ByBlock
 70
     0
  3

 72
    65
 73
     0
 40
0.0
  0
LTYPE
  5
15
330
5
100
AcDbSymbolTableRecord
100
AcDbLinetypeTableRecord
  2
ByLayer
 70
     0
  3

 72
    65
 73
     0
 40
0.0
  0
LTYPE
  5
16
330
5
100
AcDbSymbolTableRecord
100
AcDbLinetypeTableRecord
  2
Continuous
 70
     0
  3
Solid line
 72
    65
 73
     0
 40
0.0
  0
ENDTAB
  0
TABLE
  2
LAYER
  5
2
330
0
100
AcDbSymbolTable
 70
     4
  0
LAYER
  5
10
330
2
100
AcDbSymbolTableRecord
100
AcDbLayerTableRecord
  2
0
 70
     0
 62
     2
  6
Continuous
370
    -3
390
F
  0
LAYER
  5
94
330
2
100
AcDbSymbolTableRecord
100
AcDbLayerTableRecord
  2
1
 70
     0
 62
     1
  6
Continuous
370
    -3
390
F
  0
LAYER
  5
95
330
2
100
AcDbSymbolTableRecord
100
AcDbLayerTableRecord
  2
2
 70
     0
 62
     7
  6
Continuous
370
    -3
390
F
  0
LAYER
  5
10E
330
2
100
AcDbSymbolTableRecord
100
AcDbLayerTableRecord
  2
3
 70
     0
 62
     7
  6
Continuous
370
    -3
390
F
  0
ENDTAB
  0
TABLE
  2
STYLE
  5
3
330
0
100
AcDbSymbolTable
 70
     1
  0
STYLE
  5
11
330
3
100
AcDbSymbolTableRecord
100
AcDbTextStyleTableRecord
  2
Standard
 70
     0
 40
0.0
 41
1.0
 50
0.0
 71
     0
 42
2.5
  3
txt
  4

  0
ENDTAB
  0
TABLE
  2
VIEW
  5
6
330
0
100
AcDbSymbolTable
 70
     0
  0
ENDTAB
  0
TABLE
  2
UCS
  5
7
330
0
100
AcDbSymbolTable
 70
     0
  0
ENDTAB
  0
TABLE
  2
APPID
  5
9
330
0
100
AcDbSymbolTable
 70
     1
  0
APPID
  5
12
330
9
100
AcDbSymbolTableRecord
100
AcDbRegAppTableRecord
  2
ACAD
 70
     0
  0
ENDTAB
  0
TABLE
  2
DIMSTYLE
  5
A
330
0
100
AcDbSymbolTable
 70
     1
100
AcDbDimStyleTable
 71
     0
  0
DIMSTYLE
105
27
330
A
100
AcDbSymbolTableRecord
100
AcDbDimStyleTableRecord
  2
ISO-25
 70
     0
 41
2.5
 42
0.625
 43
3.75
 44
1.25
 73
     0
 74
     0
 77
     1
 78
     8
140
2.5
141
2.5
143
0.03937007874016
147
0.625
171
     3
172
     1
271
     2
272
     2
274
     3
278
    44
283
     0
284
     8
340
11
  0
ENDTAB
  0
TABLE
  2
BLOCK_RECORD
  5
1
330
0
100
AcDbSymbolTable
 70
     2
  0
BLOCK_RECORD
  5
1F
330
1
100
AcDbSymbolTableRecord
100
AcDbBlockTableRecord
  2
*Model_Space
340
22
  0
BLOCK_RECORD
  5
50
330
1
100
AcDbSymbolTableRecord
100
AcDbBlockTableRecord
  2
*Paper_Space
340
51
  0
BLOCK_RECORD
  5
55
330
1
100
AcDbSymbolTableRecord
100
AcDbBlockTableRecord
  2
*Paper_Space0
340
56
  0
ENDTAB
  0
ENDSEC
  0
SECTION
  2
BLOCKS
  0
BLOCK
  5
20
330
1F
100
AcDbEntity
  8
0
100
AcDbBlockBegin
  2
*Model_Space
 70
     0
 10
0.0
 20
0.0
 30
0.0
  3
*Model_Space
  1

  0
ENDBLK
  5
21
330
1F
100
AcDbEntity
  8
0
100
AcDbBlockEnd
  0
BLOCK
  5
52
330
50
100
AcDbEntity
 67
     1
  8
0
100
AcDbBlockBegin
  2
*Paper_Space
 70
     0
 10
0.0
 20
0.0
 30
0.0
  3
*Paper_Space
  1

  0
ENDBLK
  5
53
330
50
100
AcDbEntity
 67
     1
  8
0
100
AcDbBlockEnd
  0
BLOCK
  5
57
330
55
100
AcDbEntity
  8
0
100
AcDbBlockBegin
  2
*Paper_Space0
 70
     0
 10
0.0
 20
0.0
 30
0.0
  3
*Paper_Space0
  1

  0
ENDBLK
  5
58
330
55
100
AcDbEntity
  8
0
100
AcDbBlockEnd
  0
ENDSEC
  0
SECTION
  2
ENTITIES
  0
LWPOLYLINE
  5
24A
330
1F
100
AcDbEntity
  8
0
 62
     2
100
AcDbPolyline
 90
        4
 70
     1
 43
0.0
 10
0.0000957102165557
 20
0.0000090328103397
 10
1000.000095710216
 20
0.0000090328103397
 10
1000.000095710216
 20
1000.00000903281
 10
0.0000957102165557
 20
1000.00000903281
  0
LINE
  5
373
330
1F
100
AcDbEntity
  8
1
 62
     1
100
AcDbLine
 10
40.6606988958797
 20
961.3099424190201
 30
0.0
 11
959.3394925245524
 21
961.3099424190201
 31
0.0
  0
LINE
  5
374
330
1F
100
AcDbEntity
  8
1
 62
     1
100
AcDbLine
 10
40.6606988958797
 20
35.78702876970716
 30
0.0
 11
959.3394925245524
 21
35.78702876970716
 31
0.0
  0
LINE
  5
375
330
1F
100
AcDbEntity
  8
1
 62
     1
100
AcDbLine
 10
959.3394925245524
 20
35.78702876970716
 30
0.0
 11
959.3394925245524
 21
961.3099424190208
 31
0.0
  0
LINE
  5
376
330
1F
100
AcDbEntity
  8
1
 62
     1
100
AcDbLine
 10
40.6606988958797
 20
961.3099424190201
 30
0.0
 11
40.6606988958797
 21
35.78702876970716
 31
0.0
  0
LINE
  5
3C7
330
1F
100
AcDbEntity
  8
3
100
AcDbLine
 10
77.47534684062611
 20
866.1875307835421
 30
0.0
 11
128.8133962662996
 21
917.5255802092154
 31
0.0
  0
LINE
  5
3C8
330
1F
100
AcDbEntity
  8
3
100
AcDbLine
 10
128.8133962662996
 20
866.1875307835421
 30
0.0
 11
77.47534684062611
 21
917.5255802092154
 31
0.0
  0
LINE
  5
3C9
330
1F
100
AcDbEntity
  8
3
100
AcDbLine
 10
287.1683962662996
 20
866.1875307835421
 30
0.0
 11
235.8303468406262
 21
917.5255802092154
 31
0.0
  0
LINE
  5
3CA
330
1F
100
AcDbEntity
  8
3
100
AcDbLine
 10
235.8303468406262
 20
866.1875307835421
 30
0.0
 11
287.1683962662996
 21
917.5255802092154
 31
0.0
  0
LINE
  5
3CB
330
1F
100
AcDbEntity
  8
3
100
AcDbLine
 10
445.5233962662994
 20
866.1875307835421
 30
0.0
 11
394.1853468406259
 21
917.5255802092154
 31
0.0
  0
LINE
  5
3CC
330
1F
100
AcDbEntity
  8
3
100
AcDbLine
 10
394.1853468406259
 20
866.1875307835421
 30
0.0
 11
445.5233962662994
 21
917.5255802092154
 31
0.0
  0
LINE
  5
3CE
330
1F
100
AcDbEntity
  8
3
100
AcDbLine
 10
603.8783962662994
 20
866.1875307835421
 30
0.0
 11
552.5403468406259
 21
917.5255802092154
 31
0.0
  0
LINE
  5
3CF
330
1F
100
AcDbEntity
  8
3
100
AcDbLine
 10
552.5403468406259
 20
866.1875307835421
 30
0.0
 11
603.8783962662994
 21
917.5255802092154
 31
0.0
  0
LINE
  5
3D0
330
1F
100
AcDbEntity
  8
3
100
AcDbLine
 10
762.2333962662994
 20
866.1875307835421
 30
0.0
 11
710.895346840626
 21
917.5255802092154
 31
0.0
  0
LINE
  5
3D1
330
1F
100
AcDbEntity
  8
3
100
AcDbLine
 10
710.895346840626
 20
866.1875307835421
 30
0.0
 11
762.2333962662994
 21
917.5255802092154
 31
0.0
  0
LINE
  5
3D2
330
1F
100
AcDbEntity
  8
3
100
AcDbLine
 10
920.5883962662996
 20
866.1875307835421
 30
0.0
 11
869.2503468406261
 21
917.5255802092154
 31
0.0
  0
LINE
  5
3D3
330
1F
100
AcDbEntity
  8
3
100
AcDbLine
 10
869.2503468406261
 20
866.1875307835421
 30
0.0
 11
920.5883962662996
 21
917.5255802092154
 31
0.0
  0
LINE
  5
3D4
330
1F
100
AcDbEntity
  8
3
100
AcDbLine
 10
869.2503468406261
 20
707.8325307835418
 30
0.0
 11
920.5883962662996
 21
759.1705802092151
 31
0.0
  0
LINE
  5
3D5
330
1F
100
AcDbEntity
  8
3
100
AcDbLine
 10
920.5883962662996
 20
707.8325307835418
 30
0.0
 11
869.2503468406261
 21
759.1705802092151
 31
0.0
  0
LINE
  5
3D6
330
1F
100
AcDbEntity
  8
3
100
AcDbLine
 10
710.895346840626
 20
707.8325307835418
 30
0.0
 11
762.2333962662994
 21
759.1705802092151
 31
0.0
  0
LINE
  5
3D7
330
1F
100
AcDbEntity
  8
3
100
AcDbLine
 10
762.2333962662994
 20
707.8325307835418
 30
0.0
 11
710.895346840626
 21
759.1705802092151
 31
0.0
  0
LINE
  5
3D8
330
1F
100
AcDbEntity
  8
3
100
AcDbLine
 10
552.5403468406259
 20
707.8325307835418
 30
0.0
 11
603.8783962662994
 21
759.1705802092151
 31
0.0
  0
LINE
  5
3D9
330
1F
100
AcDbEntity
  8
3
100
AcDbLine
 10
603.8783962662994
 20
707.8325307835418
 30
0.0
 11
552.5403468406259
 21
759.1705802092151
 31
0.0
  0
LINE
  5
3DA
330
1F
100
AcDbEntity
  8
3
100
AcDbLine
 10
394.1853468406259
 20
707.8325307835418
 30
0.0
 11
445.5233962662994
 21
759.1705802092151
 31
0.0
  0
LINE
  5
3DB
330
1F
100
AcDbEntity
  8
3
100
AcDbLine
 10
445.5233962662994
 20
707.8325307835418
 30
0.0
 11
394.1853468406259
 21
759.1705802092151
 31
0.0
  0
LINE
  5
3DC
330
1F
100
AcDbEntity
  8
3
100
AcDbLine
 10
235.8303468406262
 20
707.8325307835418
 30
0.0
 11
287.1683962662996
 21
759.1705802092151
 31
0.0
  0
LINE
  5
3DD
330
1F
100
AcDbEntity
  8
3
100
AcDbLine
 10
287.1683962662996
 20
707.8325307835418
 30
0.0
 11
235.8303468406262
 21
759.1705802092151
 31
0.0
  0
LINE
  5
3DE
330
1F
100
AcDbEntity
  8
3
100
AcDbLine
 10
128.8133962662996
 20
707.8325307835418
 30
0.0
 11
77.47534684062611
 21
759.1705802092151
 31
0.0
  0
LINE
  5
3DF
330
1F
100
AcDbEntity
  8
3
100
AcDbLine
 10
77.47534684062611
 20
707.8325307835418
 30
0.0
 11
128.8133962662996
 21
759.1705802092151
 31
0.0
  0
LINE
  5
3E0
330
1F
100
AcDbEntity
  8
3
100
AcDbLine
 10
77.47534684062611
 20
549.477530783542
 30
0.0
 11
128.8133962662996
 21
600.8155802092153
 31
0.0
  0
LINE
  5
3E1
330
1F
100
AcDbEntity
  8
3
100
AcDbLine
 10
128.8133962662996
 20
549.477530783542
 30
0.0
 11
77.47534684062611
 21
600.8155802092153
 31
0.0
  0
LINE
  5
3E2
330
1F
100
AcDbEntity
  8
3
100
AcDbLine
 10
287.1683962662996
 20
549.477530783542
 30
0.0
 11
235.8303468406262
 21
600.8155802092153
 31
0.0
  0
LINE
  5
3E3
330
1F
100
AcDbEntity
  8
3
100
AcDbLine
 10
235.8303468406262
 20
549.477530783542
 30
0.0
 11
287.1683962662996
 21
600.8155802092153
 31
0.0
  0
LINE
  5
3E4
330
1F
100
AcDbEntity
  8
3
100
AcDbLine
 10
445.5233962662994
 20
549.477530783542
 30
0.0
 11
394.1853468406259
 21
600.8155802092153
 31
0.0
  0
LINE
  5
3E5
330
1F
100
AcDbEntity
  8
3
100
AcDbLine
 10
394.1853468406259
 20
549.477530783542
 30
0.0
 11
445.5233962662994
 21
600.8155802092153
 31
0.0
  0
LINE
  5
3E6
330
1F
100
AcDbEntity
  8
3
100
AcDbLine
 10
603.8783962662994
 20
549.477530783542
 30
0.0
 11
552.5403468406259
 21
600.8155802092153
 31
0.0
  0
LINE
  5
3E7
330
1F
100
AcDbEntity
  8
3
100
AcDbLine
 10
552.5403468406259
 20
549.477530783542
 30
0.0
 11
603.8783962662994
 21
600.8155802092153
 31
0.0
  0
LINE
  5
3E8
330
1F
100
AcDbEntity
  8
3
100
AcDbLine
 10
762.2333962662994
 20
549.477530783542
 30
0.0
 11
710.895346840626
 21
600.8155802092153
 31
0.0
  0
LINE
  5
3E9
330
1F
100
AcDbEntity
  8
3
100
AcDbLine
 10
710.895346840626
 20
549.477530783542
 30
0.0
 11
762.2333962662994
 21
600.8155802092153
 31
0.0
  0
LINE
  5
3EA
330
1F
100
AcDbEntity
  8
3
100
AcDbLine
 10
920.5883962662996
 20
549.477530783542
 30
0.0
 11
869.2503468406261
 21
600.8155802092153
 31
0.0
  0
LINE
  5
3EB
330
1F
100
AcDbEntity
  8
3
100
AcDbLine
 10
869.2503468406261
 20
549.477530783542
 30
0.0
 11
920.5883962662996
 21
600.8155802092153
 31
0.0
  0
LINE
  5
3EC
330
1F
100
AcDbEntity
  8
3
100
AcDbLine
 10
869.2503468406261
 20
391.1225307835418
 30
0.0
 11
920.5883962662996
 21
442.4605802092151
 31
0.0
  0
LINE
  5
3ED
330
1F
100
AcDbEntity
  8
3
100
AcDbLine
 10
920.5883962662996
 20
391.1225307835418
 30
0.0
 11
869.2503468406261
 21
442.4605802092151
 31
0.0
  0
LINE
  5
3EE
330
1F
100
AcDbEntity
  8
3
100
AcDbLine
 10
710.895346840626
 20
391.1225307835418
 30
0.0
 11
762.2333962662994
 21
442.4605802092151
 31
0.0
  0
LINE
  5
3EF
330
1F
100
AcDbEntity
  8
3
100
AcDbLine
 10
762.2333962662994
 20
391.1225307835418
 30
0.0
 11
710.895346840626
 21
442.4605802092151
 31
0.0
  0
LINE
  5
3F0
330
1F
100
AcDbEntity
  8
3
100
AcDbLine
 10
552.5403468406259
 20
391.1225307835418
 30
0.0
 11
603.8783962662994
 21
442.4605802092151
 31
0.0
  0
LINE
  5
3F1
330
1F
100
AcDbEntity
  8
3
100
AcDbLine
 10
603.8783962662994
 20
391.1225307835418
 30
0.0
 11
552.5403468406259
 21
442.4605802092151
 31
0.0
  0
LINE
  5
3F2
330
1F
100
AcDbEntity
  8
3
100
AcDbLine
 10
394.1853468406259
 20
391.1225307835418
 30
0.0
 11
445.5233962662994
 21
442.4605802092151
 31
0.0
  0
LINE
  5
3F3
330
1F
100
AcDbEntity
  8
3
100
AcDbLine
 10
445.5233962662994
 20
391.1225307835418
 30
0.0
 11
394.1853468406259
 21
442.4605802092151
 31
0.0
  0
LINE
  5
3F4
330
1F
100
AcDbEntity
  8
3
100
AcDbLine
 10
235.8303468406262
 20
391.1225307835418
 30
0.0
 11
287.1683962662996
 21
442.4605802092151
 31
0.0
  0
LINE
  5
3F5
330
1F
100
AcDbEntity
  8
3
100
AcDbLine
 10
287.1683962662996
 20
391.1225307835418
 30
0.0
 11
235.8303468406262
 21
442.4605802092151
 31
0.0
  0
LINE
  5
3F6
330
1F
100
AcDbEntity
  8
3
100
AcDbLine
 10
128.8133962662996
 20
391.1225307835418
 30
0.0
 11
77.47534684062611
 21
442.4605802092151
 31
0.0
  0
LINE
  5
3F7
330
1F
100
AcDbEntity
  8
3
100
AcDbLine
 10
77.47534684062611
 20
391.1225307835418
 30
0.0
 11
128.8133962662996
 21
442.4605802092151
 31
0.0
  0
LINE
  5
3F8
330
1F
100
AcDbEntity
  8
3
100
AcDbLine
 10
85.10138054397135
 20
237.4806150796474
 30
0.0
 11
136.4394299696448
 21
288.8186645053206
 31
0.0
  0
LINE
  5
3F9
330
1F
100
AcDbEntity
  8
3
100
AcDbLine
 10
136.4394299696448
 20
237.4806150796474
 30
0.0
 11
85.10138054397135
 21
288.8186645053206
 31
0.0
  0
LINE
  5
3FA
330
1F
100
AcDbEntity
  8
3
100
AcDbLine
 10
294.7944299696449
 20
237.4806150796474
 30
0.0
 11
243.4563805439714
 21
288.8186645053206
 31
0.0
  0
LINE
  5
3FB
330
1F
100
AcDbEntity
  8
3
100
AcDbLine
 10
243.4563805439714
 20
237.4806150796474
 30
0.0
 11
294.7944299696449
 21
288.8186645053206
 31
0.0
  0
LINE
  5
3FC
330
1F
100
AcDbEntity
  8
3
100
AcDbLine
 10
453.1494299696446
 20
237.4806150796474
 30
0.0
 11
401.8113805439711
 21
288.8186645053206
 31
0.0
  0
LINE
  5
3FD
330
1F
100
AcDbEntity
  8
3
100
AcDbLine
 10
401.8113805439711
 20
237.4806150796474
 30
0.0
 11
453.1494299696446
 21
288.8186645053206
 31
0.0
  0
LINE
  5
3FE
330
1F
100
AcDbEntity
  8
3
100
AcDbLine
 10
611.5044299696446
 20
237.4806150796474
 30
0.0
 11
560.1663805439711
 21
288.8186645053206
 31
0.0
  0
LINE
  5
3FF
330
1F
100
AcDbEntity
  8
3
100
AcDbLine
 10
560.1663805439711
 20
237.4806150796474
 30
0.0
 11
611.5044299696446
 21
288.8186645053206
 31
0.0
  0
LINE
  5
400
330
1F
100
AcDbEntity
  8
3
100
AcDbLine
 10
769.8594299696447
 20
237.4806150796474
 30
0.0
 11
718.5213805439712
 21
288.8186645053206
 31
0.0
  0
LINE
  5
401
330
1F
100
AcDbEntity
  8
3
100
AcDbLine
 10
718.5213805439712
 20
237.4806150796474
 30
0.0
 11
769.8594299696447
 21
288.8186645053206
 31
0.0
  0
LINE
  5
402
330
1F
100
AcDbEntity
  8
3
100
AcDbLine
 10
928.2144299696449
 20
237.4806150796474
 30
0.0
 11
876.8763805439714
 21
288.8186645053206
 31
0.0
  0
LINE
  5
403
330
1F
100
AcDbEntity
  8
3
100
AcDbLine
 10
876.8763805439714
 20
237.4806150796474
 30
0.0
 11
928.2144299696449
 21
288.8186645053206
 31
0.0
  0
LINE
  5
404
330
1F
100
AcDbEntity
  8
3
100
AcDbLine
 10
718.5213805439712
 20
82.23061507964718
 30
0.0
 11
769.8594299696447
 21
133.5686645053204
 31
0.0
  0
LINE
  5
405
330
1F
100
AcDbEntity
  8
3
100
AcDbLine
 10
769.8594299696447
 20
82.23061507964718
 30
0.0
 11
718.5213805439712
 21
133.5686645053204
 31
0.0
  0
LINE
  5
406
330
1F
100
AcDbEntity
  8
3
100
AcDbLine
 10
560.1663805439711
 20
82.23061507964718
 30
0.0
 11
611.5044299696446
 21
133.5686645053204
 31
0.0
  0
LINE
  5
407
330
1F
100
AcDbEntity
  8
3
100
AcDbLine
 10
611.5044299696446
 20
82.23061507964718
 30
0.0
 11
560.1663805439711
 21
133.5686645053204
 31
0.0
  0
LINE
  5
408
330
1F
100
AcDbEntity
  8
3
100
AcDbLine
 10
401.8113805439711
 20
82.23061507964718
 30
0.0
 11
453.1494299696446
 21
133.5686645053204
 31
0.0
  0
LINE
  5
409
330
1F
100
AcDbEntity
  8
3
100
AcDbLine
 10
453.1494299696446
 20
82.23061507964718
 30
0.0
 11
401.8113805439711
 21
133.5686645053204
 31
0.0
  0
LINE
  5
40A
330
1F
100
AcDbEntity
  8
3
100
AcDbLine
 10
243.4563805439714
 20
82.23061507964718
 30
0.0
 11
294.7944299696449
 21
133.5686645053204
 31
0.0
  0
LINE
  5
40B
330
1F
100
AcDbEntity
  8
3
100
AcDbLine
 10
294.7944299696449
 20
82.23061507964718
 30
0.0
 11
243.4563805439714
 21
133.5686645053204
 31
0.0
  0
LINE
  5
40C
330
1F
100
AcDbEntity
  8
3
100
AcDbLine
 10
136.4394299696448
 20
82.23061507964718
 30
0.0
 11
85.10138054397135
 21
133.5686645053204
 31
0.0
  0
LINE
  5
40D
330
1F
100
AcDbEntity
  8
3
100
AcDbLine
 10
85.10138054397135
 20
82.23061507964718
 30
0.0
 11
136.4394299696448
 21
133.5686645053204
 31
0.0
  0
LINE
  5
40E
330
1F
100
AcDbEntity
  8
3
100
AcDbLine
 10
876.8763805439714
 20
82.23061507964718
 30
0.0
 11
928.2144299696449
 21
133.5686645053204
 31
0.0
  0
LINE
  5
40F
330
1F
100
AcDbEntity
  8
3
100
AcDbLine
 10
928.2144299696449
 20
82.23061507964718
 30
0.0
 11
876.8763805439714
 21
133.5686645053204
 31
0.0
  0
ENDSEC
  0
SECTION
  2
OBJECTS
  0
DICTIONARY
  5
C
330
0
100
AcDbDictionary
281
     1
  3
ACAD_COLOR
350
6B
  3
ACAD_GROUP
350
D
  3
ACAD_LAYOUT
350
1A
  3
ACAD_MATERIAL
350
6A
  3
ACAD_MLINESTYLE
350
17
  3
ACAD_PLOTSETTINGS
350
19
  3
ACAD_PLOTSTYLENAME
350
E
  3
ACDBHEADERROUNDTRIPXREC
350
411
  3
AcDbVariableDictionary
350
5E
  0
DICTIONARY
  5
6B
102
{ACAD_REACTORS
330
C
102
}
330
C
100
AcDbDictionary
281
     1
  0
DICTIONARY
  5
D
102
{ACAD_REACTORS
330
C
102
}
330
C
100
AcDbDictionary
281
     1
  0
DICTIONARY
  5
1A
102
{ACAD_REACTORS
330
C
102
}
330
C
100
AcDbDictionary
281
     1
  3
Layout1
350
51
  3
Layout2
350
56
  3
Model
350
22
  0
DICTIONARY
  5
6A
102
{ACAD_REACTORS
330
C
102
}
330
C
100
AcDbDictionary
281
     1
  0
DICTIONARY
  5
17
102
{ACAD_REACTORS
330
C
102
}
330
C
100
AcDbDictionary
281
     1
  3
Standard
350
18
  0
DICTIONARY
  5
19
102
{ACAD_REACTORS
330
C
102
}
330
C
100
AcDbDictionary
281
     1
  0
ACDBDICTIONARYWDFLT
  5
E
102
{ACAD_REACTORS
330
C
102
}
330
C
100
AcDbDictionary
281
     1
  3
Normal
350
F
100
AcDbDictionaryWithDefault
340
F
  0
DICTIONARY
  5
411
102
{ACAD_REACTORS
330
C
102
}
330
C
100
AcDbDictionary
281
     1
  3
COLORDICT
350
413
  3
MATERIALDICT
350
412
  0
DICTIONARY
  5
5E
102
{ACAD_REACTORS
330
C
102
}
330
C
100
AcDbDictionary
281
     1
  3
DIMASSOC
350
5F
  3
HIDETEXT
350
63
  3
PROJECTNAME
350
85
  0
LAYOUT
  5
51
102
{ACAD_XDICTIONARY
360
416
102
}
102
{ACAD_REACTORS
330
1A
102
}
330
1A
100
AcDbPlotSettings
  1

  2
None
  4

  6

 40
0.0
 41
0.0
 42
0.0
 43
0.0
 44
0.0
 45
0.0
 46
0.0
 47
0.0
 48
0.0
 49
0.0
140
0.0
141
0.0
142
1.0
143
1.0
 70
   688
 72
     0
 73
     0
 74
     5
  7

 75
    16
147
1.0
148
0.0
149
0.0
100
AcDbLayout
  1
Layout1
 70
     1
 71
     1
 10
0.0
 20
0.0
 11
12.0
 21
9.0
 12
0.0
 22
0.0
 32
0.0
 14
0.0
 24
0.0
 34
0.0
 15
0.0
 25
0.0
 35
0.0
146
0.0
 13
0.0
 23
0.0
 33
0.0
 16
1.0
 26
0.0
 36
0.0
 17
0.0
 27
1.0
 37
0.0
 76
     0
330
50
  0
LAYOUT
  5
56
102
{ACAD_XDICTIONARY
360
418
102
}
102
{ACAD_REACTORS
330
1A
102
}
330
1A
100
AcDbPlotSettings
  1

  2
None
  4

  6

 40
0.0
 41
0.0
 42
0.0
 43
0.0
 44
0.0
 45
0.0
 46
0.0
 47
0.0
 48
0.0
 49
0.0
140
0.0
141
0.0
142
1.0
143
1.0
 70
   688
 72
     0
 73
     0
 74
     5
  7

 75
    16
147
1.0
148
0.0
149
0.0
100
AcDbLayout
  1
Layout2
 70
     1
 71
     2
 10
0.0
 20
0.0
 11
12.0
 21
9.0
 12
0.0
 22
0.0
 32
0.0
 14
0.0
 24
0.0
 34
0.0
 15
0.0
 25
0.0
 35
0.0
146
0.0
 13
0.0
 23
0.0
 33
0.0
 16
1.0
 26
0.0
 36
0.0
 17
0.0
 27
1.0
 37
0.0
 76
     0
330
55
  0
LAYOUT
  5
22
102
{ACAD_XDICTIONARY
360
414
102
}
102
{ACAD_REACTORS
330
1A
102
}
330
1A
100
AcDbPlotSettings
  1

  2
none_device
  4
ANSI_A_(8.50_x_11.00_Inches)
  6

 40
6.349999904632567
 41
19.04999923706055
 42
6.350006103515625
 43
19.04998779296875
 44
215.8999938964844
 45
279.3999938964844
 46
0.0
 47
0.0
 48
0.0
 49
0.0
140
0.0
141
0.0
142
1.0
143
78.436453180766
 70
 11952
 72
     0
 73
     1
 74
     0
  7

 75
     0
147
0.0127491741332998
148
0.0
149
0.0
100
AcDbLayout
  1
Model
 70
     1
 71
     0
 10
0.0
 20
0.0
 11
12.0
 21
9.0
 12
0.0
 22
0.0
 32
0.0
 14
0.0
 24
0.0
 34
0.0
 15
0.0
 25
0.0
 35
0.0
146
0.0
 13
0.0
 23
0.0
 33
0.0
 16
1.0
 26
0.0
 36
0.0
 17
0.0
 27
1.0
 37
0.0
 76
     0
330
1F
  0
MLINESTYLE
  5
18
102
{ACAD_REACTORS
330
17
102
}
330
17
100
AcDbMlineStyle
  2
STANDARD
 70
     0
  3

 62
   256
 51
90.0
 52
90.0
 71
     2
 49
0.5
 62
   256
  6
BYLAYER
 49
-0.5
 62
   256
  6
BYLAYER
  0
ACDBPLACEHOLDER
  5
F
102
{ACAD_REACTORS
330
E
102
}
330
E
  0
XRECORD
  5
413
102
{ACAD_REACTORS
330
411
102
}
330
411
100
AcDbXrecord
280
     1
340
6B
  0
XRECORD
  5
412
102
{ACAD_REACTORS
330
411
102
}
330
411
100
AcDbXrecord
280
     1
340
6A
  0
DICTIONARYVAR
  5
5F
102
{ACAD_REACTORS
330
5E
102
}
330
5E
100
DictionaryVariables
280
     0
  1
2
  0
DICTIONARYVAR
  5
63
102
{ACAD_REACTORS
330
5E
102
}
330
5E
100
DictionaryVariables
280
     0
  1
1
  0
DICTIONARYVAR
  5
85
102
{ACAD_REACTORS
330
5E
102
}
330
5E
100
DictionaryVariables
280
     0
  1

  0
DICTIONARY
  5
416
330
51
100
AcDbDictionary
280
     1
281
     1
  3
ACAD_XREC_ROUNDTRIP
360
417
  0
DICTIONARY
  5
418
330
56
100
AcDbDictionary
280
     1
281
     1
  3
ACAD_XREC_ROUNDTRIP
360
419
  0
DICTIONARY
  5
414
330
22
100
AcDbDictionary
280
     1
281
     1
  3
ACAD_XREC_ROUNDTRIP
360
415
  0
XRECORD
  5
417
102
{ACAD_REACTORS
330
416
102
}
330
416
100
AcDbXrecord
280
     1
102
SHADEPLOT
 70
     0
102
SHADEPLOTRESLEVEL
 70
     2
102
SHADEPLOTCUSTOMDPI
 70
   300
  0
XRECORD
  5
419
102
{ACAD_REACTORS
330
418
102
}
330
418
100
AcDbXrecord
280
     1
102
SHADEPLOT
 70
     0
102
SHADEPLOTRESLEVEL
 70
     2
102
SHADEPLOTCUSTOMDPI
 70
   300
  0
XRECORD
  5
415
102
{ACAD_REACTORS
330
414
102
}
330
414
100
AcDbXrecord
280
     1
102
SHADEPLOT
 70
     0
102
SHADEPLOTRESLEVEL
 70
     2
102
SHADEPLOTCUSTOMDPI
 70
   300
  0
ENDSEC
  0
EOF
