  0
SECTION
  2
HEADER
  9
$ACADVER
  1
AC1015
  9
$ACADMAINTVER
 70
    20
  9
$DWGCODEPAGE
  3
ANSI_936
  9
$INSBASE
 10
0.0
 20
0.0
 30
0.0
  9
$EXTMIN
 10
0.0000321447732858
 20
0.0000429149658885
 30
0.0
  9
$EXTMAX
 10
1000.000032144773
 20
1000.000042914966
 30
0.0
  9
$LIMMIN
 10
0.0
 20
0.0
  9
$LIMMAX
 10
420.0
 20
297.0
  9
$ORTHOMODE
 70
     0
  9
$REGENMODE
 70
     1
  9
$FILLMODE
 70
     1
  9
$QTEXTMODE
 70
     0
  9
$MIRRTEXT
 70
     0
  9
$LTSCALE
 40
1.0
  9
$ATTMODE
 70
     1
  9
$TEXTSIZE
 40
2.5
  9
$TRACEWID
 40
1.0
  9
$TEXTSTYLE
  7
Standard
  9
$CLAYER
  8
2
  9
$CELTYPE
  6
ByLayer
  9
$CECOLOR
 62
   256
  9
$CELTSCALE
 40
1.0
  9
$DISPSILH
 70
     0
  9
$DIMSCALE
 40
1.0
  9
$DIMASZ
 40
2.5
  9
$DIMEXO
 40
0.625
  9
$DIMDLI
 40
3.75
  9
$DIMRND
 40
0.0
  9
$DIMDLE
 40
0.0
  9
$DIMEXE
 40
1.25
  9
$DIMTP
 40
0.0
  9
$DIMTM
 40
0.0
  9
$DIMTXT
 40
2.5
  9
$DIMCEN
 40
2.5
  9
$DIMTSZ
 40
0.0
  9
$DIMTOL
 70
     0
  9
$DIMLIM
 70
     0
  9
$DIMTIH
 70
     0
  9
$DIMTOH
 70
     0
  9
$DIMSE1
 70
     0
  9
$DIMSE2
 70
     0
  9
$DIMTAD
 70
     1
  9
$DIMZIN
 70
     8
  9
$DIMBLK
  1

  9
$DIMASO
 70
     1
  9
$DIMSHO
 70
     1
  9
$DIMPOST
  1

  9
$DIMAPOST
  1

  9
$DIMALT
 70
     0
  9
$DIMALTD
 70
     3
  9
$DIMALTF
 40
0.03937007874016
  9
$DIMLFAC
 40
1.0
  9
$DIMTOFL
 70
     1
  9
$DIMTVP
 40
0.0
  9
$DIMTIX
 70
     0
  9
$DIMSOXD
 70
     0
  9
$DIMSAH
 70
     0
  9
$DIMBLK1
  1

  9
$DIMBLK2
  1

  9
$DIMSTYLE
  2
ISO-25
  9
$DIMCLRD
 70
     0
  9
$DIMCLRE
 70
     0
  9
$DIMCLRT
 70
     0
  9
$DIMTFAC
 40
1.0
  9
$DIMGAP
 40
0.625
  9
$DIMJUST
 70
     0
  9
$DIMSD1
 70
     0
  9
$DIMSD2
 70
     0
  9
$DIMTOLJ
 70
     0
  9
$DIMTZIN
 70
     8
  9
$DIMALTZ
 70
     0
  9
$DIMALTTZ
 70
     0
  9
$DIMUPT
 70
     0
  9
$DIMDEC
 70
     2
  9
$DIMTDEC
 70
     2
  9
$DIMALTU
 70
     2
  9
$DIMALTTD
 70
     3
  9
$DIMTXSTY
  7
Standard
  9
$DIMAUNIT
 70
     0
  9
$DIMADEC
 70
     0
  9
$DIMALTRND
 40
0.0
  9
$DIMAZIN
 70
     0
  9
$DIMDSEP
 70
    44
  9
$DIMATFIT
 70
     3
  9
$DIMFRAC
 70
     0
  9
$DIMLDRBLK
  1

  9
$DIMLUNIT
 70
     2
  9
$DIMLWD
 70
    -2
  9
$DIMLWE
 70
    -2
  9
$DIMTMOVE
 70
     0
  9
$LUNITS
 70
     2
  9
$LUPREC
 70
     4
  9
$SKETCHINC
 40
1.0
  9
$FILLETRAD
 40
0.0
  9
$AUNITS
 70
     0
  9
$AUPREC
 70
     0
  9
$MENU
  1
.
  9
$ELEVATION
 40
0.0
  9
$PELEVATION
 40
0.0
  9
$THICKNESS
 40
0.0
  9
$LIMCHECK
 70
     0
  9
$CHAMFERA
 40
0.0
  9
$CHAMFERB
 40
0.0
  9
$CHAMFERC
 40
0.0
  9
$CHAMFERD
 40
0.0
  9
$SKPOLY
 70
     0
  9
$TDCREATE
 40
2455505.725807523
  9
$TDUCREATE
 40
2455505.392474190
  9
$TDUPDATE
 40
2457095.960137986
  9
$TDUUPDATE
 40
2457095.626804653
  9
$TDINDWG
 40
0.0537547338
  9
$TDUSRTIMER
 40
0.0537539352
  9
$USRTIMER
 70
     1
  9
$ANGBASE
 50
0.0
  9
$ANGDIR
 70
     0
  9
$PDMODE
 70
     0
  9
$PDSIZE
 40
0.0
  9
$PLINEWID
 40
0.0
  9
$SPLFRAME
 70
     0
  9
$SPLINETYPE
 70
     6
  9
$SPLINESEGS
 70
     8
  9
$HANDSEED
  5
349
  9
$SURFTAB1
 70
     6
  9
$SURFTAB2
 70
     6
  9
$SURFTYPE
 70
     6
  9
$SURFU
 70
     6
  9
$SURFV
 70
     6
  9
$UCSBASE
  2

  9
$UCSNAME
  2

  9
$UCSORG
 10
0.0
 20
0.0
 30
0.0
  9
$UCSXDIR
 10
1.0
 20
0.0
 30
0.0
  9
$UCSYDIR
 10
0.0
 20
1.0
 30
0.0
  9
$UCSORTHOREF
  2

  9
$UCSORTHOVIEW
 70
     0
  9
$UCSORGTOP
 10
0.0
 20
0.0
 30
0.0
  9
$UCSORGBOTTOM
 10
0.0
 20
0.0
 30
0.0
  9
$UCSORGLEFT
 10
0.0
 20
0.0
 30
0.0
  9
$UCSORGRIGHT
 10
0.0
 20
0.0
 30
0.0
  9
$UCSORGFRONT
 10
0.0
 20
0.0
 30
0.0
  9
$UCSORGBACK
 10
0.0
 20
0.0
 30
0.0
  9
$PUCSBASE
  2

  9
$PUCSNAME
  2

  9
$PUCSORG
 10
0.0
 20
0.0
 30
0.0
  9
$PUCSXDIR
 10
1.0
 20
0.0
 30
0.0
  9
$PUCSYDIR
 10
0.0
 20
1.0
 30
0.0
  9
$PUCSORTHOREF
  2

  9
$PUCSORTHOVIEW
 70
     0
  9
$PUCSORGTOP
 10
0.0
 20
0.0
 30
0.0
  9
$PUCSORGBOTTOM
 10
0.0
 20
0.0
 30
0.0
  9
$PUCSORGLEFT
 10
0.0
 20
0.0
 30
0.0
  9
$PUCSORGRIGHT
 10
0.0
 20
0.0
 30
0.0
  9
$PUCSORGFRONT
 10
0.0
 20
0.0
 30
0.0
  9
$PUCSORGBACK
 10
0.0
 20
0.0
 30
0.0
  9
$USERI1
 70
     0
  9
$USERI2
 70
     0
  9
$USERI3
 70
     0
  9
$USERI4
 70
     0
  9
$USERI5
 70
     0
  9
$USERR1
 40
0.0
  9
$USERR2
 40
0.0
  9
$USERR3
 40
0.0
  9
$USERR4
 40
0.0
  9
$USERR5
 40
0.0
  9
$WORLDVIEW
 70
     1
  9
$SHADEDGE
 70
     3
  9
$SHADEDIF
 70
    70
  9
$TILEMODE
 70
     1
  9
$MAXACTVP
 70
    64
  9
$PINSBASE
 10
0.0
 20
0.0
 30
0.0
  9
$PLIMCHECK
 70
     0
  9
$PEXTMIN
 10
0.0
 20
0.0
 30
0.0
  9
$PEXTMAX
 10
0.0
 20
0.0
 30
0.0
  9
$PLIMMIN
 10
0.0
 20
0.0
  9
$PLIMMAX
 10
12.0
 20
9.0
  9
$UNITMODE
 70
     0
  9
$VISRETAIN
 70
     1
  9
$PLINEGEN
 70
     0
  9
$PSLTSCALE
 70
     1
  9
$TREEDEPTH
 70
  3020
  9
$CMLSTYLE
  2
Standard
  9
$CMLJUST
 70
     0
  9
$CMLSCALE
 40
20.0
  9
$PROXYGRAPHICS
 70
     1
  9
$MEASUREMENT
 70
     1
  9
$CELWEIGHT
370
    -1
  9
$ENDCAPS
280
     0
  9
$JOINSTYLE
280
     0
  9
$LWDISPLAY
290
     0
  9
$INSUNITS
 70
     4
  9
$HYPERLINKBASE
  1

  9
$STYLESHEET
  1

  9
$XEDIT
290
     1
  9
$CEPSNTYPE
380
     0
  9
$PSTYLEMODE
290
     1
  9
$FINGERPRINTGUID
  2
{FDEAD578-A652-11D2-9A35-0060089B3A3F}
  9
$VERSIONGUID
  2
{2BCE9F3D-C492-4F8A-9882-F6DA9A4FE302}
  9
$EXTNAMES
290
     1
  9
$PSVPSCALE
 40
0.0
  9
$OLESTARTUP
290
     0
  0
ENDSEC
  0
SECTION
  2
CLASSES
  0
CLASS
  1
ACDBDICTIONARYWDFLT
  2
AcDbDictionaryWithDefault
  3
ObjectDBX Classes
 90
        0
280
     0
281
     0
  0
CLASS
  1
ACDBPLACEHOLDER
  2
AcDbPlaceHolder
  3
ObjectDBX Classes
 90
        0
280
     0
281
     0
  0
CLASS
  1
LAYOUT
  2
AcDbLayout
  3
ObjectDBX Classes
 90
        0
280
     0
281
     0
  0
CLASS
  1
DICTIONARYVAR
  2
AcDbDictionaryVar
  3
ObjectDBX Classes
 90
        0
280
     0
281
     0
  0
ENDSEC
  0
SECTION
  2
TABLES
  0
TABLE
  2
VPORT
  5
8
330
0
100
AcDbSymbolTable
 70
     3
  0
VPORT
  5
33F
330
8
100
AcDbSymbolTableRecord
100
AcDbViewportTableRecord
  2
*Active
 70
     0
 10
0.0
 20
0.0
 11
1.0
 21
1.0
 12
629.8090185114504
 22
535.4696762018489
 13
0.0
 23
0.0
 14
10.0
 24
10.0
 15
10.0
 25
10.0
 16
0.0
 26
0.0
 36
1.0
 17
0.0
 27
0.0
 37
0.0
 40
1188.832629553522
 41
2.425287356321839
 42
50.0
 43
0.0
 44
0.0
 50
0.0
 51
0.0
 71
     0
 72
  1000
 73
     1
 74
     3
 75
     0
 76
     0
 77
     0
 78
     0
281
     0
 65
     1
110
0.0
120
0.0
130
0.0
111
1.0
121
0.0
131
0.0
112
0.0
122
1.0
132
0.0
 79
     0
146
0.0
  0
ENDTAB
  0
TABLE
  2
LTYPE
  5
5
330
0
100
AcDbSymbolTable
 70
     1
  0
LTYPE
  5
14
330
5
100
AcDbSymbolTableRecord
100
AcDbLinetypeTableRecord
  2
ByBlock
 70
     0
  3

 72
    65
 73
     0
 40
0.0
  0
LTYPE
  5
15
330
5
100
AcDbSymbolTableRecord
100
AcDbLinetypeTableRecord
  2
ByLayer
 70
     0
  3

 72
    65
 73
     0
 40
0.0
  0
LTYPE
  5
16
330
5
100
AcDbSymbolTableRecord
100
AcDbLinetypeTableRecord
  2
Continuous
 70
     0
  3
Solid line
 72
    65
 73
     0
 40
0.0
  0
ENDTAB
  0
TABLE
  2
LAYER
  5
2
330
0
100
AcDbSymbolTable
 70
     4
  0
LAYER
  5
10
330
2
100
AcDbSymbolTableRecord
100
AcDbLayerTableRecord
  2
0
 70
     0
 62
     2
  6
Continuous
370
    -3
390
F
  0
LAYER
  5
94
330
2
100
AcDbSymbolTableRecord
100
AcDbLayerTableRecord
  2
1
 70
     0
 62
     1
  6
Continuous
370
    -3
390
F
  0
LAYER
  5
95
330
2
100
AcDbSymbolTableRecord
100
AcDbLayerTableRecord
  2
2
 70
     0
 62
     7
  6
Continuous
370
    -3
390
F
  0
LAYER
  5
10E
330
2
100
AcDbSymbolTableRecord
100
AcDbLayerTableRecord
  2
3
 70
     0
 62
     7
  6
Continuous
370
    -3
390
F
  0
ENDTAB
  0
TABLE
  2
STYLE
  5
3
330
0
100
AcDbSymbolTable
 70
     1
  0
STYLE
  5
11
330
3
100
AcDbSymbolTableRecord
100
AcDbTextStyleTableRecord
  2
Standard
 70
     0
 40
0.0
 41
1.0
 50
0.0
 71
     0
 42
2.5
  3
txt
  4

  0
ENDTAB
  0
TABLE
  2
VIEW
  5
6
330
0
100
AcDbSymbolTable
 70
     0
  0
ENDTAB
  0
TABLE
  2
UCS
  5
7
330
0
100
AcDbSymbolTable
 70
     0
  0
ENDTAB
  0
TABLE
  2
APPID
  5
9
330
0
100
AcDbSymbolTable
 70
     1
  0
APPID
  5
12
330
9
100
AcDbSymbolTableRecord
100
AcDbRegAppTableRecord
  2
ACAD
 70
     0
  0
ENDTAB
  0
TABLE
  2
DIMSTYLE
  5
A
330
0
100
AcDbSymbolTable
 70
     1
100
AcDbDimStyleTable
 71
     0
  0
DIMSTYLE
105
27
330
A
100
AcDbSymbolTableRecord
100
AcDbDimStyleTableRecord
  2
ISO-25
 70
     0
 41
2.5
 42
0.625
 43
3.75
 44
1.25
 73
     0
 74
     0
 77
     1
 78
     8
140
2.5
141
2.5
143
0.03937007874016
147
0.625
171
     3
172
     1
271
     2
272
     2
274
     3
278
    44
283
     0
284
     8
340
11
  0
ENDTAB
  0
TABLE
  2
BLOCK_RECORD
  5
1
330
0
100
AcDbSymbolTable
 70
     1
  0
BLOCK_RECORD
  5
1F
330
1
100
AcDbSymbolTableRecord
100
AcDbBlockTableRecord
  2
*Model_Space
340
22
  0
BLOCK_RECORD
  5
50
330
1
100
AcDbSymbolTableRecord
100
AcDbBlockTableRecord
  2
*Paper_Space
340
51
  0
BLOCK_RECORD
  5
55
330
1
100
AcDbSymbolTableRecord
100
AcDbBlockTableRecord
  2
*Paper_Space0
340
56
  0
ENDTAB
  0
ENDSEC
  0
SECTION
  2
BLOCKS
  0
BLOCK
  5
20
330
1F
100
AcDbEntity
  8
0
100
AcDbBlockBegin
  2
*Model_Space
 70
     0
 10
0.0
 20
0.0
 30
0.0
  3
*Model_Space
  1

  0
ENDBLK
  5
21
330
1F
100
AcDbEntity
  8
0
100
AcDbBlockEnd
  0
BLOCK
  5
52
330
50
100
AcDbEntity
 67
     1
  8
0
100
AcDbBlockBegin
  2
*Paper_Space
 70
     0
 10
0.0
 20
0.0
 30
0.0
  3
*Paper_Space
  1

  0
ENDBLK
  5
53
330
50
100
AcDbEntity
 67
     1
  8
0
100
AcDbBlockEnd
  0
BLOCK
  5
57
330
55
100
AcDbEntity
  8
0
100
AcDbBlockBegin
  2
*Paper_Space0
 70
     0
 10
0.0
 20
0.0
 30
0.0
  3
*Paper_Space0
  1

  0
ENDBLK
  5
58
330
55
100
AcDbEntity
  8
0
100
AcDbBlockEnd
  0
ENDSEC
  0
SECTION
  2
ENTITIES
  0
LWPOLYLINE
  5
302
330
1F
100
AcDbEntity
  8
0
 62
     2
100
AcDbPolyline
 90
        4
 70
     1
 43
0.0
 10
0.0000321447732858
 20
1000.000042914966
 10
0.0000321447732858
 20
0.0000429149658885
 10
1000.000032144773
 20
0.0000429149658885
 10
1000.000032144773
 20
1000.000042914966
  0
SPLINE
  5
303
330
1F
100
AcDbEntity
  8
3
100
AcDbSpline
210
0.0
220
0.0
230
1.0
 70
     8
 71
     3
 72
    10
 73
     6
 74
     4
 42
0.0000000001
 43
0.0000000001
 44
0.0000000001
 40
0.0
 40
0.0
 40
0.0
 40
0.0
 40
40.05603753330471
 40
72.87161810899178
 40
137.2780945651785
 40
137.2780945651785
 40
137.2780945651785
 40
137.2780945651785
 10
569.2052613706884
 20
942.1126494285298
 30
0.0
 10
586.7028816103194
 20
932.0551752994356
 30
0.0
 10
618.5352838757302
 20
913.7581978895497
 30
0.0
 10
555.817588491922
 20
884.0832909139063
 30
0.0
 10
523.0337202997884
 20
884.1631352235063
 30
0.0
 10
501.3154652111608
 20
884.216029502885
 30
0.0
 11
569.2052613706884
 21
942.1126494285298
 31
0.0
 11
602.0207696009212
 21
912.7090671218848
 31
0.0
 11
571.5757864497736
 21
893.315603830486
 31
0.0
 11
501.3154652111608
 21
884.216029502885
 31
0.0
  0
SPLINE
  5
304
330
1F
100
AcDbEntity
  8
3
100
AcDbSpline
210
0.0
220
0.0
230
1.0
 70
     8
 71
     3
 72
    10
 73
     6
 74
     4
 42
0.0000000001
 43
0.0000000001
 44
0.0000000001
 40
0.0
 40
0.0
 40
0.0
 40
0.0
 40
40.0560375332992
 40
72.87161810898012
 40
137.2780945651742
 40
137.2780945651742
 40
137.2780945651742
 40
137.2780945651742
 10
433.4256690516248
 20
826.3194095772405
 30
0.0
 10
415.9280488119979
 20
836.3768837063346
 30
0.0
 10
384.0956465465954
 20
854.6738611162203
 30
0.0
 10
446.8133419303947
 20
884.348768091867
 30
0.0
 10
479.5972101225296
 20
884.268923782265
 30
0.0
 10
501.3154652111608
 20
884.216029502885
 30
0.0
 11
433.4256690516248
 21
826.3194095772405
 31
0.0
 11
400.6101608214001
 21
855.7229918838853
 31
0.0
 11
431.0551439725397
 21
875.116455175284
 31
0.0
 11
501.3154652111608
 21
884.216029502885
 31
0.0
  0
SPLINE
  5
305
330
1F
100
AcDbEntity
  8
3
100
AcDbSpline
210
0.0
220
0.0
230
1.0
 70
     8
 71
     3
 72
    10
 73
     6
 74
     4
 42
0.0000000001
 43
0.0000000001
 44
0.0000000001
 40
0.0
 40
0.0
 40
0.0
 40
0.0
 40
40.05603753330463
 40
72.8716181089917
 40
137.2780945651784
 40
137.2780945651784
 40
137.2780945651784
 40
137.2780945651784
 10
569.2052613706884
 20
832.1126494285296
 30
0.0
 10
586.7028816103193
 20
822.0551752994353
 30
0.0
 10
618.5352838757302
 20
803.7581978895495
 30
0.0
 10
555.8175884919218
 20
774.0832909139061
 30
0.0
 10
523.0337202997884
 20
774.1631352235061
 30
0.0
 10
501.3154652111608
 20
774.2160295028851
 30
0.0
 11
569.2052613706884
 21
832.1126494285296
 31
0.0
 11
602.0207696009212
 21
802.7090671218848
 31
0.0
 11
571.5757864497736
 21
783.315603830486
 31
0.0
 11
501.3154652111608
 21
774.2160295028851
 31
0.0
  0
SPLINE
  5
306
330
1F
100
AcDbEntity
  8
3
100
AcDbSpline
210
0.0
220
0.0
230
1.0
 70
     8
 71
     3
 72
    10
 73
     6
 74
     4
 42
0.0000000001
 43
0.0000000001
 44
0.0000000001
 40
0.0
 40
0.0
 40
0.0
 40
0.0
 40
40.0560375332992
 40
72.87161810898019
 40
137.2780945651742
 40
137.2780945651742
 40
137.2780945651742
 40
137.2780945651742
 10
433.4256690516248
 20
716.3194095772405
 30
0.0
 10
415.9280488119979
 20
726.3768837063346
 30
0.0
 10
384.0956465465953
 20
744.6738611162199
 30
0.0
 10
446.8133419303947
 20
774.3487680918676
 30
0.0
 10
479.5972101225296
 20
774.2689237822651
 30
0.0
 10
501.3154652111608
 20
774.2160295028851
 30
0.0
 11
433.4256690516248
 21
716.3194095772405
 31
0.0
 11
400.6101608214001
 21
745.7229918838853
 31
0.0
 11
431.0551439725397
 21
765.116455175284
 31
0.0
 11
501.3154652111608
 21
774.2160295028851
 31
0.0
  0
SPLINE
  5
307
330
1F
100
AcDbEntity
  8
3
100
AcDbSpline
210
0.0
220
0.0
230
1.0
 70
     8
 71
     3
 72
    10
 73
     6
 74
     4
 42
0.0000000001
 43
0.0000000001
 44
0.0000000001
 40
0.0
 40
0.0
 40
0.0
 40
0.0
 40
40.05603753330463
 40
72.87161810899177
 40
137.2780945651784
 40
137.2780945651784
 40
137.2780945651784
 40
137.2780945651784
 10
569.2052613706884
 20
722.1126494285296
 30
0.0
 10
586.7028816103193
 20
712.0551752994353
 30
0.0
 10
618.5352838757302
 20
693.7581978895498
 30
0.0
 10
555.8175884919221
 20
664.0832909139061
 30
0.0
 10
523.0337202997888
 20
664.1631352235061
 30
0.0
 10
501.3154652111608
 20
664.2160295028851
 30
0.0
 11
569.2052613706884
 21
722.1126494285296
 31
0.0
 11
602.0207696009212
 21
692.7090671218848
 31
0.0
 11
571.5757864497736
 21
673.3156038304858
 31
0.0
 11
501.3154652111608
 21
664.2160295028851
 31
0.0
  0
SPLINE
  5
308
330
1F
100
AcDbEntity
  8
3
100
AcDbSpline
210
0.0
220
0.0
230
1.0
 70
     8
 71
     3
 72
    10
 73
     6
 74
     4
 42
0.0000000001
 43
0.0000000001
 44
0.0000000001
 40
0.0
 40
0.0
 40
0.0
 40
0.0
 40
40.0560375332992
 40
72.8716181089803
 40
137.2780945651743
 40
137.2780945651743
 40
137.2780945651743
 40
137.2780945651743
 10
433.4256690516248
 20
606.3194095772403
 30
0.0
 10
415.928048811998
 20
616.3768837063344
 30
0.0
 10
384.0956465465954
 20
634.6738611162197
 30
0.0
 10
446.8133419303945
 20
664.3487680918678
 30
0.0
 10
479.5972101225296
 20
664.2689237822653
 30
0.0
 10
501.3154652111608
 20
664.2160295028851
 30
0.0
 11
433.4256690516248
 21
606.3194095772403
 31
0.0
 11
400.6101608214001
 21
635.7229918838852
 31
0.0
 11
431.0551439725397
 21
655.1164551752841
 31
0.0
 11
501.3154652111608
 21
664.2160295028851
 31
0.0
  0
SPLINE
  5
309
330
1F
100
AcDbEntity
  8
3
100
AcDbSpline
210
0.0
220
0.0
230
1.0
 70
     8
 71
     3
 72
    10
 73
     6
 74
     4
 42
0.0000000001
 43
0.0000000001
 44
0.0000000001
 40
0.0
 40
0.0
 40
0.0
 40
0.0
 40
40.05603753330463
 40
72.8716181089917
 40
137.2780945651784
 40
137.2780945651784
 40
137.2780945651784
 40
137.2780945651784
 10
569.2052613706884
 20
612.1126494285296
 30
0.0
 10
586.7028816103193
 20
602.0551752994354
 30
0.0
 10
618.5352838757302
 20
583.7581978895496
 30
0.0
 10
555.8175884919221
 20
554.0832909139064
 30
0.0
 10
523.0337202997885
 20
554.1631352235062
 30
0.0
 10
501.3154652111608
 20
554.2160295028848
 30
0.0
 11
569.2052613706884
 21
612.1126494285296
 31
0.0
 11
602.0207696009212
 21
582.7090671218847
 31
0.0
 11
571.5757864497736
 21
563.315603830486
 31
0.0
 11
501.3154652111608
 21
554.2160295028848
 31
0.0
  0
SPLINE
  5
30A
330
1F
100
AcDbEntity
  8
3
100
AcDbSpline
210
0.0
220
0.0
230
1.0
 70
     8
 71
     3
 72
    10
 73
     6
 74
     4
 42
0.0000000001
 43
0.0000000001
 44
0.0000000001
 40
0.0
 40
0.0
 40
0.0
 40
0.0
 40
40.05603753329928
 40
72.87161810898027
 40
137.2780945651743
 40
137.2780945651743
 40
137.2780945651743
 40
137.2780945651743
 10
433.4256690516248
 20
496.3194095772403
 30
0.0
 10
415.9280488119979
 20
506.3768837063345
 30
0.0
 10
384.0956465465954
 20
524.6738611162199
 30
0.0
 10
446.8133419303947
 20
554.3487680918676
 30
0.0
 10
479.5972101225294
 20
554.2689237822649
 30
0.0
 10
501.3154652111608
 20
554.2160295028848
 30
0.0
 11
433.4256690516248
 21
496.3194095772403
 31
0.0
 11
400.6101608214001
 21
525.7229918838853
 31
0.0
 11
431.0551439725397
 21
545.116455175284
 31
0.0
 11
501.3154652111608
 21
554.2160295028848
 31
0.0
  0
SPLINE
  5
30B
330
1F
100
AcDbEntity
  8
3
100
AcDbSpline
210
0.0
220
0.0
230
1.0
 70
     8
 71
     3
 72
    10
 73
     6
 74
     4
 42
0.0000000001
 43
0.0000000001
 44
0.0000000001
 40
0.0
 40
0.0
 40
0.0
 40
0.0
 40
40.05603753330471
 40
72.87161810899172
 40
137.2780945651784
 40
137.2780945651784
 40
137.2780945651784
 40
137.2780945651784
 10
569.2052613706884
 20
502.1126494285296
 30
0.0
 10
586.7028816103194
 20
492.0551752994354
 30
0.0
 10
618.5352838757303
 20
473.7581978895494
 30
0.0
 10
555.8175884919219
 20
444.0832909139064
 30
0.0
 10
523.0337202997888
 20
444.1631352235062
 30
0.0
 10
501.3154652111608
 20
444.2160295028848
 30
0.0
 11
569.2052613706884
 21
502.1126494285296
 31
0.0
 11
602.0207696009212
 21
472.7090671218847
 31
0.0
 11
571.5757864497736
 21
453.3156038304859
 31
0.0
 11
501.3154652111608
 21
444.2160295028848
 31
0.0
  0
SPLINE
  5
30C
330
1F
100
AcDbEntity
  8
3
100
AcDbSpline
210
0.0
220
0.0
230
1.0
 70
     8
 71
     3
 72
    10
 73
     6
 74
     4
 42
0.0000000001
 43
0.0000000001
 44
0.0000000001
 40
0.0
 40
0.0
 40
0.0
 40
0.0
 40
40.05603753329917
 40
72.87161810898021
 40
137.2780945651742
 40
137.2780945651742
 40
137.2780945651742
 40
137.2780945651742
 10
433.4256690516248
 20
386.3194095772404
 30
0.0
 10
415.9280488119979
 20
396.3768837063344
 30
0.0
 10
384.0956465465954
 20
414.6738611162197
 30
0.0
 10
446.8133419303946
 20
444.3487680918677
 30
0.0
 10
479.5972101225296
 20
444.2689237822651
 30
0.0
 10
501.3154652111608
 20
444.2160295028848
 30
0.0
 11
433.4256690516248
 21
386.3194095772404
 31
0.0
 11
400.6101608214001
 21
415.7229918838851
 31
0.0
 11
431.0551439725397
 21
435.1164551752839
 31
0.0
 11
501.3154652111608
 21
444.2160295028848
 31
0.0
  0
SPLINE
  5
30D
330
1F
100
AcDbEntity
  8
3
100
AcDbSpline
210
0.0
220
0.0
230
1.0
 70
     8
 71
     3
 72
    10
 73
     6
 74
     4
 42
0.0000000001
 43
0.0000000001
 44
0.0000000001
 40
0.0
 40
0.0
 40
0.0
 40
0.0
 40
40.05603753330478
 40
72.87161810899184
 40
137.2780945651785
 40
137.2780945651785
 40
137.2780945651785
 40
137.2780945651785
 10
569.2052613706884
 20
392.1126494285299
 30
0.0
 10
586.7028816103193
 20
382.0551752994356
 30
0.0
 10
618.53528387573
 20
363.7581978895495
 30
0.0
 10
555.8175884919223
 20
334.0832909139063
 30
0.0
 10
523.0337202997888
 20
334.1631352235065
 30
0.0
 10
501.3154652111608
 20
334.2160295028851
 30
0.0
 11
569.2052613706884
 21
392.1126494285299
 31
0.0
 11
602.0207696009212
 21
362.7090671218847
 31
0.0
 11
571.5757864497736
 21
343.315603830486
 31
0.0
 11
501.3154652111608
 21
334.2160295028851
 31
0.0
  0
SPLINE
  5
30E
330
1F
100
AcDbEntity
  8
3
100
AcDbSpline
210
0.0
220
0.0
230
1.0
 70
     8
 71
     3
 72
    10
 73
     6
 74
     4
 42
0.0000000001
 43
0.0000000001
 44
0.0000000001
 40
0.0
 40
0.0
 40
0.0
 40
0.0
 40
40.05603753329928
 40
72.87161810898036
 40
137.2780945651744
 40
137.2780945651744
 40
137.2780945651744
 40
137.2780945651744
 10
433.4256690516248
 20
276.3194095772403
 30
0.0
 10
415.9280488119979
 20
286.3768837063344
 30
0.0
 10
384.0956465465953
 20
304.6738611162198
 30
0.0
 10
446.8133419303947
 20
334.3487680918679
 30
0.0
 10
479.5972101225297
 20
334.2689237822654
 30
0.0
 10
501.3154652111608
 20
334.2160295028851
 30
0.0
 11
433.4256690516248
 21
276.3194095772403
 31
0.0
 11
400.6101608214001
 21
305.7229918838853
 31
0.0
 11
431.0551439725397
 21
325.1164551752842
 31
0.0
 11
501.3154652111608
 21
334.2160295028851
 31
0.0
  0
SPLINE
  5
30F
330
1F
100
AcDbEntity
  8
3
100
AcDbSpline
210
0.0
220
0.0
230
1.0
 70
     8
 71
     3
 72
    10
 73
     6
 74
     4
 42
0.0000000001
 43
0.0000000001
 44
0.0000000001
 40
0.0
 40
0.0
 40
0.0
 40
0.0
 40
40.05603753330475
 40
72.87161810899178
 40
137.2780945651785
 40
137.2780945651785
 40
137.2780945651785
 40
137.2780945651785
 10
569.2052613706884
 20
282.1126494285297
 30
0.0
 10
586.7028816103194
 20
272.0551752994354
 30
0.0
 10
618.5352838757302
 20
253.7581978895495
 30
0.0
 10
555.8175884919219
 20
224.0832909139063
 30
0.0
 10
523.0337202997888
 20
224.1631352235064
 30
0.0
 10
501.3154652111608
 20
224.2160295028851
 30
0.0
 11
569.2052613706884
 21
282.1126494285297
 31
0.0
 11
602.0207696009212
 21
252.7090671218848
 31
0.0
 11
571.5757864497736
 21
233.315603830486
 31
0.0
 11
501.3154652111608
 21
224.2160295028851
 31
0.0
  0
SPLINE
  5
310
330
1F
100
AcDbEntity
  8
3
100
AcDbSpline
210
0.0
220
0.0
230
1.0
 70
     8
 71
     3
 72
    10
 73
     6
 74
     4
 42
0.0000000001
 43
0.0000000001
 44
0.0000000001
 40
0.0
 40
0.0
 40
0.0
 40
0.0
 40
40.05603753329933
 40
72.87161810898036
 40
137.2780945651744
 40
137.2780945651744
 40
137.2780945651744
 40
137.2780945651744
 10
433.4256690516248
 20
166.3194095772403
 30
0.0
 10
415.9280488119979
 20
176.3768837063344
 30
0.0
 10
384.0956465465952
 20
194.6738611162199
 30
0.0
 10
446.8133419303947
 20
224.3487680918678
 30
0.0
 10
479.5972101225296
 20
224.2689237822654
 30
0.0
 10
501.3154652111608
 20
224.2160295028851
 30
0.0
 11
433.4256690516248
 21
166.3194095772403
 31
0.0
 11
400.6101608214001
 21
195.7229918838853
 31
0.0
 11
431.0551439725397
 21
215.1164551752842
 31
0.0
 11
501.3154652111608
 21
224.2160295028851
 31
0.0
  0
SPLINE
  5
311
330
1F
100
AcDbEntity
  8
3
100
AcDbSpline
210
0.0
220
0.0
230
1.0
 70
     8
 71
     3
 72
    10
 73
     6
 74
     4
 42
0.0000000001
 43
0.0000000001
 44
0.0000000001
 40
0.0
 40
0.0
 40
0.0
 40
0.0
 40
40.05603753330471
 40
72.87161810899175
 40
137.2780945651784
 40
137.2780945651784
 40
137.2780945651784
 40
137.2780945651784
 10
569.2052613706884
 20
172.1126494285297
 30
0.0
 10
586.7028816103193
 20
162.0551752994354
 30
0.0
 10
618.5352838757302
 20
143.7581978895495
 30
0.0
 10
555.8175884919221
 20
114.0832909139063
 30
0.0
 10
523.0337202997888
 20
114.1631352235064
 30
0.0
 10
501.3154652111608
 20
114.2160295028851
 30
0.0
 11
569.2052613706884
 21
172.1126494285297
 31
0.0
 11
602.0207696009212
 21
142.7090671218847
 31
0.0
 11
571.5757864497736
 21
123.315603830486
 31
0.0
 11
501.3154652111608
 21
114.2160295028851
 31
0.0
  0
SPLINE
  5
312
330
1F
100
AcDbEntity
  8
3
100
AcDbSpline
210
0.0
220
0.0
230
1.0
 70
     8
 71
     3
 72
    10
 73
     6
 74
     4
 42
0.0000000001
 43
0.0000000001
 44
0.0000000001
 40
0.0
 40
0.0
 40
0.0
 40
0.0
 40
40.05603753329924
 40
72.87161810898027
 40
137.2780945651743
 40
137.2780945651743
 40
137.2780945651743
 40
137.2780945651743
 10
433.4256690516248
 20
56.31940957724037
 30
0.0
 10
415.9280488119979
 20
66.37688370633447
 30
0.0
 10
384.0956465465954
 20
84.67386111621982
 30
0.0
 10
446.8133419303947
 20
114.3487680918677
 30
0.0
 10
479.5972101225296
 20
114.2689237822653
 30
0.0
 10
501.3154652111608
 20
114.2160295028851
 30
0.0
 11
433.4256690516248
 21
56.31940957724037
 31
0.0
 11
400.6101608214001
 21
85.72299188388527
 31
0.0
 11
431.0551439725397
 21
105.116455175284
 31
0.0
 11
501.3154652111608
 21
114.2160295028851
 31
0.0
  0
LINE
  5
313
330
1F
100
AcDbEntity
  8
1
 62
     1
100
AcDbLine
 10
357.4205574306795
 20
968.8511117464123
 30
0.0
 11
357.4205574306794
 21
31.14897408351954
 31
0.0
  0
LINE
  5
314
330
1F
100
AcDbEntity
  8
1
 62
     1
100
AcDbLine
 10
357.4205574306795
 20
31.14897408351954
 30
0.0
 11
642.5795068588667
 21
31.14897408351954
 31
0.0
  0
LINE
  5
315
330
1F
100
AcDbEntity
  8
1
 62
     1
100
AcDbLine
 10
642.5795068588667
 20
31.14897408351954
 30
0.0
 11
642.5795068588668
 21
968.8511117464123
 31
0.0
  0
LINE
  5
316
330
1F
100
AcDbEntity
  8
1
 62
     1
100
AcDbLine
 10
642.5795068588667
 20
968.8511117464123
 30
0.0
 11
357.4205574306795
 21
968.8511117464123
 31
0.0
  0
ENDSEC
  0
SECTION
  2
OBJECTS
  0
DICTIONARY
  5
C
330
0
100
AcDbDictionary
281
     1
  3
ACAD_COLOR
350
6B
  3
ACAD_GROUP
350
D
  3
ACAD_LAYOUT
350
1A
  3
ACAD_MATERIAL
350
6A
  3
ACAD_MLINESTYLE
350
17
  3
ACAD_PLOTSETTINGS
350
19
  3
ACAD_PLOTSTYLENAME
350
E
  3
ACDBHEADERROUNDTRIPXREC
350
340
  3
AcDbVariableDictionary
350
5E
  0
DICTIONARY
  5
6B
102
{ACAD_REACTORS
330
C
102
}
330
C
100
AcDbDictionary
281
     1
  0
DICTIONARY
  5
D
102
{ACAD_REACTORS
330
C
102
}
330
C
100
AcDbDictionary
281
     1
  0
DICTIONARY
  5
1A
102
{ACAD_REACTORS
330
C
102
}
330
C
100
AcDbDictionary
281
     1
  3
Layout1
350
51
  3
Layout2
350
56
  3
Model
350
22
  0
DICTIONARY
  5
6A
102
{ACAD_REACTORS
330
C
102
}
330
C
100
AcDbDictionary
281
     1
  0
DICTIONARY
  5
17
102
{ACAD_REACTORS
330
C
102
}
330
C
100
AcDbDictionary
281
     1
  3
Standard
350
18
  0
DICTIONARY
  5
19
102
{ACAD_REACTORS
330
C
102
}
330
C
100
AcDbDictionary
281
     1
  0
ACDBDICTIONARYWDFLT
  5
E
102
{ACAD_REACTORS
330
C
102
}
330
C
100
AcDbDictionary
281
     1
  3
Normal
350
F
100
AcDbDictionaryWithDefault
340
F
  0
DICTIONARY
  5
340
102
{ACAD_REACTORS
330
C
102
}
330
C
100
AcDbDictionary
281
     1
  3
COLORDICT
350
342
  3
MATERIALDICT
350
341
  0
DICTIONARY
  5
5E
102
{ACAD_REACTORS
330
C
102
}
330
C
100
AcDbDictionary
281
     1
  3
DIMASSOC
350
5F
  3
HIDETEXT
350
63
  3
PROJECTNAME
350
85
  0
LAYOUT
  5
51
102
{ACAD_XDICTIONARY
360
345
102
}
102
{ACAD_REACTORS
330
1A
102
}
330
1A
100
AcDbPlotSettings
  1

  2
None
  4

  6

 40
0.0
 41
0.0
 42
0.0
 43
0.0
 44
0.0
 45
0.0
 46
0.0
 47
0.0
 48
0.0
 49
0.0
140
0.0
141
0.0
142
1.0
143
1.0
 70
   688
 72
     0
 73
     0
 74
     5
  7

 75
    16
147
1.0
148
0.0
149
0.0
100
AcDbLayout
  1
Layout1
 70
     1
 71
     1
 10
0.0
 20
0.0
 11
12.0
 21
9.0
 12
0.0
 22
0.0
 32
0.0
 14
0.0
 24
0.0
 34
0.0
 15
0.0
 25
0.0
 35
0.0
146
0.0
 13
0.0
 23
0.0
 33
0.0
 16
1.0
 26
0.0
 36
0.0
 17
0.0
 27
1.0
 37
0.0
 76
     0
330
50
  0
LAYOUT
  5
56
102
{ACAD_XDICTIONARY
360
347
102
}
102
{ACAD_REACTORS
330
1A
102
}
330
1A
100
AcDbPlotSettings
  1

  2
None
  4

  6

 40
0.0
 41
0.0
 42
0.0
 43
0.0
 44
0.0
 45
0.0
 46
0.0
 47
0.0
 48
0.0
 49
0.0
140
0.0
141
0.0
142
1.0
143
1.0
 70
   688
 72
     0
 73
     0
 74
     5
  7

 75
    16
147
1.0
148
0.0
149
0.0
100
AcDbLayout
  1
Layout2
 70
     1
 71
     2
 10
0.0
 20
0.0
 11
12.0
 21
9.0
 12
0.0
 22
0.0
 32
0.0
 14
0.0
 24
0.0
 34
0.0
 15
0.0
 25
0.0
 35
0.0
146
0.0
 13
0.0
 23
0.0
 33
0.0
 16
1.0
 26
0.0
 36
0.0
 17
0.0
 27
1.0
 37
0.0
 76
     0
330
55
  0
LAYOUT
  5
22
102
{ACAD_XDICTIONARY
360
343
102
}
102
{ACAD_REACTORS
330
1A
102
}
330
1A
100
AcDbPlotSettings
  1

  2
none_device
  4
ANSI_A_(8.50_x_11.00_Inches)
  6

 40
6.349999904632567
 41
19.04999923706055
 42
6.350006103515625
 43
19.04998779296875
 44
215.8999938964844
 45
279.3999938964844
 46
0.0
 47
0.0
 48
0.0
 49
0.0
140
0.0
141
0.0
142
1.0
143
78.436453180766
 70
 11952
 72
     0
 73
     1
 74
     0
  7

 75
     0
147
0.0127491741332998
148
0.0
149
0.0
100
AcDbLayout
  1
Model
 70
     1
 71
     0
 10
0.0
 20
0.0
 11
12.0
 21
9.0
 12
0.0
 22
0.0
 32
0.0
 14
0.0
 24
0.0
 34
0.0
 15
0.0
 25
0.0
 35
0.0
146
0.0
 13
0.0
 23
0.0
 33
0.0
 16
1.0
 26
0.0
 36
0.0
 17
0.0
 27
1.0
 37
0.0
 76
     0
330
1F
  0
MLINESTYLE
  5
18
102
{ACAD_REACTORS
330
17
102
}
330
17
100
AcDbMlineStyle
  2
STANDARD
 70
     0
  3

 62
   256
 51
90.0
 52
90.0
 71
     2
 49
0.5
 62
   256
  6
BYLAYER
 49
-0.5
 62
   256
  6
BYLAYER
  0
ACDBPLACEHOLDER
  5
F
102
{ACAD_REACTORS
330
E
102
}
330
E
  0
XRECORD
  5
342
102
{ACAD_REACTORS
330
340
102
}
330
340
100
AcDbXrecord
280
     1
340
6B
  0
XRECORD
  5
341
102
{ACAD_REACTORS
330
340
102
}
330
340
100
AcDbXrecord
280
     1
340
6A
  0
DICTIONARYVAR
  5
5F
102
{ACAD_REACTORS
330
5E
102
}
330
5E
100
DictionaryVariables
280
     0
  1
2
  0
DICTIONARYVAR
  5
63
102
{ACAD_REACTORS
330
5E
102
}
330
5E
100
DictionaryVariables
280
     0
  1
1
  0
DICTIONARYVAR
  5
85
102
{ACAD_REACTORS
330
5E
102
}
330
5E
100
DictionaryVariables
280
     0
  1

  0
DICTIONARY
  5
345
330
51
100
AcDbDictionary
280
     1
281
     1
  3
ACAD_XREC_ROUNDTRIP
360
346
  0
DICTIONARY
  5
347
330
56
100
AcDbDictionary
280
     1
281
     1
  3
ACAD_XREC_ROUNDTRIP
360
348
  0
DICTIONARY
  5
343
330
22
100
AcDbDictionary
280
     1
281
     1
  3
ACAD_XREC_ROUNDTRIP
360
344
  0
XRECORD
  5
346
102
{ACAD_REACTORS
330
345
102
}
330
345
100
AcDbXrecord
280
     1
102
SHADEPLOT
 70
     0
102
SHADEPLOTRESLEVEL
 70
     2
102
SHADEPLOTCUSTOMDPI
 70
   300
  0
XRECORD
  5
348
102
{ACAD_REACTORS
330
347
102
}
330
347
100
AcDbXrecord
280
     1
102
SHADEPLOT
 70
     0
102
SHADEPLOTRESLEVEL
 70
     2
102
SHADEPLOTCUSTOMDPI
 70
   300
  0
XRECORD
  5
344
102
{ACAD_REACTORS
330
343
102
}
330
343
100
AcDbXrecord
280
     1
102
SHADEPLOT
 70
     0
102
SHADEPLOTRESLEVEL
 70
     2
102
SHADEPLOTCUSTOMDPI
 70
   300
  0
ENDSEC
  0
EOF
