  0
SECTION
  2
HEADER
  9
$ACADVER
  1
AC1015
  9
$ACADMAINTVER
 70
    20
  9
$DWGCODEPAGE
  3
ANSI_936
  9
$INSBASE
 10
0.0
 20
0.0
 30
0.0
  9
$EXTMIN
 10
0.0
 20
0.0
 30
0.0
  9
$EXTMAX
 10
1000.0
 20
1000.0
 30
0.0
  9
$LIMMIN
 10
0.0
 20
0.0
  9
$LIMMAX
 10
420.0
 20
297.0
  9
$ORTHOMODE
 70
     0
  9
$REGENMODE
 70
     1
  9
$FILLMODE
 70
     1
  9
$QTEXTMODE
 70
     0
  9
$MIRRTEXT
 70
     0
  9
$LTSCALE
 40
1.0
  9
$ATTMODE
 70
     1
  9
$TEXTSIZE
 40
2.5
  9
$TRACEWID
 40
1.0
  9
$TEXTSTYLE
  7
Standard
  9
$CLAYER
  8
2
  9
$CELTYPE
  6
ByLayer
  9
$CECOLOR
 62
   256
  9
$CELTSCALE
 40
1.0
  9
$DISPSILH
 70
     0
  9
$DIMSCALE
 40
1.0
  9
$DIMASZ
 40
2.5
  9
$DIMEXO
 40
0.625
  9
$DIMDLI
 40
3.75
  9
$DIMRND
 40
0.0
  9
$DIMDLE
 40
0.0
  9
$DIMEXE
 40
1.25
  9
$DIMTP
 40
0.0
  9
$DIMTM
 40
0.0
  9
$DIMTXT
 40
2.5
  9
$DIMCEN
 40
2.5
  9
$DIMTSZ
 40
0.0
  9
$DIMTOL
 70
     0
  9
$DIMLIM
 70
     0
  9
$DIMTIH
 70
     0
  9
$DIMTOH
 70
     0
  9
$DIMSE1
 70
     0
  9
$DIMSE2
 70
     0
  9
$DIMTAD
 70
     1
  9
$DIMZIN
 70
     8
  9
$DIMBLK
  1

  9
$DIMASO
 70
     1
  9
$DIMSHO
 70
     1
  9
$DIMPOST
  1

  9
$DIMAPOST
  1

  9
$DIMALT
 70
     0
  9
$DIMALTD
 70
     3
  9
$DIMALTF
 40
0.03937007874016
  9
$DIMLFAC
 40
1.0
  9
$DIMTOFL
 70
     1
  9
$DIMTVP
 40
0.0
  9
$DIMTIX
 70
     0
  9
$DIMSOXD
 70
     0
  9
$DIMSAH
 70
     0
  9
$DIMBLK1
  1

  9
$DIMBLK2
  1

  9
$DIMSTYLE
  2
ISO-25
  9
$DIMCLRD
 70
     0
  9
$DIMCLRE
 70
     0
  9
$DIMCLRT
 70
     0
  9
$DIMTFAC
 40
1.0
  9
$DIMGAP
 40
0.625
  9
$DIMJUST
 70
     0
  9
$DIMSD1
 70
     0
  9
$DIMSD2
 70
     0
  9
$DIMTOLJ
 70
     0
  9
$DIMTZIN
 70
     8
  9
$DIMALTZ
 70
     0
  9
$DIMALTTZ
 70
     0
  9
$DIMUPT
 70
     0
  9
$DIMDEC
 70
     2
  9
$DIMTDEC
 70
     2
  9
$DIMALTU
 70
     2
  9
$DIMALTTD
 70
     3
  9
$DIMTXSTY
  7
Standard
  9
$DIMAUNIT
 70
     0
  9
$DIMADEC
 70
     0
  9
$DIMALTRND
 40
0.0
  9
$DIMAZIN
 70
     0
  9
$DIMDSEP
 70
    44
  9
$DIMATFIT
 70
     3
  9
$DIMFRAC
 70
     0
  9
$DIMLDRBLK
  1

  9
$DIMLUNIT
 70
     2
  9
$DIMLWD
 70
    -2
  9
$DIMLWE
 70
    -2
  9
$DIMTMOVE
 70
     0
  9
$LUNITS
 70
     2
  9
$LUPREC
 70
     4
  9
$SKETCHINC
 40
1.0
  9
$FILLETRAD
 40
0.0
  9
$AUNITS
 70
     0
  9
$AUPREC
 70
     0
  9
$MENU
  1
.
  9
$ELEVATION
 40
0.0
  9
$PELEVATION
 40
0.0
  9
$THICKNESS
 40
0.0
  9
$LIMCHECK
 70
     0
  9
$CHAMFERA
 40
0.0
  9
$CHAMFERB
 40
0.0
  9
$CHAMFERC
 40
0.0
  9
$CHAMFERD
 40
0.0
  9
$SKPOLY
 70
     0
  9
$TDCREATE
 40
2455505.725807523
  9
$TDUCREATE
 40
2455505.392474190
  9
$TDUPDATE
 40
2457098.622699653
  9
$TDUUPDATE
 40
2457098.289366320
  9
$TDINDWG
 40
0.1244882523
  9
$TDUSRTIMER
 40
0.1244875347
  9
$USRTIMER
 70
     1
  9
$ANGBASE
 50
0.0
  9
$ANGDIR
 70
     0
  9
$PDMODE
 70
     0
  9
$PDSIZE
 40
0.0
  9
$PLINEWID
 40
0.0
  9
$SPLFRAME
 70
     0
  9
$SPLINETYPE
 70
     6
  9
$SPLINESEGS
 70
     8
  9
$HANDSEED
  5
3ED
  9
$SURFTAB1
 70
     6
  9
$SURFTAB2
 70
     6
  9
$SURFTYPE
 70
     6
  9
$SURFU
 70
     6
  9
$SURFV
 70
     6
  9
$UCSBASE
  2

  9
$UCSNAME
  2

  9
$UCSORG
 10
0.0
 20
0.0
 30
0.0
  9
$UCSXDIR
 10
1.0
 20
0.0
 30
0.0
  9
$UCSYDIR
 10
0.0
 20
1.0
 30
0.0
  9
$UCSORTHOREF
  2

  9
$UCSORTHOVIEW
 70
     0
  9
$UCSORGTOP
 10
0.0
 20
0.0
 30
0.0
  9
$UCSORGBOTTOM
 10
0.0
 20
0.0
 30
0.0
  9
$UCSORGLEFT
 10
0.0
 20
0.0
 30
0.0
  9
$UCSORGRIGHT
 10
0.0
 20
0.0
 30
0.0
  9
$UCSORGFRONT
 10
0.0
 20
0.0
 30
0.0
  9
$UCSORGBACK
 10
0.0
 20
0.0
 30
0.0
  9
$PUCSBASE
  2

  9
$PUCSNAME
  2

  9
$PUCSORG
 10
0.0
 20
0.0
 30
0.0
  9
$PUCSXDIR
 10
1.0
 20
0.0
 30
0.0
  9
$PUCSYDIR
 10
0.0
 20
1.0
 30
0.0
  9
$PUCSORTHOREF
  2

  9
$PUCSORTHOVIEW
 70
     0
  9
$PUCSORGTOP
 10
0.0
 20
0.0
 30
0.0
  9
$PUCSORGBOTTOM
 10
0.0
 20
0.0
 30
0.0
  9
$PUCSORGLEFT
 10
0.0
 20
0.0
 30
0.0
  9
$PUCSORGRIGHT
 10
0.0
 20
0.0
 30
0.0
  9
$PUCSORGFRONT
 10
0.0
 20
0.0
 30
0.0
  9
$PUCSORGBACK
 10
0.0
 20
0.0
 30
0.0
  9
$USERI1
 70
     0
  9
$USERI2
 70
     0
  9
$USERI3
 70
     0
  9
$USERI4
 70
     0
  9
$USERI5
 70
     0
  9
$USERR1
 40
0.0
  9
$USERR2
 40
0.0
  9
$USERR3
 40
0.0
  9
$USERR4
 40
0.0
  9
$USERR5
 40
0.0
  9
$WORLDVIEW
 70
     1
  9
$SHADEDGE
 70
     3
  9
$SHADEDIF
 70
    70
  9
$TILEMODE
 70
     1
  9
$MAXACTVP
 70
    64
  9
$PINSBASE
 10
0.0
 20
0.0
 30
0.0
  9
$PLIMCHECK
 70
     0
  9
$PEXTMIN
 10
0.0
 20
0.0
 30
0.0
  9
$PEXTMAX
 10
0.0
 20
0.0
 30
0.0
  9
$PLIMMIN
 10
0.0
 20
0.0
  9
$PLIMMAX
 10
12.0
 20
9.0
  9
$UNITMODE
 70
     0
  9
$VISRETAIN
 70
     1
  9
$PLINEGEN
 70
     0
  9
$PSLTSCALE
 70
     1
  9
$TREEDEPTH
 70
  3020
  9
$CMLSTYLE
  2
Standard
  9
$CMLJUST
 70
     0
  9
$CMLSCALE
 40
20.0
  9
$PROXYGRAPHICS
 70
     1
  9
$MEASUREMENT
 70
     1
  9
$CELWEIGHT
370
    -1
  9
$ENDCAPS
280
     0
  9
$JOINSTYLE
280
     0
  9
$LWDISPLAY
290
     0
  9
$INSUNITS
 70
     4
  9
$HYPERLINKBASE
  1

  9
$STYLESHEET
  1

  9
$XEDIT
290
     1
  9
$CEPSNTYPE
380
     0
  9
$PSTYLEMODE
290
     1
  9
$FINGERPRINTGUID
  2
{FDEAD578-A652-11D2-9A35-0060089B3A3F}
  9
$VERSIONGUID
  2
{7C9014B7-AA21-4B55-A23D-BE5D04DE016E}
  9
$EXTNAMES
290
     1
  9
$PSVPSCALE
 40
0.0
  9
$OLESTARTUP
290
     0
  0
ENDSEC
  0
SECTION
  2
CLASSES
  0
CLASS
  1
ACDBDICTIONARYWDFLT
  2
AcDbDictionaryWithDefault
  3
ObjectDBX Classes
 90
        0
280
     0
281
     0
  0
CLASS
  1
ACDBPLACEHOLDER
  2
AcDbPlaceHolder
  3
ObjectDBX Classes
 90
        0
280
     0
281
     0
  0
CLASS
  1
LAYOUT
  2
AcDbLayout
  3
ObjectDBX Classes
 90
        0
280
     0
281
     0
  0
CLASS
  1
DICTIONARYVAR
  2
AcDbDictionaryVar
  3
ObjectDBX Classes
 90
        0
280
     0
281
     0
  0
CLASS
  1
MATERIAL
  2
AcDbMaterial
  3
ObjectDBX Classes
 90
        0
280
     0
281
     0
  0
CLASS
  1
SORTENTSTABLE
  2
AcDbSortentsTable
  3
ObjectDBX Classes
 90
    32768
280
     0
281
     0
  0
CLASS
  1
DIMASSOC
  2
AcDbDimAssoc
  3
"AcDbDimAssoc|Product Desc:     AcDim ARX App For Dimension|Company:          Autodesk, Inc.|WEB Address:      www.autodesk.com"
 90
    32768
280
     0
281
     0
  0
ENDSEC
  0
SECTION
  2
TABLES
  0
TABLE
  2
VPORT
  5
8
330
0
100
AcDbSymbolTable
 70
     2
  0
VPORT
  5
3E3
330
8
100
AcDbSymbolTableRecord
100
AcDbViewportTableRecord
  2
*Active
 70
     0
 10
0.0
 20
0.0
 11
1.0
 21
1.0
 12
677.4239457879063
 22
708.0408197906487
 13
0.0
 23
0.0
 14
10.0
 24
10.0
 15
10.0
 25
10.0
 16
0.0
 26
0.0
 36
1.0
 17
0.0
 27
0.0
 37
0.0
 40
1938.537709398396
 41
1.68860353130016
 42
50.0
 43
0.0
 44
0.0
 50
0.0
 51
0.0
 71
     0
 72
  1000
 73
     1
 74
     3
 75
     0
 76
     0
 77
     0
 78
     0
281
     0
 65
     1
110
0.0
120
0.0
130
0.0
111
1.0
121
0.0
131
0.0
112
0.0
122
1.0
132
0.0
 79
     0
146
0.0
  0
ENDTAB
  0
TABLE
  2
LTYPE
  5
5
330
0
100
AcDbSymbolTable
 70
     2
  0
LTYPE
  5
14
330
5
100
AcDbSymbolTableRecord
100
AcDbLinetypeTableRecord
  2
ByBlock
 70
     0
  3

 72
    65
 73
     0
 40
0.0
  0
LTYPE
  5
15
330
5
100
AcDbSymbolTableRecord
100
AcDbLinetypeTableRecord
  2
ByLayer
 70
     0
  3

 72
    65
 73
     0
 40
0.0
  0
LTYPE
  5
16
330
5
100
AcDbSymbolTableRecord
100
AcDbLinetypeTableRecord
  2
Continuous
 70
     0
  3
Solid line
 72
    65
 73
     0
 40
0.0
  0
LTYPE
  5
357
330
5
100
AcDbSymbolTableRecord
100
AcDbLinetypeTableRecord
  2
ACAD_ISO03W100
 70
     0
  3
ISO dash space __    __    __    __    __    __
 72
    65
 73
     2
 40
30.0
 49
12.0
 74
     0
 49
-18.0
 74
     0
  0
ENDTAB
  0
TABLE
  2
LAYER
  5
2
330
0
100
AcDbSymbolTable
 70
     5
  0
LAYER
  5
10
330
2
100
AcDbSymbolTableRecord
100
AcDbLayerTableRecord
  2
0
 70
     0
 62
     2
  6
Continuous
370
    -3
390
F
  0
LAYER
  5
94
330
2
100
AcDbSymbolTableRecord
100
AcDbLayerTableRecord
  2
1
 70
     0
 62
     1
  6
Continuous
370
    -3
390
F
  0
LAYER
  5
95
330
2
100
AcDbSymbolTableRecord
100
AcDbLayerTableRecord
  2
2
 70
     0
 62
     7
  6
Continuous
370
    -3
390
F
  0
LAYER
  5
27F
102
{ACAD_XDICTIONARY
360
280
102
}
330
2
100
AcDbSymbolTableRecord
100
AcDbLayerTableRecord
  2
3
 70
     0
 62
     7
  6
Continuous
370
    -3
390
F
  0
LAYER
  5
375
330
2
100
AcDbSymbolTableRecord
100
AcDbLayerTableRecord
  2
Defpoints
 70
     0
 62
     7
  6
Continuous
290
     0
370
    -3
390
F
  0
ENDTAB
  0
TABLE
  2
STYLE
  5
3
330
0
100
AcDbSymbolTable
 70
     1
  0
STYLE
  5
11
330
3
100
AcDbSymbolTableRecord
100
AcDbTextStyleTableRecord
  2
Standard
 70
     0
 40
0.0
 41
1.0
 50
0.0
 71
     0
 42
2.5
  3
txt
  4

  0
ENDTAB
  0
TABLE
  2
VIEW
  5
6
330
0
100
AcDbSymbolTable
 70
     0
  0
ENDTAB
  0
TABLE
  2
UCS
  5
7
330
0
100
AcDbSymbolTable
 70
     0
  0
ENDTAB
  0
TABLE
  2
APPID
  5
9
330
0
100
AcDbSymbolTable
 70
     1
  0
APPID
  5
12
330
9
100
AcDbSymbolTableRecord
100
AcDbRegAppTableRecord
  2
ACAD
 70
     0
  0
ENDTAB
  0
TABLE
  2
DIMSTYLE
  5
A
330
0
100
AcDbSymbolTable
 70
     1
100
AcDbDimStyleTable
 71
     1
340
27
  0
DIMSTYLE
105
27
330
A
100
AcDbSymbolTableRecord
100
AcDbDimStyleTableRecord
  2
ISO-25
 70
     0
 41
2.5
 42
0.625
 43
3.75
 44
1.25
 73
     0
 74
     0
 77
     1
 78
     8
140
2.5
141
2.5
143
0.03937007874016
147
0.625
171
     3
172
     1
271
     2
272
     2
274
     3
278
    44
283
     0
284
     8
340
11
  0
ENDTAB
  0
TABLE
  2
BLOCK_RECORD
  5
1
330
0
100
AcDbSymbolTable
 70
     3
  0
BLOCK_RECORD
  5
1F
330
1
100
AcDbSymbolTableRecord
100
AcDbBlockTableRecord
  2
*Model_Space
340
22
  0
BLOCK_RECORD
  5
50
330
1
100
AcDbSymbolTableRecord
100
AcDbBlockTableRecord
  2
*Paper_Space
340
51
  0
BLOCK_RECORD
  5
55
330
1
100
AcDbSymbolTableRecord
100
AcDbBlockTableRecord
  2
*Paper_Space0
340
56
  0
BLOCK_RECORD
  5
376
330
1
100
AcDbSymbolTableRecord
100
AcDbBlockTableRecord
  2
*D1
340
0
  0
BLOCK_RECORD
  5
38C
330
1
100
AcDbSymbolTableRecord
100
AcDbBlockTableRecord
  2
*D2
340
0
  0
ENDTAB
  0
ENDSEC
  0
SECTION
  2
BLOCKS
  0
BLOCK
  5
20
330
1F
100
AcDbEntity
  8
0
100
AcDbBlockBegin
  2
*Model_Space
 70
     0
 10
0.0
 20
0.0
 30
0.0
  3
*Model_Space
  1

  0
ENDBLK
  5
21
330
1F
100
AcDbEntity
  8
0
100
AcDbBlockEnd
  0
BLOCK
  5
52
330
50
100
AcDbEntity
 67
     1
  8
0
100
AcDbBlockBegin
  2
*Paper_Space
 70
     0
 10
0.0
 20
0.0
 30
0.0
  3
*Paper_Space
  1

  0
ENDBLK
  5
53
330
50
100
AcDbEntity
 67
     1
  8
0
100
AcDbBlockEnd
  0
BLOCK
  5
57
330
55
100
AcDbEntity
  8
0
100
AcDbBlockBegin
  2
*Paper_Space0
 70
     0
 10
0.0
 20
0.0
 30
0.0
  3
*Paper_Space0
  1

  0
ENDBLK
  5
58
330
55
100
AcDbEntity
  8
0
100
AcDbBlockEnd
  0
BLOCK
  5
37F
330
376
100
AcDbEntity
  8
0
100
AcDbBlockBegin
  2
*D1
 70
     1
 10
0.0
 20
0.0
 30
0.0
  3
*D1
  1

  0
LINE
  5
382
330
376
100
AcDbEntity
  8
2
 62
     0
370
    -2
100
AcDbLine
 10
1183.588978161705
 20
724.1431302377922
 30
0.0
 11
814.5138199508252
 21
607.9803446218983
 31
0.0
  0
LINE
  5
383
330
376
100
AcDbEntity
  8
2
 62
     0
370
    -2
100
AcDbLine
 10
177.0773471902471
 20
407.3534677332344
 30
0.0
 11
174.6926730978137
 21
406.6029149550254
 31
0.0
  0
MTEXT
  5
384
330
376
100
AcDbEntity
  8
2
 62
     0
100
AcDbMText
 10
1175.014603871753
 20
723.6285160541232
 30
0.0
 40
2.5
 41
0.0
 71
     5
 72
     1
  1
\U+2205663,26
 11
0.9538696369733321
 21
0.3002211112836071
 31
0.0
 73
     1
 44
1.0
1001
ACAD
1000
MTEXTBEGIN
1070
    73
1070
     1
1070
    44
1040
1.0
1070
    74
1070
     0
1000
MTEXTEND
  0
LINE
  5
385
330
376
100
AcDbEntity
  8
2
 62
     0
370
    -2
100
AcDbLine
 10
179.4620212826804
 20
408.1040205114434
 30
0.0
 11
812.1291458583918
 21
607.2297918436893
 31
0.0
  0
SOLID
  5
386
330
376
100
AcDbEntity
  8
2
 62
     0
100
AcDbTrace
 10
176.9522550605456
 20
407.7509134153066
 30
0.0
 11
177.2024393199486
 21
406.9560220511621
 31
0.0
 12
179.4620212826804
 22
408.1040205114434
 32
0.0
 13
179.4620212826804
 23
408.1040205114434
 33
0.0
  0
SOLID
  5
387
330
376
100
AcDbEntity
  8
2
 62
     0
100
AcDbTrace
 10
814.3887278211236
 20
608.3777903039707
 30
0.0
 11
814.6389120805267
 21
607.5828989398262
 31
0.0
 12
812.1291458583918
 22
607.2297918436893
 32
0.0
 13
812.1291458583918
 23
607.2297918436893
 33
0.0
  0
POINT
  5
388
330
376
100
AcDbEntity
  8
Defpoints
 62
     0
100
AcDbPoint
 10
812.1291458583918
 20
607.2297918436893
 30
0.0
  0
POINT
  5
389
330
376
100
AcDbEntity
  8
Defpoints
 62
     0
100
AcDbPoint
 10
179.4620212826804
 20
408.1040205114434
 30
0.0
  0
ENDBLK
  5
380
330
376
100
AcDbEntity
  8
0
100
AcDbBlockEnd
  0
BLOCK
  5
396
330
38C
100
AcDbEntity
  8
0
100
AcDbBlockBegin
  2
*D2
 70
     1
 10
0.0
 20
0.0
 30
0.0
  3
*D2
  1

  0
LINE
  5
399
330
38C
100
AcDbEntity
  8
2
 62
     0
370
    -2
100
AcDbLine
 10
20.0
 20
979.3750000000001
 30
0.0
 11
19.99999999999999
 21
866.3537485183097
 31
0.0
  0
LINE
  5
39A
330
38C
100
AcDbEntity
  8
2
 62
     0
370
    -2
100
AcDbLine
 10
980.0
 20
979.3750000000001
 30
0.0
 11
980.0
 21
866.3537485183097
 31
0.0
  0
LINE
  5
39B
330
38C
100
AcDbEntity
  8
2
 62
     0
370
    -2
100
AcDbLine
 10
22.5
 20
867.6037485183096
 30
0.0
 11
977.5
 21
867.6037485183096
 31
0.0
  0
SOLID
  5
39C
330
38C
100
AcDbEntity
  8
2
 62
     0
100
AcDbTrace
 10
22.5
 20
868.0204151849762
 30
0.0
 11
22.5
 21
867.1870818516429
 31
0.0
 12
19.99999999999999
 22
867.6037485183096
 32
0.0
 13
19.99999999999999
 23
867.6037485183096
 33
0.0
  0
SOLID
  5
39D
330
38C
100
AcDbEntity
  8
2
 62
     0
100
AcDbTrace
 10
977.5
 20
868.0204151849762
 30
0.0
 11
977.5
 21
867.1870818516429
 31
0.0
 12
980.0
 22
867.6037485183096
 32
0.0
 13
980.0
 23
867.6037485183096
 33
0.0
  0
MTEXT
  5
39E
330
38C
100
AcDbEntity
  8
2
 62
     0
100
AcDbMText
 10
500.0
 20
869.4787485183097
 30
0.0
 40
2.5
 41
0.0
 71
     5
 72
     1
  1
960
 73
     1
 44
1.0
1001
ACAD
1000
MTEXTBEGIN
1070
    73
1070
     1
1070
    44
1040
1.0
1070
    74
1070
     0
1000
MTEXTEND
  0
POINT
  5
39F
330
38C
100
AcDbEntity
  8
Defpoints
 62
     0
100
AcDbPoint
 10
20.0
 20
980.0
 30
0.0
  0
POINT
  5
3A0
330
38C
100
AcDbEntity
  8
Defpoints
 62
     0
100
AcDbPoint
 10
980.0
 20
980.0
 30
0.0
  0
POINT
  5
3A1
330
38C
100
AcDbEntity
  8
Defpoints
 62
     0
100
AcDbPoint
 10
980.0
 20
867.6037485183096
 30
0.0
  0
ENDBLK
  5
397
330
38C
100
AcDbEntity
  8
0
100
AcDbBlockEnd
  0
ENDSEC
  0
SECTION
  2
ENTITIES
  0
LWPOLYLINE
  5
96
330
1F
100
AcDbEntity
  8
0
 62
     2
100
AcDbPolyline
 90
        4
 70
     1
 43
0.0
 10
0.0
 20
0.0
 10
1000.0
 20
0.0
 10
1000.0
 20
1000.0
 10
0.0
 20
1000.0
  0
LINE
  5
B1
330
1F
100
AcDbEntity
  8
1
 62
     1
100
AcDbLine
 10
20.0
 20
20.0
 30
0.0
 11
980.0
 21
20.0
 31
0.0
  0
LINE
  5
B2
330
1F
100
AcDbEntity
  8
1
 62
     1
100
AcDbLine
 10
980.0
 20
20.0
 30
0.0
 11
980.0
 21
980.0
 31
0.0
  0
LINE
  5
B3
330
1F
100
AcDbEntity
  8
1
 62
     1
100
AcDbLine
 10
980.0
 20
980.0
 30
0.0
 11
20.0
 21
980.0
 31
0.0
  0
LINE
  5
B4
330
1F
100
AcDbEntity
  8
1
 62
     1
100
AcDbLine
 10
20.0
 20
980.0
 30
0.0
 11
20.0
 21
20.0
 31
0.0
  0
ARC
  5
363
330
1F
100
AcDbEntity
  8
2
100
AcDbCircle
 10
1077.281861569145
 20
500.0
 30
0.0
 40
750.6868949021693
100
AcDbArc
 50
140.2646089949142
 51
219.7353910050858
  0
CIRCLE
  5
364
330
1F
100
AcDbEntity
  8
2
  6
ACAD_ISO03W100
100
AcDbCircle
 10
500.0
 20
500.0
 30
0.0
 40
146.8337305555324
  0
CIRCLE
  5
365
330
1F
100
AcDbEntity
  8
2
100
AcDbCircle
 10
500.0
 20
500.0
 30
0.0
 40
479.8713019977639
  0
LINE
  5
3B3
330
1F
100
AcDbEntity
  8
2
100
AcDbLine
 10
62.92710259670093
 20
698.1003504199825
 30
0.0
 11
301.8996495800202
 21
937.0728974033017
 31
0.0
1001
ACAD
1010
0.0
1020
0.0
1030
0.0
  0
LINE
  5
3B4
330
1F
100
AcDbEntity
  8
2
100
AcDbLine
 10
31.91362947112157
 20
605.6958665517831
 30
0.0
 11
394.3041334482204
 21
968.0863705288821
 31
0.0
1001
ACAD
1010
0.0
1020
0.0
1030
0.0
  0
LINE
  5
3B5
330
1F
100
AcDbEntity
  8
2
100
AcDbLine
 10
21.31384538378916
 20
533.7050717218381
 30
0.0
 11
466.2949282781719
 21
978.6861546162208
 31
0.0
1001
ACAD
1010
0.0
1020
0.0
1030
0.0
  0
LINE
  5
3B6
330
1F
100
AcDbEntity
  8
2
100
AcDbLine
 10
20.94923725590979
 20
471.9494528513469
 30
0.0
 11
48.99978440456653
 21
500.0000000000027
 31
0.0
1001
ACAD
1010
0.0
1020
0.0
1030
0.0
  0
LINE
  5
3B7
330
1F
100
AcDbEntity
  8
2
100
AcDbLine
 10
48.99978440456925
 20
500.0000000000055
 30
0.0
 11
431.1393096074625
 21
882.1395252028988
 31
0.0
1001
ACAD
1010
0.0
1020
0.0
1030
0.0
  0
LINE
  5
3B8
330
1F
100
AcDbEntity
  8
2
100
AcDbLine
 10
27.36559335164657
 20
416.9747982044627
 30
0.0
 11
110.3907951471865
 21
500.0000000000027
 31
0.0
1001
ACAD
1010
0.0
1020
0.0
1030
0.0
  0
LINE
  5
3B9
330
1F
100
AcDbEntity
  8
2
100
AcDbLine
 10
110.3907951471865
 20
500.0000000000027
 30
0.0
 11
374.6427529338953
 21
764.2519577867115
 31
0.0
1001
ACAD
1010
0.0
1020
0.0
1030
0.0
  0
LINE
  5
3BA
330
1F
100
AcDbEntity
  8
2
100
AcDbLine
 10
38.89521694210089
 20
367.1134110522971
 30
0.0
 11
171.7818058898019
 21
499.9999999999982
 31
0.0
1001
ACAD
1010
0.0
1020
0.0
1030
0.0
  0
LINE
  5
3BB
330
1F
100
AcDbEntity
  8
2
100
AcDbLine
 10
171.7818058898019
 20
499.9999999999982
 30
0.0
 11
347.4347038632486
 21
675.6528979734448
 31
0.0
1001
ACAD
1010
0.0
1020
0.0
1030
0.0
  0
LINE
  5
3BC
330
1F
100
AcDbEntity
  8
2
100
AcDbLine
 10
54.59434624643745
 20
321.4215296140292
 30
0.0
 11
233.1728166324156
 21
500.0000000000063
 31
0.0
1001
ACAD
1010
0.0
1020
0.0
1030
0.0
  0
LINE
  5
3BD
330
1F
100
AcDbEntity
  8
2
100
AcDbLine
 10
233.1728166324156
 20
500.0000000000063
 30
0.0
 11
333.3028337382229
 21
600.1300171058137
 31
0.0
1001
ACAD
1010
0.0
1020
0.0
1030
0.0
  0
LINE
  5
3BE
330
1F
100
AcDbEntity
  8
2
100
AcDbLine
 10
73.88242700762567
 20
279.3185996325974
 30
0.0
 11
294.563827375031
 21
500.0000000000018
 31
0.0
1001
ACAD
1010
0.0
1020
0.0
1030
0.0
  0
LINE
  5
3BF
330
1F
100
AcDbEntity
  8
2
100
AcDbLine
 10
294.563827375031
 20
500.0000000000018
 30
0.0
 11
327.3095055877802
 21
532.745678212751
 31
0.0
1001
ACAD
1010
0.0
1020
0.0
1030
0.0
  0
LINE
  5
3C0
330
1F
100
AcDbEntity
  8
2
100
AcDbLine
 10
96.38884706774115
 20
240.434008950092
 30
0.0
 11
327.1478908884519
 21
471.1930527708027
 31
0.0
1001
ACAD
1010
0.0
1020
0.0
1030
0.0
  0
LINE
  5
3C1
330
1F
100
AcDbEntity
  8
2
100
AcDbLine
 10
121.8787646450264
 20
204.5329157847655
 30
0.0
 11
331.5176047850036
 21
414.1717559247418
 31
0.0
1001
ACAD
1010
0.0
1020
0.0
1030
0.0
  0
LINE
  5
3C2
330
1F
100
AcDbEntity
  8
2
100
AcDbLine
 10
150.2147729501112
 20
171.4779133472366
 30
0.0
 11
339.6015855132737
 21
360.8647259103991
 31
0.0
1001
ACAD
1010
0.0
1020
0.0
1030
0.0
  0
LINE
  5
3C3
330
1F
100
AcDbEntity
  8
2
100
AcDbLine
 10
181.3373909724187
 20
141.2095206269241
 30
0.0
 11
350.8492069150288
 21
310.7213365695343
 31
0.0
1001
ACAD
1010
0.0
1020
0.0
1030
0.0
  0
LINE
  5
3C4
330
1F
100
AcDbEntity
  8
2
100
AcDbLine
 10
215.2572610635543
 20
113.7383799754398
 30
0.0
 11
364.8713377702216
 21
263.352456682107
 31
0.0
1001
ACAD
1010
0.0
1020
0.0
1030
0.0
  0
LINE
  5
3C5
330
1F
100
AcDbEntity
  8
2
100
AcDbLine
 10
252.0565169172341
 20
89.14662508650691
 30
0.0
 11
381.3839219017145
 21
218.4740300709873
 31
0.0
1001
ACAD
1010
0.0
1020
0.0
1030
0.0
  0
LINE
  5
3C6
330
1F
100
AcDbEntity
  8
2
100
AcDbLine
 10
291.8997533690726
 20
67.59885079573269
 30
0.0
 11
400.1752439618858
 21
175.8743413885459
 31
0.0
1001
ACAD
1010
0.0
1020
0.0
1030
0.0
  0
LINE
  5
3C7
330
1F
100
AcDbEntity
  8
2
100
AcDbLine
 10
335.0582604987949
 20
49.36634718283494
 30
0.0
 11
421.0858366909378
 21
135.3939233749779
 31
0.0
1001
ACAD
1010
0.0
1020
0.0
1030
0.0
  0
LINE
  5
3C8
330
1F
100
AcDbEntity
  8
2
100
AcDbLine
 10
381.9568358960705
 20
34.8739118374906
 30
0.0
 11
443.9956317120596
 21
96.91270765347963
 31
0.0
1001
ACAD
1010
0.0
1020
0.0
1030
0.0
  0
LINE
  5
3C9
330
1F
100
AcDbEntity
  8
2
100
AcDbLine
 10
433.2655770518694
 20
24.79164225068507
 30
0.0
 11
468.8155182588798
 21
60.34158345769447
 31
0.0
1001
ACAD
1010
0.0
1020
0.0
1030
0.0
  0
LINE
  5
3CA
330
1F
100
AcDbEntity
  8
2
100
AcDbLine
 10
490.0958609717263
 20
20.23091542792099
 30
0.0
 11
495.481736677677
 21
25.61679113387163
 31
0.0
1001
ACAD
1010
0.0
1020
0.0
1030
0.0
  0
LINE
  5
3CB
330
1F
100
AcDbEntity
  8
2
100
AcDbLine
 10
62.213692192704
 20
696.5187400159956
 30
0.0
 11
303.481259984007
 21
937.7863078072987
 31
0.0
1001
ACAD
1010
0.0
1020
0.0
1030
0.0
  0
LINE
  5
3CC
330
1F
100
AcDbEntity
  8
2
100
AcDbLine
 10
31.66222445252425
 20
604.5762615331959
 30
0.0
 11
395.4237384668076
 21
968.3377755474793
 31
0.0
1001
ACAD
1010
0.0
1020
0.0
1030
0.0
  0
LINE
  5
3CD
330
1F
100
AcDbEntity
  8
2
100
AcDbLine
 10
21.24906640480731
 20
532.7720927428663
 30
0.0
 11
467.2279072571455
 21
978.7509335952044
 31
0.0
1001
ACAD
1010
0.0
1020
0.0
1030
0.0
  0
LINE
  5
3CE
330
1F
100
AcDbEntity
  8
2
100
AcDbLine
 10
20.99792667690508
 20
471.1299422723514
 30
0.0
 11
49.86798440455913
 21
500.0000000000055
 31
0.0
1001
ACAD
1010
0.0
1020
0.0
1030
0.0
  0
LINE
  5
3CF
330
1F
100
AcDbEntity
  8
2
100
AcDbLine
 10
49.86798440455913
 20
500.0000000000055
 30
0.0
 11
429.8940031017218
 21
880.0260186971682
 31
0.0
1001
ACAD
1010
0.0
1020
0.0
1030
0.0
  0
LINE
  5
3D0
330
1F
100
AcDbEntity
  8
2
100
AcDbLine
 10
27.49582282884421
 20
416.2368276816705
 30
0.0
 11
111.2589951471764
 21
500.0000000000027
 31
0.0
1001
ACAD
1010
0.0
1020
0.0
1030
0.0
  0
LINE
  5
3D1
330
1F
100
AcDbEntity
  8
2
100
AcDbLine
 10
111.2589951471764
 20
500.0000000000027
 30
0.0
 11
374.1219273948409
 21
762.8629322476672
 31
0.0
1001
ACAD
1010
0.0
1020
0.0
1030
0.0
  0
LINE
  5
3D2
330
1F
100
AcDbEntity
  8
2
100
AcDbLine
 10
39.08986272839775
 20
366.4398568386041
 30
0.0
 11
172.6500058897945
 21
500.0000000000008
 31
0.0
1001
ACAD
1010
0.0
1020
0.0
1030
0.0
  0
LINE
  5
3D3
330
1F
100
AcDbEntity
  8
2
100
AcDbLine
 10
172.6500058897945
 20
500.0000000000008
 30
0.0
 11
347.1607708698521
 21
674.5107649800583
 31
0.0
1001
ACAD
1010
0.0
1020
0.0
1030
0.0
  0
LINE
  5
3D4
330
1F
100
AcDbEntity
  8
2
100
AcDbLine
 10
54.84317404602825
 20
320.8021574136292
 30
0.0
 11
234.0410166324054
 21
500.0000000000063
 31
0.0
1001
ACAD
1010
0.0
1020
0.0
1030
0.0
  0
LINE
  5
3D5
330
1F
100
AcDbEntity
  8
2
100
AcDbLine
 10
234.0410166324054
 20
500.0000000000063
 30
0.0
 11
333.1686074804074
 21
599.1275908480083
 31
0.0
1001
ACAD
1010
0.0
1020
0.0
1030
0.0
  0
LINE
  5
3D6
330
1F
100
AcDbEntity
  8
2
100
AcDbLine
 10
74.17896884636866
 20
278.7469414713496
 30
0.0
 11
295.4320273750255
 21
500.0000000000063
 31
0.0
1001
ACAD
1010
0.0
1020
0.0
1030
0.0
  0
LINE
  5
3D7
330
1F
100
AcDbEntity
  8
2
100
AcDbLine
 10
295.4320273750255
 20
500.0000000000063
 30
0.0
 11
327.2704419666506
 21
531.8384145916325
 31
0.0
1001
ACAD
1010
0.0
1020
0.0
1030
0.0
  0
LINE
  5
3D8
330
1F
100
AcDbEntity
  8
2
100
AcDbLine
 10
96.72895600033371
 20
239.9059178826947
 30
0.0
 11
327.1804477495698
 21
470.3574096319307
 31
0.0
1001
ACAD
1010
0.0
1020
0.0
1030
0.0
  0
LINE
  5
3D9
330
1F
100
AcDbEntity
  8
2
100
AcDbLine
 10
122.2598813673539
 20
204.0458325071022
 30
0.0
 11
331.6075802789028
 21
413.393531418651
 31
0.0
1001
ACAD
1010
0.0
1020
0.0
1030
0.0
  0
LINE
  5
3DA
330
1F
100
AcDbEntity
  8
2
100
AcDbLine
 10
150.6355431384272
 20
171.0304835355628
 30
0.0
 11
339.7396685044114
 21
360.1346089015469
 31
0.0
1001
ACAD
1010
0.0
1020
0.0
1030
0.0
  0
LINE
  5
3DB
330
1F
100
AcDbEntity
  8
2
100
AcDbLine
 10
181.7974833654407
 20
140.8014130199562
 30
0.0
 11
351.0289413760674
 21
310.032871030583
 31
0.0
1001
ACAD
1010
0.0
1020
0.0
1030
0.0
  0
LINE
  5
3DC
330
1F
100
AcDbEntity
  8
2
100
AcDbLine
 10
215.7573250766727
 20
113.3702439885683
 30
0.0
 11
365.0880717036316
 21
262.7009906155272
 31
0.0
1001
ACAD
1010
0.0
1020
0.0
1030
0.0
  0
LINE
  5
3DD
330
1F
100
AcDbEntity
  8
2
100
AcDbLine
 10
252.5982665127394
 20
88.8201746820223
 30
0.0
 11
381.6342156301999
 21
217.8561237994827
 31
0.0
1001
ACAD
1010
0.0
1020
0.0
1030
0.0
  0
LINE
  5
3DE
330
1F
100
AcDbEntity
  8
2
100
AcDbLine
 10
292.4862038181172
 20
67.31710124478741
 30
0.0
 11
400.4565150544922
 21
175.2874124811624
 31
0.0
1001
ACAD
1010
0.0
1020
0.0
1030
0.0
  0
LINE
  5
3DF
330
1F
100
AcDbEntity
  8
2
100
AcDbLine
 10
335.6942009938975
 20
49.13408767794772
 30
0.0
 11
421.3961365664317
 21
134.8360232504819
 31
0.0
1001
ACAD
1010
0.0
1020
0.0
1030
0.0
  0
LINE
  5
3E0
330
1F
100
AcDbEntity
  8
2
100
AcDbLine
 10
382.6497357503376
 20
34.69861169176784
 30
0.0
 11
444.3335003308484
 21
96.38237627227864
 31
0.0
1001
ACAD
1010
0.0
1020
0.0
1030
0.0
  0
LINE
  5
3E1
330
1F
100
AcDbEntity
  8
2
100
AcDbLine
 10
434.0274134760602
 20
24.68527867488501
 30
0.0
 11
469.1798878043855
 21
59.83775300321031
 31
0.0
1001
ACAD
1010
0.0
1020
0.0
1030
0.0
  0
LINE
  5
3E2
330
1F
100
AcDbEntity
  8
2
100
AcDbLine
 10
490.9472411671177
 20
20.21409562332246
 30
0.0
 11
495.8718676945572
 21
25.13872215076208
 31
0.0
1001
ACAD
1010
0.0
1020
0.0
1030
0.0
  0
ENDSEC
  0
SECTION
  2
OBJECTS
  0
DICTIONARY
  5
C
330
0
100
AcDbDictionary
281
     1
  3
ACAD_COLOR
350
6B
  3
ACAD_GROUP
350
D
  3
ACAD_LAYOUT
350
1A
  3
ACAD_MATERIAL
350
6A
  3
ACAD_MLINESTYLE
350
17
  3
ACAD_PLOTSETTINGS
350
19
  3
ACAD_PLOTSTYLENAME
350
E
  3
ACDBHEADERROUNDTRIPXREC
350
3E4
  3
AcDbVariableDictionary
350
5E
  0
DICTIONARY
  5
280
330
27F
100
AcDbDictionary
280
     1
281
     1
  3
ACAD_XREC_ROUNDTRIP
360
281
  3
ADSK_XREC_LAYER_RECONCILED
360
282
  0
DICTIONARY
  5
6B
102
{ACAD_REACTORS
330
C
102
}
330
C
100
AcDbDictionary
281
     1
  0
DICTIONARY
  5
D
102
{ACAD_REACTORS
330
C
102
}
330
C
100
AcDbDictionary
281
     1
  0
DICTIONARY
  5
1A
102
{ACAD_REACTORS
330
C
102
}
330
C
100
AcDbDictionary
281
     1
  3
Layout1
350
51
  3
Layout2
350
56
  3
Model
350
22
  0
DICTIONARY
  5
6A
102
{ACAD_REACTORS
330
C
102
}
330
C
100
AcDbDictionary
281
     1
  3
Global
350
10E
  0
DICTIONARY
  5
17
102
{ACAD_REACTORS
330
C
102
}
330
C
100
AcDbDictionary
281
     1
  3
Standard
350
18
  0
DICTIONARY
  5
19
102
{ACAD_REACTORS
330
C
102
}
330
C
100
AcDbDictionary
281
     1
  0
ACDBDICTIONARYWDFLT
  5
E
102
{ACAD_REACTORS
330
C
102
}
330
C
100
AcDbDictionary
281
     1
  3
Normal
350
F
100
AcDbDictionaryWithDefault
340
F
  0
DICTIONARY
  5
3E4
102
{ACAD_REACTORS
330
C
102
}
330
C
100
AcDbDictionary
281
     1
  3
COLORDICT
350
3E6
  3
MATERIALDICT
350
3E5
  0
DICTIONARY
  5
5E
102
{ACAD_REACTORS
330
C
102
}
330
C
100
AcDbDictionary
281
     1
  3
DIMASSOC
350
5F
  3
HIDETEXT
350
63
  3
PROJECTNAME
350
85
  0
XRECORD
  5
281
102
{ACAD_REACTORS
330
280
102
}
330
280
100
AcDbXrecord
280
     1
102
MATERIAL
340
10E
  0
XRECORD
  5
282
102
{ACAD_REACTORS
330
280
102
}
330
280
100
AcDbXrecord
280
     1
290
     1
  0
LAYOUT
  5
51
102
{ACAD_XDICTIONARY
360
3E9
102
}
102
{ACAD_REACTORS
330
1A
102
}
330
1A
100
AcDbPlotSettings
  1

  2
None
  4

  6

 40
0.0
 41
0.0
 42
0.0
 43
0.0
 44
0.0
 45
0.0
 46
0.0
 47
0.0
 48
0.0
 49
0.0
140
0.0
141
0.0
142
1.0
143
1.0
 70
   688
 72
     0
 73
     0
 74
     5
  7

 75
    16
147
1.0
148
0.0
149
0.0
100
AcDbLayout
  1
Layout1
 70
     1
 71
     1
 10
0.0
 20
0.0
 11
12.0
 21
9.0
 12
0.0
 22
0.0
 32
0.0
 14
0.0
 24
0.0
 34
0.0
 15
0.0
 25
0.0
 35
0.0
146
0.0
 13
0.0
 23
0.0
 33
0.0
 16
1.0
 26
0.0
 36
0.0
 17
0.0
 27
1.0
 37
0.0
 76
     0
330
50
  0
LAYOUT
  5
56
102
{ACAD_XDICTIONARY
360
3EB
102
}
102
{ACAD_REACTORS
330
1A
102
}
330
1A
100
AcDbPlotSettings
  1

  2
None
  4

  6

 40
0.0
 41
0.0
 42
0.0
 43
0.0
 44
0.0
 45
0.0
 46
0.0
 47
0.0
 48
0.0
 49
0.0
140
0.0
141
0.0
142
1.0
143
1.0
 70
   688
 72
     0
 73
     0
 74
     5
  7

 75
    16
147
1.0
148
0.0
149
0.0
100
AcDbLayout
  1
Layout2
 70
     1
 71
     2
 10
0.0
 20
0.0
 11
12.0
 21
9.0
 12
0.0
 22
0.0
 32
0.0
 14
0.0
 24
0.0
 34
0.0
 15
0.0
 25
0.0
 35
0.0
146
0.0
 13
0.0
 23
0.0
 33
0.0
 16
1.0
 26
0.0
 36
0.0
 17
0.0
 27
1.0
 37
0.0
 76
     0
330
55
  0
LAYOUT
  5
22
102
{ACAD_XDICTIONARY
360
3E7
102
}
102
{ACAD_REACTORS
330
1A
102
}
330
1A
100
AcDbPlotSettings
  1

  2
none_device
  4
ANSI_A_(8.50_x_11.00_Inches)
  6

 40
6.349999904632567
 41
19.04999923706055
 42
6.350006103515625
 43
19.04998779296875
 44
215.8999938964844
 45
279.3999938964844
 46
0.0
 47
0.0
 48
0.0
 49
0.0
140
0.0
141
0.0
142
1.0
143
78.436453180766
 70
 11952
 72
     0
 73
     1
 74
     0
  7

 75
     0
147
0.0127491741332998
148
0.0
149
0.0
100
AcDbLayout
  1
Model
 70
     1
 71
     0
 10
0.0
 20
0.0
 11
12.0
 21
9.0
 12
0.0
 22
0.0
 32
0.0
 14
0.0
 24
0.0
 34
0.0
 15
0.0
 25
0.0
 35
0.0
146
0.0
 13
0.0
 23
0.0
 33
0.0
 16
1.0
 26
0.0
 36
0.0
 17
0.0
 27
1.0
 37
0.0
 76
     0
330
1F
  0
MATERIAL
  5
10E
330
6A
100
AcDbMaterial
  1
Global
 72
     0
 73
     2
 43
0.0008202099737533
 43
0.0
 43
0.0
 43
0.0
 43
0.0
 43
0.0008202099737533
 43
0.0
 43
0.0
 43
0.0
 43
0.0
 43
1.0
 43
0.0
 43
0.0
 43
0.0
 43
0.0
 43
1.0
 77
     0
 78
     2
 47
0.0008202099737533
 47
0.0
 47
0.0
 47
0.0
 47
0.0
 47
0.0008202099737533
 47
0.0
 47
0.0
 47
0.0
 47
0.0
 47
1.0
 47
0.0
 47
0.0
 47
0.0
 47
0.0
 47
1.0
171
     0
172
     2
 49
0.0008202099737533
 49
0.0
 49
0.0
 49
0.0
 49
0.0
 49
0.0008202099737533
 49
0.0
 49
0.0
 49
0.0
 49
0.0
 49
1.0
 49
0.0
 49
0.0
 49
0.0
 49
0.0
 49
1.0
175
     0
176
     2
142
0.0008202099737533
142
0.0
142
0.0
142
0.0
142
0.0
142
0.0008202099737533
142
0.0
142
0.0
142
0.0
142
0.0
142
1.0
142
0.0
142
0.0
142
0.0
142
0.0
142
1.0
179
     0
270
     2
144
0.0008202099737533
144
0.0
144
0.0
144
0.0
144
0.0
144
0.0008202099737533
144
0.0
144
0.0
144
0.0
144
0.0
144
1.0
144
0.0
144
0.0
144
0.0
144
0.0
144
1.0
274
     2
147
0.0008202099737533
147
0.0
147
0.0
147
0.0
147
0.0
147
0.0008202099737533
147
0.0
147
0.0
147
0.0
147
0.0
147
1.0
147
0.0
147
0.0
147
0.0
147
0.0
147
1.0
  0
MLINESTYLE
  5
18
102
{ACAD_REACTORS
330
17
102
}
330
17
100
AcDbMlineStyle
  2
STANDARD
 70
     0
  3

 62
   256
 51
90.0
 52
90.0
 71
     2
 49
0.5
 62
   256
  6
BYLAYER
 49
-0.5
 62
   256
  6
BYLAYER
  0
ACDBPLACEHOLDER
  5
F
102
{ACAD_REACTORS
330
E
102
}
330
E
  0
XRECORD
  5
3E6
102
{ACAD_REACTORS
330
3E4
102
}
330
3E4
100
AcDbXrecord
280
     1
340
6B
  0
XRECORD
  5
3E5
102
{ACAD_REACTORS
330
3E4
102
}
330
3E4
100
AcDbXrecord
280
     1
340
6A
  0
DICTIONARYVAR
  5
5F
102
{ACAD_REACTORS
330
5E
102
}
330
5E
100
DictionaryVariables
280
     0
  1
2
  0
DICTIONARYVAR
  5
63
102
{ACAD_REACTORS
330
5E
102
}
330
5E
100
DictionaryVariables
280
     0
  1
1
  0
DICTIONARYVAR
  5
85
102
{ACAD_REACTORS
330
5E
102
}
330
5E
100
DictionaryVariables
280
     0
  1

  0
DICTIONARY
  5
3E9
330
51
100
AcDbDictionary
280
     1
281
     1
  3
ACAD_XREC_ROUNDTRIP
360
3EA
  0
DICTIONARY
  5
3EB
330
56
100
AcDbDictionary
280
     1
281
     1
  3
ACAD_XREC_ROUNDTRIP
360
3EC
  0
DICTIONARY
  5
3E7
330
22
100
AcDbDictionary
280
     1
281
     1
  3
ACAD_XREC_ROUNDTRIP
360
3E8
  0
XRECORD
  5
3EA
102
{ACAD_REACTORS
330
3E9
102
}
330
3E9
100
AcDbXrecord
280
     1
102
SHADEPLOT
 70
     0
102
SHADEPLOTRESLEVEL
 70
     2
102
SHADEPLOTCUSTOMDPI
 70
   300
  0
XRECORD
  5
3EC
102
{ACAD_REACTORS
330
3EB
102
}
330
3EB
100
AcDbXrecord
280
     1
102
SHADEPLOT
 70
     0
102
SHADEPLOTRESLEVEL
 70
     2
102
SHADEPLOTCUSTOMDPI
 70
   300
  0
XRECORD
  5
3E8
102
{ACAD_REACTORS
330
3E7
102
}
330
3E7
100
AcDbXrecord
280
     1
102
SHADEPLOT
 70
     0
102
SHADEPLOTRESLEVEL
 70
     2
102
SHADEPLOTCUSTOMDPI
 70
   300
  0
ENDSEC
  0
EOF
