  0
SECTION
  2
HEADER
  9
$ACADVER
  1
AC1015
  9
$ACADMAINTVER
 70
    20
  9
$DWGCODEPAGE
  3
ANSI_936
  9
$INSBASE
 10
0.0
 20
0.0
 30
0.0
  9
$EXTMIN
 10
0.0000026361085474
 20
0.0000184460077435
 30
0.0
  9
$EXTMAX
 10
1000.000002636108
 20
1000.000018446008
 30
0.0
  9
$LIMMIN
 10
0.0
 20
0.0
  9
$LIMMAX
 10
420.0
 20
297.0
  9
$ORTHOMODE
 70
     0
  9
$REGENMODE
 70
     1
  9
$FILLMODE
 70
     1
  9
$QTEXTMODE
 70
     0
  9
$MIRRTEXT
 70
     0
  9
$LTSCALE
 40
1.0
  9
$ATTMODE
 70
     1
  9
$TEXTSIZE
 40
2.5
  9
$TRACEWID
 40
1.0
  9
$TEXTSTYLE
  7
Standard
  9
$CLAYER
  8
2
  9
$CELTYPE
  6
ByLayer
  9
$CECOLOR
 62
   256
  9
$CELTSCALE
 40
1.0
  9
$DISPSILH
 70
     0
  9
$DIMSCALE
 40
1.0
  9
$DIMASZ
 40
2.5
  9
$DIMEXO
 40
0.625
  9
$DIMDLI
 40
3.75
  9
$DIMRND
 40
0.0
  9
$DIMDLE
 40
0.0
  9
$DIMEXE
 40
1.25
  9
$DIMTP
 40
0.0
  9
$DIMTM
 40
0.0
  9
$DIMTXT
 40
2.5
  9
$DIMCEN
 40
2.5
  9
$DIMTSZ
 40
0.0
  9
$DIMTOL
 70
     0
  9
$DIMLIM
 70
     0
  9
$DIMTIH
 70
     0
  9
$DIMTOH
 70
     0
  9
$DIMSE1
 70
     0
  9
$DIMSE2
 70
     0
  9
$DIMTAD
 70
     1
  9
$DIMZIN
 70
     8
  9
$DIMBLK
  1

  9
$DIMASO
 70
     1
  9
$DIMSHO
 70
     1
  9
$DIMPOST
  1

  9
$DIMAPOST
  1

  9
$DIMALT
 70
     0
  9
$DIMALTD
 70
     3
  9
$DIMALTF
 40
0.03937007874016
  9
$DIMLFAC
 40
1.0
  9
$DIMTOFL
 70
     1
  9
$DIMTVP
 40
0.0
  9
$DIMTIX
 70
     0
  9
$DIMSOXD
 70
     0
  9
$DIMSAH
 70
     0
  9
$DIMBLK1
  1

  9
$DIMBLK2
  1

  9
$DIMSTYLE
  2
ISO-25
  9
$DIMCLRD
 70
     0
  9
$DIMCLRE
 70
     0
  9
$DIMCLRT
 70
     0
  9
$DIMTFAC
 40
1.0
  9
$DIMGAP
 40
0.625
  9
$DIMJUST
 70
     0
  9
$DIMSD1
 70
     0
  9
$DIMSD2
 70
     0
  9
$DIMTOLJ
 70
     0
  9
$DIMTZIN
 70
     8
  9
$DIMALTZ
 70
     0
  9
$DIMALTTZ
 70
     0
  9
$DIMUPT
 70
     0
  9
$DIMDEC
 70
     2
  9
$DIMTDEC
 70
     2
  9
$DIMALTU
 70
     2
  9
$DIMALTTD
 70
     3
  9
$DIMTXSTY
  7
Standard
  9
$DIMAUNIT
 70
     0
  9
$DIMADEC
 70
     0
  9
$DIMALTRND
 40
0.0
  9
$DIMAZIN
 70
     0
  9
$DIMDSEP
 70
    44
  9
$DIMATFIT
 70
     3
  9
$DIMFRAC
 70
     0
  9
$DIMLDRBLK
  1

  9
$DIMLUNIT
 70
     2
  9
$DIMLWD
 70
    -2
  9
$DIMLWE
 70
    -2
  9
$DIMTMOVE
 70
     0
  9
$LUNITS
 70
     2
  9
$LUPREC
 70
     4
  9
$SKETCHINC
 40
1.0
  9
$FILLETRAD
 40
0.0
  9
$AUNITS
 70
     0
  9
$AUPREC
 70
     0
  9
$MENU
  1
.
  9
$ELEVATION
 40
0.0
  9
$PELEVATION
 40
0.0
  9
$THICKNESS
 40
0.0
  9
$LIMCHECK
 70
     0
  9
$CHAMFERA
 40
0.0
  9
$CHAMFERB
 40
0.0
  9
$CHAMFERC
 40
0.0
  9
$CHAMFERD
 40
0.0
  9
$SKPOLY
 70
     0
  9
$TDCREATE
 40
2455505.725807523
  9
$TDUCREATE
 40
2455505.392474190
  9
$TDUPDATE
 40
2457095.672356401
  9
$TDUUPDATE
 40
2457095.339023067
  9
$TDINDWG
 40
0.0511632292
  9
$TDUSRTIMER
 40
0.0511629398
  9
$USRTIMER
 70
     1
  9
$ANGBASE
 50
0.0
  9
$ANGDIR
 70
     0
  9
$PDMODE
 70
     0
  9
$PDSIZE
 40
0.0
  9
$PLINEWID
 40
0.0
  9
$SPLFRAME
 70
     0
  9
$SPLINETYPE
 70
     6
  9
$SPLINESEGS
 70
     8
  9
$HANDSEED
  5
28B
  9
$SURFTAB1
 70
     6
  9
$SURFTAB2
 70
     6
  9
$SURFTYPE
 70
     6
  9
$SURFU
 70
     6
  9
$SURFV
 70
     6
  9
$UCSBASE
  2

  9
$UCSNAME
  2

  9
$UCSORG
 10
0.0
 20
0.0
 30
0.0
  9
$UCSXDIR
 10
1.0
 20
0.0
 30
0.0
  9
$UCSYDIR
 10
0.0
 20
1.0
 30
0.0
  9
$UCSORTHOREF
  2

  9
$UCSORTHOVIEW
 70
     0
  9
$UCSORGTOP
 10
0.0
 20
0.0
 30
0.0
  9
$UCSORGBOTTOM
 10
0.0
 20
0.0
 30
0.0
  9
$UCSORGLEFT
 10
0.0
 20
0.0
 30
0.0
  9
$UCSORGRIGHT
 10
0.0
 20
0.0
 30
0.0
  9
$UCSORGFRONT
 10
0.0
 20
0.0
 30
0.0
  9
$UCSORGBACK
 10
0.0
 20
0.0
 30
0.0
  9
$PUCSBASE
  2

  9
$PUCSNAME
  2

  9
$PUCSORG
 10
0.0
 20
0.0
 30
0.0
  9
$PUCSXDIR
 10
1.0
 20
0.0
 30
0.0
  9
$PUCSYDIR
 10
0.0
 20
1.0
 30
0.0
  9
$PUCSORTHOREF
  2

  9
$PUCSORTHOVIEW
 70
     0
  9
$PUCSORGTOP
 10
0.0
 20
0.0
 30
0.0
  9
$PUCSORGBOTTOM
 10
0.0
 20
0.0
 30
0.0
  9
$PUCSORGLEFT
 10
0.0
 20
0.0
 30
0.0
  9
$PUCSORGRIGHT
 10
0.0
 20
0.0
 30
0.0
  9
$PUCSORGFRONT
 10
0.0
 20
0.0
 30
0.0
  9
$PUCSORGBACK
 10
0.0
 20
0.0
 30
0.0
  9
$USERI1
 70
     0
  9
$USERI2
 70
     0
  9
$USERI3
 70
     0
  9
$USERI4
 70
     0
  9
$USERI5
 70
     0
  9
$USERR1
 40
0.0
  9
$USERR2
 40
0.0
  9
$USERR3
 40
0.0
  9
$USERR4
 40
0.0
  9
$USERR5
 40
0.0
  9
$WORLDVIEW
 70
     1
  9
$SHADEDGE
 70
     3
  9
$SHADEDIF
 70
    70
  9
$TILEMODE
 70
     1
  9
$MAXACTVP
 70
    64
  9
$PINSBASE
 10
0.0
 20
0.0
 30
0.0
  9
$PLIMCHECK
 70
     0
  9
$PEXTMIN
 10
0.0
 20
0.0
 30
0.0
  9
$PEXTMAX
 10
0.0
 20
0.0
 30
0.0
  9
$PLIMMIN
 10
0.0
 20
0.0
  9
$PLIMMAX
 10
12.0
 20
9.0
  9
$UNITMODE
 70
     0
  9
$VISRETAIN
 70
     1
  9
$PLINEGEN
 70
     0
  9
$PSLTSCALE
 70
     1
  9
$TREEDEPTH
 70
  3020
  9
$CMLSTYLE
  2
Standard
  9
$CMLJUST
 70
     0
  9
$CMLSCALE
 40
20.0
  9
$PROXYGRAPHICS
 70
     1
  9
$MEASUREMENT
 70
     1
  9
$CELWEIGHT
370
    -1
  9
$ENDCAPS
280
     0
  9
$JOINSTYLE
280
     0
  9
$LWDISPLAY
290
     0
  9
$INSUNITS
 70
     4
  9
$HYPERLINKBASE
  1

  9
$STYLESHEET
  1

  9
$XEDIT
290
     1
  9
$CEPSNTYPE
380
     0
  9
$PSTYLEMODE
290
     1
  9
$FINGERPRINTGUID
  2
{FDEAD578-A652-11D2-9A35-0060089B3A3F}
  9
$VERSIONGUID
  2
{93F841A0-1953-4868-8FEB-D563FE5B2F18}
  9
$EXTNAMES
290
     1
  9
$PSVPSCALE
 40
0.0
  9
$OLESTARTUP
290
     0
  0
ENDSEC
  0
SECTION
  2
CLASSES
  0
CLASS
  1
ACDBDICTIONARYWDFLT
  2
AcDbDictionaryWithDefault
  3
ObjectDBX Classes
 90
        0
280
     0
281
     0
  0
CLASS
  1
ACDBPLACEHOLDER
  2
AcDbPlaceHolder
  3
ObjectDBX Classes
 90
        0
280
     0
281
     0
  0
CLASS
  1
LAYOUT
  2
AcDbLayout
  3
ObjectDBX Classes
 90
        0
280
     0
281
     0
  0
CLASS
  1
DICTIONARYVAR
  2
AcDbDictionaryVar
  3
ObjectDBX Classes
 90
        0
280
     0
281
     0
  0
ENDSEC
  0
SECTION
  2
TABLES
  0
TABLE
  2
VPORT
  5
8
330
0
100
AcDbSymbolTable
 70
     3
  0
VPORT
  5
281
330
8
100
AcDbSymbolTableRecord
100
AcDbViewportTableRecord
  2
*Active
 70
     0
 10
0.0
 20
0.0
 11
1.0
 21
1.0
 12
568.6090963202754
 22
486.3153564765484
 13
0.0
 23
0.0
 14
10.0
 24
10.0
 15
10.0
 25
10.0
 16
0.0
 26
0.0
 36
1.0
 17
0.0
 27
0.0
 37
0.0
 40
1126.528052045221
 41
1.68860353130016
 42
50.0
 43
0.0
 44
0.0
 50
0.0
 51
0.0
 71
     0
 72
  1000
 73
     1
 74
     3
 75
     0
 76
     0
 77
     0
 78
     0
281
     0
 65
     1
110
0.0
120
0.0
130
0.0
111
1.0
121
0.0
131
0.0
112
0.0
122
1.0
132
0.0
 79
     0
146
0.0
  0
ENDTAB
  0
TABLE
  2
LTYPE
  5
5
330
0
100
AcDbSymbolTable
 70
     1
  0
LTYPE
  5
14
330
5
100
AcDbSymbolTableRecord
100
AcDbLinetypeTableRecord
  2
ByBlock
 70
     0
  3

 72
    65
 73
     0
 40
0.0
  0
LTYPE
  5
15
330
5
100
AcDbSymbolTableRecord
100
AcDbLinetypeTableRecord
  2
ByLayer
 70
     0
  3

 72
    65
 73
     0
 40
0.0
  0
LTYPE
  5
16
330
5
100
AcDbSymbolTableRecord
100
AcDbLinetypeTableRecord
  2
Continuous
 70
     0
  3
Solid line
 72
    65
 73
     0
 40
0.0
  0
ENDTAB
  0
TABLE
  2
LAYER
  5
2
330
0
100
AcDbSymbolTable
 70
     4
  0
LAYER
  5
10
330
2
100
AcDbSymbolTableRecord
100
AcDbLayerTableRecord
  2
0
 70
     0
 62
     2
  6
Continuous
370
    -3
390
F
  0
LAYER
  5
94
330
2
100
AcDbSymbolTableRecord
100
AcDbLayerTableRecord
  2
1
 70
     0
 62
     1
  6
Continuous
370
    -3
390
F
  0
LAYER
  5
95
330
2
100
AcDbSymbolTableRecord
100
AcDbLayerTableRecord
  2
2
 70
     0
 62
     7
  6
Continuous
370
    -3
390
F
  0
LAYER
  5
10E
330
2
100
AcDbSymbolTableRecord
100
AcDbLayerTableRecord
  2
3
 70
     0
 62
     7
  6
Continuous
370
    -3
390
F
  0
ENDTAB
  0
TABLE
  2
STYLE
  5
3
330
0
100
AcDbSymbolTable
 70
     1
  0
STYLE
  5
11
330
3
100
AcDbSymbolTableRecord
100
AcDbTextStyleTableRecord
  2
Standard
 70
     0
 40
0.0
 41
1.0
 50
0.0
 71
     0
 42
2.5
  3
txt
  4

  0
ENDTAB
  0
TABLE
  2
VIEW
  5
6
330
0
100
AcDbSymbolTable
 70
     0
  0
ENDTAB
  0
TABLE
  2
UCS
  5
7
330
0
100
AcDbSymbolTable
 70
     0
  0
ENDTAB
  0
TABLE
  2
APPID
  5
9
330
0
100
AcDbSymbolTable
 70
     1
  0
APPID
  5
12
330
9
100
AcDbSymbolTableRecord
100
AcDbRegAppTableRecord
  2
ACAD
 70
     0
  0
ENDTAB
  0
TABLE
  2
DIMSTYLE
  5
A
330
0
100
AcDbSymbolTable
 70
     1
100
AcDbDimStyleTable
 71
     0
  0
DIMSTYLE
105
27
330
A
100
AcDbSymbolTableRecord
100
AcDbDimStyleTableRecord
  2
ISO-25
 70
     0
 41
2.5
 42
0.625
 43
3.75
 44
1.25
 73
     0
 74
     0
 77
     1
 78
     8
140
2.5
141
2.5
143
0.03937007874016
147
0.625
171
     3
172
     1
271
     2
272
     2
274
     3
278
    44
283
     0
284
     8
340
11
  0
ENDTAB
  0
TABLE
  2
BLOCK_RECORD
  5
1
330
0
100
AcDbSymbolTable
 70
     1
  0
BLOCK_RECORD
  5
1F
330
1
100
AcDbSymbolTableRecord
100
AcDbBlockTableRecord
  2
*Model_Space
340
22
  0
BLOCK_RECORD
  5
50
330
1
100
AcDbSymbolTableRecord
100
AcDbBlockTableRecord
  2
*Paper_Space
340
51
  0
BLOCK_RECORD
  5
55
330
1
100
AcDbSymbolTableRecord
100
AcDbBlockTableRecord
  2
*Paper_Space0
340
56
  0
ENDTAB
  0
ENDSEC
  0
SECTION
  2
BLOCKS
  0
BLOCK
  5
20
330
1F
100
AcDbEntity
  8
0
100
AcDbBlockBegin
  2
*Model_Space
 70
     0
 10
0.0
 20
0.0
 30
0.0
  3
*Model_Space
  1

  0
ENDBLK
  5
21
330
1F
100
AcDbEntity
  8
0
100
AcDbBlockEnd
  0
BLOCK
  5
52
330
50
100
AcDbEntity
 67
     1
  8
0
100
AcDbBlockBegin
  2
*Paper_Space
 70
     0
 10
0.0
 20
0.0
 30
0.0
  3
*Paper_Space
  1

  0
ENDBLK
  5
53
330
50
100
AcDbEntity
 67
     1
  8
0
100
AcDbBlockEnd
  0
BLOCK
  5
57
330
55
100
AcDbEntity
  8
0
100
AcDbBlockBegin
  2
*Paper_Space0
 70
     0
 10
0.0
 20
0.0
 30
0.0
  3
*Paper_Space0
  1

  0
ENDBLK
  5
58
330
55
100
AcDbEntity
  8
0
100
AcDbBlockEnd
  0
ENDSEC
  0
SECTION
  2
ENTITIES
  0
LINE
  5
1B6
330
1F
100
AcDbEntity
  8
3
100
AcDbLine
 10
485.6495422943588
 20
146.3222886195441
 30
0.0
 11
500.3602939197478
 21
146.3222886195441
 31
0.0
  0
LINE
  5
1B7
330
1F
100
AcDbEntity
  8
3
100
AcDbLine
 10
485.3590971555195
 20
164.526734595884
 30
0.0
 11
514.1662129490057
 21
164.0671278186641
 31
0.0
  0
LINE
  5
1B8
330
1F
100
AcDbEntity
  8
3
100
AcDbLine
 10
490.9854231186523
 20
188.2980257087652
 30
0.0
 11
509.5526403459098
 21
188.2980257087652
 31
0.0
  0
LINE
  5
1B9
330
1F
100
AcDbEntity
  8
3
100
AcDbLine
 10
500.3602939197478
 20
205.9706189386625
 30
0.0
 11
514.8310839637458
 21
205.7397428862395
 31
0.0
  0
LINE
  5
1BA
330
1F
100
AcDbEntity
  8
3
100
AcDbLine
 10
484.4396396077276
 20
222.1562591353874
 30
0.0
 11
500.3602939197478
 21
222.1562591353874
 31
0.0
  0
LINE
  5
1BB
330
1F
100
AcDbEntity
  8
3
100
AcDbLine
 10
500.3602939197478
 20
246.3799549220036
 30
0.0
 11
515.4756357616186
 21
246.1387952862963
 31
0.0
  0
LINE
  5
1BC
330
1F
100
AcDbEntity
  8
3
100
AcDbLine
 10
483.7431196892178
 20
265.8125560818072
 30
0.0
 11
515.7813679301634
 21
265.301397792747
 31
0.0
  0
LINE
  5
1BD
330
1F
100
AcDbEntity
  8
3
100
AcDbLine
 10
493.2744583115222
 20
290.0430629167431
 30
0.0
 11
500.3602939197478
 21
290.0430629167431
 31
0.0
  0
LINE
  5
1BE
330
1F
100
AcDbEntity
  8
3
100
AcDbLine
 10
489.7322885582108
 20
389.7909902973564
 30
0.0
 11
509.7935126766716
 21
389.7909902973564
 31
0.0
  0
LINE
  5
1BF
330
1F
100
AcDbEntity
  8
3
100
AcDbLine
 10
488.5509668664604
 20
417.5721290732324
 30
0.0
 11
509.7923157954875
 21
417.5721290732324
 31
0.0
  0
LINE
  5
1C0
330
1F
100
AcDbEntity
  8
3
100
AcDbLine
 10
500.3602939197478
 20
487.8262274017932
 30
0.0
 11
508.6074034603807
 21
487.8262274017932
 31
0.0
  0
LINE
  5
1C1
330
1F
100
AcDbEntity
  8
3
100
AcDbLine
 10
487.3660545313538
 20
468.3702633995953
 30
0.0
 11
510.9673538611685
 21
468.3702633995953
 31
0.0
  0
LINE
  5
1C2
330
1F
100
AcDbEntity
  8
3
100
AcDbLine
 10
479.8072278642636
 20
512.5053751863934
 30
0.0
 11
500.3602939197478
 21
512.5053751863934
 31
0.0
  0
LINE
  5
1C3
330
1F
100
AcDbEntity
  8
3
100
AcDbLine
 10
478.3775099456832
 20
602.1168684752709
 30
0.0
 11
509.7863313897632
 21
602.1168684752709
 31
0.0
  0
LWPOLYLINE
  5
1C4
330
1F
100
AcDbEntity
  8
3
100
AcDbPolyline
 90
       11
 70
     0
 43
0.0
 10
439.7580123831532
 20
350.2097581184759
 10
444.0876998965284
 20
352.1974871037892
 10
448.3719659952416
 20
350.1111449371281
 10
448.3719659952416
 20
350.1111449371281
 10
448.7893782951309
 20
346.5910093091455
 10
447.664010797053
 20
343.7846232331083
 10
445.6846686008394
 20
342.8940181165207
 10
443.1936597144812
 20
343.1960306296409
 10
440.7016007966881
 20
344.2008344922199
 10
438.6675747381467
 20
346.1091734529093
 10
439.7580123831532
 20
350.2097581184759
  0
LWPOLYLINE
  5
1C5
330
1F
100
AcDbEntity
  8
3
100
AcDbPolyline
 90
       11
 70
     0
 43
0.0
 10
444.063253711635
 20
356.9219977965967
 10
446.6610662196585
 20
358.1146351877846
 10
449.2316258788874
 20
356.8628298877864
 10
449.2316258788874
 20
356.8628298877864
 10
449.4820732588193
 20
354.7507485109953
 10
448.8068527599716
 20
353.0669168653729
 10
447.619247442246
 20
352.5325537954269
 10
446.12464211043
 20
352.7137613032939
 10
444.6294067597559
 20
353.316643620844
 10
443.4089911246287
 20
354.4616469972576
 10
444.063253711635
 20
356.9219977965967
  0
LWPOLYLINE
  5
1C6
330
1F
100
AcDbEntity
  8
3
100
AcDbPolyline
 90
       11
 70
     0
 43
0.0
 10
503.1675966697667
 20
320.4427554223766
 10
505.7654091777903
 20
321.6353928135647
 10
508.335968837019
 20
320.3835875135663
 10
508.335968837019
 20
320.3835875135663
 10
508.586416216951
 20
318.2715061367753
 10
507.9111957181036
 20
316.5876744911527
 10
506.7235904003779
 20
316.0533114212069
 10
505.2289850685621
 20
316.2345189290739
 10
503.733749717888
 20
316.837401246624
 10
502.5133340827609
 20
317.9824046230377
 10
503.1675966697667
 20
320.4427554223766
  0
LWPOLYLINE
  5
1C7
330
1F
100
AcDbEntity
  8
3
100
AcDbPolyline
 90
       11
 70
     0
 43
0.0
 10
538.9727164413943
 20
324.4492846483808
 10
541.5705289494177
 20
325.6419220395685
 10
544.1410886086465
 20
324.3901167395703
 10
544.1410886086465
 20
324.3901167395703
 10
544.3915359885784
 20
322.2780353627791
 10
543.7163154897307
 20
320.5942037171567
 10
542.5287101720049
 20
320.0598406472107
 10
541.0341048401893
 20
320.2410481550779
 10
539.5388694895151
 20
320.843930472628
 10
538.3184538543878
 20
321.9889338490415
 10
538.9727164413943
 20
324.4492846483808
  0
LWPOLYLINE
  5
1C8
330
1F
100
AcDbEntity
  8
3
100
AcDbPolyline
 90
       11
 70
     0
 43
0.0
 10
520.9421896028465
 20
327.480925383242
 10
523.5400021108699
 20
328.67356277443
 10
526.1105617700987
 20
327.4217574744316
 10
526.1105617700987
 20
327.4217574744316
 10
526.3610091500306
 20
325.3096760976406
 10
525.6857886511831
 20
323.6258444520182
 10
524.4981833334573
 20
323.0914813820722
 10
523.0035780016415
 20
323.2726888899393
 10
521.5083426509672
 20
323.8755712074894
 10
520.2879270158403
 20
325.020574583903
 10
520.9421896028465
 20
327.480925383242
  0
LWPOLYLINE
  5
1C9
330
1F
100
AcDbEntity
  8
3
100
AcDbPolyline
 90
       11
 70
     0
 43
0.0
 10
515.3301118749907
 20
320.0974716575055
 10
519.6597993883658
 20
322.0852006428186
 10
523.9440654870792
 20
319.9988584761575
 10
523.9440654870792
 20
319.9988584761575
 10
524.3614777869684
 20
316.4787228481753
 10
523.2361102888904
 20
313.6723367721377
 10
521.256768092677
 20
312.7817316555505
 10
518.7657592063185
 20
313.0837441686702
 10
516.2737002885255
 20
314.0885480312497
 10
514.2396742299843
 20
315.996886991939
 10
515.3301118749907
 20
320.0974716575055
  0
LWPOLYLINE
  5
1CA
330
1F
100
AcDbEntity
  8
3
100
AcDbPolyline
 90
       11
 70
     0
 43
0.0
 10
510.767960008921
 20
331.3328496403699
 10
515.097647522296
 20
333.3205786256831
 10
519.3819136210095
 20
331.2342364590219
 10
519.3819136210095
 20
331.2342364590219
 10
519.7993259208987
 20
327.7141008310396
 10
518.6739584228207
 20
324.9077147550021
 10
516.6946162266071
 20
324.0171096384148
 10
514.2036073402489
 20
324.3191221515346
 10
511.7115484224558
 20
325.3239260141139
 10
509.6775223639145
 20
327.2322649748033
 10
510.767960008921
 20
331.3328496403699
  0
LWPOLYLINE
  5
1CB
330
1F
100
AcDbEntity
  8
3
100
AcDbPolyline
 90
       11
 70
     0
 43
0.0
 10
532.3656242815061
 20
331.4707382293423
 10
536.6953117948813
 20
333.4584672146554
 10
540.9795778935946
 20
331.3721250479944
 10
540.9795778935946
 20
331.3721250479944
 10
541.396990193484
 20
327.851989420012
 10
540.2716226954059
 20
325.0456033439746
 10
538.2922804991921
 20
324.1549982273872
 10
535.8012716128341
 20
324.4570107405071
 10
533.3092126950409
 20
325.4618146030865
 10
531.2751866364996
 20
327.3701535637759
 10
532.3656242815061
 20
331.4707382293423
  0
LWPOLYLINE
  5
1CC
330
1F
100
AcDbEntity
  8
3
100
AcDbPolyline
 90
       11
 70
     0
 43
0.0
 10
541.5300343070517
 20
338.1769569599542
 10
545.8597218204269
 20
340.1646859452672
 10
550.1439879191401
 20
338.0783437786062
 10
550.1439879191401
 20
338.0783437786062
 10
550.5614002190297
 20
334.558208150624
 10
549.4360327209514
 20
331.7518220745865
 10
547.4566905247378
 20
330.8612169579991
 10
544.9656816383797
 20
331.163229471119
 10
542.4736227205867
 20
332.1680333336982
 10
540.4395966620452
 20
334.0763722943878
 10
541.5300343070517
 20
338.1769569599542
  0
LWPOLYLINE
  5
1CD
330
1F
100
AcDbEntity
  8
3
100
AcDbPolyline
 90
       11
 70
     0
 43
0.0
 10
544.9344817373569
 20
344.9996796054778
 10
547.5322942453801
 20
346.1923169966657
 10
550.1028539046093
 20
344.9405116966677
 10
550.1028539046093
 20
344.9405116966677
 10
550.3533012845413
 20
342.8284303198766
 10
549.6780807856934
 20
341.1445986742541
 10
548.4904754679677
 20
340.6102356043083
 10
546.995870136152
 20
340.7914431121753
 10
545.5006347854779
 20
341.3943254297251
 10
544.2802191503507
 20
342.539328806139
 10
544.9344817373569
 20
344.9996796054778
  0
LWPOLYLINE
  5
1CE
330
1F
100
AcDbEntity
  8
3
100
AcDbPolyline
 90
       11
 70
     0
 43
0.0
 10
553.3351666858
 20
351.1792978980443
 10
557.6648541991751
 20
353.1670268833575
 10
561.9491202978884
 20
351.0806847166965
 10
561.9491202978884
 20
351.0806847166965
 10
562.3665325977777
 20
347.560549088714
 10
561.2411650996996
 20
344.7541630126766
 10
559.2618229034861
 20
343.863557896089
 10
556.7708140171277
 20
344.1655704092092
 10
554.2787550993348
 20
345.1703742717884
 10
552.2447290407935
 20
347.0787132324779
 10
553.3351666858
 20
351.1792978980443
  0
LWPOLYLINE
  5
1CF
330
1F
100
AcDbEntity
  8
3
100
AcDbPolyline
 90
       11
 70
     0
 43
0.0
 10
558.8696049520674
 20
367.7393247003753
 10
563.1992924654425
 20
369.7270536856885
 10
567.483558564156
 20
367.6407115190274
 10
567.483558564156
 20
367.6407115190274
 10
567.9009708640453
 20
364.1205758910451
 10
566.7756033659673
 20
361.3141898150076
 10
564.7962611697534
 20
360.4235846984202
 10
562.3052522833952
 20
360.7255972115402
 10
559.8131933656023
 20
361.7304010741194
 10
557.779167307061
 20
363.6387400348089
 10
558.8696049520674
 20
367.7393247003753
  0
LWPOLYLINE
  5
1D0
330
1F
100
AcDbEntity
  8
3
100
AcDbPolyline
 90
       11
 70
     0
 43
0.0
 10
561.4310437472888
 20
358.4438254199408
 10
564.0288562553123
 20
359.6364628111287
 10
566.5994159145413
 20
358.3846575111305
 10
566.5994159145413
 20
358.3846575111305
 10
566.8498632944733
 20
356.2725761343393
 10
566.1746427956257
 20
354.5887444887169
 10
564.9870374778999
 20
354.054381418771
 10
563.4924321460841
 20
354.235588926638
 10
561.9971967954097
 20
354.838471244188
 10
560.7767811602827
 20
355.9834746206018
 10
561.4310437472888
 20
358.4438254199408
  0
LWPOLYLINE
  5
1D1
330
1F
100
AcDbEntity
  8
3
100
AcDbPolyline
 90
       11
 70
     0
 43
0.0
 10
548.7730148197301
 20
362.4146758809086
 10
553.1027023331054
 20
364.4024048662219
 10
557.3869684318188
 20
362.3160626995607
 10
557.3869684318188
 20
362.3160626995607
 10
557.8043807317079
 20
358.7959270715785
 10
556.6790132336302
 20
355.989540995541
 10
554.6996710374164
 20
355.0989358789536
 10
552.2086621510579
 20
355.4009483920735
 10
549.7166032332651
 20
356.4057522546528
 10
547.6825771747238
 20
358.3140912153423
 10
548.7730148197301
 20
362.4146758809086
  0
LWPOLYLINE
  5
1D2
330
1F
100
AcDbEntity
  8
3
100
AcDbPolyline
 90
       11
 70
     0
 43
0.0
 10
528.0107578140489
 20
356.5881511632153
 10
532.340445327424
 20
358.5758801485287
 10
536.6247114261376
 20
356.4895379818676
 10
536.6247114261376
 20
356.4895379818676
 10
537.0421237260269
 20
352.9694023538853
 10
535.9167562279488
 20
350.1630162778478
 10
533.937414031735
 20
349.2724111612603
 10
531.4464051453768
 20
349.5744236743805
 10
528.9543462275839
 20
350.5792275369592
 10
526.9203201690428
 20
352.4875664976491
 10
528.0107578140489
 20
356.5881511632153
  0
LWPOLYLINE
  5
1D3
330
1F
100
AcDbEntity
  8
3
100
AcDbPolyline
 90
       11
 70
     0
 43
0.0
 10
514.3184714614939
 20
354.6569193807364
 10
518.6481589748691
 20
356.6446483660495
 10
522.9324250735823
 20
354.5583061993884
 10
522.9324250735823
 20
354.5583061993884
 10
523.3498373734716
 20
351.0381705714062
 10
522.2244698753935
 20
348.2317844953686
 10
520.2451276791801
 20
347.3411793787814
 10
517.7541187928217
 20
347.6431918919012
 10
515.2620598750288
 20
348.6479957544805
 10
513.2280338164876
 20
350.55633471517
 10
514.3184714614939
 20
354.6569193807364
  0
LWPOLYLINE
  5
1D4
330
1F
100
AcDbEntity
  8
3
100
AcDbPolyline
 90
       11
 70
     0
 43
0.0
 10
499.6137053393957
 20
339.552600455301
 10
503.9433928527708
 20
341.540329440614
 10
508.2276589514842
 20
339.453987273953
 10
508.2276589514842
 20
339.453987273953
 10
508.6450712513736
 20
335.9338516459708
 10
507.5197037532955
 20
333.1274655699333
 10
505.5403615570817
 20
332.2368604533459
 10
503.0493526707235
 20
332.5388729664658
 10
500.5572937529306
 20
333.5436768290451
 10
498.5232676943892
 20
335.4520157897346
 10
499.6137053393957
 20
339.552600455301
  0
LWPOLYLINE
  5
1D5
330
1F
100
AcDbEntity
  8
3
100
AcDbPolyline
 90
       11
 70
     0
 43
0.0
 10
490.8346718952237
 20
332.1162298683247
 10
495.1643594085988
 20
334.1039588536379
 10
499.448625507312
 20
332.0176166869768
 10
499.448625507312
 20
332.0176166869768
 10
499.8660378072015
 20
328.4974810589944
 10
498.7406703091234
 20
325.6910949829571
 10
496.7613281129098
 20
324.8004898663696
 10
494.2703192265517
 20
325.1025023794896
 10
491.7782603087585
 20
326.1073062420688
 10
489.7442342502173
 20
328.0156452027584
 10
490.8346718952237
 20
332.1162298683247
  0
LWPOLYLINE
  5
1D6
330
1F
100
AcDbEntity
  8
3
100
AcDbPolyline
 90
       11
 70
     0
 43
0.0
 10
493.9320338238166
 20
345.7440217709511
 10
496.5298463318402
 20
346.936659162139
 10
499.1004059910689
 20
345.6848538621408
 10
499.1004059910689
 20
345.6848538621408
 10
499.3508533710008
 20
343.5727724853498
 10
498.6756328721533
 20
341.8889408397272
 10
497.4880275544276
 20
341.3545777697813
 10
495.9934222226118
 20
341.5357852776484
 10
494.4981868719374
 20
342.1386675951982
 10
493.2777712368105
 20
343.283670971612
 10
493.9320338238166
 20
345.7440217709511
  0
LWPOLYLINE
  5
1D7
330
1F
100
AcDbEntity
  8
3
100
AcDbPolyline
 90
       11
 70
     0
 43
0.0
 10
484.6099922720502
 20
341.4670434575959
 10
488.9396797854253
 20
343.4547724429095
 10
493.2239458841387
 20
341.3684302762482
 10
493.2239458841387
 20
341.3684302762482
 10
493.641358184028
 20
337.8482946482661
 10
492.5159906859498
 20
335.0419085722284
 10
490.5366484897363
 20
334.1513034556411
 10
488.0456396033777
 20
334.4533159687609
 10
485.5535806855851
 20
335.4581198313403
 10
483.5195546270437
 20
337.3664587920298
 10
484.6099922720502
 20
341.4670434575959
  0
LWPOLYLINE
  5
1D8
330
1F
100
AcDbEntity
  8
3
100
AcDbPolyline
 90
       11
 70
     0
 43
0.0
 10
481.5912526091418
 20
325.9863483524015
 10
484.1890651171653
 20
327.1789857435895
 10
486.7596247763942
 20
325.9271804435913
 10
486.7596247763942
 20
325.9271804435913
 10
487.0100721563262
 20
323.8150990668003
 10
486.3348516574784
 20
322.1312674211777
 10
485.1472463397526
 20
321.5969043512318
 10
483.652641007937
 20
321.7781118590987
 10
482.1574056572628
 20
322.3809941766488
 10
480.9369900221357
 20
323.5259975530626
 10
481.5912526091418
 20
325.9863483524015
  0
LWPOLYLINE
  5
1D9
330
1F
100
AcDbEntity
  8
3
100
AcDbPolyline
 90
       11
 70
     0
 43
0.0
 10
467.8044770701812
 20
327.677896356184
 10
470.4022895782046
 20
328.8705337473721
 10
472.9728492374333
 20
327.6187284473738
 10
472.9728492374333
 20
327.6187284473738
 10
473.2232966173653
 20
325.5066470705828
 10
472.5480761185178
 20
323.8228154249603
 10
471.3604708007921
 20
323.2884523550143
 10
469.8658654689762
 20
323.4696598628814
 10
468.3706301183021
 20
324.0725421804315
 10
467.1502144831748
 20
325.2175455568451
 10
467.8044770701812
 20
327.677896356184
  0
LWPOLYLINE
  5
1DA
330
1F
100
AcDbEntity
  8
3
100
AcDbPolyline
 90
       11
 70
     0
 43
0.0
 10
519.3551527375846
 20
337.6377964020217
 10
523.6848402509597
 20
339.625525387335
 10
527.9691063496732
 20
337.5391832206739
 10
527.9691063496732
 20
337.5391832206739
 10
528.3865186495624
 20
334.0190475926916
 10
527.2611511514846
 20
331.2126615166542
 10
525.281808955271
 20
330.3220564000668
 10
522.7908000689126
 20
330.6240689131868
 10
520.2987411511194
 20
331.6288727757661
 10
518.2647150925784
 20
333.5372117364554
 10
519.3551527375846
 20
337.6377964020217
  0
LWPOLYLINE
  5
1DB
330
1F
100
AcDbEntity
  8
3
100
AcDbPolyline
 90
       11
 70
     0
 43
0.0
 10
457.7076783990917
 20
329.913902317487
 10
462.037365912467
 20
331.9016313028003
 10
466.3216320111804
 20
329.8152891361391
 10
466.3216320111804
 20
329.8152891361391
 10
466.7390443110694
 20
326.2951535081568
 10
465.6136768129916
 20
323.4887674321194
 10
463.6343346167779
 20
322.5981623155319
 10
461.1433257304196
 20
322.900174828652
 10
458.6512668126265
 20
323.9049786912311
 10
456.6172407540854
 20
325.8133176519207
 10
457.7076783990917
 20
329.913902317487
  0
LWPOLYLINE
  5
1DC
330
1F
100
AcDbEntity
  8
3
100
AcDbPolyline
 90
       11
 70
     0
 43
0.0
 10
472.9582783598745
 20
333.4155691851912
 10
477.2879658732494
 20
335.4032981705045
 10
481.5722319719627
 20
333.3169560038435
 10
481.5722319719627
 20
333.3169560038435
 10
481.9896442718522
 20
329.7968203758612
 10
480.8642767737741
 20
326.9904342998235
 10
478.8849345775607
 20
326.0998291832363
 10
476.3939256912021
 20
326.4018416963562
 10
473.9018667734093
 20
327.4066455589355
 10
471.867840714868
 20
329.3149845196249
 10
472.9582783598745
 20
333.4155691851912
  0
LWPOLYLINE
  5
1DD
330
1F
100
AcDbEntity
  8
3
100
AcDbPolyline
 90
       11
 70
     0
 43
0.0
 10
474.9342692884259
 20
319.8821491315033
 10
479.263956801801
 20
321.8698781168165
 10
483.5482229005144
 20
319.7835359501557
 10
483.5482229005144
 20
319.7835359501557
 10
483.9656352004038
 20
316.2634003221732
 10
482.8402677023258
 20
313.4570142461355
 10
480.8609255061123
 20
312.5664091295484
 10
478.369916619754
 20
312.8684216426683
 10
475.8778577019608
 20
313.8732255052476
 10
473.8438316434195
 20
315.7815644659369
 10
474.9342692884259
 20
319.8821491315033
  0
LWPOLYLINE
  5
1DE
330
1F
100
AcDbEntity
  8
3
100
AcDbPolyline
 90
       11
 70
     0
 43
0.0
 10
486.6290224289652
 20
348.022192245487
 10
489.2268349369888
 20
349.214829636675
 10
491.7973945962176
 20
347.9630243366768
 10
491.7973945962176
 20
347.9630243366768
 10
492.0478419761496
 20
345.8509429598858
 10
491.372621477302
 20
344.1671113142633
 10
490.1850161595761
 20
343.6327482443175
 10
488.6904108277604
 20
343.8139557521844
 10
487.1951754770862
 20
344.4168380697343
 10
485.974759841959
 20
345.561841446148
 10
486.6290224289652
 20
348.022192245487
  0
LWPOLYLINE
  5
1DF
330
1F
100
AcDbEntity
  8
3
100
AcDbPolyline
 90
       11
 70
     0
 43
0.0
 10
494.2426029792311
 20
351.9427788338892
 10
496.8404154872545
 20
353.135416225077
 10
499.4109751464832
 20
351.8836109250789
 10
499.4109751464832
 20
351.8836109250789
 10
499.6614225264152
 20
349.7715295482876
 10
498.9862020275676
 20
348.0876979026652
 10
497.7985967098419
 20
347.5533348327193
 10
496.303991378026
 20
347.7345423405864
 10
494.8087560273521
 20
348.3374246581364
 10
493.5883403922248
 20
349.4824280345503
 10
494.2426029792311
 20
351.9427788338892
  0
LWPOLYLINE
  5
1E0
330
1F
100
AcDbEntity
  8
3
100
AcDbPolyline
 90
       11
 70
     0
 43
0.0
 10
466.3952156994252
 20
343.374747201263
 10
470.7249032128005
 20
345.362476186576
 10
475.0091693115139
 20
343.2761340199149
 10
475.0091693115139
 20
343.2761340199149
 10
475.4265816114033
 20
339.7559983919327
 10
474.3012141133251
 20
336.9496123158952
 10
472.3218719171115
 20
336.0590071993077
 10
469.8308630307531
 20
336.3610197124277
 10
467.3388041129602
 20
337.3658235750071
 10
465.304778054419
 20
339.2741625356966
 10
466.3952156994252
 20
343.374747201263
  0
LWPOLYLINE
  5
1E1
330
1F
100
AcDbEntity
  8
3
100
AcDbPolyline
 90
       11
 70
     0
 43
0.0
 10
461.6574935723011
 20
353.4928505508215
 10
465.9871810856762
 20
355.4805795361348
 10
470.2714471843896
 20
353.3942373694737
 10
470.2714471843896
 20
353.3942373694737
 10
470.688859484279
 20
349.8741017414912
 10
469.5634919862008
 20
347.0677156654539
 10
467.5841497899873
 20
346.1771105488665
 10
465.093140903629
 20
346.4791230619863
 10
462.6010819858358
 20
347.4839269245655
 10
460.5670559272946
 20
349.3922658852551
 10
461.6574935723011
 20
353.4928505508215
  0
LWPOLYLINE
  5
1E2
330
1F
100
AcDbEntity
  8
3
100
AcDbPolyline
 90
       11
 70
     0
 43
0.0
 10
524.8112292535121
 20
349.2119902583734
 10
527.4090417615355
 20
350.4046276495614
 10
529.9796014207644
 20
349.1528223495629
 10
529.9796014207644
 20
349.1528223495629
 10
530.2300488006964
 20
347.0407409727719
 10
529.5548283018486
 20
345.3569093271493
 10
528.3672229841227
 20
344.8225462572035
 10
526.8726176523072
 20
345.0037537650707
 10
525.377382301633
 20
345.6066360826206
 10
524.1569666665058
 20
346.7516394590344
 10
524.8112292535121
 20
349.2119902583734
  0
LWPOLYLINE
  5
1E3
330
1F
100
AcDbEntity
  8
3
100
AcDbPolyline
 90
       11
 70
     0
 43
0.0
 10
490.919744265768
 20
321.91388631441
 10
493.5175567737915
 20
323.1065237055978
 10
496.0881164330203
 20
321.8547184055996
 10
496.0881164330203
 20
321.8547184055996
 10
496.3385638129522
 20
319.7426370288085
 10
495.6633433141045
 20
318.058805383186
 10
494.4757379963788
 20
317.5244423132402
 10
492.981132664563
 20
317.7056498211073
 10
491.4858973138889
 20
318.3085321386573
 10
490.2654816787618
 20
319.4535355150711
 10
490.919744265768
 20
321.91388631441
  0
LWPOLYLINE
  5
1E4
330
1F
100
AcDbEntity
  8
3
100
AcDbPolyline
 90
       11
 70
     0
 43
0.0
 10
460.9635296799904
 20
338.4278532257248
 10
463.5613421880136
 20
339.6204906169128
 10
466.1319018472426
 20
338.3686853169145
 10
466.1319018472426
 20
338.3686853169145
 10
466.3823492271745
 20
336.2566039401234
 10
465.7071287283269
 20
334.5727722945009
 10
464.5195234106012
 20
334.038409224555
 10
463.0249180787854
 20
334.2196167324222
 10
461.5296827281112
 20
334.8224990499722
 10
460.3092670929838
 20
335.9675024263858
 10
460.9635296799904
 20
338.4278532257248
  0
LWPOLYLINE
  5
1E5
330
1F
100
AcDbEntity
  8
3
100
AcDbPolyline
 90
       11
 70
     0
 43
0.0
 10
568.5790782427179
 20
363.759054909847
 10
571.1768907507412
 20
364.9516923010348
 10
573.7474504099698
 20
363.6998870010367
 10
573.7474504099698
 20
363.6998870010367
 10
573.997897789902
 20
361.5878056242455
 10
573.3226772910545
 20
359.9039739786233
 10
572.1350719733284
 20
359.3696109086774
 10
570.6404666415125
 20
359.5508184165444
 10
569.1452312908386
 20
360.1537007340943
 10
567.9248156557114
 20
361.298704110508
 10
568.5790782427179
 20
363.759054909847
  0
LWPOLYLINE
  5
1E6
330
1F
100
AcDbEntity
  8
3
100
AcDbPolyline
 90
       11
 70
     0
 43
0.0
 10
509.5853168935795
 20
361.704359488007
 10
512.1831294016031
 20
362.8969968791947
 10
514.7536890608316
 20
361.6451915791965
 10
514.7536890608316
 20
361.6451915791965
 10
515.0041364407636
 20
359.5331102024056
 10
514.3289159419161
 20
357.849278556783
 10
513.1413106241902
 20
357.314915486837
 10
511.6467052923744
 20
357.4961229947043
 10
510.1514699417004
 20
358.0990053122541
 10
508.9310543065731
 20
359.244008688668
 10
509.5853168935795
 20
361.704359488007
  0
LWPOLYLINE
  5
1E7
330
1F
100
AcDbEntity
  8
3
100
AcDbPolyline
 90
       11
 70
     0
 43
0.0
 10
442.0716937895734
 20
364.0392127356955
 10
444.6695062975971
 20
365.2318501268835
 10
447.2400659568257
 20
363.9800448268851
 10
447.2400659568257
 20
363.9800448268851
 10
447.4905133367576
 20
361.8679634500941
 10
446.8152928379101
 20
360.1841318044716
 10
445.6276875201843
 20
359.6497687345258
 10
444.1330821883686
 20
359.8309762423929
 10
442.6378468376944
 20
360.4338585599429
 10
441.4174312025672
 20
361.5788619363565
 10
442.0716937895734
 20
364.0392127356955
  0
LWPOLYLINE
  5
1E8
330
1F
100
AcDbEntity
  8
3
100
AcDbPolyline
 90
       11
 70
     0
 43
0.0
 10
474.8532998207452
 20
363.5709599428495
 10
477.4511123287687
 20
364.7635973340375
 10
480.0216719879976
 20
363.5117920340389
 10
480.0216719879976
 20
363.5117920340389
 10
480.2721193679294
 20
361.3997106572483
 10
479.5968988690819
 20
359.7158790116256
 10
478.4092935513561
 20
359.1815159416798
 10
476.9146882195404
 20
359.3627234495467
 10
475.419452868866
 20
359.9656057670967
 10
474.1990372337389
 20
361.1106091435105
 10
474.8532998207452
 20
363.5709599428495
  0
LWPOLYLINE
  5
1E9
330
1F
100
AcDbEntity
  8
3
100
AcDbPolyline
 90
       11
 70
     0
 43
0.0
 10
472.8229013291446
 20
353.6931028506352
 10
475.4207138371683
 20
354.8857402418232
 10
477.991273496397
 20
353.6339349418247
 10
477.991273496397
 20
353.6339349418247
 10
478.2417208763289
 20
351.521853565034
 10
477.5665003774813
 20
349.8380219194114
 10
476.3788950597557
 20
349.3036588494655
 10
474.8842897279399
 20
349.4848663573326
 10
473.3890543772658
 20
350.0877486748826
 10
472.1686387421385
 20
351.2327520512962
 10
472.8229013291446
 20
353.6931028506352
  0
LWPOLYLINE
  5
1EA
330
1F
100
AcDbEntity
  8
3
100
AcDbPolyline
 90
       11
 70
     0
 43
0.0
 10
457.4228355456269
 20
345.2270959210056
 10
460.0206480536503
 20
346.4197333121936
 10
462.591207712879
 20
345.1679280121956
 10
462.591207712879
 20
345.1679280121956
 10
462.8416550928112
 20
343.0558466354043
 10
462.1664345939636
 20
341.372014989782
 10
460.9788292762378
 20
340.8376519198361
 10
459.4842239444219
 20
341.018859427703
 10
457.9889885937478
 20
341.6217417452529
 10
456.7685729586206
 20
342.7667451216668
 10
457.4228355456269
 20
345.2270959210056
  0
LWPOLYLINE
  5
1EB
330
1F
100
AcDbEntity
  8
3
100
AcDbPolyline
 90
       11
 70
     0
 43
0.0
 10
468.8061682011529
 20
321.2206618847183
 10
471.4039807091763
 20
322.4132992759062
 10
473.9745403684052
 20
321.161493975908
 10
473.9745403684052
 20
321.161493975908
 10
474.2249877483372
 20
319.0494125991171
 10
473.5497672494894
 20
317.3655809534944
 10
472.3621619317636
 20
316.8312178835485
 10
470.8675565999477
 20
317.0124253914156
 10
469.3723212492739
 20
317.6153077089657
 10
468.1519056141464
 20
318.7603110853793
 10
468.8061682011529
 20
321.2206618847183
  0
LWPOLYLINE
  5
1EC
330
1F
100
AcDbEntity
  8
3
100
AcDbPolyline
 90
       11
 70
     0
 43
0.0
 10
528.5071982342381
 20
324.3488340709893
 10
531.1050107422615
 20
325.5414714621772
 10
533.6755704014905
 20
324.2896661621791
 10
533.6755704014905
 20
324.2896661621791
 10
533.9260177814225
 20
322.1775847853879
 10
533.2507972825748
 20
320.4937531397654
 10
532.0631919648491
 20
319.9593900698195
 10
530.5685866330333
 20
320.1405975776865
 10
529.0733512823591
 20
320.7434798952366
 10
527.8529356472319
 20
321.8884832716503
 10
528.5071982342381
 20
324.3488340709893
  0
LWPOLYLINE
  5
1ED
330
1F
100
AcDbEntity
  8
3
100
AcDbPolyline
 90
       11
 70
     0
 43
0.0
 10
540.6687867416081
 20
352.6173007022477
 10
543.2665992496315
 20
353.8099380934354
 10
545.8371589088602
 20
352.5581327934372
 10
545.8371589088602
 20
352.5581327934372
 10
546.0876062887922
 20
350.446051416646
 10
545.4123857899445
 20
348.7622197710237
 10
544.224780472219
 20
348.2278567010778
 10
542.7301751404031
 20
348.4090642089447
 10
541.234939789729
 20
349.0119465264948
 10
540.0145241546018
 20
350.1569499029086
 10
540.6687867416081
 20
352.6173007022477
  0
LWPOLYLINE
  5
1EE
330
1F
100
AcDbEntity
  8
3
100
AcDbPolyline
 90
       11
 70
     0
 43
0.0
 10
530.6980891730859
 20
336.7271602582107
 10
533.2959016811096
 20
337.9197976493986
 10
535.8664613403384
 20
336.6679923494001
 10
535.8664613403384
 20
336.6679923494001
 10
536.1169087202702
 20
334.5559109726092
 10
535.4416882214226
 20
332.872079326987
 10
534.254082903697
 20
332.3377162570409
 10
532.7594775718812
 20
332.518923764908
 10
531.2642422212069
 20
333.121806082458
 10
530.0438265860798
 20
334.2668094588715
 10
530.6980891730859
 20
336.7271602582107
  0
LWPOLYLINE
  5
1EF
330
1F
100
AcDbEntity
  8
3
100
AcDbPolyline
 90
       11
 70
     0
 43
0.0
 10
522.6649221373819
 20
361.3551464189709
 10
525.2627346454054
 20
362.5477838101588
 10
527.8332943046343
 20
361.2959785101605
 10
527.8332943046343
 20
361.2959785101605
 10
528.0837416845661
 20
359.1838971333696
 10
527.4085211857185
 20
357.500065487747
 10
526.2209158679929
 20
356.9657024178011
 10
524.7263105361769
 20
357.146909925668
 10
523.2310751855029
 20
357.7497922432181
 10
522.0106595503757
 20
358.894795619632
 10
522.6649221373819
 20
361.3551464189709
  0
LWPOLYLINE
  5
1F0
330
1F
100
AcDbEntity
  8
3
100
AcDbPolyline
 90
       11
 70
     0
 43
0.0
 10
509.5811012222559
 20
345.0247128783932
 10
512.1789137302794
 20
346.2173502695813
 10
514.7494733895082
 20
344.9655449695831
 10
514.7494733895082
 20
344.9655449695831
 10
514.9999207694403
 20
342.8534635927917
 10
514.3247002705925
 20
341.1696319471694
 10
513.1370949528667
 20
340.6352688772236
 10
511.642489621051
 20
340.8164763850906
 10
510.1472542703769
 20
341.4193587026407
 10
508.9268386352497
 20
342.5643620790544
 10
509.5811012222559
 20
345.0247128783932
  0
LWPOLYLINE
  5
1F1
330
1F
100
AcDbEntity
  8
3
100
AcDbPolyline
 90
       11
 70
     0
 43
0.0
 10
503.8616201039685
 20
328.0527497578627
 10
506.4594326119919
 20
329.2453871490506
 10
509.0299922712206
 20
327.9935818490524
 10
509.0299922712206
 20
327.9935818490524
 10
509.2804396511527
 20
325.8815004722614
 10
508.6052191523051
 20
324.1976688266388
 10
507.4176138345794
 20
323.663305756693
 10
505.9230085027635
 20
323.8445132645601
 10
504.4277731520894
 20
324.4473955821101
 10
503.2073575169621
 20
325.5923989585239
 10
503.8616201039685
 20
328.0527497578627
  0
LWPOLYLINE
  5
1F2
330
1F
100
AcDbEntity
  8
3
100
AcDbPolyline
 90
       11
 70
     0
 43
0.0
 10
501.4419339333531
 20
350.9289364273729
 10
501.4758172826672
 20
355.6929801300713
 10
505.1808024693539
 20
358.6897858307105
 10
505.1808024693539
 20
358.6897858307105
 10
508.5462349115733
 20
357.5764788899582
 10
510.6115018515493
 20
355.3681022734883
 10
510.5796194574917
 20
353.1978588501939
 10
509.2506667519306
 20
351.0694271420157
 10
507.2846717540505
 20
349.2378016016027
 10
504.6943015662515
 20
348.203876127562
 10
501.4419339333531
 20
350.9289364273729
  0
LWPOLYLINE
  5
1F3
330
1F
100
AcDbEntity
  8
3
100
AcDbPolyline
 90
       11
 70
     0
 43
0.0
 10
492.0822183881591
 20
356.3617642776587
 10
492.1161017374649
 20
361.1258079803489
 10
495.8210869241598
 20
364.1226136809882
 10
495.8210869241598
 20
364.1226136809882
 10
499.1865193663791
 20
363.0093067402398
 10
501.2517863063551
 20
360.8009301237741
 10
501.2199039122974
 20
358.6306867004756
 10
499.8909512067365
 20
356.5022549922971
 10
497.9249562088482
 20
354.6706294518803
 10
495.3345860210491
 20
353.6367039778436
 10
492.0822183881591
 20
356.3617642776587
  0
LWPOLYLINE
  5
1F4
330
1F
100
AcDbEntity
  8
3
100
AcDbPolyline
 90
       11
 70
     0
 43
0.0
 10
538.1073479463863
 20
361.9127999826823
 10
542.4370354597614
 20
363.9005289679953
 10
546.7213015584746
 20
361.8141868013343
 10
546.7213015584746
 20
361.8141868013343
 10
547.1387138583641
 20
358.2940511733519
 10
546.0133463602859
 20
355.4876650973145
 10
544.0340041640724
 20
354.597059980727
 10
541.5429952777141
 20
354.899072493847
 10
539.0509363599213
 20
355.9038763564262
 10
537.0169103013799
 20
357.8122153171157
 10
538.1073479463863
 20
361.9127999826823
  0
LWPOLYLINE
  5
1F5
330
1F
100
AcDbEntity
  8
3
100
AcDbPolyline
 90
       11
 70
     0
 43
0.0
 10
532.5729096801186
 20
345.352773180351
 10
536.9025971934938
 20
347.3405021656642
 10
541.1868632922073
 20
345.2541599990033
 10
541.1868632922073
 20
345.2541599990033
 10
541.6042755920966
 20
341.734024371021
 10
540.4789080940186
 20
338.9276382949835
 10
538.499565897805
 20
338.0370331783959
 10
536.0085570114466
 20
338.3390456915161
 10
533.5164980936537
 20
339.3438495540952
 10
531.4824720351124
 20
341.2521885147847
 10
532.5729096801186
 20
345.352773180351
  0
LWPOLYLINE
  5
1F6
330
1F
100
AcDbEntity
  8
3
100
AcDbPolyline
 90
       11
 70
     0
 43
0.0
 10
475.398739166679
 20
347.9788470865574
 10
479.7284266800541
 20
349.9665760718706
 10
484.0126927787674
 20
347.8802339052093
 10
484.0126927787674
 20
347.8802339052093
 10
484.4301050786569
 20
344.3600982772273
 10
483.3047375805789
 20
341.5537122011896
 10
481.3253953843654
 20
340.6631070846023
 10
478.8343864980069
 20
340.965119597722
 10
476.3423275802139
 20
341.9699234603015
 10
474.3083015216725
 20
343.8782624209908
 10
475.398739166679
 20
347.9788470865574
  0
LWPOLYLINE
  5
1F7
330
1F
100
AcDbEntity
  8
3
100
AcDbPolyline
 90
       11
 70
     0
 43
0.0
 10
480.1113389173815
 20
356.2088296750841
 10
484.4410264307564
 20
358.1965586603972
 10
488.7252925294698
 20
356.1102164937363
 10
488.7252925294698
 20
356.1102164937363
 10
489.1427048293592
 20
352.5900808657539
 10
488.017337331281
 20
349.7836947897165
 10
486.0379951350674
 20
348.8930896731291
 10
483.5469862487092
 20
349.195102186249
 10
481.0549273309161
 20
350.1999060488283
 10
479.0209012723749
 20
352.1082450095178
 10
480.1113389173815
 20
356.2088296750841
  0
LWPOLYLINE
  5
1F8
330
1F
100
AcDbEntity
  8
3
100
AcDbPolyline
 90
       11
 70
     0
 43
0.0
 10
459.6666341555795
 20
362.3890261482988
 10
463.9963216689546
 20
364.3767551336122
 10
468.2805877676681
 20
362.2904129669511
 10
468.2805877676681
 20
362.2904129669511
 10
468.6980000675574
 20
358.7702773389687
 10
467.5726325694795
 20
355.963891262931
 10
465.5932903732656
 20
355.0732861463437
 10
463.1022814869074
 20
355.3752986594638
 10
460.6102225691144
 20
356.3801025220432
 10
458.5761965105731
 20
358.2884414827324
 10
459.6666341555795
 20
362.3890261482988
  0
LWPOLYLINE
  5
1F9
330
1F
100
AcDbEntity
  8
3
100
AcDbPolyline
 90
       11
 70
     0
 43
0.0
 10
450.1490352777525
 20
353.4284985302688
 10
454.4787227911275
 20
355.416227515582
 10
458.7629888898409
 20
353.3298853489209
 10
458.7629888898409
 20
353.3298853489209
 10
459.1804011897302
 20
349.8097497209384
 10
458.0550336916524
 20
347.003363644901
 10
456.0756914954385
 20
346.1127585283136
 10
453.5846826090802
 20
346.4147710414337
 10
451.0926236912873
 20
347.4195749040128
 10
449.058597632746
 20
349.3279138647023
 10
450.1490352777525
 20
353.4284985302688
  0
LINE
  5
1FA
330
1F
100
AcDbEntity
  8
3
100
AcDbLine
 10
537.1856338180923
 20
711.5864804439332
 30
0.0
 11
569.282395526498
 21
711.5864804439332
 31
0.0
  0
LINE
  5
1FB
330
1F
100
AcDbEntity
  8
3
100
AcDbLine
 10
535.620113278281
 20
680.8183962458918
 30
0.0
 11
548.1454744774968
 21
680.8183962458918
 31
0.0
  0
LINE
  5
1FC
330
1F
100
AcDbEntity
  8
3
100
AcDbLine
 10
504.0430972078334
 20
674.2894011554631
 30
0.0
 11
519.9610180170573
 21
674.2894011554631
 31
0.0
  0
LINE
  5
1FD
330
1F
100
AcDbEntity
  8
3
100
AcDbLine
 10
510.8276179872909
 20
699.0602915508318
 30
0.0
 11
563.8003806547398
 21
699.0602915508318
 31
0.0
  0
LINE
  5
1FE
330
1F
100
AcDbEntity
  8
3
100
AcDbLine
 10
464.8996977487631
 20
686.5520042680941
 30
0.0
 11
490.4725595473236
 21
686.5520042680941
 31
0.0
  0
LINE
  5
1FF
330
1F
100
AcDbEntity
  8
3
100
AcDbLine
 10
490.7334796372813
 20
708.9762404609632
 30
0.0
 11
517.8721611959325
 21
708.9762404609632
 31
0.0
  0
LINE
  5
200
330
1F
100
AcDbEntity
  8
3
100
AcDbLine
 10
436.7035716971547
 20
708.4941315744458
 30
0.0
 11
458.6232530160288
 21
708.4941315744458
 31
0.0
  0
LINE
  5
201
330
1F
100
AcDbEntity
  8
3
100
AcDbLine
 10
397.0360276160923
 20
723.6652981708742
 30
0.0
 11
603.6845602233873
 21
723.6652981708742
 31
0.0
  0
LINE
  5
202
330
1F
100
AcDbEntity
  8
3
100
AcDbLine
 10
454.7498866555613
 20
311.6878275327814
 30
0.0
 11
545.9707011839181
 21
311.6878275327814
 31
0.0
  0
LINE
  5
203
330
1F
100
AcDbEntity
  8
3
100
AcDbLine
 10
413.5675435370443
 20
368.2533668871521
 30
0.0
 11
587.1530443024348
 21
368.2533668871521
 31
0.0
  0
ARC
  5
204
330
1F
100
AcDbEntity
  8
3
100
AcDbCircle
 10
500.3602939197398
 20
433.6905230085347
 30
0.0
 40
108.6968395136092
100
AcDbArc
 50
303.7537869437005
 51
28.08707892342056
  0
LINE
  5
205
330
1F
100
AcDbEntity
  8
3
100
AcDbLine
 10
467.9475889306706
 20
584.1858538999308
 30
0.0
 11
465.6765719401994
 21
586.0613016466422
 31
0.0
  0
LINE
  5
206
330
1F
100
AcDbEntity
  8
3
100
AcDbLine
 10
465.6765719401994
 20
586.0613016466422
 30
0.0
 11
467.9475889306748
 21
587.9367493933455
 31
0.0
  0
LINE
  5
207
330
1F
100
AcDbEntity
  8
3
100
AcDbLine
 10
476.1336843182314
 20
539.6531310712985
 30
0.0
 11
467.9475889306667
 21
584.1858538998776
 31
0.0
  0
LINE
  5
208
330
1F
100
AcDbEntity
  8
3
100
AcDbLine
 10
524.5869035212645
 20
539.6531310712985
 30
0.0
 11
532.7729989088294
 21
584.1858538998776
 31
0.0
  0
LINE
  5
209
330
1F
100
AcDbEntity
  8
3
100
AcDbLine
 10
296.9030662494831
 20
88.02400703680689
 30
0.0
 11
355.6032044237123
 21
88.02400703680689
 31
0.0
  0
LINE
  5
20A
330
1F
100
AcDbEntity
  8
3
100
AcDbLine
 10
604.7226447179337
 20
80.50841716033227
 30
0.0
 11
676.8398205455373
 21
80.50841716033227
 31
0.0
  0
LINE
  5
20B
330
1F
100
AcDbEntity
  8
3
100
AcDbLine
 10
637.3571052814693
 20
128.3021674267987
 30
0.0
 11
672.5771283418987
 21
128.3021674267987
 31
0.0
  0
LINE
  5
20C
330
1F
100
AcDbEntity
  8
3
100
AcDbLine
 10
528.3424774664111
 20
98.13702798540141
 30
0.0
 11
590.3968750539347
 21
98.13702798540141
 31
0.0
  0
LINE
  5
20D
330
1F
100
AcDbEntity
  8
3
100
AcDbLine
 10
380.7077864736616
 20
90.60106731087342
 30
0.0
 11
415.0893942909561
 21
90.60106731087342
 31
0.0
  0
LINE
  5
20E
330
1F
100
AcDbEntity
  8
3
100
AcDbLine
 10
467.0807144181856
 20
128.3074144505445
 30
0.0
 11
588.6739646434184
 21
128.3074144505445
 31
0.0
  0
LINE
  5
20F
330
1F
100
AcDbEntity
  8
3
100
AcDbLine
 10
317.782957072228
 20
135.8487764730183
 30
0.0
 11
387.3842887296719
 21
135.8487764730183
 31
0.0
  0
LINE
  5
210
330
1F
100
AcDbEntity
  8
3
100
AcDbLine
 10
287.4756293126352
 20
156.4118001463347
 30
0.0
 11
713.2449585268443
 21
156.4118001463306
 31
0.0
  0
LINE
  5
211
330
1F
100
AcDbEntity
  8
3
100
AcDbLine
 10
296.8140802184207
 20
220.7718916082592
 30
0.0
 11
330.3347862043857
 21
255.838051497897
 31
0.0
  0
LINE
  5
212
330
1F
100
AcDbEntity
  8
3
100
AcDbLine
 10
291.0435594681546
 20
225.6024899835938
 30
0.0
 11
325.2491706162596
 21
261.3851322150834
 31
0.0
  0
LINE
  5
213
330
1F
100
AcDbEntity
  8
3
100
AcDbLine
 10
291.0435594681707
 20
225.6024899835814
 30
0.0
 11
285.8469954957978
 21
256.4519454635263
 31
0.0
  0
LINE
  5
214
330
1F
100
AcDbEntity
  8
3
100
AcDbLine
 10
316.5532288667827
 20
204.2479237519661
 30
0.0
 11
291.0435594681707
 21
225.6024899835814
 31
0.0
  0
LINE
  5
215
330
1F
100
AcDbEntity
  8
3
100
AcDbLine
 10
347.7310882725342
 20
236.8632213950791
 30
0.0
 11
325.2491706162678
 21
261.3851322150834
 31
0.0
  0
LINE
  5
216
330
1F
100
AcDbEntity
  8
3
100
AcDbLine
 10
325.2491706162678
 20
261.3851322150793
 30
0.0
 11
294.1969580411274
 21
265.1868784870023
 31
0.0
  0
LINE
  5
217
330
1F
100
AcDbEntity
  8
3
100
AcDbLine
 10
285.8469954957978
 20
256.4519454635263
 30
0.0
 11
294.1969580411274
 21
265.1868784870023
 31
0.0
  0
CIRCLE
  5
218
330
1F
100
AcDbEntity
  8
3
100
AcDbCircle
 10
287.7082870418622
 20
263.0311315736492
 30
0.0
 40
6.83740419246429
  0
LINE
  5
219
330
1F
100
AcDbEntity
  8
3
100
AcDbLine
 10
316.5532288667827
 20
204.2479237519661
 30
0.0
 11
343.232963545897
 21
232.1577130763138
 31
0.0
  0
ARC
  5
21A
330
1F
100
AcDbEntity
  8
3
100
AcDbCircle
 10
500.3602939197398
 20
59.75859883522645
 30
0.0
 40
233.7984639568111
100
AcDbArc
 50
141.8267909248485
 51
180.0
  0
LINE
  5
21B
330
1F
100
AcDbEntity
  8
3
100
AcDbLine
 10
266.5618299629287
 20
59.75859883522645
 30
0.0
 11
734.1587578765508
 21
59.75859883522645
 31
0.0
  0
ARC
  5
21C
330
1F
100
AcDbEntity
  8
3
100
AcDbCircle
 10
500.3602939197398
 20
59.75859883522645
 30
0.0
 40
233.7984639568111
100
AcDbArc
 50
0.0
 51
72.79571273275924
  0
ARC
  5
21D
330
1F
100
AcDbEntity
  8
3
100
AcDbCircle
 10
500.3602939197398
 20
59.75859883522645
 30
0.0
 40
233.7984639568111
100
AcDbArc
 50
107.2042872672408
 51
130.7548454732869
  0
ARC
  5
21E
330
1F
100
AcDbEntity
  8
3
100
AcDbCircle
 10
579.482342698252
 20
315.2929500015298
 30
0.0
 40
33.70500000000001
100
AcDbArc
 50
123.7537869437005
 51
252.7957127327592
  0
ARC
  5
21F
330
1F
100
AcDbEntity
  8
3
100
AcDbCircle
 10
421.2382451412276
 20
315.2929500015298
 30
0.0
 40
33.70500000000001
100
AcDbArc
 50
287.2042872672409
 51
56.2462130562995
  0
CIRCLE
  5
220
330
1F
100
AcDbEntity
  8
3
100
AcDbCircle
 10
677.1078620783205
 20
565.2874214762002
 30
0.0
 40
1.248107659704712
  0
CIRCLE
  5
221
330
1F
100
AcDbEntity
  8
3
100
AcDbCircle
 10
677.1078620783205
 20
565.2874214762002
 30
0.0
 40
3.053842245565802
  0
LINE
  5
222
330
1F
100
AcDbEntity
  8
3
100
AcDbLine
 10
680.1617043238946
 20
552.401689965684
 30
0.0
 11
680.1617043238905
 21
565.2874214762002
 31
0.0
  0
LINE
  5
223
330
1F
100
AcDbEntity
  8
3
100
AcDbLine
 10
674.0540198327549
 20
552.401689965684
 30
0.0
 11
674.0540198327508
 21
565.2874214762002
 31
0.0
  0
LINE
  5
224
330
1F
100
AcDbEntity
  8
3
100
AcDbLine
 10
671.6747268044096
 20
551.651510867005
 30
0.0
 11
671.6747268044136
 21
552.401689965684
 31
0.0
  0
LINE
  5
225
330
1F
100
AcDbEntity
  8
3
100
AcDbLine
 10
682.5409973522314
 20
551.651510867005
 30
0.0
 11
682.5409973522314
 21
552.401689965684
 31
0.0
  0
LINE
  5
226
330
1F
100
AcDbEntity
  8
3
100
AcDbLine
 10
628.1573707477673
 20
526.5642639245855
 30
0.0
 11
645.8703792433336
 21
539.7497222031245
 31
0.0
  0
LINE
  5
227
330
1F
100
AcDbEntity
  8
3
100
AcDbLine
 10
623.1426102587682
 20
533.3009653169908
 30
0.0
 11
643.0877300137868
 21
548.1479939545693
 31
0.0
  0
LINE
  5
228
330
1F
100
AcDbEntity
  8
3
100
AcDbLine
 10
594.0155842459412
 20
501.1493209132413
 30
0.0
 11
583.5188348475669
 21
503.8052623337237
 31
0.0
  0
LINE
  5
229
330
1F
100
AcDbEntity
  8
3
100
AcDbLine
 10
607.6480309357669
 20
543.6248157495076
 30
0.0
 11
611.8522944692527
 21
548.4680877083226
 31
0.0
  0
LINE
  5
22A
330
1F
100
AcDbEntity
  8
3
100
AcDbLine
 10
633.6018203906239
 20
508.7591566731054
 30
0.0
 11
639.4476865372991
 21
511.3971415332373
 31
0.0
  0
LINE
  5
22B
330
1F
100
AcDbEntity
  8
3
100
AcDbLine
 10
605.2409963799573
 20
541.8330335280264
 30
0.0
 11
605.3596612871995
 21
544.1862876557499
 31
0.0
  0
LINE
  5
22C
330
1F
100
AcDbEntity
  8
3
100
AcDbLine
 10
605.3596612871995
 20
544.1862876557499
 30
0.0
 11
607.6480309357179
 21
543.6248157494382
 31
0.0
  0
LINE
  5
22D
330
1F
100
AcDbEntity
  8
3
100
AcDbLine
 10
633.4831554833812
 20
506.4059025453817
 30
0.0
 11
633.6018203906239
 21
508.7591566731054
 31
0.0
  0
LINE
  5
22E
330
1F
100
AcDbEntity
  8
3
100
AcDbLine
 10
631.1947858348631
 20
506.9673744516855
 30
0.0
 11
633.4831554833812
 21
506.4059025453817
 31
0.0
  0
LINE
  5
22F
330
1F
100
AcDbEntity
  8
3
100
AcDbLine
 10
605.2409963799529
 20
541.8330335280302
 30
0.0
 11
631.1947858348548
 21
506.9673744516976
 31
0.0
  0
LINE
  5
230
330
1F
100
AcDbEntity
  8
3
100
AcDbLine
 10
607.6480309357137
 20
543.6248157494462
 30
0.0
 11
633.6018203906156
 21
508.7591566731177
 31
0.0
  0
LINE
  5
231
330
1F
100
AcDbEntity
  8
3
100
AcDbLine
 10
582.9251479708362
 20
522.2720323049416
 30
0.0
 11
606.0537044831353
 21
491.2017191359645
 31
0.0
  0
LINE
  5
232
330
1F
100
AcDbEntity
  8
3
100
AcDbLine
 10
671.6747268044096
 20
552.4016899656883
 30
0.0
 11
682.5409973522314
 21
552.4016899656883
 31
0.0
  0
LINE
  5
233
330
1F
100
AcDbEntity
  8
3
100
AcDbLine
 10
671.6747268044096
 20
551.651510867005
 30
0.0
 11
682.5409973522314
 21
551.651510867005
 31
0.0
  0
LINE
  5
234
330
1F
100
AcDbEntity
  8
3
100
AcDbLine
 10
672.9771349040763
 20
531.9174308034603
 30
0.0
 11
671.6747268044096
 21
551.651510867005
 31
0.0
  0
LINE
  5
235
330
1F
100
AcDbEntity
  8
3
100
AcDbLine
 10
681.2385892525526
 20
531.9174308034603
 30
0.0
 11
682.5409973522314
 21
551.651510867005
 31
0.0
  0
LINE
  5
236
330
1F
100
AcDbEntity
  8
3
100
AcDbLine
 10
672.9771349040763
 20
531.9174308034523
 30
0.0
 11
681.2385892525526
 21
531.9174308034562
 31
0.0
  0
CIRCLE
  5
237
330
1F
100
AcDbEntity
  8
3
100
AcDbCircle
 10
677.1078620783166
 20
543.9488580787976
 30
0.0
 40
2.296515699988391
  0
LINE
  5
238
330
1F
100
AcDbEntity
  8
3
100
AcDbLine
 10
724.6130322918418
 20
548.1479939545939
 30
0.0
 11
724.6130322918459
 21
539.7497222030099
 31
0.0
  0
LINE
  5
239
330
1F
100
AcDbEntity
  8
3
100
AcDbLine
 10
645.8703792433336
 20
539.7497222031245
 30
0.0
 11
724.6130322918459
 21
539.749722203014
 31
0.0
  0
LINE
  5
23A
330
1F
100
AcDbEntity
  8
3
100
AcDbLine
 10
643.0877300137703
 20
548.1479939545736
 30
0.0
 11
724.6130322918418
 21
548.1479939545815
 31
0.0
  0
LINE
  5
23B
330
1F
100
AcDbEntity
  8
3
100
AcDbLine
 10
594.0155842459289
 20
501.1493209132373
 30
0.0
 11
596.996806471426
 21
503.3685250243362
 31
0.0
  0
LINE
  5
23C
330
1F
100
AcDbEntity
  8
3
100
AcDbLine
 10
583.5188348475505
 20
503.8052623337277
 30
0.0
 11
591.9820459824882
 21
510.1052264166598
 31
0.0
  0
LINE
  5
23D
330
1F
100
AcDbEntity
  8
3
100
AcDbLine
 10
596.2562396894172
 20
484.8664011659858
 30
0.0
 11
630.9479121664272
 21
507.2990182439512
 31
0.0
  0
LINE
  5
23E
330
1F
100
AcDbEntity
  8
3
100
AcDbLine
 10
573.4205310940776
 20
514.1716056570483
 30
0.0
 11
605.4878700483887
 21
541.5013897357564
 31
0.0
  0
LINE
  5
23F
330
1F
100
AcDbEntity
  8
3
100
AcDbLine
 10
611.8522944692568
 20
548.4680877083146
 30
0.0
 11
639.4476865372991
 21
511.3971415332333
 31
0.0
  0
LINE
  5
240
330
1F
100
AcDbEntity
  8
3
100
AcDbLine
 10
486.5385535765367
 20
90.60106731087762
 30
0.0
 11
512.9940893824501
 21
90.60106731088172
 31
0.0
  0
LINE
  5
241
330
1F
100
AcDbEntity
  8
3
100
AcDbLine
 10
535.0440158993006
 20
586.0613016465931
 30
0.0
 11
532.7729989088294
 21
587.9367493933002
 31
0.0
  0
LINE
  5
242
330
1F
100
AcDbEntity
  8
3
100
AcDbLine
 10
532.7729989088294
 20
584.1858538998858
 30
0.0
 11
535.0440158993006
 21
586.0613016465931
 31
0.0
  0
LINE
  5
243
330
1F
100
AcDbEntity
  8
3
100
AcDbLine
 10
467.9475889306011
 20
587.9367493932841
 30
0.0
 11
532.7729989088294
 21
587.9367493932964
 31
0.0
  0
LINE
  5
244
330
1F
100
AcDbEntity
  8
3
100
AcDbLine
 10
467.9475889306623
 20
584.1858538998776
 30
0.0
 11
532.7729989088336
 21
584.1858538998858
 31
0.0
  0
LINE
  5
245
330
1F
100
AcDbEntity
  8
3
100
AcDbLine
 10
470.9236005597016
 20
932.2601492023968
 30
0.0
 11
473.1946175501729
 21
934.1355969491043
 31
0.0
  0
LINE
  5
246
330
1F
100
AcDbEntity
  8
3
100
AcDbLine
 10
473.1946175501729
 20
930.3847014556893
 30
0.0
 11
470.9236005597016
 21
932.2601492023968
 31
0.0
  0
LINE
  5
247
330
1F
100
AcDbEntity
  8
3
100
AcDbLine
 10
527.5259702893108
 20
930.3847014556893
 30
0.0
 11
529.7969872797819
 21
932.2601492023968
 31
0.0
  0
LINE
  5
248
330
1F
100
AcDbEntity
  8
3
100
AcDbLine
 10
529.7969872797819
 20
932.2601492023968
 30
0.0
 11
527.5259702893108
 21
934.1355969491043
 31
0.0
  0
LINE
  5
249
330
1F
100
AcDbEntity
  8
3
100
AcDbLine
 10
473.1946175501852
 20
930.3847014556854
 30
0.0
 11
527.5259702893108
 21
930.3847014556893
 31
0.0
  0
LINE
  5
24A
330
1F
100
AcDbEntity
  8
3
100
AcDbLine
 10
473.1946175501852
 20
934.1355969490962
 30
0.0
 11
527.5259702893108
 21
934.1355969491043
 31
0.0
  0
LINE
  5
24B
330
1F
100
AcDbEntity
  8
3
100
AcDbLine
 10
523.1250574142195
 20
863.7020947896852
 30
0.0
 11
527.5259702893108
 21
930.3847014556893
 31
0.0
  0
LINE
  5
24C
330
1F
100
AcDbEntity
  8
3
100
AcDbLine
 10
500.3602939197439
 20
863.7020947896852
 30
0.0
 11
500.3602939197439
 21
952.5625270027219
 31
0.0
  0
LINE
  5
24D
330
1F
100
AcDbEntity
  8
3
100
AcDbLine
 10
477.595530425268
 20
863.7020947896852
 30
0.0
 11
473.1946175501852
 21
930.3847014556854
 31
0.0
  0
ARC
  5
24E
330
1F
100
AcDbEntity
  8
3
100
AcDbCircle
 10
500.3602939197398
 20
757.4158376193061
 30
0.0
 40
108.6968395136092
100
AcDbArc
 50
102.0891581052659
 51
257.910841894734
  0
LINE
  5
24F
330
1F
100
AcDbEntity
  8
3
100
AcDbLine
 10
481.8684802047383
 20
863.7020947896852
 30
0.0
 11
518.8521076347537
 21
863.7020947896893
 31
0.0
  0
LINE
  5
250
330
1F
100
AcDbEntity
  8
3
100
AcDbLine
 10
512.9940893824909
 20
90.60106731088575
 30
0.0
 11
521.9371125337352
 21
651.1295804489271
 31
0.0
  0
LINE
  5
251
330
1F
100
AcDbEntity
  8
3
100
AcDbLine
 10
486.5385535765735
 20
90.60106731087762
 30
0.0
 11
477.5955304252558
 21
651.1295804489271
 31
0.0
  0
ARC
  5
252
330
1F
100
AcDbEntity
  8
3
100
AcDbCircle
 10
500.3602939197398
 20
433.6905230085347
 30
0.0
 40
108.6968395136092
100
AcDbArc
 50
47.7670240592033
 51
236.2462130562995
  0
ARC
  5
253
330
1F
100
AcDbEntity
  8
3
100
AcDbCircle
 10
500.3602939197398
 20
757.4158376193061
 30
0.0
 40
108.6968395136092
100
AcDbArc
 50
281.4495235515037
 51
77.91084189473408
  0
LINE
  5
254
330
1F
100
AcDbEntity
  8
1
 62
     1
100
AcDbLine
 10
779.0302052878321
 20
26.31832682090772
 30
0.0
 11
779.0302052878321
 21
973.681710071108
 31
0.0
  0
LINE
  5
255
330
1F
100
AcDbEntity
  8
1
 62
     1
100
AcDbLine
 10
220.9697999843844
 20
26.31832682090772
 30
0.0
 11
779.0302052878321
 21
26.31832682090772
 31
0.0
  0
LINE
  5
256
330
1F
100
AcDbEntity
  8
1
 62
     1
100
AcDbLine
 10
220.9697999843844
 20
973.681710071108
 30
0.0
 11
220.9697999843847
 21
26.31832682090772
 31
0.0
  0
LINE
  5
257
330
1F
100
AcDbEntity
  8
1
 62
     1
100
AcDbLine
 10
779.0302052878321
 20
973.681710071108
 30
0.0
 11
220.9697999843844
 21
973.681710071108
 31
0.0
  0
LWPOLYLINE
  5
258
330
1F
100
AcDbEntity
  8
0
 62
     2
100
AcDbPolyline
 90
        4
 70
     1
 43
0.0
 10
0.0000026361085474
 20
0.0000184460077435
 10
1000.000002636108
 20
0.0000184460077435
 10
1000.000002636108
 20
1000.000018446008
 10
0.0000026361085474
 20
1000.000018446008
  0
ENDSEC
  0
SECTION
  2
OBJECTS
  0
DICTIONARY
  5
C
330
0
100
AcDbDictionary
281
     1
  3
ACAD_COLOR
350
6B
  3
ACAD_GROUP
350
D
  3
ACAD_LAYOUT
350
1A
  3
ACAD_MATERIAL
350
6A
  3
ACAD_MLINESTYLE
350
17
  3
ACAD_PLOTSETTINGS
350
19
  3
ACAD_PLOTSTYLENAME
350
E
  3
ACDBHEADERROUNDTRIPXREC
350
282
  3
AcDbVariableDictionary
350
5E
  0
DICTIONARY
  5
6B
102
{ACAD_REACTORS
330
C
102
}
330
C
100
AcDbDictionary
281
     1
  0
DICTIONARY
  5
D
102
{ACAD_REACTORS
330
C
102
}
330
C
100
AcDbDictionary
281
     1
  0
DICTIONARY
  5
1A
102
{ACAD_REACTORS
330
C
102
}
330
C
100
AcDbDictionary
281
     1
  3
Layout1
350
51
  3
Layout2
350
56
  3
Model
350
22
  0
DICTIONARY
  5
6A
102
{ACAD_REACTORS
330
C
102
}
330
C
100
AcDbDictionary
281
     1
  0
DICTIONARY
  5
17
102
{ACAD_REACTORS
330
C
102
}
330
C
100
AcDbDictionary
281
     1
  3
Standard
350
18
  0
DICTIONARY
  5
19
102
{ACAD_REACTORS
330
C
102
}
330
C
100
AcDbDictionary
281
     1
  0
ACDBDICTIONARYWDFLT
  5
E
102
{ACAD_REACTORS
330
C
102
}
330
C
100
AcDbDictionary
281
     1
  3
Normal
350
F
100
AcDbDictionaryWithDefault
340
F
  0
DICTIONARY
  5
282
102
{ACAD_REACTORS
330
C
102
}
330
C
100
AcDbDictionary
281
     1
  3
COLORDICT
350
284
  3
MATERIALDICT
350
283
  0
DICTIONARY
  5
5E
102
{ACAD_REACTORS
330
C
102
}
330
C
100
AcDbDictionary
281
     1
  3
DIMASSOC
350
5F
  3
HIDETEXT
350
63
  3
PROJECTNAME
350
85
  0
LAYOUT
  5
51
102
{ACAD_XDICTIONARY
360
287
102
}
102
{ACAD_REACTORS
330
1A
102
}
330
1A
100
AcDbPlotSettings
  1

  2
None
  4

  6

 40
0.0
 41
0.0
 42
0.0
 43
0.0
 44
0.0
 45
0.0
 46
0.0
 47
0.0
 48
0.0
 49
0.0
140
0.0
141
0.0
142
1.0
143
1.0
 70
   688
 72
     0
 73
     0
 74
     5
  7

 75
    16
147
1.0
148
0.0
149
0.0
100
AcDbLayout
  1
Layout1
 70
     1
 71
     1
 10
0.0
 20
0.0
 11
12.0
 21
9.0
 12
0.0
 22
0.0
 32
0.0
 14
0.0
 24
0.0
 34
0.0
 15
0.0
 25
0.0
 35
0.0
146
0.0
 13
0.0
 23
0.0
 33
0.0
 16
1.0
 26
0.0
 36
0.0
 17
0.0
 27
1.0
 37
0.0
 76
     0
330
50
  0
LAYOUT
  5
56
102
{ACAD_XDICTIONARY
360
289
102
}
102
{ACAD_REACTORS
330
1A
102
}
330
1A
100
AcDbPlotSettings
  1

  2
None
  4

  6

 40
0.0
 41
0.0
 42
0.0
 43
0.0
 44
0.0
 45
0.0
 46
0.0
 47
0.0
 48
0.0
 49
0.0
140
0.0
141
0.0
142
1.0
143
1.0
 70
   688
 72
     0
 73
     0
 74
     5
  7

 75
    16
147
1.0
148
0.0
149
0.0
100
AcDbLayout
  1
Layout2
 70
     1
 71
     2
 10
0.0
 20
0.0
 11
12.0
 21
9.0
 12
0.0
 22
0.0
 32
0.0
 14
0.0
 24
0.0
 34
0.0
 15
0.0
 25
0.0
 35
0.0
146
0.0
 13
0.0
 23
0.0
 33
0.0
 16
1.0
 26
0.0
 36
0.0
 17
0.0
 27
1.0
 37
0.0
 76
     0
330
55
  0
LAYOUT
  5
22
102
{ACAD_XDICTIONARY
360
285
102
}
102
{ACAD_REACTORS
330
1A
102
}
330
1A
100
AcDbPlotSettings
  1

  2
none_device
  4
ANSI_A_(8.50_x_11.00_Inches)
  6

 40
6.349999904632567
 41
19.04999923706055
 42
6.350006103515625
 43
19.04998779296875
 44
215.8999938964844
 45
279.3999938964844
 46
0.0
 47
0.0
 48
0.0
 49
0.0
140
0.0
141
0.0
142
1.0
143
78.436453180766
 70
 11952
 72
     0
 73
     1
 74
     0
  7

 75
     0
147
0.0127491741332998
148
0.0
149
0.0
100
AcDbLayout
  1
Model
 70
     1
 71
     0
 10
0.0
 20
0.0
 11
12.0
 21
9.0
 12
0.0
 22
0.0
 32
0.0
 14
0.0
 24
0.0
 34
0.0
 15
0.0
 25
0.0
 35
0.0
146
0.0
 13
0.0
 23
0.0
 33
0.0
 16
1.0
 26
0.0
 36
0.0
 17
0.0
 27
1.0
 37
0.0
 76
     0
330
1F
  0
MLINESTYLE
  5
18
102
{ACAD_REACTORS
330
17
102
}
330
17
100
AcDbMlineStyle
  2
STANDARD
 70
     0
  3

 62
   256
 51
90.0
 52
90.0
 71
     2
 49
0.5
 62
   256
  6
BYLAYER
 49
-0.5
 62
   256
  6
BYLAYER
  0
ACDBPLACEHOLDER
  5
F
102
{ACAD_REACTORS
330
E
102
}
330
E
  0
XRECORD
  5
284
102
{ACAD_REACTORS
330
282
102
}
330
282
100
AcDbXrecord
280
     1
340
6B
  0
XRECORD
  5
283
102
{ACAD_REACTORS
330
282
102
}
330
282
100
AcDbXrecord
280
     1
340
6A
  0
DICTIONARYVAR
  5
5F
102
{ACAD_REACTORS
330
5E
102
}
330
5E
100
DictionaryVariables
280
     0
  1
2
  0
DICTIONARYVAR
  5
63
102
{ACAD_REACTORS
330
5E
102
}
330
5E
100
DictionaryVariables
280
     0
  1
1
  0
DICTIONARYVAR
  5
85
102
{ACAD_REACTORS
330
5E
102
}
330
5E
100
DictionaryVariables
280
     0
  1

  0
DICTIONARY
  5
287
330
51
100
AcDbDictionary
280
     1
281
     1
  3
ACAD_XREC_ROUNDTRIP
360
288
  0
DICTIONARY
  5
289
330
56
100
AcDbDictionary
280
     1
281
     1
  3
ACAD_XREC_ROUNDTRIP
360
28A
  0
DICTIONARY
  5
285
330
22
100
AcDbDictionary
280
     1
281
     1
  3
ACAD_XREC_ROUNDTRIP
360
286
  0
XRECORD
  5
288
102
{ACAD_REACTORS
330
287
102
}
330
287
100
AcDbXrecord
280
     1
102
SHADEPLOT
 70
     0
102
SHADEPLOTRESLEVEL
 70
     2
102
SHADEPLOTCUSTOMDPI
 70
   300
  0
XRECORD
  5
28A
102
{ACAD_REACTORS
330
289
102
}
330
289
100
AcDbXrecord
280
     1
102
SHADEPLOT
 70
     0
102
SHADEPLOTRESLEVEL
 70
     2
102
SHADEPLOTCUSTOMDPI
 70
   300
  0
XRECORD
  5
286
102
{ACAD_REACTORS
330
285
102
}
330
285
100
AcDbXrecord
280
     1
102
SHADEPLOT
 70
     0
102
SHADEPLOTRESLEVEL
 70
     2
102
SHADEPLOTCUSTOMDPI
 70
   300
  0
ENDSEC
  0
EOF
