  0
SECTION
  2
HEADER
  9
$ACADVER
  1
AC1015
  9
$ACADMAINTVER
 70
    20
  9
$DWGCODEPAGE
  3
ANSI_936
  9
$INSBASE
 10
0.0
 20
0.0
 30
0.0
  9
$EXTMIN
 10
-0.000003500157618
 20
0.0000266652859864
 30
0.0
  9
$EXTMAX
 10
999.9999964998423
 20
1000.000026665286
 30
0.0
  9
$LIMMIN
 10
0.0
 20
0.0
  9
$LIMMAX
 10
420.0
 20
297.0
  9
$ORTHOMODE
 70
     0
  9
$REGENMODE
 70
     1
  9
$FILLMODE
 70
     1
  9
$QTEXTMODE
 70
     0
  9
$MIRRTEXT
 70
     0
  9
$LTSCALE
 40
1.0
  9
$ATTMODE
 70
     1
  9
$TEXTSIZE
 40
2.5
  9
$TRACEWID
 40
1.0
  9
$TEXTSTYLE
  7
Standard
  9
$CLAYER
  8
2
  9
$CELTYPE
  6
ByLayer
  9
$CECOLOR
 62
   256
  9
$CELTSCALE
 40
1.0
  9
$DISPSILH
 70
     0
  9
$DIMSCALE
 40
1.0
  9
$DIMASZ
 40
2.5
  9
$DIMEXO
 40
0.625
  9
$DIMDLI
 40
3.75
  9
$DIMRND
 40
0.0
  9
$DIMDLE
 40
0.0
  9
$DIMEXE
 40
1.25
  9
$DIMTP
 40
0.0
  9
$DIMTM
 40
0.0
  9
$DIMTXT
 40
2.5
  9
$DIMCEN
 40
2.5
  9
$DIMTSZ
 40
0.0
  9
$DIMTOL
 70
     0
  9
$DIMLIM
 70
     0
  9
$DIMTIH
 70
     0
  9
$DIMTOH
 70
     0
  9
$DIMSE1
 70
     0
  9
$DIMSE2
 70
     0
  9
$DIMTAD
 70
     1
  9
$DIMZIN
 70
     8
  9
$DIMBLK
  1

  9
$DIMASO
 70
     1
  9
$DIMSHO
 70
     1
  9
$DIMPOST
  1

  9
$DIMAPOST
  1

  9
$DIMALT
 70
     0
  9
$DIMALTD
 70
     3
  9
$DIMALTF
 40
0.03937007874016
  9
$DIMLFAC
 40
1.0
  9
$DIMTOFL
 70
     1
  9
$DIMTVP
 40
0.0
  9
$DIMTIX
 70
     0
  9
$DIMSOXD
 70
     0
  9
$DIMSAH
 70
     0
  9
$DIMBLK1
  1

  9
$DIMBLK2
  1

  9
$DIMSTYLE
  2
ISO-25
  9
$DIMCLRD
 70
     0
  9
$DIMCLRE
 70
     0
  9
$DIMCLRT
 70
     0
  9
$DIMTFAC
 40
1.0
  9
$DIMGAP
 40
0.625
  9
$DIMJUST
 70
     0
  9
$DIMSD1
 70
     0
  9
$DIMSD2
 70
     0
  9
$DIMTOLJ
 70
     0
  9
$DIMTZIN
 70
     8
  9
$DIMALTZ
 70
     0
  9
$DIMALTTZ
 70
     0
  9
$DIMUPT
 70
     0
  9
$DIMDEC
 70
     2
  9
$DIMTDEC
 70
     2
  9
$DIMALTU
 70
     2
  9
$DIMALTTD
 70
     3
  9
$DIMTXSTY
  7
Standard
  9
$DIMAUNIT
 70
     0
  9
$DIMADEC
 70
     0
  9
$DIMALTRND
 40
0.0
  9
$DIMAZIN
 70
     0
  9
$DIMDSEP
 70
    44
  9
$DIMATFIT
 70
     3
  9
$DIMFRAC
 70
     0
  9
$DIMLDRBLK
  1

  9
$DIMLUNIT
 70
     2
  9
$DIMLWD
 70
    -2
  9
$DIMLWE
 70
    -2
  9
$DIMTMOVE
 70
     0
  9
$LUNITS
 70
     2
  9
$LUPREC
 70
     4
  9
$SKETCHINC
 40
1.0
  9
$FILLETRAD
 40
0.0
  9
$AUNITS
 70
     0
  9
$AUPREC
 70
     0
  9
$MENU
  1
.
  9
$ELEVATION
 40
0.0
  9
$PELEVATION
 40
0.0
  9
$THICKNESS
 40
0.0
  9
$LIMCHECK
 70
     0
  9
$CHAMFERA
 40
0.0
  9
$CHAMFERB
 40
0.0
  9
$CHAMFERC
 40
0.0
  9
$CHAMFERD
 40
0.0
  9
$SKPOLY
 70
     0
  9
$TDCREATE
 40
2455505.725807523
  9
$TDUCREATE
 40
2455505.392474190
  9
$TDUPDATE
 40
2457095.674464155
  9
$TDUUPDATE
 40
2457095.341130822
  9
$TDINDWG
 40
0.0498976389
  9
$TDUSRTIMER
 40
0.0498969213
  9
$USRTIMER
 70
     1
  9
$ANGBASE
 50
0.0
  9
$ANGDIR
 70
     0
  9
$PDMODE
 70
     0
  9
$PDSIZE
 40
0.0
  9
$PLINEWID
 40
0.0
  9
$SPLFRAME
 70
     0
  9
$SPLINETYPE
 70
     6
  9
$SPLINESEGS
 70
     8
  9
$HANDSEED
  5
39F
  9
$SURFTAB1
 70
     6
  9
$SURFTAB2
 70
     6
  9
$SURFTYPE
 70
     6
  9
$SURFU
 70
     6
  9
$SURFV
 70
     6
  9
$UCSBASE
  2

  9
$UCSNAME
  2

  9
$UCSORG
 10
0.0
 20
0.0
 30
0.0
  9
$UCSXDIR
 10
1.0
 20
0.0
 30
0.0
  9
$UCSYDIR
 10
0.0
 20
1.0
 30
0.0
  9
$UCSORTHOREF
  2

  9
$UCSORTHOVIEW
 70
     0
  9
$UCSORGTOP
 10
0.0
 20
0.0
 30
0.0
  9
$UCSORGBOTTOM
 10
0.0
 20
0.0
 30
0.0
  9
$UCSORGLEFT
 10
0.0
 20
0.0
 30
0.0
  9
$UCSORGRIGHT
 10
0.0
 20
0.0
 30
0.0
  9
$UCSORGFRONT
 10
0.0
 20
0.0
 30
0.0
  9
$UCSORGBACK
 10
0.0
 20
0.0
 30
0.0
  9
$PUCSBASE
  2

  9
$PUCSNAME
  2

  9
$PUCSORG
 10
0.0
 20
0.0
 30
0.0
  9
$PUCSXDIR
 10
1.0
 20
0.0
 30
0.0
  9
$PUCSYDIR
 10
0.0
 20
1.0
 30
0.0
  9
$PUCSORTHOREF
  2

  9
$PUCSORTHOVIEW
 70
     0
  9
$PUCSORGTOP
 10
0.0
 20
0.0
 30
0.0
  9
$PUCSORGBOTTOM
 10
0.0
 20
0.0
 30
0.0
  9
$PUCSORGLEFT
 10
0.0
 20
0.0
 30
0.0
  9
$PUCSORGRIGHT
 10
0.0
 20
0.0
 30
0.0
  9
$PUCSORGFRONT
 10
0.0
 20
0.0
 30
0.0
  9
$PUCSORGBACK
 10
0.0
 20
0.0
 30
0.0
  9
$USERI1
 70
     0
  9
$USERI2
 70
     0
  9
$USERI3
 70
     0
  9
$USERI4
 70
     0
  9
$USERI5
 70
     0
  9
$USERR1
 40
0.0
  9
$USERR2
 40
0.0
  9
$USERR3
 40
0.0
  9
$USERR4
 40
0.0
  9
$USERR5
 40
0.0
  9
$WORLDVIEW
 70
     1
  9
$SHADEDGE
 70
     3
  9
$SHADEDIF
 70
    70
  9
$TILEMODE
 70
     1
  9
$MAXACTVP
 70
    64
  9
$PINSBASE
 10
0.0
 20
0.0
 30
0.0
  9
$PLIMCHECK
 70
     0
  9
$PEXTMIN
 10
0.0
 20
0.0
 30
0.0
  9
$PEXTMAX
 10
0.0
 20
0.0
 30
0.0
  9
$PLIMMIN
 10
0.0
 20
0.0
  9
$PLIMMAX
 10
12.0
 20
9.0
  9
$UNITMODE
 70
     0
  9
$VISRETAIN
 70
     1
  9
$PLINEGEN
 70
     0
  9
$PSLTSCALE
 70
     1
  9
$TREEDEPTH
 70
  3020
  9
$CMLSTYLE
  2
Standard
  9
$CMLJUST
 70
     0
  9
$CMLSCALE
 40
20.0
  9
$PROXYGRAPHICS
 70
     1
  9
$MEASUREMENT
 70
     1
  9
$CELWEIGHT
370
    -1
  9
$ENDCAPS
280
     0
  9
$JOINSTYLE
280
     0
  9
$LWDISPLAY
290
     0
  9
$INSUNITS
 70
     4
  9
$HYPERLINKBASE
  1

  9
$STYLESHEET
  1

  9
$XEDIT
290
     1
  9
$CEPSNTYPE
380
     0
  9
$PSTYLEMODE
290
     1
  9
$FINGERPRINTGUID
  2
{FDEAD578-A652-11D2-9A35-0060089B3A3F}
  9
$VERSIONGUID
  2
{BA920664-49C6-46E9-8B86-6508BB97729B}
  9
$EXTNAMES
290
     1
  9
$PSVPSCALE
 40
0.0
  9
$OLESTARTUP
290
     0
  0
ENDSEC
  0
SECTION
  2
CLASSES
  0
CLASS
  1
ACDBDICTIONARYWDFLT
  2
AcDbDictionaryWithDefault
  3
ObjectDBX Classes
 90
        0
280
     0
281
     0
  0
CLASS
  1
ACDBPLACEHOLDER
  2
AcDbPlaceHolder
  3
ObjectDBX Classes
 90
        0
280
     0
281
     0
  0
CLASS
  1
LAYOUT
  2
AcDbLayout
  3
ObjectDBX Classes
 90
        0
280
     0
281
     0
  0
CLASS
  1
DICTIONARYVAR
  2
AcDbDictionaryVar
  3
ObjectDBX Classes
 90
        0
280
     0
281
     0
  0
ENDSEC
  0
SECTION
  2
TABLES
  0
TABLE
  2
VPORT
  5
8
330
0
100
AcDbSymbolTable
 70
     2
  0
VPORT
  5
395
330
8
100
AcDbSymbolTableRecord
100
AcDbViewportTableRecord
  2
*Active
 70
     0
 10
0.0
 20
0.0
 11
1.0
 21
1.0
 12
664.8061799480686
 22
467.7354136773768
 13
0.0
 23
0.0
 14
10.0
 24
10.0
 15
10.0
 25
10.0
 16
0.0
 26
0.0
 36
1.0
 17
0.0
 27
0.0
 37
0.0
 40
1548.965777257297
 41
1.68860353130016
 42
50.0
 43
0.0
 44
0.0
 50
0.0
 51
0.0
 71
     0
 72
  1000
 73
     1
 74
     3
 75
     0
 76
     0
 77
     0
 78
     0
281
     0
 65
     1
110
0.0
120
0.0
130
0.0
111
1.0
121
0.0
131
0.0
112
0.0
122
1.0
132
0.0
 79
     0
146
0.0
  0
ENDTAB
  0
TABLE
  2
LTYPE
  5
5
330
0
100
AcDbSymbolTable
 70
     1
  0
LTYPE
  5
14
330
5
100
AcDbSymbolTableRecord
100
AcDbLinetypeTableRecord
  2
ByBlock
 70
     0
  3

 72
    65
 73
     0
 40
0.0
  0
LTYPE
  5
15
330
5
100
AcDbSymbolTableRecord
100
AcDbLinetypeTableRecord
  2
ByLayer
 70
     0
  3

 72
    65
 73
     0
 40
0.0
  0
LTYPE
  5
16
330
5
100
AcDbSymbolTableRecord
100
AcDbLinetypeTableRecord
  2
Continuous
 70
     0
  3
Solid line
 72
    65
 73
     0
 40
0.0
  0
ENDTAB
  0
TABLE
  2
LAYER
  5
2
330
0
100
AcDbSymbolTable
 70
     4
  0
LAYER
  5
10
330
2
100
AcDbSymbolTableRecord
100
AcDbLayerTableRecord
  2
0
 70
     0
 62
     2
  6
Continuous
370
    -3
390
F
  0
LAYER
  5
94
330
2
100
AcDbSymbolTableRecord
100
AcDbLayerTableRecord
  2
1
 70
     0
 62
     1
  6
Continuous
370
    -3
390
F
  0
LAYER
  5
95
330
2
100
AcDbSymbolTableRecord
100
AcDbLayerTableRecord
  2
2
 70
     0
 62
     7
  6
Continuous
370
    -3
390
F
  0
LAYER
  5
10E
330
2
100
AcDbSymbolTableRecord
100
AcDbLayerTableRecord
  2
3
 70
     0
 62
     7
  6
Continuous
370
    -3
390
F
  0
ENDTAB
  0
TABLE
  2
STYLE
  5
3
330
0
100
AcDbSymbolTable
 70
     1
  0
STYLE
  5
11
330
3
100
AcDbSymbolTableRecord
100
AcDbTextStyleTableRecord
  2
Standard
 70
     0
 40
0.0
 41
1.0
 50
0.0
 71
     0
 42
2.5
  3
txt
  4

  0
ENDTAB
  0
TABLE
  2
VIEW
  5
6
330
0
100
AcDbSymbolTable
 70
     0
  0
ENDTAB
  0
TABLE
  2
UCS
  5
7
330
0
100
AcDbSymbolTable
 70
     0
  0
ENDTAB
  0
TABLE
  2
APPID
  5
9
330
0
100
AcDbSymbolTable
 70
     1
  0
APPID
  5
12
330
9
100
AcDbSymbolTableRecord
100
AcDbRegAppTableRecord
  2
ACAD
 70
     0
  0
ENDTAB
  0
TABLE
  2
DIMSTYLE
  5
A
330
0
100
AcDbSymbolTable
 70
     1
100
AcDbDimStyleTable
 71
     0
  0
DIMSTYLE
105
27
330
A
100
AcDbSymbolTableRecord
100
AcDbDimStyleTableRecord
  2
ISO-25
 70
     0
 41
2.5
 42
0.625
 43
3.75
 44
1.25
 73
     0
 74
     0
 77
     1
 78
     8
140
2.5
141
2.5
143
0.03937007874016
147
0.625
171
     3
172
     1
271
     2
272
     2
274
     3
278
    44
283
     0
284
     8
340
11
  0
ENDTAB
  0
TABLE
  2
BLOCK_RECORD
  5
1
330
0
100
AcDbSymbolTable
 70
     1
  0
BLOCK_RECORD
  5
1F
330
1
100
AcDbSymbolTableRecord
100
AcDbBlockTableRecord
  2
*Model_Space
340
22
  0
BLOCK_RECORD
  5
50
330
1
100
AcDbSymbolTableRecord
100
AcDbBlockTableRecord
  2
*Paper_Space
340
51
  0
BLOCK_RECORD
  5
55
330
1
100
AcDbSymbolTableRecord
100
AcDbBlockTableRecord
  2
*Paper_Space0
340
56
  0
ENDTAB
  0
ENDSEC
  0
SECTION
  2
BLOCKS
  0
BLOCK
  5
20
330
1F
100
AcDbEntity
  8
0
100
AcDbBlockBegin
  2
*Model_Space
 70
     0
 10
0.0
 20
0.0
 30
0.0
  3
*Model_Space
  1

  0
ENDBLK
  5
21
330
1F
100
AcDbEntity
  8
0
100
AcDbBlockEnd
  0
BLOCK
  5
52
330
50
100
AcDbEntity
 67
     1
  8
0
100
AcDbBlockBegin
  2
*Paper_Space
 70
     0
 10
0.0
 20
0.0
 30
0.0
  3
*Paper_Space
  1

  0
ENDBLK
  5
53
330
50
100
AcDbEntity
 67
     1
  8
0
100
AcDbBlockEnd
  0
BLOCK
  5
57
330
55
100
AcDbEntity
  8
0
100
AcDbBlockBegin
  2
*Paper_Space0
 70
     0
 10
0.0
 20
0.0
 30
0.0
  3
*Paper_Space0
  1

  0
ENDBLK
  5
58
330
55
100
AcDbEntity
  8
0
100
AcDbBlockEnd
  0
ENDSEC
  0
SECTION
  2
ENTITIES
  0
LINE
  5
2EB
330
1F
100
AcDbEntity
  8
3
100
AcDbLine
 10
434.1076562898888
 20
65.22159715031739
 30
0.0
 11
499.9999964998424
 21
65.22159715031739
 31
0.0
  0
LINE
  5
2EC
330
1F
100
AcDbEntity
  8
3
100
AcDbLine
 10
434.1076562898888
 20
74.30113444758899
 30
0.0
 11
450.9278111609528
 21
74.30113444758899
 31
0.0
  0
LINE
  5
2ED
330
1F
100
AcDbEntity
  8
3
100
AcDbLine
 10
434.1076562898888
 20
83.38067174486059
 30
0.0
 11
450.9278111609528
 21
83.38067174486059
 31
0.0
  0
LINE
  5
2EE
330
1F
100
AcDbEntity
  8
3
100
AcDbLine
 10
434.1076562898888
 20
101.5397463394038
 30
0.0
 11
450.9278111609528
 21
101.5397463394038
 31
0.0
  0
LINE
  5
2EF
330
1F
100
AcDbEntity
  8
3
100
AcDbLine
 10
434.1076562898888
 20
92.46020904213221
 30
0.0
 11
450.9278111609528
 21
92.46020904213221
 31
0.0
  0
LINE
  5
2F0
330
1F
100
AcDbEntity
  8
3
100
AcDbLine
 10
434.1076562898888
 20
110.6192836366754
 30
0.0
 11
450.9278111609528
 21
110.6192836366754
 31
0.0
  0
LINE
  5
2F1
330
1F
100
AcDbEntity
  8
3
100
AcDbLine
 10
434.1076562898888
 20
110.6192836366754
 30
0.0
 11
467.0538263948691
 21
110.6192836366754
 31
0.0
  0
LINE
  5
2F2
330
1F
100
AcDbEntity
  8
3
100
AcDbLine
 10
434.1076562898888
 20
156.0169701230407
 30
0.0
 11
499.9999964998424
 21
156.0169701230407
 31
0.0
  0
LINE
  5
2F3
330
1F
100
AcDbEntity
  8
3
100
AcDbLine
 10
434.1076562898888
 20
156.0169701230407
 30
0.0
 11
450.9278111609528
 21
156.0169701230407
 31
0.0
  0
LINE
  5
2F4
330
1F
100
AcDbEntity
  8
3
100
AcDbLine
 10
434.1076562898888
 20
137.8578955284902
 30
0.0
 11
450.9278111609528
 21
137.8578955284902
 31
0.0
  0
LINE
  5
2F5
330
1F
100
AcDbEntity
  8
3
100
AcDbLine
 10
434.1076562898888
 20
146.937432825769
 30
0.0
 11
450.9278111609528
 21
146.937432825769
 31
0.0
  0
LINE
  5
2F6
330
1F
100
AcDbEntity
  8
3
100
AcDbLine
 10
434.1076562898888
 20
128.7783582312186
 30
0.0
 11
450.9278111609528
 21
128.7783582312186
 31
0.0
  0
LINE
  5
2F7
330
1F
100
AcDbEntity
  8
3
100
AcDbLine
 10
434.1076562898888
 20
119.698820933947
 30
0.0
 11
450.9278111609528
 21
119.698820933947
 31
0.0
  0
LINE
  5
2F8
330
1F
100
AcDbEntity
  8
3
100
AcDbLine
 10
434.1076562898888
 20
210.4941939066703
 30
0.0
 11
450.9278111609528
 21
210.4941939066703
 31
0.0
  0
LINE
  5
2F9
330
1F
100
AcDbEntity
  8
3
100
AcDbLine
 10
434.1076562898888
 20
219.5737312039419
 30
0.0
 11
450.9278111609528
 21
219.5737312039419
 31
0.0
  0
LINE
  5
2FA
330
1F
100
AcDbEntity
  8
3
100
AcDbLine
 10
434.1076562898888
 20
237.7328057984923
 30
0.0
 11
450.9278111609528
 21
237.7328057984923
 31
0.0
  0
LINE
  5
2FB
330
1F
100
AcDbEntity
  8
3
100
AcDbLine
 10
434.1076562898888
 20
228.6532685012208
 30
0.0
 11
450.9278111609528
 21
228.6532685012208
 31
0.0
  0
LINE
  5
2FC
330
1F
100
AcDbEntity
  8
3
100
AcDbLine
 10
434.1076562898888
 20
246.8123430957639
 30
0.0
 11
450.9278111609528
 21
246.8123430957639
 31
0.0
  0
LINE
  5
2FD
330
1F
100
AcDbEntity
  8
3
100
AcDbLine
 10
434.1076562898888
 20
246.8123430957639
 30
0.0
 11
499.9999964998424
 21
246.8123430957639
 31
0.0
  0
LINE
  5
2FE
330
1F
100
AcDbEntity
  8
3
100
AcDbLine
 10
434.1076562898888
 20
201.4146566093987
 30
0.0
 11
457.6801012662833
 21
201.4146566094059
 31
0.0
  0
LINE
  5
2FF
330
1F
100
AcDbEntity
  8
3
100
AcDbLine
 10
434.1076562898888
 20
201.4146566093987
 30
0.0
 11
467.0538263948691
 21
201.4146566093987
 31
0.0
  0
LINE
  5
300
330
1F
100
AcDbEntity
  8
3
100
AcDbLine
 10
434.1076562898888
 20
183.2555820148554
 30
0.0
 11
450.9278111609528
 21
183.2555820148554
 31
0.0
  0
LINE
  5
301
330
1F
100
AcDbEntity
  8
3
100
AcDbLine
 10
434.1076562898888
 20
192.335119312127
 30
0.0
 11
450.9278111609528
 21
192.335119312127
 31
0.0
  0
LINE
  5
302
330
1F
100
AcDbEntity
  8
3
100
AcDbLine
 10
434.1076562898888
 20
174.1760447175838
 30
0.0
 11
450.9278111609528
 21
174.1760447175838
 31
0.0
  0
LINE
  5
303
330
1F
100
AcDbEntity
  8
3
100
AcDbLine
 10
434.1076562898888
 20
165.0965074203122
 30
0.0
 11
450.9278111609528
 21
165.0965074203122
 31
0.0
  0
LINE
  5
304
330
1F
100
AcDbEntity
  8
3
100
AcDbLine
 10
434.1076562898888
 20
346.6872533657588
 30
0.0
 11
450.9278111609528
 21
346.6872533657588
 31
0.0
  0
LINE
  5
305
330
1F
100
AcDbEntity
  8
3
100
AcDbLine
 10
434.1076562898888
 20
355.7667906630304
 30
0.0
 11
450.9278111609528
 21
355.7667906630304
 31
0.0
  0
LINE
  5
306
330
1F
100
AcDbEntity
  8
3
100
AcDbLine
 10
434.1076562898888
 20
373.9258652575736
 30
0.0
 11
450.9278111609528
 21
373.9258652575736
 31
0.0
  0
LINE
  5
307
330
1F
100
AcDbEntity
  8
3
100
AcDbLine
 10
434.1076562898888
 20
364.8463279603019
 30
0.0
 11
450.9278111609528
 21
364.8463279603019
 31
0.0
  0
LINE
  5
308
330
1F
100
AcDbEntity
  8
3
100
AcDbLine
 10
434.1076562898888
 20
383.0054025548452
 30
0.0
 11
450.9278111609528
 21
383.0054025548452
 31
0.0
  0
LINE
  5
309
330
1F
100
AcDbEntity
  8
3
100
AcDbLine
 10
434.1076562898888
 20
383.0054025548452
 30
0.0
 11
467.0538263948691
 21
383.0054025548452
 31
0.0
  0
LINE
  5
30A
330
1F
100
AcDbEntity
  8
3
100
AcDbLine
 10
434.1076562898888
 20
428.4030890412104
 30
0.0
 11
499.9999964998424
 21
428.4030890412104
 31
0.0
  0
LINE
  5
30B
330
1F
100
AcDbEntity
  8
3
100
AcDbLine
 10
434.1076562898888
 20
428.4030890412104
 30
0.0
 11
450.9278111609528
 21
428.4030890412104
 31
0.0
  0
LINE
  5
30C
330
1F
100
AcDbEntity
  8
3
100
AcDbLine
 10
434.1076562898888
 20
410.2440144466672
 30
0.0
 11
450.9278111609528
 21
410.2440144466672
 31
0.0
  0
LINE
  5
30D
330
1F
100
AcDbEntity
  8
3
100
AcDbLine
 10
434.1076562898888
 20
419.3235517439388
 30
0.0
 11
450.9278111609528
 21
419.3235517439388
 31
0.0
  0
LINE
  5
30E
330
1F
100
AcDbEntity
  8
3
100
AcDbLine
 10
434.1076562898888
 20
401.1644771493957
 30
0.0
 11
450.9278111609528
 21
401.1644771493957
 31
0.0
  0
LINE
  5
30F
330
1F
100
AcDbEntity
  8
3
100
AcDbLine
 10
434.1076562898888
 20
392.0849398521241
 30
0.0
 11
450.9278111609528
 21
392.0849398521241
 31
0.0
  0
LINE
  5
310
330
1F
100
AcDbEntity
  8
3
100
AcDbLine
 10
434.1076562898888
 20
301.2895668793935
 30
0.0
 11
450.9278111609528
 21
301.2895668793935
 31
0.0
  0
LINE
  5
311
330
1F
100
AcDbEntity
  8
3
100
AcDbLine
 10
434.1076562898888
 20
310.3691041766723
 30
0.0
 11
450.9278111609528
 21
310.3691041766723
 31
0.0
  0
LINE
  5
312
330
1F
100
AcDbEntity
  8
3
100
AcDbLine
 10
434.1076562898888
 20
328.5281787712156
 30
0.0
 11
450.9278111609528
 21
328.5281787712156
 31
0.0
  0
LINE
  5
313
330
1F
100
AcDbEntity
  8
3
100
AcDbLine
 10
434.1076562898888
 20
319.448641473944
 30
0.0
 11
450.9278111609528
 21
319.448641473944
 31
0.0
  0
LINE
  5
314
330
1F
100
AcDbEntity
  8
3
100
AcDbLine
 10
434.1076562898888
 20
337.6077160684872
 30
0.0
 11
450.9278111609528
 21
337.6077160684872
 31
0.0
  0
LINE
  5
315
330
1F
100
AcDbEntity
  8
3
100
AcDbLine
 10
434.1076562898888
 20
337.6077160684872
 30
0.0
 11
499.9999964998424
 21
337.6077160684872
 31
0.0
  0
LINE
  5
316
330
1F
100
AcDbEntity
  8
3
100
AcDbLine
 10
434.1076562898888
 20
292.2100295821219
 30
0.0
 11
457.6801012662833
 21
292.2100295821219
 31
0.0
  0
LINE
  5
317
330
1F
100
AcDbEntity
  8
3
100
AcDbLine
 10
434.1076562898888
 20
292.2100295821219
 30
0.0
 11
467.0538263948691
 21
292.2100295821219
 31
0.0
  0
LINE
  5
318
330
1F
100
AcDbEntity
  8
3
100
AcDbLine
 10
434.1076562898888
 20
274.0509549875787
 30
0.0
 11
450.9278111609528
 21
274.0509549875787
 31
0.0
  0
LINE
  5
319
330
1F
100
AcDbEntity
  8
3
100
AcDbLine
 10
434.1076562898888
 20
283.1304922848503
 30
0.0
 11
450.9278111609528
 21
283.1304922848503
 31
0.0
  0
LINE
  5
31A
330
1F
100
AcDbEntity
  8
3
100
AcDbLine
 10
434.1076562898888
 20
264.9714176903071
 30
0.0
 11
450.9278111609528
 21
264.9714176903071
 31
0.0
  0
LINE
  5
31B
330
1F
100
AcDbEntity
  8
3
100
AcDbLine
 10
434.1076562898888
 20
255.8918803930355
 30
0.0
 11
450.9278111609528
 21
255.8918803930355
 31
0.0
  0
LINE
  5
31C
330
1F
100
AcDbEntity
  8
3
100
AcDbLine
 10
434.1076562898888
 20
619.032542971312
 30
0.0
 11
450.9278111609528
 21
619.032542971312
 31
0.0
  0
LINE
  5
31D
330
1F
100
AcDbEntity
  8
3
100
AcDbLine
 10
434.1076562898888
 20
628.1120802685908
 30
0.0
 11
450.9278111609528
 21
628.1120802685908
 31
0.0
  0
LINE
  5
31E
330
1F
100
AcDbEntity
  8
3
100
AcDbLine
 10
434.1076562898888
 20
646.2711548631341
 30
0.0
 11
450.9278111609528
 21
646.2711548631341
 31
0.0
  0
LINE
  5
31F
330
1F
100
AcDbEntity
  8
3
100
AcDbLine
 10
434.1076562898888
 20
637.1916175658626
 30
0.0
 11
450.9278111609528
 21
637.1916175658626
 31
0.0
  0
LINE
  5
320
330
1F
100
AcDbEntity
  8
3
100
AcDbLine
 10
434.1076562898888
 20
655.3506921604057
 30
0.0
 11
450.9278111609528
 21
655.3506921604057
 31
0.0
  0
LINE
  5
321
330
1F
100
AcDbEntity
  8
3
100
AcDbLine
 10
434.1076562898888
 20
655.3506921604057
 30
0.0
 11
467.0538263948691
 21
655.3506921604057
 31
0.0
  0
LINE
  5
322
330
1F
100
AcDbEntity
  8
3
100
AcDbLine
 10
434.1076562898888
 20
664.4302294576772
 30
0.0
 11
450.9278111609528
 21
664.4302294576772
 31
0.0
  0
LINE
  5
323
330
1F
100
AcDbEntity
  8
3
100
AcDbLine
 10
434.1076562898888
 20
528.2371699985961
 30
0.0
 11
450.9278111609528
 21
528.2371699985961
 31
0.0
  0
LINE
  5
324
330
1F
100
AcDbEntity
  8
3
100
AcDbLine
 10
434.1076562898888
 20
537.3167072958676
 30
0.0
 11
450.9278111609528
 21
537.3167072958676
 31
0.0
  0
LINE
  5
325
330
1F
100
AcDbEntity
  8
3
100
AcDbLine
 10
434.1076562898888
 20
555.4757818904108
 30
0.0
 11
450.9278111609528
 21
555.4757818904108
 31
0.0
  0
LINE
  5
326
330
1F
100
AcDbEntity
  8
3
100
AcDbLine
 10
434.1076562898888
 20
546.3962445931391
 30
0.0
 11
450.9278111609528
 21
546.3962445931391
 31
0.0
  0
LINE
  5
327
330
1F
100
AcDbEntity
  8
3
100
AcDbLine
 10
434.1076562898888
 20
564.5553191876825
 30
0.0
 11
450.9278111609528
 21
564.5553191876825
 31
0.0
  0
LINE
  5
328
330
1F
100
AcDbEntity
  8
3
100
AcDbLine
 10
434.1076562898888
 20
564.5553191876825
 30
0.0
 11
467.0538263948691
 21
564.5553191876825
 31
0.0
  0
LINE
  5
329
330
1F
100
AcDbEntity
  8
3
100
AcDbLine
 10
434.1076562898888
 20
609.9530056740477
 30
0.0
 11
499.9999964998424
 21
609.9530056740477
 31
0.0
  0
LINE
  5
32A
330
1F
100
AcDbEntity
  8
3
100
AcDbLine
 10
434.1076562898888
 20
609.9530056740477
 30
0.0
 11
450.9278111609528
 21
609.9530056740477
 31
0.0
  0
LINE
  5
32B
330
1F
100
AcDbEntity
  8
3
100
AcDbLine
 10
434.1076562898888
 20
591.7939310795044
 30
0.0
 11
450.9278111609528
 21
591.7939310795044
 31
0.0
  0
LINE
  5
32C
330
1F
100
AcDbEntity
  8
3
100
AcDbLine
 10
434.1076562898888
 20
600.8734683767761
 30
0.0
 11
450.9278111609528
 21
600.8734683767761
 31
0.0
  0
LINE
  5
32D
330
1F
100
AcDbEntity
  8
3
100
AcDbLine
 10
434.1076562898888
 20
582.7143937822256
 30
0.0
 11
450.9278111609528
 21
582.7143937822256
 31
0.0
  0
LINE
  5
32E
330
1F
100
AcDbEntity
  8
3
100
AcDbLine
 10
434.1076562898888
 20
573.634856484954
 30
0.0
 11
450.9278111609528
 21
573.634856484954
 31
0.0
  0
LINE
  5
32F
330
1F
100
AcDbEntity
  8
3
100
AcDbLine
 10
434.1076562898888
 20
482.8394835122308
 30
0.0
 11
450.9278111609528
 21
482.8394835122308
 31
0.0
  0
LINE
  5
330
330
1F
100
AcDbEntity
  8
3
100
AcDbLine
 10
434.1076562898888
 20
491.9190208095024
 30
0.0
 11
450.9278111609528
 21
491.9190208095024
 31
0.0
  0
LINE
  5
331
330
1F
100
AcDbEntity
  8
3
100
AcDbLine
 10
434.1076562898888
 20
510.0780954040528
 30
0.0
 11
450.9278111609528
 21
510.0780954040528
 31
0.0
  0
LINE
  5
332
330
1F
100
AcDbEntity
  8
3
100
AcDbLine
 10
434.1076562898888
 20
500.998558106774
 30
0.0
 11
450.9278111609528
 21
500.998558106774
 31
0.0
  0
LINE
  5
333
330
1F
100
AcDbEntity
  8
3
100
AcDbLine
 10
434.1076562898888
 20
519.1576327013243
 30
0.0
 11
450.9278111609528
 21
519.1576327013243
 31
0.0
  0
LINE
  5
334
330
1F
100
AcDbEntity
  8
3
100
AcDbLine
 10
434.1076562898888
 20
519.1576327013243
 30
0.0
 11
499.9999964998424
 21
519.1576327013243
 31
0.0
  0
LINE
  5
335
330
1F
100
AcDbEntity
  8
3
100
AcDbLine
 10
434.1076562898888
 20
473.759946214959
 30
0.0
 11
467.0538263948691
 21
473.759946214959
 31
0.0
  0
LINE
  5
336
330
1F
100
AcDbEntity
  8
3
100
AcDbLine
 10
434.1076562898888
 20
473.759946214959
 30
0.0
 11
450.9278111609528
 21
473.759946214959
 31
0.0
  0
LINE
  5
337
330
1F
100
AcDbEntity
  8
3
100
AcDbLine
 10
434.1076562898888
 20
455.600871620416
 30
0.0
 11
450.9278111609528
 21
455.600871620416
 31
0.0
  0
LINE
  5
338
330
1F
100
AcDbEntity
  8
3
100
AcDbLine
 10
434.1076562898888
 20
464.6804089176876
 30
0.0
 11
450.9278111609528
 21
464.6804089176876
 31
0.0
  0
LINE
  5
339
330
1F
100
AcDbEntity
  8
3
100
AcDbLine
 10
434.1076562898888
 20
446.5213343231444
 30
0.0
 11
450.9278111609528
 21
446.5213343231444
 31
0.0
  0
LINE
  5
33A
330
1F
100
AcDbEntity
  8
3
100
AcDbLine
 10
434.1076562898888
 20
437.4417970258726
 30
0.0
 11
450.9278111609528
 21
437.4417970258726
 31
0.0
  0
LINE
  5
33B
330
1F
100
AcDbEntity
  8
3
100
AcDbLine
 10
434.1076562898888
 20
709.8279159440425
 30
0.0
 11
450.9278111609528
 21
709.8279159440425
 31
0.0
  0
LINE
  5
33C
330
1F
100
AcDbEntity
  8
3
100
AcDbLine
 10
434.1076562898888
 20
718.9074532413142
 30
0.0
 11
450.9278111609528
 21
718.9074532413142
 31
0.0
  0
LINE
  5
33D
330
1F
100
AcDbEntity
  8
3
100
AcDbLine
 10
434.1076562898888
 20
737.0665278358574
 30
0.0
 11
450.9278111609528
 21
737.0665278358574
 31
0.0
  0
LINE
  5
33E
330
1F
100
AcDbEntity
  8
3
100
AcDbLine
 10
434.1076562898888
 20
727.9869905385858
 30
0.0
 11
450.9278111609528
 21
727.9869905385858
 31
0.0
  0
LINE
  5
33F
330
1F
100
AcDbEntity
  8
3
100
AcDbLine
 10
434.1076562898888
 20
700.7483786467637
 30
0.0
 11
499.9999964998424
 21
700.7483786467709
 31
0.0
  0
LINE
  5
340
330
1F
100
AcDbEntity
  8
3
100
AcDbLine
 10
434.1076562898888
 20
700.7483786467637
 30
0.0
 11
450.9278111609528
 21
700.7483786467637
 31
0.0
  0
LINE
  5
341
330
1F
100
AcDbEntity
  8
3
100
AcDbLine
 10
434.1076562898888
 20
682.5893040522278
 30
0.0
 11
450.9278111609528
 21
682.5893040522278
 31
0.0
  0
LINE
  5
342
330
1F
100
AcDbEntity
  8
3
100
AcDbLine
 10
434.1076562898888
 20
691.668841349499
 30
0.0
 11
450.9278111609528
 21
691.668841349499
 31
0.0
  0
LINE
  5
343
330
1F
100
AcDbEntity
  8
3
100
AcDbLine
 10
434.1076562898888
 20
673.5097667549561
 30
0.0
 11
450.9278111609528
 21
673.5097667549561
 31
0.0
  0
LINE
  5
344
330
1F
100
AcDbEntity
  8
3
100
AcDbLine
 10
434.1076562898888
 20
746.1460651331288
 30
0.0
 11
467.0538263948691
 21
746.1460651331288
 31
0.0
  0
LWPOLYLINE
  5
345
330
1F
100
AcDbEntity
  8
0
 62
     2
100
AcDbPolyline
 90
        4
 70
     1
 43
0.0
 10
-0.000003500157618
 20
0.0000266652859864
 10
999.9999964998423
 20
0.0000266652859864
 10
999.9999964998423
 20
1000.000026665286
 10
-0.000003500157618
 20
1000.000026665286
  0
LINE
  5
346
330
1F
100
AcDbEntity
  8
1
 62
     1
100
AcDbLine
 10
619.3826931241909
 20
967.6454791145035
 30
0.0
 11
378.5566282751042
 21
967.6454791145031
 31
0.0
  0
LINE
  5
347
330
1F
100
AcDbEntity
  8
1
 62
     1
100
AcDbLine
 10
378.5566282751042
 20
967.6454791145031
 30
0.0
 11
378.5566282751042
 21
32.35458072729307
 31
0.0
  0
LINE
  5
348
330
1F
100
AcDbEntity
  8
1
 62
     1
100
AcDbLine
 10
378.5566282751042
 20
32.35458072729307
 30
0.0
 11
619.3826931241909
 21
32.35458072729307
 31
0.0
  0
LINE
  5
349
330
1F
100
AcDbEntity
  8
1
 62
     1
100
AcDbLine
 10
619.3826931241909
 20
32.35458072729307
 30
0.0
 11
619.3826931241909
 21
967.6454791145031
 31
0.0
  0
LINE
  5
34A
330
1F
100
AcDbEntity
  8
3
100
AcDbLine
 10
413.8251431199821
 20
949.6113166992218
 30
0.0
 11
434.1076562898888
 21
938.5556036102423
 31
0.0
  0
LINE
  5
34B
330
1F
100
AcDbEntity
  8
3
100
AcDbLine
 10
434.1076562898813
 20
65.22159715031739
 30
0.0
 11
565.8923367098032
 21
65.22159715031012
 31
0.0
  0
LINE
  5
34C
330
1F
100
AcDbEntity
  8
3
100
AcDbLine
 10
575.9633964709283
 20
57.2215971503101
 30
0.0
 11
565.8923367098032
 21
65.22159715031012
 31
0.0
  0
LINE
  5
34D
330
1F
100
AcDbEntity
  8
3
100
AcDbLine
 10
575.9633964709283
 20
57.2215971503101
 30
0.0
 11
565.8923367098032
 21
49.22159715031011
 31
0.0
  0
LINE
  5
34E
330
1F
100
AcDbEntity
  8
3
100
AcDbLine
 10
424.0365965287565
 20
57.2215971503101
 30
0.0
 11
434.1076562898813
 21
49.22159715031011
 31
0.0
  0
LINE
  5
34F
330
1F
100
AcDbEntity
  8
3
100
AcDbLine
 10
424.0365965287565
 20
57.2215971503101
 30
0.0
 11
434.1076562898813
 21
65.22159715031012
 31
0.0
  0
LINE
  5
350
330
1F
100
AcDbEntity
  8
3
100
AcDbLine
 10
434.1076562898813
 20
49.22159715031011
 30
0.0
 11
565.8923367098032
 21
49.22159715031011
 31
0.0
  0
LINE
  5
351
330
1F
100
AcDbEntity
  8
3
100
AcDbLine
 10
434.1076562899107
 20
791.5437516195012
 30
0.0
 11
499.9999964998642
 21
791.5437516195012
 31
0.0
  0
LINE
  5
352
330
1F
100
AcDbEntity
  8
3
100
AcDbLine
 10
434.1076562899107
 20
836.9414381058595
 30
0.0
 11
467.0538263948838
 21
836.9414381058595
 31
0.0
  0
LINE
  5
353
330
1F
100
AcDbEntity
  8
3
100
AcDbLine
 10
434.1076562899107
 20
927.7368110785827
 30
0.0
 11
467.0538263948838
 21
927.7368110785827
 31
0.0
  0
LINE
  5
354
330
1F
100
AcDbEntity
  8
3
100
AcDbLine
 10
434.1076562899107
 20
855.1005127004101
 30
0.0
 11
450.9278111609746
 21
855.1005127004101
 31
0.0
  0
LINE
  5
355
330
1F
100
AcDbEntity
  8
3
100
AcDbLine
 10
434.1076562899107
 20
873.2595872949532
 30
0.0
 11
450.9278111609746
 21
873.2595872949532
 31
0.0
  0
LINE
  5
356
330
1F
100
AcDbEntity
  8
3
100
AcDbLine
 10
434.1076562899107
 20
864.1800499976817
 30
0.0
 11
450.9278111609746
 21
864.1800499976817
 31
0.0
  0
LINE
  5
357
330
1F
100
AcDbEntity
  8
3
100
AcDbLine
 10
434.1076562899107
 20
882.3391245922175
 30
0.0
 11
450.9278111609746
 21
882.3391245922175
 31
0.0
  0
LINE
  5
358
330
1F
100
AcDbEntity
  8
3
100
AcDbLine
 10
434.1076562899107
 20
882.3391245922175
 30
0.0
 11
499.9999964998642
 21
882.3391245922246
 31
0.0
  0
LINE
  5
359
330
1F
100
AcDbEntity
  8
3
100
AcDbLine
 10
434.1076562899107
 20
909.5777364840396
 30
0.0
 11
450.9278111609746
 21
909.5777364840396
 31
0.0
  0
LINE
  5
35A
330
1F
100
AcDbEntity
  8
3
100
AcDbLine
 10
434.1076562899107
 20
918.6572737813111
 30
0.0
 11
450.9278111609746
 21
918.6572737813111
 31
0.0
  0
LINE
  5
35B
330
1F
100
AcDbEntity
  8
3
100
AcDbLine
 10
434.1076562899107
 20
900.498199186768
 30
0.0
 11
450.9278111609746
 21
900.498199186768
 31
0.0
  0
LINE
  5
35C
330
1F
100
AcDbEntity
  8
3
100
AcDbLine
 10
434.1076562899107
 20
891.4186618894962
 30
0.0
 11
450.9278111609746
 21
891.4186618894962
 31
0.0
  0
LINE
  5
35D
330
1F
100
AcDbEntity
  8
3
100
AcDbLine
 10
434.1076562899107
 20
846.0209754031311
 30
0.0
 11
450.9278111609746
 21
846.0209754031311
 31
0.0
  0
LINE
  5
35E
330
1F
100
AcDbEntity
  8
3
100
AcDbLine
 10
434.1076562899107
 20
836.9414381058595
 30
0.0
 11
450.9278111609746
 21
836.9414381058595
 31
0.0
  0
LINE
  5
35F
330
1F
100
AcDbEntity
  8
3
100
AcDbLine
 10
434.1076562899107
 20
818.782363511316
 30
0.0
 11
450.9278111609746
 21
818.782363511316
 31
0.0
  0
LINE
  5
360
330
1F
100
AcDbEntity
  8
3
100
AcDbLine
 10
434.1076562899107
 20
827.8619008085879
 30
0.0
 11
450.9278111609746
 21
827.8619008085879
 31
0.0
  0
LINE
  5
361
330
1F
100
AcDbEntity
  8
3
100
AcDbLine
 10
434.1076562899107
 20
809.7028262140447
 30
0.0
 11
450.9278111609746
 21
809.7028262140447
 31
0.0
  0
LINE
  5
362
330
1F
100
AcDbEntity
  8
3
100
AcDbLine
 10
434.1076562899107
 20
800.6232889167659
 30
0.0
 11
450.9278111609746
 21
800.6232889167659
 31
0.0
  0
LINE
  5
363
330
1F
100
AcDbEntity
  8
3
100
AcDbLine
 10
434.1076562899107
 20
755.2256024304075
 30
0.0
 11
450.9278111609746
 21
755.2256024304075
 31
0.0
  0
LINE
  5
364
330
1F
100
AcDbEntity
  8
3
100
AcDbLine
 10
434.1076562899107
 20
764.3051397276795
 30
0.0
 11
450.9278111609746
 21
764.3051397276795
 31
0.0
  0
LINE
  5
365
330
1F
100
AcDbEntity
  8
3
100
AcDbLine
 10
434.1076562899107
 20
782.4642143222299
 30
0.0
 11
450.9278111609746
 21
782.4642143222299
 31
0.0
  0
LINE
  5
366
330
1F
100
AcDbEntity
  8
3
100
AcDbLine
 10
434.1076562899107
 20
773.3846770249581
 30
0.0
 11
450.9278111609746
 21
773.3846770249581
 31
0.0
  0
LINE
  5
367
330
1F
100
AcDbEntity
  8
3
100
AcDbLine
 10
434.1076562899107
 20
791.5437516195012
 30
0.0
 11
450.9278111609746
 21
791.5437516195012
 31
0.0
  0
LINE
  5
368
330
1F
100
AcDbEntity
  8
3
100
AcDbLine
 10
434.1076562898888
 20
938.5556036102423
 30
0.0
 11
434.1076562898888
 21
65.22159715031739
 31
0.0
  0
LINE
  5
369
330
1F
100
AcDbEntity
  8
3
100
AcDbLine
 10
565.8923367098032
 20
65.22159715031012
 30
0.0
 11
565.8923367098032
 21
949.6113166992218
 31
0.0
  0
LINE
  5
36A
330
1F
100
AcDbEntity
  8
3
100
AcDbLine
 10
565.8923367098032
 20
949.6113166992218
 30
0.0
 11
413.8251431199821
 21
949.6113166992218
 31
0.0
  0
ENDSEC
  0
SECTION
  2
OBJECTS
  0
DICTIONARY
  5
C
330
0
100
AcDbDictionary
281
     1
  3
ACAD_COLOR
350
6B
  3
ACAD_GROUP
350
D
  3
ACAD_LAYOUT
350
1A
  3
ACAD_MATERIAL
350
6A
  3
ACAD_MLINESTYLE
350
17
  3
ACAD_PLOTSETTINGS
350
19
  3
ACAD_PLOTSTYLENAME
350
E
  3
ACDBHEADERROUNDTRIPXREC
350
396
  3
AcDbVariableDictionary
350
5E
  0
DICTIONARY
  5
6B
102
{ACAD_REACTORS
330
C
102
}
330
C
100
AcDbDictionary
281
     1
  0
DICTIONARY
  5
D
102
{ACAD_REACTORS
330
C
102
}
330
C
100
AcDbDictionary
281
     1
  0
DICTIONARY
  5
1A
102
{ACAD_REACTORS
330
C
102
}
330
C
100
AcDbDictionary
281
     1
  3
Layout1
350
51
  3
Layout2
350
56
  3
Model
350
22
  0
DICTIONARY
  5
6A
102
{ACAD_REACTORS
330
C
102
}
330
C
100
AcDbDictionary
281
     1
  0
DICTIONARY
  5
17
102
{ACAD_REACTORS
330
C
102
}
330
C
100
AcDbDictionary
281
     1
  3
Standard
350
18
  0
DICTIONARY
  5
19
102
{ACAD_REACTORS
330
C
102
}
330
C
100
AcDbDictionary
281
     1
  0
ACDBDICTIONARYWDFLT
  5
E
102
{ACAD_REACTORS
330
C
102
}
330
C
100
AcDbDictionary
281
     1
  3
Normal
350
F
100
AcDbDictionaryWithDefault
340
F
  0
DICTIONARY
  5
396
102
{ACAD_REACTORS
330
C
102
}
330
C
100
AcDbDictionary
281
     1
  3
COLORDICT
350
398
  3
MATERIALDICT
350
397
  0
DICTIONARY
  5
5E
102
{ACAD_REACTORS
330
C
102
}
330
C
100
AcDbDictionary
281
     1
  3
DIMASSOC
350
5F
  3
HIDETEXT
350
63
  3
PROJECTNAME
350
85
  0
LAYOUT
  5
51
102
{ACAD_XDICTIONARY
360
39B
102
}
102
{ACAD_REACTORS
330
1A
102
}
330
1A
100
AcDbPlotSettings
  1

  2
None
  4

  6

 40
0.0
 41
0.0
 42
0.0
 43
0.0
 44
0.0
 45
0.0
 46
0.0
 47
0.0
 48
0.0
 49
0.0
140
0.0
141
0.0
142
1.0
143
1.0
 70
   688
 72
     0
 73
     0
 74
     5
  7

 75
    16
147
1.0
148
0.0
149
0.0
100
AcDbLayout
  1
Layout1
 70
     1
 71
     1
 10
0.0
 20
0.0
 11
12.0
 21
9.0
 12
0.0
 22
0.0
 32
0.0
 14
0.0
 24
0.0
 34
0.0
 15
0.0
 25
0.0
 35
0.0
146
0.0
 13
0.0
 23
0.0
 33
0.0
 16
1.0
 26
0.0
 36
0.0
 17
0.0
 27
1.0
 37
0.0
 76
     0
330
50
  0
LAYOUT
  5
56
102
{ACAD_XDICTIONARY
360
39D
102
}
102
{ACAD_REACTORS
330
1A
102
}
330
1A
100
AcDbPlotSettings
  1

  2
None
  4

  6

 40
0.0
 41
0.0
 42
0.0
 43
0.0
 44
0.0
 45
0.0
 46
0.0
 47
0.0
 48
0.0
 49
0.0
140
0.0
141
0.0
142
1.0
143
1.0
 70
   688
 72
     0
 73
     0
 74
     5
  7

 75
    16
147
1.0
148
0.0
149
0.0
100
AcDbLayout
  1
Layout2
 70
     1
 71
     2
 10
0.0
 20
0.0
 11
12.0
 21
9.0
 12
0.0
 22
0.0
 32
0.0
 14
0.0
 24
0.0
 34
0.0
 15
0.0
 25
0.0
 35
0.0
146
0.0
 13
0.0
 23
0.0
 33
0.0
 16
1.0
 26
0.0
 36
0.0
 17
0.0
 27
1.0
 37
0.0
 76
     0
330
55
  0
LAYOUT
  5
22
102
{ACAD_XDICTIONARY
360
399
102
}
102
{ACAD_REACTORS
330
1A
102
}
330
1A
100
AcDbPlotSettings
  1

  2
none_device
  4
ANSI_A_(8.50_x_11.00_Inches)
  6

 40
6.349999904632567
 41
19.04999923706055
 42
6.350006103515625
 43
19.04998779296875
 44
215.8999938964844
 45
279.3999938964844
 46
0.0
 47
0.0
 48
0.0
 49
0.0
140
0.0
141
0.0
142
1.0
143
78.436453180766
 70
 11952
 72
     0
 73
     1
 74
     0
  7

 75
     0
147
0.0127491741332998
148
0.0
149
0.0
100
AcDbLayout
  1
Model
 70
     1
 71
     0
 10
0.0
 20
0.0
 11
12.0
 21
9.0
 12
0.0
 22
0.0
 32
0.0
 14
0.0
 24
0.0
 34
0.0
 15
0.0
 25
0.0
 35
0.0
146
0.0
 13
0.0
 23
0.0
 33
0.0
 16
1.0
 26
0.0
 36
0.0
 17
0.0
 27
1.0
 37
0.0
 76
     0
330
1F
  0
MLINESTYLE
  5
18
102
{ACAD_REACTORS
330
17
102
}
330
17
100
AcDbMlineStyle
  2
STANDARD
 70
     0
  3

 62
   256
 51
90.0
 52
90.0
 71
     2
 49
0.5
 62
   256
  6
BYLAYER
 49
-0.5
 62
   256
  6
BYLAYER
  0
ACDBPLACEHOLDER
  5
F
102
{ACAD_REACTORS
330
E
102
}
330
E
  0
XRECORD
  5
398
102
{ACAD_REACTORS
330
396
102
}
330
396
100
AcDbXrecord
280
     1
340
6B
  0
XRECORD
  5
397
102
{ACAD_REACTORS
330
396
102
}
330
396
100
AcDbXrecord
280
     1
340
6A
  0
DICTIONARYVAR
  5
5F
102
{ACAD_REACTORS
330
5E
102
}
330
5E
100
DictionaryVariables
280
     0
  1
2
  0
DICTIONARYVAR
  5
63
102
{ACAD_REACTORS
330
5E
102
}
330
5E
100
DictionaryVariables
280
     0
  1
1
  0
DICTIONARYVAR
  5
85
102
{ACAD_REACTORS
330
5E
102
}
330
5E
100
DictionaryVariables
280
     0
  1

  0
DICTIONARY
  5
39B
330
51
100
AcDbDictionary
280
     1
281
     1
  3
ACAD_XREC_ROUNDTRIP
360
39C
  0
DICTIONARY
  5
39D
330
56
100
AcDbDictionary
280
     1
281
     1
  3
ACAD_XREC_ROUNDTRIP
360
39E
  0
DICTIONARY
  5
399
330
22
100
AcDbDictionary
280
     1
281
     1
  3
ACAD_XREC_ROUNDTRIP
360
39A
  0
XRECORD
  5
39C
102
{ACAD_REACTORS
330
39B
102
}
330
39B
100
AcDbXrecord
280
     1
102
SHADEPLOT
 70
     0
102
SHADEPLOTRESLEVEL
 70
     2
102
SHADEPLOTCUSTOMDPI
 70
   300
  0
XRECORD
  5
39E
102
{ACAD_REACTORS
330
39D
102
}
330
39D
100
AcDbXrecord
280
     1
102
SHADEPLOT
 70
     0
102
SHADEPLOTRESLEVEL
 70
     2
102
SHADEPLOTCUSTOMDPI
 70
   300
  0
XRECORD
  5
39A
102
{ACAD_REACTORS
330
399
102
}
330
399
100
AcDbXrecord
280
     1
102
SHADEPLOT
 70
     0
102
SHADEPLOTRESLEVEL
 70
     2
102
SHADEPLOTCUSTOMDPI
 70
   300
  0
ENDSEC
  0
EOF
