  0
SECTION
  2
HEADER
  9
$ACADVER
  1
AC1015
  9
$ACADMAINTVER
 70
    20
  9
$DWGCODEPAGE
  3
ANSI_936
  9
$INSBASE
 10
0.0
 20
0.0
 30
0.0
  9
$EXTMIN
 10
0.0000829775963211
 20
-0.0000445956175099
 30
0.0
  9
$EXTMAX
 10
1000.000082977596
 20
1010.712043345368
 30
0.0
  9
$LIMMIN
 10
0.0
 20
0.0
  9
$LIMMAX
 10
420.0
 20
297.0
  9
$ORTHOMODE
 70
     0
  9
$REGENMODE
 70
     1
  9
$FILLMODE
 70
     1
  9
$QTEXTMODE
 70
     0
  9
$MIRRTEXT
 70
     0
  9
$LTSCALE
 40
1.0
  9
$ATTMODE
 70
     1
  9
$TEXTSIZE
 40
2.5
  9
$TRACEWID
 40
1.0
  9
$TEXTSTYLE
  7
Standard
  9
$CLAYER
  8
2
  9
$CELTYPE
  6
ByLayer
  9
$CECOLOR
 62
   256
  9
$CELTSCALE
 40
1.0
  9
$DISPSILH
 70
     0
  9
$DIMSCALE
 40
1.0
  9
$DIMASZ
 40
2.5
  9
$DIMEXO
 40
0.625
  9
$DIMDLI
 40
3.75
  9
$DIMRND
 40
0.0
  9
$DIMDLE
 40
0.0
  9
$DIMEXE
 40
1.25
  9
$DIMTP
 40
0.0
  9
$DIMTM
 40
0.0
  9
$DIMTXT
 40
2.5
  9
$DIMCEN
 40
2.5
  9
$DIMTSZ
 40
0.0
  9
$DIMTOL
 70
     0
  9
$DIMLIM
 70
     0
  9
$DIMTIH
 70
     0
  9
$DIMTOH
 70
     0
  9
$DIMSE1
 70
     0
  9
$DIMSE2
 70
     0
  9
$DIMTAD
 70
     1
  9
$DIMZIN
 70
     8
  9
$DIMBLK
  1

  9
$DIMASO
 70
     1
  9
$DIMSHO
 70
     1
  9
$DIMPOST
  1

  9
$DIMAPOST
  1

  9
$DIMALT
 70
     0
  9
$DIMALTD
 70
     3
  9
$DIMALTF
 40
0.03937007874016
  9
$DIMLFAC
 40
1.0
  9
$DIMTOFL
 70
     1
  9
$DIMTVP
 40
0.0
  9
$DIMTIX
 70
     0
  9
$DIMSOXD
 70
     0
  9
$DIMSAH
 70
     0
  9
$DIMBLK1
  1

  9
$DIMBLK2
  1

  9
$DIMSTYLE
  2
ISO-25
  9
$DIMCLRD
 70
     0
  9
$DIMCLRE
 70
     0
  9
$DIMCLRT
 70
     0
  9
$DIMTFAC
 40
1.0
  9
$DIMGAP
 40
0.625
  9
$DIMJUST
 70
     0
  9
$DIMSD1
 70
     0
  9
$DIMSD2
 70
     0
  9
$DIMTOLJ
 70
     0
  9
$DIMTZIN
 70
     8
  9
$DIMALTZ
 70
     0
  9
$DIMALTTZ
 70
     0
  9
$DIMUPT
 70
     0
  9
$DIMDEC
 70
     2
  9
$DIMTDEC
 70
     2
  9
$DIMALTU
 70
     2
  9
$DIMALTTD
 70
     3
  9
$DIMTXSTY
  7
Standard
  9
$DIMAUNIT
 70
     0
  9
$DIMADEC
 70
     0
  9
$DIMALTRND
 40
0.0
  9
$DIMAZIN
 70
     0
  9
$DIMDSEP
 70
    44
  9
$DIMATFIT
 70
     3
  9
$DIMFRAC
 70
     0
  9
$DIMLDRBLK
  1

  9
$DIMLUNIT
 70
     2
  9
$DIMLWD
 70
    -2
  9
$DIMLWE
 70
    -2
  9
$DIMTMOVE
 70
     0
  9
$LUNITS
 70
     2
  9
$LUPREC
 70
     4
  9
$SKETCHINC
 40
1.0
  9
$FILLETRAD
 40
0.0
  9
$AUNITS
 70
     0
  9
$AUPREC
 70
     0
  9
$MENU
  1
.
  9
$ELEVATION
 40
0.0
  9
$PELEVATION
 40
0.0
  9
$THICKNESS
 40
0.0
  9
$LIMCHECK
 70
     0
  9
$CHAMFERA
 40
0.0
  9
$CHAMFERB
 40
0.0
  9
$CHAMFERC
 40
0.0
  9
$CHAMFERD
 40
0.0
  9
$SKPOLY
 70
     0
  9
$TDCREATE
 40
2455505.725807523
  9
$TDUCREATE
 40
2455505.392474190
  9
$TDUPDATE
 40
2457095.671044190
  9
$TDUUPDATE
 40
2457095.337710857
  9
$TDINDWG
 40
0.0546397685
  9
$TDUSRTIMER
 40
0.0546391204
  9
$USRTIMER
 70
     1
  9
$ANGBASE
 50
0.0
  9
$ANGDIR
 70
     0
  9
$PDMODE
 70
     0
  9
$PDSIZE
 40
0.0
  9
$PLINEWID
 40
0.0
  9
$SPLFRAME
 70
     0
  9
$SPLINETYPE
 70
     6
  9
$SPLINESEGS
 70
     8
  9
$HANDSEED
  5
32F
  9
$SURFTAB1
 70
     6
  9
$SURFTAB2
 70
     6
  9
$SURFTYPE
 70
     6
  9
$SURFU
 70
     6
  9
$SURFV
 70
     6
  9
$UCSBASE
  2

  9
$UCSNAME
  2

  9
$UCSORG
 10
0.0
 20
0.0
 30
0.0
  9
$UCSXDIR
 10
1.0
 20
0.0
 30
0.0
  9
$UCSYDIR
 10
0.0
 20
1.0
 30
0.0
  9
$UCSORTHOREF
  2

  9
$UCSORTHOVIEW
 70
     0
  9
$UCSORGTOP
 10
0.0
 20
0.0
 30
0.0
  9
$UCSORGBOTTOM
 10
0.0
 20
0.0
 30
0.0
  9
$UCSORGLEFT
 10
0.0
 20
0.0
 30
0.0
  9
$UCSORGRIGHT
 10
0.0
 20
0.0
 30
0.0
  9
$UCSORGFRONT
 10
0.0
 20
0.0
 30
0.0
  9
$UCSORGBACK
 10
0.0
 20
0.0
 30
0.0
  9
$PUCSBASE
  2

  9
$PUCSNAME
  2

  9
$PUCSORG
 10
0.0
 20
0.0
 30
0.0
  9
$PUCSXDIR
 10
1.0
 20
0.0
 30
0.0
  9
$PUCSYDIR
 10
0.0
 20
1.0
 30
0.0
  9
$PUCSORTHOREF
  2

  9
$PUCSORTHOVIEW
 70
     0
  9
$PUCSORGTOP
 10
0.0
 20
0.0
 30
0.0
  9
$PUCSORGBOTTOM
 10
0.0
 20
0.0
 30
0.0
  9
$PUCSORGLEFT
 10
0.0
 20
0.0
 30
0.0
  9
$PUCSORGRIGHT
 10
0.0
 20
0.0
 30
0.0
  9
$PUCSORGFRONT
 10
0.0
 20
0.0
 30
0.0
  9
$PUCSORGBACK
 10
0.0
 20
0.0
 30
0.0
  9
$USERI1
 70
     0
  9
$USERI2
 70
     0
  9
$USERI3
 70
     0
  9
$USERI4
 70
     0
  9
$USERI5
 70
     0
  9
$USERR1
 40
0.0
  9
$USERR2
 40
0.0
  9
$USERR3
 40
0.0
  9
$USERR4
 40
0.0
  9
$USERR5
 40
0.0
  9
$WORLDVIEW
 70
     1
  9
$SHADEDGE
 70
     3
  9
$SHADEDIF
 70
    70
  9
$TILEMODE
 70
     1
  9
$MAXACTVP
 70
    64
  9
$PINSBASE
 10
0.0
 20
0.0
 30
0.0
  9
$PLIMCHECK
 70
     0
  9
$PEXTMIN
 10
0.0
 20
0.0
 30
0.0
  9
$PEXTMAX
 10
0.0
 20
0.0
 30
0.0
  9
$PLIMMIN
 10
0.0
 20
0.0
  9
$PLIMMAX
 10
12.0
 20
9.0
  9
$UNITMODE
 70
     0
  9
$VISRETAIN
 70
     1
  9
$PLINEGEN
 70
     0
  9
$PSLTSCALE
 70
     1
  9
$TREEDEPTH
 70
  3020
  9
$CMLSTYLE
  2
Standard
  9
$CMLJUST
 70
     0
  9
$CMLSCALE
 40
20.0
  9
$PROXYGRAPHICS
 70
     1
  9
$MEASUREMENT
 70
     1
  9
$CELWEIGHT
370
    -1
  9
$ENDCAPS
280
     0
  9
$JOINSTYLE
280
     0
  9
$LWDISPLAY
290
     0
  9
$INSUNITS
 70
     4
  9
$HYPERLINKBASE
  1

  9
$STYLESHEET
  1

  9
$XEDIT
290
     1
  9
$CEPSNTYPE
380
     0
  9
$PSTYLEMODE
290
     1
  9
$FINGERPRINTGUID
  2
{FDEAD578-A652-11D2-9A35-0060089B3A3F}
  9
$VERSIONGUID
  2
{31929DA3-34CC-4441-B9F0-BE1DC2C7C22A}
  9
$EXTNAMES
290
     1
  9
$PSVPSCALE
 40
0.0
  9
$OLESTARTUP
290
     0
  0
ENDSEC
  0
SECTION
  2
CLASSES
  0
CLASS
  1
ACDBDICTIONARYWDFLT
  2
AcDbDictionaryWithDefault
  3
ObjectDBX Classes
 90
        0
280
     0
281
     0
  0
CLASS
  1
ACDBPLACEHOLDER
  2
AcDbPlaceHolder
  3
ObjectDBX Classes
 90
        0
280
     0
281
     0
  0
CLASS
  1
LAYOUT
  2
AcDbLayout
  3
ObjectDBX Classes
 90
        0
280
     0
281
     0
  0
CLASS
  1
DICTIONARYVAR
  2
AcDbDictionaryVar
  3
ObjectDBX Classes
 90
        0
280
     0
281
     0
  0
ENDSEC
  0
SECTION
  2
TABLES
  0
TABLE
  2
VPORT
  5
8
330
0
100
AcDbSymbolTable
 70
     2
  0
VPORT
  5
325
330
8
100
AcDbSymbolTableRecord
100
AcDbViewportTableRecord
  2
*Active
 70
     0
 10
0.0
 20
0.0
 11
1.0
 21
1.0
 12
510.1883293302564
 22
473.7666147664067
 13
0.0
 23
0.0
 14
10.0
 24
10.0
 15
10.0
 25
10.0
 16
0.0
 26
0.0
 36
1.0
 17
0.0
 27
0.0
 37
0.0
 40
1374.742373707466
 41
1.68860353130016
 42
50.0
 43
0.0
 44
0.0
 50
0.0
 51
0.0
 71
     0
 72
  1000
 73
     1
 74
     3
 75
     0
 76
     0
 77
     0
 78
     0
281
     0
 65
     1
110
0.0
120
0.0
130
0.0
111
1.0
121
0.0
131
0.0
112
0.0
122
1.0
132
0.0
 79
     0
146
0.0
  0
ENDTAB
  0
TABLE
  2
LTYPE
  5
5
330
0
100
AcDbSymbolTable
 70
     1
  0
LTYPE
  5
14
330
5
100
AcDbSymbolTableRecord
100
AcDbLinetypeTableRecord
  2
ByBlock
 70
     0
  3

 72
    65
 73
     0
 40
0.0
  0
LTYPE
  5
15
330
5
100
AcDbSymbolTableRecord
100
AcDbLinetypeTableRecord
  2
ByLayer
 70
     0
  3

 72
    65
 73
     0
 40
0.0
  0
LTYPE
  5
16
330
5
100
AcDbSymbolTableRecord
100
AcDbLinetypeTableRecord
  2
Continuous
 70
     0
  3
Solid line
 72
    65
 73
     0
 40
0.0
  0
ENDTAB
  0
TABLE
  2
LAYER
  5
2
330
0
100
AcDbSymbolTable
 70
     4
  0
LAYER
  5
10
330
2
100
AcDbSymbolTableRecord
100
AcDbLayerTableRecord
  2
0
 70
     0
 62
     2
  6
Continuous
370
    -3
390
F
  0
LAYER
  5
94
330
2
100
AcDbSymbolTableRecord
100
AcDbLayerTableRecord
  2
1
 70
     0
 62
     1
  6
Continuous
370
    -3
390
F
  0
LAYER
  5
95
330
2
100
AcDbSymbolTableRecord
100
AcDbLayerTableRecord
  2
2
 70
     0
 62
     7
  6
Continuous
370
    -3
390
F
  0
LAYER
  5
10E
330
2
100
AcDbSymbolTableRecord
100
AcDbLayerTableRecord
  2
3
 70
     0
 62
     7
  6
Continuous
370
    -3
390
F
  0
ENDTAB
  0
TABLE
  2
STYLE
  5
3
330
0
100
AcDbSymbolTable
 70
     1
  0
STYLE
  5
11
330
3
100
AcDbSymbolTableRecord
100
AcDbTextStyleTableRecord
  2
Standard
 70
     0
 40
0.0
 41
1.0
 50
0.0
 71
     0
 42
2.5
  3
txt
  4

  0
ENDTAB
  0
TABLE
  2
VIEW
  5
6
330
0
100
AcDbSymbolTable
 70
     0
  0
ENDTAB
  0
TABLE
  2
UCS
  5
7
330
0
100
AcDbSymbolTable
 70
     0
  0
ENDTAB
  0
TABLE
  2
APPID
  5
9
330
0
100
AcDbSymbolTable
 70
     1
  0
APPID
  5
12
330
9
100
AcDbSymbolTableRecord
100
AcDbRegAppTableRecord
  2
ACAD
 70
     0
  0
ENDTAB
  0
TABLE
  2
DIMSTYLE
  5
A
330
0
100
AcDbSymbolTable
 70
     1
100
AcDbDimStyleTable
 71
     0
  0
DIMSTYLE
105
27
330
A
100
AcDbSymbolTableRecord
100
AcDbDimStyleTableRecord
  2
ISO-25
 70
     0
 41
2.5
 42
0.625
 43
3.75
 44
1.25
 73
     0
 74
     0
 77
     1
 78
     8
140
2.5
141
2.5
143
0.03937007874016
147
0.625
171
     3
172
     1
271
     2
272
     2
274
     3
278
    44
283
     0
284
     8
340
11
  0
ENDTAB
  0
TABLE
  2
BLOCK_RECORD
  5
1
330
0
100
AcDbSymbolTable
 70
     1
  0
BLOCK_RECORD
  5
1F
330
1
100
AcDbSymbolTableRecord
100
AcDbBlockTableRecord
  2
*Model_Space
340
22
  0
BLOCK_RECORD
  5
50
330
1
100
AcDbSymbolTableRecord
100
AcDbBlockTableRecord
  2
*Paper_Space
340
51
  0
BLOCK_RECORD
  5
55
330
1
100
AcDbSymbolTableRecord
100
AcDbBlockTableRecord
  2
*Paper_Space0
340
56
  0
ENDTAB
  0
ENDSEC
  0
SECTION
  2
BLOCKS
  0
BLOCK
  5
20
330
1F
100
AcDbEntity
  8
0
100
AcDbBlockBegin
  2
*Model_Space
 70
     0
 10
0.0
 20
0.0
 30
0.0
  3
*Model_Space
  1

  0
ENDBLK
  5
21
330
1F
100
AcDbEntity
  8
0
100
AcDbBlockEnd
  0
BLOCK
  5
52
330
50
100
AcDbEntity
 67
     1
  8
0
100
AcDbBlockBegin
  2
*Paper_Space
 70
     0
 10
0.0
 20
0.0
 30
0.0
  3
*Paper_Space
  1

  0
ENDBLK
  5
53
330
50
100
AcDbEntity
 67
     1
  8
0
100
AcDbBlockEnd
  0
BLOCK
  5
57
330
55
100
AcDbEntity
  8
0
100
AcDbBlockBegin
  2
*Paper_Space0
 70
     0
 10
0.0
 20
0.0
 30
0.0
  3
*Paper_Space0
  1

  0
ENDBLK
  5
58
330
55
100
AcDbEntity
  8
0
100
AcDbBlockEnd
  0
ENDSEC
  0
SECTION
  2
ENTITIES
  0
LINE
  5
286
330
1F
100
AcDbEntity
  8
1
 62
     1
100
AcDbLine
 10
313.6938779620538
 20
966.1780037157532
 30
0.0
 11
313.6938779620538
 21
36.15391563687183
 31
0.0
  0
LINE
  5
287
330
1F
100
AcDbEntity
  8
1
 62
     1
100
AcDbLine
 10
686.3062879931385
 20
966.1780037157532
 30
0.0
 11
313.6938779620538
 21
966.1780037157532
 31
0.0
  0
LINE
  5
288
330
1F
100
AcDbEntity
  8
1
 62
     1
100
AcDbLine
 10
686.3062879931385
 20
36.15391563687183
 30
0.0
 11
686.3062879931385
 21
966.1780037157532
 31
0.0
  0
LINE
  5
289
330
1F
100
AcDbEntity
  8
1
 62
     1
100
AcDbLine
 10
313.6938779620538
 20
36.15391563687183
 30
0.0
 11
686.3062879931385
 21
36.15391563687183
 31
0.0
  0
LWPOLYLINE
  5
28A
330
1F
100
AcDbEntity
  8
0
 62
     2
100
AcDbPolyline
 90
        4
 70
     1
 43
0.0
 10
0.0000829775963211
 20
-0.0000445956175099
 10
1000.000082977596
 20
-0.0000445956175099
 10
1000.000082977596
 20
999.9999554043823
 10
0.0000829775963211
 20
999.9999554043823
  0
LINE
  5
28B
330
1F
100
AcDbEntity
  8
3
100
AcDbLine
 10
368.5770914684345
 20
179.891074176465
 30
0.0
 11
368.5770914684345
 21
936.2137348448126
 31
0.0
  0
ARC
  5
28C
330
1F
100
AcDbEntity
  8
3
100
AcDbCircle
 10
491.3109467047089
 20
186.7618023975577
 30
0.0
 40
122.9260189197066
100
AcDbArc
 50
183.2041140860972
 51
356.9037851324762
  0
LINE
  5
28D
330
1F
100
AcDbEntity
  8
3
100
AcDbLine
 10
368.5770914684345
 20
179.891074176465
 30
0.0
 11
614.057523232097
 21
180.1222182047771
 31
0.0
  0
SPLINE
  5
29C
330
1F
100
AcDbEntity
  8
3
100
AcDbSpline
210
0.0
220
0.0
230
1.0
 70
     8
 71
     3
 72
     9
 73
     5
 74
     3
 42
0.0000000001
 43
0.0000000001
 44
0.0000000001
 40
0.0
 40
0.0
 40
0.0
 40
0.0
 40
47.92285969489603
 40
84.70649881731285
 40
84.70649881731285
 40
84.70649881731285
 40
84.70649881731285
 10
580.438776053672
 20
244.9760766848688
 30
0.0
 10
577.5677950854347
 20
265.7279816542664
 30
0.0
 10
572.4931658262716
 20
302.408205349984
 30
0.0
 10
594.3276617785195
 20
331.7397169658495
 30
0.0
 10
603.8092509215143
 20
344.4768711778289
 30
0.0
 11
580.438776053672
 21
244.9760766848688
 31
0.0
 11
580.438776053672
 21
304.8796513034888
 31
0.0
 11
603.8092509215143
 21
344.4768711778289
 31
0.0
  0
SPLINE
  5
29D
330
1F
100
AcDbEntity
  8
3
100
AcDbSpline
210
0.0
220
0.0
230
1.0
 70
     8
 71
     3
 72
    10
 73
     6
 74
     4
 42
0.0000000001
 43
0.0000000001
 44
0.0000000001
 40
0.0
 40
0.0
 40
0.0
 40
0.0
 40
45.24388266355257
 40
91.82289281533275
 40
118.0645665826575
 40
118.0645665826575
 40
118.0645665826575
 40
118.0645665826575
 10
525.9212595411026
 20
307.8523141505851
 30
0.0
 10
525.7032533585323
 20
326.5236152639168
 30
0.0
 10
525.2608077248521
 20
364.4171995436189
 30
0.0
 10
558.3544705409858
 20
414.4788264402469
 30
0.0
 10
536.08470630799
 20
438.7163526467983
 30
0.0
 10
528.059570365478
 20
447.450591621344
 30
0.0
 11
525.9212595411026
 21
307.8523141505851
 31
0.0
 11
531.623421739388
 21
364.1189719629965
 31
0.0
 11
546.5923816356025
 21
420.3856297753719
 31
0.0
 11
528.059570365478
 21
447.450591621344
 31
0.0
  0
SPLINE
  5
29E
330
1F
100
AcDbEntity
  8
3
100
AcDbSpline
210
0.0
220
0.0
230
1.0
 70
     8
 71
     3
 72
    10
 73
     6
 74
     4
 42
0.0000000001
 43
0.0000000001
 44
0.0000000001
 40
0.0
 40
0.0
 40
0.0
 40
0.0
 40
30.48542381176317
 40
51.51768518214536
 40
86.01758702219184
 40
86.01758702219184
 40
86.01758702219184
 40
86.01758702219184
 10
414.7091014686539
 20
278.4914803254635
 30
0.0
 10
417.9770615158569
 20
291.3963672360004
 30
0.0
 10
423.4996265928322
 20
313.2044911864274
 30
0.0
 10
403.213237164492
 20
345.8986280532226
 30
0.0
 10
410.307321053431
 20
369.3354114986404
 30
0.0
 10
414.7145903486325
 20
383.8957434138483
 30
0.0
 11
414.7091014686539
 21
278.4914803254635
 31
0.0
 11
418.3247051397865
 21
316.4263465322784
 31
0.0
 11
409.2856959619911
 21
341.1139464917487
 31
0.0
 11
414.7145903486325
 21
383.8957434138483
 31
0.0
  0
SPLINE
  5
29F
330
1F
100
AcDbEntity
  8
3
100
AcDbSpline
210
0.0
220
0.0
230
1.0
 70
     8
 71
     3
 72
    10
 73
     6
 74
     4
 42
0.0000000001
 43
0.0000000001
 44
0.0000000001
 40
0.0
 40
0.0
 40
0.0
 40
0.0
 40
50.36291238080353
 40
105.8768941028393
 40
126.9525784243637
 40
126.9525784243637
 40
126.9525784243637
 40
126.9525784243637
 10
447.7443178346966
 20
400.8395778884351
 30
0.0
 10
437.2694872214792
 20
420.9705232903726
 30
0.0
 10
415.2484705813944
 20
463.291387469057
 30
0.0
 10
460.1018388295648
 20
513.7144094394143
 30
0.0
 10
446.2504903146749
 20
543.9718370782607
 30
0.0
 10
442.4389232481569
 20
552.2979733083759
 30
0.0
 11
447.7443178346966
 21
400.8395778884351
 31
0.0
 11
429.7664012749575
 21
461.1716204972601
 31
0.0
 11
450.7757478482762
 21
527.3072632470559
 31
0.0
 11
442.4389232481569
 21
552.2979733083759
 31
0.0
  0
SPLINE
  5
2A0
330
1F
100
AcDbEntity
  8
3
100
AcDbSpline
210
0.0
220
0.0
230
1.0
 70
     8
 71
     3
 72
     9
 73
     5
 74
     3
 42
0.0000000001
 43
0.0000000001
 44
0.0000000001
 40
0.0
 40
0.0
 40
0.0
 40
0.0
 40
31.94502867679562
 40
64.27670856148186
 40
64.27670856148186
 40
64.27670856148186
 40
64.27670856148186
 10
474.3442144591624
 20
296.6208615160923
 30
0.0
 10
479.2281150534893
 20
309.3417798368246
 30
0.0
 10
489.0550292291155
 20
334.9375859263667
 30
0.0
 10
483.1220577111535
 20
361.7147068158086
 30
0.0
 10
480.1377273031921
 20
375.1838050351563
 30
0.0
 11
474.3442144591624
 21
296.6208615160923
 31
0.0
 11
485.1032033923927
 21
335.0754028142167
 31
0.0
 11
480.1377273031921
 21
375.1838050351563
 31
0.0
  0
HATCH
  5
2FA
330
1F
100
AcDbEntity
  8
2
100
AcDbHatch
 10
0.0
 20
0.0
 30
0.0
210
0.0
220
0.0
230
1.0
  2
SOLID
 70
     1
 71
     1
 91
        1
 92
        1
 93
        1
 72
     2
 10
546.1408419026867
 20
250.7493968232901
 40
4.391624043036017
 50
0.0
 51
360.0
 73
     1
 97
        1
330
313
 75
     0
 76
     1
 98
        1
 10
-146.9701272129024
 20
-193.4782480104905
  0
HATCH
  5
2FB
330
1F
100
AcDbEntity
  8
2
100
AcDbHatch
 10
0.0
 20
0.0
 30
0.0
210
0.0
220
0.0
230
1.0
  2
SOLID
 70
     1
 71
     1
 91
        1
 92
        1
 93
        1
 72
     2
 10
563.4147237954739
 20
204.1151068812788
 40
6.787067426273551
 50
0.0
 51
360.0
 73
     1
 97
        1
330
30B
 75
     0
 76
     1
 98
        1
 10
-146.9701272129024
 20
-193.4782480104905
  0
HATCH
  5
2FC
330
1F
100
AcDbEntity
  8
2
100
AcDbHatch
 10
0.0
 20
0.0
 30
0.0
210
0.0
220
0.0
230
1.0
  2
SOLID
 70
     1
 71
     1
 91
        1
 92
        1
 93
        1
 72
     2
 10
543.053513206815
 20
224.4594892079688
 40
6.787067426273551
 50
0.0
 51
360.0
 73
     1
 97
        1
330
30A
 75
     0
 76
     1
 98
        1
 10
-146.9701272129024
 20
-193.4782480104905
  0
HATCH
  5
2FD
330
1F
100
AcDbEntity
  8
2
100
AcDbHatch
 10
0.0
 20
0.0
 30
0.0
210
0.0
220
0.0
230
1.0
  2
SOLID
 70
     1
 71
     1
 91
        1
 92
        1
 93
        1
 72
     2
 10
521.602783310079
 20
243.5356172839574
 40
3.992394558946442
 50
0.0
 51
360.0
 73
     1
 97
        1
330
30F
 75
     0
 76
     1
 98
        1
 10
-146.9701272129024
 20
-193.4782480104905
  0
HATCH
  5
2FE
330
1F
100
AcDbEntity
  8
2
100
AcDbHatch
 10
0.0
 20
0.0
 30
0.0
210
0.0
220
0.0
230
1.0
  2
SOLID
 70
     1
 71
     1
 91
        1
 92
        1
 93
        1
 72
     2
 10
508.8349851508936
 20
275.8838334319711
 40
2.395435073400448
 50
0.0
 51
360.0
 73
     1
 97
        1
330
30C
 75
     0
 76
     1
 98
        1
 10
-146.9701272129024
 20
-193.4782480104905
  0
HATCH
  5
2FF
330
1F
100
AcDbEntity
  8
2
100
AcDbHatch
 10
0.0
 20
0.0
 30
0.0
210
0.0
220
0.0
230
1.0
  2
SOLID
 70
     1
 71
     1
 91
        1
 92
        1
 93
        1
 72
     2
 10
509.5174221792134
 20
195.3390988957314
 40
6.787067426273551
 50
0.0
 51
360.0
 73
     1
 97
        1
330
308
 75
     0
 76
     1
 98
        1
 10
-146.9701272129024
 20
-193.4782480104905
  0
HATCH
  5
300
330
1F
100
AcDbEntity
  8
2
100
AcDbHatch
 10
0.0
 20
0.0
 30
0.0
210
0.0
220
0.0
230
1.0
  2
SOLID
 70
     1
 71
     1
 91
        1
 92
        1
 93
        1
 72
     2
 10
498.7379601939922
 20
224.0605763649461
 40
6.787067426273551
 50
0.0
 51
360.0
 73
     1
 97
        1
330
309
 75
     0
 76
     1
 98
        1
 10
-146.9701272129024
 20
-193.4782480104905
  0
HATCH
  5
301
330
1F
100
AcDbEntity
  8
2
100
AcDbHatch
 10
0.0
 20
0.0
 30
0.0
210
0.0
220
0.0
230
1.0
  2
SOLID
 70
     1
 71
     1
 91
        1
 92
        1
 93
        1
 72
     2
 10
497.6500031352107
 20
250.1724520584419
 40
5.190107940727556
 50
0.0
 51
360.0
 73
     1
 97
        1
330
30D
 75
     0
 76
     1
 98
        1
 10
-146.9701272129024
 20
-193.4782480104905
  0
HATCH
  5
302
330
1F
100
AcDbEntity
  8
2
100
AcDbHatch
 10
0.0
 20
0.0
 30
0.0
210
0.0
220
0.0
230
1.0
  2
SOLID
 70
     1
 71
     1
 91
        1
 92
        1
 93
        1
 72
     2
 10
478.8380452596614
 20
274.5424741341715
 40
2.395435073400448
 50
0.0
 51
360.0
 73
     1
 97
        1
330
315
 75
     0
 76
     1
 98
        1
 10
-146.9701272129024
 20
-193.4782480104905
  0
HATCH
  5
303
330
1F
100
AcDbEntity
  8
2
100
AcDbHatch
 10
0.0
 20
0.0
 30
0.0
210
0.0
220
0.0
230
1.0
  2
SOLID
 70
     1
 71
     1
 91
        1
 92
        1
 93
        1
 72
     2
 10
467.0167458092904
 20
227.9765801267713
 40
5.190107940727556
 50
0.0
 51
360.0
 73
     1
 97
        1
330
314
 75
     0
 76
     1
 98
        1
 10
-146.9701272129024
 20
-193.4782480104905
  0
HATCH
  5
304
330
1F
100
AcDbEntity
  8
2
100
AcDbHatch
 10
0.0
 20
0.0
 30
0.0
210
0.0
220
0.0
230
1.0
  2
SOLID
 70
     1
 71
     1
 91
        1
 92
        1
 93
        1
 72
     2
 10
465.3434770934206
 20
252.6342897328449
 40
3.992394558946442
 50
0.0
 51
360.0
 73
     1
 97
        1
330
312
 75
     0
 76
     1
 98
        1
 10
-146.9701272129024
 20
-193.4782480104905
  0
HATCH
  5
305
330
1F
100
AcDbEntity
  8
2
100
AcDbHatch
 10
0.0
 20
0.0
 30
0.0
210
0.0
220
0.0
230
1.0
  2
SOLID
 70
     1
 71
     1
 91
        1
 92
        1
 93
        1
 72
     2
 10
439.2513294627516
 20
235.6289546303492
 40
4.391624043036017
 50
0.0
 51
360.0
 73
     1
 97
        1
330
30E
 75
     0
 76
     1
 98
        1
 10
-146.9701272129024
 20
-193.4782480104905
  0
HATCH
  5
306
330
1F
100
AcDbEntity
  8
2
100
AcDbHatch
 10
0.0
 20
0.0
 30
0.0
210
0.0
220
0.0
230
1.0
  2
SOLID
 70
     1
 71
     1
 91
        1
 92
        1
 93
        1
 72
     2
 10
464.4034018883719
 20
198.5303741700887
 40
6.787067426273551
 50
0.0
 51
360.0
 73
     1
 97
        1
330
310
 75
     0
 76
     1
 98
        1
 10
-146.9701272129024
 20
-193.4782480104905
  0
HATCH
  5
307
330
1F
100
AcDbEntity
  8
2
100
AcDbHatch
 10
0.0
 20
0.0
 30
0.0
210
0.0
220
0.0
230
1.0
  2
SOLID
 70
     1
 71
     1
 91
        1
 92
        7
 72
     1
 73
     1
 93
        2
 10
433.2627376243301
 20
212.4922059480645
 42
1.0
 10
419.688602771783
 20
212.4922059480645
 42
1.0
 97
        1
330
311
 75
     0
 76
     1
 47
0.3461100913371307
 98
        1
 10
427.1268810274518
 20
212.4554040177197
  0
CIRCLE
  5
308
102
{ACAD_REACTORS
330
2FF
102
}
330
1F
100
AcDbEntity
  8
2
100
AcDbCircle
 10
509.5174221792134
 20
195.3390988957314
 30
0.0
 40
6.787067426273551
  0
CIRCLE
  5
309
102
{ACAD_REACTORS
330
300
102
}
330
1F
100
AcDbEntity
  8
2
100
AcDbCircle
 10
498.7379601939922
 20
224.0605763649461
 30
0.0
 40
6.787067426273551
  0
CIRCLE
  5
30A
102
{ACAD_REACTORS
330
2FC
102
}
330
1F
100
AcDbEntity
  8
2
100
AcDbCircle
 10
543.053513206815
 20
224.4594892079688
 30
0.0
 40
6.787067426273551
  0
CIRCLE
  5
30B
102
{ACAD_REACTORS
330
2FB
102
}
330
1F
100
AcDbEntity
  8
2
100
AcDbCircle
 10
563.4147237954739
 20
204.1151068812788
 30
0.0
 40
6.787067426273551
  0
CIRCLE
  5
30C
102
{ACAD_REACTORS
330
2FE
102
}
330
1F
100
AcDbEntity
  8
2
100
AcDbCircle
 10
508.8349851508936
 20
275.8838334319711
 30
0.0
 40
2.395435073400448
  0
CIRCLE
  5
30D
102
{ACAD_REACTORS
330
301
102
}
330
1F
100
AcDbEntity
  8
2
100
AcDbCircle
 10
497.6500031352107
 20
250.1724520584419
 30
0.0
 40
5.190107940727556
  0
CIRCLE
  5
30E
102
{ACAD_REACTORS
330
305
102
}
330
1F
100
AcDbEntity
  8
2
100
AcDbCircle
 10
439.2513294627516
 20
235.6289546303492
 30
0.0
 40
4.391624043036017
  0
CIRCLE
  5
30F
102
{ACAD_REACTORS
330
2FD
102
}
330
1F
100
AcDbEntity
  8
2
100
AcDbCircle
 10
521.602783310079
 20
243.5356172839574
 30
0.0
 40
3.992394558946442
  0
CIRCLE
  5
310
102
{ACAD_REACTORS
330
306
102
}
330
1F
100
AcDbEntity
  8
2
100
AcDbCircle
 10
464.4034018883719
 20
198.5303741700887
 30
0.0
 40
6.787067426273551
  0
CIRCLE
  5
311
102
{ACAD_REACTORS
330
307
102
}
330
1F
100
AcDbEntity
  8
2
100
AcDbCircle
 10
426.4756701980566
 20
212.4922059480645
 30
0.0
 40
6.787067426273551
  0
CIRCLE
  5
312
102
{ACAD_REACTORS
330
304
102
}
330
1F
100
AcDbEntity
  8
2
100
AcDbCircle
 10
465.3434770934206
 20
252.6342897328449
 30
0.0
 40
3.992394558946442
  0
CIRCLE
  5
313
102
{ACAD_REACTORS
330
2FA
102
}
330
1F
100
AcDbEntity
  8
2
100
AcDbCircle
 10
546.1408419026867
 20
250.7493968232901
 30
0.0
 40
4.391624043036017
  0
CIRCLE
  5
314
102
{ACAD_REACTORS
330
303
102
}
330
1F
100
AcDbEntity
  8
2
100
AcDbCircle
 10
467.0167458092904
 20
227.9765801267713
 30
0.0
 40
5.190107940727556
  0
CIRCLE
  5
315
102
{ACAD_REACTORS
330
302
102
}
330
1F
100
AcDbEntity
  8
2
100
AcDbCircle
 10
478.8380452596614
 20
274.5424741341715
 30
0.0
 40
2.395435073400448
  0
ENDSEC
  0
SECTION
  2
OBJECTS
  0
DICTIONARY
  5
C
330
0
100
AcDbDictionary
281
     1
  3
ACAD_COLOR
350
6B
  3
ACAD_GROUP
350
D
  3
ACAD_LAYOUT
350
1A
  3
ACAD_MATERIAL
350
6A
  3
ACAD_MLINESTYLE
350
17
  3
ACAD_PLOTSETTINGS
350
19
  3
ACAD_PLOTSTYLENAME
350
E
  3
ACDBHEADERROUNDTRIPXREC
350
326
  3
AcDbVariableDictionary
350
5E
  0
DICTIONARY
  5
6B
102
{ACAD_REACTORS
330
C
102
}
330
C
100
AcDbDictionary
281
     1
  0
DICTIONARY
  5
D
102
{ACAD_REACTORS
330
C
102
}
330
C
100
AcDbDictionary
281
     1
  0
DICTIONARY
  5
1A
102
{ACAD_REACTORS
330
C
102
}
330
C
100
AcDbDictionary
281
     1
  3
Layout1
350
51
  3
Layout2
350
56
  3
Model
350
22
  0
DICTIONARY
  5
6A
102
{ACAD_REACTORS
330
C
102
}
330
C
100
AcDbDictionary
281
     1
  0
DICTIONARY
  5
17
102
{ACAD_REACTORS
330
C
102
}
330
C
100
AcDbDictionary
281
     1
  3
Standard
350
18
  0
DICTIONARY
  5
19
102
{ACAD_REACTORS
330
C
102
}
330
C
100
AcDbDictionary
281
     1
  0
ACDBDICTIONARYWDFLT
  5
E
102
{ACAD_REACTORS
330
C
102
}
330
C
100
AcDbDictionary
281
     1
  3
Normal
350
F
100
AcDbDictionaryWithDefault
340
F
  0
DICTIONARY
  5
326
102
{ACAD_REACTORS
330
C
102
}
330
C
100
AcDbDictionary
281
     1
  3
COLORDICT
350
328
  3
MATERIALDICT
350
327
  0
DICTIONARY
  5
5E
102
{ACAD_REACTORS
330
C
102
}
330
C
100
AcDbDictionary
281
     1
  3
DIMASSOC
350
5F
  3
HIDETEXT
350
63
  3
PROJECTNAME
350
85
  0
LAYOUT
  5
51
102
{ACAD_XDICTIONARY
360
32B
102
}
102
{ACAD_REACTORS
330
1A
102
}
330
1A
100
AcDbPlotSettings
  1

  2
None
  4

  6

 40
0.0
 41
0.0
 42
0.0
 43
0.0
 44
0.0
 45
0.0
 46
0.0
 47
0.0
 48
0.0
 49
0.0
140
0.0
141
0.0
142
1.0
143
1.0
 70
   688
 72
     0
 73
     0
 74
     5
  7

 75
    16
147
1.0
148
0.0
149
0.0
100
AcDbLayout
  1
Layout1
 70
     1
 71
     1
 10
0.0
 20
0.0
 11
12.0
 21
9.0
 12
0.0
 22
0.0
 32
0.0
 14
0.0
 24
0.0
 34
0.0
 15
0.0
 25
0.0
 35
0.0
146
0.0
 13
0.0
 23
0.0
 33
0.0
 16
1.0
 26
0.0
 36
0.0
 17
0.0
 27
1.0
 37
0.0
 76
     0
330
50
  0
LAYOUT
  5
56
102
{ACAD_XDICTIONARY
360
32D
102
}
102
{ACAD_REACTORS
330
1A
102
}
330
1A
100
AcDbPlotSettings
  1

  2
None
  4

  6

 40
0.0
 41
0.0
 42
0.0
 43
0.0
 44
0.0
 45
0.0
 46
0.0
 47
0.0
 48
0.0
 49
0.0
140
0.0
141
0.0
142
1.0
143
1.0
 70
   688
 72
     0
 73
     0
 74
     5
  7

 75
    16
147
1.0
148
0.0
149
0.0
100
AcDbLayout
  1
Layout2
 70
     1
 71
     2
 10
0.0
 20
0.0
 11
12.0
 21
9.0
 12
0.0
 22
0.0
 32
0.0
 14
0.0
 24
0.0
 34
0.0
 15
0.0
 25
0.0
 35
0.0
146
0.0
 13
0.0
 23
0.0
 33
0.0
 16
1.0
 26
0.0
 36
0.0
 17
0.0
 27
1.0
 37
0.0
 76
     0
330
55
  0
LAYOUT
  5
22
102
{ACAD_XDICTIONARY
360
329
102
}
102
{ACAD_REACTORS
330
1A
102
}
330
1A
100
AcDbPlotSettings
  1

  2
none_device
  4
ANSI_A_(8.50_x_11.00_Inches)
  6

 40
6.349999904632567
 41
19.04999923706055
 42
6.350006103515625
 43
19.04998779296875
 44
215.8999938964844
 45
279.3999938964844
 46
0.0
 47
0.0
 48
0.0
 49
0.0
140
0.0
141
0.0
142
1.0
143
78.436453180766
 70
 11952
 72
     0
 73
     1
 74
     0
  7

 75
     0
147
0.0127491741332998
148
0.0
149
0.0
100
AcDbLayout
  1
Model
 70
     1
 71
     0
 10
0.0
 20
0.0
 11
12.0
 21
9.0
 12
0.0
 22
0.0
 32
0.0
 14
0.0
 24
0.0
 34
0.0
 15
0.0
 25
0.0
 35
0.0
146
0.0
 13
0.0
 23
0.0
 33
0.0
 16
1.0
 26
0.0
 36
0.0
 17
0.0
 27
1.0
 37
0.0
 76
     0
330
1F
  0
MLINESTYLE
  5
18
102
{ACAD_REACTORS
330
17
102
}
330
17
100
AcDbMlineStyle
  2
STANDARD
 70
     0
  3

 62
   256
 51
90.0
 52
90.0
 71
     2
 49
0.5
 62
   256
  6
BYLAYER
 49
-0.5
 62
   256
  6
BYLAYER
  0
ACDBPLACEHOLDER
  5
F
102
{ACAD_REACTORS
330
E
102
}
330
E
  0
XRECORD
  5
328
102
{ACAD_REACTORS
330
326
102
}
330
326
100
AcDbXrecord
280
     1
340
6B
  0
XRECORD
  5
327
102
{ACAD_REACTORS
330
326
102
}
330
326
100
AcDbXrecord
280
     1
340
6A
  0
DICTIONARYVAR
  5
5F
102
{ACAD_REACTORS
330
5E
102
}
330
5E
100
DictionaryVariables
280
     0
  1
2
  0
DICTIONARYVAR
  5
63
102
{ACAD_REACTORS
330
5E
102
}
330
5E
100
DictionaryVariables
280
     0
  1
1
  0
DICTIONARYVAR
  5
85
102
{ACAD_REACTORS
330
5E
102
}
330
5E
100
DictionaryVariables
280
     0
  1

  0
DICTIONARY
  5
32B
330
51
100
AcDbDictionary
280
     1
281
     1
  3
ACAD_XREC_ROUNDTRIP
360
32C
  0
DICTIONARY
  5
32D
330
56
100
AcDbDictionary
280
     1
281
     1
  3
ACAD_XREC_ROUNDTRIP
360
32E
  0
DICTIONARY
  5
329
330
22
100
AcDbDictionary
280
     1
281
     1
  3
ACAD_XREC_ROUNDTRIP
360
32A
  0
XRECORD
  5
32C
102
{ACAD_REACTORS
330
32B
102
}
330
32B
100
AcDbXrecord
280
     1
102
SHADEPLOT
 70
     0
102
SHADEPLOTRESLEVEL
 70
     2
102
SHADEPLOTCUSTOMDPI
 70
   300
  0
XRECORD
  5
32E
102
{ACAD_REACTORS
330
32D
102
}
330
32D
100
AcDbXrecord
280
     1
102
SHADEPLOT
 70
     0
102
SHADEPLOTRESLEVEL
 70
     2
102
SHADEPLOTCUSTOMDPI
 70
   300
  0
XRECORD
  5
32A
102
{ACAD_REACTORS
330
329
102
}
330
329
100
AcDbXrecord
280
     1
102
SHADEPLOT
 70
     0
102
SHADEPLOTRESLEVEL
 70
     2
102
SHADEPLOTCUSTOMDPI
 70
   300
  0
ENDSEC
  0
EOF
