  0
SECTION
  2
HEADER
  9
$ACADVER
  1
AC1015
  9
$ACADMAINTVER
 70
    20
  9
$DWGCODEPAGE
  3
ANSI_936
  9
$INSBASE
 10
0.0
 20
0.0
 30
0.0
  9
$EXTMIN
 10
-0.0000864837638801
 20
-49.20274185360085
 30
0.0
  9
$EXTMAX
 10
999.9999135162362
 20
1005.28959871589
 30
0.0
  9
$LIMMIN
 10
0.0
 20
0.0
  9
$LIMMAX
 10
420.0
 20
297.0
  9
$ORTHOMODE
 70
     0
  9
$REGENMODE
 70
     1
  9
$FILLMODE
 70
     1
  9
$QTEXTMODE
 70
     0
  9
$MIRRTEXT
 70
     0
  9
$LTSCALE
 40
1.0
  9
$ATTMODE
 70
     1
  9
$TEXTSIZE
 40
2.5
  9
$TRACEWID
 40
1.0
  9
$TEXTSTYLE
  7
Standard
  9
$CLAYER
  8
2
  9
$CELTYPE
  6
ByLayer
  9
$CECOLOR
 62
   256
  9
$CELTSCALE
 40
1.0
  9
$DISPSILH
 70
     0
  9
$DIMSCALE
 40
1.0
  9
$DIMASZ
 40
2.5
  9
$DIMEXO
 40
0.625
  9
$DIMDLI
 40
3.75
  9
$DIMRND
 40
0.0
  9
$DIMDLE
 40
0.0
  9
$DIMEXE
 40
1.25
  9
$DIMTP
 40
0.0
  9
$DIMTM
 40
0.0
  9
$DIMTXT
 40
2.5
  9
$DIMCEN
 40
2.5
  9
$DIMTSZ
 40
0.0
  9
$DIMTOL
 70
     0
  9
$DIMLIM
 70
     0
  9
$DIMTIH
 70
     0
  9
$DIMTOH
 70
     0
  9
$DIMSE1
 70
     0
  9
$DIMSE2
 70
     0
  9
$DIMTAD
 70
     1
  9
$DIMZIN
 70
     8
  9
$DIMBLK
  1

  9
$DIMASO
 70
     1
  9
$DIMSHO
 70
     1
  9
$DIMPOST
  1

  9
$DIMAPOST
  1

  9
$DIMALT
 70
     0
  9
$DIMALTD
 70
     3
  9
$DIMALTF
 40
0.03937007874016
  9
$DIMLFAC
 40
1.0
  9
$DIMTOFL
 70
     1
  9
$DIMTVP
 40
0.0
  9
$DIMTIX
 70
     0
  9
$DIMSOXD
 70
     0
  9
$DIMSAH
 70
     0
  9
$DIMBLK1
  1

  9
$DIMBLK2
  1

  9
$DIMSTYLE
  2
ISO-25
  9
$DIMCLRD
 70
     0
  9
$DIMCLRE
 70
     0
  9
$DIMCLRT
 70
     0
  9
$DIMTFAC
 40
1.0
  9
$DIMGAP
 40
0.625
  9
$DIMJUST
 70
     0
  9
$DIMSD1
 70
     0
  9
$DIMSD2
 70
     0
  9
$DIMTOLJ
 70
     0
  9
$DIMTZIN
 70
     8
  9
$DIMALTZ
 70
     0
  9
$DIMALTTZ
 70
     0
  9
$DIMUPT
 70
     0
  9
$DIMDEC
 70
     2
  9
$DIMTDEC
 70
     2
  9
$DIMALTU
 70
     2
  9
$DIMALTTD
 70
     3
  9
$DIMTXSTY
  7
Standard
  9
$DIMAUNIT
 70
     0
  9
$DIMADEC
 70
     0
  9
$DIMALTRND
 40
0.0
  9
$DIMAZIN
 70
     0
  9
$DIMDSEP
 70
    44
  9
$DIMATFIT
 70
     3
  9
$DIMFRAC
 70
     0
  9
$DIMLDRBLK
  1

  9
$DIMLUNIT
 70
     2
  9
$DIMLWD
 70
    -2
  9
$DIMLWE
 70
    -2
  9
$DIMTMOVE
 70
     0
  9
$LUNITS
 70
     2
  9
$LUPREC
 70
     4
  9
$SKETCHINC
 40
1.0
  9
$FILLETRAD
 40
0.0
  9
$AUNITS
 70
     0
  9
$AUPREC
 70
     0
  9
$MENU
  1
.
  9
$ELEVATION
 40
0.0
  9
$PELEVATION
 40
0.0
  9
$THICKNESS
 40
0.0
  9
$LIMCHECK
 70
     0
  9
$CHAMFERA
 40
0.0
  9
$CHAMFERB
 40
0.0
  9
$CHAMFERC
 40
0.0
  9
$CHAMFERD
 40
0.0
  9
$SKPOLY
 70
     0
  9
$TDCREATE
 40
2455505.725807523
  9
$TDUCREATE
 40
2455505.392474190
  9
$TDUPDATE
 40
2457095.674177512
  9
$TDUUPDATE
 40
2457095.340844178
  9
$TDINDWG
 40
0.0503924306
  9
$TDUSRTIMER
 40
0.0503920833
  9
$USRTIMER
 70
     1
  9
$ANGBASE
 50
0.0
  9
$ANGDIR
 70
     0
  9
$PDMODE
 70
     0
  9
$PDSIZE
 40
0.0
  9
$PLINEWID
 40
0.0
  9
$SPLFRAME
 70
     0
  9
$SPLINETYPE
 70
     6
  9
$SPLINESEGS
 70
     8
  9
$HANDSEED
  5
33F
  9
$SURFTAB1
 70
     6
  9
$SURFTAB2
 70
     6
  9
$SURFTYPE
 70
     6
  9
$SURFU
 70
     6
  9
$SURFV
 70
     6
  9
$UCSBASE
  2

  9
$UCSNAME
  2

  9
$UCSORG
 10
0.0
 20
0.0
 30
0.0
  9
$UCSXDIR
 10
1.0
 20
0.0
 30
0.0
  9
$UCSYDIR
 10
0.0
 20
1.0
 30
0.0
  9
$UCSORTHOREF
  2

  9
$UCSORTHOVIEW
 70
     0
  9
$UCSORGTOP
 10
0.0
 20
0.0
 30
0.0
  9
$UCSORGBOTTOM
 10
0.0
 20
0.0
 30
0.0
  9
$UCSORGLEFT
 10
0.0
 20
0.0
 30
0.0
  9
$UCSORGRIGHT
 10
0.0
 20
0.0
 30
0.0
  9
$UCSORGFRONT
 10
0.0
 20
0.0
 30
0.0
  9
$UCSORGBACK
 10
0.0
 20
0.0
 30
0.0
  9
$PUCSBASE
  2

  9
$PUCSNAME
  2

  9
$PUCSORG
 10
0.0
 20
0.0
 30
0.0
  9
$PUCSXDIR
 10
1.0
 20
0.0
 30
0.0
  9
$PUCSYDIR
 10
0.0
 20
1.0
 30
0.0
  9
$PUCSORTHOREF
  2

  9
$PUCSORTHOVIEW
 70
     0
  9
$PUCSORGTOP
 10
0.0
 20
0.0
 30
0.0
  9
$PUCSORGBOTTOM
 10
0.0
 20
0.0
 30
0.0
  9
$PUCSORGLEFT
 10
0.0
 20
0.0
 30
0.0
  9
$PUCSORGRIGHT
 10
0.0
 20
0.0
 30
0.0
  9
$PUCSORGFRONT
 10
0.0
 20
0.0
 30
0.0
  9
$PUCSORGBACK
 10
0.0
 20
0.0
 30
0.0
  9
$USERI1
 70
     0
  9
$USERI2
 70
     0
  9
$USERI3
 70
     0
  9
$USERI4
 70
     0
  9
$USERI5
 70
     0
  9
$USERR1
 40
0.0
  9
$USERR2
 40
0.0
  9
$USERR3
 40
0.0
  9
$USERR4
 40
0.0
  9
$USERR5
 40
0.0
  9
$WORLDVIEW
 70
     1
  9
$SHADEDGE
 70
     3
  9
$SHADEDIF
 70
    70
  9
$TILEMODE
 70
     1
  9
$MAXACTVP
 70
    64
  9
$PINSBASE
 10
0.0
 20
0.0
 30
0.0
  9
$PLIMCHECK
 70
     0
  9
$PEXTMIN
 10
0.0
 20
0.0
 30
0.0
  9
$PEXTMAX
 10
0.0
 20
0.0
 30
0.0
  9
$PLIMMIN
 10
0.0
 20
0.0
  9
$PLIMMAX
 10
12.0
 20
9.0
  9
$UNITMODE
 70
     0
  9
$VISRETAIN
 70
     1
  9
$PLINEGEN
 70
     0
  9
$PSLTSCALE
 70
     1
  9
$TREEDEPTH
 70
  3020
  9
$CMLSTYLE
  2
Standard
  9
$CMLJUST
 70
     0
  9
$CMLSCALE
 40
20.0
  9
$PROXYGRAPHICS
 70
     1
  9
$MEASUREMENT
 70
     1
  9
$CELWEIGHT
370
    -1
  9
$ENDCAPS
280
     0
  9
$JOINSTYLE
280
     0
  9
$LWDISPLAY
290
     0
  9
$INSUNITS
 70
     4
  9
$HYPERLINKBASE
  1

  9
$STYLESHEET
  1

  9
$XEDIT
290
     1
  9
$CEPSNTYPE
380
     0
  9
$PSTYLEMODE
290
     1
  9
$FINGERPRINTGUID
  2
{FDEAD578-A652-11D2-9A35-0060089B3A3F}
  9
$VERSIONGUID
  2
{74952C4E-4018-49E9-9244-5647504382BC}
  9
$EXTNAMES
290
     1
  9
$PSVPSCALE
 40
0.0
  9
$OLESTARTUP
290
     0
  0
ENDSEC
  0
SECTION
  2
CLASSES
  0
CLASS
  1
ACDBDICTIONARYWDFLT
  2
AcDbDictionaryWithDefault
  3
ObjectDBX Classes
 90
        0
280
     0
281
     0
  0
CLASS
  1
ACDBPLACEHOLDER
  2
AcDbPlaceHolder
  3
ObjectDBX Classes
 90
        0
280
     0
281
     0
  0
CLASS
  1
LAYOUT
  2
AcDbLayout
  3
ObjectDBX Classes
 90
        0
280
     0
281
     0
  0
CLASS
  1
DICTIONARYVAR
  2
AcDbDictionaryVar
  3
ObjectDBX Classes
 90
        0
280
     0
281
     0
  0
ENDSEC
  0
SECTION
  2
TABLES
  0
TABLE
  2
VPORT
  5
8
330
0
100
AcDbSymbolTable
 70
     3
  0
VPORT
  5
335
330
8
100
AcDbSymbolTableRecord
100
AcDbViewportTableRecord
  2
*Active
 70
     0
 10
0.0
 20
0.0
 11
1.0
 21
1.0
 12
611.2157410934647
 22
567.9830073934988
 13
0.0
 23
0.0
 14
10.0
 24
10.0
 15
10.0
 25
10.0
 16
0.0
 26
0.0
 36
1.0
 17
0.0
 27
0.0
 37
0.0
 40
1412.7653614258
 41
1.68860353130016
 42
50.0
 43
0.0
 44
0.0
 50
0.0
 51
0.0
 71
     0
 72
  1000
 73
     1
 74
     3
 75
     0
 76
     0
 77
     0
 78
     0
281
     0
 65
     1
110
0.0
120
0.0
130
0.0
111
1.0
121
0.0
131
0.0
112
0.0
122
1.0
132
0.0
 79
     0
146
0.0
  0
ENDTAB
  0
TABLE
  2
LTYPE
  5
5
330
0
100
AcDbSymbolTable
 70
     1
  0
LTYPE
  5
14
330
5
100
AcDbSymbolTableRecord
100
AcDbLinetypeTableRecord
  2
ByBlock
 70
     0
  3

 72
    65
 73
     0
 40
0.0
  0
LTYPE
  5
15
330
5
100
AcDbSymbolTableRecord
100
AcDbLinetypeTableRecord
  2
ByLayer
 70
     0
  3

 72
    65
 73
     0
 40
0.0
  0
LTYPE
  5
16
330
5
100
AcDbSymbolTableRecord
100
AcDbLinetypeTableRecord
  2
Continuous
 70
     0
  3
Solid line
 72
    65
 73
     0
 40
0.0
  0
ENDTAB
  0
TABLE
  2
LAYER
  5
2
330
0
100
AcDbSymbolTable
 70
     4
  0
LAYER
  5
10
330
2
100
AcDbSymbolTableRecord
100
AcDbLayerTableRecord
  2
0
 70
     0
 62
     2
  6
Continuous
370
    -3
390
F
  0
LAYER
  5
94
330
2
100
AcDbSymbolTableRecord
100
AcDbLayerTableRecord
  2
1
 70
     0
 62
     1
  6
Continuous
370
    -3
390
F
  0
LAYER
  5
95
330
2
100
AcDbSymbolTableRecord
100
AcDbLayerTableRecord
  2
2
 70
     0
 62
     7
  6
Continuous
370
    -3
390
F
  0
LAYER
  5
10E
330
2
100
AcDbSymbolTableRecord
100
AcDbLayerTableRecord
  2
3
 70
     0
 62
     7
  6
Continuous
370
    -3
390
F
  0
ENDTAB
  0
TABLE
  2
STYLE
  5
3
330
0
100
AcDbSymbolTable
 70
     1
  0
STYLE
  5
11
330
3
100
AcDbSymbolTableRecord
100
AcDbTextStyleTableRecord
  2
Standard
 70
     0
 40
0.0
 41
1.0
 50
0.0
 71
     0
 42
2.5
  3
txt
  4

  0
ENDTAB
  0
TABLE
  2
VIEW
  5
6
330
0
100
AcDbSymbolTable
 70
     0
  0
ENDTAB
  0
TABLE
  2
UCS
  5
7
330
0
100
AcDbSymbolTable
 70
     0
  0
ENDTAB
  0
TABLE
  2
APPID
  5
9
330
0
100
AcDbSymbolTable
 70
     1
  0
APPID
  5
12
330
9
100
AcDbSymbolTableRecord
100
AcDbRegAppTableRecord
  2
ACAD
 70
     0
  0
ENDTAB
  0
TABLE
  2
DIMSTYLE
  5
A
330
0
100
AcDbSymbolTable
 70
     1
100
AcDbDimStyleTable
 71
     0
  0
DIMSTYLE
105
27
330
A
100
AcDbSymbolTableRecord
100
AcDbDimStyleTableRecord
  2
ISO-25
 70
     0
 41
2.5
 42
0.625
 43
3.75
 44
1.25
 73
     0
 74
     0
 77
     1
 78
     8
140
2.5
141
2.5
143
0.03937007874016
147
0.625
171
     3
172
     1
271
     2
272
     2
274
     3
278
    44
283
     0
284
     8
340
11
  0
ENDTAB
  0
TABLE
  2
BLOCK_RECORD
  5
1
330
0
100
AcDbSymbolTable
 70
     1
  0
BLOCK_RECORD
  5
1F
330
1
100
AcDbSymbolTableRecord
100
AcDbBlockTableRecord
  2
*Model_Space
340
22
  0
BLOCK_RECORD
  5
50
330
1
100
AcDbSymbolTableRecord
100
AcDbBlockTableRecord
  2
*Paper_Space
340
51
  0
BLOCK_RECORD
  5
55
330
1
100
AcDbSymbolTableRecord
100
AcDbBlockTableRecord
  2
*Paper_Space0
340
56
  0
ENDTAB
  0
ENDSEC
  0
SECTION
  2
BLOCKS
  0
BLOCK
  5
20
330
1F
100
AcDbEntity
  8
0
100
AcDbBlockBegin
  2
*Model_Space
 70
     0
 10
0.0
 20
0.0
 30
0.0
  3
*Model_Space
  1

  0
ENDBLK
  5
21
330
1F
100
AcDbEntity
  8
0
100
AcDbBlockEnd
  0
BLOCK
  5
52
330
50
100
AcDbEntity
 67
     1
  8
0
100
AcDbBlockBegin
  2
*Paper_Space
 70
     0
 10
0.0
 20
0.0
 30
0.0
  3
*Paper_Space
  1

  0
ENDBLK
  5
53
330
50
100
AcDbEntity
 67
     1
  8
0
100
AcDbBlockEnd
  0
BLOCK
  5
57
330
55
100
AcDbEntity
  8
0
100
AcDbBlockBegin
  2
*Paper_Space0
 70
     0
 10
0.0
 20
0.0
 30
0.0
  3
*Paper_Space0
  1

  0
ENDBLK
  5
58
330
55
100
AcDbEntity
  8
0
100
AcDbBlockEnd
  0
ENDSEC
  0
SECTION
  2
ENTITIES
  0
LINE
  5
2BC
330
1F
100
AcDbEntity
  8
3
100
AcDbLine
 10
498.1433424668995
 20
92.4098133833815
 30
0.0
 11
503.9933424669002
 21
92.40981338337325
 31
0.0
  0
LINE
  5
2BD
330
1F
100
AcDbEntity
  8
3
100
AcDbLine
 10
485.3611968211468
 20
928.5159122403557
 30
0.0
 11
475.5173806128211
 21
937.5159122403559
 31
0.0
  0
LINE
  5
2BE
330
1F
100
AcDbEntity
  8
3
100
AcDbLine
 10
518.7550134797552
 20
937.5159122403559
 30
0.0
 11
516.7754881126736
 21
928.5159122403557
 31
0.0
  0
LINE
  5
2BF
330
1F
100
AcDbEntity
  8
3
100
AcDbLine
 10
475.5173806128211
 20
937.5159122403559
 30
0.0
 11
518.7550134797552
 21
937.5159122403559
 31
0.0
  0
LINE
  5
2C0
330
1F
100
AcDbEntity
  8
3
100
AcDbLine
 10
485.3611968211468
 20
223.5880453359506
 30
0.0
 11
498.1433424669118
 21
189.1951464898808
 31
0.0
  0
LINE
  5
2C1
330
1F
100
AcDbEntity
  8
3
100
AcDbLine
 10
516.7754881126736
 20
223.5880453359506
 30
0.0
 11
503.9933424669086
 21
189.195146489889
 31
0.0
  0
LINE
  5
2C2
330
1F
100
AcDbEntity
  8
3
100
AcDbLine
 10
498.1433424669118
 20
189.1951464898808
 30
0.0
 11
498.1433424669118
 21
173.2898213127193
 31
0.0
  0
LINE
  5
2C3
330
1F
100
AcDbEntity
  8
3
100
AcDbLine
 10
503.9933424669086
 20
189.195146489889
 30
0.0
 11
503.9933424669086
 21
173.2898213127315
 31
0.0
  0
LINE
  5
2C4
330
1F
100
AcDbEntity
  8
3
100
AcDbLine
 10
501.0683424669347
 20
636.002127011956
 30
0.0
 11
485.3611968211795
 21
636.002127011956
 31
0.0
  0
LINE
  5
2C5
330
1F
100
AcDbEntity
  8
3
100
AcDbLine
 10
493.2147696440613
 20
653.1147648975174
 30
0.0
 11
485.3611968211877
 21
653.1147648975174
 31
0.0
  0
LINE
  5
2C6
330
1F
100
AcDbEntity
  8
3
100
AcDbLine
 10
493.2147696440695
 20
687.3400406686324
 30
0.0
 11
485.3611968211958
 21
687.3400406686324
 31
0.0
  0
LINE
  5
2C7
330
1F
100
AcDbEntity
  8
3
100
AcDbLine
 10
501.0683424669429
 20
670.2274027830709
 30
0.0
 11
485.3611968211877
 21
670.2274027830709
 31
0.0
  0
LINE
  5
2C8
330
1F
100
AcDbEntity
  8
3
100
AcDbLine
 10
501.0683424669429
 20
738.6779543253005
 30
0.0
 11
485.3611968211877
 21
738.6779543253005
 31
0.0
  0
LINE
  5
2C9
330
1F
100
AcDbEntity
  8
3
100
AcDbLine
 10
493.2147696440695
 20
755.7905922108621
 30
0.0
 11
485.3611968211958
 21
755.7905922108621
 31
0.0
  0
LINE
  5
2CA
330
1F
100
AcDbEntity
  8
3
100
AcDbLine
 10
493.2147696440613
 20
721.5653164397474
 30
0.0
 11
485.3611968211877
 21
721.5653164397474
 31
0.0
  0
LINE
  5
2CB
330
1F
100
AcDbEntity
  8
3
100
AcDbLine
 10
501.0683424669347
 20
704.4526785541858
 30
0.0
 11
485.3611968211795
 21
704.4526785541858
 31
0.0
  0
LINE
  5
2CC
330
1F
100
AcDbEntity
  8
3
100
AcDbLine
 10
501.0683424669511
 20
841.3537816386449
 30
0.0
 11
485.3611968211958
 21
841.3537816386449
 31
0.0
  0
LINE
  5
2CD
330
1F
100
AcDbEntity
  8
3
100
AcDbLine
 10
493.2147696440776
 20
858.4664195242069
 30
0.0
 11
485.361196821204
 21
858.4664195242069
 31
0.0
  0
LINE
  5
2CE
330
1F
100
AcDbEntity
  8
3
100
AcDbLine
 10
493.2147696440856
 20
892.6916952953215
 30
0.0
 11
485.3611968212123
 21
892.6916952953215
 31
0.0
  0
LINE
  5
2CF
330
1F
100
AcDbEntity
  8
3
100
AcDbLine
 10
501.0683424669593
 20
875.57905740976
 30
0.0
 11
485.361196821204
 21
875.57905740976
 31
0.0
  0
LINE
  5
2D0
330
1F
100
AcDbEntity
  8
3
100
AcDbLine
 10
501.0683424669593
 20
807.1285058675304
 30
0.0
 11
485.361196821204
 21
807.1285058675304
 31
0.0
  0
LINE
  5
2D1
330
1F
100
AcDbEntity
  8
3
100
AcDbLine
 10
493.2147696440856
 20
824.2411437530916
 30
0.0
 11
485.3611968212123
 21
824.2411437530916
 31
0.0
  0
LINE
  5
2D2
330
1F
100
AcDbEntity
  8
3
100
AcDbLine
 10
493.2147696440776
 20
790.0158679819769
 30
0.0
 11
485.361196821204
 21
790.0158679819769
 31
0.0
  0
LINE
  5
2D3
330
1F
100
AcDbEntity
  8
3
100
AcDbLine
 10
501.0683424669511
 20
772.9032300964155
 30
0.0
 11
485.3611968211958
 21
772.9032300964155
 31
0.0
  0
LINE
  5
2D4
330
1F
100
AcDbEntity
  8
3
100
AcDbLine
 10
501.0683424669184
 20
499.1010239274965
 30
0.0
 11
485.361196821163
 21
499.1010239274965
 31
0.0
  0
LINE
  5
2D5
330
1F
100
AcDbEntity
  8
3
100
AcDbLine
 10
493.2147696440448
 20
516.213661813058
 30
0.0
 11
485.3611968211713
 21
516.213661813058
 31
0.0
  0
LINE
  5
2D6
330
1F
100
AcDbEntity
  8
3
100
AcDbLine
 10
493.214769644053
 20
550.4389375841729
 30
0.0
 11
485.3611968211795
 21
550.4389375841729
 31
0.0
  0
LINE
  5
2D7
330
1F
100
AcDbEntity
  8
3
100
AcDbLine
 10
501.0683424669265
 20
533.3262996986114
 30
0.0
 11
485.3611968211713
 21
533.3262996986114
 31
0.0
  0
LINE
  5
2D8
330
1F
100
AcDbEntity
  8
3
100
AcDbLine
 10
501.0683424669265
 20
601.7768512408411
 30
0.0
 11
485.3611968211713
 21
601.7768512408411
 31
0.0
  0
LINE
  5
2D9
330
1F
100
AcDbEntity
  8
3
100
AcDbLine
 10
493.214769644053
 20
618.8894891264027
 30
0.0
 11
485.3611968211795
 21
618.8894891264027
 31
0.0
  0
LINE
  5
2DA
330
1F
100
AcDbEntity
  8
3
100
AcDbLine
 10
493.2147696440448
 20
584.6642133552877
 30
0.0
 11
485.3611968211713
 21
584.6642133552877
 31
0.0
  0
LINE
  5
2DB
330
1F
100
AcDbEntity
  8
3
100
AcDbLine
 10
501.0683424669184
 20
567.5515754697263
 30
0.0
 11
485.361196821163
 21
567.5515754697263
 31
0.0
  0
LINE
  5
2DC
330
1F
100
AcDbEntity
  8
3
100
AcDbLine
 10
501.0683424669021
 20
430.6504723852668
 30
0.0
 11
485.3611968211468
 21
430.6504723852668
 31
0.0
  0
LINE
  5
2DD
330
1F
100
AcDbEntity
  8
3
100
AcDbLine
 10
493.2147696440284
 20
447.7631102708283
 30
0.0
 11
485.3611968211549
 21
447.7631102708283
 31
0.0
  0
LINE
  5
2DE
330
1F
100
AcDbEntity
  8
3
100
AcDbLine
 10
493.2147696440367
 20
481.9883860419434
 30
0.0
 11
485.361196821163
 21
481.9883860419434
 31
0.0
  0
LINE
  5
2DF
330
1F
100
AcDbEntity
  8
3
100
AcDbLine
 10
501.0683424669102
 20
464.8757481563816
 30
0.0
 11
485.3611968211549
 21
464.8757481563816
 31
0.0
  0
LINE
  5
2E0
330
1F
100
AcDbEntity
  8
3
100
AcDbLine
 10
501.0683424669102
 20
396.4251966141521
 30
0.0
 11
485.3611968211549
 21
396.4251966141521
 31
0.0
  0
LINE
  5
2E1
330
1F
100
AcDbEntity
  8
3
100
AcDbLine
 10
493.2147696440367
 20
413.5378344997134
 30
0.0
 11
485.361196821163
 21
413.5378344997134
 31
0.0
  0
LINE
  5
2E2
330
1F
100
AcDbEntity
  8
3
100
AcDbLine
 10
493.2147696440284
 20
379.3125587285986
 30
0.0
 11
485.3611968211549
 21
379.3125587285986
 31
0.0
  0
LINE
  5
2E3
330
1F
100
AcDbEntity
  8
3
100
AcDbLine
 10
501.0683424669021
 20
362.1999208430373
 30
0.0
 11
485.3611968211468
 21
362.1999208430373
 31
0.0
  0
LINE
  5
2E4
330
1F
100
AcDbEntity
  8
3
100
AcDbLine
 10
501.0683424669102
 20
327.9746450719223
 30
0.0
 11
485.3611968211468
 21
327.9746450719223
 31
0.0
  0
LINE
  5
2E5
330
1F
100
AcDbEntity
  8
3
100
AcDbLine
 10
493.2147696440203
 20
345.0872829574839
 30
0.0
 11
485.3611968211468
 21
345.0872829574839
 31
0.0
  0
LINE
  5
2E6
330
1F
100
AcDbEntity
  8
3
100
AcDbLine
 10
485.3611968211468
 20
223.5880453359506
 30
0.0
 11
516.7754881126736
 21
223.5880453359506
 31
0.0
  0
LINE
  5
2E7
330
1F
100
AcDbEntity
  8
3
100
AcDbLine
 10
485.3611968211468
 20
928.5159122403557
 30
0.0
 11
485.3611968211468
 21
223.5880453359506
 31
0.0
  0
LINE
  5
2E8
330
1F
100
AcDbEntity
  8
3
100
AcDbLine
 10
516.7754881126736
 20
928.5159122403557
 30
0.0
 11
516.7754881126736
 21
223.5880453359506
 31
0.0
  0
LINE
  5
2E9
330
1F
100
AcDbEntity
  8
3
100
AcDbLine
 10
485.3611968211468
 20
928.5159122403557
 30
0.0
 11
516.7754881126736
 21
928.5159122403557
 31
0.0
  0
LINE
  5
2EA
330
1F
100
AcDbEntity
  8
1
 62
     1
100
AcDbLine
 10
414.0197924210101
 20
25.47847979414803
 30
0.0
 11
585.9800346114623
 21
25.47847979414803
 31
0.0
  0
LINE
  5
2EB
330
1F
100
AcDbEntity
  8
1
 62
     1
100
AcDbLine
 10
414.0197924210101
 20
974.5215863066899
 30
0.0
 11
414.0197924210099
 21
25.47847979414803
 31
0.0
  0
LINE
  5
2EC
330
1F
100
AcDbEntity
  8
1
 62
     1
100
AcDbLine
 10
585.9800346114623
 20
974.5215863066899
 30
0.0
 11
414.0197924210099
 21
974.5215863066896
 31
0.0
  0
LINE
  5
2ED
330
1F
100
AcDbEntity
  8
1
 62
     1
100
AcDbLine
 10
585.9800346114621
 20
25.47847979414803
 30
0.0
 11
585.9800346114623
 21
974.5215863066899
 31
0.0
  0
LWPOLYLINE
  5
2EE
330
1F
100
AcDbEntity
  8
0
 62
     2
100
AcDbPolyline
 90
        4
 70
     1
 43
0.0
 10
-0.0000864837638801
 20
0.000033050419006
 10
999.9999135162362
 20
0.000033050419006
 10
999.9999135162362
 20
1000.000033050419
 10
-0.0000864837638801
 20
1000.000033050419
  0
LINE
  5
2EF
330
1F
100
AcDbEntity
  8
3
100
AcDbLine
 10
494.2786154060019
 20
173.2898213127438
 30
0.0
 11
494.278615406055
 21
149.198158258725
 31
0.0
  0
LINE
  5
2F0
330
1F
100
AcDbEntity
  8
3
100
AcDbLine
 10
494.278615406055
 20
149.198158258725
 30
0.0
 11
507.8580695277978
 21
149.198158258725
 31
0.0
  0
LINE
  5
2F1
330
1F
100
AcDbEntity
  8
3
100
AcDbLine
 10
507.8580695277978
 20
149.198158258725
 30
0.0
 11
507.8580695277978
 21
173.2898213127438
 31
0.0
  0
LINE
  5
2F2
330
1F
100
AcDbEntity
  8
3
100
AcDbLine
 10
507.8580695277978
 20
173.2898213127438
 30
0.0
 11
494.2786154060019
 21
173.2898213127193
 31
0.0
  0
LINE
  5
2F3
330
1F
100
AcDbEntity
  8
3
100
AcDbLine
 10
505.1059985591214
 20
138.0884288983922
 30
0.0
 11
505.1059985591214
 21
138.0884288983922
 31
0.0
  0
LINE
  5
2F4
330
1F
100
AcDbEntity
  8
3
100
AcDbLine
 10
505.4901711515246
 20
149.198158258725
 30
0.0
 11
505.4901711515246
 21
146.693182009733
 31
0.0
  0
ARC
  5
2F5
330
1F
100
AcDbEntity
  8
3
100
AcDbCircle
 10
506.6596803962761
 20
143.6432935785525
 30
0.0
 40
1.198389131518228
100
AcDbArc
 50
316.9137207111738
 51
43.08627928838927
  0
LINE
  5
2F6
330
1F
100
AcDbEntity
  8
3
100
AcDbLine
 10
505.4901711515246
 20
146.693182009733
 30
0.0
 11
507.5431810381056
 21
144.4529621072994
 31
0.0
  0
LINE
  5
2F7
330
1F
100
AcDbEntity
  8
3
100
AcDbLine
 10
505.4901711515246
 20
140.5934051473842
 30
0.0
 11
507.5431810381056
 21
142.8336250498055
 31
0.0
  0
LINE
  5
2F8
330
1F
100
AcDbEntity
  8
3
100
AcDbLine
 10
505.4901711515246
 20
138.0884288983922
 30
0.0
 11
505.4901711515246
 21
140.5934051473842
 31
0.0
  0
LINE
  5
2F9
330
1F
100
AcDbEntity
  8
3
100
AcDbLine
 10
496.6465137822712
 20
146.693182009733
 30
0.0
 11
494.593503895694
 21
144.4529621072994
 31
0.0
  0
LINE
  5
2FA
330
1F
100
AcDbEntity
  8
3
100
AcDbLine
 10
496.6465137822712
 20
149.198158258725
 30
0.0
 11
496.6465137822712
 21
146.693182009733
 31
0.0
  0
ARC
  5
2FB
330
1F
100
AcDbEntity
  8
3
100
AcDbCircle
 10
495.4770045375194
 20
143.6432935785525
 30
0.0
 40
1.198389131518228
100
AcDbArc
 50
136.9137207116107
 51
223.0862792888263
  0
LINE
  5
2FC
330
1F
100
AcDbEntity
  8
3
100
AcDbLine
 10
496.6465137822712
 20
140.5934051473842
 30
0.0
 11
494.593503895694
 21
142.8336250498055
 31
0.0
  0
LINE
  5
2FD
330
1F
100
AcDbEntity
  8
3
100
AcDbLine
 10
496.6465137822712
 20
138.0884288983922
 30
0.0
 11
496.6465137822712
 21
140.5934051473842
 31
0.0
  0
LINE
  5
2FE
330
1F
100
AcDbEntity
  8
3
100
AcDbLine
 10
496.6465137822712
 20
126.9786995380673
 30
0.0
 11
496.6465137822712
 21
129.4836757870594
 31
0.0
  0
LINE
  5
2FF
330
1F
100
AcDbEntity
  8
3
100
AcDbLine
 10
496.6465137822835
 20
129.4836757870594
 30
0.0
 11
494.5935038957024
 21
131.7238956894849
 31
0.0
  0
ARC
  5
300
330
1F
100
AcDbEntity
  8
3
100
AcDbCircle
 10
495.4770045375194
 20
132.5335642182318
 30
0.0
 40
1.198389131518228
100
AcDbArc
 50
136.9137207116107
 51
223.0862792888263
  0
LINE
  5
301
330
1F
100
AcDbEntity
  8
3
100
AcDbLine
 10
496.6465137822712
 20
138.0884288984003
 30
0.0
 11
496.6465137822712
 21
135.5834526494123
 31
0.0
  0
LINE
  5
302
330
1F
100
AcDbEntity
  8
3
100
AcDbLine
 10
496.6465137822835
 20
135.5834526494123
 30
0.0
 11
494.5935038957024
 21
133.3432327469746
 31
0.0
  0
LINE
  5
303
330
1F
100
AcDbEntity
  8
3
100
AcDbLine
 10
505.4901711515246
 20
126.9786995380673
 30
0.0
 11
505.4901711515246
 21
129.4836757870594
 31
0.0
  0
LINE
  5
304
330
1F
100
AcDbEntity
  8
3
100
AcDbLine
 10
505.4901711515246
 20
129.4836757870594
 30
0.0
 11
507.5431810381056
 21
131.7238956894849
 31
0.0
  0
LINE
  5
305
330
1F
100
AcDbEntity
  8
3
100
AcDbLine
 10
505.4901711515246
 20
135.5834526494123
 30
0.0
 11
507.5431810381056
 21
133.3432327469746
 31
0.0
  0
ARC
  5
306
330
1F
100
AcDbEntity
  8
3
100
AcDbCircle
 10
506.6596803962761
 20
132.5335642182318
 30
0.0
 40
1.198389131518228
100
AcDbArc
 50
316.9137207111738
 51
43.08627928838927
  0
LINE
  5
307
330
1F
100
AcDbEntity
  8
3
100
AcDbLine
 10
505.4901711515246
 20
138.0884288984003
 30
0.0
 11
505.4901711515246
 21
135.5834526494123
 31
0.0
  0
LINE
  5
308
330
1F
100
AcDbEntity
  8
3
100
AcDbLine
 10
505.1059985591214
 20
126.9786995380673
 30
0.0
 11
505.1059985591214
 21
126.9786995380673
 31
0.0
  0
LINE
  5
309
330
1F
100
AcDbEntity
  8
3
100
AcDbLine
 10
496.6465137822835
 20
126.9786995380591
 30
0.0
 11
505.4901711515369
 21
126.9786995380673
 31
0.0
  0
LINE
  5
30A
330
1F
100
AcDbEntity
  8
3
100
AcDbLine
 10
503.9933424669086
 20
126.9786995380673
 30
0.0
 11
503.9933424669086
 21
58.34863563824967
 31
0.0
  0
LINE
  5
30B
330
1F
100
AcDbEntity
  8
3
100
AcDbLine
 10
498.1433424669118
 20
126.9786995380591
 30
0.0
 11
498.1433424669118
 21
58.34863563824967
 31
0.0
  0
LINE
  5
30C
330
1F
100
AcDbEntity
  8
3
100
AcDbLine
 10
498.1433424669118
 20
58.34863563824967
 30
0.0
 11
503.9933424669086
 21
58.34863563824967
 31
0.0
  0
ENDSEC
  0
SECTION
  2
OBJECTS
  0
DICTIONARY
  5
C
330
0
100
AcDbDictionary
281
     1
  3
ACAD_COLOR
350
6B
  3
ACAD_GROUP
350
D
  3
ACAD_LAYOUT
350
1A
  3
ACAD_MATERIAL
350
6A
  3
ACAD_MLINESTYLE
350
17
  3
ACAD_PLOTSETTINGS
350
19
  3
ACAD_PLOTSTYLENAME
350
E
  3
ACDBHEADERROUNDTRIPXREC
350
336
  3
AcDbVariableDictionary
350
5E
  0
DICTIONARY
  5
6B
102
{ACAD_REACTORS
330
C
102
}
330
C
100
AcDbDictionary
281
     1
  0
DICTIONARY
  5
D
102
{ACAD_REACTORS
330
C
102
}
330
C
100
AcDbDictionary
281
     1
  0
DICTIONARY
  5
1A
102
{ACAD_REACTORS
330
C
102
}
330
C
100
AcDbDictionary
281
     1
  3
Layout1
350
51
  3
Layout2
350
56
  3
Model
350
22
  0
DICTIONARY
  5
6A
102
{ACAD_REACTORS
330
C
102
}
330
C
100
AcDbDictionary
281
     1
  0
DICTIONARY
  5
17
102
{ACAD_REACTORS
330
C
102
}
330
C
100
AcDbDictionary
281
     1
  3
Standard
350
18
  0
DICTIONARY
  5
19
102
{ACAD_REACTORS
330
C
102
}
330
C
100
AcDbDictionary
281
     1
  0
ACDBDICTIONARYWDFLT
  5
E
102
{ACAD_REACTORS
330
C
102
}
330
C
100
AcDbDictionary
281
     1
  3
Normal
350
F
100
AcDbDictionaryWithDefault
340
F
  0
DICTIONARY
  5
336
102
{ACAD_REACTORS
330
C
102
}
330
C
100
AcDbDictionary
281
     1
  3
COLORDICT
350
338
  3
MATERIALDICT
350
337
  0
DICTIONARY
  5
5E
102
{ACAD_REACTORS
330
C
102
}
330
C
100
AcDbDictionary
281
     1
  3
DIMASSOC
350
5F
  3
HIDETEXT
350
63
  3
PROJECTNAME
350
85
  0
LAYOUT
  5
51
102
{ACAD_XDICTIONARY
360
33B
102
}
102
{ACAD_REACTORS
330
1A
102
}
330
1A
100
AcDbPlotSettings
  1

  2
None
  4

  6

 40
0.0
 41
0.0
 42
0.0
 43
0.0
 44
0.0
 45
0.0
 46
0.0
 47
0.0
 48
0.0
 49
0.0
140
0.0
141
0.0
142
1.0
143
1.0
 70
   688
 72
     0
 73
     0
 74
     5
  7

 75
    16
147
1.0
148
0.0
149
0.0
100
AcDbLayout
  1
Layout1
 70
     1
 71
     1
 10
0.0
 20
0.0
 11
12.0
 21
9.0
 12
0.0
 22
0.0
 32
0.0
 14
0.0
 24
0.0
 34
0.0
 15
0.0
 25
0.0
 35
0.0
146
0.0
 13
0.0
 23
0.0
 33
0.0
 16
1.0
 26
0.0
 36
0.0
 17
0.0
 27
1.0
 37
0.0
 76
     0
330
50
  0
LAYOUT
  5
56
102
{ACAD_XDICTIONARY
360
33D
102
}
102
{ACAD_REACTORS
330
1A
102
}
330
1A
100
AcDbPlotSettings
  1

  2
None
  4

  6

 40
0.0
 41
0.0
 42
0.0
 43
0.0
 44
0.0
 45
0.0
 46
0.0
 47
0.0
 48
0.0
 49
0.0
140
0.0
141
0.0
142
1.0
143
1.0
 70
   688
 72
     0
 73
     0
 74
     5
  7

 75
    16
147
1.0
148
0.0
149
0.0
100
AcDbLayout
  1
Layout2
 70
     1
 71
     2
 10
0.0
 20
0.0
 11
12.0
 21
9.0
 12
0.0
 22
0.0
 32
0.0
 14
0.0
 24
0.0
 34
0.0
 15
0.0
 25
0.0
 35
0.0
146
0.0
 13
0.0
 23
0.0
 33
0.0
 16
1.0
 26
0.0
 36
0.0
 17
0.0
 27
1.0
 37
0.0
 76
     0
330
55
  0
LAYOUT
  5
22
102
{ACAD_XDICTIONARY
360
339
102
}
102
{ACAD_REACTORS
330
1A
102
}
330
1A
100
AcDbPlotSettings
  1

  2
none_device
  4
ANSI_A_(8.50_x_11.00_Inches)
  6

 40
6.349999904632567
 41
19.04999923706055
 42
6.350006103515625
 43
19.04998779296875
 44
215.8999938964844
 45
279.3999938964844
 46
0.0
 47
0.0
 48
0.0
 49
0.0
140
0.0
141
0.0
142
1.0
143
78.436453180766
 70
 11952
 72
     0
 73
     1
 74
     0
  7

 75
     0
147
0.0127491741332998
148
0.0
149
0.0
100
AcDbLayout
  1
Model
 70
     1
 71
     0
 10
0.0
 20
0.0
 11
12.0
 21
9.0
 12
0.0
 22
0.0
 32
0.0
 14
0.0
 24
0.0
 34
0.0
 15
0.0
 25
0.0
 35
0.0
146
0.0
 13
0.0
 23
0.0
 33
0.0
 16
1.0
 26
0.0
 36
0.0
 17
0.0
 27
1.0
 37
0.0
 76
     0
330
1F
  0
MLINESTYLE
  5
18
102
{ACAD_REACTORS
330
17
102
}
330
17
100
AcDbMlineStyle
  2
STANDARD
 70
     0
  3

 62
   256
 51
90.0
 52
90.0
 71
     2
 49
0.5
 62
   256
  6
BYLAYER
 49
-0.5
 62
   256
  6
BYLAYER
  0
ACDBPLACEHOLDER
  5
F
102
{ACAD_REACTORS
330
E
102
}
330
E
  0
XRECORD
  5
338
102
{ACAD_REACTORS
330
336
102
}
330
336
100
AcDbXrecord
280
     1
340
6B
  0
XRECORD
  5
337
102
{ACAD_REACTORS
330
336
102
}
330
336
100
AcDbXrecord
280
     1
340
6A
  0
DICTIONARYVAR
  5
5F
102
{ACAD_REACTORS
330
5E
102
}
330
5E
100
DictionaryVariables
280
     0
  1
2
  0
DICTIONARYVAR
  5
63
102
{ACAD_REACTORS
330
5E
102
}
330
5E
100
DictionaryVariables
280
     0
  1
1
  0
DICTIONARYVAR
  5
85
102
{ACAD_REACTORS
330
5E
102
}
330
5E
100
DictionaryVariables
280
     0
  1

  0
DICTIONARY
  5
33B
330
51
100
AcDbDictionary
280
     1
281
     1
  3
ACAD_XREC_ROUNDTRIP
360
33C
  0
DICTIONARY
  5
33D
330
56
100
AcDbDictionary
280
     1
281
     1
  3
ACAD_XREC_ROUNDTRIP
360
33E
  0
DICTIONARY
  5
339
330
22
100
AcDbDictionary
280
     1
281
     1
  3
ACAD_XREC_ROUNDTRIP
360
33A
  0
XRECORD
  5
33C
102
{ACAD_REACTORS
330
33B
102
}
330
33B
100
AcDbXrecord
280
     1
102
SHADEPLOT
 70
     0
102
SHADEPLOTRESLEVEL
 70
     2
102
SHADEPLOTCUSTOMDPI
 70
   300
  0
XRECORD
  5
33E
102
{ACAD_REACTORS
330
33D
102
}
330
33D
100
AcDbXrecord
280
     1
102
SHADEPLOT
 70
     0
102
SHADEPLOTRESLEVEL
 70
     2
102
SHADEPLOTCUSTOMDPI
 70
   300
  0
XRECORD
  5
33A
102
{ACAD_REACTORS
330
339
102
}
330
339
100
AcDbXrecord
280
     1
102
SHADEPLOT
 70
     0
102
SHADEPLOTRESLEVEL
 70
     2
102
SHADEPLOTCUSTOMDPI
 70
   300
  0
ENDSEC
  0
EOF
