  0
SECTION
  2
HEADER
  9
$ACADVER
  1
AC1015
  9
$ACADMAINTVER
 70
    20
  9
$DWGCODEPAGE
  3
ANSI_936
  9
$INSBASE
 10
0.0
 20
0.0
 30
0.0
  9
$EXTMIN
 10
-0.000100797144114
 20
0.000033050419006
 30
0.0
  9
$EXTMAX
 10
999.9998992028556
 20
1000.000033050419
 30
0.0
  9
$LIMMIN
 10
0.0
 20
0.0
  9
$LIMMAX
 10
420.0
 20
297.0
  9
$ORTHOMODE
 70
     0
  9
$REGENMODE
 70
     1
  9
$FILLMODE
 70
     1
  9
$QTEXTMODE
 70
     0
  9
$MIRRTEXT
 70
     0
  9
$LTSCALE
 40
1.0
  9
$ATTMODE
 70
     1
  9
$TEXTSIZE
 40
2.5
  9
$TRACEWID
 40
1.0
  9
$TEXTSTYLE
  7
Standard
  9
$CLAYER
  8
2
  9
$CELTYPE
  6
ByLayer
  9
$CECOLOR
 62
   256
  9
$CELTSCALE
 40
1.0
  9
$DISPSILH
 70
     0
  9
$DIMSCALE
 40
1.0
  9
$DIMASZ
 40
2.5
  9
$DIMEXO
 40
0.625
  9
$DIMDLI
 40
3.75
  9
$DIMRND
 40
0.0
  9
$DIMDLE
 40
0.0
  9
$DIMEXE
 40
1.25
  9
$DIMTP
 40
0.0
  9
$DIMTM
 40
0.0
  9
$DIMTXT
 40
2.5
  9
$DIMCEN
 40
2.5
  9
$DIMTSZ
 40
0.0
  9
$DIMTOL
 70
     0
  9
$DIMLIM
 70
     0
  9
$DIMTIH
 70
     0
  9
$DIMTOH
 70
     0
  9
$DIMSE1
 70
     0
  9
$DIMSE2
 70
     0
  9
$DIMTAD
 70
     1
  9
$DIMZIN
 70
     8
  9
$DIMBLK
  1

  9
$DIMASO
 70
     1
  9
$DIMSHO
 70
     1
  9
$DIMPOST
  1

  9
$DIMAPOST
  1

  9
$DIMALT
 70
     0
  9
$DIMALTD
 70
     3
  9
$DIMALTF
 40
0.03937007874016
  9
$DIMLFAC
 40
1.0
  9
$DIMTOFL
 70
     1
  9
$DIMTVP
 40
0.0
  9
$DIMTIX
 70
     0
  9
$DIMSOXD
 70
     0
  9
$DIMSAH
 70
     0
  9
$DIMBLK1
  1

  9
$DIMBLK2
  1

  9
$DIMSTYLE
  2
ISO-25
  9
$DIMCLRD
 70
     0
  9
$DIMCLRE
 70
     0
  9
$DIMCLRT
 70
     0
  9
$DIMTFAC
 40
1.0
  9
$DIMGAP
 40
0.625
  9
$DIMJUST
 70
     0
  9
$DIMSD1
 70
     0
  9
$DIMSD2
 70
     0
  9
$DIMTOLJ
 70
     0
  9
$DIMTZIN
 70
     8
  9
$DIMALTZ
 70
     0
  9
$DIMALTTZ
 70
     0
  9
$DIMUPT
 70
     0
  9
$DIMDEC
 70
     2
  9
$DIMTDEC
 70
     2
  9
$DIMALTU
 70
     2
  9
$DIMALTTD
 70
     3
  9
$DIMTXSTY
  7
Standard
  9
$DIMAUNIT
 70
     0
  9
$DIMADEC
 70
     0
  9
$DIMALTRND
 40
0.0
  9
$DIMAZIN
 70
     0
  9
$DIMDSEP
 70
    44
  9
$DIMATFIT
 70
     3
  9
$DIMFRAC
 70
     0
  9
$DIMLDRBLK
  1

  9
$DIMLUNIT
 70
     2
  9
$DIMLWD
 70
    -2
  9
$DIMLWE
 70
    -2
  9
$DIMTMOVE
 70
     0
  9
$LUNITS
 70
     2
  9
$LUPREC
 70
     4
  9
$SKETCHINC
 40
1.0
  9
$FILLETRAD
 40
0.0
  9
$AUNITS
 70
     0
  9
$AUPREC
 70
     0
  9
$MENU
  1
.
  9
$ELEVATION
 40
0.0
  9
$PELEVATION
 40
0.0
  9
$THICKNESS
 40
0.0
  9
$LIMCHECK
 70
     0
  9
$CHAMFERA
 40
0.0
  9
$CHAMFERB
 40
0.0
  9
$CHAMFERC
 40
0.0
  9
$CHAMFERD
 40
0.0
  9
$SKPOLY
 70
     0
  9
$TDCREATE
 40
2455505.725807523
  9
$TDUCREATE
 40
2455505.392474190
  9
$TDUPDATE
 40
2457095.675226771
  9
$TDUUPDATE
 40
2457095.341893437
  9
$TDINDWG
 40
0.0504165278
  9
$TDUSRTIMER
 40
0.0504159606
  9
$USRTIMER
 70
     1
  9
$ANGBASE
 50
0.0
  9
$ANGDIR
 70
     0
  9
$PDMODE
 70
     0
  9
$PDSIZE
 40
0.0
  9
$PLINEWID
 40
0.0
  9
$SPLFRAME
 70
     0
  9
$SPLINETYPE
 70
     6
  9
$SPLINESEGS
 70
     8
  9
$HANDSEED
  5
315
  9
$SURFTAB1
 70
     6
  9
$SURFTAB2
 70
     6
  9
$SURFTYPE
 70
     6
  9
$SURFU
 70
     6
  9
$SURFV
 70
     6
  9
$UCSBASE
  2

  9
$UCSNAME
  2

  9
$UCSORG
 10
0.0
 20
0.0
 30
0.0
  9
$UCSXDIR
 10
1.0
 20
0.0
 30
0.0
  9
$UCSYDIR
 10
0.0
 20
1.0
 30
0.0
  9
$UCSORTHOREF
  2

  9
$UCSORTHOVIEW
 70
     0
  9
$UCSORGTOP
 10
0.0
 20
0.0
 30
0.0
  9
$UCSORGBOTTOM
 10
0.0
 20
0.0
 30
0.0
  9
$UCSORGLEFT
 10
0.0
 20
0.0
 30
0.0
  9
$UCSORGRIGHT
 10
0.0
 20
0.0
 30
0.0
  9
$UCSORGFRONT
 10
0.0
 20
0.0
 30
0.0
  9
$UCSORGBACK
 10
0.0
 20
0.0
 30
0.0
  9
$PUCSBASE
  2

  9
$PUCSNAME
  2

  9
$PUCSORG
 10
0.0
 20
0.0
 30
0.0
  9
$PUCSXDIR
 10
1.0
 20
0.0
 30
0.0
  9
$PUCSYDIR
 10
0.0
 20
1.0
 30
0.0
  9
$PUCSORTHOREF
  2

  9
$PUCSORTHOVIEW
 70
     0
  9
$PUCSORGTOP
 10
0.0
 20
0.0
 30
0.0
  9
$PUCSORGBOTTOM
 10
0.0
 20
0.0
 30
0.0
  9
$PUCSORGLEFT
 10
0.0
 20
0.0
 30
0.0
  9
$PUCSORGRIGHT
 10
0.0
 20
0.0
 30
0.0
  9
$PUCSORGFRONT
 10
0.0
 20
0.0
 30
0.0
  9
$PUCSORGBACK
 10
0.0
 20
0.0
 30
0.0
  9
$USERI1
 70
     0
  9
$USERI2
 70
     0
  9
$USERI3
 70
     0
  9
$USERI4
 70
     0
  9
$USERI5
 70
     0
  9
$USERR1
 40
0.0
  9
$USERR2
 40
0.0
  9
$USERR3
 40
0.0
  9
$USERR4
 40
0.0
  9
$USERR5
 40
0.0
  9
$WORLDVIEW
 70
     1
  9
$SHADEDGE
 70
     3
  9
$SHADEDIF
 70
    70
  9
$TILEMODE
 70
     1
  9
$MAXACTVP
 70
    64
  9
$PINSBASE
 10
0.0
 20
0.0
 30
0.0
  9
$PLIMCHECK
 70
     0
  9
$PEXTMIN
 10
0.0
 20
0.0
 30
0.0
  9
$PEXTMAX
 10
0.0
 20
0.0
 30
0.0
  9
$PLIMMIN
 10
0.0
 20
0.0
  9
$PLIMMAX
 10
12.0
 20
9.0
  9
$UNITMODE
 70
     0
  9
$VISRETAIN
 70
     1
  9
$PLINEGEN
 70
     0
  9
$PSLTSCALE
 70
     1
  9
$TREEDEPTH
 70
  3020
  9
$CMLSTYLE
  2
Standard
  9
$CMLJUST
 70
     0
  9
$CMLSCALE
 40
20.0
  9
$PROXYGRAPHICS
 70
     1
  9
$MEASUREMENT
 70
     1
  9
$CELWEIGHT
370
    -1
  9
$ENDCAPS
280
     0
  9
$JOINSTYLE
280
     0
  9
$LWDISPLAY
290
     0
  9
$INSUNITS
 70
     4
  9
$HYPERLINKBASE
  1

  9
$STYLESHEET
  1

  9
$XEDIT
290
     1
  9
$CEPSNTYPE
380
     0
  9
$PSTYLEMODE
290
     1
  9
$FINGERPRINTGUID
  2
{FDEAD578-A652-11D2-9A35-0060089B3A3F}
  9
$VERSIONGUID
  2
{29536B10-B04D-47AD-B4E4-8644F17D401E}
  9
$EXTNAMES
290
     1
  9
$PSVPSCALE
 40
0.0
  9
$OLESTARTUP
290
     0
  0
ENDSEC
  0
SECTION
  2
CLASSES
  0
CLASS
  1
ACDBDICTIONARYWDFLT
  2
AcDbDictionaryWithDefault
  3
ObjectDBX Classes
 90
        0
280
     0
281
     0
  0
CLASS
  1
ACDBPLACEHOLDER
  2
AcDbPlaceHolder
  3
ObjectDBX Classes
 90
        0
280
     0
281
     0
  0
CLASS
  1
LAYOUT
  2
AcDbLayout
  3
ObjectDBX Classes
 90
        0
280
     0
281
     0
  0
CLASS
  1
DICTIONARYVAR
  2
AcDbDictionaryVar
  3
ObjectDBX Classes
 90
        0
280
     0
281
     0
  0
ENDSEC
  0
SECTION
  2
TABLES
  0
TABLE
  2
VPORT
  5
8
330
0
100
AcDbSymbolTable
 70
     3
  0
VPORT
  5
30B
330
8
100
AcDbSymbolTableRecord
100
AcDbViewportTableRecord
  2
*Active
 70
     0
 10
0.0
 20
0.0
 11
1.0
 21
1.0
 12
888.9537789566206
 22
424.5138155875081
 13
0.0
 23
0.0
 14
10.0
 24
10.0
 15
10.0
 25
10.0
 16
0.0
 26
0.0
 36
1.0
 17
0.0
 27
0.0
 37
0.0
 40
2200.067869573901
 41
1.68860353130016
 42
50.0
 43
0.0
 44
0.0
 50
0.0
 51
0.0
 71
     0
 72
  1000
 73
     1
 74
     3
 75
     0
 76
     0
 77
     0
 78
     0
281
     0
 65
     1
110
0.0
120
0.0
130
0.0
111
1.0
121
0.0
131
0.0
112
0.0
122
1.0
132
0.0
 79
     0
146
0.0
  0
ENDTAB
  0
TABLE
  2
LTYPE
  5
5
330
0
100
AcDbSymbolTable
 70
     1
  0
LTYPE
  5
14
330
5
100
AcDbSymbolTableRecord
100
AcDbLinetypeTableRecord
  2
ByBlock
 70
     0
  3

 72
    65
 73
     0
 40
0.0
  0
LTYPE
  5
15
330
5
100
AcDbSymbolTableRecord
100
AcDbLinetypeTableRecord
  2
ByLayer
 70
     0
  3

 72
    65
 73
     0
 40
0.0
  0
LTYPE
  5
16
330
5
100
AcDbSymbolTableRecord
100
AcDbLinetypeTableRecord
  2
Continuous
 70
     0
  3
Solid line
 72
    65
 73
     0
 40
0.0
  0
ENDTAB
  0
TABLE
  2
LAYER
  5
2
330
0
100
AcDbSymbolTable
 70
     4
  0
LAYER
  5
10
330
2
100
AcDbSymbolTableRecord
100
AcDbLayerTableRecord
  2
0
 70
     0
 62
     2
  6
Continuous
370
    -3
390
F
  0
LAYER
  5
94
330
2
100
AcDbSymbolTableRecord
100
AcDbLayerTableRecord
  2
1
 70
     0
 62
     1
  6
Continuous
370
    -3
390
F
  0
LAYER
  5
95
330
2
100
AcDbSymbolTableRecord
100
AcDbLayerTableRecord
  2
2
 70
     0
 62
     7
  6
Continuous
370
    -3
390
F
  0
LAYER
  5
10E
330
2
100
AcDbSymbolTableRecord
100
AcDbLayerTableRecord
  2
3
 70
     0
 62
     7
  6
Continuous
370
    -3
390
F
  0
ENDTAB
  0
TABLE
  2
STYLE
  5
3
330
0
100
AcDbSymbolTable
 70
     1
  0
STYLE
  5
11
330
3
100
AcDbSymbolTableRecord
100
AcDbTextStyleTableRecord
  2
Standard
 70
     0
 40
0.0
 41
1.0
 50
0.0
 71
     0
 42
2.5
  3
txt
  4

  0
ENDTAB
  0
TABLE
  2
VIEW
  5
6
330
0
100
AcDbSymbolTable
 70
     0
  0
ENDTAB
  0
TABLE
  2
UCS
  5
7
330
0
100
AcDbSymbolTable
 70
     0
  0
ENDTAB
  0
TABLE
  2
APPID
  5
9
330
0
100
AcDbSymbolTable
 70
     1
  0
APPID
  5
12
330
9
100
AcDbSymbolTableRecord
100
AcDbRegAppTableRecord
  2
ACAD
 70
     0
  0
ENDTAB
  0
TABLE
  2
DIMSTYLE
  5
A
330
0
100
AcDbSymbolTable
 70
     1
100
AcDbDimStyleTable
 71
     0
  0
DIMSTYLE
105
27
330
A
100
AcDbSymbolTableRecord
100
AcDbDimStyleTableRecord
  2
ISO-25
 70
     0
 41
2.5
 42
0.625
 43
3.75
 44
1.25
 73
     0
 74
     0
 77
     1
 78
     8
140
2.5
141
2.5
143
0.03937007874016
147
0.625
171
     3
172
     1
271
     2
272
     2
274
     3
278
    44
283
     0
284
     8
340
11
  0
ENDTAB
  0
TABLE
  2
BLOCK_RECORD
  5
1
330
0
100
AcDbSymbolTable
 70
     1
  0
BLOCK_RECORD
  5
1F
330
1
100
AcDbSymbolTableRecord
100
AcDbBlockTableRecord
  2
*Model_Space
340
22
  0
BLOCK_RECORD
  5
50
330
1
100
AcDbSymbolTableRecord
100
AcDbBlockTableRecord
  2
*Paper_Space
340
51
  0
BLOCK_RECORD
  5
55
330
1
100
AcDbSymbolTableRecord
100
AcDbBlockTableRecord
  2
*Paper_Space0
340
56
  0
ENDTAB
  0
ENDSEC
  0
SECTION
  2
BLOCKS
  0
BLOCK
  5
20
330
1F
100
AcDbEntity
  8
0
100
AcDbBlockBegin
  2
*Model_Space
 70
     0
 10
0.0
 20
0.0
 30
0.0
  3
*Model_Space
  1

  0
ENDBLK
  5
21
330
1F
100
AcDbEntity
  8
0
100
AcDbBlockEnd
  0
BLOCK
  5
52
330
50
100
AcDbEntity
 67
     1
  8
0
100
AcDbBlockBegin
  2
*Paper_Space
 70
     0
 10
0.0
 20
0.0
 30
0.0
  3
*Paper_Space
  1

  0
ENDBLK
  5
53
330
50
100
AcDbEntity
 67
     1
  8
0
100
AcDbBlockEnd
  0
BLOCK
  5
57
330
55
100
AcDbEntity
  8
0
100
AcDbBlockBegin
  2
*Paper_Space0
 70
     0
 10
0.0
 20
0.0
 30
0.0
  3
*Paper_Space0
  1

  0
ENDBLK
  5
58
330
55
100
AcDbEntity
  8
0
100
AcDbBlockEnd
  0
ENDSEC
  0
SECTION
  2
ENTITIES
  0
LINE
  5
29B
102
{ACAD_REACTORS
330
2ED
102
}
330
1F
100
AcDbEntity
  8
3
100
AcDbLine
 10
479.3746501615458
 20
466.8172407464896
 30
0.0
 11
516.2340852769308
 21
466.8172407464896
 31
0.0
  0
LWPOLYLINE
  5
29C
330
1F
100
AcDbEntity
  8
0
 62
     2
100
AcDbPolyline
 90
        4
 70
     1
 43
0.0
 10
-0.000100797144114
 20
0.000033050419006
 10
999.9998992028556
 20
0.000033050419006
 10
999.9998992028556
 20
1000.000033050419
 10
-0.000100797144114
 20
1000.000033050419
  0
LINE
  5
29D
330
1F
100
AcDbEntity
  8
1
 62
     1
100
AcDbLine
 10
584.5028094550248
 20
24.65239212849372
 30
0.0
 11
584.5028094550245
 21
975.3476739723442
 31
0.0
  0
LINE
  5
29E
330
1F
100
AcDbEntity
  8
1
 62
     1
100
AcDbLine
 10
584.5028094550245
 20
975.3476739723442
 30
0.0
 11
415.4969889506871
 21
975.3476739723442
 31
0.0
  0
LINE
  5
29F
330
1F
100
AcDbEntity
  8
1
 62
     1
100
AcDbLine
 10
415.4969889506871
 20
975.3476739723442
 30
0.0
 11
415.4969889506874
 21
24.65239212849372
 31
0.0
  0
LINE
  5
2A0
330
1F
100
AcDbEntity
  8
1
 62
     1
100
AcDbLine
 10
415.4969889506871
 20
24.65239212849372
 30
0.0
 11
584.5028094550248
 21
24.65239212849372
 31
0.0
  0
LINE
  5
2A1
330
1F
100
AcDbEntity
  8
3
100
AcDbLine
 10
479.3746501615458
 20
919.8526140217408
 30
0.0
 11
479.5915211851001
 21
919.8526140217408
 31
0.0
  0
LINE
  5
2A2
102
{ACAD_REACTORS
330
2ED
102
}
330
1F
100
AcDbEntity
  8
3
100
AcDbLine
 10
516.2340852769308
 20
919.8526140217408
 30
0.0
 11
516.2340852769308
 21
92.73725018723723
 31
0.0
  0
LINE
  5
2A3
102
{ACAD_REACTORS
330
2ED
102
}
330
1F
100
AcDbEntity
  8
3
100
AcDbLine
 10
479.3746501615458
 20
919.8526140217408
 30
0.0
 11
479.3746501615458
 21
92.73725018723723
 31
0.0
  0
LINE
  5
2A4
330
1F
100
AcDbEntity
  8
3
100
AcDbLine
 10
490.2386495791614
 20
235.2963556631695
 30
0.0
 11
479.3746501615458
 21
235.2963556631695
 31
0.0
  0
LINE
  5
2A5
330
1F
100
AcDbEntity
  8
3
100
AcDbLine
 10
490.2386495791614
 20
215.2175272107773
 30
0.0
 11
479.3746501615458
 21
215.2175272107773
 31
0.0
  0
LINE
  5
2A6
330
1F
100
AcDbEntity
  8
3
100
AcDbLine
 10
490.2386495791614
 20
255.3751841155537
 30
0.0
 11
479.3746501615458
 21
255.3751841155537
 31
0.0
  0
LINE
  5
2A7
330
1F
100
AcDbEntity
  8
3
100
AcDbLine
 10
490.2386495791614
 20
275.4540125679379
 30
0.0
 11
479.374650161554
 21
275.4540125679458
 31
0.0
  0
LINE
  5
2A8
330
1F
100
AcDbEntity
  8
3
100
AcDbLine
 10
490.2386495791614
 20
315.6116694727221
 30
0.0
 11
479.3746501615618
 21
315.6116694727143
 31
0.0
  0
LINE
  5
2A9
330
1F
100
AcDbEntity
  8
3
100
AcDbLine
 10
490.2386495791614
 20
295.53284102033
 30
0.0
 11
479.374650161554
 21
295.53284102033
 31
0.0
  0
LINE
  5
2AA
330
1F
100
AcDbEntity
  8
3
100
AcDbLine
 10
490.2386495791614
 20
375.8481548298747
 30
0.0
 11
479.374650161554
 21
375.8481548298829
 31
0.0
  0
LINE
  5
2AB
330
1F
100
AcDbEntity
  8
3
100
AcDbLine
 10
490.2386495791614
 20
395.9269832822666
 30
0.0
 11
479.3746501615618
 21
395.9269832822666
 31
0.0
  0
LINE
  5
2AC
330
1F
100
AcDbEntity
  8
3
100
AcDbLine
 10
490.2386495791614
 20
355.7693263774908
 30
0.0
 11
479.374650161554
 21
355.7693263774908
 31
0.0
  0
LINE
  5
2AD
330
1F
100
AcDbEntity
  8
3
100
AcDbLine
 10
490.2386495791614
 20
335.6904979250984
 30
0.0
 11
479.3746501615458
 21
335.6904979251063
 31
0.0
  0
LINE
  5
2AE
330
1F
100
AcDbEntity
  8
3
100
AcDbLine
 10
490.2386495791614
 20
496.3211255442039
 30
0.0
 11
479.3746501615618
 21
496.3211255442039
 31
0.0
  0
LINE
  5
2AF
330
1F
100
AcDbEntity
  8
3
100
AcDbLine
 10
490.2386495791614
 20
516.3999539966041
 30
0.0
 11
479.374650161578
 21
516.3999539965881
 31
0.0
  0
LINE
  5
2B0
330
1F
100
AcDbEntity
  8
3
100
AcDbLine
 10
490.2386495791614
 20
556.5576109013725
 30
0.0
 11
479.374650161586
 21
556.5576109013646
 31
0.0
  0
LINE
  5
2B1
330
1F
100
AcDbEntity
  8
3
100
AcDbLine
 10
490.2386495791614
 20
536.4787824489723
 30
0.0
 11
479.374650161578
 21
536.4787824489804
 31
0.0
  0
LINE
  5
2B2
330
1F
100
AcDbEntity
  8
3
100
AcDbLine
 10
490.2386495791614
 20
456.1634686394273
 30
0.0
 11
479.374650161578
 21
456.1634686394273
 31
0.0
  0
LINE
  5
2B3
330
1F
100
AcDbEntity
  8
3
100
AcDbLine
 10
490.2386495791614
 20
476.2422970918195
 30
0.0
 11
479.374650161586
 21
476.2422970918195
 31
0.0
  0
LINE
  5
2B4
330
1F
100
AcDbEntity
  8
3
100
AcDbLine
 10
490.2386495791614
 20
436.0846401870434
 30
0.0
 11
479.374650161578
 21
436.0846401870434
 31
0.0
  0
LINE
  5
2B5
330
1F
100
AcDbEntity
  8
3
100
AcDbLine
 10
490.2386495791614
 20
416.0058117346511
 30
0.0
 11
479.3746501615618
 21
416.0058117346511
 31
0.0
  0
LINE
  5
2B6
330
1F
100
AcDbEntity
  8
3
100
AcDbLine
 10
490.2386495791614
 20
737.2670669728461
 30
0.0
 11
479.374650161602
 21
737.2670669728539
 31
0.0
  0
LINE
  5
2B7
330
1F
100
AcDbEntity
  8
3
100
AcDbLine
 10
490.2386495791614
 20
757.3458954252385
 30
0.0
 11
479.3746501616099
 21
757.3458954252385
 31
0.0
  0
LINE
  5
2B8
330
1F
100
AcDbEntity
  8
3
100
AcDbLine
 10
490.2386495791614
 20
797.5035523300148
 30
0.0
 11
479.3746501616256
 21
797.5035523300148
 31
0.0
  0
LINE
  5
2B9
330
1F
100
AcDbEntity
  8
3
100
AcDbLine
 10
490.2386495791614
 20
777.4247238776227
 30
0.0
 11
479.3746501616099
 21
777.4247238776304
 31
0.0
  0
LINE
  5
2BA
330
1F
100
AcDbEntity
  8
3
100
AcDbLine
 10
490.2386495791614
 20
857.7400376871834
 30
0.0
 11
479.3746501616099
 21
857.7400376871754
 31
0.0
  0
LINE
  5
2BB
330
1F
100
AcDbEntity
  8
3
100
AcDbLine
 10
490.2386495791614
 20
877.8188661395594
 30
0.0
 11
479.3746501616256
 21
877.8188661395674
 31
0.0
  0
LINE
  5
2BC
330
1F
100
AcDbEntity
  8
3
100
AcDbLine
 10
490.2386495791614
 20
837.661209234791
 30
0.0
 11
479.3746501616099
 21
837.661209234791
 31
0.0
  0
LINE
  5
2BD
330
1F
100
AcDbEntity
  8
3
100
AcDbLine
 10
490.2386495791614
 20
817.582380782399
 30
0.0
 11
479.374650161602
 21
817.582380782399
 31
0.0
  0
LINE
  5
2BE
330
1F
100
AcDbEntity
  8
3
100
AcDbLine
 10
490.2386495791614
 20
656.9517531633095
 30
0.0
 11
479.374650161586
 21
656.9517531633014
 31
0.0
  0
LINE
  5
2BF
330
1F
100
AcDbEntity
  8
3
100
AcDbLine
 10
490.2386495791614
 20
677.0305816156856
 30
0.0
 11
479.374650161594
 21
677.0305816156937
 31
0.0
  0
LINE
  5
2C0
330
1F
100
AcDbEntity
  8
3
100
AcDbLine
 10
490.2386495791614
 20
717.188238520462
 30
0.0
 11
479.374650161602
 21
717.188238520462
 31
0.0
  0
LINE
  5
2C1
330
1F
100
AcDbEntity
  8
3
100
AcDbLine
 10
490.2386495791614
 20
697.1094100680858
 30
0.0
 11
479.374650161594
 21
697.1094100680776
 31
0.0
  0
LINE
  5
2C2
330
1F
100
AcDbEntity
  8
3
100
AcDbLine
 10
490.2386495791614
 20
616.794096258533
 30
0.0
 11
479.374650161594
 21
616.7940962585251
 31
0.0
  0
LINE
  5
2C3
330
1F
100
AcDbEntity
  8
3
100
AcDbLine
 10
490.2386495791614
 20
636.8729247109091
 30
0.0
 11
479.374650161602
 21
636.8729247109172
 31
0.0
  0
LINE
  5
2C4
330
1F
100
AcDbEntity
  8
3
100
AcDbLine
 10
490.2386495791614
 20
596.7152678061409
 30
0.0
 11
479.374650161594
 21
596.7152678061409
 31
0.0
  0
LINE
  5
2C5
330
1F
100
AcDbEntity
  8
3
100
AcDbLine
 10
490.2386495791614
 20
576.6364393537566
 30
0.0
 11
479.374650161586
 21
576.6364393537566
 31
0.0
  0
CIRCLE
  5
2C6
330
1F
100
AcDbEntity
  8
3
100
AcDbCircle
 10
497.8043677192384
 20
932.2756844715112
 30
0.0
 40
22.0463252782858
  0
LINE
  5
2C7
330
1F
100
AcDbEntity
  8
3
100
AcDbLine
 10
516.0172142533766
 20
919.8526140217408
 30
0.0
 11
516.2340852769308
 21
919.8526140217408
 31
0.0
  0
LINE
  5
2C8
102
{ACAD_REACTORS
330
2ED
102
}
330
1F
100
AcDbEntity
  8
3
100
AcDbLine
 10
507.8459316933161
 20
74.01714442449019
 30
0.0
 11
516.2340852769308
 21
92.73725018723723
 31
0.0
  0
LINE
  5
2C9
102
{ACAD_REACTORS
330
2ED
102
}
330
1F
100
AcDbEntity
  8
3
100
AcDbLine
 10
487.7628037451605
 20
74.01714442449019
 30
0.0
 11
479.3746501615458
 21
92.73725018723723
 31
0.0
  0
CIRCLE
  5
2CA
102
{ACAD_REACTORS
330
2ED
330
2F0
102
}
330
1F
100
AcDbEntity
  8
3
100
AcDbCircle
 10
497.8043677192384
 20
63.33928297256727
 30
0.0
 40
14.65775331460769
  0
HATCH
  5
2ED
330
1F
100
AcDbEntity
  8
2
100
AcDbHatch
 10
0.0
 20
0.0
 30
0.0
210
0.0
220
0.0
230
1.0
  2
SOLID
 70
     1
 71
     1
 91
        1
 92
        7
 72
     1
 73
     1
 93
        6
 10
516.2340852769308
 20
466.8172407464896
 42
0.0
 10
479.3746501615458
 20
466.8172407464896
 42
0.0
 10
479.3746501615458
 20
92.73725018723714
 42
0.0
 10
487.7628037451614
 20
74.01714442448791
 42
-0.3963418321051793
 10
507.8459316933153
 20
74.01714442448803
 42
0.0
 10
516.2340852769308
 20
92.73725018723709
 42
0.0
 97
        6
330
29B
330
2A3
330
2C9
330
2CA
330
2C8
330
2A2
 75
     0
 76
     1
 47
1.028026181564047
 98
        1
 10
503.9583132178681
 20
296.6762331788252
  0
HATCH
  5
2F0
330
1F
100
AcDbEntity
  8
2
100
AcDbHatch
 10
0.0
 20
0.0
 30
0.0
210
0.0
220
0.0
230
1.0
  2
SOLID
 70
     1
 71
     1
 91
        1
 92
        7
 72
     1
 73
     1
 93
        2
 10
483.1466144046307
 20
63.33928297256727
 42
1.0
 10
512.462121033846
 20
63.33928297256727
 42
1.0
 97
        1
330
2CA
 75
     0
 76
     1
 47
1.028026181564047
 98
        1
 10
501.6947898443813
 20
67.11798728945322
  0
ENDSEC
  0
SECTION
  2
OBJECTS
  0
DICTIONARY
  5
C
330
0
100
AcDbDictionary
281
     1
  3
ACAD_COLOR
350
6B
  3
ACAD_GROUP
350
D
  3
ACAD_LAYOUT
350
1A
  3
ACAD_MATERIAL
350
6A
  3
ACAD_MLINESTYLE
350
17
  3
ACAD_PLOTSETTINGS
350
19
  3
ACAD_PLOTSTYLENAME
350
E
  3
ACDBHEADERROUNDTRIPXREC
350
30C
  3
AcDbVariableDictionary
350
5E
  0
DICTIONARY
  5
6B
102
{ACAD_REACTORS
330
C
102
}
330
C
100
AcDbDictionary
281
     1
  0
DICTIONARY
  5
D
102
{ACAD_REACTORS
330
C
102
}
330
C
100
AcDbDictionary
281
     1
  0
DICTIONARY
  5
1A
102
{ACAD_REACTORS
330
C
102
}
330
C
100
AcDbDictionary
281
     1
  3
Layout1
350
51
  3
Layout2
350
56
  3
Model
350
22
  0
DICTIONARY
  5
6A
102
{ACAD_REACTORS
330
C
102
}
330
C
100
AcDbDictionary
281
     1
  0
DICTIONARY
  5
17
102
{ACAD_REACTORS
330
C
102
}
330
C
100
AcDbDictionary
281
     1
  3
Standard
350
18
  0
DICTIONARY
  5
19
102
{ACAD_REACTORS
330
C
102
}
330
C
100
AcDbDictionary
281
     1
  0
ACDBDICTIONARYWDFLT
  5
E
102
{ACAD_REACTORS
330
C
102
}
330
C
100
AcDbDictionary
281
     1
  3
Normal
350
F
100
AcDbDictionaryWithDefault
340
F
  0
DICTIONARY
  5
30C
102
{ACAD_REACTORS
330
C
102
}
330
C
100
AcDbDictionary
281
     1
  3
COLORDICT
350
30E
  3
MATERIALDICT
350
30D
  0
DICTIONARY
  5
5E
102
{ACAD_REACTORS
330
C
102
}
330
C
100
AcDbDictionary
281
     1
  3
DIMASSOC
350
5F
  3
HIDETEXT
350
63
  3
PROJECTNAME
350
85
  0
LAYOUT
  5
51
102
{ACAD_XDICTIONARY
360
311
102
}
102
{ACAD_REACTORS
330
1A
102
}
330
1A
100
AcDbPlotSettings
  1

  2
None
  4

  6

 40
0.0
 41
0.0
 42
0.0
 43
0.0
 44
0.0
 45
0.0
 46
0.0
 47
0.0
 48
0.0
 49
0.0
140
0.0
141
0.0
142
1.0
143
1.0
 70
   688
 72
     0
 73
     0
 74
     5
  7

 75
    16
147
1.0
148
0.0
149
0.0
100
AcDbLayout
  1
Layout1
 70
     1
 71
     1
 10
0.0
 20
0.0
 11
12.0
 21
9.0
 12
0.0
 22
0.0
 32
0.0
 14
0.0
 24
0.0
 34
0.0
 15
0.0
 25
0.0
 35
0.0
146
0.0
 13
0.0
 23
0.0
 33
0.0
 16
1.0
 26
0.0
 36
0.0
 17
0.0
 27
1.0
 37
0.0
 76
     0
330
50
  0
LAYOUT
  5
56
102
{ACAD_XDICTIONARY
360
313
102
}
102
{ACAD_REACTORS
330
1A
102
}
330
1A
100
AcDbPlotSettings
  1

  2
None
  4

  6

 40
0.0
 41
0.0
 42
0.0
 43
0.0
 44
0.0
 45
0.0
 46
0.0
 47
0.0
 48
0.0
 49
0.0
140
0.0
141
0.0
142
1.0
143
1.0
 70
   688
 72
     0
 73
     0
 74
     5
  7

 75
    16
147
1.0
148
0.0
149
0.0
100
AcDbLayout
  1
Layout2
 70
     1
 71
     2
 10
0.0
 20
0.0
 11
12.0
 21
9.0
 12
0.0
 22
0.0
 32
0.0
 14
0.0
 24
0.0
 34
0.0
 15
0.0
 25
0.0
 35
0.0
146
0.0
 13
0.0
 23
0.0
 33
0.0
 16
1.0
 26
0.0
 36
0.0
 17
0.0
 27
1.0
 37
0.0
 76
     0
330
55
  0
LAYOUT
  5
22
102
{ACAD_XDICTIONARY
360
30F
102
}
102
{ACAD_REACTORS
330
1A
102
}
330
1A
100
AcDbPlotSettings
  1

  2
none_device
  4
ANSI_A_(8.50_x_11.00_Inches)
  6

 40
6.349999904632567
 41
19.04999923706055
 42
6.350006103515625
 43
19.04998779296875
 44
215.8999938964844
 45
279.3999938964844
 46
0.0
 47
0.0
 48
0.0
 49
0.0
140
0.0
141
0.0
142
1.0
143
78.436453180766
 70
 11952
 72
     0
 73
     1
 74
     0
  7

 75
     0
147
0.0127491741332998
148
0.0
149
0.0
100
AcDbLayout
  1
Model
 70
     1
 71
     0
 10
0.0
 20
0.0
 11
12.0
 21
9.0
 12
0.0
 22
0.0
 32
0.0
 14
0.0
 24
0.0
 34
0.0
 15
0.0
 25
0.0
 35
0.0
146
0.0
 13
0.0
 23
0.0
 33
0.0
 16
1.0
 26
0.0
 36
0.0
 17
0.0
 27
1.0
 37
0.0
 76
     0
330
1F
  0
MLINESTYLE
  5
18
102
{ACAD_REACTORS
330
17
102
}
330
17
100
AcDbMlineStyle
  2
STANDARD
 70
     0
  3

 62
   256
 51
90.0
 52
90.0
 71
     2
 49
0.5
 62
   256
  6
BYLAYER
 49
-0.5
 62
   256
  6
BYLAYER
  0
ACDBPLACEHOLDER
  5
F
102
{ACAD_REACTORS
330
E
102
}
330
E
  0
XRECORD
  5
30E
102
{ACAD_REACTORS
330
30C
102
}
330
30C
100
AcDbXrecord
280
     1
340
6B
  0
XRECORD
  5
30D
102
{ACAD_REACTORS
330
30C
102
}
330
30C
100
AcDbXrecord
280
     1
340
6A
  0
DICTIONARYVAR
  5
5F
102
{ACAD_REACTORS
330
5E
102
}
330
5E
100
DictionaryVariables
280
     0
  1
2
  0
DICTIONARYVAR
  5
63
102
{ACAD_REACTORS
330
5E
102
}
330
5E
100
DictionaryVariables
280
     0
  1
1
  0
DICTIONARYVAR
  5
85
102
{ACAD_REACTORS
330
5E
102
}
330
5E
100
DictionaryVariables
280
     0
  1

  0
DICTIONARY
  5
311
330
51
100
AcDbDictionary
280
     1
281
     1
  3
ACAD_XREC_ROUNDTRIP
360
312
  0
DICTIONARY
  5
313
330
56
100
AcDbDictionary
280
     1
281
     1
  3
ACAD_XREC_ROUNDTRIP
360
314
  0
DICTIONARY
  5
30F
330
22
100
AcDbDictionary
280
     1
281
     1
  3
ACAD_XREC_ROUNDTRIP
360
310
  0
XRECORD
  5
312
102
{ACAD_REACTORS
330
311
102
}
330
311
100
AcDbXrecord
280
     1
102
SHADEPLOT
 70
     0
102
SHADEPLOTRESLEVEL
 70
     2
102
SHADEPLOTCUSTOMDPI
 70
   300
  0
XRECORD
  5
314
102
{ACAD_REACTORS
330
313
102
}
330
313
100
AcDbXrecord
280
     1
102
SHADEPLOT
 70
     0
102
SHADEPLOTRESLEVEL
 70
     2
102
SHADEPLOTCUSTOMDPI
 70
   300
  0
XRECORD
  5
310
102
{ACAD_REACTORS
330
30F
102
}
330
30F
100
AcDbXrecord
280
     1
102
SHADEPLOT
 70
     0
102
SHADEPLOTRESLEVEL
 70
     2
102
SHADEPLOTCUSTOMDPI
 70
   300
  0
ENDSEC
  0
EOF
