  0
SECTION
  2
HEADER
  9
$ACADVER
  1
AC1015
  9
$ACADMAINTVER
 70
    20
  9
$DWGCODEPAGE
  3
ANSI_936
  9
$INSBASE
 10
0.0
 20
0.0
 30
0.0
  9
$EXTMIN
 10
-0.000003500157618
 20
0.0000309936076519
 30
0.0
  9
$EXTMAX
 10
999.9999964998423
 20
1000.000030993607
 30
0.0
  9
$LIMMIN
 10
0.0
 20
0.0
  9
$LIMMAX
 10
420.0
 20
297.0
  9
$ORTHOMODE
 70
     0
  9
$REGENMODE
 70
     1
  9
$FILLMODE
 70
     1
  9
$QTEXTMODE
 70
     0
  9
$MIRRTEXT
 70
     0
  9
$LTSCALE
 40
1.0
  9
$ATTMODE
 70
     1
  9
$TEXTSIZE
 40
2.5
  9
$TRACEWID
 40
1.0
  9
$TEXTSTYLE
  7
Standard
  9
$CLAYER
  8
2
  9
$CELTYPE
  6
ByLayer
  9
$CECOLOR
 62
   256
  9
$CELTSCALE
 40
1.0
  9
$DISPSILH
 70
     0
  9
$DIMSCALE
 40
1.0
  9
$DIMASZ
 40
2.5
  9
$DIMEXO
 40
0.625
  9
$DIMDLI
 40
3.75
  9
$DIMRND
 40
0.0
  9
$DIMDLE
 40
0.0
  9
$DIMEXE
 40
1.25
  9
$DIMTP
 40
0.0
  9
$DIMTM
 40
0.0
  9
$DIMTXT
 40
2.5
  9
$DIMCEN
 40
2.5
  9
$DIMTSZ
 40
0.0
  9
$DIMTOL
 70
     0
  9
$DIMLIM
 70
     0
  9
$DIMTIH
 70
     0
  9
$DIMTOH
 70
     0
  9
$DIMSE1
 70
     0
  9
$DIMSE2
 70
     0
  9
$DIMTAD
 70
     1
  9
$DIMZIN
 70
     8
  9
$DIMBLK
  1

  9
$DIMASO
 70
     1
  9
$DIMSHO
 70
     1
  9
$DIMPOST
  1

  9
$DIMAPOST
  1

  9
$DIMALT
 70
     0
  9
$DIMALTD
 70
     3
  9
$DIMALTF
 40
0.03937007874016
  9
$DIMLFAC
 40
1.0
  9
$DIMTOFL
 70
     1
  9
$DIMTVP
 40
0.0
  9
$DIMTIX
 70
     0
  9
$DIMSOXD
 70
     0
  9
$DIMSAH
 70
     0
  9
$DIMBLK1
  1

  9
$DIMBLK2
  1

  9
$DIMSTYLE
  2
ISO-25
  9
$DIMCLRD
 70
     0
  9
$DIMCLRE
 70
     0
  9
$DIMCLRT
 70
     0
  9
$DIMTFAC
 40
1.0
  9
$DIMGAP
 40
0.625
  9
$DIMJUST
 70
     0
  9
$DIMSD1
 70
     0
  9
$DIMSD2
 70
     0
  9
$DIMTOLJ
 70
     0
  9
$DIMTZIN
 70
     8
  9
$DIMALTZ
 70
     0
  9
$DIMALTTZ
 70
     0
  9
$DIMUPT
 70
     0
  9
$DIMDEC
 70
     2
  9
$DIMTDEC
 70
     2
  9
$DIMALTU
 70
     2
  9
$DIMALTTD
 70
     3
  9
$DIMTXSTY
  7
Standard
  9
$DIMAUNIT
 70
     0
  9
$DIMADEC
 70
     0
  9
$DIMALTRND
 40
0.0
  9
$DIMAZIN
 70
     0
  9
$DIMDSEP
 70
    44
  9
$DIMATFIT
 70
     3
  9
$DIMFRAC
 70
     0
  9
$DIMLDRBLK
  1

  9
$DIMLUNIT
 70
     2
  9
$DIMLWD
 70
    -2
  9
$DIMLWE
 70
    -2
  9
$DIMTMOVE
 70
     0
  9
$LUNITS
 70
     2
  9
$LUPREC
 70
     4
  9
$SKETCHINC
 40
1.0
  9
$FILLETRAD
 40
0.0
  9
$AUNITS
 70
     0
  9
$AUPREC
 70
     0
  9
$MENU
  1
.
  9
$ELEVATION
 40
0.0
  9
$PELEVATION
 40
0.0
  9
$THICKNESS
 40
0.0
  9
$LIMCHECK
 70
     0
  9
$CHAMFERA
 40
0.0
  9
$CHAMFERB
 40
0.0
  9
$CHAMFERC
 40
0.0
  9
$CHAMFERD
 40
0.0
  9
$SKPOLY
 70
     0
  9
$TDCREATE
 40
2455505.725807523
  9
$TDUCREATE
 40
2455505.392474190
  9
$TDUPDATE
 40
2457095.675839479
  9
$TDUUPDATE
 40
2457095.342506146
  9
$TDINDWG
 40
0.0501725231
  9
$TDUSRTIMER
 40
0.0501721644
  9
$USRTIMER
 70
     1
  9
$ANGBASE
 50
0.0
  9
$ANGDIR
 70
     0
  9
$PDMODE
 70
     0
  9
$PDSIZE
 40
0.0
  9
$PLINEWID
 40
0.0
  9
$SPLFRAME
 70
     0
  9
$SPLINETYPE
 70
     6
  9
$SPLINESEGS
 70
     8
  9
$HANDSEED
  5
327
  9
$SURFTAB1
 70
     6
  9
$SURFTAB2
 70
     6
  9
$SURFTYPE
 70
     6
  9
$SURFU
 70
     6
  9
$SURFV
 70
     6
  9
$UCSBASE
  2

  9
$UCSNAME
  2

  9
$UCSORG
 10
0.0
 20
0.0
 30
0.0
  9
$UCSXDIR
 10
1.0
 20
0.0
 30
0.0
  9
$UCSYDIR
 10
0.0
 20
1.0
 30
0.0
  9
$UCSORTHOREF
  2

  9
$UCSORTHOVIEW
 70
     0
  9
$UCSORGTOP
 10
0.0
 20
0.0
 30
0.0
  9
$UCSORGBOTTOM
 10
0.0
 20
0.0
 30
0.0
  9
$UCSORGLEFT
 10
0.0
 20
0.0
 30
0.0
  9
$UCSORGRIGHT
 10
0.0
 20
0.0
 30
0.0
  9
$UCSORGFRONT
 10
0.0
 20
0.0
 30
0.0
  9
$UCSORGBACK
 10
0.0
 20
0.0
 30
0.0
  9
$PUCSBASE
  2

  9
$PUCSNAME
  2

  9
$PUCSORG
 10
0.0
 20
0.0
 30
0.0
  9
$PUCSXDIR
 10
1.0
 20
0.0
 30
0.0
  9
$PUCSYDIR
 10
0.0
 20
1.0
 30
0.0
  9
$PUCSORTHOREF
  2

  9
$PUCSORTHOVIEW
 70
     0
  9
$PUCSORGTOP
 10
0.0
 20
0.0
 30
0.0
  9
$PUCSORGBOTTOM
 10
0.0
 20
0.0
 30
0.0
  9
$PUCSORGLEFT
 10
0.0
 20
0.0
 30
0.0
  9
$PUCSORGRIGHT
 10
0.0
 20
0.0
 30
0.0
  9
$PUCSORGFRONT
 10
0.0
 20
0.0
 30
0.0
  9
$PUCSORGBACK
 10
0.0
 20
0.0
 30
0.0
  9
$USERI1
 70
     0
  9
$USERI2
 70
     0
  9
$USERI3
 70
     0
  9
$USERI4
 70
     0
  9
$USERI5
 70
     0
  9
$USERR1
 40
0.0
  9
$USERR2
 40
0.0
  9
$USERR3
 40
0.0
  9
$USERR4
 40
0.0
  9
$USERR5
 40
0.0
  9
$WORLDVIEW
 70
     1
  9
$SHADEDGE
 70
     3
  9
$SHADEDIF
 70
    70
  9
$TILEMODE
 70
     1
  9
$MAXACTVP
 70
    64
  9
$PINSBASE
 10
0.0
 20
0.0
 30
0.0
  9
$PLIMCHECK
 70
     0
  9
$PEXTMIN
 10
0.0
 20
0.0
 30
0.0
  9
$PEXTMAX
 10
0.0
 20
0.0
 30
0.0
  9
$PLIMMIN
 10
0.0
 20
0.0
  9
$PLIMMAX
 10
12.0
 20
9.0
  9
$UNITMODE
 70
     0
  9
$VISRETAIN
 70
     1
  9
$PLINEGEN
 70
     0
  9
$PSLTSCALE
 70
     1
  9
$TREEDEPTH
 70
  3020
  9
$CMLSTYLE
  2
Standard
  9
$CMLJUST
 70
     0
  9
$CMLSCALE
 40
20.0
  9
$PROXYGRAPHICS
 70
     1
  9
$MEASUREMENT
 70
     1
  9
$CELWEIGHT
370
    -1
  9
$ENDCAPS
280
     0
  9
$JOINSTYLE
280
     0
  9
$LWDISPLAY
290
     0
  9
$INSUNITS
 70
     4
  9
$HYPERLINKBASE
  1

  9
$STYLESHEET
  1

  9
$XEDIT
290
     1
  9
$CEPSNTYPE
380
     0
  9
$PSTYLEMODE
290
     1
  9
$FINGERPRINTGUID
  2
{FDEAD578-A652-11D2-9A35-0060089B3A3F}
  9
$VERSIONGUID
  2
{D8BF1213-7AEB-4606-960D-141896E8D434}
  9
$EXTNAMES
290
     1
  9
$PSVPSCALE
 40
0.0
  9
$OLESTARTUP
290
     0
  0
ENDSEC
  0
SECTION
  2
CLASSES
  0
CLASS
  1
ACDBDICTIONARYWDFLT
  2
AcDbDictionaryWithDefault
  3
ObjectDBX Classes
 90
        0
280
     0
281
     0
  0
CLASS
  1
ACDBPLACEHOLDER
  2
AcDbPlaceHolder
  3
ObjectDBX Classes
 90
        0
280
     0
281
     0
  0
CLASS
  1
LAYOUT
  2
AcDbLayout
  3
ObjectDBX Classes
 90
        0
280
     0
281
     0
  0
CLASS
  1
DICTIONARYVAR
  2
AcDbDictionaryVar
  3
ObjectDBX Classes
 90
        0
280
     0
281
     0
  0
ENDSEC
  0
SECTION
  2
TABLES
  0
TABLE
  2
VPORT
  5
8
330
0
100
AcDbSymbolTable
 70
     3
  0
VPORT
  5
31D
330
8
100
AcDbSymbolTableRecord
100
AcDbViewportTableRecord
  2
*Active
 70
     0
 10
0.0
 20
0.0
 11
1.0
 21
1.0
 12
601.2602449977703
 22
460.3385056030243
 13
0.0
 23
0.0
 14
10.0
 24
10.0
 15
10.0
 25
10.0
 16
0.0
 26
0.0
 36
1.0
 17
0.0
 27
0.0
 37
0.0
 40
1196.100257376709
 41
1.68860353130016
 42
50.0
 43
0.0
 44
0.0
 50
0.0
 51
0.0
 71
     0
 72
  1000
 73
     1
 74
     3
 75
     0
 76
     0
 77
     0
 78
     0
281
     0
 65
     1
110
0.0
120
0.0
130
0.0
111
1.0
121
0.0
131
0.0
112
0.0
122
1.0
132
0.0
 79
     0
146
0.0
  0
ENDTAB
  0
TABLE
  2
LTYPE
  5
5
330
0
100
AcDbSymbolTable
 70
     1
  0
LTYPE
  5
14
330
5
100
AcDbSymbolTableRecord
100
AcDbLinetypeTableRecord
  2
ByBlock
 70
     0
  3

 72
    65
 73
     0
 40
0.0
  0
LTYPE
  5
15
330
5
100
AcDbSymbolTableRecord
100
AcDbLinetypeTableRecord
  2
ByLayer
 70
     0
  3

 72
    65
 73
     0
 40
0.0
  0
LTYPE
  5
16
330
5
100
AcDbSymbolTableRecord
100
AcDbLinetypeTableRecord
  2
Continuous
 70
     0
  3
Solid line
 72
    65
 73
     0
 40
0.0
  0
ENDTAB
  0
TABLE
  2
LAYER
  5
2
330
0
100
AcDbSymbolTable
 70
     4
  0
LAYER
  5
10
330
2
100
AcDbSymbolTableRecord
100
AcDbLayerTableRecord
  2
0
 70
     0
 62
     2
  6
Continuous
370
    -3
390
F
  0
LAYER
  5
94
330
2
100
AcDbSymbolTableRecord
100
AcDbLayerTableRecord
  2
1
 70
     0
 62
     1
  6
Continuous
370
    -3
390
F
  0
LAYER
  5
95
330
2
100
AcDbSymbolTableRecord
100
AcDbLayerTableRecord
  2
2
 70
     0
 62
     7
  6
Continuous
370
    -3
390
F
  0
LAYER
  5
10E
330
2
100
AcDbSymbolTableRecord
100
AcDbLayerTableRecord
  2
3
 70
     0
 62
     7
  6
Continuous
370
    -3
390
F
  0
ENDTAB
  0
TABLE
  2
STYLE
  5
3
330
0
100
AcDbSymbolTable
 70
     1
  0
STYLE
  5
11
330
3
100
AcDbSymbolTableRecord
100
AcDbTextStyleTableRecord
  2
Standard
 70
     0
 40
0.0
 41
1.0
 50
0.0
 71
     0
 42
2.5
  3
txt
  4

  0
ENDTAB
  0
TABLE
  2
VIEW
  5
6
330
0
100
AcDbSymbolTable
 70
     0
  0
ENDTAB
  0
TABLE
  2
UCS
  5
7
330
0
100
AcDbSymbolTable
 70
     0
  0
ENDTAB
  0
TABLE
  2
APPID
  5
9
330
0
100
AcDbSymbolTable
 70
     1
  0
APPID
  5
12
330
9
100
AcDbSymbolTableRecord
100
AcDbRegAppTableRecord
  2
ACAD
 70
     0
  0
ENDTAB
  0
TABLE
  2
DIMSTYLE
  5
A
330
0
100
AcDbSymbolTable
 70
     1
100
AcDbDimStyleTable
 71
     0
  0
DIMSTYLE
105
27
330
A
100
AcDbSymbolTableRecord
100
AcDbDimStyleTableRecord
  2
ISO-25
 70
     0
 41
2.5
 42
0.625
 43
3.75
 44
1.25
 73
     0
 74
     0
 77
     1
 78
     8
140
2.5
141
2.5
143
0.03937007874016
147
0.625
171
     3
172
     1
271
     2
272
     2
274
     3
278
    44
283
     0
284
     8
340
11
  0
ENDTAB
  0
TABLE
  2
BLOCK_RECORD
  5
1
330
0
100
AcDbSymbolTable
 70
     1
  0
BLOCK_RECORD
  5
1F
330
1
100
AcDbSymbolTableRecord
100
AcDbBlockTableRecord
  2
*Model_Space
340
22
  0
BLOCK_RECORD
  5
50
330
1
100
AcDbSymbolTableRecord
100
AcDbBlockTableRecord
  2
*Paper_Space
340
51
  0
BLOCK_RECORD
  5
55
330
1
100
AcDbSymbolTableRecord
100
AcDbBlockTableRecord
  2
*Paper_Space0
340
56
  0
ENDTAB
  0
ENDSEC
  0
SECTION
  2
BLOCKS
  0
BLOCK
  5
20
330
1F
100
AcDbEntity
  8
0
100
AcDbBlockBegin
  2
*Model_Space
 70
     0
 10
0.0
 20
0.0
 30
0.0
  3
*Model_Space
  1

  0
ENDBLK
  5
21
330
1F
100
AcDbEntity
  8
0
100
AcDbBlockEnd
  0
BLOCK
  5
52
330
50
100
AcDbEntity
 67
     1
  8
0
100
AcDbBlockBegin
  2
*Paper_Space
 70
     0
 10
0.0
 20
0.0
 30
0.0
  3
*Paper_Space
  1

  0
ENDBLK
  5
53
330
50
100
AcDbEntity
 67
     1
  8
0
100
AcDbBlockEnd
  0
BLOCK
  5
57
330
55
100
AcDbEntity
  8
0
100
AcDbBlockBegin
  2
*Paper_Space0
 70
     0
 10
0.0
 20
0.0
 30
0.0
  3
*Paper_Space0
  1

  0
ENDBLK
  5
58
330
55
100
AcDbEntity
  8
0
100
AcDbBlockEnd
  0
ENDSEC
  0
SECTION
  2
ENTITIES
  0
LINE
  5
2B0
330
1F
100
AcDbEntity
  8
1
 62
     1
100
AcDbLine
 10
648.004719610499
 20
31.07739926240305
 30
0.0
 11
648.004719610499
 21
968.9226627248116
 31
0.0
  0
LINE
  5
2B1
330
1F
100
AcDbEntity
  8
1
 62
     1
100
AcDbLine
 10
351.9952733891857
 20
31.07739926240305
 30
0.0
 11
648.004719610499
 21
31.07739926240305
 31
0.0
  0
LINE
  5
2B2
330
1F
100
AcDbEntity
  8
1
 62
     1
100
AcDbLine
 10
351.9952733891857
 20
968.9226627248116
 30
0.0
 11
351.9952733891857
 21
31.07739926240305
 31
0.0
  0
LINE
  5
2B3
330
1F
100
AcDbEntity
  8
1
 62
     1
100
AcDbLine
 10
648.004719610499
 20
968.9226627248116
 30
0.0
 11
351.9952733891857
 21
968.9226627248118
 31
0.0
  0
LWPOLYLINE
  5
2B4
330
1F
100
AcDbEntity
  8
0
 62
     2
100
AcDbPolyline
 90
        4
 70
     1
 43
0.0
 10
-0.000003500157618
 20
0.0000309936076519
 10
999.9999964998423
 20
0.0000309936076519
 10
999.9999964998423
 20
1000.000030993607
 10
-0.000003500157618
 20
1000.000030993607
  0
LINE
  5
2B5
330
1F
100
AcDbEntity
  8
3
100
AcDbLine
 10
427.718644591628
 20
932.8686461401913
 30
0.0
 11
565.2553393754565
 21
932.8686461401996
 31
0.0
  0
LINE
  5
2B6
330
1F
100
AcDbEntity
  8
3
100
AcDbLine
 10
427.718644591628
 20
932.8686461401913
 30
0.0
 11
454.1582896135079
 21
802.8354024815142
 31
0.0
  0
LINE
  5
2B7
330
1F
100
AcDbEntity
  8
3
100
AcDbLine
 10
538.8156943535764
 20
802.8354024815142
 30
0.0
 11
565.2553393754565
 21
932.8686461401913
 31
0.0
  0
LINE
  5
2B8
330
1F
100
AcDbEntity
  8
3
100
AcDbLine
 10
482.6869919835381
 20
57.30486730484762
 30
0.0
 11
510.2869919835381
 21
57.30486730487263
 31
0.0
  0
LINE
  5
2B9
330
1F
100
AcDbEntity
  8
3
100
AcDbLine
 10
482.6869919835381
 20
616.2947032980703
 30
0.0
 11
482.6869793933187
 21
616.2947050789268
 31
0.0
  0
LINE
  5
2BA
330
1F
100
AcDbEntity
  8
3
100
AcDbLine
 10
482.6869919835381
 20
57.30486730484762
 30
0.0
 11
468.886991983538
 21
619.2679822952277
 31
0.0
  0
LINE
  5
2BB
330
1F
100
AcDbEntity
  8
3
100
AcDbLine
 10
524.0869919835382
 20
619.2679822952277
 30
0.0
 11
510.2869919835381
 21
57.30486730487263
 31
0.0
  0
LINE
  5
2BC
330
1F
100
AcDbEntity
  8
3
100
AcDbLine
 10
435.6451037208871
 20
893.8853999410625
 30
0.0
 11
557.3288802461974
 21
893.8853999410708
 31
0.0
  0
LINE
  5
2BD
330
1F
100
AcDbEntity
  8
3
100
AcDbLine
 10
437.29769667772
 20
885.7577559259166
 30
0.0
 11
555.6762872893645
 21
885.7577559259166
 31
0.0
  0
LINE
  5
2BE
330
1F
100
AcDbEntity
  8
3
100
AcDbLine
 10
444.6899499590965
 20
849.4017961038744
 30
0.0
 11
548.2840340079796
 21
849.4017961038744
 31
0.0
  0
ARC
  5
2BF
330
1F
100
AcDbEntity
  8
3
100
AcDbCircle
 10
496.4869919835381
 20
713.8570895642008
 30
0.0
 40
98.53354359781198
100
AcDbArc
 50
115.4413355820461
 51
64.55866441795386
  0
LINE
  5
2C0
330
1F
100
AcDbEntity
  8
3
100
AcDbLine
 10
454.1582896135079
 20
802.8354024815142
 30
0.0
 11
538.8156943535679
 21
802.8354024815142
 31
0.0
  0
HATCH
  5
2C1
330
1F
100
AcDbEntity
  8
3
100
AcDbHatch
 10
0.0
 20
0.0
 30
0.0
210
0.0
220
0.0
230
1.0
  2
SOLID
 70
     1
 71
     0
 91
        1
 92
        7
 72
     0
 73
     1
 93
        4
 10
427.718644591628
 20
932.8686461401828
 10
435.6451037208871
 20
893.8853999410625
 10
557.3288802461889
 20
893.8853999410669
 10
565.2553393754565
 20
932.8686461402035
 97
        0
 75
     0
 76
     1
 47
0.3560807974117625
 98
        1
 10
472.5069931361811
 20
919.1216587073707
  0
HATCH
  5
2C2
330
1F
100
AcDbEntity
  8
3
100
AcDbHatch
 10
0.0
 20
0.0
 30
0.0
210
0.0
220
0.0
230
1.0
  2
SOLID
 70
     1
 71
     0
 91
        1
 92
        7
 72
     0
 73
     1
 93
        4
 10
555.6762872893643
 20
885.7577559259294
 10
437.29769667772
 20
885.7577559259294
 10
444.6899499590964
 20
849.4017961038789
 10
548.2840340079796
 20
849.4017961038789
 97
        0
 75
     0
 76
     1
 47
0.3560807974117516
 98
        3
 10
491.6964061878976
 20
837.0450224455918
 10
498.0894145059996
 20
869.4769071605833
 10
498.0894145059996
 20
865.5458000608998
  0
LWPOLYLINE
  5
2C3
330
1F
100
AcDbEntity
  8
3
100
AcDbPolyline
 90
        8
 70
     0
 43
0.0
 10
500.7697863938426
 20
790.0397051360498
 10
503.2026932492466
 20
785.0967538317306
 10
500.9782697388883
 20
779.6410065593127
 10
494.0624299179321
 20
777.5639643014429
 10
490.6392271734695
 20
782.8846526684128
 10
490.25887131297
 20
788.205434051177
 10
495.0089010207647
 20
790.7933189458706
 10
500.7697863938426
 20
790.0397051360498
  0
LWPOLYLINE
  5
2C4
330
1F
100
AcDbEntity
  8
3
100
AcDbPolyline
 90
        8
 70
     0
 43
0.0
 10
436.2450888706933
 20
766.9835160599919
 10
439.6055719945084
 20
771.3491725442409
 10
445.4828375893935
 20
771.7626787486972
 10
450.4004447445083
 20
766.4749490999688
 10
447.138371030032
 20
761.0539790014154
 10
442.5324797826109
 20
758.363040332347
 10
438.1129704537634
 20
761.4819933209928
 10
436.2450888706933
 20
766.9835160599919
  0
LWPOLYLINE
  5
2C5
330
1F
100
AcDbEntity
  8
3
100
AcDbPolyline
 90
        8
 70
     0
 43
0.0
 10
465.9152846711005
 20
705.534315367633
 10
468.3481915265047
 20
700.5913640633137
 10
466.1237680161462
 20
695.1356167908959
 10
459.20792819519
 20
693.0585745330256
 10
455.7847254507272
 20
698.3792628999956
 10
455.4043695902278
 20
703.70004428276
 10
460.1543992980225
 20
706.2879291774536
 10
465.9152846711005
 20
705.534315367633
  0
LWPOLYLINE
  5
2C6
330
1F
100
AcDbEntity
  8
3
100
AcDbPolyline
 90
        8
 70
     0
 43
0.0
 10
521.2500287655837
 20
724.0254793934028
 10
523.6829356209876
 20
719.0825280890833
 10
521.4585121106292
 20
713.6267808166658
 10
514.5426722896732
 20
711.5497385587955
 10
511.1194695452105
 20
716.8704269257655
 10
510.7391136847111
 20
722.1912083085294
 10
515.4891433925057
 20
724.7790932032232
 10
521.2500287655837
 20
724.0254793934028
  0
LWPOLYLINE
  5
2C7
330
1F
100
AcDbEntity
  8
3
100
AcDbPolyline
 90
        8
 70
     0
 43
0.0
 10
553.9223987983533
 20
764.5076189986812
 10
556.3553056537573
 20
759.564667694362
 10
554.130882143399
 20
754.1089204219442
 10
547.2150423224428
 20
752.0318781640741
 10
543.7918395779803
 20
757.3525665310444
 10
543.4114837174807
 20
762.6733479138081
 10
548.1615134252754
 20
765.2612328085017
 10
553.9223987983533
 20
764.5076189986812
  0
LWPOLYLINE
  5
2C8
330
1F
100
AcDbEntity
  8
3
100
AcDbPolyline
 90
        8
 70
     0
 43
0.0
 10
501.9030772090068
 20
724.6660391140189
 10
496.5673776428712
 20
726.0379405331934
 10
493.8749322246485
 20
731.2785488875538
 10
496.8015040522266
 20
737.8799216469208
 10
503.0686943836071
 20
737.0136843362636
 10
507.354713314886
 20
733.8379282334544
 10
506.226051107362
 20
728.547743730583
 10
501.9030772090068
 20
724.6660391140189
  0
LWPOLYLINE
  5
2C9
330
1F
100
AcDbEntity
  8
3
100
AcDbPolyline
 90
        8
 70
     0
 43
0.0
 10
490.7462642541431
 20
684.640367839594
 10
493.1791711095473
 20
679.6974165352748
 10
490.954747599189
 20
674.2416692628571
 10
484.0389077782326
 20
672.1646270049871
 10
480.6157050337701
 20
677.485315371957
 10
480.2353491732707
 20
682.8060967547212
 10
484.9853788810654
 20
685.393981649415
 10
490.7462642541431
 20
684.640367839594
  0
LWPOLYLINE
  5
2CA
330
1F
100
AcDbEntity
  8
3
100
AcDbPolyline
 90
        8
 70
     0
 43
0.0
 10
513.4086383158569
 20
662.6493922600855
 10
515.8415451712609
 20
657.706440955766
 10
513.6171216609024
 20
652.2506936833486
 10
506.7012818399462
 20
650.1736514254782
 10
503.2780790954837
 20
655.494339792448
 10
502.8977232349841
 20
660.8151211752124
 10
507.6477529427786
 20
663.403006069906
 10
513.4086383158569
 20
662.6493922600855
  0
LWPOLYLINE
  5
2CB
330
1F
100
AcDbEntity
  8
3
100
AcDbPolyline
 90
        8
 70
     0
 43
0.0
 10
458.0738942213734
 20
644.1582282343154
 10
460.5068010767777
 20
639.2152769299961
 10
458.2823775664191
 20
633.7595296575784
 10
451.3665377454628
 20
631.6824873997084
 10
447.9433350010004
 20
637.0031757666786
 10
447.5629791405009
 20
642.3239571494425
 10
452.3130088482956
 20
644.9118420441362
 10
458.0738942213734
 20
644.1582282343154
  0
LWPOLYLINE
  5
2CC
330
1F
100
AcDbEntity
  8
3
100
AcDbPolyline
 90
        8
 70
     0
 43
0.0
 10
553.4770271541888
 20
705.534315367616
 10
555.9099340095927
 20
700.5913640632968
 10
553.6855104992342
 20
695.1356167908791
 10
546.769670678278
 20
693.058574533009
 10
543.3464679338157
 20
698.379262899979
 10
542.9661120733161
 20
703.7000442827432
 10
547.7161417811108
 20
706.2879291774366
 10
553.4770271541888
 20
705.534315367616
  0
LWPOLYLINE
  5
2CD
330
1F
100
AcDbEntity
  8
3
100
AcDbPolyline
 90
        8
 70
     0
 43
0.0
 10
576.1394012159022
 20
683.5433397881072
 10
578.5723080713061
 20
678.600388483788
 10
576.3478845609478
 20
673.1446412113703
 10
569.4320447399916
 20
671.0675989534999
 10
566.008841995529
 20
676.3882873204702
 10
565.6284861350295
 20
681.7090687032341
 10
570.3785158428241
 20
684.2969535979277
 10
576.1394012159022
 20
683.5433397881072
  0
LWPOLYLINE
  5
2CE
330
1F
100
AcDbEntity
  8
3
100
AcDbPolyline
 90
        8
 70
     0
 43
0.0
 10
435.3115775635253
 20
730.5500493424753
 10
436.7713216767729
 20
727.5842785598822
 10
435.4366675705561
 20
724.3108301964332
 10
431.2871636779807
 20
723.0646048417131
 10
429.2332420312998
 20
726.257017861895
 10
429.005028515
 20
729.4494866915486
 10
431.8550463396785
 20
731.0022176283665
 10
435.3115775635253
 20
730.5500493424753
  0
LWPOLYLINE
  5
2CF
330
1F
100
AcDbEntity
  8
3
100
AcDbPolyline
 90
        8
 70
     0
 43
0.0
 10
441.3600766130946
 20
688.6902746872422
 10
442.8198207263338
 20
685.7245039046488
 10
441.4851666201168
 20
682.4510555411998
 10
437.3356627275497
 20
681.2048301864792
 10
435.2817410808691
 20
684.3972432066611
 10
435.0535275645693
 20
687.5897120363149
 10
437.9035453892477
 20
689.1424429731328
 10
441.3600766130946
 20
688.6902746872422
  0
LWPOLYLINE
  5
2D0
330
1F
100
AcDbEntity
  8
3
100
AcDbPolyline
 90
        8
 70
     0
 43
0.0
 10
489.6301028577572
 20
716.5448717129552
 10
491.0898469709962
 20
713.5791009303621
 10
489.7551928647793
 20
710.305652566913
 10
485.6056889722124
 20
709.0594272121923
 10
483.5517673255317
 20
712.2518402323744
 10
483.3235538092321
 20
715.4443090620277
 10
486.1735716339102
 20
716.997039998846
 10
489.6301028577572
 20
716.5448717129552
  0
LWPOLYLINE
  5
2D1
330
1F
100
AcDbEntity
  8
3
100
AcDbPolyline
 90
        8
 70
     0
 43
0.0
 10
474.4508561273358
 20
769.101668130636
 10
475.910600240575
 20
766.1358973480428
 10
474.575946134358
 20
762.8624489845935
 10
470.426442241791
 20
761.6162236298732
 10
468.3725205951104
 20
764.8086366500551
 10
468.1443070788104
 20
768.0011054797085
 10
470.9943249034888
 20
769.5538364165267
 10
474.4508561273358
 20
769.101668130636
  0
LWPOLYLINE
  5
2D2
330
1F
100
AcDbEntity
  8
3
100
AcDbPolyline
 90
        8
 70
     0
 43
0.0
 10
533.4094411335454
 20
778.2781394226233
 10
534.8691852467843
 20
775.3123686400299
 10
533.5345311405676
 20
772.0389202765812
 10
529.3850272480008
 20
770.7926949218606
 10
527.3311056013198
 20
773.9851079420427
 10
527.1028920850202
 20
777.1775767716962
 10
529.9529099096986
 20
778.7303077085139
 10
533.4094411335454
 20
778.2781394226233
  0
LWPOLYLINE
  5
2D3
330
1F
100
AcDbEntity
  8
3
100
AcDbPolyline
 90
        8
 70
     0
 43
0.0
 10
572.0342270865139
 20
740.570660388423
 10
573.493971199753
 20
737.6048896058295
 10
572.1593170935363
 20
734.3314412423808
 10
568.0098132009693
 20
733.08521588766
 10
565.9558915542884
 20
736.2776289078421
 10
565.7276780379884
 20
739.4700977374957
 10
568.5776958626671
 20
741.0228286743135
 10
572.0342270865139
 20
740.570660388423
  0
LWPOLYLINE
  5
2D4
330
1F
100
AcDbEntity
  8
3
100
AcDbPolyline
 90
        8
 70
     0
 43
0.0
 10
578.6936107512103
 20
706.4121052371984
 10
580.1533548644495
 20
703.446334454605
 10
578.8187007582328
 20
700.1728860911562
 10
574.6691968656656
 20
698.9266607364356
 10
572.6152752189848
 20
702.1190737566173
 10
572.387061702685
 20
705.3115425862708
 10
575.2370795273634
 20
706.864273523089
 10
578.6936107512103
 20
706.4121052371984
  0
LWPOLYLINE
  5
2D5
330
1F
100
AcDbEntity
  8
3
100
AcDbPolyline
 90
        8
 70
     0
 43
0.0
 10
543.8588572345942
 20
675.2973052944123
 10
545.3186013478333
 20
672.3315345118192
 10
543.9839472416165
 20
669.0580861483704
 10
539.8344433490494
 20
667.8118607936501
 10
537.7805217023686
 20
671.0042738138322
 10
537.5523081860688
 20
674.1967426434855
 10
540.4023260107473
 20
675.7494735803032
 10
543.8588572345942
 20
675.2973052944123
  0
LWPOLYLINE
  5
2D6
330
1F
100
AcDbEntity
  8
3
100
AcDbPolyline
 90
        8
 70
     0
 43
0.0
 10
539.391975322442
 20
645.7274043601715
 10
540.8517194356811
 20
642.7616335775783
 10
539.5170653294643
 20
639.4881852141297
 10
535.3675614368973
 20
638.241959859409
 10
533.3136397902165
 20
641.4343728795911
 10
533.0854262739165
 20
644.6268417092444
 10
535.9354440985951
 20
646.1795726460622
 10
539.391975322442
 20
645.7274043601715
  0
LWPOLYLINE
  5
2D7
330
1F
100
AcDbEntity
  8
3
100
AcDbPolyline
 90
        8
 70
     0
 43
0.0
 10
500.8654795278406
 20
634.5689529324574
 10
502.3252236410798
 20
631.6031821498641
 10
500.990569534863
 20
628.3297337864151
 10
496.8410656422961
 20
627.0835084316945
 10
494.7871439956152
 20
630.2759214518767
 10
494.5589304793156
 20
633.4683902815302
 10
497.4089483039937
 20
635.0211212183481
 10
500.8654795278406
 20
634.5689529324574
  0
LWPOLYLINE
  5
2D8
330
1F
100
AcDbEntity
  8
3
100
AcDbPolyline
 90
        8
 70
     0
 43
0.0
 10
472.3892876866803
 20
660.2334005177797
 10
473.8490317999194
 20
657.2676297351866
 10
472.5143776937025
 20
653.9941813717375
 10
468.3648738011356
 20
652.747956017017
 10
466.3109521544546
 20
655.9403690371992
 10
466.0827386381548
 20
659.1328378668524
 10
468.9327564628334
 20
660.68556880367
 10
472.3892876866803
 20
660.2334005177797
  0
LWPOLYLINE
  5
2D9
330
1F
100
AcDbEntity
  8
3
100
AcDbPolyline
 90
        8
 70
     0
 43
0.0
 10
437.7711332163021
 20
666.3704883427647
 10
439.2308773295411
 20
663.4047175601713
 10
437.8962232233245
 20
660.1312691967225
 10
433.7467193307572
 20
658.885043842002
 10
431.6927976840768
 20
662.0774568621841
 10
431.4645841677769
 20
665.2699256918376
 10
434.3146019924554
 20
666.8226566286555
 10
437.7711332163021
 20
666.3704883427647
  0
LWPOLYLINE
  5
2DA
330
1F
100
AcDbEntity
  8
3
100
AcDbPolyline
 90
        8
 70
     0
 43
0.0
 10
467.364045535484
 20
789.6713626666805
 10
468.823789648723
 20
786.7055918840876
 10
467.4891355425062
 20
783.4321435206386
 10
463.3396316499393
 20
782.185918165918
 10
461.2857100032583
 20
785.3783311861
 10
461.0574964869585
 20
788.5708000157533
 10
463.9075143116371
 20
790.1235309525716
 10
467.364045535484
 20
789.6713626666805
  0
LWPOLYLINE
  5
2DB
330
1F
100
AcDbEntity
  8
3
100
AcDbPolyline
 90
        8
 70
     0
 43
0.0
 10
416.5536244824139
 20
706.5409320857118
 10
418.0133685956531
 20
703.5751613031187
 10
416.6787144894365
 20
700.3017129396698
 10
412.5292105968693
 20
699.0554875849493
 10
410.4752889501886
 20
702.247900605131
 10
410.2470754338887
 20
705.4403694347845
 10
413.0970932585674
 20
706.9931003716026
 10
416.5536244824139
 20
706.5409320857118
  0
LWPOLYLINE
  5
2DC
330
1F
100
AcDbEntity
  8
3
100
AcDbPolyline
 90
        8
 70
     0
 43
0.0
 10
538.8336150834313
 20
733.8791055280924
 10
540.2933591966704
 20
730.9133347454992
 10
538.9587050904537
 20
727.6398863820499
 10
534.8092011978866
 20
726.3936610273296
 10
532.7552795512056
 20
729.5860740475118
 10
532.5270660349058
 20
732.7785428771651
 10
535.3770838595846
 20
734.331273813983
 10
538.8336150834313
 20
733.8791055280924
  0
LWPOLYLINE
  5
2DD
330
1F
100
AcDbEntity
  8
3
100
AcDbPolyline
 90
        8
 70
     0
 43
0.0
 10
451.0978358979023
 20
749.7083441022116
 10
452.5575800111414
 20
746.7425733196186
 10
451.2229259049243
 20
743.4691249561694
 10
447.0734220123575
 20
742.2228996014491
 10
445.0195003656768
 20
745.415312621631
 10
444.7912868493769
 20
748.6077814512846
 10
447.6413046740552
 20
750.1605123881026
 10
451.0978358979023
 20
749.7083441022116
  0
LWPOLYLINE
  5
2DE
330
1F
100
AcDbEntity
  8
3
100
AcDbPolyline
 90
        8
 70
     0
 43
0.0
 10
414.2824906032362
 20
735.7680698887281
 10
415.7422347164754
 20
732.8022991061348
 10
414.4075806102587
 20
729.528850742686
 10
410.2580767176915
 20
728.2826253879656
 10
408.2041550710108
 20
731.4750384081474
 10
407.9759415547109
 20
734.6675072378011
 10
410.8259593793896
 20
736.220238174619
 10
414.2824906032362
 20
735.7680698887281
  0
LWPOLYLINE
  5
2DF
330
1F
100
AcDbEntity
  8
3
100
AcDbPolyline
 90
        8
 70
     0
 43
0.0
 10
525.5036661213677
 20
684.6538551269802
 10
526.9634102346067
 20
681.6880843443871
 10
525.62875612839
 20
678.4146359809378
 10
521.4792522358229
 20
677.1684106262175
 10
519.4253305891421
 20
680.3608236463994
 10
519.1971170728423
 20
683.553292476053
 10
522.0471348975208
 20
685.106023412871
 10
525.5036661213677
 20
684.6538551269802
  0
LWPOLYLINE
  5
2E0
330
1F
100
AcDbEntity
  8
3
100
AcDbPolyline
 90
        8
 70
     0
 43
0.0
 10
574.7342306841942
 20
767.5392821563614
 10
576.1939747974333
 20
764.5735113737685
 10
574.8593206912162
 20
761.3000630103197
 10
570.7098167986494
 20
760.0538376555989
 10
568.6558951519686
 20
763.2462506757808
 10
568.4276816356688
 20
766.4387195054343
 10
571.2776994603471
 20
767.9914504422525
 10
574.7342306841942
 20
767.5392821563614
  0
LWPOLYLINE
  5
2E1
330
1F
100
AcDbEntity
  8
3
100
AcDbPolyline
 90
        8
 70
     0
 43
0.0
 10
549.2916879323606
 20
794.1155633849518
 10
550.7514320455999
 20
791.1497926023587
 10
549.416777939383
 20
787.8763442389097
 10
545.267274046816
 20
786.6301188841889
 10
543.2133524001352
 20
789.8225319043711
 10
542.9851388838356
 20
793.0150007340244
 10
545.8351567085138
 20
794.5677316708427
 10
549.2916879323606
 20
794.1155633849518
  0
LWPOLYLINE
  5
2E2
330
1F
100
AcDbEntity
  8
3
100
AcDbPolyline
 90
        8
 70
     0
 43
0.0
 10
524.8502620044532
 20
797.6722075772498
 10
526.3100061176925
 20
794.7064367946566
 10
524.9753520114757
 20
791.4329884312076
 10
520.8258481189083
 20
790.186763076487
 10
518.7719264722278
 20
793.3791760966692
 10
518.543712955928
 20
796.5716449263225
 10
521.3937307806065
 20
798.1243758631404
 10
524.8502620044532
 20
797.6722075772498
  0
LWPOLYLINE
  5
2E3
330
1F
100
AcDbEntity
  8
3
100
AcDbPolyline
 90
        8
 70
     0
 43
0.0
 10
447.9436140364009
 20
796.8132856346583
 10
449.4033581496398
 20
793.8475148520649
 10
448.0687040434229
 20
790.5740664886159
 10
443.9192001508477
 20
789.3278411338956
 10
441.8652785041754
 20
792.5202541540775
 10
441.6370649878754
 20
795.712722983731
 10
444.4870828125539
 20
797.2654539205489
 10
447.9436140364009
 20
796.8132856346583
  0
LWPOLYLINE
  5
2E4
330
1F
100
AcDbEntity
  8
3
100
AcDbPolyline
 90
        8
 70
     0
 43
0.0
 10
416.2408577423206
 20
762.0479084183839
 10
417.7006018555682
 20
759.0821376357908
 10
416.3659477493513
 20
755.8086892723418
 10
412.2164438567759
 20
754.5624639176215
 10
410.1625222100952
 20
757.7548769378031
 10
409.9343086937953
 20
760.9473457674571
 10
412.7843265184739
 20
762.5000767042747
 10
416.2408577423206
 20
762.0479084183839
  0
LWPOLYLINE
  5
2E5
330
1F
100
AcDbEntity
  8
3
100
AcDbPolyline
 90
        8
 70
     0
 43
0.0
 10
480.0039795510083
 20
630.974544335462
 10
481.4637236642474
 20
628.0087735528688
 10
480.1290695580305
 20
624.73532518942
 10
475.9795656654637
 20
623.4890998346993
 10
473.9256440187829
 20
626.6815128548812
 10
473.6974305024831
 20
629.8739816845345
 10
476.5474483271613
 20
631.4267126213528
 10
480.0039795510083
 20
630.974544335462
  0
LWPOLYLINE
  5
2E6
330
1F
100
AcDbEntity
  8
3
100
AcDbPolyline
 90
        8
 70
     0
 43
0.0
 10
528.6249647831128
 20
630.5028613399465
 10
530.0847088963519
 20
627.5370905573531
 10
528.7500547901351
 20
624.2636421939043
 10
524.6005508975681
 20
623.0174168391839
 10
522.546629250887
 20
626.2098298593657
 10
522.3184157345875
 20
629.4022986890195
 10
525.1684335592659
 20
630.9550296258371
 10
528.6249647831128
 20
630.5028613399465
  0
LWPOLYLINE
  5
2E7
330
1F
100
AcDbEntity
  8
3
100
AcDbPolyline
 90
        8
 70
     0
 43
0.0
 10
565.9166115607404
 20
653.1435521084986
 10
567.3763556739794
 20
650.1777813259054
 10
566.0417015677626
 20
646.9043329624566
 10
561.8921976751956
 20
645.6581076077362
 10
559.8382760285147
 20
648.850520627918
 10
559.6100625122148
 20
652.0429894575715
 10
562.4600803368934
 20
653.5957203943894
 10
565.9166115607404
 20
653.1435521084986
  0
LWPOLYLINE
  5
2E8
330
1F
100
AcDbEntity
  8
3
100
AcDbPolyline
 90
        8
 70
     0
 43
0.0
 10
422.3790184116378
 20
748.4259055420125
 10
425.7395015354612
 20
752.7915620262612
 10
431.6167671303463
 20
753.2050682307174
 10
436.5343742854611
 20
747.9173385819897
 10
433.2723005709762
 20
742.4963684834358
 10
428.6664093235552
 20
739.8054298143676
 10
424.2468999947081
 20
742.9243828030132
 10
422.3790184116378
 20
748.4259055420125
  0
LWPOLYLINE
  5
2E9
330
1F
100
AcDbEntity
  8
3
100
AcDbPolyline
 90
        8
 70
     0
 43
0.0
 10
414.4106065005975
 20
716.799366033427
 10
417.7710896244126
 20
721.1650225176758
 10
423.6483552192976
 20
721.5785287221322
 10
428.5659623744124
 20
716.2907990734042
 10
425.3038886599361
 20
710.8698289748509
 10
420.697997412515
 20
708.1788903057825
 10
416.2784880836678
 20
711.2978432944283
 10
414.4106065005975
 20
716.799366033427
  0
LWPOLYLINE
  5
2EA
330
1F
100
AcDbEntity
  8
3
100
AcDbPolyline
 90
        8
 70
     0
 43
0.0
 10
409.5130513808262
 20
684.335186241338
 10
412.8735345046413
 20
688.7008427255866
 10
418.7508000995263
 20
689.1143489300432
 10
423.6684072546412
 20
683.8266192813151
 10
420.4063335401648
 20
678.4056491827616
 10
415.8004422927436
 20
675.714710513693
 10
411.3809329638966
 20
678.8336635023386
 10
409.5130513808262
 20
684.335186241338
  0
LWPOLYLINE
  5
2EB
330
1F
100
AcDbEntity
  8
3
100
AcDbPolyline
 90
        8
 70
     0
 43
0.0
 10
444.764591238615
 20
671.5038460985283
 10
448.1250743624299
 20
675.8695025827771
 10
454.0023399573152
 20
676.2830087872337
 10
458.91994711243
 20
670.9952791385058
 10
455.6578733979537
 20
665.5743090399521
 10
451.0519821505324
 20
662.8833703708835
 10
446.6324728216855
 20
666.0023233595293
 10
444.764591238615
 20
671.5038460985283
  0
LWPOLYLINE
  5
2EC
330
1F
100
AcDbEntity
  8
3
100
AcDbPolyline
 90
        8
 70
     0
 43
0.0
 10
487.5291061730161
 20
697.091369637862
 10
490.8895892968311
 20
701.457026122111
 10
496.7668548917163
 20
701.8705323265674
 10
501.6844620468312
 20
696.5828026778392
 10
498.4223883323546
 20
691.1618325792858
 10
493.8164970849337
 20
688.4708939102172
 10
489.3969877560864
 20
691.5898468988632
 10
487.5291061730161
 20
697.091369637862
  0
LWPOLYLINE
  5
2ED
330
1F
100
AcDbEntity
  8
3
100
AcDbPolyline
 90
        8
 70
     0
 43
0.0
 10
577.5284445833191
 20
723.6005864925985
 10
580.8889277071338
 20
727.9662429768477
 10
586.7661933020192
 20
728.379749181304
 10
591.6838004571342
 20
723.0920195325759
 10
588.4217267426577
 20
717.6710494340225
 10
583.8158354952364
 20
714.9801107649537
 10
579.3963261663893
 20
718.0990637535995
 10
577.5284445833191
 20
723.6005864925985
  0
LWPOLYLINE
  5
2EE
330
1F
100
AcDbEntity
  8
3
100
AcDbPolyline
 90
        8
 70
     0
 43
0.0
 10
512.1321247282317
 20
756.3108860255872
 10
515.4926078520466
 20
760.6765425098365
 10
521.3698734469317
 20
761.0900487142924
 10
526.2874806020463
 20
755.8023190655644
 10
523.0254068875701
 20
750.381348967011
 10
518.4195156401491
 20
747.6904102979422
 10
514.0000063113019
 20
750.809363286588
 10
512.1321247282317
 20
756.3108860255872
  0
LWPOLYLINE
  5
2EF
330
1F
100
AcDbEntity
  8
3
100
AcDbPolyline
 90
        8
 70
     0
 43
0.0
 10
472.1597716867872
 20
747.2765428379446
 10
475.5202548106024
 20
751.6421993221938
 10
481.3975204054876
 20
752.0557055266497
 10
486.3151275606022
 20
746.7679758779218
 10
483.053053846126
 20
741.3470057793681
 10
478.4471625987049
 20
738.6560671103
 10
474.0276532698577
 20
741.7750200989457
 10
472.1597716867872
 20
747.2765428379446
  0
LWPOLYLINE
  5
2F0
330
1F
100
AcDbEntity
  8
3
100
AcDbPolyline
 90
        8
 70
     0
 43
0.0
 10
445.987356878326
 20
720.6490099172876
 10
449.3478400021412
 20
725.0146664015365
 10
455.2251055970262
 20
725.4281726059928
 10
460.142712752141
 20
720.1404429572648
 10
456.8806390376646
 20
714.7194728587114
 10
452.2747477902434
 20
712.0285341896431
 10
447.8552384613963
 20
715.1474871782887
 10
445.987356878326
 20
720.6490099172876
  0
LWPOLYLINE
  5
2F1
330
1F
100
AcDbEntity
  8
3
100
AcDbPolyline
 90
        8
 70
     0
 43
0.0
 10
470.5371725038284
 20
795.8638910534566
 10
473.8976556276433
 20
800.2295475377055
 10
479.7749212225286
 20
800.643053742162
 10
484.6925283776434
 20
795.3553240934336
 10
481.4304546631672
 20
789.9343539948802
 10
476.8245634157461
 20
787.2434153258116
 10
472.4050540868987
 20
790.3623683144574
 10
470.5371725038284
 20
795.8638910534566
  0
LWPOLYLINE
  5
2F2
330
1F
100
AcDbEntity
  8
3
100
AcDbPolyline
 90
        8
 70
     0
 43
0.0
 10
489.5259293533842
 20
761.9541531006084
 10
492.8864124771991
 20
766.3198095848572
 10
498.7636780720842
 20
766.7333157893137
 10
503.6812852271991
 20
761.4455861405856
 10
500.4192115127226
 20
756.0246160420322
 10
495.8133202653016
 20
753.3336773729638
 10
491.3938109364544
 20
756.4526303616092
 10
489.5259293533842
 20
761.9541531006084
  0
LWPOLYLINE
  5
2F3
330
1F
100
AcDbEntity
  8
3
100
AcDbPolyline
 90
        8
 70
     0
 43
0.0
 10
542.7634860966378
 20
662.5241031708711
 10
546.1239692204528
 20
666.88975965512
 10
552.0012348153379
 20
667.3032658595762
 10
556.9188419704525
 20
662.0155362108483
 10
553.6567682559763
 20
656.5945661122948
 10
549.0508770085551
 20
653.9036274432264
 10
544.6313676797078
 20
657.022580431872
 10
542.7634860966378
 20
662.5241031708711
  0
LWPOLYLINE
  5
2F4
330
1F
100
AcDbEntity
  8
3
100
AcDbPolyline
 90
        8
 70
     0
 43
0.0
 10
490.474189881891
 20
654.7195555922383
 10
491.9339339951301
 20
651.7537848096448
 10
490.5992798889216
 20
648.4803364461961
 10
486.4497759963462
 20
647.2341110914753
 10
484.3958543496655
 20
650.4265241116574
 10
484.1676408333657
 20
653.6189929413108
 10
487.0176586580441
 20
655.1717238781288
 10
490.474189881891
 20
654.7195555922383
  0
ENDSEC
  0
SECTION
  2
OBJECTS
  0
DICTIONARY
  5
C
330
0
100
AcDbDictionary
281
     1
  3
ACAD_COLOR
350
6B
  3
ACAD_GROUP
350
D
  3
ACAD_LAYOUT
350
1A
  3
ACAD_MATERIAL
350
6A
  3
ACAD_MLINESTYLE
350
17
  3
ACAD_PLOTSETTINGS
350
19
  3
ACAD_PLOTSTYLENAME
350
E
  3
ACDBHEADERROUNDTRIPXREC
350
31E
  3
AcDbVariableDictionary
350
5E
  0
DICTIONARY
  5
6B
102
{ACAD_REACTORS
330
C
102
}
330
C
100
AcDbDictionary
281
     1
  0
DICTIONARY
  5
D
102
{ACAD_REACTORS
330
C
102
}
330
C
100
AcDbDictionary
281
     1
  0
DICTIONARY
  5
1A
102
{ACAD_REACTORS
330
C
102
}
330
C
100
AcDbDictionary
281
     1
  3
Layout1
350
51
  3
Layout2
350
56
  3
Model
350
22
  0
DICTIONARY
  5
6A
102
{ACAD_REACTORS
330
C
102
}
330
C
100
AcDbDictionary
281
     1
  0
DICTIONARY
  5
17
102
{ACAD_REACTORS
330
C
102
}
330
C
100
AcDbDictionary
281
     1
  3
Standard
350
18
  0
DICTIONARY
  5
19
102
{ACAD_REACTORS
330
C
102
}
330
C
100
AcDbDictionary
281
     1
  0
ACDBDICTIONARYWDFLT
  5
E
102
{ACAD_REACTORS
330
C
102
}
330
C
100
AcDbDictionary
281
     1
  3
Normal
350
F
100
AcDbDictionaryWithDefault
340
F
  0
DICTIONARY
  5
31E
102
{ACAD_REACTORS
330
C
102
}
330
C
100
AcDbDictionary
281
     1
  3
COLORDICT
350
320
  3
MATERIALDICT
350
31F
  0
DICTIONARY
  5
5E
102
{ACAD_REACTORS
330
C
102
}
330
C
100
AcDbDictionary
281
     1
  3
DIMASSOC
350
5F
  3
HIDETEXT
350
63
  3
PROJECTNAME
350
85
  0
LAYOUT
  5
51
102
{ACAD_XDICTIONARY
360
323
102
}
102
{ACAD_REACTORS
330
1A
102
}
330
1A
100
AcDbPlotSettings
  1

  2
None
  4

  6

 40
0.0
 41
0.0
 42
0.0
 43
0.0
 44
0.0
 45
0.0
 46
0.0
 47
0.0
 48
0.0
 49
0.0
140
0.0
141
0.0
142
1.0
143
1.0
 70
   688
 72
     0
 73
     0
 74
     5
  7

 75
    16
147
1.0
148
0.0
149
0.0
100
AcDbLayout
  1
Layout1
 70
     1
 71
     1
 10
0.0
 20
0.0
 11
12.0
 21
9.0
 12
0.0
 22
0.0
 32
0.0
 14
0.0
 24
0.0
 34
0.0
 15
0.0
 25
0.0
 35
0.0
146
0.0
 13
0.0
 23
0.0
 33
0.0
 16
1.0
 26
0.0
 36
0.0
 17
0.0
 27
1.0
 37
0.0
 76
     0
330
50
  0
LAYOUT
  5
56
102
{ACAD_XDICTIONARY
360
325
102
}
102
{ACAD_REACTORS
330
1A
102
}
330
1A
100
AcDbPlotSettings
  1

  2
None
  4

  6

 40
0.0
 41
0.0
 42
0.0
 43
0.0
 44
0.0
 45
0.0
 46
0.0
 47
0.0
 48
0.0
 49
0.0
140
0.0
141
0.0
142
1.0
143
1.0
 70
   688
 72
     0
 73
     0
 74
     5
  7

 75
    16
147
1.0
148
0.0
149
0.0
100
AcDbLayout
  1
Layout2
 70
     1
 71
     2
 10
0.0
 20
0.0
 11
12.0
 21
9.0
 12
0.0
 22
0.0
 32
0.0
 14
0.0
 24
0.0
 34
0.0
 15
0.0
 25
0.0
 35
0.0
146
0.0
 13
0.0
 23
0.0
 33
0.0
 16
1.0
 26
0.0
 36
0.0
 17
0.0
 27
1.0
 37
0.0
 76
     0
330
55
  0
LAYOUT
  5
22
102
{ACAD_XDICTIONARY
360
321
102
}
102
{ACAD_REACTORS
330
1A
102
}
330
1A
100
AcDbPlotSettings
  1

  2
none_device
  4
ANSI_A_(8.50_x_11.00_Inches)
  6

 40
6.349999904632567
 41
19.04999923706055
 42
6.350006103515625
 43
19.04998779296875
 44
215.8999938964844
 45
279.3999938964844
 46
0.0
 47
0.0
 48
0.0
 49
0.0
140
0.0
141
0.0
142
1.0
143
78.436453180766
 70
 11952
 72
     0
 73
     1
 74
     0
  7

 75
     0
147
0.0127491741332998
148
0.0
149
0.0
100
AcDbLayout
  1
Model
 70
     1
 71
     0
 10
0.0
 20
0.0
 11
12.0
 21
9.0
 12
0.0
 22
0.0
 32
0.0
 14
0.0
 24
0.0
 34
0.0
 15
0.0
 25
0.0
 35
0.0
146
0.0
 13
0.0
 23
0.0
 33
0.0
 16
1.0
 26
0.0
 36
0.0
 17
0.0
 27
1.0
 37
0.0
 76
     0
330
1F
  0
MLINESTYLE
  5
18
102
{ACAD_REACTORS
330
17
102
}
330
17
100
AcDbMlineStyle
  2
STANDARD
 70
     0
  3

 62
   256
 51
90.0
 52
90.0
 71
     2
 49
0.5
 62
   256
  6
BYLAYER
 49
-0.5
 62
   256
  6
BYLAYER
  0
ACDBPLACEHOLDER
  5
F
102
{ACAD_REACTORS
330
E
102
}
330
E
  0
XRECORD
  5
320
102
{ACAD_REACTORS
330
31E
102
}
330
31E
100
AcDbXrecord
280
     1
340
6B
  0
XRECORD
  5
31F
102
{ACAD_REACTORS
330
31E
102
}
330
31E
100
AcDbXrecord
280
     1
340
6A
  0
DICTIONARYVAR
  5
5F
102
{ACAD_REACTORS
330
5E
102
}
330
5E
100
DictionaryVariables
280
     0
  1
2
  0
DICTIONARYVAR
  5
63
102
{ACAD_REACTORS
330
5E
102
}
330
5E
100
DictionaryVariables
280
     0
  1
1
  0
DICTIONARYVAR
  5
85
102
{ACAD_REACTORS
330
5E
102
}
330
5E
100
DictionaryVariables
280
     0
  1

  0
DICTIONARY
  5
323
330
51
100
AcDbDictionary
280
     1
281
     1
  3
ACAD_XREC_ROUNDTRIP
360
324
  0
DICTIONARY
  5
325
330
56
100
AcDbDictionary
280
     1
281
     1
  3
ACAD_XREC_ROUNDTRIP
360
326
  0
DICTIONARY
  5
321
330
22
100
AcDbDictionary
280
     1
281
     1
  3
ACAD_XREC_ROUNDTRIP
360
322
  0
XRECORD
  5
324
102
{ACAD_REACTORS
330
323
102
}
330
323
100
AcDbXrecord
280
     1
102
SHADEPLOT
 70
     0
102
SHADEPLOTRESLEVEL
 70
     2
102
SHADEPLOTCUSTOMDPI
 70
   300
  0
XRECORD
  5
326
102
{ACAD_REACTORS
330
325
102
}
330
325
100
AcDbXrecord
280
     1
102
SHADEPLOT
 70
     0
102
SHADEPLOTRESLEVEL
 70
     2
102
SHADEPLOTCUSTOMDPI
 70
   300
  0
XRECORD
  5
322
102
{ACAD_REACTORS
330
321
102
}
330
321
100
AcDbXrecord
280
     1
102
SHADEPLOT
 70
     0
102
SHADEPLOTRESLEVEL
 70
     2
102
SHADEPLOTCUSTOMDPI
 70
   300
  0
ENDSEC
  0
EOF
