  0
SECTION
  2
HEADER
  9
$ACADVER
  1
AC1015
  9
$ACADMAINTVER
 70
    20
  9
$DWGCODEPAGE
  3
ANSI_936
  9
$INSBASE
 10
0.0
 20
0.0
 30
0.0
  9
$EXTMIN
 10
-0.0000418920972152
 20
-44.17778293286096
 30
0.0
  9
$EXTMAX
 10
999.9999581079027
 20
1003.850595972452
 30
0.0
  9
$LIMMIN
 10
0.0
 20
0.0
  9
$LIMMAX
 10
420.0
 20
297.0
  9
$ORTHOMODE
 70
     0
  9
$REGENMODE
 70
     1
  9
$FILLMODE
 70
     1
  9
$QTEXTMODE
 70
     0
  9
$MIRRTEXT
 70
     0
  9
$LTSCALE
 40
1.0
  9
$ATTMODE
 70
     1
  9
$TEXTSIZE
 40
2.5
  9
$TRACEWID
 40
1.0
  9
$TEXTSTYLE
  7
Standard
  9
$CLAYER
  8
2
  9
$CELTYPE
  6
ByLayer
  9
$CECOLOR
 62
   256
  9
$CELTSCALE
 40
1.0
  9
$DISPSILH
 70
     0
  9
$DIMSCALE
 40
1.0
  9
$DIMASZ
 40
2.5
  9
$DIMEXO
 40
0.625
  9
$DIMDLI
 40
3.75
  9
$DIMRND
 40
0.0
  9
$DIMDLE
 40
0.0
  9
$DIMEXE
 40
1.25
  9
$DIMTP
 40
0.0
  9
$DIMTM
 40
0.0
  9
$DIMTXT
 40
2.5
  9
$DIMCEN
 40
2.5
  9
$DIMTSZ
 40
0.0
  9
$DIMTOL
 70
     0
  9
$DIMLIM
 70
     0
  9
$DIMTIH
 70
     0
  9
$DIMTOH
 70
     0
  9
$DIMSE1
 70
     0
  9
$DIMSE2
 70
     0
  9
$DIMTAD
 70
     1
  9
$DIMZIN
 70
     8
  9
$DIMBLK
  1

  9
$DIMASO
 70
     1
  9
$DIMSHO
 70
     1
  9
$DIMPOST
  1

  9
$DIMAPOST
  1

  9
$DIMALT
 70
     0
  9
$DIMALTD
 70
     3
  9
$DIMALTF
 40
0.03937007874016
  9
$DIMLFAC
 40
1.0
  9
$DIMTOFL
 70
     1
  9
$DIMTVP
 40
0.0
  9
$DIMTIX
 70
     0
  9
$DIMSOXD
 70
     0
  9
$DIMSAH
 70
     0
  9
$DIMBLK1
  1

  9
$DIMBLK2
  1

  9
$DIMSTYLE
  2
ISO-25
  9
$DIMCLRD
 70
     0
  9
$DIMCLRE
 70
     0
  9
$DIMCLRT
 70
     0
  9
$DIMTFAC
 40
1.0
  9
$DIMGAP
 40
0.625
  9
$DIMJUST
 70
     0
  9
$DIMSD1
 70
     0
  9
$DIMSD2
 70
     0
  9
$DIMTOLJ
 70
     0
  9
$DIMTZIN
 70
     8
  9
$DIMALTZ
 70
     0
  9
$DIMALTTZ
 70
     0
  9
$DIMUPT
 70
     0
  9
$DIMDEC
 70
     2
  9
$DIMTDEC
 70
     2
  9
$DIMALTU
 70
     2
  9
$DIMALTTD
 70
     3
  9
$DIMTXSTY
  7
Standard
  9
$DIMAUNIT
 70
     0
  9
$DIMADEC
 70
     0
  9
$DIMALTRND
 40
0.0
  9
$DIMAZIN
 70
     0
  9
$DIMDSEP
 70
    44
  9
$DIMATFIT
 70
     3
  9
$DIMFRAC
 70
     0
  9
$DIMLDRBLK
  1

  9
$DIMLUNIT
 70
     2
  9
$DIMLWD
 70
    -2
  9
$DIMLWE
 70
    -2
  9
$DIMTMOVE
 70
     0
  9
$LUNITS
 70
     2
  9
$LUPREC
 70
     4
  9
$SKETCHINC
 40
1.0
  9
$FILLETRAD
 40
0.0
  9
$AUNITS
 70
     0
  9
$AUPREC
 70
     0
  9
$MENU
  1
.
  9
$ELEVATION
 40
0.0
  9
$PELEVATION
 40
0.0
  9
$THICKNESS
 40
0.0
  9
$LIMCHECK
 70
     0
  9
$CHAMFERA
 40
0.0
  9
$CHAMFERB
 40
0.0
  9
$CHAMFERC
 40
0.0
  9
$CHAMFERD
 40
0.0
  9
$SKPOLY
 70
     0
  9
$TDCREATE
 40
2455505.725807523
  9
$TDUCREATE
 40
2455505.392474190
  9
$TDUPDATE
 40
2457095.667185509
  9
$TDUUPDATE
 40
2457095.333852176
  9
$TDINDWG
 40
0.0510751273
  9
$TDUSRTIMER
 40
0.0510745949
  9
$USRTIMER
 70
     1
  9
$ANGBASE
 50
0.0
  9
$ANGDIR
 70
     0
  9
$PDMODE
 70
     0
  9
$PDSIZE
 40
0.0
  9
$PLINEWID
 40
0.0
  9
$SPLFRAME
 70
     0
  9
$SPLINETYPE
 70
     6
  9
$SPLINESEGS
 70
     8
  9
$HANDSEED
  5
2EB
  9
$SURFTAB1
 70
     6
  9
$SURFTAB2
 70
     6
  9
$SURFTYPE
 70
     6
  9
$SURFU
 70
     6
  9
$SURFV
 70
     6
  9
$UCSBASE
  2

  9
$UCSNAME
  2

  9
$UCSORG
 10
0.0
 20
0.0
 30
0.0
  9
$UCSXDIR
 10
1.0
 20
0.0
 30
0.0
  9
$UCSYDIR
 10
0.0
 20
1.0
 30
0.0
  9
$UCSORTHOREF
  2

  9
$UCSORTHOVIEW
 70
     0
  9
$UCSORGTOP
 10
0.0
 20
0.0
 30
0.0
  9
$UCSORGBOTTOM
 10
0.0
 20
0.0
 30
0.0
  9
$UCSORGLEFT
 10
0.0
 20
0.0
 30
0.0
  9
$UCSORGRIGHT
 10
0.0
 20
0.0
 30
0.0
  9
$UCSORGFRONT
 10
0.0
 20
0.0
 30
0.0
  9
$UCSORGBACK
 10
0.0
 20
0.0
 30
0.0
  9
$PUCSBASE
  2

  9
$PUCSNAME
  2

  9
$PUCSORG
 10
0.0
 20
0.0
 30
0.0
  9
$PUCSXDIR
 10
1.0
 20
0.0
 30
0.0
  9
$PUCSYDIR
 10
0.0
 20
1.0
 30
0.0
  9
$PUCSORTHOREF
  2

  9
$PUCSORTHOVIEW
 70
     0
  9
$PUCSORGTOP
 10
0.0
 20
0.0
 30
0.0
  9
$PUCSORGBOTTOM
 10
0.0
 20
0.0
 30
0.0
  9
$PUCSORGLEFT
 10
0.0
 20
0.0
 30
0.0
  9
$PUCSORGRIGHT
 10
0.0
 20
0.0
 30
0.0
  9
$PUCSORGFRONT
 10
0.0
 20
0.0
 30
0.0
  9
$PUCSORGBACK
 10
0.0
 20
0.0
 30
0.0
  9
$USERI1
 70
     0
  9
$USERI2
 70
     0
  9
$USERI3
 70
     0
  9
$USERI4
 70
     0
  9
$USERI5
 70
     0
  9
$USERR1
 40
0.0
  9
$USERR2
 40
0.0
  9
$USERR3
 40
0.0
  9
$USERR4
 40
0.0
  9
$USERR5
 40
0.0
  9
$WORLDVIEW
 70
     1
  9
$SHADEDGE
 70
     3
  9
$SHADEDIF
 70
    70
  9
$TILEMODE
 70
     1
  9
$MAXACTVP
 70
    64
  9
$PINSBASE
 10
0.0
 20
0.0
 30
0.0
  9
$PLIMCHECK
 70
     0
  9
$PEXTMIN
 10
0.0
 20
0.0
 30
0.0
  9
$PEXTMAX
 10
0.0
 20
0.0
 30
0.0
  9
$PLIMMIN
 10
0.0
 20
0.0
  9
$PLIMMAX
 10
12.0
 20
9.0
  9
$UNITMODE
 70
     0
  9
$VISRETAIN
 70
     1
  9
$PLINEGEN
 70
     0
  9
$PSLTSCALE
 70
     1
  9
$TREEDEPTH
 70
  3020
  9
$CMLSTYLE
  2
Standard
  9
$CMLJUST
 70
     0
  9
$CMLSCALE
 40
20.0
  9
$PROXYGRAPHICS
 70
     1
  9
$MEASUREMENT
 70
     1
  9
$CELWEIGHT
370
    -1
  9
$ENDCAPS
280
     0
  9
$JOINSTYLE
280
     0
  9
$LWDISPLAY
290
     0
  9
$INSUNITS
 70
     4
  9
$HYPERLINKBASE
  1

  9
$STYLESHEET
  1

  9
$XEDIT
290
     1
  9
$CEPSNTYPE
380
     0
  9
$PSTYLEMODE
290
     1
  9
$FINGERPRINTGUID
  2
{FDEAD578-A652-11D2-9A35-0060089B3A3F}
  9
$VERSIONGUID
  2
{C0DC489D-332F-414A-8E6F-7CBFE12E8544}
  9
$EXTNAMES
290
     1
  9
$PSVPSCALE
 40
0.0
  9
$OLESTARTUP
290
     0
  0
ENDSEC
  0
SECTION
  2
CLASSES
  0
CLASS
  1
ACDBDICTIONARYWDFLT
  2
AcDbDictionaryWithDefault
  3
ObjectDBX Classes
 90
        0
280
     0
281
     0
  0
CLASS
  1
ACDBPLACEHOLDER
  2
AcDbPlaceHolder
  3
ObjectDBX Classes
 90
        0
280
     0
281
     0
  0
CLASS
  1
LAYOUT
  2
AcDbLayout
  3
ObjectDBX Classes
 90
        0
280
     0
281
     0
  0
CLASS
  1
DICTIONARYVAR
  2
AcDbDictionaryVar
  3
ObjectDBX Classes
 90
        0
280
     0
281
     0
  0
ENDSEC
  0
SECTION
  2
TABLES
  0
TABLE
  2
VPORT
  5
8
330
0
100
AcDbSymbolTable
 70
     3
  0
VPORT
  5
2E1
330
8
100
AcDbSymbolTableRecord
100
AcDbViewportTableRecord
  2
*Active
 70
     0
 10
0.0
 20
0.0
 11
1.0
 21
1.0
 12
571.2719662132996
 22
525.7942573661434
 13
0.0
 23
0.0
 14
10.0
 24
10.0
 15
10.0
 25
10.0
 16
0.0
 26
0.0
 36
1.0
 17
0.0
 27
0.0
 37
0.0
 40
1125.826522261487
 41
1.68860353130016
 42
50.0
 43
0.0
 44
0.0
 50
0.0
 51
0.0
 71
     0
 72
  1000
 73
     1
 74
     3
 75
     0
 76
     0
 77
     0
 78
     0
281
     0
 65
     1
110
0.0
120
0.0
130
0.0
111
1.0
121
0.0
131
0.0
112
0.0
122
1.0
132
0.0
 79
     0
146
0.0
  0
ENDTAB
  0
TABLE
  2
LTYPE
  5
5
330
0
100
AcDbSymbolTable
 70
     1
  0
LTYPE
  5
14
330
5
100
AcDbSymbolTableRecord
100
AcDbLinetypeTableRecord
  2
ByBlock
 70
     0
  3

 72
    65
 73
     0
 40
0.0
  0
LTYPE
  5
15
330
5
100
AcDbSymbolTableRecord
100
AcDbLinetypeTableRecord
  2
ByLayer
 70
     0
  3

 72
    65
 73
     0
 40
0.0
  0
LTYPE
  5
16
330
5
100
AcDbSymbolTableRecord
100
AcDbLinetypeTableRecord
  2
Continuous
 70
     0
  3
Solid line
 72
    65
 73
     0
 40
0.0
  0
ENDTAB
  0
TABLE
  2
LAYER
  5
2
330
0
100
AcDbSymbolTable
 70
     4
  0
LAYER
  5
10
330
2
100
AcDbSymbolTableRecord
100
AcDbLayerTableRecord
  2
0
 70
     0
 62
     2
  6
Continuous
370
    -3
390
F
  0
LAYER
  5
94
330
2
100
AcDbSymbolTableRecord
100
AcDbLayerTableRecord
  2
1
 70
     0
 62
     1
  6
Continuous
370
    -3
390
F
  0
LAYER
  5
95
330
2
100
AcDbSymbolTableRecord
100
AcDbLayerTableRecord
  2
2
 70
     0
 62
     7
  6
Continuous
370
    -3
390
F
  0
LAYER
  5
10E
330
2
100
AcDbSymbolTableRecord
100
AcDbLayerTableRecord
  2
3
 70
     0
 62
     7
  6
Continuous
370
    -3
390
F
  0
ENDTAB
  0
TABLE
  2
STYLE
  5
3
330
0
100
AcDbSymbolTable
 70
     1
  0
STYLE
  5
11
330
3
100
AcDbSymbolTableRecord
100
AcDbTextStyleTableRecord
  2
Standard
 70
     0
 40
0.0
 41
1.0
 50
0.0
 71
     0
 42
2.5
  3
txt
  4

  0
ENDTAB
  0
TABLE
  2
VIEW
  5
6
330
0
100
AcDbSymbolTable
 70
     0
  0
ENDTAB
  0
TABLE
  2
UCS
  5
7
330
0
100
AcDbSymbolTable
 70
     0
  0
ENDTAB
  0
TABLE
  2
APPID
  5
9
330
0
100
AcDbSymbolTable
 70
     1
  0
APPID
  5
12
330
9
100
AcDbSymbolTableRecord
100
AcDbRegAppTableRecord
  2
ACAD
 70
     0
  0
ENDTAB
  0
TABLE
  2
DIMSTYLE
  5
A
330
0
100
AcDbSymbolTable
 70
     1
100
AcDbDimStyleTable
 71
     0
  0
DIMSTYLE
105
27
330
A
100
AcDbSymbolTableRecord
100
AcDbDimStyleTableRecord
  2
ISO-25
 70
     0
 41
2.5
 42
0.625
 43
3.75
 44
1.25
 73
     0
 74
     0
 77
     1
 78
     8
140
2.5
141
2.5
143
0.03937007874016
147
0.625
171
     3
172
     1
271
     2
272
     2
274
     3
278
    44
283
     0
284
     8
340
11
  0
ENDTAB
  0
TABLE
  2
BLOCK_RECORD
  5
1
330
0
100
AcDbSymbolTable
 70
     1
  0
BLOCK_RECORD
  5
1F
330
1
100
AcDbSymbolTableRecord
100
AcDbBlockTableRecord
  2
*Model_Space
340
22
  0
BLOCK_RECORD
  5
50
330
1
100
AcDbSymbolTableRecord
100
AcDbBlockTableRecord
  2
*Paper_Space
340
51
  0
BLOCK_RECORD
  5
55
330
1
100
AcDbSymbolTableRecord
100
AcDbBlockTableRecord
  2
*Paper_Space0
340
56
  0
ENDTAB
  0
ENDSEC
  0
SECTION
  2
BLOCKS
  0
BLOCK
  5
20
330
1F
100
AcDbEntity
  8
0
100
AcDbBlockBegin
  2
*Model_Space
 70
     0
 10
0.0
 20
0.0
 30
0.0
  3
*Model_Space
  1

  0
ENDBLK
  5
21
330
1F
100
AcDbEntity
  8
0
100
AcDbBlockEnd
  0
BLOCK
  5
52
330
50
100
AcDbEntity
 67
     1
  8
0
100
AcDbBlockBegin
  2
*Paper_Space
 70
     0
 10
0.0
 20
0.0
 30
0.0
  3
*Paper_Space
  1

  0
ENDBLK
  5
53
330
50
100
AcDbEntity
 67
     1
  8
0
100
AcDbBlockEnd
  0
BLOCK
  5
57
330
55
100
AcDbEntity
  8
0
100
AcDbBlockBegin
  2
*Paper_Space0
 70
     0
 10
0.0
 20
0.0
 30
0.0
  3
*Paper_Space0
  1

  0
ENDBLK
  5
58
330
55
100
AcDbEntity
  8
0
100
AcDbBlockEnd
  0
ENDSEC
  0
SECTION
  2
ENTITIES
  0
LINE
  5
293
330
1F
100
AcDbEntity
  8
3
100
AcDbLine
 10
488.0469259623418
 20
356.2565674829075
 30
0.0
 11
488.0469259623418
 21
344.4736253784642
 31
0.0
  0
LINE
  5
294
330
1F
100
AcDbEntity
  8
3
100
AcDbLine
 10
511.8069259623418
 20
356.2565674829075
 30
0.0
 11
511.8069259623418
 21
344.4736253784642
 31
0.0
  0
LINE
  5
295
330
1F
100
AcDbEntity
  8
3
100
AcDbLine
 10
497.0882196415116
 20
182.4631548392847
 30
0.0
 11
511.8069259623418
 21
182.4631548392847
 31
0.0
  0
LINE
  5
296
330
1F
100
AcDbEntity
  8
3
100
AcDbLine
 10
488.0469259623418
 20
220.6474861195904
 30
0.0
 11
511.8069259623418
 21
220.6474861195983
 31
0.0
  0
LINE
  5
297
330
1F
100
AcDbEntity
  8
3
100
AcDbLine
 10
493.6901261706958
 20
250.2365385975071
 30
0.0
 11
511.8069259623418
 21
250.2365385975071
 31
0.0
  0
LINE
  5
298
330
1F
100
AcDbEntity
  8
3
100
AcDbLine
 10
488.0469259623418
 20
275.0531829814987
 30
0.0
 11
511.8069259623418
 21
275.0531829814987
 31
0.0
  0
LINE
  5
299
330
1F
100
AcDbEntity
  8
3
100
AcDbLine
 10
488.0469259623418
 20
47.54166686335975
 30
0.0
 11
511.8069259623418
 21
71.3016668633598
 31
0.0
  0
ARC
  5
29A
330
1F
100
AcDbEntity
  8
3
100
AcDbCircle
 10
499.926925962342
 20
905.7181284429995
 30
0.0
 40
28.95222531009235
100
AcDbArc
 50
213.805421748904
 51
213.805421748904
  0
ARC
  5
29B
330
1F
100
AcDbEntity
  8
3
100
AcDbCircle
 10
499.926925962342
 20
905.7181284429995
 30
0.0
 40
28.95222531009235
100
AcDbArc
 50
13.98655540162898
 51
84.14444591515296
  0
SPLINE
  5
29C
330
1F
100
AcDbEntity
  8
3
100
AcDbSpline
210
0.0
220
0.0
230
1.0
 70
     8
 71
     3
 72
    46
 73
    42
 74
     0
 42
0.0000000001
 43
0.0000000001
 40
1.525090762727385
 40
1.525090762727385
 40
1.525090762727385
 40
1.525090762727385
 40
1.71879527355728
 40
1.71879527355728
 40
2.106204295217064
 40
2.106204295217064
 40
2.370393052692663
 40
2.370393052692663
 40
2.577122075719204
 40
2.577122075719204
 40
2.732076641731488
 40
2.732076641731488
 40
2.853643365543683
 40
2.853643365543683
 40
2.950342146257241
 40
2.950342146257241
 40
3.027299882435419
 40
3.027299882435419
 40
3.104257618613595
 40
3.104257618613595
 40
3.181215354791774
 40
3.181215354791774
 40
3.258173090969951
 40
3.258173090969951
 40
3.335130827148128
 40
3.335130827148128
 40
3.412088563326304
 40
3.412088563326304
 40
3.489046299504482
 40
3.489046299504482
 40
3.653433003137097
 40
3.653433003137097
 40
3.817819706769716
 40
3.817819706769716
 40
3.982206410402331
 40
3.982206410402331
 40
4.326691184457596
 40
4.326691184457596
 40
4.67117595851286
 40
4.67117595851286
 40
4.758094430449371
 40
4.758094430449371
 40
4.758094430449371
 40
4.758094430449371
 10
506.3421148039437
 20
888.1532250358326
 30
0.0
 10
506.3533162579565
 20
889.2739105295067
 30
0.0
 10
506.3407405985958
 20
890.3990522906887
 30
0.0
 10
506.2321734574168
 20
893.7311630947611
 30
0.0
 10
506.0650854963189
 20
895.8924041179249
 30
0.0
 10
505.6365927633418
 20
899.1976837225669
 30
0.0
 10
505.4226722278768
 20
900.4465551315844
 30
0.0
 10
504.9695118197661
 20
902.4620757736057
 30
0.0
 10
504.7466061455674
 20
903.274294625992
 30
0.0
 10
504.2993649582122
 20
904.570127553872
 30
0.0
 10
504.0900835226667
 20
905.085226551362
 30
0.0
 10
503.6546488312815
 20
905.9500721908731
 30
0.0
 10
503.4424868531302
 20
906.3122076604431
 30
0.0
 10
502.9780789376612
 20
906.9416072980736
 30
0.0
 10
502.7426085832295
 20
907.2143834735058
 30
0.0
 10
502.2169536466779
 20
907.6800917786053
 30
0.0
 10
501.9462551686234
 20
907.8783829663313
 30
0.0
 10
501.3049247578383
 20
908.2152568376145
 30
0.0
 10
500.9317040952238
 20
908.3520258875719
 30
0.0
 10
500.1237211999129
 20
908.4901247500841
 30
0.0
 10
499.6925578524296
 20
908.487732953295
 30
0.0
 10
498.887805913351
 20
908.3417492913723
 30
0.0
 10
498.5175772535698
 20
908.2020100306388
 30
0.0
 10
497.8820082233325
 20
907.8614194778094
 30
0.0
 10
497.6140439105281
 20
907.6622387343556
 30
0.0
 10
497.1524979329204
 20
907.2483130726972
 30
0.0
 10
496.9577378301798
 20
907.0327198398263
 30
0.0
 10
496.6114081771117
 20
906.5932818790439
 30
0.0
 10
496.4598304076964
 20
906.3689126905019
 30
0.0
 10
496.0244302554521
 20
905.6474030961545
 30
0.0
 10
495.7835545565616
 20
905.1286610255012
 30
0.0
 10
495.3467809192609
 20
904.0058901284991
 30
0.0
 10
495.1530919398062
 20
903.4019231592994
 30
0.0
 10
494.7986220309245
 20
902.1003679177178
 30
0.0
 10
494.638383545089
 20
901.4030735752873
 30
0.0
 10
494.1896987162578
 20
899.1097276966382
 30
0.0
 10
493.9532040391924
 20
897.3637057623719
 30
0.0
 10
493.6224230928141
 20
893.6359383707374
 30
0.0
 10
493.5289677879812
 20
891.6562059306627
 30
0.0
 10
493.5064719523516
 20
889.1598652577739
 30
0.0
 10
493.5067193261058
 20
888.6560942508234
 30
0.0
 10
493.511745844714
 20
888.1532238210748
 30
0.0
  0
ARC
  5
29D
330
1F
100
AcDbEntity
  8
3
100
AcDbCircle
 10
499.926925962342
 20
905.7181284429995
 30
0.0
 40
33.54222531009235
100
AcDbArc
 50
326.1945782510961
 51
213.805421748904
  0
ELLIPSE
  5
29E
330
1F
100
AcDbEntity
  8
3
100
AcDbEllipse
 10
499.926925962342
 20
880.1874959758412
 30
0.0
 11
54.14401674812797
 21
0.0
 31
0.0
210
0.0
220
0.0
230
1.0
 40
0.1479682026585976
 41
0.0
 42
6.283185307179584
  0
LINE
  5
29F
330
1F
100
AcDbEntity
  8
3
100
AcDbLine
 10
554.0709427104668
 20
850.0287222998123
 30
0.0
 11
554.0709427104668
 21
880.1874959758412
 31
0.0
  0
LINE
  5
2A0
330
1F
100
AcDbEntity
  8
3
100
AcDbLine
 10
445.7829092142169
 20
850.0287222998123
 30
0.0
 11
445.7829092142169
 21
880.1874959758412
 31
0.0
  0
LINE
  5
2A1
330
1F
100
AcDbEntity
  8
1
 62
     1
100
AcDbLine
 10
349.4226865612175
 20
968.3061132759288
 30
0.0
 11
349.4226865612174
 21
25.08057226114658
 31
0.0
  0
LINE
  5
2A2
330
1F
100
AcDbEntity
  8
1
 62
     1
100
AcDbLine
 10
648.2015072038881
 20
968.3061132759284
 30
0.0
 11
349.4226865612175
 21
968.3061132759288
 31
0.0
  0
LINE
  5
2A3
330
1F
100
AcDbEntity
  8
1
 62
     1
100
AcDbLine
 10
648.2015072038881
 20
25.08057226114658
 30
0.0
 11
648.2015072038881
 21
968.3061132759284
 31
0.0
  0
LINE
  5
2A4
330
1F
100
AcDbEntity
  8
1
 62
     1
100
AcDbLine
 10
349.4226865612175
 20
25.08057226114658
 30
0.0
 11
648.2015072038881
 21
25.08057226114658
 31
0.0
  0
LWPOLYLINE
  5
2A5
330
1F
100
AcDbEntity
  8
0
 62
     2
100
AcDbPolyline
 90
        4
 70
     1
 43
0.0
 10
-0.0000418920972152
 20
0.0000014887773432
 10
999.9999581079027
 20
0.0000014887773432
 10
999.9999581079027
 20
1000.000001488777
 10
-0.0000418920972152
 20
1000.000001488777
  0
LINE
  5
2A6
330
1F
100
AcDbEntity
  8
3
100
AcDbLine
 10
488.0469259623418
 20
301.7478669530568
 30
0.0
 11
511.8069259623418
 21
301.7478669530568
 31
0.0
  0
LINE
  5
2A7
330
1F
100
AcDbEntity
  8
3
100
AcDbLine
 10
427.9558850429176
 20
827.3541869222869
 30
0.0
 11
427.9558850429176
 21
850.0287222998123
 31
0.0
  0
LINE
  5
2A8
330
1F
100
AcDbEntity
  8
3
100
AcDbLine
 10
427.9558850429176
 20
850.0287222998123
 30
0.0
 11
571.8979668817659
 21
850.0287222998123
 31
0.0
  0
LINE
  5
2A9
330
1F
100
AcDbEntity
  8
3
100
AcDbLine
 10
571.8979668817659
 20
827.3541869222869
 30
0.0
 11
571.8979668817659
 21
850.0287222998123
 31
0.0
  0
ARC
  5
2AA
330
1F
100
AcDbEntity
  8
3
100
AcDbCircle
 10
499.926925962342
 20
746.4258993319377
 30
0.0
 40
108.3015164405914
100
AcDbArc
 50
131.6472937526092
 51
180.0
  0
ARC
  5
2AB
330
1F
100
AcDbEntity
  8
3
100
AcDbCircle
 10
499.926925962342
 20
746.4258993319377
 30
0.0
 40
108.3015164405914
100
AcDbArc
 50
0.0
 51
48.35270624739078
  0
ARC
  5
2AC
330
1F
100
AcDbEntity
  8
3
100
AcDbCircle
 10
-300.2139528659059
 20
818.6595529246964
 30
0.0
 40
911.3096544167401
100
AcDbArc
 50
336.1170987005987
 51
355.4537632062499
  0
ARC
  5
2AD
330
1F
100
AcDbEntity
  8
3
100
AcDbCircle
 10
1163.798602738768
 20
784.1412725831839
 30
0.0
 40
773.0937134024953
100
AcDbArc
 50
182.7962842701488
 51
205.632853822988
  0
ARC
  5
2AE
330
1F
100
AcDbEntity
  8
3
100
AcDbCircle
 10
727.8069259623419
 20
356.2565674829075
 30
0.0
 40
216.0
100
AcDbArc
 50
154.3671461770119
 51
180.0
  0
ARC
  5
2AF
330
1F
100
AcDbEntity
  8
3
100
AcDbCircle
 10
272.046925962342
 20
356.2565674829153
 30
0.0
 40
216.0
100
AcDbArc
 50
0.0
 51
25.63285382298803
  0
ARC
  5
2B0
330
1F
100
AcDbEntity
  8
3
100
AcDbCircle
 10
499.926925962342
 20
746.4258993319377
 30
0.0
 40
86.70151644059149
100
AcDbArc
 50
131.6472937526092
 51
180.0
  0
HATCH
  5
2B1
330
1F
100
AcDbEntity
  8
3
100
AcDbHatch
 10
0.0
 20
0.0
 30
0.0
210
0.0
220
0.0
230
1.0
  2
SOLID
 70
     1
 71
     0
 91
        1
 92
        7
 72
     1
 73
     1
 93
        2
 10
472.2743863538129
 20
344.4736253784604
 42
1.0
 10
472.2743863538129
 20
329.1154065763454
 42
0.0
 97
        0
 75
     0
 76
     1
 47
0.23246673366308
 98
        1
 10
470.2555987206729
 20
337.2002680074146
  0
HATCH
  5
2B2
330
1F
100
AcDbEntity
  8
3
100
AcDbHatch
 10
0.0
 20
0.0
 30
0.0
210
0.0
220
0.0
230
1.0
  2
SOLID
 70
     1
 71
     0
 91
        1
 92
        7
 72
     1
 73
     1
 93
        4
 10
559.3360023778958
 20
344.4736253784604
 42
0.0
 10
550.3416380061621
 20
344.4736253784565
 42
0.0
 10
550.3416380061621
 20
325.9264996764697
 42
0.0
 10
559.3360023778958
 20
325.559096059743
 42
1.0
 97
        0
 75
     0
 76
     1
 47
0.2349577570097936
 98
        1
 10
560.0745452966712
 20
335.5999245115413
  0
ARC
  5
2B3
330
1F
100
AcDbEntity
  8
3
100
AcDbCircle
 10
559.3360023778958
 20
335.0163607190997
 30
0.0
 40
9.457264659358385
100
AcDbArc
 50
270.0
 51
90.0
  0
LINE
  5
2B4
330
1F
100
AcDbEntity
  8
3
100
AcDbLine
 10
550.3416380061621
 20
344.4736253784642
 30
0.0
 11
550.3416380061621
 21
325.9264996764697
 31
0.0
  0
ARC
  5
2B5
330
1F
100
AcDbEntity
  8
3
100
AcDbCircle
 10
472.274386353813
 20
336.7945159774028
 30
0.0
 40
7.679109401056118
100
AcDbArc
 50
90.0
 51
270.0
  0
LINE
  5
2B6
330
1F
100
AcDbEntity
  8
3
100
AcDbLine
 10
472.274386353813
 20
344.4736253784642
 30
0.0
 11
472.274386353813
 21
329.1154065763492
 31
0.0
  0
LINE
  5
2B7
330
1F
100
AcDbEntity
  8
3
100
AcDbLine
 10
472.274386353813
 20
329.1154065763492
 30
0.0
 11
559.3360023778958
 21
325.559096059743
 31
0.0
  0
LINE
  5
2B8
330
1F
100
AcDbEntity
  8
3
100
AcDbLine
 10
472.274386353813
 20
344.4736253784642
 30
0.0
 11
559.3360023778958
 21
344.4736253784642
 31
0.0
  0
LINE
  5
2B9
330
1F
100
AcDbEntity
  8
3
100
AcDbLine
 10
511.8069259623418
 20
327.5005733952237
 30
0.0
 11
511.8069259623418
 21
71.30166686335195
 31
0.0
  0
LINE
  5
2BA
330
1F
100
AcDbEntity
  8
3
100
AcDbLine
 10
488.0469259623418
 20
328.471126685336
 30
0.0
 11
488.0469259623418
 21
47.54166686335975
 31
0.0
  0
ENDSEC
  0
SECTION
  2
OBJECTS
  0
DICTIONARY
  5
C
330
0
100
AcDbDictionary
281
     1
  3
ACAD_COLOR
350
6B
  3
ACAD_GROUP
350
D
  3
ACAD_LAYOUT
350
1A
  3
ACAD_MATERIAL
350
6A
  3
ACAD_MLINESTYLE
350
17
  3
ACAD_PLOTSETTINGS
350
19
  3
ACAD_PLOTSTYLENAME
350
E
  3
ACDBHEADERROUNDTRIPXREC
350
2E2
  3
AcDbVariableDictionary
350
5E
  0
DICTIONARY
  5
6B
102
{ACAD_REACTORS
330
C
102
}
330
C
100
AcDbDictionary
281
     1
  0
DICTIONARY
  5
D
102
{ACAD_REACTORS
330
C
102
}
330
C
100
AcDbDictionary
281
     1
  0
DICTIONARY
  5
1A
102
{ACAD_REACTORS
330
C
102
}
330
C
100
AcDbDictionary
281
     1
  3
Layout1
350
51
  3
Layout2
350
56
  3
Model
350
22
  0
DICTIONARY
  5
6A
102
{ACAD_REACTORS
330
C
102
}
330
C
100
AcDbDictionary
281
     1
  0
DICTIONARY
  5
17
102
{ACAD_REACTORS
330
C
102
}
330
C
100
AcDbDictionary
281
     1
  3
Standard
350
18
  0
DICTIONARY
  5
19
102
{ACAD_REACTORS
330
C
102
}
330
C
100
AcDbDictionary
281
     1
  0
ACDBDICTIONARYWDFLT
  5
E
102
{ACAD_REACTORS
330
C
102
}
330
C
100
AcDbDictionary
281
     1
  3
Normal
350
F
100
AcDbDictionaryWithDefault
340
F
  0
DICTIONARY
  5
2E2
102
{ACAD_REACTORS
330
C
102
}
330
C
100
AcDbDictionary
281
     1
  3
COLORDICT
350
2E4
  3
MATERIALDICT
350
2E3
  0
DICTIONARY
  5
5E
102
{ACAD_REACTORS
330
C
102
}
330
C
100
AcDbDictionary
281
     1
  3
DIMASSOC
350
5F
  3
HIDETEXT
350
63
  3
PROJECTNAME
350
85
  0
LAYOUT
  5
51
102
{ACAD_XDICTIONARY
360
2E7
102
}
102
{ACAD_REACTORS
330
1A
102
}
330
1A
100
AcDbPlotSettings
  1

  2
None
  4

  6

 40
0.0
 41
0.0
 42
0.0
 43
0.0
 44
0.0
 45
0.0
 46
0.0
 47
0.0
 48
0.0
 49
0.0
140
0.0
141
0.0
142
1.0
143
1.0
 70
   688
 72
     0
 73
     0
 74
     5
  7

 75
    16
147
1.0
148
0.0
149
0.0
100
AcDbLayout
  1
Layout1
 70
     1
 71
     1
 10
0.0
 20
0.0
 11
12.0
 21
9.0
 12
0.0
 22
0.0
 32
0.0
 14
0.0
 24
0.0
 34
0.0
 15
0.0
 25
0.0
 35
0.0
146
0.0
 13
0.0
 23
0.0
 33
0.0
 16
1.0
 26
0.0
 36
0.0
 17
0.0
 27
1.0
 37
0.0
 76
     0
330
50
  0
LAYOUT
  5
56
102
{ACAD_XDICTIONARY
360
2E9
102
}
102
{ACAD_REACTORS
330
1A
102
}
330
1A
100
AcDbPlotSettings
  1

  2
None
  4

  6

 40
0.0
 41
0.0
 42
0.0
 43
0.0
 44
0.0
 45
0.0
 46
0.0
 47
0.0
 48
0.0
 49
0.0
140
0.0
141
0.0
142
1.0
143
1.0
 70
   688
 72
     0
 73
     0
 74
     5
  7

 75
    16
147
1.0
148
0.0
149
0.0
100
AcDbLayout
  1
Layout2
 70
     1
 71
     2
 10
0.0
 20
0.0
 11
12.0
 21
9.0
 12
0.0
 22
0.0
 32
0.0
 14
0.0
 24
0.0
 34
0.0
 15
0.0
 25
0.0
 35
0.0
146
0.0
 13
0.0
 23
0.0
 33
0.0
 16
1.0
 26
0.0
 36
0.0
 17
0.0
 27
1.0
 37
0.0
 76
     0
330
55
  0
LAYOUT
  5
22
102
{ACAD_XDICTIONARY
360
2E5
102
}
102
{ACAD_REACTORS
330
1A
102
}
330
1A
100
AcDbPlotSettings
  1

  2
none_device
  4
ANSI_A_(8.50_x_11.00_Inches)
  6

 40
6.349999904632567
 41
19.04999923706055
 42
6.350006103515625
 43
19.04998779296875
 44
215.8999938964844
 45
279.3999938964844
 46
0.0
 47
0.0
 48
0.0
 49
0.0
140
0.0
141
0.0
142
1.0
143
78.436453180766
 70
 11952
 72
     0
 73
     1
 74
     0
  7

 75
     0
147
0.0127491741332998
148
0.0
149
0.0
100
AcDbLayout
  1
Model
 70
     1
 71
     0
 10
0.0
 20
0.0
 11
12.0
 21
9.0
 12
0.0
 22
0.0
 32
0.0
 14
0.0
 24
0.0
 34
0.0
 15
0.0
 25
0.0
 35
0.0
146
0.0
 13
0.0
 23
0.0
 33
0.0
 16
1.0
 26
0.0
 36
0.0
 17
0.0
 27
1.0
 37
0.0
 76
     0
330
1F
  0
MLINESTYLE
  5
18
102
{ACAD_REACTORS
330
17
102
}
330
17
100
AcDbMlineStyle
  2
STANDARD
 70
     0
  3

 62
   256
 51
90.0
 52
90.0
 71
     2
 49
0.5
 62
   256
  6
BYLAYER
 49
-0.5
 62
   256
  6
BYLAYER
  0
ACDBPLACEHOLDER
  5
F
102
{ACAD_REACTORS
330
E
102
}
330
E
  0
XRECORD
  5
2E4
102
{ACAD_REACTORS
330
2E2
102
}
330
2E2
100
AcDbXrecord
280
     1
340
6B
  0
XRECORD
  5
2E3
102
{ACAD_REACTORS
330
2E2
102
}
330
2E2
100
AcDbXrecord
280
     1
340
6A
  0
DICTIONARYVAR
  5
5F
102
{ACAD_REACTORS
330
5E
102
}
330
5E
100
DictionaryVariables
280
     0
  1
2
  0
DICTIONARYVAR
  5
63
102
{ACAD_REACTORS
330
5E
102
}
330
5E
100
DictionaryVariables
280
     0
  1
1
  0
DICTIONARYVAR
  5
85
102
{ACAD_REACTORS
330
5E
102
}
330
5E
100
DictionaryVariables
280
     0
  1

  0
DICTIONARY
  5
2E7
330
51
100
AcDbDictionary
280
     1
281
     1
  3
ACAD_XREC_ROUNDTRIP
360
2E8
  0
DICTIONARY
  5
2E9
330
56
100
AcDbDictionary
280
     1
281
     1
  3
ACAD_XREC_ROUNDTRIP
360
2EA
  0
DICTIONARY
  5
2E5
330
22
100
AcDbDictionary
280
     1
281
     1
  3
ACAD_XREC_ROUNDTRIP
360
2E6
  0
XRECORD
  5
2E8
102
{ACAD_REACTORS
330
2E7
102
}
330
2E7
100
AcDbXrecord
280
     1
102
SHADEPLOT
 70
     0
102
SHADEPLOTRESLEVEL
 70
     2
102
SHADEPLOTCUSTOMDPI
 70
   300
  0
XRECORD
  5
2EA
102
{ACAD_REACTORS
330
2E9
102
}
330
2E9
100
AcDbXrecord
280
     1
102
SHADEPLOT
 70
     0
102
SHADEPLOTRESLEVEL
 70
     2
102
SHADEPLOTCUSTOMDPI
 70
   300
  0
XRECORD
  5
2E6
102
{ACAD_REACTORS
330
2E5
102
}
330
2E5
100
AcDbXrecord
280
     1
102
SHADEPLOT
 70
     0
102
SHADEPLOTRESLEVEL
 70
     2
102
SHADEPLOTCUSTOMDPI
 70
   300
  0
ENDSEC
  0
EOF
