  0
SECTION
  2
HEADER
  9
$ACADVER
  1
AC1015
  9
$ACADMAINTVER
 70
    20
  9
$DWGCODEPAGE
  3
ANSI_936
  9
$INSBASE
 10
0.0
 20
0.0
 30
0.0
  9
$EXTMIN
 10
-0.0000610418937868
 20
0.0000014887773432
 30
0.0
  9
$EXTMAX
 10
999.9999389581059
 20
1000.000001488777
 30
0.0
  9
$LIMMIN
 10
0.0
 20
0.0
  9
$LIMMAX
 10
420.0
 20
297.0
  9
$ORTHOMODE
 70
     0
  9
$REGENMODE
 70
     1
  9
$FILLMODE
 70
     1
  9
$QTEXTMODE
 70
     0
  9
$MIRRTEXT
 70
     0
  9
$LTSCALE
 40
1.0
  9
$ATTMODE
 70
     1
  9
$TEXTSIZE
 40
2.5
  9
$TRACEWID
 40
1.0
  9
$TEXTSTYLE
  7
Standard
  9
$CLAYER
  8
2
  9
$CELTYPE
  6
ByLayer
  9
$CECOLOR
 62
   256
  9
$CELTSCALE
 40
1.0
  9
$DISPSILH
 70
     0
  9
$DIMSCALE
 40
1.0
  9
$DIMASZ
 40
2.5
  9
$DIMEXO
 40
0.625
  9
$DIMDLI
 40
3.75
  9
$DIMRND
 40
0.0
  9
$DIMDLE
 40
0.0
  9
$DIMEXE
 40
1.25
  9
$DIMTP
 40
0.0
  9
$DIMTM
 40
0.0
  9
$DIMTXT
 40
2.5
  9
$DIMCEN
 40
2.5
  9
$DIMTSZ
 40
0.0
  9
$DIMTOL
 70
     0
  9
$DIMLIM
 70
     0
  9
$DIMTIH
 70
     0
  9
$DIMTOH
 70
     0
  9
$DIMSE1
 70
     0
  9
$DIMSE2
 70
     0
  9
$DIMTAD
 70
     1
  9
$DIMZIN
 70
     8
  9
$DIMBLK
  1

  9
$DIMASO
 70
     1
  9
$DIMSHO
 70
     1
  9
$DIMPOST
  1

  9
$DIMAPOST
  1

  9
$DIMALT
 70
     0
  9
$DIMALTD
 70
     3
  9
$DIMALTF
 40
0.03937007874016
  9
$DIMLFAC
 40
1.0
  9
$DIMTOFL
 70
     1
  9
$DIMTVP
 40
0.0
  9
$DIMTIX
 70
     0
  9
$DIMSOXD
 70
     0
  9
$DIMSAH
 70
     0
  9
$DIMBLK1
  1

  9
$DIMBLK2
  1

  9
$DIMSTYLE
  2
ISO-25
  9
$DIMCLRD
 70
     0
  9
$DIMCLRE
 70
     0
  9
$DIMCLRT
 70
     0
  9
$DIMTFAC
 40
1.0
  9
$DIMGAP
 40
0.625
  9
$DIMJUST
 70
     0
  9
$DIMSD1
 70
     0
  9
$DIMSD2
 70
     0
  9
$DIMTOLJ
 70
     0
  9
$DIMTZIN
 70
     8
  9
$DIMALTZ
 70
     0
  9
$DIMALTTZ
 70
     0
  9
$DIMUPT
 70
     0
  9
$DIMDEC
 70
     2
  9
$DIMTDEC
 70
     2
  9
$DIMALTU
 70
     2
  9
$DIMALTTD
 70
     3
  9
$DIMTXSTY
  7
Standard
  9
$DIMAUNIT
 70
     0
  9
$DIMADEC
 70
     0
  9
$DIMALTRND
 40
0.0
  9
$DIMAZIN
 70
     0
  9
$DIMDSEP
 70
    44
  9
$DIMATFIT
 70
     3
  9
$DIMFRAC
 70
     0
  9
$DIMLDRBLK
  1

  9
$DIMLUNIT
 70
     2
  9
$DIMLWD
 70
    -2
  9
$DIMLWE
 70
    -2
  9
$DIMTMOVE
 70
     0
  9
$LUNITS
 70
     2
  9
$LUPREC
 70
     4
  9
$SKETCHINC
 40
1.0
  9
$FILLETRAD
 40
0.0
  9
$AUNITS
 70
     0
  9
$AUPREC
 70
     0
  9
$MENU
  1
.
  9
$ELEVATION
 40
0.0
  9
$PELEVATION
 40
0.0
  9
$THICKNESS
 40
0.0
  9
$LIMCHECK
 70
     0
  9
$CHAMFERA
 40
0.0
  9
$CHAMFERB
 40
0.0
  9
$CHAMFERC
 40
0.0
  9
$CHAMFERD
 40
0.0
  9
$SKPOLY
 70
     0
  9
$TDCREATE
 40
2455505.725807523
  9
$TDUCREATE
 40
2455505.392474190
  9
$TDUPDATE
 40
2457095.666327211
  9
$TDUUPDATE
 40
2457095.332993877
  9
$TDINDWG
 40
0.0503569676
  9
$TDUSRTIMER
 40
0.0503564352
  9
$USRTIMER
 70
     1
  9
$ANGBASE
 50
0.0
  9
$ANGDIR
 70
     0
  9
$PDMODE
 70
     0
  9
$PDSIZE
 40
0.0
  9
$PLINEWID
 40
0.0
  9
$SPLFRAME
 70
     0
  9
$SPLINETYPE
 70
     6
  9
$SPLINESEGS
 70
     8
  9
$HANDSEED
  5
2F5
  9
$SURFTAB1
 70
     6
  9
$SURFTAB2
 70
     6
  9
$SURFTYPE
 70
     6
  9
$SURFU
 70
     6
  9
$SURFV
 70
     6
  9
$UCSBASE
  2

  9
$UCSNAME
  2

  9
$UCSORG
 10
0.0
 20
0.0
 30
0.0
  9
$UCSXDIR
 10
1.0
 20
0.0
 30
0.0
  9
$UCSYDIR
 10
0.0
 20
1.0
 30
0.0
  9
$UCSORTHOREF
  2

  9
$UCSORTHOVIEW
 70
     0
  9
$UCSORGTOP
 10
0.0
 20
0.0
 30
0.0
  9
$UCSORGBOTTOM
 10
0.0
 20
0.0
 30
0.0
  9
$UCSORGLEFT
 10
0.0
 20
0.0
 30
0.0
  9
$UCSORGRIGHT
 10
0.0
 20
0.0
 30
0.0
  9
$UCSORGFRONT
 10
0.0
 20
0.0
 30
0.0
  9
$UCSORGBACK
 10
0.0
 20
0.0
 30
0.0
  9
$PUCSBASE
  2

  9
$PUCSNAME
  2

  9
$PUCSORG
 10
0.0
 20
0.0
 30
0.0
  9
$PUCSXDIR
 10
1.0
 20
0.0
 30
0.0
  9
$PUCSYDIR
 10
0.0
 20
1.0
 30
0.0
  9
$PUCSORTHOREF
  2

  9
$PUCSORTHOVIEW
 70
     0
  9
$PUCSORGTOP
 10
0.0
 20
0.0
 30
0.0
  9
$PUCSORGBOTTOM
 10
0.0
 20
0.0
 30
0.0
  9
$PUCSORGLEFT
 10
0.0
 20
0.0
 30
0.0
  9
$PUCSORGRIGHT
 10
0.0
 20
0.0
 30
0.0
  9
$PUCSORGFRONT
 10
0.0
 20
0.0
 30
0.0
  9
$PUCSORGBACK
 10
0.0
 20
0.0
 30
0.0
  9
$USERI1
 70
     0
  9
$USERI2
 70
     0
  9
$USERI3
 70
     0
  9
$USERI4
 70
     0
  9
$USERI5
 70
     0
  9
$USERR1
 40
0.0
  9
$USERR2
 40
0.0
  9
$USERR3
 40
0.0
  9
$USERR4
 40
0.0
  9
$USERR5
 40
0.0
  9
$WORLDVIEW
 70
     1
  9
$SHADEDGE
 70
     3
  9
$SHADEDIF
 70
    70
  9
$TILEMODE
 70
     1
  9
$MAXACTVP
 70
    64
  9
$PINSBASE
 10
0.0
 20
0.0
 30
0.0
  9
$PLIMCHECK
 70
     0
  9
$PEXTMIN
 10
0.0
 20
0.0
 30
0.0
  9
$PEXTMAX
 10
0.0
 20
0.0
 30
0.0
  9
$PLIMMIN
 10
0.0
 20
0.0
  9
$PLIMMAX
 10
12.0
 20
9.0
  9
$UNITMODE
 70
     0
  9
$VISRETAIN
 70
     1
  9
$PLINEGEN
 70
     0
  9
$PSLTSCALE
 70
     1
  9
$TREEDEPTH
 70
  3020
  9
$CMLSTYLE
  2
Standard
  9
$CMLJUST
 70
     0
  9
$CMLSCALE
 40
20.0
  9
$PROXYGRAPHICS
 70
     1
  9
$MEASUREMENT
 70
     1
  9
$CELWEIGHT
370
    -1
  9
$ENDCAPS
280
     0
  9
$JOINSTYLE
280
     0
  9
$LWDISPLAY
290
     0
  9
$INSUNITS
 70
     4
  9
$HYPERLINKBASE
  1

  9
$STYLESHEET
  1

  9
$XEDIT
290
     1
  9
$CEPSNTYPE
380
     0
  9
$PSTYLEMODE
290
     1
  9
$FINGERPRINTGUID
  2
{FDEAD578-A652-11D2-9A35-0060089B3A3F}
  9
$VERSIONGUID
  2
{9B93623E-9CE8-4C8A-897F-17AD85842EEE}
  9
$EXTNAMES
290
     1
  9
$PSVPSCALE
 40
0.0
  9
$OLESTARTUP
290
     0
  0
ENDSEC
  0
SECTION
  2
CLASSES
  0
CLASS
  1
ACDBDICTIONARYWDFLT
  2
AcDbDictionaryWithDefault
  3
ObjectDBX Classes
 90
        0
280
     0
281
     0
  0
CLASS
  1
ACDBPLACEHOLDER
  2
AcDbPlaceHolder
  3
ObjectDBX Classes
 90
        0
280
     0
281
     0
  0
CLASS
  1
LAYOUT
  2
AcDbLayout
  3
ObjectDBX Classes
 90
        0
280
     0
281
     0
  0
CLASS
  1
DICTIONARYVAR
  2
AcDbDictionaryVar
  3
ObjectDBX Classes
 90
        0
280
     0
281
     0
  0
ENDSEC
  0
SECTION
  2
TABLES
  0
TABLE
  2
VPORT
  5
8
330
0
100
AcDbSymbolTable
 70
     4
  0
VPORT
  5
2EB
330
8
100
AcDbSymbolTableRecord
100
AcDbViewportTableRecord
  2
*Active
 70
     0
 10
0.0
 20
0.0
 11
1.0
 21
1.0
 12
642.3277700754083
 22
496.8760312796108
 13
0.0
 23
0.0
 14
10.0
 24
10.0
 15
10.0
 25
10.0
 16
0.0
 26
0.0
 36
1.0
 17
0.0
 27
0.0
 37
0.0
 40
1226.980314330864
 41
1.68860353130016
 42
50.0
 43
0.0
 44
0.0
 50
0.0
 51
0.0
 71
     0
 72
  1000
 73
     1
 74
     3
 75
     0
 76
     0
 77
     0
 78
     0
281
     0
 65
     1
110
0.0
120
0.0
130
0.0
111
1.0
121
0.0
131
0.0
112
0.0
122
1.0
132
0.0
 79
     0
146
0.0
  0
ENDTAB
  0
TABLE
  2
LTYPE
  5
5
330
0
100
AcDbSymbolTable
 70
     1
  0
LTYPE
  5
14
330
5
100
AcDbSymbolTableRecord
100
AcDbLinetypeTableRecord
  2
ByBlock
 70
     0
  3

 72
    65
 73
     0
 40
0.0
  0
LTYPE
  5
15
330
5
100
AcDbSymbolTableRecord
100
AcDbLinetypeTableRecord
  2
ByLayer
 70
     0
  3

 72
    65
 73
     0
 40
0.0
  0
LTYPE
  5
16
330
5
100
AcDbSymbolTableRecord
100
AcDbLinetypeTableRecord
  2
Continuous
 70
     0
  3
Solid line
 72
    65
 73
     0
 40
0.0
  0
ENDTAB
  0
TABLE
  2
LAYER
  5
2
330
0
100
AcDbSymbolTable
 70
     4
  0
LAYER
  5
10
330
2
100
AcDbSymbolTableRecord
100
AcDbLayerTableRecord
  2
0
 70
     0
 62
     2
  6
Continuous
370
    -3
390
F
  0
LAYER
  5
94
330
2
100
AcDbSymbolTableRecord
100
AcDbLayerTableRecord
  2
1
 70
     0
 62
     1
  6
Continuous
370
    -3
390
F
  0
LAYER
  5
95
330
2
100
AcDbSymbolTableRecord
100
AcDbLayerTableRecord
  2
2
 70
     0
 62
     7
  6
Continuous
370
    -3
390
F
  0
LAYER
  5
10E
330
2
100
AcDbSymbolTableRecord
100
AcDbLayerTableRecord
  2
3
 70
     0
 62
     7
  6
Continuous
370
    -3
390
F
  0
ENDTAB
  0
TABLE
  2
STYLE
  5
3
330
0
100
AcDbSymbolTable
 70
     1
  0
STYLE
  5
11
330
3
100
AcDbSymbolTableRecord
100
AcDbTextStyleTableRecord
  2
Standard
 70
     0
 40
0.0
 41
1.0
 50
0.0
 71
     0
 42
2.5
  3
txt
  4

  0
ENDTAB
  0
TABLE
  2
VIEW
  5
6
330
0
100
AcDbSymbolTable
 70
     0
  0
ENDTAB
  0
TABLE
  2
UCS
  5
7
330
0
100
AcDbSymbolTable
 70
     0
  0
ENDTAB
  0
TABLE
  2
APPID
  5
9
330
0
100
AcDbSymbolTable
 70
     1
  0
APPID
  5
12
330
9
100
AcDbSymbolTableRecord
100
AcDbRegAppTableRecord
  2
ACAD
 70
     0
  0
ENDTAB
  0
TABLE
  2
DIMSTYLE
  5
A
330
0
100
AcDbSymbolTable
 70
     1
100
AcDbDimStyleTable
 71
     0
  0
DIMSTYLE
105
27
330
A
100
AcDbSymbolTableRecord
100
AcDbDimStyleTableRecord
  2
ISO-25
 70
     0
 41
2.5
 42
0.625
 43
3.75
 44
1.25
 73
     0
 74
     0
 77
     1
 78
     8
140
2.5
141
2.5
143
0.03937007874016
147
0.625
171
     3
172
     1
271
     2
272
     2
274
     3
278
    44
283
     0
284
     8
340
11
  0
ENDTAB
  0
TABLE
  2
BLOCK_RECORD
  5
1
330
0
100
AcDbSymbolTable
 70
     1
  0
BLOCK_RECORD
  5
1F
330
1
100
AcDbSymbolTableRecord
100
AcDbBlockTableRecord
  2
*Model_Space
340
22
  0
BLOCK_RECORD
  5
50
330
1
100
AcDbSymbolTableRecord
100
AcDbBlockTableRecord
  2
*Paper_Space
340
51
  0
BLOCK_RECORD
  5
55
330
1
100
AcDbSymbolTableRecord
100
AcDbBlockTableRecord
  2
*Paper_Space0
340
56
  0
ENDTAB
  0
ENDSEC
  0
SECTION
  2
BLOCKS
  0
BLOCK
  5
20
330
1F
100
AcDbEntity
  8
0
100
AcDbBlockBegin
  2
*Model_Space
 70
     0
 10
0.0
 20
0.0
 30
0.0
  3
*Model_Space
  1

  0
ENDBLK
  5
21
330
1F
100
AcDbEntity
  8
0
100
AcDbBlockEnd
  0
BLOCK
  5
52
330
50
100
AcDbEntity
 67
     1
  8
0
100
AcDbBlockBegin
  2
*Paper_Space
 70
     0
 10
0.0
 20
0.0
 30
0.0
  3
*Paper_Space
  1

  0
ENDBLK
  5
53
330
50
100
AcDbEntity
 67
     1
  8
0
100
AcDbBlockEnd
  0
BLOCK
  5
57
330
55
100
AcDbEntity
  8
0
100
AcDbBlockBegin
  2
*Paper_Space0
 70
     0
 10
0.0
 20
0.0
 30
0.0
  3
*Paper_Space0
  1

  0
ENDBLK
  5
58
330
55
100
AcDbEntity
  8
0
100
AcDbBlockEnd
  0
ENDSEC
  0
SECTION
  2
ENTITIES
  0
ARC
  5
293
330
1F
100
AcDbEntity
  8
3
100
AcDbCircle
 10
522.049938958106
 20
598.4840597936938
 30
0.0
 40
10.5
100
AcDbArc
 50
99.7549907390017
 51
180.0
  0
ARC
  5
294
330
1F
100
AcDbEntity
  8
3
100
AcDbCircle
 10
477.9499389581061
 20
598.4840597936938
 30
0.0
 40
10.5
100
AcDbArc
 50
0.0
 51
80.24500926099827
  0
ARC
  5
295
330
1F
100
AcDbEntity
  8
3
100
AcDbCircle
 10
499.9999389581061
 20
726.7405645337693
 30
0.0
 40
119.6381324138065
100
AcDbArc
 50
133.4777956059479
 51
260.2450092609983
  0
LINE
  5
296
330
1F
100
AcDbEntity
  8
3
100
AcDbLine
 10
582.3197570031971
 20
813.5549083053328
 30
0.0
 11
582.3197570031971
 21
839.4898343907339
 31
0.0
  0
LINE
  5
297
330
1F
100
AcDbEntity
  8
3
100
AcDbLine
 10
417.6801209130152
 20
839.4898343907339
 30
0.0
 11
582.3197570031971
 21
839.4898343907339
 31
0.0
  0
LINE
  5
298
330
1F
100
AcDbEntity
  8
3
100
AcDbLine
 10
417.6801209130152
 20
813.5549083053328
 30
0.0
 11
417.6801209130152
 21
839.4898343907339
 31
0.0
  0
ARC
  5
299
330
1F
100
AcDbEntity
  8
3
100
AcDbCircle
 10
499.9999389581061
 20
726.7405645337693
 30
0.0
 40
119.6381324138065
100
AcDbArc
 50
279.7549907390017
 51
46.52220439405208
  0
LINE
  5
29A
330
1F
100
AcDbEntity
  8
3
100
AcDbLine
 10
488.4499389581061
 20
306.4390028036104
 30
0.0
 11
511.5499389581061
 21
306.4390028036104
 31
0.0
  0
LINE
  5
29B
330
1F
100
AcDbEntity
  8
3
100
AcDbLine
 10
511.5499389581061
 20
598.4840597936938
 30
0.0
 11
511.5499389581061
 21
555.7868840752998
 31
0.0
  0
LINE
  5
29C
330
1F
100
AcDbEntity
  8
3
100
AcDbLine
 10
488.4499389581061
 20
598.4840597936938
 30
0.0
 11
488.4499389580985
 21
555.7868840752998
 31
0.0
  0
LWPOLYLINE
  5
29D
330
1F
100
AcDbEntity
  8
0
 62
     2
100
AcDbPolyline
 90
        4
 70
     1
 43
0.0
 10
-0.0000610418937868
 20
0.0000014887773432
 10
999.9999389581059
 20
0.0000014887773432
 10
999.9999389581059
 20
1000.000001488777
 10
-0.0000610418937868
 20
1000.000001488777
  0
LINE
  5
29E
330
1F
100
AcDbEntity
  8
1
 62
     1
100
AcDbLine
 10
337.2833964709832
 20
33.58300912498862
 30
0.0
 11
665.1030768361145
 21
33.58300912498862
 31
0.0
  0
LINE
  5
29F
330
1F
100
AcDbEntity
  8
1
 62
     1
100
AcDbLine
 10
665.1030768361144
 20
33.58300912498862
 30
0.0
 11
665.1030768361145
 21
965.270390072383
 31
0.0
  0
LINE
  5
2A0
330
1F
100
AcDbEntity
  8
1
 62
     1
100
AcDbLine
 10
665.1030768361145
 20
965.270390072383
 30
0.0
 11
337.2833964709832
 21
965.270390072383
 31
0.0
  0
LINE
  5
2A1
330
1F
100
AcDbEntity
  8
1
 62
     1
100
AcDbLine
 10
337.2833964709832
 20
965.270390072383
 30
0.0
 11
337.2833964709832
 21
33.58300912498862
 31
0.0
  0
LINE
  5
2A2
330
1F
100
AcDbEntity
  8
3
100
AcDbLine
 10
438.0705080370447
 20
839.4898343907339
 30
0.0
 11
438.0705080370447
 21
873.9851637587397
 31
0.0
  0
LINE
  5
2A3
330
1F
100
AcDbEntity
  8
3
100
AcDbLine
 10
561.9293698791676
 20
839.4898343907339
 30
0.0
 11
561.9293698791676
 21
873.9851637587397
 31
0.0
  0
ELLIPSE
  5
2A4
330
1F
100
AcDbEntity
  8
3
100
AcDbEllipse
 10
499.9999389581061
 20
873.9851637587397
 30
0.0
 11
61.92943092106143
 21
0.0
 31
0.0
210
0.0
220
0.0
230
1.0
 40
0.1479682026585976
 41
0.0
 42
6.283185307179584
  0
ARC
  5
2A5
330
1F
100
AcDbEntity
  8
3
100
AcDbCircle
 10
499.9999389581061
 20
903.1868675610461
 30
0.0
 40
38.36529038736052
100
AcDbArc
 50
326.1945782510961
 51
213.805421748904
  0
SPLINE
  5
2A6
330
1F
100
AcDbEntity
  8
3
100
AcDbSpline
210
0.0
220
0.0
230
1.0
 70
     8
 71
     3
 72
    46
 73
    42
 74
     0
 42
0.0000000001
 43
0.0000000001
 40
1.525090762727385
 40
1.525090762727385
 40
1.525090762727385
 40
1.525090762727385
 40
1.71879527355728
 40
1.71879527355728
 40
2.106204295217064
 40
2.106204295217064
 40
2.370393052692663
 40
2.370393052692663
 40
2.577122075719204
 40
2.577122075719204
 40
2.732076641731488
 40
2.732076641731488
 40
2.853643365543683
 40
2.853643365543683
 40
2.950342146257241
 40
2.950342146257241
 40
3.027299882435419
 40
3.027299882435419
 40
3.104257618613595
 40
3.104257618613595
 40
3.181215354791774
 40
3.181215354791774
 40
3.258173090969951
 40
3.258173090969951
 40
3.335130827148128
 40
3.335130827148128
 40
3.412088563326304
 40
3.412088563326304
 40
3.489046299504482
 40
3.489046299504482
 40
3.653433003137097
 40
3.653433003137097
 40
3.817819706769716
 40
3.817819706769716
 40
3.982206410402331
 40
3.982206410402331
 40
4.326691184457596
 40
4.326691184457596
 40
4.67117595851286
 40
4.67117595851286
 40
4.758094430449371
 40
4.758094430449371
 40
4.758094430449371
 40
4.758094430449371
 10
507.3375732540563
 20
883.0962917685328
 30
0.0
 10
507.3503853746585
 20
884.3781215815598
 30
0.0
 10
507.3360014505546
 20
885.6650484325834
 30
0.0
 10
507.2118233478977
 20
889.4762862803835
 30
0.0
 10
507.0207096668978
 20
891.9482939866124
 30
0.0
 10
506.5306035997789
 20
895.7288425540172
 30
0.0
 10
506.2859232487489
 20
897.1572902440716
 30
0.0
 10
505.7676025205233
 20
899.4626243117368
 30
0.0
 10
505.5126450500297
 20
900.3916328030356
 30
0.0
 10
505.0010946723442
 20
901.8737946486462
 30
0.0
 10
504.7617204813529
 20
902.4629601686534
 30
0.0
 10
504.2636742657152
 20
903.4521626975019
 30
0.0
 10
504.0210053364649
 20
903.8663699339419
 30
0.0
 10
503.4898198122332
 20
904.5862714802458
 30
0.0
 10
503.2204909754684
 20
904.8982703737198
 30
0.0
 10
502.6192516689553
 20
905.4309432717078
 30
0.0
 10
502.3096292267307
 20
905.6577469177966
 30
0.0
 10
501.5760813712588
 20
906.0430601692686
 30
0.0
 10
501.1491949924499
 20
906.1994953571248
 30
0.0
 10
500.2250315500984
 20
906.3574515724141
 30
0.0
 10
499.7318708585382
 20
906.354715857136
 30
0.0
 10
498.8114029543615
 20
906.1877410804278
 30
0.0
 10
498.3879388010164
 20
906.027908592662
 30
0.0
 10
497.660980759892
 20
905.638344234846
 30
0.0
 10
497.3544856308679
 20
905.4105231230568
 30
0.0
 10
496.8265735649747
 20
904.9370787388058
 30
0.0
 10
496.6038087415822
 20
904.6904851717988
 30
0.0
 10
496.2076800534314
 20
904.1878600532538
 30
0.0
 10
496.0343067877633
 20
903.9312286284506
 30
0.0
 10
495.5363000776757
 20
903.105972556483
 30
0.0
 10
495.2607886573812
 20
902.5126401227282
 30
0.0
 10
494.7612109676475
 20
901.2284250444622
 30
0.0
 10
494.5396712852718
 20
900.5376131515818
 30
0.0
 10
494.1342318470074
 20
899.0489061759236
 30
0.0
 10
493.9509525331429
 20
898.2513472875233
 30
0.0
 10
493.4377509315403
 20
895.6282392563894
 30
0.0
 10
493.1672504839132
 20
893.6311553446468
 30
0.0
 10
492.7889062642011
 20
889.3673691123796
 30
0.0
 10
492.6820129416752
 20
887.1029692626189
 30
0.0
 10
492.6562824107372
 20
884.2476776433075
 30
0.0
 10
492.6565653545672
 20
883.6714689752202
 30
0.0
 10
492.6623146405551
 20
883.0962903791055
 30
0.0
  0
ARC
  5
2A7
330
1F
100
AcDbEntity
  8
3
100
AcDbCircle
 10
499.9999389581061
 20
903.1868675610461
 30
0.0
 40
33.11529038736053
100
AcDbArc
 50
13.98655540162898
 51
84.14444591515296
  0
ARC
  5
2A8
330
1F
100
AcDbEntity
  8
3
100
AcDbCircle
 10
499.9999389581061
 20
903.1868675610461
 30
0.0
 40
33.11529038736053
100
AcDbArc
 50
213.805421748904
 51
213.805421748904
  0
ARC
  5
2A9
330
1F
100
AcDbEntity
  8
3
100
AcDbCircle
 10
499.9999389581061
 20
726.7405645337693
 30
0.0
 40
98.63813241380654
100
AcDbArc
 50
133.4777956059479
 51
164.347067499001
  0
LINE
  5
2AA
330
1F
100
AcDbEntity
  8
3
100
AcDbLine
 10
488.4499389581061
 20
59.29408604973833
 30
0.0
 11
511.5499389581061
 21
82.3940860497383
 31
0.0
  0
LINE
  5
2AB
330
1F
100
AcDbEntity
  8
3
100
AcDbLine
 10
488.4499389581061
 20
280.4858378312622
 30
0.0
 11
511.5499389581061
 21
280.4858378312622
 31
0.0
  0
LINE
  5
2AC
330
1F
100
AcDbEntity
  8
3
100
AcDbLine
 10
493.9363836051168
 20
256.3585446801593
 30
0.0
 11
511.5499389581061
 21
256.3585446801593
 31
0.0
  0
LINE
  5
2AD
330
1F
100
AcDbEntity
  8
3
100
AcDbLine
 10
488.4499389581061
 20
227.5914103266292
 30
0.0
 11
511.5499389581061
 21
227.5914103266369
 31
0.0
  0
LINE
  5
2AE
330
1F
100
AcDbEntity
  8
3
100
AcDbLine
 10
497.240085590632
 20
190.4677549152209
 30
0.0
 11
511.5499389581061
 21
190.4677549152209
 31
0.0
  0
LINE
  5
2AF
330
1F
100
AcDbEntity
  8
3
100
AcDbLine
 10
497.4380146035706
 20
383.9749425079015
 30
0.0
 11
511.5499389581061
 21
383.9749425079015
 31
0.0
  0
LINE
  5
2B0
330
1F
100
AcDbEntity
  8
3
100
AcDbLine
 10
488.4499389581061
 20
487.5393778298875
 30
0.0
 11
511.5499389581061
 21
487.5393778298875
 31
0.0
  0
LINE
  5
2B1
330
1F
100
AcDbEntity
  8
3
100
AcDbLine
 10
473.1155254498141
 20
555.7868840752998
 30
0.0
 11
557.7587632509981
 21
555.7868840752998
 31
0.0
  0
LINE
  5
2B2
330
1F
100
AcDbEntity
  8
3
100
AcDbLine
 10
473.1155254498141
 20
540.8552824621325
 30
0.0
 11
557.7587632509981
 21
537.3977583487728
 31
0.0
  0
LINE
  5
2B3
330
1F
100
AcDbEntity
  8
3
100
AcDbLine
 10
473.1155254498141
 20
555.7868840752998
 30
0.0
 11
473.1155254498141
 21
540.8552824621325
 31
0.0
  0
ARC
  5
2B4
330
1F
100
AcDbEntity
  8
3
100
AcDbCircle
 10
473.1155254498141
 20
548.32108326872
 30
0.0
 40
7.465800806582337
100
AcDbArc
 50
90.0
 51
270.0
  0
LINE
  5
2B5
330
1F
100
AcDbEntity
  8
3
100
AcDbLine
 10
549.0142423340423
 20
555.7868840752998
 30
0.0
 11
549.0142423340423
 21
537.7549563094795
 31
0.0
  0
ARC
  5
2B6
330
1F
100
AcDbEntity
  8
3
100
AcDbCircle
 10
557.7587632509981
 20
546.5923212120364
 30
0.0
 40
9.194562863265096
100
AcDbArc
 50
270.0
 51
90.0
  0
HATCH
  5
2B7
330
1F
100
AcDbEntity
  8
3
100
AcDbHatch
 10
0.0
 20
0.0
 30
0.0
210
0.0
220
0.0
230
1.0
  2
SOLID
 70
     1
 71
     0
 91
        1
 92
        7
 72
     1
 73
     1
 93
        4
 10
557.7587632509981
 20
555.7868840752998
 42
0.0
 10
549.0142423340424
 20
555.7868840752958
 42
0.0
 10
549.0142423340424
 20
537.7549563094755
 42
0.0
 10
557.7587632509981
 20
537.3977583487691
 42
1.0
 97
        0
 75
     0
 76
     1
 47
0.2349577570097936
 98
        1
 10
558.4767910887042
 20
547.1596748991286
  0
HATCH
  5
2B8
330
1F
100
AcDbEntity
  8
3
100
AcDbHatch
 10
0.0
 20
0.0
 30
0.0
210
0.0
220
0.0
230
1.0
  2
SOLID
 70
     1
 71
     0
 91
        1
 92
        7
 72
     1
 73
     1
 93
        2
 10
473.115525449814
 20
555.7868840752998
 42
1.0
 10
473.115525449814
 20
540.8552824621325
 42
0.0
 97
        0
 75
     0
 76
     1
 47
0.23246673366308
 98
        1
 10
471.152815250928
 20
548.7155644090051
  0
LINE
  5
2B9
330
1F
100
AcDbEntity
  8
3
100
AcDbLine
 10
511.5499389581061
 20
539.2853057582601
 30
0.0
 11
511.5499389581061
 21
82.39408604973068
 31
0.0
  0
LINE
  5
2BA
330
1F
100
AcDbEntity
  8
3
100
AcDbLine
 10
488.4499389580985
 20
540.2288992347661
 30
0.0
 11
488.4499389581061
 21
59.29408604973833
 31
0.0
  0
ENDSEC
  0
SECTION
  2
OBJECTS
  0
DICTIONARY
  5
C
330
0
100
AcDbDictionary
281
     1
  3
ACAD_COLOR
350
6B
  3
ACAD_GROUP
350
D
  3
ACAD_LAYOUT
350
1A
  3
ACAD_MATERIAL
350
6A
  3
ACAD_MLINESTYLE
350
17
  3
ACAD_PLOTSETTINGS
350
19
  3
ACAD_PLOTSTYLENAME
350
E
  3
ACDBHEADERROUNDTRIPXREC
350
2EC
  3
AcDbVariableDictionary
350
5E
  0
DICTIONARY
  5
6B
102
{ACAD_REACTORS
330
C
102
}
330
C
100
AcDbDictionary
281
     1
  0
DICTIONARY
  5
D
102
{ACAD_REACTORS
330
C
102
}
330
C
100
AcDbDictionary
281
     1
  0
DICTIONARY
  5
1A
102
{ACAD_REACTORS
330
C
102
}
330
C
100
AcDbDictionary
281
     1
  3
Layout1
350
51
  3
Layout2
350
56
  3
Model
350
22
  0
DICTIONARY
  5
6A
102
{ACAD_REACTORS
330
C
102
}
330
C
100
AcDbDictionary
281
     1
  0
DICTIONARY
  5
17
102
{ACAD_REACTORS
330
C
102
}
330
C
100
AcDbDictionary
281
     1
  3
Standard
350
18
  0
DICTIONARY
  5
19
102
{ACAD_REACTORS
330
C
102
}
330
C
100
AcDbDictionary
281
     1
  0
ACDBDICTIONARYWDFLT
  5
E
102
{ACAD_REACTORS
330
C
102
}
330
C
100
AcDbDictionary
281
     1
  3
Normal
350
F
100
AcDbDictionaryWithDefault
340
F
  0
DICTIONARY
  5
2EC
102
{ACAD_REACTORS
330
C
102
}
330
C
100
AcDbDictionary
281
     1
  3
COLORDICT
350
2EE
  3
MATERIALDICT
350
2ED
  0
DICTIONARY
  5
5E
102
{ACAD_REACTORS
330
C
102
}
330
C
100
AcDbDictionary
281
     1
  3
DIMASSOC
350
5F
  3
HIDETEXT
350
63
  3
PROJECTNAME
350
85
  0
LAYOUT
  5
51
102
{ACAD_XDICTIONARY
360
2F1
102
}
102
{ACAD_REACTORS
330
1A
102
}
330
1A
100
AcDbPlotSettings
  1

  2
None
  4

  6

 40
0.0
 41
0.0
 42
0.0
 43
0.0
 44
0.0
 45
0.0
 46
0.0
 47
0.0
 48
0.0
 49
0.0
140
0.0
141
0.0
142
1.0
143
1.0
 70
   688
 72
     0
 73
     0
 74
     5
  7

 75
    16
147
1.0
148
0.0
149
0.0
100
AcDbLayout
  1
Layout1
 70
     1
 71
     1
 10
0.0
 20
0.0
 11
12.0
 21
9.0
 12
0.0
 22
0.0
 32
0.0
 14
0.0
 24
0.0
 34
0.0
 15
0.0
 25
0.0
 35
0.0
146
0.0
 13
0.0
 23
0.0
 33
0.0
 16
1.0
 26
0.0
 36
0.0
 17
0.0
 27
1.0
 37
0.0
 76
     0
330
50
  0
LAYOUT
  5
56
102
{ACAD_XDICTIONARY
360
2F3
102
}
102
{ACAD_REACTORS
330
1A
102
}
330
1A
100
AcDbPlotSettings
  1

  2
None
  4

  6

 40
0.0
 41
0.0
 42
0.0
 43
0.0
 44
0.0
 45
0.0
 46
0.0
 47
0.0
 48
0.0
 49
0.0
140
0.0
141
0.0
142
1.0
143
1.0
 70
   688
 72
     0
 73
     0
 74
     5
  7

 75
    16
147
1.0
148
0.0
149
0.0
100
AcDbLayout
  1
Layout2
 70
     1
 71
     2
 10
0.0
 20
0.0
 11
12.0
 21
9.0
 12
0.0
 22
0.0
 32
0.0
 14
0.0
 24
0.0
 34
0.0
 15
0.0
 25
0.0
 35
0.0
146
0.0
 13
0.0
 23
0.0
 33
0.0
 16
1.0
 26
0.0
 36
0.0
 17
0.0
 27
1.0
 37
0.0
 76
     0
330
55
  0
LAYOUT
  5
22
102
{ACAD_XDICTIONARY
360
2EF
102
}
102
{ACAD_REACTORS
330
1A
102
}
330
1A
100
AcDbPlotSettings
  1

  2
none_device
  4
ANSI_A_(8.50_x_11.00_Inches)
  6

 40
6.349999904632567
 41
19.04999923706055
 42
6.350006103515625
 43
19.04998779296875
 44
215.8999938964844
 45
279.3999938964844
 46
0.0
 47
0.0
 48
0.0
 49
0.0
140
0.0
141
0.0
142
1.0
143
78.436453180766
 70
 11952
 72
     0
 73
     1
 74
     0
  7

 75
     0
147
0.0127491741332998
148
0.0
149
0.0
100
AcDbLayout
  1
Model
 70
     1
 71
     0
 10
0.0
 20
0.0
 11
12.0
 21
9.0
 12
0.0
 22
0.0
 32
0.0
 14
0.0
 24
0.0
 34
0.0
 15
0.0
 25
0.0
 35
0.0
146
0.0
 13
0.0
 23
0.0
 33
0.0
 16
1.0
 26
0.0
 36
0.0
 17
0.0
 27
1.0
 37
0.0
 76
     0
330
1F
  0
MLINESTYLE
  5
18
102
{ACAD_REACTORS
330
17
102
}
330
17
100
AcDbMlineStyle
  2
STANDARD
 70
     0
  3

 62
   256
 51
90.0
 52
90.0
 71
     2
 49
0.5
 62
   256
  6
BYLAYER
 49
-0.5
 62
   256
  6
BYLAYER
  0
ACDBPLACEHOLDER
  5
F
102
{ACAD_REACTORS
330
E
102
}
330
E
  0
XRECORD
  5
2EE
102
{ACAD_REACTORS
330
2EC
102
}
330
2EC
100
AcDbXrecord
280
     1
340
6B
  0
XRECORD
  5
2ED
102
{ACAD_REACTORS
330
2EC
102
}
330
2EC
100
AcDbXrecord
280
     1
340
6A
  0
DICTIONARYVAR
  5
5F
102
{ACAD_REACTORS
330
5E
102
}
330
5E
100
DictionaryVariables
280
     0
  1
2
  0
DICTIONARYVAR
  5
63
102
{ACAD_REACTORS
330
5E
102
}
330
5E
100
DictionaryVariables
280
     0
  1
1
  0
DICTIONARYVAR
  5
85
102
{ACAD_REACTORS
330
5E
102
}
330
5E
100
DictionaryVariables
280
     0
  1

  0
DICTIONARY
  5
2F1
330
51
100
AcDbDictionary
280
     1
281
     1
  3
ACAD_XREC_ROUNDTRIP
360
2F2
  0
DICTIONARY
  5
2F3
330
56
100
AcDbDictionary
280
     1
281
     1
  3
ACAD_XREC_ROUNDTRIP
360
2F4
  0
DICTIONARY
  5
2EF
330
22
100
AcDbDictionary
280
     1
281
     1
  3
ACAD_XREC_ROUNDTRIP
360
2F0
  0
XRECORD
  5
2F2
102
{ACAD_REACTORS
330
2F1
102
}
330
2F1
100
AcDbXrecord
280
     1
102
SHADEPLOT
 70
     0
102
SHADEPLOTRESLEVEL
 70
     2
102
SHADEPLOTCUSTOMDPI
 70
   300
  0
XRECORD
  5
2F4
102
{ACAD_REACTORS
330
2F3
102
}
330
2F3
100
AcDbXrecord
280
     1
102
SHADEPLOT
 70
     0
102
SHADEPLOTRESLEVEL
 70
     2
102
SHADEPLOTCUSTOMDPI
 70
   300
  0
XRECORD
  5
2F0
102
{ACAD_REACTORS
330
2EF
102
}
330
2EF
100
AcDbXrecord
280
     1
102
SHADEPLOT
 70
     0
102
SHADEPLOTRESLEVEL
 70
     2
102
SHADEPLOTCUSTOMDPI
 70
   300
  0
ENDSEC
  0
EOF
