  0
SECTION
  2
HEADER
  9
$ACADVER
  1
AC1015
  9
$ACADMAINTVER
 70
    20
  9
$DWGCODEPAGE
  3
ANSI_936
  9
$INSBASE
 10
0.0
 20
0.0
 30
0.0
  9
$EXTMIN
 10
-0.0000916922144825
 20
0.0000014887773432
 30
0.0
  9
$EXTMAX
 10
999.9999083077851
 20
1000.000001488777
 30
0.0
  9
$LIMMIN
 10
0.0
 20
0.0
  9
$LIMMAX
 10
420.0
 20
297.0
  9
$ORTHOMODE
 70
     0
  9
$REGENMODE
 70
     1
  9
$FILLMODE
 70
     1
  9
$QTEXTMODE
 70
     0
  9
$MIRRTEXT
 70
     0
  9
$LTSCALE
 40
1.0
  9
$ATTMODE
 70
     1
  9
$TEXTSIZE
 40
2.5
  9
$TRACEWID
 40
1.0
  9
$TEXTSTYLE
  7
Standard
  9
$CLAYER
  8
2
  9
$CELTYPE
  6
ByLayer
  9
$CECOLOR
 62
   256
  9
$CELTSCALE
 40
1.0
  9
$DISPSILH
 70
     0
  9
$DIMSCALE
 40
1.0
  9
$DIMASZ
 40
2.5
  9
$DIMEXO
 40
0.625
  9
$DIMDLI
 40
3.75
  9
$DIMRND
 40
0.0
  9
$DIMDLE
 40
0.0
  9
$DIMEXE
 40
1.25
  9
$DIMTP
 40
0.0
  9
$DIMTM
 40
0.0
  9
$DIMTXT
 40
2.5
  9
$DIMCEN
 40
2.5
  9
$DIMTSZ
 40
0.0
  9
$DIMTOL
 70
     0
  9
$DIMLIM
 70
     0
  9
$DIMTIH
 70
     0
  9
$DIMTOH
 70
     0
  9
$DIMSE1
 70
     0
  9
$DIMSE2
 70
     0
  9
$DIMTAD
 70
     1
  9
$DIMZIN
 70
     8
  9
$DIMBLK
  1

  9
$DIMASO
 70
     1
  9
$DIMSHO
 70
     1
  9
$DIMPOST
  1

  9
$DIMAPOST
  1

  9
$DIMALT
 70
     0
  9
$DIMALTD
 70
     3
  9
$DIMALTF
 40
0.03937007874016
  9
$DIMLFAC
 40
1.0
  9
$DIMTOFL
 70
     1
  9
$DIMTVP
 40
0.0
  9
$DIMTIX
 70
     0
  9
$DIMSOXD
 70
     0
  9
$DIMSAH
 70
     0
  9
$DIMBLK1
  1

  9
$DIMBLK2
  1

  9
$DIMSTYLE
  2
ISO-25
  9
$DIMCLRD
 70
     0
  9
$DIMCLRE
 70
     0
  9
$DIMCLRT
 70
     0
  9
$DIMTFAC
 40
1.0
  9
$DIMGAP
 40
0.625
  9
$DIMJUST
 70
     0
  9
$DIMSD1
 70
     0
  9
$DIMSD2
 70
     0
  9
$DIMTOLJ
 70
     0
  9
$DIMTZIN
 70
     8
  9
$DIMALTZ
 70
     0
  9
$DIMALTTZ
 70
     0
  9
$DIMUPT
 70
     0
  9
$DIMDEC
 70
     2
  9
$DIMTDEC
 70
     2
  9
$DIMALTU
 70
     2
  9
$DIMALTTD
 70
     3
  9
$DIMTXSTY
  7
Standard
  9
$DIMAUNIT
 70
     0
  9
$DIMADEC
 70
     0
  9
$DIMALTRND
 40
0.0
  9
$DIMAZIN
 70
     0
  9
$DIMDSEP
 70
    44
  9
$DIMATFIT
 70
     3
  9
$DIMFRAC
 70
     0
  9
$DIMLDRBLK
  1

  9
$DIMLUNIT
 70
     2
  9
$DIMLWD
 70
    -2
  9
$DIMLWE
 70
    -2
  9
$DIMTMOVE
 70
     0
  9
$LUNITS
 70
     2
  9
$LUPREC
 70
     4
  9
$SKETCHINC
 40
1.0
  9
$FILLETRAD
 40
0.0
  9
$AUNITS
 70
     0
  9
$AUPREC
 70
     0
  9
$MENU
  1
.
  9
$ELEVATION
 40
0.0
  9
$PELEVATION
 40
0.0
  9
$THICKNESS
 40
0.0
  9
$LIMCHECK
 70
     0
  9
$CHAMFERA
 40
0.0
  9
$CHAMFERB
 40
0.0
  9
$CHAMFERC
 40
0.0
  9
$CHAMFERD
 40
0.0
  9
$SKPOLY
 70
     0
  9
$TDCREATE
 40
2455505.725807523
  9
$TDUCREATE
 40
2455505.392474190
  9
$TDUPDATE
 40
2457095.664579896
  9
$TDUUPDATE
 40
2457095.331246562
  9
$TDINDWG
 40
0.0498594676
  9
$TDUSRTIMER
 40
0.0498591204
  9
$USRTIMER
 70
     1
  9
$ANGBASE
 50
0.0
  9
$ANGDIR
 70
     0
  9
$PDMODE
 70
     0
  9
$PDSIZE
 40
0.0
  9
$PLINEWID
 40
0.0
  9
$SPLFRAME
 70
     0
  9
$SPLINETYPE
 70
     6
  9
$SPLINESEGS
 70
     8
  9
$HANDSEED
  5
319
  9
$SURFTAB1
 70
     6
  9
$SURFTAB2
 70
     6
  9
$SURFTYPE
 70
     6
  9
$SURFU
 70
     6
  9
$SURFV
 70
     6
  9
$UCSBASE
  2

  9
$UCSNAME
  2

  9
$UCSORG
 10
0.0
 20
0.0
 30
0.0
  9
$UCSXDIR
 10
1.0
 20
0.0
 30
0.0
  9
$UCSYDIR
 10
0.0
 20
1.0
 30
0.0
  9
$UCSORTHOREF
  2

  9
$UCSORTHOVIEW
 70
     0
  9
$UCSORGTOP
 10
0.0
 20
0.0
 30
0.0
  9
$UCSORGBOTTOM
 10
0.0
 20
0.0
 30
0.0
  9
$UCSORGLEFT
 10
0.0
 20
0.0
 30
0.0
  9
$UCSORGRIGHT
 10
0.0
 20
0.0
 30
0.0
  9
$UCSORGFRONT
 10
0.0
 20
0.0
 30
0.0
  9
$UCSORGBACK
 10
0.0
 20
0.0
 30
0.0
  9
$PUCSBASE
  2

  9
$PUCSNAME
  2

  9
$PUCSORG
 10
0.0
 20
0.0
 30
0.0
  9
$PUCSXDIR
 10
1.0
 20
0.0
 30
0.0
  9
$PUCSYDIR
 10
0.0
 20
1.0
 30
0.0
  9
$PUCSORTHOREF
  2

  9
$PUCSORTHOVIEW
 70
     0
  9
$PUCSORGTOP
 10
0.0
 20
0.0
 30
0.0
  9
$PUCSORGBOTTOM
 10
0.0
 20
0.0
 30
0.0
  9
$PUCSORGLEFT
 10
0.0
 20
0.0
 30
0.0
  9
$PUCSORGRIGHT
 10
0.0
 20
0.0
 30
0.0
  9
$PUCSORGFRONT
 10
0.0
 20
0.0
 30
0.0
  9
$PUCSORGBACK
 10
0.0
 20
0.0
 30
0.0
  9
$USERI1
 70
     0
  9
$USERI2
 70
     0
  9
$USERI3
 70
     0
  9
$USERI4
 70
     0
  9
$USERI5
 70
     0
  9
$USERR1
 40
0.0
  9
$USERR2
 40
0.0
  9
$USERR3
 40
0.0
  9
$USERR4
 40
0.0
  9
$USERR5
 40
0.0
  9
$WORLDVIEW
 70
     1
  9
$SHADEDGE
 70
     3
  9
$SHADEDIF
 70
    70
  9
$TILEMODE
 70
     1
  9
$MAXACTVP
 70
    64
  9
$PINSBASE
 10
0.0
 20
0.0
 30
0.0
  9
$PLIMCHECK
 70
     0
  9
$PEXTMIN
 10
0.0
 20
0.0
 30
0.0
  9
$PEXTMAX
 10
0.0
 20
0.0
 30
0.0
  9
$PLIMMIN
 10
0.0
 20
0.0
  9
$PLIMMAX
 10
12.0
 20
9.0
  9
$UNITMODE
 70
     0
  9
$VISRETAIN
 70
     1
  9
$PLINEGEN
 70
     0
  9
$PSLTSCALE
 70
     1
  9
$TREEDEPTH
 70
  3020
  9
$CMLSTYLE
  2
Standard
  9
$CMLJUST
 70
     0
  9
$CMLSCALE
 40
20.0
  9
$PROXYGRAPHICS
 70
     1
  9
$MEASUREMENT
 70
     1
  9
$CELWEIGHT
370
    -1
  9
$ENDCAPS
280
     0
  9
$JOINSTYLE
280
     0
  9
$LWDISPLAY
290
     0
  9
$INSUNITS
 70
     4
  9
$HYPERLINKBASE
  1

  9
$STYLESHEET
  1

  9
$XEDIT
290
     1
  9
$CEPSNTYPE
380
     0
  9
$PSTYLEMODE
290
     1
  9
$FINGERPRINTGUID
  2
{FDEAD578-A652-11D2-9A35-0060089B3A3F}
  9
$VERSIONGUID
  2
{B9527D93-40F9-4DA7-90A7-2DBAF328BD15}
  9
$EXTNAMES
290
     1
  9
$PSVPSCALE
 40
0.0
  9
$OLESTARTUP
290
     0
  0
ENDSEC
  0
SECTION
  2
CLASSES
  0
CLASS
  1
ACDBDICTIONARYWDFLT
  2
AcDbDictionaryWithDefault
  3
ObjectDBX Classes
 90
        0
280
     0
281
     0
  0
CLASS
  1
ACDBPLACEHOLDER
  2
AcDbPlaceHolder
  3
ObjectDBX Classes
 90
        0
280
     0
281
     0
  0
CLASS
  1
LAYOUT
  2
AcDbLayout
  3
ObjectDBX Classes
 90
        0
280
     0
281
     0
  0
CLASS
  1
DICTIONARYVAR
  2
AcDbDictionaryVar
  3
ObjectDBX Classes
 90
        0
280
     0
281
     0
  0
ENDSEC
  0
SECTION
  2
TABLES
  0
TABLE
  2
VPORT
  5
8
330
0
100
AcDbSymbolTable
 70
     3
  0
VPORT
  5
30F
330
8
100
AcDbSymbolTableRecord
100
AcDbViewportTableRecord
  2
*Active
 70
     0
 10
0.0
 20
0.0
 11
1.0
 21
1.0
 12
523.0918954084899
 22
506.331282251461
 13
0.0
 23
0.0
 14
10.0
 24
10.0
 15
10.0
 25
10.0
 16
0.0
 26
0.0
 36
1.0
 17
0.0
 27
0.0
 37
0.0
 40
1335.722455660374
 41
1.68860353130016
 42
50.0
 43
0.0
 44
0.0
 50
0.0
 51
0.0
 71
     0
 72
  1000
 73
     1
 74
     3
 75
     0
 76
     0
 77
     0
 78
     0
281
     0
 65
     1
110
0.0
120
0.0
130
0.0
111
1.0
121
0.0
131
0.0
112
0.0
122
1.0
132
0.0
 79
     0
146
0.0
  0
ENDTAB
  0
TABLE
  2
LTYPE
  5
5
330
0
100
AcDbSymbolTable
 70
     1
  0
LTYPE
  5
14
330
5
100
AcDbSymbolTableRecord
100
AcDbLinetypeTableRecord
  2
ByBlock
 70
     0
  3

 72
    65
 73
     0
 40
0.0
  0
LTYPE
  5
15
330
5
100
AcDbSymbolTableRecord
100
AcDbLinetypeTableRecord
  2
ByLayer
 70
     0
  3

 72
    65
 73
     0
 40
0.0
  0
LTYPE
  5
16
330
5
100
AcDbSymbolTableRecord
100
AcDbLinetypeTableRecord
  2
Continuous
 70
     0
  3
Solid line
 72
    65
 73
     0
 40
0.0
  0
ENDTAB
  0
TABLE
  2
LAYER
  5
2
330
0
100
AcDbSymbolTable
 70
     4
  0
LAYER
  5
10
330
2
100
AcDbSymbolTableRecord
100
AcDbLayerTableRecord
  2
0
 70
     0
 62
     2
  6
Continuous
370
    -3
390
F
  0
LAYER
  5
94
330
2
100
AcDbSymbolTableRecord
100
AcDbLayerTableRecord
  2
1
 70
     0
 62
     1
  6
Continuous
370
    -3
390
F
  0
LAYER
  5
95
330
2
100
AcDbSymbolTableRecord
100
AcDbLayerTableRecord
  2
2
 70
     0
 62
     7
  6
Continuous
370
    -3
390
F
  0
LAYER
  5
10E
330
2
100
AcDbSymbolTableRecord
100
AcDbLayerTableRecord
  2
3
 70
     0
 62
     7
  6
Continuous
370
    -3
390
F
  0
ENDTAB
  0
TABLE
  2
STYLE
  5
3
330
0
100
AcDbSymbolTable
 70
     1
  0
STYLE
  5
11
330
3
100
AcDbSymbolTableRecord
100
AcDbTextStyleTableRecord
  2
Standard
 70
     0
 40
0.0
 41
1.0
 50
0.0
 71
     0
 42
2.5
  3
txt
  4

  0
ENDTAB
  0
TABLE
  2
VIEW
  5
6
330
0
100
AcDbSymbolTable
 70
     0
  0
ENDTAB
  0
TABLE
  2
UCS
  5
7
330
0
100
AcDbSymbolTable
 70
     0
  0
ENDTAB
  0
TABLE
  2
APPID
  5
9
330
0
100
AcDbSymbolTable
 70
     1
  0
APPID
  5
12
330
9
100
AcDbSymbolTableRecord
100
AcDbRegAppTableRecord
  2
ACAD
 70
     0
  0
ENDTAB
  0
TABLE
  2
DIMSTYLE
  5
A
330
0
100
AcDbSymbolTable
 70
     1
100
AcDbDimStyleTable
 71
     0
  0
DIMSTYLE
105
27
330
A
100
AcDbSymbolTableRecord
100
AcDbDimStyleTableRecord
  2
ISO-25
 70
     0
 41
2.5
 42
0.625
 43
3.75
 44
1.25
 73
     0
 74
     0
 77
     1
 78
     8
140
2.5
141
2.5
143
0.03937007874016
147
0.625
171
     3
172
     1
271
     2
272
     2
274
     3
278
    44
283
     0
284
     8
340
11
  0
ENDTAB
  0
TABLE
  2
BLOCK_RECORD
  5
1
330
0
100
AcDbSymbolTable
 70
     1
  0
BLOCK_RECORD
  5
1F
330
1
100
AcDbSymbolTableRecord
100
AcDbBlockTableRecord
  2
*Model_Space
340
22
  0
BLOCK_RECORD
  5
50
330
1
100
AcDbSymbolTableRecord
100
AcDbBlockTableRecord
  2
*Paper_Space
340
51
  0
BLOCK_RECORD
  5
55
330
1
100
AcDbSymbolTableRecord
100
AcDbBlockTableRecord
  2
*Paper_Space0
340
56
  0
ENDTAB
  0
ENDSEC
  0
SECTION
  2
BLOCKS
  0
BLOCK
  5
20
330
1F
100
AcDbEntity
  8
0
100
AcDbBlockBegin
  2
*Model_Space
 70
     0
 10
0.0
 20
0.0
 30
0.0
  3
*Model_Space
  1

  0
ENDBLK
  5
21
330
1F
100
AcDbEntity
  8
0
100
AcDbBlockEnd
  0
BLOCK
  5
52
330
50
100
AcDbEntity
 67
     1
  8
0
100
AcDbBlockBegin
  2
*Paper_Space
 70
     0
 10
0.0
 20
0.0
 30
0.0
  3
*Paper_Space
  1

  0
ENDBLK
  5
53
330
50
100
AcDbEntity
 67
     1
  8
0
100
AcDbBlockEnd
  0
BLOCK
  5
57
330
55
100
AcDbEntity
  8
0
100
AcDbBlockBegin
  2
*Paper_Space0
 70
     0
 10
0.0
 20
0.0
 30
0.0
  3
*Paper_Space0
  1

  0
ENDBLK
  5
58
330
55
100
AcDbEntity
  8
0
100
AcDbBlockEnd
  0
ENDSEC
  0
SECTION
  2
ENTITIES
  0
LINE
  5
2AA
330
1F
100
AcDbEntity
  8
3
100
AcDbLine
 10
244.1671209244857
 20
502.5974173060642
 30
0.0
 11
300.9690029250426
 21
502.5974173060642
 31
0.0
  0
LINE
  5
2AB
330
1F
100
AcDbEntity
  8
3
100
AcDbLine
 10
725.4880400261648
 20
510.5634252778584
 30
0.0
 11
757.3767707676814
 21
510.5634252778584
 31
0.0
  0
LINE
  5
2AC
330
1F
100
AcDbEntity
  8
3
100
AcDbLine
 10
702.567996259393
 20
460.7759519768604
 30
0.0
 11
750.4009934581624
 21
460.7759519768604
 31
0.0
  0
LINE
  5
2AD
330
1F
100
AcDbEntity
  8
3
100
AcDbLine
 10
743.4254139756871
 20
438.8695575921965
 30
0.0
 11
776.3107973768589
 21
438.8695575921965
 31
0.0
  0
LINE
  5
2AE
330
1F
100
AcDbEntity
  8
3
100
AcDbLine
 10
233.2053264574394
 20
408.9970532055625
 30
0.0
 11
262.1044948740075
 21
408.9970532055625
 31
0.0
  0
LINE
  5
2AF
330
1F
100
AcDbEntity
  8
3
100
AcDbLine
 10
245.1635757571318
 20
437.8737428268456
 30
0.0
 11
291.0036632906092
 21
437.8737428268456
 31
0.0
  0
LINE
  5
2B0
330
1F
100
AcDbEntity
  8
3
100
AcDbLine
 10
490.3664410334398
 20
100.0956190849483
 30
0.0
 11
545.3382250279201
 21
100.0956190849483
 31
0.0
  0
LINE
  5
2B1
330
1F
100
AcDbEntity
  8
3
100
AcDbLine
 10
415.517391072621
 20
137.542641560719
 30
0.0
 11
506.9831216213218
 21
137.542641560719
 31
0.0
  0
LINE
  5
2B2
330
1F
100
AcDbEntity
  8
3
100
AcDbLine
 10
567.6903073445004
 20
143.2042974346051
 30
0.0
 11
608.1617644932862
 21
143.2042974346051
 31
0.0
  0
LINE
  5
2B3
330
1F
100
AcDbEntity
  8
3
100
AcDbLine
 10
704.483951203602
 20
347.022174381395
 30
0.0
 11
748.1932436205299
 21
347.022174381395
 31
0.0
  0
LINE
  5
2B4
330
1F
100
AcDbEntity
  8
3
100
AcDbLine
 10
729.5763337666866
 20
260.4804636718927
 30
0.0
 11
751.4308810616289
 21
260.4804636718927
 31
0.0
  0
LINE
  5
2B5
330
1F
100
AcDbEntity
  8
3
100
AcDbLine
 10
702.865132483086
 20
296.8764730433877
 30
0.0
 11
757.0968454970231
 21
296.8764730433877
 31
0.0
  0
LINE
  5
2B6
330
1F
100
AcDbEntity
  8
3
100
AcDbLine
 10
679.391568640551
 20
226.5108345191376
 30
0.0
 11
706.9122781979646
 21
226.5108345191376
 31
0.0
  0
LINE
  5
2B7
330
1F
100
AcDbEntity
  8
3
100
AcDbLine
 10
666.4408210491789
 20
255.6276012042366
 30
0.0
 11
701.2463137625363
 21
255.6276012042366
 31
0.0
  0
LINE
  5
2B8
330
1F
100
AcDbEntity
  8
3
100
AcDbLine
 10
294.1028217992206
 20
185.2619626799863
 30
0.0
 11
317.5763856417557
 21
185.2619626799863
 31
0.0
  0
LINE
  5
2B9
330
1F
100
AcDbEntity
  8
3
100
AcDbLine
 10
332.1461497807204
 20
202.246726241276
 30
0.0
 11
366.1421342202985
 21
202.246726241276
 31
0.0
  0
LINE
  5
2BA
330
1F
100
AcDbEntity
  8
3
100
AcDbLine
 10
273.0577827780913
 20
232.9811817690777
 30
0.0
 11
319.1952043623051
 21
232.9811817690777
 31
0.0
  0
LINE
  5
2BB
330
1F
100
AcDbEntity
  8
3
100
AcDbLine
 10
296.5311487935498
 20
281.5092962945917
 30
0.0
 11
318.3858939155352
 21
281.5092962945917
 31
0.0
  0
LINE
  5
2BC
330
1F
100
AcDbEntity
  8
3
100
AcDbLine
 10
239.8711087852832
 20
287.9796435445316
 30
0.0
 11
269.8199475099492
 21
287.9796435445316
 31
0.0
  0
LINE
  5
2BD
330
1F
100
AcDbEntity
  8
3
100
AcDbLine
 10
253.4733008403927
 20
314.9975469573026
 30
0.0
 11
281.4361538464494
 21
314.9975469573026
 31
0.0
  0
LINE
  5
2BE
330
1F
100
AcDbEntity
  8
3
100
AcDbLine
 10
682.0088568685335
 20
887.4405424858789
 30
0.0
 11
686.8790909811094
 21
825.1005996012091
 31
0.0
  0
LINE
  5
2BF
330
1F
100
AcDbEntity
  8
3
100
AcDbLine
 10
682.0088568685251
 20
887.4405424858789
 30
0.0
 11
682.0088568685335
 21
935.1406819273053
 31
0.0
  0
LINE
  5
2C0
330
1F
100
AcDbEntity
  8
3
100
AcDbLine
 10
791.4361126292313
 20
887.4405424858789
 30
0.0
 11
786.5658785166549
 21
825.1005996012091
 31
0.0
  0
LINE
  5
2C1
330
1F
100
AcDbEntity
  8
3
100
AcDbLine
 10
682.0088568685335
 20
935.1406819273053
 30
0.0
 11
791.4361126292313
 21
935.1406819273053
 31
0.0
  0
LINE
  5
2C2
330
1F
100
AcDbEntity
  8
3
100
AcDbLine
 10
791.4361126292313
 20
887.4405424858705
 30
0.0
 11
791.4361126292313
 21
935.1406819273053
 31
0.0
  0
LINE
  5
2C3
330
1F
100
AcDbEntity
  8
3
100
AcDbLine
 10
686.8790909811094
 20
825.1005996012091
 30
0.0
 11
786.5658785166549
 21
825.1005996012091
 31
0.0
  0
LINE
  5
2C4
330
1F
100
AcDbEntity
  8
3
100
AcDbLine
 10
212.9472434267851
 20
825.1005996012175
 30
0.0
 11
312.6340309623307
 21
825.1005996012175
 31
0.0
  0
LINE
  5
2C5
330
1F
100
AcDbEntity
  8
3
100
AcDbLine
 10
317.5042650749069
 20
887.4405424858876
 30
0.0
 11
312.6340309623307
 21
825.1005996012175
 31
0.0
  0
LINE
  5
2C6
330
1F
100
AcDbEntity
  8
3
100
AcDbLine
 10
208.077009314209
 20
887.4405424858876
 30
0.0
 11
212.9472434267851
 21
825.1005996012175
 31
0.0
  0
LINE
  5
2C7
330
1F
100
AcDbEntity
  8
3
100
AcDbLine
 10
317.5042650749069
 20
887.4405424858789
 30
0.0
 11
317.5042650749069
 21
935.140681927322
 31
0.0
  0
LINE
  5
2C8
330
1F
100
AcDbEntity
  8
3
100
AcDbLine
 10
208.077009314209
 20
935.1406819273135
 30
0.0
 11
317.5042650749069
 21
935.140681927322
 31
0.0
  0
LINE
  5
2C9
330
1F
100
AcDbEntity
  8
3
100
AcDbLine
 10
208.0770093142007
 20
887.4405424858876
 30
0.0
 11
208.077009314209
 21
935.1406819273135
 31
0.0
  0
LWPOLYLINE
  5
2CA
330
1F
100
AcDbEntity
  8
0
 62
     2
100
AcDbPolyline
 90
        4
 70
     1
 43
0.0
 10
-0.0000916922144825
 20
0.0000014887773432
 10
999.9999083077851
 20
0.0000014887773432
 10
999.9999083077851
 20
1000.000001488777
 10
-0.0000916922144825
 20
1000.000001488777
  0
LINE
  5
2CB
330
1F
100
AcDbEntity
  8
1
 62
     1
100
AcDbLine
 10
118.9708992439907
 20
33.26547881191903
 30
0.0
 11
882.9536935713061
 21
33.26547881191903
 31
0.0
  0
LINE
  5
2CC
330
1F
100
AcDbEntity
  8
1
 62
     1
100
AcDbLine
 10
882.9536935713061
 20
33.26547881191903
 30
0.0
 11
882.9536935713061
 21
963.7726851099429
 31
0.0
  0
LINE
  5
2CD
330
1F
100
AcDbEntity
  8
1
 62
     1
100
AcDbLine
 10
882.9536935713061
 20
963.7726851099429
 30
0.0
 11
118.9708992439907
 21
963.7726851099426
 31
0.0
  0
LINE
  5
2CE
330
1F
100
AcDbEntity
  8
1
 62
     1
100
AcDbLine
 10
118.9708992439907
 20
963.7726851099426
 30
0.0
 11
118.9708992439907
 21
33.26547881191903
 31
0.0
  0
LINE
  5
2CF
330
1F
100
AcDbEntity
  8
3
100
AcDbLine
 10
208.0770093141923
 20
605.9985773705647
 30
0.0
 11
317.5042650748902
 21
605.9985773705647
 31
0.0
  0
LINE
  5
2D0
330
1F
100
AcDbEntity
  8
3
100
AcDbLine
 10
175.302009314209
 20
887.4405424858876
 30
0.0
 11
350.2792650749152
 21
887.4405424858789
 31
0.0
  0
ARC
  5
2D1
330
1F
100
AcDbEntity
  8
3
100
AcDbCircle
 10
175.302009314209
 20
854.6655424858874
 30
0.0
 40
32.775
100
AcDbArc
 50
0.0
 51
90.0
  0
ARC
  5
2D2
330
1F
100
AcDbEntity
  8
3
100
AcDbCircle
 10
350.2792650749069
 20
854.6655424858791
 30
0.0
 40
32.775
100
AcDbArc
 50
90.0
 51
180.0
  0
LINE
  5
2D3
330
1F
100
AcDbEntity
  8
3
100
AcDbLine
 10
208.077009314209
 20
781.4057437164152
 30
0.0
 11
208.077009314209
 21
854.6655424858874
 31
0.0
  0
LINE
  5
2D4
330
1F
100
AcDbEntity
  8
3
100
AcDbLine
 10
317.5042650749069
 20
357.3316122552503
 30
0.0
 11
317.5042650749069
 21
854.6655424858791
 31
0.0
  0
ARC
  5
2D5
330
1F
100
AcDbEntity
  8
3
100
AcDbCircle
 10
499.7565609717201
 20
357.3316122552503
 30
0.0
 40
182.2522958968175
100
AcDbArc
 50
180.0
 51
0.0
  0
LINE
  5
2D6
330
1F
100
AcDbEntity
  8
3
100
AcDbLine
 10
682.0088568685335
 20
357.3316122552503
 30
0.0
 11
682.0088568685335
 21
854.6655424858791
 31
0.0
  0
LINE
  5
2D7
330
1F
100
AcDbEntity
  8
3
100
AcDbLine
 10
791.4361126292313
 20
357.3316122552503
 30
0.0
 11
791.4361126292313
 21
753.645992737772
 31
0.0
  0
ARC
  5
2D8
330
1F
100
AcDbEntity
  8
3
100
AcDbCircle
 10
649.2338568685335
 20
854.6655424858791
 30
0.0
 40
32.775
100
AcDbArc
 50
0.0
 51
90.0
  0
ARC
  5
2D9
330
1F
100
AcDbEntity
  8
3
100
AcDbCircle
 10
824.2111126292313
 20
854.6655424858874
 30
0.0
 40
32.775
100
AcDbArc
 50
90.0
 51
180.0
  0
LINE
  5
2DA
330
1F
100
AcDbEntity
  8
3
100
AcDbLine
 10
824.2111126292313
 20
887.4405424858876
 30
0.0
 11
649.2338568685251
 21
887.4405424858789
 31
0.0
  0
LINE
  5
2DB
330
1F
100
AcDbEntity
  8
3
100
AcDbLine
 10
791.4361126292313
 20
605.9985773705647
 30
0.0
 11
682.0088568685335
 21
605.9985773705647
 31
0.0
  0
ARC
  5
2DC
330
1F
100
AcDbEntity
  8
3
100
AcDbCircle
 10
499.7565609717201
 20
357.3316122552503
 30
0.0
 40
291.6795516575153
100
AcDbArc
 50
180.0
 51
0.0
  0
LINE
  5
2DD
330
1F
100
AcDbEntity
  8
3
100
AcDbLine
 10
202.327009314209
 20
775.6557437164151
 30
0.0
 11
156.0120259969669
 21
775.6557437164151
 31
0.0
  0
LINE
  5
2DE
330
1F
100
AcDbEntity
  8
3
100
AcDbLine
 10
202.3270093142007
 20
759.3959927377802
 30
0.0
 11
156.0120259969669
 21
759.3959927377802
 31
0.0
  0
LINE
  5
2DF
330
1F
100
AcDbEntity
  8
3
100
AcDbLine
 10
156.0120259969669
 20
775.6557437164151
 30
0.0
 11
156.0120259969669
 21
759.3959927377802
 31
0.0
  0
ARC
  5
2E0
330
1F
100
AcDbEntity
  8
3
100
AcDbCircle
 10
202.327009314209
 20
781.4057437164152
 30
0.0
 40
5.75
100
AcDbArc
 50
270.0
 51
0.0
  0
LINE
  5
2E1
330
1F
100
AcDbEntity
  8
3
100
AcDbLine
 10
208.077009314209
 20
753.64599273778
 30
0.0
 11
208.077009314209
 21
357.3316122552503
 31
0.0
  0
ARC
  5
2E2
330
1F
100
AcDbEntity
  8
3
100
AcDbCircle
 10
202.3270093142007
 20
753.64599273778
 30
0.0
 40
5.75
100
AcDbArc
 50
0.0
 51
90.0
  0
ARC
  5
2E3
330
1F
100
AcDbEntity
  8
3
100
AcDbCircle
 10
797.1861126292394
 20
753.645992737772
 30
0.0
 40
5.75
100
AcDbArc
 50
90.0
 51
180.0
  0
ARC
  5
2E4
330
1F
100
AcDbEntity
  8
3
100
AcDbCircle
 10
797.1861126292394
 20
781.4057437164152
 30
0.0
 40
5.75
100
AcDbArc
 50
180.0
 51
270.0
  0
LINE
  5
2E5
330
1F
100
AcDbEntity
  8
3
100
AcDbLine
 10
843.5010959464735
 20
775.6557437164151
 30
0.0
 11
843.5010959464735
 21
759.3959927377802
 31
0.0
  0
LINE
  5
2E6
330
1F
100
AcDbEntity
  8
3
100
AcDbLine
 10
797.1861126292394
 20
759.3959927377719
 30
0.0
 11
843.5010959464735
 21
759.3959927377719
 31
0.0
  0
LINE
  5
2E7
330
1F
100
AcDbEntity
  8
3
100
AcDbLine
 10
797.1861126292394
 20
775.6557437164151
 30
0.0
 11
843.5010959464735
 21
775.6557437164151
 31
0.0
  0
LINE
  5
2E8
330
1F
100
AcDbEntity
  8
3
100
AcDbLine
 10
791.4361126292313
 20
781.4057437164152
 30
0.0
 11
791.4361126292313
 21
854.6655424858874
 31
0.0
  0
ENDSEC
  0
SECTION
  2
OBJECTS
  0
DICTIONARY
  5
C
330
0
100
AcDbDictionary
281
     1
  3
ACAD_COLOR
350
6B
  3
ACAD_GROUP
350
D
  3
ACAD_LAYOUT
350
1A
  3
ACAD_MATERIAL
350
6A
  3
ACAD_MLINESTYLE
350
17
  3
ACAD_PLOTSETTINGS
350
19
  3
ACAD_PLOTSTYLENAME
350
E
  3
ACDBHEADERROUNDTRIPXREC
350
310
  3
AcDbVariableDictionary
350
5E
  0
DICTIONARY
  5
6B
102
{ACAD_REACTORS
330
C
102
}
330
C
100
AcDbDictionary
281
     1
  0
DICTIONARY
  5
D
102
{ACAD_REACTORS
330
C
102
}
330
C
100
AcDbDictionary
281
     1
  0
DICTIONARY
  5
1A
102
{ACAD_REACTORS
330
C
102
}
330
C
100
AcDbDictionary
281
     1
  3
Layout1
350
51
  3
Layout2
350
56
  3
Model
350
22
  0
DICTIONARY
  5
6A
102
{ACAD_REACTORS
330
C
102
}
330
C
100
AcDbDictionary
281
     1
  0
DICTIONARY
  5
17
102
{ACAD_REACTORS
330
C
102
}
330
C
100
AcDbDictionary
281
     1
  3
Standard
350
18
  0
DICTIONARY
  5
19
102
{ACAD_REACTORS
330
C
102
}
330
C
100
AcDbDictionary
281
     1
  0
ACDBDICTIONARYWDFLT
  5
E
102
{ACAD_REACTORS
330
C
102
}
330
C
100
AcDbDictionary
281
     1
  3
Normal
350
F
100
AcDbDictionaryWithDefault
340
F
  0
DICTIONARY
  5
310
102
{ACAD_REACTORS
330
C
102
}
330
C
100
AcDbDictionary
281
     1
  3
COLORDICT
350
312
  3
MATERIALDICT
350
311
  0
DICTIONARY
  5
5E
102
{ACAD_REACTORS
330
C
102
}
330
C
100
AcDbDictionary
281
     1
  3
DIMASSOC
350
5F
  3
HIDETEXT
350
63
  3
PROJECTNAME
350
85
  0
LAYOUT
  5
51
102
{ACAD_XDICTIONARY
360
315
102
}
102
{ACAD_REACTORS
330
1A
102
}
330
1A
100
AcDbPlotSettings
  1

  2
None
  4

  6

 40
0.0
 41
0.0
 42
0.0
 43
0.0
 44
0.0
 45
0.0
 46
0.0
 47
0.0
 48
0.0
 49
0.0
140
0.0
141
0.0
142
1.0
143
1.0
 70
   688
 72
     0
 73
     0
 74
     5
  7

 75
    16
147
1.0
148
0.0
149
0.0
100
AcDbLayout
  1
Layout1
 70
     1
 71
     1
 10
0.0
 20
0.0
 11
12.0
 21
9.0
 12
0.0
 22
0.0
 32
0.0
 14
0.0
 24
0.0
 34
0.0
 15
0.0
 25
0.0
 35
0.0
146
0.0
 13
0.0
 23
0.0
 33
0.0
 16
1.0
 26
0.0
 36
0.0
 17
0.0
 27
1.0
 37
0.0
 76
     0
330
50
  0
LAYOUT
  5
56
102
{ACAD_XDICTIONARY
360
317
102
}
102
{ACAD_REACTORS
330
1A
102
}
330
1A
100
AcDbPlotSettings
  1

  2
None
  4

  6

 40
0.0
 41
0.0
 42
0.0
 43
0.0
 44
0.0
 45
0.0
 46
0.0
 47
0.0
 48
0.0
 49
0.0
140
0.0
141
0.0
142
1.0
143
1.0
 70
   688
 72
     0
 73
     0
 74
     5
  7

 75
    16
147
1.0
148
0.0
149
0.0
100
AcDbLayout
  1
Layout2
 70
     1
 71
     2
 10
0.0
 20
0.0
 11
12.0
 21
9.0
 12
0.0
 22
0.0
 32
0.0
 14
0.0
 24
0.0
 34
0.0
 15
0.0
 25
0.0
 35
0.0
146
0.0
 13
0.0
 23
0.0
 33
0.0
 16
1.0
 26
0.0
 36
0.0
 17
0.0
 27
1.0
 37
0.0
 76
     0
330
55
  0
LAYOUT
  5
22
102
{ACAD_XDICTIONARY
360
313
102
}
102
{ACAD_REACTORS
330
1A
102
}
330
1A
100
AcDbPlotSettings
  1

  2
none_device
  4
ANSI_A_(8.50_x_11.00_Inches)
  6

 40
6.349999904632567
 41
19.04999923706055
 42
6.350006103515625
 43
19.04998779296875
 44
215.8999938964844
 45
279.3999938964844
 46
0.0
 47
0.0
 48
0.0
 49
0.0
140
0.0
141
0.0
142
1.0
143
78.436453180766
 70
 11952
 72
     0
 73
     1
 74
     0
  7

 75
     0
147
0.0127491741332998
148
0.0
149
0.0
100
AcDbLayout
  1
Model
 70
     1
 71
     0
 10
0.0
 20
0.0
 11
12.0
 21
9.0
 12
0.0
 22
0.0
 32
0.0
 14
0.0
 24
0.0
 34
0.0
 15
0.0
 25
0.0
 35
0.0
146
0.0
 13
0.0
 23
0.0
 33
0.0
 16
1.0
 26
0.0
 36
0.0
 17
0.0
 27
1.0
 37
0.0
 76
     0
330
1F
  0
MLINESTYLE
  5
18
102
{ACAD_REACTORS
330
17
102
}
330
17
100
AcDbMlineStyle
  2
STANDARD
 70
     0
  3

 62
   256
 51
90.0
 52
90.0
 71
     2
 49
0.5
 62
   256
  6
BYLAYER
 49
-0.5
 62
   256
  6
BYLAYER
  0
ACDBPLACEHOLDER
  5
F
102
{ACAD_REACTORS
330
E
102
}
330
E
  0
XRECORD
  5
312
102
{ACAD_REACTORS
330
310
102
}
330
310
100
AcDbXrecord
280
     1
340
6B
  0
XRECORD
  5
311
102
{ACAD_REACTORS
330
310
102
}
330
310
100
AcDbXrecord
280
     1
340
6A
  0
DICTIONARYVAR
  5
5F
102
{ACAD_REACTORS
330
5E
102
}
330
5E
100
DictionaryVariables
280
     0
  1
2
  0
DICTIONARYVAR
  5
63
102
{ACAD_REACTORS
330
5E
102
}
330
5E
100
DictionaryVariables
280
     0
  1
1
  0
DICTIONARYVAR
  5
85
102
{ACAD_REACTORS
330
5E
102
}
330
5E
100
DictionaryVariables
280
     0
  1

  0
DICTIONARY
  5
315
330
51
100
AcDbDictionary
280
     1
281
     1
  3
ACAD_XREC_ROUNDTRIP
360
316
  0
DICTIONARY
  5
317
330
56
100
AcDbDictionary
280
     1
281
     1
  3
ACAD_XREC_ROUNDTRIP
360
318
  0
DICTIONARY
  5
313
330
22
100
AcDbDictionary
280
     1
281
     1
  3
ACAD_XREC_ROUNDTRIP
360
314
  0
XRECORD
  5
316
102
{ACAD_REACTORS
330
315
102
}
330
315
100
AcDbXrecord
280
     1
102
SHADEPLOT
 70
     0
102
SHADEPLOTRESLEVEL
 70
     2
102
SHADEPLOTCUSTOMDPI
 70
   300
  0
XRECORD
  5
318
102
{ACAD_REACTORS
330
317
102
}
330
317
100
AcDbXrecord
280
     1
102
SHADEPLOT
 70
     0
102
SHADEPLOTRESLEVEL
 70
     2
102
SHADEPLOTCUSTOMDPI
 70
   300
  0
XRECORD
  5
314
102
{ACAD_REACTORS
330
313
102
}
330
313
100
AcDbXrecord
280
     1
102
SHADEPLOT
 70
     0
102
SHADEPLOTRESLEVEL
 70
     2
102
SHADEPLOTCUSTOMDPI
 70
   300
  0
ENDSEC
  0
EOF
