  0
SECTION
  2
HEADER
  9
$ACADVER
  1
AC1015
  9
$ACADMAINTVER
 70
    20
  9
$DWGCODEPAGE
  3
ANSI_936
  9
$INSBASE
 10
0.0
 20
0.0
 30
0.0
  9
$EXTMIN
 10
0.0000429253850598
 20
-0.0000276479768218
 30
0.0
  9
$EXTMAX
 10
1000.000042925385
 20
999.9999723520232
 30
0.0
  9
$LIMMIN
 10
0.0
 20
0.0
  9
$LIMMAX
 10
420.0
 20
297.0
  9
$ORTHOMODE
 70
     0
  9
$REGENMODE
 70
     1
  9
$FILLMODE
 70
     1
  9
$QTEXTMODE
 70
     0
  9
$MIRRTEXT
 70
     0
  9
$LTSCALE
 40
1.0
  9
$ATTMODE
 70
     1
  9
$TEXTSIZE
 40
2.5
  9
$TRACEWID
 40
1.0
  9
$TEXTSTYLE
  7
Standard
  9
$CLAYER
  8
2
  9
$CELTYPE
  6
ByLayer
  9
$CECOLOR
 62
   256
  9
$CELTSCALE
 40
1.0
  9
$DISPSILH
 70
     0
  9
$DIMSCALE
 40
1.0
  9
$DIMASZ
 40
2.5
  9
$DIMEXO
 40
0.625
  9
$DIMDLI
 40
3.75
  9
$DIMRND
 40
0.0
  9
$DIMDLE
 40
0.0
  9
$DIMEXE
 40
1.25
  9
$DIMTP
 40
0.0
  9
$DIMTM
 40
0.0
  9
$DIMTXT
 40
2.5
  9
$DIMCEN
 40
2.5
  9
$DIMTSZ
 40
0.0
  9
$DIMTOL
 70
     0
  9
$DIMLIM
 70
     0
  9
$DIMTIH
 70
     0
  9
$DIMTOH
 70
     0
  9
$DIMSE1
 70
     0
  9
$DIMSE2
 70
     0
  9
$DIMTAD
 70
     1
  9
$DIMZIN
 70
     8
  9
$DIMBLK
  1

  9
$DIMASO
 70
     1
  9
$DIMSHO
 70
     1
  9
$DIMPOST
  1

  9
$DIMAPOST
  1

  9
$DIMALT
 70
     0
  9
$DIMALTD
 70
     3
  9
$DIMALTF
 40
0.03937007874016
  9
$DIMLFAC
 40
1.0
  9
$DIMTOFL
 70
     1
  9
$DIMTVP
 40
0.0
  9
$DIMTIX
 70
     0
  9
$DIMSOXD
 70
     0
  9
$DIMSAH
 70
     0
  9
$DIMBLK1
  1

  9
$DIMBLK2
  1

  9
$DIMSTYLE
  2
ISO-25
  9
$DIMCLRD
 70
     0
  9
$DIMCLRE
 70
     0
  9
$DIMCLRT
 70
     0
  9
$DIMTFAC
 40
1.0
  9
$DIMGAP
 40
0.625
  9
$DIMJUST
 70
     0
  9
$DIMSD1
 70
     0
  9
$DIMSD2
 70
     0
  9
$DIMTOLJ
 70
     0
  9
$DIMTZIN
 70
     8
  9
$DIMALTZ
 70
     0
  9
$DIMALTTZ
 70
     0
  9
$DIMUPT
 70
     0
  9
$DIMDEC
 70
     2
  9
$DIMTDEC
 70
     2
  9
$DIMALTU
 70
     2
  9
$DIMALTTD
 70
     3
  9
$DIMTXSTY
  7
Standard
  9
$DIMAUNIT
 70
     0
  9
$DIMADEC
 70
     0
  9
$DIMALTRND
 40
0.0
  9
$DIMAZIN
 70
     0
  9
$DIMDSEP
 70
    44
  9
$DIMATFIT
 70
     3
  9
$DIMFRAC
 70
     0
  9
$DIMLDRBLK
  1

  9
$DIMLUNIT
 70
     2
  9
$DIMLWD
 70
    -2
  9
$DIMLWE
 70
    -2
  9
$DIMTMOVE
 70
     0
  9
$LUNITS
 70
     2
  9
$LUPREC
 70
     4
  9
$SKETCHINC
 40
1.0
  9
$FILLETRAD
 40
0.0
  9
$AUNITS
 70
     0
  9
$AUPREC
 70
     0
  9
$MENU
  1
.
  9
$ELEVATION
 40
0.0
  9
$PELEVATION
 40
0.0
  9
$THICKNESS
 40
0.0
  9
$LIMCHECK
 70
     0
  9
$CHAMFERA
 40
0.0
  9
$CHAMFERB
 40
0.0
  9
$CHAMFERC
 40
0.0
  9
$CHAMFERD
 40
0.0
  9
$SKPOLY
 70
     0
  9
$TDCREATE
 40
2455505.725807523
  9
$TDUCREATE
 40
2455505.392474190
  9
$TDUPDATE
 40
2457095.668082859
  9
$TDUUPDATE
 40
2457095.334749526
  9
$TDINDWG
 40
0.0502907292
  9
$TDUSRTIMER
 40
0.0502903704
  9
$USRTIMER
 70
     1
  9
$ANGBASE
 50
0.0
  9
$ANGDIR
 70
     0
  9
$PDMODE
 70
     0
  9
$PDSIZE
 40
0.0
  9
$PLINEWID
 40
0.0
  9
$SPLFRAME
 70
     0
  9
$SPLINETYPE
 70
     6
  9
$SPLINESEGS
 70
     8
  9
$HANDSEED
  5
2E6
  9
$SURFTAB1
 70
     6
  9
$SURFTAB2
 70
     6
  9
$SURFTYPE
 70
     6
  9
$SURFU
 70
     6
  9
$SURFV
 70
     6
  9
$UCSBASE
  2

  9
$UCSNAME
  2

  9
$UCSORG
 10
0.0
 20
0.0
 30
0.0
  9
$UCSXDIR
 10
1.0
 20
0.0
 30
0.0
  9
$UCSYDIR
 10
0.0
 20
1.0
 30
0.0
  9
$UCSORTHOREF
  2

  9
$UCSORTHOVIEW
 70
     0
  9
$UCSORGTOP
 10
0.0
 20
0.0
 30
0.0
  9
$UCSORGBOTTOM
 10
0.0
 20
0.0
 30
0.0
  9
$UCSORGLEFT
 10
0.0
 20
0.0
 30
0.0
  9
$UCSORGRIGHT
 10
0.0
 20
0.0
 30
0.0
  9
$UCSORGFRONT
 10
0.0
 20
0.0
 30
0.0
  9
$UCSORGBACK
 10
0.0
 20
0.0
 30
0.0
  9
$PUCSBASE
  2

  9
$PUCSNAME
  2

  9
$PUCSORG
 10
0.0
 20
0.0
 30
0.0
  9
$PUCSXDIR
 10
1.0
 20
0.0
 30
0.0
  9
$PUCSYDIR
 10
0.0
 20
1.0
 30
0.0
  9
$PUCSORTHOREF
  2

  9
$PUCSORTHOVIEW
 70
     0
  9
$PUCSORGTOP
 10
0.0
 20
0.0
 30
0.0
  9
$PUCSORGBOTTOM
 10
0.0
 20
0.0
 30
0.0
  9
$PUCSORGLEFT
 10
0.0
 20
0.0
 30
0.0
  9
$PUCSORGRIGHT
 10
0.0
 20
0.0
 30
0.0
  9
$PUCSORGFRONT
 10
0.0
 20
0.0
 30
0.0
  9
$PUCSORGBACK
 10
0.0
 20
0.0
 30
0.0
  9
$USERI1
 70
     0
  9
$USERI2
 70
     0
  9
$USERI3
 70
     0
  9
$USERI4
 70
     0
  9
$USERI5
 70
     0
  9
$USERR1
 40
0.0
  9
$USERR2
 40
0.0
  9
$USERR3
 40
0.0
  9
$USERR4
 40
0.0
  9
$USERR5
 40
0.0
  9
$WORLDVIEW
 70
     1
  9
$SHADEDGE
 70
     3
  9
$SHADEDIF
 70
    70
  9
$TILEMODE
 70
     1
  9
$MAXACTVP
 70
    64
  9
$PINSBASE
 10
0.0
 20
0.0
 30
0.0
  9
$PLIMCHECK
 70
     0
  9
$PEXTMIN
 10
0.0
 20
0.0
 30
0.0
  9
$PEXTMAX
 10
0.0
 20
0.0
 30
0.0
  9
$PLIMMIN
 10
0.0
 20
0.0
  9
$PLIMMAX
 10
12.0
 20
9.0
  9
$UNITMODE
 70
     0
  9
$VISRETAIN
 70
     1
  9
$PLINEGEN
 70
     0
  9
$PSLTSCALE
 70
     1
  9
$TREEDEPTH
 70
  3020
  9
$CMLSTYLE
  2
Standard
  9
$CMLJUST
 70
     0
  9
$CMLSCALE
 40
20.0
  9
$PROXYGRAPHICS
 70
     1
  9
$MEASUREMENT
 70
     1
  9
$CELWEIGHT
370
    -1
  9
$ENDCAPS
280
     0
  9
$JOINSTYLE
280
     0
  9
$LWDISPLAY
290
     0
  9
$INSUNITS
 70
     4
  9
$HYPERLINKBASE
  1

  9
$STYLESHEET
  1

  9
$XEDIT
290
     1
  9
$CEPSNTYPE
380
     0
  9
$PSTYLEMODE
290
     1
  9
$FINGERPRINTGUID
  2
{FDEAD578-A652-11D2-9A35-0060089B3A3F}
  9
$VERSIONGUID
  2
{DBE2BBF1-995D-44D4-8437-F8183C888B52}
  9
$EXTNAMES
290
     1
  9
$PSVPSCALE
 40
0.0
  9
$OLESTARTUP
290
     0
  0
ENDSEC
  0
SECTION
  2
CLASSES
  0
CLASS
  1
ACDBDICTIONARYWDFLT
  2
AcDbDictionaryWithDefault
  3
ObjectDBX Classes
 90
        0
280
     0
281
     0
  0
CLASS
  1
ACDBPLACEHOLDER
  2
AcDbPlaceHolder
  3
ObjectDBX Classes
 90
        0
280
     0
281
     0
  0
CLASS
  1
LAYOUT
  2
AcDbLayout
  3
ObjectDBX Classes
 90
        0
280
     0
281
     0
  0
CLASS
  1
DICTIONARYVAR
  2
AcDbDictionaryVar
  3
ObjectDBX Classes
 90
        0
280
     0
281
     0
  0
ENDSEC
  0
SECTION
  2
TABLES
  0
TABLE
  2
VPORT
  5
8
330
0
100
AcDbSymbolTable
 70
     3
  0
VPORT
  5
2DC
330
8
100
AcDbSymbolTableRecord
100
AcDbViewportTableRecord
  2
*Active
 70
     0
 10
0.0
 20
0.0
 11
1.0
 21
1.0
 12
466.2782164118675
 22
466.0248485174583
 13
0.0
 23
0.0
 14
10.0
 24
10.0
 15
10.0
 25
10.0
 16
0.0
 26
0.0
 36
1.0
 17
0.0
 27
0.0
 37
0.0
 40
1528.40556741273
 41
1.68860353130016
 42
50.0
 43
0.0
 44
0.0
 50
0.0
 51
0.0
 71
     0
 72
  1000
 73
     1
 74
     3
 75
     0
 76
     0
 77
     0
 78
     0
281
     0
 65
     1
110
0.0
120
0.0
130
0.0
111
1.0
121
0.0
131
0.0
112
0.0
122
1.0
132
0.0
 79
     0
146
0.0
  0
ENDTAB
  0
TABLE
  2
LTYPE
  5
5
330
0
100
AcDbSymbolTable
 70
     1
  0
LTYPE
  5
14
330
5
100
AcDbSymbolTableRecord
100
AcDbLinetypeTableRecord
  2
ByBlock
 70
     0
  3

 72
    65
 73
     0
 40
0.0
  0
LTYPE
  5
15
330
5
100
AcDbSymbolTableRecord
100
AcDbLinetypeTableRecord
  2
ByLayer
 70
     0
  3

 72
    65
 73
     0
 40
0.0
  0
LTYPE
  5
16
330
5
100
AcDbSymbolTableRecord
100
AcDbLinetypeTableRecord
  2
Continuous
 70
     0
  3
Solid line
 72
    65
 73
     0
 40
0.0
  0
ENDTAB
  0
TABLE
  2
LAYER
  5
2
330
0
100
AcDbSymbolTable
 70
     4
  0
LAYER
  5
10
330
2
100
AcDbSymbolTableRecord
100
AcDbLayerTableRecord
  2
0
 70
     0
 62
     2
  6
Continuous
370
    -3
390
F
  0
LAYER
  5
94
330
2
100
AcDbSymbolTableRecord
100
AcDbLayerTableRecord
  2
1
 70
     0
 62
     1
  6
Continuous
370
    -3
390
F
  0
LAYER
  5
95
330
2
100
AcDbSymbolTableRecord
100
AcDbLayerTableRecord
  2
2
 70
     0
 62
     7
  6
Continuous
370
    -3
390
F
  0
LAYER
  5
10E
330
2
100
AcDbSymbolTableRecord
100
AcDbLayerTableRecord
  2
3
 70
     0
 62
     7
  6
Continuous
370
    -3
390
F
  0
ENDTAB
  0
TABLE
  2
STYLE
  5
3
330
0
100
AcDbSymbolTable
 70
     1
  0
STYLE
  5
11
330
3
100
AcDbSymbolTableRecord
100
AcDbTextStyleTableRecord
  2
Standard
 70
     0
 40
0.0
 41
1.0
 50
0.0
 71
     0
 42
2.5
  3
txt
  4

  0
ENDTAB
  0
TABLE
  2
VIEW
  5
6
330
0
100
AcDbSymbolTable
 70
     0
  0
ENDTAB
  0
TABLE
  2
UCS
  5
7
330
0
100
AcDbSymbolTable
 70
     0
  0
ENDTAB
  0
TABLE
  2
APPID
  5
9
330
0
100
AcDbSymbolTable
 70
     1
  0
APPID
  5
12
330
9
100
AcDbSymbolTableRecord
100
AcDbRegAppTableRecord
  2
ACAD
 70
     0
  0
ENDTAB
  0
TABLE
  2
DIMSTYLE
  5
A
330
0
100
AcDbSymbolTable
 70
     1
100
AcDbDimStyleTable
 71
     0
  0
DIMSTYLE
105
27
330
A
100
AcDbSymbolTableRecord
100
AcDbDimStyleTableRecord
  2
ISO-25
 70
     0
 41
2.5
 42
0.625
 43
3.75
 44
1.25
 73
     0
 74
     0
 77
     1
 78
     8
140
2.5
141
2.5
143
0.03937007874016
147
0.625
171
     3
172
     1
271
     2
272
     2
274
     3
278
    44
283
     0
284
     8
340
11
  0
ENDTAB
  0
TABLE
  2
BLOCK_RECORD
  5
1
330
0
100
AcDbSymbolTable
 70
     1
  0
BLOCK_RECORD
  5
1F
330
1
100
AcDbSymbolTableRecord
100
AcDbBlockTableRecord
  2
*Model_Space
340
22
  0
BLOCK_RECORD
  5
50
330
1
100
AcDbSymbolTableRecord
100
AcDbBlockTableRecord
  2
*Paper_Space
340
51
  0
BLOCK_RECORD
  5
55
330
1
100
AcDbSymbolTableRecord
100
AcDbBlockTableRecord
  2
*Paper_Space0
340
56
  0
ENDTAB
  0
ENDSEC
  0
SECTION
  2
BLOCKS
  0
BLOCK
  5
20
330
1F
100
AcDbEntity
  8
0
100
AcDbBlockBegin
  2
*Model_Space
 70
     0
 10
0.0
 20
0.0
 30
0.0
  3
*Model_Space
  1

  0
ENDBLK
  5
21
330
1F
100
AcDbEntity
  8
0
100
AcDbBlockEnd
  0
BLOCK
  5
52
330
50
100
AcDbEntity
 67
     1
  8
0
100
AcDbBlockBegin
  2
*Paper_Space
 70
     0
 10
0.0
 20
0.0
 30
0.0
  3
*Paper_Space
  1

  0
ENDBLK
  5
53
330
50
100
AcDbEntity
 67
     1
  8
0
100
AcDbBlockEnd
  0
BLOCK
  5
57
330
55
100
AcDbEntity
  8
0
100
AcDbBlockBegin
  2
*Paper_Space0
 70
     0
 10
0.0
 20
0.0
 30
0.0
  3
*Paper_Space0
  1

  0
ENDBLK
  5
58
330
55
100
AcDbEntity
  8
0
100
AcDbBlockEnd
  0
ENDSEC
  0
SECTION
  2
ENTITIES
  0
LWPOLYLINE
  5
290
330
1F
100
AcDbEntity
  8
3
100
AcDbPolyline
 90
        4
 70
     0
 43
0.0
 10
654.7263998862322
 20
619.189959458005
 10
708.370611366689
 20
609.8802383145689
 10
833.6304678345239
 20
586.7164576355878
 10
865.0929380184372
 20
574.2362697312314
  0
LINE
  5
291
330
1F
100
AcDbEntity
  8
3
100
AcDbLine
 10
511.5241362491468
 20
162.3972221787695
 30
0.0
 11
575.3309823377634
 21
178.0649617117394
 31
0.0
  0
LINE
  5
292
330
1F
100
AcDbEntity
  8
3
100
AcDbLine
 10
399.494195536931
 20
200.4715186593001
 30
0.0
 11
466.2971867462028
 21
215.2600657074274
 31
0.0
  0
LINE
  5
293
330
1F
100
AcDbEntity
  8
3
100
AcDbLine
 10
293.2894463322388
 20
254.5658284277282
 30
0.0
 11
355.3850591123718
 21
254.6498569131702
 31
0.0
  0
LINE
  5
294
330
1F
100
AcDbEntity
  8
3
100
AcDbLine
 10
359.5727868002747
 20
336.7871934493212
 30
0.0
 11
414.9511506330901
 21
316.6009802241386
 31
0.0
  0
LINE
  5
295
330
1F
100
AcDbEntity
  8
3
100
AcDbLine
 10
483.9112252738389
 20
377.0533343536057
 30
0.0
 11
548.8369683561021
 21
358.0876470598633
 31
0.0
  0
LINE
  5
296
330
1F
100
AcDbEntity
  8
3
100
AcDbLine
 10
603.8586477722645
 20
416.0013578854214
 30
0.0
 11
669.9108728452324
 21
401.8146721703102
 31
0.0
  0
LINE
  5
297
330
1F
100
AcDbEntity
  8
3
100
AcDbLine
 10
662.5552158073635
 20
444.9151895099571
 30
0.0
 11
716.0306444531292
 21
443.4031487213411
 31
0.0
  0
LINE
  5
298
330
1F
100
AcDbEntity
  8
3
100
AcDbLine
 10
589.2956927425768
 20
511.146600430973
 30
0.0
 11
642.3448709159655
 21
506.8491567808061
 31
0.0
  0
LINE
  5
299
330
1F
100
AcDbEntity
  8
3
100
AcDbLine
 10
537.9652670502443
 20
587.3709287201132
 30
0.0
 11
571.2249589427671
 21
587.542093051555
 31
0.0
  0
LWPOLYLINE
  5
29A
330
1F
100
AcDbEntity
  8
3
100
AcDbPolyline
 90
        5
 70
     0
 43
0.0
 10
604.431615942848
 20
168.0934730579001
 10
609.6150612621658
 20
153.6872196871194
 10
606.1734476461208
 20
141.6515628123107
 10
597.1408292035533
 20
139.9315874518459
 10
575.4939146611816
 20
140.492546038552
  0
SPLINE
  5
29B
330
1F
100
AcDbEntity
  8
3
100
AcDbSpline
210
0.0
220
0.0
230
1.0
 70
     8
 71
     3
 72
    70
 73
    66
 74
     0
 42
0.0000000001
 43
0.0000000001
 40
70.27439899101771
 40
70.27439899101771
 40
70.27439899101771
 40
70.27439899101771
 40
71.45817442671429
 40
71.45817442671429
 40
73.8257252981074
 40
73.8257252981074
 40
76.19327616950053
 40
76.19327616950053
 40
81.41203490065164
 40
81.41203490065164
 40
86.63079363180278
 40
86.63079363180278
 40
91.84955236295387
 40
91.84955236295387
 40
99.81848615995192
 40
99.81848615995192
 40
105.9459302126757
 40
105.9459302126757
 40
110.3313046893936
 40
110.3313046893936
 40
113.6362135168368
 40
113.6362135168368
 40
116.1740849394814
 40
116.1740849394814
 40
118.1918336446533
 40
118.1918336446533
 40
119.8366535251324
 40
119.8366535251324
 40
121.1709080508052
 40
121.1709080508052
 40
122.2863722688529
 40
122.2863722688529
 40
123.4018364869005
 40
123.4018364869005
 40
124.5173007049482
 40
124.5173007049482
 40
125.6327649229959
 40
125.6327649229959
 40
126.7482291410435
 40
126.7482291410435
 40
127.8636933590912
 40
127.8636933590912
 40
128.9791575771388
 40
128.9791575771388
 40
130.0946217951865
 40
130.0946217951865
 40
132.2245739569936
 40
132.2245739569936
 40
134.3545261188008
 40
134.3545261188008
 40
136.4844782806079
 40
136.4844782806079
 40
138.37935554346
 40
138.37935554346
 40
140.5698898433607
 40
140.5698898433607
 40
142.7604241432614
 40
142.7604241432614
 40
147.1414927430627
 40
147.1414927430627
 40
155.9036299426655
 40
155.9036299426655
 40
173.4279043418709
 40
173.4279043418709
 40
173.6527246916846
 40
173.6527246916846
 40
173.6527246916846
 40
173.6527246916846
 10
662.5552158073636
 20
444.9151895099719
 30
0.0
 10
661.5257006514578
 20
444.1031752073516
 30
0.0
 10
660.3433770878805
 20
443.2295359388331
 30
0.0
 10
656.3712394992388
 20
440.4824850382448
 30
0.0
 10
653.1572160926351
 20
438.4866764146845
 30
0.0
 10
645.7787193203553
 20
434.3438925901631
 30
0.0
 10
641.6145170676863
 20
432.1944147032404
 30
0.0
 10
627.0000748116788
 20
425.1916341818854
 30
0.0
 10
615.0298303983086
 20
420.2097944598273
 30
0.0
 10
588.5850903422122
 20
410.2384525636195
 30
0.0
 10
574.103459557706
 20
405.2382350607027
 30
0.0
 10
543.7260533113909
 20
395.2973326663993
 30
0.0
 10
527.8279766725424
 20
390.3543817102979
 30
0.0
 10
487.1400665678312
 20
377.9641003833486
 30
0.0
 10
462.0854858231964
 20
370.5720806707765
 30
0.0
 10
419.9101116993599
 20
357.6317766744791
 30
0.0
 10
402.2959873724992
 20
352.0542909070977
 30
0.0
 10
374.4619374326878
 20
342.4671426559712
 30
0.0
 10
363.5654219876777
 20
338.465462443843
 30
0.0
 10
346.0084609306714
 20
331.3065952098857
 30
0.0
 10
338.9671638474486
 20
328.1882134139094
 30
0.0
 10
327.415679414208
 20
322.4063013266838
 30
0.0
 10
322.6968716051637
 20
319.8095491534085
 30
0.0
 10
314.6726054371559
 20
314.7268898325124
 30
0.0
 10
311.2722610403119
 20
312.3313084266772
 30
0.0
 10
305.3080219711296
 20
307.3640283362842
 30
0.0
 10
302.6985388484113
 20
304.9068433683229
 30
0.0
 10
298.1589454237138
 20
299.6429792404137
 30
0.0
 10
296.1880923255764
 20
296.9824080261499
 30
0.0
 10
292.9378143493128
 20
291.2572136236596
 30
0.0
 10
291.6008871924839
 20
288.3210590179235
 30
0.0
 10
289.5906830953885
 20
281.7771987726864
 30
0.0
 10
288.931983564713
 20
278.163481235175
 30
0.0
 10
288.6808603530462
 20
270.6885362714685
 30
0.0
 10
289.0992851647602
 20
266.8482602041935
 30
0.0
 10
290.9265945122348
 20
259.6323155246979
 30
0.0
 10
292.3180243362052
 20
256.2703941555356
 30
0.0
 10
295.6146920425094
 20
250.3139013052207
 30
0.0
 10
297.5098693778364
 20
247.7087472738479
 30
0.0
 10
301.4852140421472
 20
243.1248752005993
 30
0.0
 10
303.5682156037847
 20
241.1381817341367
 30
0.0
 10
307.8292198460257
 20
237.5717727358989
 30
0.0
 10
310.0303610655175
 20
235.9807470927194
 30
0.0
 10
314.3971322872139
 20
233.130140269647
 30
0.0
 10
316.5789848188207
 20
231.8539442531132
 30
0.0
 10
323.0031514517105
 20
228.3649826638654
 30
0.0
 10
327.3234400589756
 20
226.3491790199426
 30
0.0
 10
336.2700459941208
 20
222.510523544914
 30
0.0
 10
340.8905112690389
 20
220.6988591533967
 30
0.0
 10
350.3203217493906
 20
217.1870766196536
 30
0.0
 10
355.1274698084429
 20
215.4894901819492
 30
0.0
 10
364.2032574828065
 20
212.3611239056617
 30
0.0
 10
368.4720113948043
 20
210.922197348743
 30
0.0
 10
377.48571379779
 20
207.8893218477815
 30
0.0
 10
382.2304397307313
 20
206.2924981538587
 30
0.0
 10
391.639227148064
 20
203.1219657852948
 30
0.0
 10
396.2895659540869
 20
201.5534361759167
 30
0.0
 10
410.0892158517444
 20
196.8947120237592
 30
0.0
 10
419.087159858447
 20
193.8513823842962
 30
0.0
 10
445.5619360043559
 20
184.8820821964775
 30
0.0
 10
462.5197173082575
 20
179.1167990172236
 30
0.0
 10
512.008253717701
 20
162.2494819956886
 30
0.0
 10
543.1548370320101
 20
151.5757542574874
 30
0.0
 10
574.6949045080262
 20
140.7663820485059
 30
0.0
 10
575.0944082097769
 20
140.6294645147046
 30
0.0
 10
575.4939146612015
 20
140.4925460385127
 30
0.0
  0
SPLINE
  5
29C
330
1F
100
AcDbEntity
  8
3
100
AcDbSpline
210
0.0
220
0.0
230
1.0
 70
     8
 71
     3
 72
    44
 73
    40
 74
     0
 42
0.0000000001
 43
0.0000000001
 40
0.0
 40
0.0
 40
0.0
 40
0.0
 40
5.410163202399997
 40
5.410163202399997
 40
9.36560154894339
 40
9.36560154894339
 40
12.26619508324297
 40
12.26619508324297
 40
15.14364166969494
 40
15.14364166969494
 40
16.50848409940911
 40
16.50848409940911
 40
17.87332652912329
 40
17.87332652912329
 40
20.60301138855164
 40
20.60301138855164
 40
22.58194092756793
 40
22.58194092756793
 40
24.30261616651551
 40
24.30261616651551
 40
26.02329140546308
 40
26.02329140546308
 40
29.46464188335824
 40
29.46464188335824
 40
36.7454210923727
 40
36.7454210923727
 40
39.81414869121243
 40
39.81414869121243
 40
42.44357415952393
 40
42.44357415952393
 40
44.17818286401775
 40
44.17818286401775
 40
45.91279156851157
 40
45.91279156851157
 40
49.72591747274351
 40
49.72591747274351
 40
53.53904337697545
 40
53.53904337697545
 40
55.95703360999349
 40
55.95703360999349
 40
55.95703360999349
 40
55.95703360999349
 10
478.9307314693918
 20
749.6813019878374
 30
0.0
 10
488.1342082628381
 20
722.8196148327876
 30
0.0
 10
492.5828211163106
 20
712.9604189961106
 30
0.0
 10
499.9436576502973
 20
696.0204538963339
 30
0.0
 10
502.9475589664008
 20
688.9055968644013
 30
0.0
 10
507.8863861204121
 20
676.6062857873996
 30
0.0
 10
509.8928212824957
 20
671.4130659207096
 30
0.0
 10
513.6877411632061
 20
661.0722390781054
 30
0.0
 10
515.4778394643353
 20
655.9246307769922
 30
0.0
 10
517.945168124454
 20
648.3258878931662
 30
0.0
 10
518.7113557584296
 20
645.8781200449716
 30
0.0
 10
520.2456521216017
 20
640.844114268237
 30
0.0
 10
521.0088794956846
 20
638.2760537523601
 30
0.0
 10
523.3174314255998
 20
630.4359183613503
 30
0.0
 10
524.8802414880282
 20
625.027998021206
 30
0.0
 10
527.7862143348211
 20
615.4646580353553
 30
0.0
 10
529.0720184900136
 20
611.3736886119365
 30
0.0
 10
531.6800841167732
 20
603.6244552299177
 30
0.0
 10
532.9780326663962
 20
599.9863633755047
 30
0.0
 10
535.7151029494141
 20
592.7975982107946
 30
0.0
 10
537.1594385881462
 20
589.2268199270956
 30
0.0
 10
541.736813136338
 20
578.5927624864032
 30
0.0
 10
545.1147100495387
 20
571.6073569774027
 30
0.0
 10
556.7827879683735
 20
550.2460390343306
 30
0.0
 10
566.3627072841856
 20
536.3223987917929
 30
0.0
 10
582.6877051297088
 20
517.7525200939555
 30
0.0
 10
587.8639906475634
 20
512.3987551672082
 30
0.0
 10
598.1179170293304
 20
502.7681529736183
 30
0.0
 10
603.1034506582492
 20
498.4467843815506
 30
0.0
 10
611.8087411126266
 20
491.4875285996756
 30
0.0
 10
615.4025830669673
 20
488.7686682998423
 30
0.0
 10
622.6142675952765
 20
483.5549329409757
 30
0.0
 10
626.2459263415536
 20
481.0426386590417
 30
0.0
 10
637.8139400949617
 20
473.2567725038268
 30
0.0
 10
645.7011557584604
 20
468.2726656861191
 30
0.0
 10
660.3539835874671
 20
458.921942978805
 30
0.0
 10
667.12525522236
 20
454.5450775999459
 30
0.0
 10
676.2384598113576
 20
448.1077021120231
 30
0.0
 10
679.2908003064825
 20
445.7846494101163
 30
0.0
 10
662.5552158073636
 20
444.9151895099719
 30
0.0
  0
SPLINE
  5
29D
330
1F
100
AcDbEntity
  8
3
100
AcDbSpline
210
0.0
220
0.0
230
1.0
 70
     8
 71
     3
 72
    14
 73
    10
 74
     8
 42
0.0000000001
 43
0.0000000001
 44
0.0000000001
 40
0.0
 40
0.0
 40
0.0
 40
0.0
 40
75.0563095874551
 40
108.770887892125
 40
199.6273860830299
 40
275.722623756173
 40
583.2336948434835
 40
628.7938106078255
 40
786.33594046882
 40
786.33594046882
 40
786.33594046882
 40
786.33594046882
 10
507.6748797186094
 20
750.9533039411651
 30
0.0
 10
522.1132138594514
 20
720.3829689693816
 30
0.0
 10
543.0371099691138
 20
676.0807311386484
 30
0.0
 10
565.5290440756631
 20
588.2721164289305
 30
0.0
 10
612.9578963656882
 20
514.4665149251459
 30
0.0
 10
872.0843699727231
 20
392.3372064477289
 30
0.0
 10
199.2662416782943
 20
304.9288669783176
 30
0.0
 10
462.016725490535
 20
216.9016282046562
 30
0.0
 10
542.2197898592663
 20
189.4145894791301
 30
0.0
 10
604.431615942848
 20
168.0934730579001
 30
0.0
 11
507.6748797186094
 21
750.9533039411651
 31
0.0
 11
546.8622182564608
 21
657.5557532039954
 31
0.0
 11
560.2194959138411
 21
614.0642326929671
 31
0.0
 11
631.7643530123761
 21
514.4958572985883
 31
0.0
 11
713.7885651327772
 21
452.7160300262806
 31
0.0
 11
346.30250824117
 21
259.9536702065759
 31
0.0
 11
403.1699978875471
 21
236.5855277609145
 31
0.0
 11
604.431615942848
 21
168.0934730579001
 31
0.0
  0
LINE
  5
29E
330
1F
100
AcDbEntity
  8
3
100
AcDbLine
 10
520.862509378462
 20
775.0754469763408
 30
0.0
 11
520.8625093784668
 21
845.5110237888318
 31
0.0
  0
LINE
  5
29F
330
1F
100
AcDbEntity
  8
3
100
AcDbLine
 10
463.5518796330584
 20
775.0754469763408
 30
0.0
 11
463.5518796330536
 21
845.5110237888318
 31
0.0
  0
ARC
  5
2A0
330
1F
100
AcDbEntity
  8
3
100
AcDbCircle
 10
492.2071945057603
 20
775.0754469763408
 30
0.0
 40
28.65531487269937
100
AcDbArc
 50
180.0
 51
0.0
  0
ARC
  5
2A1
330
1F
100
AcDbEntity
  8
3
100
AcDbCircle
 10
262.9048354376448
 20
120.7357615692196
 30
0.0
 40
10.67852791676719
100
AcDbArc
 50
90.0000000001042
 51
270.0
  0
ARC
  5
2A2
330
1F
100
AcDbEntity
  8
3
100
AcDbCircle
 10
721.5095535738956
 20
120.7357615692196
 30
0.0
 40
10.67852791676719
100
AcDbArc
 50
270.0
 51
89.99999999989578
  0
LINE
  5
2A3
330
1F
100
AcDbEntity
  8
3
100
AcDbLine
 10
262.9048354376227
 20
110.057233652477
 30
0.0
 11
721.50955357392
 21
110.0572336524524
 31
0.0
  0
LINE
  5
2A4
330
1F
100
AcDbEntity
  8
3
100
AcDbLine
 10
361.1739782113242
 20
726.6661218350322
 30
0.0
 11
623.2404108002213
 21
726.6661218349638
 31
0.0
  0
LINE
  5
2A5
330
1F
100
AcDbEntity
  8
3
100
AcDbLine
 10
332.7640930246763
 20
641.6730903337382
 30
0.0
 11
651.6502959868666
 21
641.6730903337382
 31
0.0
  0
LINE
  5
2A6
330
1F
100
AcDbEntity
  8
3
100
AcDbLine
 10
131.6183644546314
 20
389.8584332440028
 30
0.0
 11
852.7960245569236
 21
389.8584332440275
 31
0.0
  0
SPLINE
  5
2A7
330
1F
100
AcDbEntity
  8
3
100
AcDbSpline
210
0.0
220
0.0
230
1.0
 70
     8
 71
     3
 72
     9
 73
     5
 74
     3
 42
0.0000000001
 43
0.0000000001
 44
0.0000000001
 40
0.0
 40
0.0
 40
0.0
 40
0.0
 40
210.8514958274462
 40
283.191838303722
 40
283.191838303722
 40
283.191838303722
 40
283.191838303722
 10
651.6502959868617
 20
641.6730903337431
 30
0.0
 10
785.9633576875649
 20
628.8921002962863
 30
0.0
 10
966.3574435912812
 20
611.7261226500523
 30
0.0
 10
900.3254809327637
 20
483.0800029623962
 30
0.0
 10
883.4578521843155
 20
450.2178116923639
 30
0.0
 11
651.6502959868617
 21
641.6730903337431
 31
0.0
 11
917.9807301207873
 21
541.5299856540712
 31
0.0
 11
883.4578521843155
 21
450.2178116923639
 31
0.0
  0
LINE
  5
2A8
330
1F
100
AcDbEntity
  8
3
100
AcDbLine
 10
883.4578521843154
 20
450.2178116923591
 30
0.0
 11
721.5095535739447
 21
131.4142894860359
 31
0.0
  0
LINE
  5
2A9
330
1F
100
AcDbEntity
  8
3
100
AcDbLine
 10
100.9565368272518
 20
450.2178116923395
 30
0.0
 11
262.9048354376227
 21
131.4142894860359
 31
0.0
  0
LINE
  5
2AA
330
1F
100
AcDbEntity
  8
3
100
AcDbLine
 10
262.9048354376227
 20
131.4142894860113
 30
0.0
 11
721.50955357392
 21
131.4142894859868
 31
0.0
  0
SPLINE
  5
2AB
330
1F
100
AcDbEntity
  8
3
100
AcDbSpline
210
0.0
220
0.0
230
1.0
 70
     8
 71
     3
 72
     9
 73
     5
 74
     3
 42
0.0000000001
 43
0.0000000001
 44
0.0000000001
 40
0.0
 40
0.0
 40
0.0
 40
0.0
 40
210.8514958274312
 40
283.1918383037068
 40
283.1918383037068
 40
283.1918383037068
 40
283.1918383037068
 10
332.7640930246788
 20
641.6730903337431
 30
0.0
 10
198.4510313239903
 20
628.8921002962743
 30
0.0
 10
18.05694542029083
 20
611.7261226500239
 30
0.0
 10
84.08890807880567
 20
483.0800029623764
 30
0.0
 10
100.9565368272542
 20
450.2178116923444
 30
0.0
 11
332.7640930246788
 21
641.6730903337431
 31
0.0
 11
66.43365889078217
 21
541.5299856540514
 31
0.0
 11
100.9565368272542
 21
450.2178116923444
 31
0.0
  0
LINE
  5
2AC
330
1F
100
AcDbEntity
  8
3
100
AcDbLine
 10
583.5151538010148
 20
845.5110237888122
 30
0.0
 11
651.6502959868416
 21
641.6730903337382
 31
0.0
  0
LINE
  5
2AD
330
1F
100
AcDbEntity
  8
3
100
AcDbLine
 10
400.8992352104963
 20
845.5110237888122
 30
0.0
 11
332.7640930246763
 21
641.6730903337382
 31
0.0
  0
ARC
  5
2AE
330
1F
100
AcDbEntity
  8
3
100
AcDbCircle
 10
492.2071945057848
 20
768.235583758306
 30
0.0
 40
119.6187153524875
100
AcDbArc
 50
40.24179156335383
 51
139.7582084366461
  0
LINE
  5
2AF
330
1F
100
AcDbEntity
  8
3
100
AcDbLine
 10
400.8992352104963
 20
845.5110237888561
 30
0.0
 11
583.5151538010388
 21
845.5110237888561
 31
0.0
  0
LWPOLYLINE
  5
2B0
330
1F
100
AcDbEntity
  8
0
 62
     2
100
AcDbPolyline
 90
        4
 70
     1
 43
0.0
 10
0.0000429253850598
 20
-0.0000276479768218
 10
1000.000042925385
 20
-0.0000276479768218
 10
1000.000042925385
 20
999.9999723520232
 10
0.0000429253850598
 20
999.9999723520232
  0
LINE
  5
2B1
330
1F
100
AcDbEntity
  8
1
 62
     1
100
AcDbLine
 10
33.00875113632753
 20
73.03798986060446
 30
0.0
 11
969.0814945326875
 21
73.03798986060446
 31
0.0
  0
LINE
  5
2B2
330
1F
100
AcDbEntity
  8
1
 62
     1
100
AcDbLine
 10
969.0814945326875
 20
73.03798986060446
 30
0.0
 11
969.0814945326874
 21
926.9619548434418
 31
0.0
  0
LINE
  5
2B3
330
1F
100
AcDbEntity
  8
1
 62
     1
100
AcDbLine
 10
969.0814945326874
 20
926.9619548434418
 30
0.0
 11
33.00875113632753
 21
926.9619548434418
 31
0.0
  0
LINE
  5
2B4
330
1F
100
AcDbEntity
  8
1
 62
     1
100
AcDbLine
 10
33.00875113632753
 20
926.9619548434418
 30
0.0
 11
33.00875113632753
 21
73.03798986060446
 31
0.0
  0
ENDSEC
  0
SECTION
  2
OBJECTS
  0
DICTIONARY
  5
C
330
0
100
AcDbDictionary
281
     1
  3
ACAD_COLOR
350
6B
  3
ACAD_GROUP
350
D
  3
ACAD_LAYOUT
350
1A
  3
ACAD_MATERIAL
350
6A
  3
ACAD_MLINESTYLE
350
17
  3
ACAD_PLOTSETTINGS
350
19
  3
ACAD_PLOTSTYLENAME
350
E
  3
ACDBHEADERROUNDTRIPXREC
350
2DD
  3
AcDbVariableDictionary
350
5E
  0
DICTIONARY
  5
6B
102
{ACAD_REACTORS
330
C
102
}
330
C
100
AcDbDictionary
281
     1
  0
DICTIONARY
  5
D
102
{ACAD_REACTORS
330
C
102
}
330
C
100
AcDbDictionary
281
     1
  0
DICTIONARY
  5
1A
102
{ACAD_REACTORS
330
C
102
}
330
C
100
AcDbDictionary
281
     1
  3
Layout1
350
51
  3
Layout2
350
56
  3
Model
350
22
  0
DICTIONARY
  5
6A
102
{ACAD_REACTORS
330
C
102
}
330
C
100
AcDbDictionary
281
     1
  0
DICTIONARY
  5
17
102
{ACAD_REACTORS
330
C
102
}
330
C
100
AcDbDictionary
281
     1
  3
Standard
350
18
  0
DICTIONARY
  5
19
102
{ACAD_REACTORS
330
C
102
}
330
C
100
AcDbDictionary
281
     1
  0
ACDBDICTIONARYWDFLT
  5
E
102
{ACAD_REACTORS
330
C
102
}
330
C
100
AcDbDictionary
281
     1
  3
Normal
350
F
100
AcDbDictionaryWithDefault
340
F
  0
DICTIONARY
  5
2DD
102
{ACAD_REACTORS
330
C
102
}
330
C
100
AcDbDictionary
281
     1
  3
COLORDICT
350
2DF
  3
MATERIALDICT
350
2DE
  0
DICTIONARY
  5
5E
102
{ACAD_REACTORS
330
C
102
}
330
C
100
AcDbDictionary
281
     1
  3
DIMASSOC
350
5F
  3
HIDETEXT
350
63
  3
PROJECTNAME
350
85
  0
LAYOUT
  5
51
102
{ACAD_XDICTIONARY
360
2E2
102
}
102
{ACAD_REACTORS
330
1A
102
}
330
1A
100
AcDbPlotSettings
  1

  2
None
  4

  6

 40
0.0
 41
0.0
 42
0.0
 43
0.0
 44
0.0
 45
0.0
 46
0.0
 47
0.0
 48
0.0
 49
0.0
140
0.0
141
0.0
142
1.0
143
1.0
 70
   688
 72
     0
 73
     0
 74
     5
  7

 75
    16
147
1.0
148
0.0
149
0.0
100
AcDbLayout
  1
Layout1
 70
     1
 71
     1
 10
0.0
 20
0.0
 11
12.0
 21
9.0
 12
0.0
 22
0.0
 32
0.0
 14
0.0
 24
0.0
 34
0.0
 15
0.0
 25
0.0
 35
0.0
146
0.0
 13
0.0
 23
0.0
 33
0.0
 16
1.0
 26
0.0
 36
0.0
 17
0.0
 27
1.0
 37
0.0
 76
     0
330
50
  0
LAYOUT
  5
56
102
{ACAD_XDICTIONARY
360
2E4
102
}
102
{ACAD_REACTORS
330
1A
102
}
330
1A
100
AcDbPlotSettings
  1

  2
None
  4

  6

 40
0.0
 41
0.0
 42
0.0
 43
0.0
 44
0.0
 45
0.0
 46
0.0
 47
0.0
 48
0.0
 49
0.0
140
0.0
141
0.0
142
1.0
143
1.0
 70
   688
 72
     0
 73
     0
 74
     5
  7

 75
    16
147
1.0
148
0.0
149
0.0
100
AcDbLayout
  1
Layout2
 70
     1
 71
     2
 10
0.0
 20
0.0
 11
12.0
 21
9.0
 12
0.0
 22
0.0
 32
0.0
 14
0.0
 24
0.0
 34
0.0
 15
0.0
 25
0.0
 35
0.0
146
0.0
 13
0.0
 23
0.0
 33
0.0
 16
1.0
 26
0.0
 36
0.0
 17
0.0
 27
1.0
 37
0.0
 76
     0
330
55
  0
LAYOUT
  5
22
102
{ACAD_XDICTIONARY
360
2E0
102
}
102
{ACAD_REACTORS
330
1A
102
}
330
1A
100
AcDbPlotSettings
  1

  2
none_device
  4
ANSI_A_(8.50_x_11.00_Inches)
  6

 40
6.349999904632567
 41
19.04999923706055
 42
6.350006103515625
 43
19.04998779296875
 44
215.8999938964844
 45
279.3999938964844
 46
0.0
 47
0.0
 48
0.0
 49
0.0
140
0.0
141
0.0
142
1.0
143
78.436453180766
 70
 11952
 72
     0
 73
     1
 74
     0
  7

 75
     0
147
0.0127491741332998
148
0.0
149
0.0
100
AcDbLayout
  1
Model
 70
     1
 71
     0
 10
0.0
 20
0.0
 11
12.0
 21
9.0
 12
0.0
 22
0.0
 32
0.0
 14
0.0
 24
0.0
 34
0.0
 15
0.0
 25
0.0
 35
0.0
146
0.0
 13
0.0
 23
0.0
 33
0.0
 16
1.0
 26
0.0
 36
0.0
 17
0.0
 27
1.0
 37
0.0
 76
     0
330
1F
  0
MLINESTYLE
  5
18
102
{ACAD_REACTORS
330
17
102
}
330
17
100
AcDbMlineStyle
  2
STANDARD
 70
     0
  3

 62
   256
 51
90.0
 52
90.0
 71
     2
 49
0.5
 62
   256
  6
BYLAYER
 49
-0.5
 62
   256
  6
BYLAYER
  0
ACDBPLACEHOLDER
  5
F
102
{ACAD_REACTORS
330
E
102
}
330
E
  0
XRECORD
  5
2DF
102
{ACAD_REACTORS
330
2DD
102
}
330
2DD
100
AcDbXrecord
280
     1
340
6B
  0
XRECORD
  5
2DE
102
{ACAD_REACTORS
330
2DD
102
}
330
2DD
100
AcDbXrecord
280
     1
340
6A
  0
DICTIONARYVAR
  5
5F
102
{ACAD_REACTORS
330
5E
102
}
330
5E
100
DictionaryVariables
280
     0
  1
2
  0
DICTIONARYVAR
  5
63
102
{ACAD_REACTORS
330
5E
102
}
330
5E
100
DictionaryVariables
280
     0
  1
1
  0
DICTIONARYVAR
  5
85
102
{ACAD_REACTORS
330
5E
102
}
330
5E
100
DictionaryVariables
280
     0
  1

  0
DICTIONARY
  5
2E2
330
51
100
AcDbDictionary
280
     1
281
     1
  3
ACAD_XREC_ROUNDTRIP
360
2E3
  0
DICTIONARY
  5
2E4
330
56
100
AcDbDictionary
280
     1
281
     1
  3
ACAD_XREC_ROUNDTRIP
360
2E5
  0
DICTIONARY
  5
2E0
330
22
100
AcDbDictionary
280
     1
281
     1
  3
ACAD_XREC_ROUNDTRIP
360
2E1
  0
XRECORD
  5
2E3
102
{ACAD_REACTORS
330
2E2
102
}
330
2E2
100
AcDbXrecord
280
     1
102
SHADEPLOT
 70
     0
102
SHADEPLOTRESLEVEL
 70
     2
102
SHADEPLOTCUSTOMDPI
 70
   300
  0
XRECORD
  5
2E5
102
{ACAD_REACTORS
330
2E4
102
}
330
2E4
100
AcDbXrecord
280
     1
102
SHADEPLOT
 70
     0
102
SHADEPLOTRESLEVEL
 70
     2
102
SHADEPLOTCUSTOMDPI
 70
   300
  0
XRECORD
  5
2E1
102
{ACAD_REACTORS
330
2E0
102
}
330
2E0
100
AcDbXrecord
280
     1
102
SHADEPLOT
 70
     0
102
SHADEPLOTRESLEVEL
 70
     2
102
SHADEPLOTCUSTOMDPI
 70
   300
  0
ENDSEC
  0
EOF
