  0
SECTION
  2
HEADER
  9
$ACADVER
  1
AC1015
  9
$ACADMAINTVER
 70
    20
  9
$DWGCODEPAGE
  3
ANSI_936
  9
$INSBASE
 10
0.0
 20
0.0
 30
0.0
  9
$EXTMIN
 10
0.0000479398731841
 20
-0.0000276479768218
 30
0.0
  9
$EXTMAX
 10
1000.000047939873
 20
999.9999723520232
 30
0.0
  9
$LIMMIN
 10
0.0
 20
0.0
  9
$LIMMAX
 10
420.0
 20
297.0
  9
$ORTHOMODE
 70
     0
  9
$REGENMODE
 70
     1
  9
$FILLMODE
 70
     1
  9
$QTEXTMODE
 70
     0
  9
$MIRRTEXT
 70
     0
  9
$LTSCALE
 40
1.0
  9
$ATTMODE
 70
     1
  9
$TEXTSIZE
 40
2.5
  9
$TRACEWID
 40
1.0
  9
$TEXTSTYLE
  7
Standard
  9
$CLAYER
  8
2
  9
$CELTYPE
  6
ByLayer
  9
$CECOLOR
 62
   256
  9
$CELTSCALE
 40
1.0
  9
$DISPSILH
 70
     0
  9
$DIMSCALE
 40
1.0
  9
$DIMASZ
 40
2.5
  9
$DIMEXO
 40
0.625
  9
$DIMDLI
 40
3.75
  9
$DIMRND
 40
0.0
  9
$DIMDLE
 40
0.0
  9
$DIMEXE
 40
1.25
  9
$DIMTP
 40
0.0
  9
$DIMTM
 40
0.0
  9
$DIMTXT
 40
2.5
  9
$DIMCEN
 40
2.5
  9
$DIMTSZ
 40
0.0
  9
$DIMTOL
 70
     0
  9
$DIMLIM
 70
     0
  9
$DIMTIH
 70
     0
  9
$DIMTOH
 70
     0
  9
$DIMSE1
 70
     0
  9
$DIMSE2
 70
     0
  9
$DIMTAD
 70
     1
  9
$DIMZIN
 70
     8
  9
$DIMBLK
  1

  9
$DIMASO
 70
     1
  9
$DIMSHO
 70
     1
  9
$DIMPOST
  1

  9
$DIMAPOST
  1

  9
$DIMALT
 70
     0
  9
$DIMALTD
 70
     3
  9
$DIMALTF
 40
0.03937007874016
  9
$DIMLFAC
 40
1.0
  9
$DIMTOFL
 70
     1
  9
$DIMTVP
 40
0.0
  9
$DIMTIX
 70
     0
  9
$DIMSOXD
 70
     0
  9
$DIMSAH
 70
     0
  9
$DIMBLK1
  1

  9
$DIMBLK2
  1

  9
$DIMSTYLE
  2
ISO-25
  9
$DIMCLRD
 70
     0
  9
$DIMCLRE
 70
     0
  9
$DIMCLRT
 70
     0
  9
$DIMTFAC
 40
1.0
  9
$DIMGAP
 40
0.625
  9
$DIMJUST
 70
     0
  9
$DIMSD1
 70
     0
  9
$DIMSD2
 70
     0
  9
$DIMTOLJ
 70
     0
  9
$DIMTZIN
 70
     8
  9
$DIMALTZ
 70
     0
  9
$DIMALTTZ
 70
     0
  9
$DIMUPT
 70
     0
  9
$DIMDEC
 70
     2
  9
$DIMTDEC
 70
     2
  9
$DIMALTU
 70
     2
  9
$DIMALTTD
 70
     3
  9
$DIMTXSTY
  7
Standard
  9
$DIMAUNIT
 70
     0
  9
$DIMADEC
 70
     0
  9
$DIMALTRND
 40
0.0
  9
$DIMAZIN
 70
     0
  9
$DIMDSEP
 70
    44
  9
$DIMATFIT
 70
     3
  9
$DIMFRAC
 70
     0
  9
$DIMLDRBLK
  1

  9
$DIMLUNIT
 70
     2
  9
$DIMLWD
 70
    -2
  9
$DIMLWE
 70
    -2
  9
$DIMTMOVE
 70
     0
  9
$LUNITS
 70
     2
  9
$LUPREC
 70
     4
  9
$SKETCHINC
 40
1.0
  9
$FILLETRAD
 40
0.0
  9
$AUNITS
 70
     0
  9
$AUPREC
 70
     0
  9
$MENU
  1
.
  9
$ELEVATION
 40
0.0
  9
$PELEVATION
 40
0.0
  9
$THICKNESS
 40
0.0
  9
$LIMCHECK
 70
     0
  9
$CHAMFERA
 40
0.0
  9
$CHAMFERB
 40
0.0
  9
$CHAMFERC
 40
0.0
  9
$CHAMFERD
 40
0.0
  9
$SKPOLY
 70
     0
  9
$TDCREATE
 40
2455505.725807523
  9
$TDUCREATE
 40
2455505.392474190
  9
$TDUPDATE
 40
2457095.669464699
  9
$TDUUPDATE
 40
2457095.336131366
  9
$TDINDWG
 40
0.0510522106
  9
$TDUSRTIMER
 40
0.0510518519
  9
$USRTIMER
 70
     1
  9
$ANGBASE
 50
0.0
  9
$ANGDIR
 70
     0
  9
$PDMODE
 70
     0
  9
$PDSIZE
 40
0.0
  9
$PLINEWID
 40
0.0
  9
$SPLFRAME
 70
     0
  9
$SPLINETYPE
 70
     6
  9
$SPLINESEGS
 70
     8
  9
$HANDSEED
  5
2B3
  9
$SURFTAB1
 70
     6
  9
$SURFTAB2
 70
     6
  9
$SURFTYPE
 70
     6
  9
$SURFU
 70
     6
  9
$SURFV
 70
     6
  9
$UCSBASE
  2

  9
$UCSNAME
  2

  9
$UCSORG
 10
0.0
 20
0.0
 30
0.0
  9
$UCSXDIR
 10
1.0
 20
0.0
 30
0.0
  9
$UCSYDIR
 10
0.0
 20
1.0
 30
0.0
  9
$UCSORTHOREF
  2

  9
$UCSORTHOVIEW
 70
     0
  9
$UCSORGTOP
 10
0.0
 20
0.0
 30
0.0
  9
$UCSORGBOTTOM
 10
0.0
 20
0.0
 30
0.0
  9
$UCSORGLEFT
 10
0.0
 20
0.0
 30
0.0
  9
$UCSORGRIGHT
 10
0.0
 20
0.0
 30
0.0
  9
$UCSORGFRONT
 10
0.0
 20
0.0
 30
0.0
  9
$UCSORGBACK
 10
0.0
 20
0.0
 30
0.0
  9
$PUCSBASE
  2

  9
$PUCSNAME
  2

  9
$PUCSORG
 10
0.0
 20
0.0
 30
0.0
  9
$PUCSXDIR
 10
1.0
 20
0.0
 30
0.0
  9
$PUCSYDIR
 10
0.0
 20
1.0
 30
0.0
  9
$PUCSORTHOREF
  2

  9
$PUCSORTHOVIEW
 70
     0
  9
$PUCSORGTOP
 10
0.0
 20
0.0
 30
0.0
  9
$PUCSORGBOTTOM
 10
0.0
 20
0.0
 30
0.0
  9
$PUCSORGLEFT
 10
0.0
 20
0.0
 30
0.0
  9
$PUCSORGRIGHT
 10
0.0
 20
0.0
 30
0.0
  9
$PUCSORGFRONT
 10
0.0
 20
0.0
 30
0.0
  9
$PUCSORGBACK
 10
0.0
 20
0.0
 30
0.0
  9
$USERI1
 70
     0
  9
$USERI2
 70
     0
  9
$USERI3
 70
     0
  9
$USERI4
 70
     0
  9
$USERI5
 70
     0
  9
$USERR1
 40
0.0
  9
$USERR2
 40
0.0
  9
$USERR3
 40
0.0
  9
$USERR4
 40
0.0
  9
$USERR5
 40
0.0
  9
$WORLDVIEW
 70
     1
  9
$SHADEDGE
 70
     3
  9
$SHADEDIF
 70
    70
  9
$TILEMODE
 70
     1
  9
$MAXACTVP
 70
    64
  9
$PINSBASE
 10
0.0
 20
0.0
 30
0.0
  9
$PLIMCHECK
 70
     0
  9
$PEXTMIN
 10
0.0
 20
0.0
 30
0.0
  9
$PEXTMAX
 10
0.0
 20
0.0
 30
0.0
  9
$PLIMMIN
 10
0.0
 20
0.0
  9
$PLIMMAX
 10
12.0
 20
9.0
  9
$UNITMODE
 70
     0
  9
$VISRETAIN
 70
     1
  9
$PLINEGEN
 70
     0
  9
$PSLTSCALE
 70
     1
  9
$TREEDEPTH
 70
  3020
  9
$CMLSTYLE
  2
Standard
  9
$CMLJUST
 70
     0
  9
$CMLSCALE
 40
20.0
  9
$PROXYGRAPHICS
 70
     1
  9
$MEASUREMENT
 70
     1
  9
$CELWEIGHT
370
    -1
  9
$ENDCAPS
280
     0
  9
$JOINSTYLE
280
     0
  9
$LWDISPLAY
290
     0
  9
$INSUNITS
 70
     4
  9
$HYPERLINKBASE
  1

  9
$STYLESHEET
  1

  9
$XEDIT
290
     1
  9
$CEPSNTYPE
380
     0
  9
$PSTYLEMODE
290
     1
  9
$FINGERPRINTGUID
  2
{FDEAD578-A652-11D2-9A35-0060089B3A3F}
  9
$VERSIONGUID
  2
{E0C076C2-4CDB-43C9-BFAD-A4CF19CFEADF}
  9
$EXTNAMES
290
     1
  9
$PSVPSCALE
 40
0.0
  9
$OLESTARTUP
290
     0
  0
ENDSEC
  0
SECTION
  2
CLASSES
  0
CLASS
  1
ACDBDICTIONARYWDFLT
  2
AcDbDictionaryWithDefault
  3
ObjectDBX Classes
 90
        0
280
     0
281
     0
  0
CLASS
  1
ACDBPLACEHOLDER
  2
AcDbPlaceHolder
  3
ObjectDBX Classes
 90
        0
280
     0
281
     0
  0
CLASS
  1
LAYOUT
  2
AcDbLayout
  3
ObjectDBX Classes
 90
        0
280
     0
281
     0
  0
CLASS
  1
DICTIONARYVAR
  2
AcDbDictionaryVar
  3
ObjectDBX Classes
 90
        0
280
     0
281
     0
  0
ENDSEC
  0
SECTION
  2
TABLES
  0
TABLE
  2
VPORT
  5
8
330
0
100
AcDbSymbolTable
 70
     2
  0
VPORT
  5
2A9
330
8
100
AcDbSymbolTableRecord
100
AcDbViewportTableRecord
  2
*Active
 70
     0
 10
0.0
 20
0.0
 11
1.0
 21
1.0
 12
730.4882373845067
 22
530.552542210361
 13
0.0
 23
0.0
 14
10.0
 24
10.0
 15
10.0
 25
10.0
 16
0.0
 26
0.0
 36
1.0
 17
0.0
 27
0.0
 37
0.0
 40
1430.803447836912
 41
1.68860353130016
 42
50.0
 43
0.0
 44
0.0
 50
0.0
 51
0.0
 71
     0
 72
  1000
 73
     1
 74
     3
 75
     0
 76
     0
 77
     0
 78
     0
281
     0
 65
     1
110
0.0
120
0.0
130
0.0
111
1.0
121
0.0
131
0.0
112
0.0
122
1.0
132
0.0
 79
     0
146
0.0
  0
ENDTAB
  0
TABLE
  2
LTYPE
  5
5
330
0
100
AcDbSymbolTable
 70
     1
  0
LTYPE
  5
14
330
5
100
AcDbSymbolTableRecord
100
AcDbLinetypeTableRecord
  2
ByBlock
 70
     0
  3

 72
    65
 73
     0
 40
0.0
  0
LTYPE
  5
15
330
5
100
AcDbSymbolTableRecord
100
AcDbLinetypeTableRecord
  2
ByLayer
 70
     0
  3

 72
    65
 73
     0
 40
0.0
  0
LTYPE
  5
16
330
5
100
AcDbSymbolTableRecord
100
AcDbLinetypeTableRecord
  2
Continuous
 70
     0
  3
Solid line
 72
    65
 73
     0
 40
0.0
  0
ENDTAB
  0
TABLE
  2
LAYER
  5
2
330
0
100
AcDbSymbolTable
 70
     4
  0
LAYER
  5
10
330
2
100
AcDbSymbolTableRecord
100
AcDbLayerTableRecord
  2
0
 70
     0
 62
     2
  6
Continuous
370
    -3
390
F
  0
LAYER
  5
94
330
2
100
AcDbSymbolTableRecord
100
AcDbLayerTableRecord
  2
1
 70
     0
 62
     1
  6
Continuous
370
    -3
390
F
  0
LAYER
  5
95
330
2
100
AcDbSymbolTableRecord
100
AcDbLayerTableRecord
  2
2
 70
     0
 62
     7
  6
Continuous
370
    -3
390
F
  0
LAYER
  5
10E
330
2
100
AcDbSymbolTableRecord
100
AcDbLayerTableRecord
  2
3
 70
     0
 62
     7
  6
Continuous
370
    -3
390
F
  0
ENDTAB
  0
TABLE
  2
STYLE
  5
3
330
0
100
AcDbSymbolTable
 70
     1
  0
STYLE
  5
11
330
3
100
AcDbSymbolTableRecord
100
AcDbTextStyleTableRecord
  2
Standard
 70
     0
 40
0.0
 41
1.0
 50
0.0
 71
     0
 42
2.5
  3
txt
  4

  0
ENDTAB
  0
TABLE
  2
VIEW
  5
6
330
0
100
AcDbSymbolTable
 70
     0
  0
ENDTAB
  0
TABLE
  2
UCS
  5
7
330
0
100
AcDbSymbolTable
 70
     0
  0
ENDTAB
  0
TABLE
  2
APPID
  5
9
330
0
100
AcDbSymbolTable
 70
     1
  0
APPID
  5
12
330
9
100
AcDbSymbolTableRecord
100
AcDbRegAppTableRecord
  2
ACAD
 70
     0
  0
ENDTAB
  0
TABLE
  2
DIMSTYLE
  5
A
330
0
100
AcDbSymbolTable
 70
     1
100
AcDbDimStyleTable
 71
     0
  0
DIMSTYLE
105
27
330
A
100
AcDbSymbolTableRecord
100
AcDbDimStyleTableRecord
  2
ISO-25
 70
     0
 41
2.5
 42
0.625
 43
3.75
 44
1.25
 73
     0
 74
     0
 77
     1
 78
     8
140
2.5
141
2.5
143
0.03937007874016
147
0.625
171
     3
172
     1
271
     2
272
     2
274
     3
278
    44
283
     0
284
     8
340
11
  0
ENDTAB
  0
TABLE
  2
BLOCK_RECORD
  5
1
330
0
100
AcDbSymbolTable
 70
     1
  0
BLOCK_RECORD
  5
1F
330
1
100
AcDbSymbolTableRecord
100
AcDbBlockTableRecord
  2
*Model_Space
340
22
  0
BLOCK_RECORD
  5
50
330
1
100
AcDbSymbolTableRecord
100
AcDbBlockTableRecord
  2
*Paper_Space
340
51
  0
BLOCK_RECORD
  5
55
330
1
100
AcDbSymbolTableRecord
100
AcDbBlockTableRecord
  2
*Paper_Space0
340
56
  0
ENDTAB
  0
ENDSEC
  0
SECTION
  2
BLOCKS
  0
BLOCK
  5
20
330
1F
100
AcDbEntity
  8
0
100
AcDbBlockBegin
  2
*Model_Space
 70
     0
 10
0.0
 20
0.0
 30
0.0
  3
*Model_Space
  1

  0
ENDBLK
  5
21
330
1F
100
AcDbEntity
  8
0
100
AcDbBlockEnd
  0
BLOCK
  5
52
330
50
100
AcDbEntity
 67
     1
  8
0
100
AcDbBlockBegin
  2
*Paper_Space
 70
     0
 10
0.0
 20
0.0
 30
0.0
  3
*Paper_Space
  1

  0
ENDBLK
  5
53
330
50
100
AcDbEntity
 67
     1
  8
0
100
AcDbBlockEnd
  0
BLOCK
  5
57
330
55
100
AcDbEntity
  8
0
100
AcDbBlockBegin
  2
*Paper_Space0
 70
     0
 10
0.0
 20
0.0
 30
0.0
  3
*Paper_Space0
  1

  0
ENDBLK
  5
58
330
55
100
AcDbEntity
  8
0
100
AcDbBlockEnd
  0
ENDSEC
  0
SECTION
  2
ENTITIES
  0
ELLIPSE
  5
27B
330
1F
100
AcDbEntity
  8
3
100
AcDbEllipse
 10
496.0608006135674
 20
578.2469058117237
 30
0.0
 11
-417.6241142080686
 21
-0.4709524019339482
 31
0.0
210
0.0
220
0.0
230
1.0
 40
0.690193591209794
 41
0.0
 42
3.141435801153811
  0
ELLIPSE
  5
27C
330
1F
100
AcDbEntity
  8
3
100
AcDbEllipse
 10
496.0557994493454
 20
578.6726468067857
 30
0.0
 11
-417.6291408646088
 21
0.0
 31
0.0
210
0.0
220
0.0
230
1.0
 40
0.3098367312538672
 41
1.137919256595488
 42
7.053425574421356
  0
LINE
  5
27D
330
1F
100
AcDbEntity
  8
1
 62
     1
100
AcDbLine
 10
27.28947916928809
 20
751.0756035368536
 30
0.0
 11
27.28947916928809
 21
248.9243411671927
 31
0.0
  0
LINE
  5
27E
330
1F
100
AcDbEntity
  8
1
 62
     1
100
AcDbLine
 10
972.7106167104581
 20
751.0756035368538
 30
0.0
 11
27.28947916928809
 21
751.0756035368536
 31
0.0
  0
LINE
  5
27F
330
1F
100
AcDbEntity
  8
1
 62
     1
100
AcDbLine
 10
972.7106167104581
 20
248.9243411671927
 30
0.0
 11
972.7106167104576
 21
751.0756035368538
 31
0.0
  0
LINE
  5
280
330
1F
100
AcDbEntity
  8
1
 62
     1
100
AcDbLine
 10
27.28947916928809
 20
248.9243411671927
 30
0.0
 11
972.7106167104581
 21
248.9243411671927
 31
0.0
  0
LWPOLYLINE
  5
281
330
1F
100
AcDbEntity
  8
0
 62
     2
100
AcDbPolyline
 90
        4
 70
     1
 43
0.0
 10
0.0000479398731841
 20
-0.0000276479768218
 10
1000.000047939873
 20
-0.0000276479768218
 10
1000.000047939873
 20
999.9999723520232
 10
0.0000479398731841
 20
999.9999723520232
  0
LINE
  5
282
330
1F
100
AcDbEntity
  8
3
100
AcDbLine
 10
210.2645937628185
 20
477.6184287586665
 30
0.0
 11
226.7968265966073
 21
450.6065687700728
 31
0.0
  0
LINE
  5
283
330
1F
100
AcDbEntity
  8
3
100
AcDbLine
 10
226.7968265966073
 20
450.6065687700728
 30
0.0
 11
314.1764041820967
 21
461.2801466201684
 31
0.0
  0
LINE
  5
284
330
1F
100
AcDbEntity
  8
3
100
AcDbLine
 10
228.7704557969443
 20
454.6921663617472
 30
0.0
 11
314.2166419194687
 21
465.129576850254
 31
0.0
  0
SPLINE
  5
285
330
1F
100
AcDbEntity
  8
3
100
AcDbSpline
210
0.0
220
0.0
230
1.0
 70
     8
 71
     3
 72
    88
 73
    84
 74
     0
 42
0.0000000001
 43
0.0000000001
 40
1.136625130241129
 40
1.136625130241129
 40
1.136625130241129
 40
1.136625130241129
 40
1.222987977648972
 40
1.222987977648972
 40
1.421937657636541
 40
1.421937657636541
 40
1.620887337624109
 40
1.620887337624109
 40
1.819837017611678
 40
1.819837017611678
 40
2.018786697599245
 40
2.018786697599245
 40
2.217736377586812
 40
2.217736377586812
 40
2.416686057574382
 40
2.416686057574382
 40
2.576930257433056
 40
2.576930257433056
 40
2.737174457291732
 40
2.737174457291732
 40
2.859993917266825
 40
2.859993917266825
 40
2.982813377241916
 40
2.982813377241916
 40
3.078882633200301
 40
3.078882633200301
 40
3.174951889158685
 40
3.174951889158685
 40
3.271021145117068
 40
3.271021145117068
 40
3.367090401075451
 40
3.367090401075451
 40
3.463159657033838
 40
3.463159657033838
 40
3.55922891299222
 40
3.55922891299222
 40
3.708570441550265
 40
3.708570441550265
 40
3.857911970108306
 40
3.857911970108306
 40
4.007253498666352
 40
4.007253498666352
 40
4.156595027224395
 40
4.156595027224395
 40
4.305936555782436
 40
4.305936555782436
 40
4.455278084340481
 40
4.455278084340481
 40
4.604619612898525
 40
4.604619612898525
 40
4.811798053212473
 40
4.811798053212473
 40
5.01897649352642
 40
5.01897649352642
 40
5.226154933840371
 40
5.226154933840371
 40
5.43333337415432
 40
5.43333337415432
 40
5.600090669129691
 40
5.600090669129691
 40
5.766847964105062
 40
5.766847964105062
 40
5.906004913025592
 40
5.906004913025592
 40
6.045161861946122
 40
6.045161861946122
 40
6.146370439140032
 40
6.146370439140032
 40
6.247579016333944
 40
6.247579016333944
 40
6.348787593527855
 40
6.348787593527855
 40
6.449996170721767
 40
6.449996170721767
 40
6.551204747915682
 40
6.551204747915682
 40
6.652413325109592
 40
6.652413325109592
 40
6.753621902303506
 40
6.753621902303506
 40
6.909162566655286
 40
6.909162566655286
 40
7.057880162169801
 40
7.057880162169801
 40
7.057880162169801
 40
7.057880162169801
 10
320.9191708753152
 20
465.0587378496764
 30
0.0
 10
331.7861652573594
 20
463.497550678672
 30
0.0
 10
342.8729549706496
 20
462.0815126498587
 30
0.0
 10
380.0881187366016
 20
457.901121598115
 30
0.0
 10
406.9850258781277
 20
455.7877901516288
 30
0.0
 10
461.6040749756423
 20
453.2498832382573
 30
0.0
 10
489.324839741469
 20
452.8253517679683
 30
0.0
 10
544.4896581434131
 20
453.6822284693662
 30
0.0
 10
571.9323152254997
 20
454.9636211956118
 30
0.0
 10
625.4494834285453
 20
459.1806549873566
 30
0.0
 10
651.5226572472715
 20
462.1162295252449
 30
0.0
 10
701.2612554012603
 20
469.5223563900829
 30
0.0
 10
724.9254868899948
 20
473.9928477199335
 30
0.0
 10
768.8967249570337
 20
484.2841717810371
 30
0.0
 10
789.2027643287729
 20
490.1051476107264
 30
0.0
 10
822.0874065462314
 20
501.6077730610144
 30
0.0
 10
835.4017807192862
 20
507.0958957660187
 30
0.0
 10
858.9569450936293
 20
518.6170859067589
 30
0.0
 10
869.1968371732061
 20
524.6510798790884
 30
0.0
 10
884.3191747686264
 20
535.59812567347
 30
0.0
 10
889.8941183285639
 20
540.4432229759083
 30
0.0
 10
898.9982461981828
 20
550.1941016297914
 30
0.0
 10
902.5254609617206
 20
555.0971526223629
 30
0.0
 10
907.0094187051516
 20
563.7733480750974
 30
0.0
 10
908.3613477944812
 20
567.5586979828404
 30
0.0
 10
909.886493843156
 20
575.0842363939375
 30
0.0
 10
910.0626361941271
 20
578.8264660584565
 30
0.0
 10
909.2541226766611
 20
586.3330605463722
 30
0.0
 10
908.2675687484188
 20
590.100890157207
 30
0.0
 10
905.0794161726773
 20
597.6902915774358
 30
0.0
 10
902.8754735427867
 20
601.5106542581136
 30
0.0
 10
897.2140937505075
 20
609.1571631224399
 30
0.0
 10
893.7568675933327
 20
612.9817712414751
 30
0.0
 10
885.6008508717486
 20
620.5675128744567
 30
0.0
 10
880.902649826797
 20
624.3282809133745
 30
0.0
 10
867.3699373823184
 20
633.7773448814137
 30
0.0
 10
857.6854151633572
 20
639.3769932397797
 30
0.0
 10
835.6503341422623
 20
650.0996866732971
 30
0.0
 10
823.3003806997565
 20
655.2233785754768
 30
0.0
 10
796.2270003663031
 20
664.8587465641976
 30
0.0
 10
781.5037925715512
 20
669.3706753395876
 30
0.0
 10
750.0234736601387
 20
677.6721528222324
 30
0.0
 10
733.266576602404
 20
681.4617673314715
 30
0.0
 10
698.0999497148205
 20
688.2292798638602
 30
0.0
 10
679.6904769588772
 20
691.2071778850106
 30
0.0
 10
641.6343052304698
 20
696.282345566796
 30
0.0
 10
621.9878999964396
 20
698.3795976083447
 30
0.0
 10
581.8997080013621
 20
701.6454014241635
 30
0.0
 10
561.4582394031006
 20
702.8139367615286
 30
0.0
 10
512.2570509873725
 20
704.4631990679752
 30
0.0
 10
483.3424028847106
 20
704.5006516182627
 30
0.0
 10
426.109377667459
 20
702.7320112818768
 30
0.0
 10
397.7927015645299
 20
700.9259552839348
 30
0.0
 10
342.9771035813101
 20
695.5493842872049
 30
0.0
 10
316.4797790858147
 20
691.9789596766065
 30
0.0
 10
266.4499011665618
 20
683.2314842522305
 30
0.0
 10
242.9187252441135
 20
678.0544668828127
 30
0.0
 10
204.0501619679169
 20
667.4718795498217
 30
0.0
 10
188.0089191555961
 20
662.3085519989665
 30
0.0
 10
158.9727415016605
 20
651.2535548815305
 30
0.0
 10
145.9782455667845
 20
645.3613200696427
 30
0.0
 10
125.2880521649729
 20
634.0692914387589
 30
0.0
 10
117.071285223557
 20
628.7493251364995
 30
0.0
 10
103.1970645070532
 20
617.8979404140589
 30
0.0
 10
97.54227638129492
 20
612.3670333839092
 30
0.0
 10
90.05206502064288
 20
602.801804129792
 30
0.0
 10
87.59461938775835
 20
598.7727276651845
 30
0.0
 10
84.03855907381508
 20
590.7698334866359
 30
0.0
 10
82.93720424862561
 20
586.7978111106769
 30
0.0
 10
82.02788450954253
 20
578.8884901866862
 30
0.0
 10
82.21736999425862
 20
574.9468650949878
 30
0.0
 10
83.89894184001429
 20
567.0162712399517
 30
0.0
 10
85.39483092374918
 20
563.0248742757538
 30
0.0
 10
89.75850943312684
 20
554.9950368661436
 30
0.0
 10
92.62781832756727
 20
550.9590043185651
 30
0.0
 10
99.7581059679322
 20
542.9145487971639
 30
0.0
 10
104.0183404633045
 20
538.907362298717
 30
0.0
 10
113.8964500245175
 20
530.9983275392178
 30
0.0
 10
119.5137505873786
 20
527.0965865841975
 30
0.0
 10
135.4079923122871
 20
517.4122757937825
 30
0.0
 10
146.5686949614036
 20
511.7453383696529
 30
0.0
 10
171.1131862283146
 20
501.2265482777539
 30
0.0
 10
184.3775770206948
 20
496.3493164869087
 30
0.0
 10
198.7552624518493
 20
491.7980399740332
 30
0.0
  0
LINE
  5
286
330
1F
100
AcDbEntity
  8
3
100
AcDbLine
 10
212.7767841516941
 20
480.8240762815008
 30
0.0
 11
228.7704557969443
 21
454.6921663617472
 31
0.0
  0
ARC
  5
287
330
1F
100
AcDbEntity
  8
3
100
AcDbCircle
 10
317.3013787824872
 20
439.8762824219476
 30
0.0
 40
25.441
100
AcDbArc
 50
81.82464284763042
 51
96.96428453557068
  0
ARC
  5
288
330
1F
100
AcDbEntity
  8
3
100
AcDbCircle
 10
317.2611410451152
 20
436.0268521916398
 30
0.0
 40
25.441
100
AcDbArc
 50
81.85188321349183
 51
96.96428453557068
  0
ARC
  5
289
330
1F
100
AcDbEntity
  8
3
100
AcDbCircle
 10
188.5651861183409
 20
464.3376084195391
 30
0.0
 40
25.441
100
AcDbArc
 50
31.46813607539356
 51
72.28781845368049
  0
ARC
  5
28A
330
1F
100
AcDbEntity
  8
3
100
AcDbCircle
 10
191.0773765072164
 20
467.5432559423824
 30
0.0
 40
25.441
100
AcDbArc
 50
31.46813607539356
 51
72.4347435875012
  0
ENDSEC
  0
SECTION
  2
OBJECTS
  0
DICTIONARY
  5
C
330
0
100
AcDbDictionary
281
     1
  3
ACAD_COLOR
350
6B
  3
ACAD_GROUP
350
D
  3
ACAD_LAYOUT
350
1A
  3
ACAD_MATERIAL
350
6A
  3
ACAD_MLINESTYLE
350
17
  3
ACAD_PLOTSETTINGS
350
19
  3
ACAD_PLOTSTYLENAME
350
E
  3
ACDBHEADERROUNDTRIPXREC
350
2AA
  3
AcDbVariableDictionary
350
5E
  0
DICTIONARY
  5
6B
102
{ACAD_REACTORS
330
C
102
}
330
C
100
AcDbDictionary
281
     1
  0
DICTIONARY
  5
D
102
{ACAD_REACTORS
330
C
102
}
330
C
100
AcDbDictionary
281
     1
  0
DICTIONARY
  5
1A
102
{ACAD_REACTORS
330
C
102
}
330
C
100
AcDbDictionary
281
     1
  3
Layout1
350
51
  3
Layout2
350
56
  3
Model
350
22
  0
DICTIONARY
  5
6A
102
{ACAD_REACTORS
330
C
102
}
330
C
100
AcDbDictionary
281
     1
  0
DICTIONARY
  5
17
102
{ACAD_REACTORS
330
C
102
}
330
C
100
AcDbDictionary
281
     1
  3
Standard
350
18
  0
DICTIONARY
  5
19
102
{ACAD_REACTORS
330
C
102
}
330
C
100
AcDbDictionary
281
     1
  0
ACDBDICTIONARYWDFLT
  5
E
102
{ACAD_REACTORS
330
C
102
}
330
C
100
AcDbDictionary
281
     1
  3
Normal
350
F
100
AcDbDictionaryWithDefault
340
F
  0
DICTIONARY
  5
2AA
102
{ACAD_REACTORS
330
C
102
}
330
C
100
AcDbDictionary
281
     1
  3
COLORDICT
350
2AC
  3
MATERIALDICT
350
2AB
  0
DICTIONARY
  5
5E
102
{ACAD_REACTORS
330
C
102
}
330
C
100
AcDbDictionary
281
     1
  3
DIMASSOC
350
5F
  3
HIDETEXT
350
63
  3
PROJECTNAME
350
85
  0
LAYOUT
  5
51
102
{ACAD_XDICTIONARY
360
2AF
102
}
102
{ACAD_REACTORS
330
1A
102
}
330
1A
100
AcDbPlotSettings
  1

  2
None
  4

  6

 40
0.0
 41
0.0
 42
0.0
 43
0.0
 44
0.0
 45
0.0
 46
0.0
 47
0.0
 48
0.0
 49
0.0
140
0.0
141
0.0
142
1.0
143
1.0
 70
   688
 72
     0
 73
     0
 74
     5
  7

 75
    16
147
1.0
148
0.0
149
0.0
100
AcDbLayout
  1
Layout1
 70
     1
 71
     1
 10
0.0
 20
0.0
 11
12.0
 21
9.0
 12
0.0
 22
0.0
 32
0.0
 14
0.0
 24
0.0
 34
0.0
 15
0.0
 25
0.0
 35
0.0
146
0.0
 13
0.0
 23
0.0
 33
0.0
 16
1.0
 26
0.0
 36
0.0
 17
0.0
 27
1.0
 37
0.0
 76
     0
330
50
  0
LAYOUT
  5
56
102
{ACAD_XDICTIONARY
360
2B1
102
}
102
{ACAD_REACTORS
330
1A
102
}
330
1A
100
AcDbPlotSettings
  1

  2
None
  4

  6

 40
0.0
 41
0.0
 42
0.0
 43
0.0
 44
0.0
 45
0.0
 46
0.0
 47
0.0
 48
0.0
 49
0.0
140
0.0
141
0.0
142
1.0
143
1.0
 70
   688
 72
     0
 73
     0
 74
     5
  7

 75
    16
147
1.0
148
0.0
149
0.0
100
AcDbLayout
  1
Layout2
 70
     1
 71
     2
 10
0.0
 20
0.0
 11
12.0
 21
9.0
 12
0.0
 22
0.0
 32
0.0
 14
0.0
 24
0.0
 34
0.0
 15
0.0
 25
0.0
 35
0.0
146
0.0
 13
0.0
 23
0.0
 33
0.0
 16
1.0
 26
0.0
 36
0.0
 17
0.0
 27
1.0
 37
0.0
 76
     0
330
55
  0
LAYOUT
  5
22
102
{ACAD_XDICTIONARY
360
2AD
102
}
102
{ACAD_REACTORS
330
1A
102
}
330
1A
100
AcDbPlotSettings
  1

  2
none_device
  4
ANSI_A_(8.50_x_11.00_Inches)
  6

 40
6.349999904632567
 41
19.04999923706055
 42
6.350006103515625
 43
19.04998779296875
 44
215.8999938964844
 45
279.3999938964844
 46
0.0
 47
0.0
 48
0.0
 49
0.0
140
0.0
141
0.0
142
1.0
143
78.436453180766
 70
 11952
 72
     0
 73
     1
 74
     0
  7

 75
     0
147
0.0127491741332998
148
0.0
149
0.0
100
AcDbLayout
  1
Model
 70
     1
 71
     0
 10
0.0
 20
0.0
 11
12.0
 21
9.0
 12
0.0
 22
0.0
 32
0.0
 14
0.0
 24
0.0
 34
0.0
 15
0.0
 25
0.0
 35
0.0
146
0.0
 13
0.0
 23
0.0
 33
0.0
 16
1.0
 26
0.0
 36
0.0
 17
0.0
 27
1.0
 37
0.0
 76
     0
330
1F
  0
MLINESTYLE
  5
18
102
{ACAD_REACTORS
330
17
102
}
330
17
100
AcDbMlineStyle
  2
STANDARD
 70
     0
  3

 62
   256
 51
90.0
 52
90.0
 71
     2
 49
0.5
 62
   256
  6
BYLAYER
 49
-0.5
 62
   256
  6
BYLAYER
  0
ACDBPLACEHOLDER
  5
F
102
{ACAD_REACTORS
330
E
102
}
330
E
  0
XRECORD
  5
2AC
102
{ACAD_REACTORS
330
2AA
102
}
330
2AA
100
AcDbXrecord
280
     1
340
6B
  0
XRECORD
  5
2AB
102
{ACAD_REACTORS
330
2AA
102
}
330
2AA
100
AcDbXrecord
280
     1
340
6A
  0
DICTIONARYVAR
  5
5F
102
{ACAD_REACTORS
330
5E
102
}
330
5E
100
DictionaryVariables
280
     0
  1
2
  0
DICTIONARYVAR
  5
63
102
{ACAD_REACTORS
330
5E
102
}
330
5E
100
DictionaryVariables
280
     0
  1
1
  0
DICTIONARYVAR
  5
85
102
{ACAD_REACTORS
330
5E
102
}
330
5E
100
DictionaryVariables
280
     0
  1

  0
DICTIONARY
  5
2AF
330
51
100
AcDbDictionary
280
     1
281
     1
  3
ACAD_XREC_ROUNDTRIP
360
2B0
  0
DICTIONARY
  5
2B1
330
56
100
AcDbDictionary
280
     1
281
     1
  3
ACAD_XREC_ROUNDTRIP
360
2B2
  0
DICTIONARY
  5
2AD
330
22
100
AcDbDictionary
280
     1
281
     1
  3
ACAD_XREC_ROUNDTRIP
360
2AE
  0
XRECORD
  5
2B0
102
{ACAD_REACTORS
330
2AF
102
}
330
2AF
100
AcDbXrecord
280
     1
102
SHADEPLOT
 70
     0
102
SHADEPLOTRESLEVEL
 70
     2
102
SHADEPLOTCUSTOMDPI
 70
   300
  0
XRECORD
  5
2B2
102
{ACAD_REACTORS
330
2B1
102
}
330
2B1
100
AcDbXrecord
280
     1
102
SHADEPLOT
 70
     0
102
SHADEPLOTRESLEVEL
 70
     2
102
SHADEPLOTCUSTOMDPI
 70
   300
  0
XRECORD
  5
2AE
102
{ACAD_REACTORS
330
2AD
102
}
330
2AD
100
AcDbXrecord
280
     1
102
SHADEPLOT
 70
     0
102
SHADEPLOTRESLEVEL
 70
     2
102
SHADEPLOTCUSTOMDPI
 70
   300
  0
ENDSEC
  0
EOF
