  0
SECTION
  2
HEADER
  9
$ACADVER
  1
AC1018
  9
$ACADMAINTVER
 70
     0
  9
$DWGCODEPAGE
  3
ANSI_936
  9
$INSBASE
 10
0.0
 20
0.0
 30
0.0
  9
$EXTMIN
 10
-0.0000753979402361
 20
0.0000534156934009
 30
0.0
  9
$EXTMAX
 10
999.9999246020598
 20
1000.000053415693
 30
0.0
  9
$LIMMIN
 10
0.0
 20
0.0
  9
$LIMMAX
 10
420.0
 20
297.0
  9
$ORTHOMODE
 70
     0
  9
$REGENMODE
 70
     1
  9
$FILLMODE
 70
     1
  9
$QTEXTMODE
 70
     0
  9
$MIRRTEXT
 70
     0
  9
$LTSCALE
 40
1.0
  9
$ATTMODE
 70
     1
  9
$TEXTSIZE
 40
2.5
  9
$TRACEWID
 40
1.0
  9
$TEXTSTYLE
  7
Standard
  9
$CLAYER
  8
2
  9
$CELTYPE
  6
ByLayer
  9
$CECOLOR
 62
   256
  9
$CELTSCALE
 40
1.0
  9
$DISPSILH
 70
     0
  9
$DIMSCALE
 40
1.0
  9
$DIMASZ
 40
2.5
  9
$DIMEXO
 40
0.625
  9
$DIMDLI
 40
3.75
  9
$DIMRND
 40
0.0
  9
$DIMDLE
 40
0.0
  9
$DIMEXE
 40
1.25
  9
$DIMTP
 40
0.0
  9
$DIMTM
 40
0.0
  9
$DIMTXT
 40
2.5
  9
$DIMCEN
 40
2.5
  9
$DIMTSZ
 40
0.0
  9
$DIMTOL
 70
     0
  9
$DIMLIM
 70
     0
  9
$DIMTIH
 70
     0
  9
$DIMTOH
 70
     0
  9
$DIMSE1
 70
     0
  9
$DIMSE2
 70
     0
  9
$DIMTAD
 70
     1
  9
$DIMZIN
 70
     8
  9
$DIMBLK
  1

  9
$DIMASO
 70
     1
  9
$DIMSHO
 70
     1
  9
$DIMPOST
  1

  9
$DIMAPOST
  1

  9
$DIMALT
 70
     0
  9
$DIMALTD
 70
     3
  9
$DIMALTF
 40
0.03937007874016
  9
$DIMLFAC
 40
1.0
  9
$DIMTOFL
 70
     1
  9
$DIMTVP
 40
0.0
  9
$DIMTIX
 70
     0
  9
$DIMSOXD
 70
     0
  9
$DIMSAH
 70
     0
  9
$DIMBLK1
  1

  9
$DIMBLK2
  1

  9
$DIMSTYLE
  2
ISO-25
  9
$DIMCLRD
 70
     0
  9
$DIMCLRE
 70
     0
  9
$DIMCLRT
 70
     0
  9
$DIMTFAC
 40
1.0
  9
$DIMGAP
 40
0.625
  9
$DIMJUST
 70
     0
  9
$DIMSD1
 70
     0
  9
$DIMSD2
 70
     0
  9
$DIMTOLJ
 70
     0
  9
$DIMTZIN
 70
     8
  9
$DIMALTZ
 70
     0
  9
$DIMALTTZ
 70
     0
  9
$DIMUPT
 70
     0
  9
$DIMDEC
 70
     2
  9
$DIMTDEC
 70
     2
  9
$DIMALTU
 70
     2
  9
$DIMALTTD
 70
     3
  9
$DIMTXSTY
  7
Standard
  9
$DIMAUNIT
 70
     0
  9
$DIMADEC
 70
     0
  9
$DIMALTRND
 40
0.0
  9
$DIMAZIN
 70
     0
  9
$DIMDSEP
 70
    44
  9
$DIMATFIT
 70
     3
  9
$DIMFRAC
 70
     0
  9
$DIMLDRBLK
  1

  9
$DIMLUNIT
 70
     2
  9
$DIMLWD
 70
    -2
  9
$DIMLWE
 70
    -2
  9
$DIMTMOVE
 70
     0
  9
$LUNITS
 70
     2
  9
$LUPREC
 70
     4
  9
$SKETCHINC
 40
1.0
  9
$FILLETRAD
 40
0.0
  9
$AUNITS
 70
     0
  9
$AUPREC
 70
     0
  9
$MENU
  1
.
  9
$ELEVATION
 40
0.0
  9
$PELEVATION
 40
0.0
  9
$THICKNESS
 40
0.0
  9
$LIMCHECK
 70
     0
  9
$CHAMFERA
 40
0.0
  9
$CHAMFERB
 40
0.0
  9
$CHAMFERC
 40
0.0
  9
$CHAMFERD
 40
0.0
  9
$SKPOLY
 70
     0
  9
$TDCREATE
 40
2455505.725807523
  9
$TDUCREATE
 40
2455505.392474190
  9
$TDUPDATE
 40
2457135.886752384
  9
$TDUUPDATE
 40
2457135.553419051
  9
$TDINDWG
 40
0.0586881481
  9
$TDUSRTIMER
 40
0.0586873958
  9
$USRTIMER
 70
     1
  9
$ANGBASE
 50
0.0
  9
$ANGDIR
 70
     0
  9
$PDMODE
 70
     0
  9
$PDSIZE
 40
0.0
  9
$PLINEWID
 40
0.0
  9
$SPLFRAME
 70
     0
  9
$SPLINETYPE
 70
     6
  9
$SPLINESEGS
 70
     8
  9
$HANDSEED
  5
38B
  9
$SURFTAB1
 70
     6
  9
$SURFTAB2
 70
     6
  9
$SURFTYPE
 70
     6
  9
$SURFU
 70
     6
  9
$SURFV
 70
     6
  9
$UCSBASE
  2

  9
$UCSNAME
  2

  9
$UCSORG
 10
0.0
 20
0.0
 30
0.0
  9
$UCSXDIR
 10
1.0
 20
0.0
 30
0.0
  9
$UCSYDIR
 10
0.0
 20
1.0
 30
0.0
  9
$UCSORTHOREF
  2

  9
$UCSORTHOVIEW
 70
     0
  9
$UCSORGTOP
 10
0.0
 20
0.0
 30
0.0
  9
$UCSORGBOTTOM
 10
0.0
 20
0.0
 30
0.0
  9
$UCSORGLEFT
 10
0.0
 20
0.0
 30
0.0
  9
$UCSORGRIGHT
 10
0.0
 20
0.0
 30
0.0
  9
$UCSORGFRONT
 10
0.0
 20
0.0
 30
0.0
  9
$UCSORGBACK
 10
0.0
 20
0.0
 30
0.0
  9
$PUCSBASE
  2

  9
$PUCSNAME
  2

  9
$PUCSORG
 10
0.0
 20
0.0
 30
0.0
  9
$PUCSXDIR
 10
1.0
 20
0.0
 30
0.0
  9
$PUCSYDIR
 10
0.0
 20
1.0
 30
0.0
  9
$PUCSORTHOREF
  2

  9
$PUCSORTHOVIEW
 70
     0
  9
$PUCSORGTOP
 10
0.0
 20
0.0
 30
0.0
  9
$PUCSORGBOTTOM
 10
0.0
 20
0.0
 30
0.0
  9
$PUCSORGLEFT
 10
0.0
 20
0.0
 30
0.0
  9
$PUCSORGRIGHT
 10
0.0
 20
0.0
 30
0.0
  9
$PUCSORGFRONT
 10
0.0
 20
0.0
 30
0.0
  9
$PUCSORGBACK
 10
0.0
 20
0.0
 30
0.0
  9
$USERI1
 70
     0
  9
$USERI2
 70
     0
  9
$USERI3
 70
     0
  9
$USERI4
 70
     0
  9
$USERI5
 70
     0
  9
$USERR1
 40
0.0
  9
$USERR2
 40
0.0
  9
$USERR3
 40
0.0
  9
$USERR4
 40
0.0
  9
$USERR5
 40
0.0
  9
$WORLDVIEW
 70
     1
  9
$SHADEDGE
 70
     3
  9
$SHADEDIF
 70
    70
  9
$TILEMODE
 70
     1
  9
$MAXACTVP
 70
    64
  9
$PINSBASE
 10
0.0
 20
0.0
 30
0.0
  9
$PLIMCHECK
 70
     0
  9
$PEXTMIN
 10
0.0
 20
0.0
 30
0.0
  9
$PEXTMAX
 10
0.0
 20
0.0
 30
0.0
  9
$PLIMMIN
 10
0.0
 20
0.0
  9
$PLIMMAX
 10
12.0
 20
9.0
  9
$UNITMODE
 70
     0
  9
$VISRETAIN
 70
     1
  9
$PLINEGEN
 70
     0
  9
$PSLTSCALE
 70
     1
  9
$TREEDEPTH
 70
  3020
  9
$CMLSTYLE
  2
Standard
  9
$CMLJUST
 70
     0
  9
$CMLSCALE
 40
20.0
  9
$PROXYGRAPHICS
 70
     1
  9
$MEASUREMENT
 70
     1
  9
$CELWEIGHT
370
    -1
  9
$ENDCAPS
280
     0
  9
$JOINSTYLE
280
     0
  9
$LWDISPLAY
290
     0
  9
$INSUNITS
 70
     4
  9
$HYPERLINKBASE
  1

  9
$STYLESHEET
  1

  9
$XEDIT
290
     1
  9
$CEPSNTYPE
380
     0
  9
$PSTYLEMODE
290
     1
  9
$FINGERPRINTGUID
  2
{FDEAD578-A652-11D2-9A35-0060089B3A3F}
  9
$VERSIONGUID
  2
{FA017FFA-4EA9-4616-8C37-A1919608CAB3}
  9
$EXTNAMES
290
     1
  9
$PSVPSCALE
 40
0.0
  9
$OLESTARTUP
290
     0
  9
$SORTENTS
280
   127
  9
$INDEXCTL
280
     0
  9
$HIDETEXT
280
     1
  9
$XCLIPFRAME
290
     0
  9
$HALOGAP
280
     0
  9
$OBSCOLOR
 70
   257
  9
$OBSLTYPE
280
     0
  9
$INTERSECTIONDISPLAY
280
     0
  9
$INTERSECTIONCOLOR
 70
   257
  9
$DIMASSOC
280
     2
  9
$PROJECTNAME
  1

  0
ENDSEC
  0
SECTION
  2
CLASSES
  0
CLASS
  1
ACDBDICTIONARYWDFLT
  2
AcDbDictionaryWithDefault
  3
ObjectDBX Classes
 90
        0
 91
        1
280
     0
281
     0
  0
CLASS
  1
DICTIONARYVAR
  2
AcDbDictionaryVar
  3
ObjectDBX Classes
 90
        0
 91
        3
280
     0
281
     0
  0
ENDSEC
  0
SECTION
  2
TABLES
  0
TABLE
  2
VPORT
  5
8
330
0
100
AcDbSymbolTable
 70
     2
  0
VPORT
  5
38A
330
8
100
AcDbSymbolTableRecord
100
AcDbViewportTableRecord
  2
*Active
 70
     0
 10
0.0
 20
0.0
 11
1.0
 21
1.0
 12
131.699974148401
 22
658.3554629171401
 13
0.0
 23
0.0
 14
10.0
 24
10.0
 15
10.0
 25
10.0
 16
0.0
 26
0.0
 36
1.0
 17
0.0
 27
0.0
 37
0.0
 40
524.4485865079702
 41
2.456813819577734
 42
50.0
 43
0.0
 44
0.0
 50
0.0
 51
0.0
 71
     0
 72
  1000
 73
     1
 74
     3
 75
     0
 76
     0
 77
     0
 78
     0
281
     0
 65
     1
110
0.0
120
0.0
130
0.0
111
1.0
121
0.0
131
0.0
112
0.0
122
1.0
132
0.0
 79
     0
146
0.0
  0
ENDTAB
  0
TABLE
  2
LTYPE
  5
5
330
0
100
AcDbSymbolTable
 70
     1
  0
LTYPE
  5
14
330
5
100
AcDbSymbolTableRecord
100
AcDbLinetypeTableRecord
  2
ByBlock
 70
     0
  3

 72
    65
 73
     0
 40
0.0
  0
LTYPE
  5
15
330
5
100
AcDbSymbolTableRecord
100
AcDbLinetypeTableRecord
  2
ByLayer
 70
     0
  3

 72
    65
 73
     0
 40
0.0
  0
LTYPE
  5
16
330
5
100
AcDbSymbolTableRecord
100
AcDbLinetypeTableRecord
  2
Continuous
 70
     0
  3
Solid line
 72
    65
 73
     0
 40
0.0
  0
ENDTAB
  0
TABLE
  2
LAYER
  5
2
330
0
100
AcDbSymbolTable
 70
     4
  0
LAYER
  5
10
330
2
100
AcDbSymbolTableRecord
100
AcDbLayerTableRecord
  2
0
 70
     0
 62
     2
  6
Continuous
370
    -3
390
F
  0
LAYER
  5
94
330
2
100
AcDbSymbolTableRecord
100
AcDbLayerTableRecord
  2
1
 70
     0
 62
     1
  6
Continuous
370
    -3
390
F
  0
LAYER
  5
95
330
2
100
AcDbSymbolTableRecord
100
AcDbLayerTableRecord
  2
2
 70
     0
 62
     7
  6
Continuous
370
    -3
390
F
  0
LAYER
  5
10E
330
2
100
AcDbSymbolTableRecord
100
AcDbLayerTableRecord
  2
3
 70
     0
 62
     7
  6
Continuous
370
    -3
390
F
  0
ENDTAB
  0
TABLE
  2
STYLE
  5
3
330
0
100
AcDbSymbolTable
 70
     1
  0
STYLE
  5
11
330
3
100
AcDbSymbolTableRecord
100
AcDbTextStyleTableRecord
  2
Standard
 70
     0
 40
0.0
 41
1.0
 50
0.0
 71
     0
 42
2.5
  3
txt
  4

  0
ENDTAB
  0
TABLE
  2
VIEW
  5
6
330
0
100
AcDbSymbolTable
 70
     0
  0
ENDTAB
  0
TABLE
  2
UCS
  5
7
330
0
100
AcDbSymbolTable
 70
     0
  0
ENDTAB
  0
TABLE
  2
APPID
  5
9
330
0
100
AcDbSymbolTable
 70
     1
  0
APPID
  5
12
330
9
100
AcDbSymbolTableRecord
100
AcDbRegAppTableRecord
  2
ACAD
 70
     0
  0
ENDTAB
  0
TABLE
  2
DIMSTYLE
  5
A
330
0
100
AcDbSymbolTable
 70
     1
100
AcDbDimStyleTable
 71
     0
  0
DIMSTYLE
105
27
330
A
100
AcDbSymbolTableRecord
100
AcDbDimStyleTableRecord
  2
ISO-25
 70
     0
 41
2.5
 42
0.625
 43
3.75
 44
1.25
 73
     0
 74
     0
 77
     1
 78
     8
140
2.5
141
2.5
143
0.03937007874016
147
0.625
171
     3
172
     1
271
     2
272
     2
274
     3
278
    44
283
     0
284
     8
340
11
  0
ENDTAB
  0
TABLE
  2
BLOCK_RECORD
  5
1
330
0
100
AcDbSymbolTable
 70
     1
  0
BLOCK_RECORD
  5
1F
330
1
100
AcDbSymbolTableRecord
100
AcDbBlockTableRecord
  2
*Model_Space
340
22
  0
BLOCK_RECORD
  5
50
330
1
100
AcDbSymbolTableRecord
100
AcDbBlockTableRecord
  2
*Paper_Space
340
51
  0
BLOCK_RECORD
  5
55
330
1
100
AcDbSymbolTableRecord
100
AcDbBlockTableRecord
  2
*Paper_Space0
340
56
  0
ENDTAB
  0
ENDSEC
  0
SECTION
  2
BLOCKS
  0
BLOCK
  5
20
330
1F
100
AcDbEntity
  8
0
100
AcDbBlockBegin
  2
*Model_Space
 70
     0
 10
0.0
 20
0.0
 30
0.0
  3
*Model_Space
  1

  0
ENDBLK
  5
21
330
1F
100
AcDbEntity
  8
0
100
AcDbBlockEnd
  0
BLOCK
  5
52
330
50
100
AcDbEntity
 67
     1
  8
0
100
AcDbBlockBegin
  2
*Paper_Space
 70
     0
 10
0.0
 20
0.0
 30
0.0
  3
*Paper_Space
  1

  0
ENDBLK
  5
53
330
50
100
AcDbEntity
 67
     1
  8
0
100
AcDbBlockEnd
  0
BLOCK
  5
57
330
55
100
AcDbEntity
  8
0
100
AcDbBlockBegin
  2
*Paper_Space0
 70
     0
 10
0.0
 20
0.0
 30
0.0
  3
*Paper_Space0
  1

  0
ENDBLK
  5
58
330
55
100
AcDbEntity
  8
0
100
AcDbBlockEnd
  0
ENDSEC
  0
SECTION
  2
ENTITIES
  0
LINE
  5
2CD
330
1F
100
AcDbEntity
  8
3
100
AcDbLine
 10
494.8633007179698
 20
139.1053801367997
 30
0.0
 11
524.8517196852413
 21
139.1053801367997
 31
0.0
  0
LINE
  5
2CE
330
1F
100
AcDbEntity
  8
3
100
AcDbLine
 10
484.3950650072117
 20
204.5472178112213
 30
0.0
 11
513.1940388394182
 21
204.5472178112213
 31
0.0
  0
LINE
  5
2CF
330
1F
100
AcDbEntity
  8
3
100
AcDbLine
 10
465.4935686959691
 20
432.7326253542405
 30
0.0
 11
483.6038916278114
 21
60.212094731062
 31
0.0
  0
LINE
  5
2D0
330
1F
100
AcDbEntity
  8
3
100
AcDbLine
 10
483.603891627815
 20
60.212094731062
 30
0.0
 11
521.0162723517409
 21
60.212094731062
 31
0.0
  0
LINE
  5
2D1
330
1F
100
AcDbEntity
  8
3
100
AcDbLine
 10
539.1265952835831
 20
432.7326253542405
 30
0.0
 11
521.0162723517409
 21
60.212094731062
 31
0.0
  0
LINE
  5
2D2
330
1F
100
AcDbEntity
  8
3
100
AcDbLine
 10
576.0112831672987
 20
578.2542959120016
 30
0.0
 11
576.0112831672987
 21
509.6030912197433
 31
0.0
  0
LINE
  5
2D3
330
1F
100
AcDbEntity
  8
3
100
AcDbLine
 10
589.8512001827896
 20
593.7986397782882
 30
0.0
 11
589.8512001827896
 21
501.084970777878
 31
0.0
  0
SPLINE
  5
2D4
102
{ACAD_REACTORS
330
389
102
}
330
1F
100
AcDbEntity
  8
3
100
AcDbSpline
210
0.0
220
0.0
230
1.0
 70
     8
 71
     3
 72
    13
 73
     9
 74
     7
 42
0.0000000001
 43
0.0000000001
 44
0.0000000001
 40
0.0
 40
0.0
 40
0.0
 40
0.0
 40
25.61451205743612
 40
67.10246815789429
 40
95.22883649780476
 40
183.6187748167378
 40
226.0569801456126
 40
257.6154660492887
 40
257.6154660492887
 40
257.6154660492887
 40
257.6154660492887
 10
468.0945682022206
 20
712.9848511346501
 30
0.0
 10
465.0506950909973
 20
720.8819956801106
 30
0.0
 10
457.0766451436655
 20
741.57018560978
 30
0.0
 10
450.8949981764007
 20
775.1631005569682
 30
0.0
 10
482.8515687993851
 20
822.1067994218838
 30
0.0
 10
446.2792281680321
 20
872.7038062215527
 30
0.0
 10
461.937982785266
 20
936.6674367901799
 30
0.0
 10
488.8385735476552
 20
938.0084667648729
 30
0.0
 10
500.3112745594807
 20
938.5803960612756
 30
0.0
 11
468.0945682022206
 21
712.9848511346501
 31
0.0
 11
459.4901619571063
 21
737.1109246052665
 31
0.0
 11
456.6334415157283
 21
778.5004117936016
 31
0.0
 11
467.7278460252179
 21
804.3462390113971
 31
0.0
 11
455.2050812946058
 21
891.844590764596
 31
0.0
 11
469.4882501377983
 21
931.80697757185
 31
0.0
 11
500.3112745594807
 21
938.5803960612756
 31
0.0
  0
SPLINE
  5
2D5
102
{ACAD_REACTORS
330
389
102
}
330
1F
100
AcDbEntity
  8
3
100
AcDbSpline
210
0.0
220
0.0
230
1.0
 70
     8
 71
     3
 72
    13
 73
     9
 74
     7
 42
0.0000000001
 43
0.0000000001
 44
0.0000000001
 40
0.0
 40
0.0
 40
0.0
 40
0.0
 40
24.95130906113163
 40
66.43926516158953
 40
94.56563350150387
 40
182.9555718205019
 40
225.393777149368
 40
256.9522630530481
 40
256.9522630530481
 40
256.9522630530481
 40
256.9522630530481
 10
532.5691408486241
 20
713.6750837540075
 30
0.0
 10
535.6047239237068
 20
721.3434999414042
 30
0.0
 10
543.6877430691684
 20
741.7626264567955
 30
0.0
 10
549.7076651964691
 20
775.1714565033478
 30
0.0
 10
517.7870384070558
 20
822.1000518502187
 30
0.0
 10
554.3405464666293
 20
872.7049720542613
 30
0.0
 10
538.6849012905859
 20
936.6672960423938
 30
0.0
 10
511.7840757154625
 20
938.0084246846346
 30
0.0
 10
500.3112745595035
 20
938.5803960612756
 30
0.0
 11
532.5691408486241
 21
713.6750837540075
 31
0.0
 11
541.1323871631459
 21
737.1109246055951
 31
0.0
 11
543.9891076041841
 21
778.5004117939534
 31
0.0
 11
532.8947030944882
 21
804.3462390116644
 31
0.0
 11
545.4174678247567
 21
891.8445907649781
 31
0.0
 11
531.134298981247
 21
931.8069775721097
 31
0.0
 11
500.3112745595035
 21
938.5803960612756
 31
0.0
  0
LINE
  5
2D7
330
1F
100
AcDbEntity
  8
3
100
AcDbLine
 10
532.5691408486241
 20
695.8063417860956
 30
0.0
 11
532.5691408486241
 21
713.675187193805
 31
0.0
  0
LINE
  5
2D8
330
1F
100
AcDbEntity
  8
3
100
AcDbLine
 10
468.0945682007155
 20
695.8115422827847
 30
0.0
 11
468.0945682000748
 21
712.9848511402165
 31
0.0
  0
ELLIPSE
  5
2D9
330
1F
100
AcDbEntity
  8
3
100
AcDbEllipse
 10
500.3112745594807
 20
695.806341786092
 30
0.0
 11
-32.25786628913106
 21
-0.0000000000059196
 31
0.0
210
0.0
220
0.0
230
1.0
 40
0.4237688326234835
 41
0.0
 42
3.141592653589792
  0
ELLIPSE
  5
2DA
330
1F
100
AcDbEntity
  8
3
100
AcDbEllipse
 10
457.9623007291365
 20
641.6639661295387
 30
0.0
 11
-59.02605029637069
 21
22.41348228454702
 31
0.0
210
0.0
220
0.0
230
1.0
 40
0.3055242942986249
 41
0.381005653958169
 42
2.528809942399798
  0
ELLIPSE
  5
2DB
330
1F
100
AcDbEntity
  8
3
100
AcDbEllipse
 10
546.6578632504076
 20
641.6639661295387
 30
0.0
 11
58.4917026625808
 21
22.44329757902625
 31
0.0
210
0.0
220
0.0
230
-1.0
 40
0.308326943048292
 41
0.3583233509824553
 42
2.541070076026365
  0
ELLIPSE
  5
2DC
330
1F
100
AcDbEntity
  8
3
100
AcDbEllipse
 10
546.794129477917
 20
670.4572567363753
 30
0.0
 11
-57.0672342900985
 21
17.89020297172586
 31
0.0
210
0.0
220
0.0
230
0.9999999999999998
 40
0.312036664047681
 41
3.336615061961921
 42
5.069703909722401
  0
ELLIPSE
  5
2DD
330
1F
100
AcDbEntity
  8
3
100
AcDbEllipse
 10
457.82603450162
 20
670.4572567363717
 30
0.0
 11
58.13776151165927
 21
22.50676208448432
 31
0.0
210
0.0
220
0.0
230
-0.9999999999999998
 40
0.3288005862717669
 41
3.487477273653451
 42
5.016985661377728
  0
ELLIPSE
  5
2DE
330
1F
100
AcDbEntity
  8
3
100
AcDbEllipse
 10
546.7941294779206
 20
454.1711401563223
 30
0.0
 11
57.0672342900978
 21
17.89020297172793
 31
0.0
210
0.0
220
0.0
230
-1.0
 40
0.3120366640476817
 41
0.1950224083727472
 42
1.802430684373356
  0
ELLIPSE
  5
2DF
330
1F
100
AcDbEntity
  8
3
100
AcDbEllipse
 10
457.8260345016238
 20
454.1711401563223
 30
0.0
 11
57.06723429009784
 21
-17.89020297172798
 31
0.0
210
0.0
220
0.0
230
0.9999999999999996
 40
0.312036664047681
 41
3.308022877700051
 42
4.944023337963103
  0
LINE
  5
2E0
330
1F
100
AcDbEntity
  8
3
100
AcDbLine
 10
603.8613637680136
 20
656.3569980890486
 30
0.0
 11
603.8613637680136
 21
468.2713988036302
 31
0.0
  0
LINE
  5
2E1
330
1F
100
AcDbEntity
  8
3
100
AcDbLine
 10
400.6225339840177
 20
655.7642247768542
 30
0.0
 11
400.6225339840177
 21
468.8641721158322
 31
0.0
  0
LINE
  5
2E2
330
1F
100
AcDbEntity
  8
3
100
AcDbLine
 10
474.3753826305932
 20
250.038034414314
 30
0.0
 11
507.5415653828798
 21
250.0380344142988
 31
0.0
  0
LINE
  5
2E3
330
1F
100
AcDbEntity
  8
3
100
AcDbLine
 10
473.435656701434
 20
269.3677395272632
 30
0.0
 11
501.6796035339086
 21
269.3677395272632
 31
0.0
  0
LINE
  5
2E4
330
1F
100
AcDbEntity
  8
3
100
AcDbLine
 10
472.2486331712093
 20
293.7842359644739
 30
0.0
 11
507.9371845718783
 21
293.7842359644815
 31
0.0
  0
LINE
  5
2E5
330
1F
100
AcDbEntity
  8
3
100
AcDbLine
 10
469.1628343481784
 20
357.2576162723114
 30
0.0
 11
535.4573296313774
 21
357.2576162723038
 31
0.0
  0
LWPOLYLINE
  5
2E6
330
1F
100
AcDbEntity
  8
0
 62
     2
100
AcDbPolyline
 90
        4
 70
     1
 43
0.0
 10
-0.0000753979402361
 20
0.0000534156934009
 10
999.9999246020598
 20
0.0000534156934009
 10
999.9999246020598
 20
1000.000053415693
 10
-0.0000753979402361
 20
1000.000053415693
  0
LINE
  5
2E7
330
1F
100
AcDbEntity
  8
1
 62
     1
100
AcDbLine
 10
655.3807649459254
 20
964.4954014882776
 30
0.0
 11
344.6190842581943
 21
964.4954014882774
 31
0.0
  0
LINE
  5
2E8
330
1F
100
AcDbEntity
  8
1
 62
     1
100
AcDbLine
 10
344.6190842581943
 20
964.4954014882774
 30
0.0
 11
344.6190842581943
 21
35.50470534310915
 31
0.0
  0
LINE
  5
2E9
330
1F
100
AcDbEntity
  8
1
 62
     1
100
AcDbLine
 10
344.6190842581943
 20
35.50470534310915
 30
0.0
 11
655.3807649459251
 21
35.50470534310915
 31
0.0
  0
LINE
  5
2EA
330
1F
100
AcDbEntity
  8
1
 62
     1
100
AcDbLine
 10
655.3807649459254
 20
35.50470534310915
 30
0.0
 11
655.3807649459251
 21
964.4954014882774
 31
0.0
  0
LWPOLYLINE
  5
346
102
{ACAD_REACTORS
330
389
102
}
330
1F
100
AcDbEntity
  8
2
100
AcDbPolyline
 90
       19
 70
     0
 43
0.0
 10
468.0945682022206
 20
712.9848511346501
 10
468.6316299827754
 20
711.0985452516424
 10
470.4882906725416
 20
708.465077880874
 10
472.9488227246169
 20
706.4354818724149
 10
475.7946212461447
 20
704.791152333408
 10
478.932263737646
 20
703.4386667643746
 10
482.3142664841148
 20
702.3305414503089
 10
485.9158305809429
 20
701.4419774866024
 10
489.7617549327386
 20
700.7977737778635
 10
493.7455693119303
 20
700.2914600965207
 10
497.9851339180068
 20
700.0408966420628
 10
502.4703274846002
 20
700.0359621481216
 10
507.2497703944375
 20
700.3252769974242
 10
512.4194627136676
 20
701.0048412561197
 10
518.2063794556851
 20
702.3016299376027
 10
525.564726636574
 20
705.1698490579569
 10
530.3125067966456
 20
709.200778979332
 10
531.7065360735423
 20
711.4809563188869
 10
532.5691408486241
 20
713.6750837540075
  0
HATCH
  5
389
330
1F
100
AcDbEntity
  8
2
100
AcDbHatch
 10
0.0
 20
0.0
 30
0.0
210
0.0
220
0.0
230
1.0
  2
SOLID
 70
     1
 71
     1
 91
        1
 92
        1
 93
       20
 72
     4
 94
        3
 73
     0
 74
     0
 95
       13
 96
        9
 40
0.0
 40
0.0
 40
0.0
 40
0.0
 40
24.95130906113163
 40
66.43926516158953
 40
94.56563350150387
 40
182.9555718205019
 40
225.393777149368
 40
256.9522630530481
 40
256.9522630530481
 40
256.9522630530481
 40
256.9522630530481
 10
532.5691408486241
 20
713.6750837540075
 10
535.6047239237068
 20
721.3434999414042
 10
543.6877430691684
 20
741.7626264567955
 10
549.7076651964691
 20
775.1714565033478
 10
517.7870384070558
 20
822.1000518502187
 10
554.3405464666293
 20
872.7049720542613
 10
538.6849012905859
 20
936.6672960423938
 10
511.7840757154625
 20
938.0084246846346
 10
500.3112745595035
 20
938.5803960612756
 72
     4
 94
        3
 73
     0
 74
     0
 95
       13
 96
        9
 40
0.0
 40
0.0
 40
0.0
 40
0.0
 40
31.55848590367609
 40
73.99669123255086
 40
162.3866295514839
 40
190.5129978913944
 40
232.0009539918526
 40
257.6154660492887
 40
257.6154660492887
 40
257.6154660492887
 40
257.6154660492887
 10
500.3112745594807
 20
938.5803960612756
 10
488.8385735476552
 20
938.0084667648729
 10
461.937982785266
 20
936.6674367901799
 10
446.2792281680321
 20
872.7038062215527
 10
482.8515687993851
 20
822.1067994218838
 10
450.8949981764007
 20
775.1631005569682
 10
457.0766451436655
 20
741.57018560978
 10
465.0506950909973
 20
720.8819956801106
 10
468.0945682022206
 20
712.9848511346501
 72
     1
 10
468.0945682022206
 20
712.9848511346501
 11
468.6316299827754
 21
711.0985452516424
 72
     1
 10
468.6316299827754
 20
711.0985452516424
 11
470.4882906725416
 21
708.465077880874
 72
     1
 10
470.4882906725416
 20
708.465077880874
 11
472.9488227246169
 21
706.4354818724149
 72
     1
 10
472.9488227246169
 20
706.4354818724149
 11
475.7946212461447
 21
704.791152333408
 72
     1
 10
475.7946212461447
 20
704.791152333408
 11
478.932263737646
 21
703.4386667643746
 72
     1
 10
478.932263737646
 20
703.4386667643746
 11
482.3142664841148
 21
702.3305414503089
 72
     1
 10
482.3142664841148
 20
702.3305414503089
 11
485.9158305809429
 21
701.4419774866024
 72
     1
 10
485.9158305809429
 20
701.4419774866024
 11
489.7617549327386
 21
700.7977737778635
 72
     1
 10
489.7617549327386
 20
700.7977737778635
 11
493.7455693119303
 21
700.2914600965207
 72
     1
 10
493.7455693119303
 20
700.2914600965207
 11
497.9851339180068
 21
700.0408966420628
 72
     1
 10
497.9851339180068
 20
700.0408966420628
 11
502.4703274846002
 21
700.0359621481216
 72
     1
 10
502.4703274846002
 20
700.0359621481216
 11
507.2497703944375
 21
700.3252769974242
 72
     1
 10
507.2497703944375
 20
700.3252769974242
 11
512.4194627136676
 21
701.0048412561197
 72
     1
 10
512.4194627136676
 20
701.0048412561197
 11
518.2063794556851
 21
702.3016299376027
 72
     1
 10
518.2063794556851
 20
702.3016299376027
 11
525.564726636574
 21
705.1698490579569
 72
     1
 10
525.564726636574
 20
705.1698490579569
 11
530.3125067966456
 21
709.200778979332
 72
     1
 10
530.3125067966456
 20
709.200778979332
 11
531.7065360735423
 21
711.4809563188869
 72
     1
 10
531.7065360735423
 20
711.4809563188869
 11
532.5691408486241
 21
713.6750837540075
 97
        3
330
2D5
330
2D4
330
346
 75
     0
 76
     1
 98
        1
 10
0.0
 20
0.0
450
        0
451
        0
460
0.0
461
0.0
452
        1
462
1.0
453
        2
463
0.0
 63
     5
421
      255
463
1.0
 63
     7
421
 16777215
470
LINEAR
  0
ENDSEC
  0
SECTION
  2
OBJECTS
  0
DICTIONARY
  5
C
330
0
100
AcDbDictionary
281
     1
  3
ACAD_COLOR
350
6B
  3
ACAD_GROUP
350
D
  3
ACAD_LAYOUT
350
1A
  3
ACAD_MATERIAL
350
6A
  3
ACAD_MLINESTYLE
350
17
  3
ACAD_PLOTSETTINGS
350
19
  3
ACAD_PLOTSTYLENAME
350
E
  3
AcDbVariableDictionary
350
5E
  0
DICTIONARY
  5
6B
102
{ACAD_REACTORS
330
C
102
}
330
C
100
AcDbDictionary
281
     1
  0
DICTIONARY
  5
D
102
{ACAD_REACTORS
330
C
102
}
330
C
100
AcDbDictionary
281
     1
  0
DICTIONARY
  5
1A
102
{ACAD_REACTORS
330
C
102
}
330
C
100
AcDbDictionary
281
     1
  3
Layout1
350
51
  3
Layout2
350
56
  3
Model
350
22
  0
DICTIONARY
  5
6A
102
{ACAD_REACTORS
330
C
102
}
330
C
100
AcDbDictionary
281
     1
  0
DICTIONARY
  5
17
102
{ACAD_REACTORS
330
C
102
}
330
C
100
AcDbDictionary
281
     1
  3
Standard
350
18
  0
DICTIONARY
  5
19
102
{ACAD_REACTORS
330
C
102
}
330
C
100
AcDbDictionary
281
     1
  0
ACDBDICTIONARYWDFLT
  5
E
102
{ACAD_REACTORS
330
C
102
}
330
C
100
AcDbDictionary
281
     1
  3
Normal
350
F
100
AcDbDictionaryWithDefault
340
F
  0
DICTIONARY
  5
5E
102
{ACAD_REACTORS
330
C
102
}
330
C
100
AcDbDictionary
281
     1
  3
DIMASSOC
350
5F
  3
HIDETEXT
350
63
  3
PROJECTNAME
350
85
  0
LAYOUT
  5
51
102
{ACAD_REACTORS
330
1A
102
}
330
1A
100
AcDbPlotSettings
  1

  2
None
  4

  6

 40
0.0
 41
0.0
 42
0.0
 43
0.0
 44
0.0
 45
0.0
 46
0.0
 47
0.0
 48
0.0
 49
0.0
140
0.0
141
0.0
142
1.0
143
1.0
 70
   688
 72
     0
 73
     0
 74
     5
  7

 75
    16
147
1.0
 76
     0
 77
     2
 78
   300
148
0.0
149
0.0
100
AcDbLayout
  1
Layout1
 70
     1
 71
     1
 10
0.0
 20
0.0
 11
12.0
 21
9.0
 12
0.0
 22
0.0
 32
0.0
 14
0.0
 24
0.0
 34
0.0
 15
0.0
 25
0.0
 35
0.0
146
0.0
 13
0.0
 23
0.0
 33
0.0
 16
1.0
 26
0.0
 36
0.0
 17
0.0
 27
1.0
 37
0.0
 76
     0
330
50
  0
LAYOUT
  5
56
102
{ACAD_REACTORS
330
1A
102
}
330
1A
100
AcDbPlotSettings
  1

  2
None
  4

  6

 40
0.0
 41
0.0
 42
0.0
 43
0.0
 44
0.0
 45
0.0
 46
0.0
 47
0.0
 48
0.0
 49
0.0
140
0.0
141
0.0
142
1.0
143
1.0
 70
   688
 72
     0
 73
     0
 74
     5
  7

 75
    16
147
1.0
 76
     0
 77
     2
 78
   300
148
0.0
149
0.0
100
AcDbLayout
  1
Layout2
 70
     1
 71
     2
 10
0.0
 20
0.0
 11
12.0
 21
9.0
 12
0.0
 22
0.0
 32
0.0
 14
0.0
 24
0.0
 34
0.0
 15
0.0
 25
0.0
 35
0.0
146
0.0
 13
0.0
 23
0.0
 33
0.0
 16
1.0
 26
0.0
 36
0.0
 17
0.0
 27
1.0
 37
0.0
 76
     0
330
55
  0
LAYOUT
  5
22
102
{ACAD_REACTORS
330
1A
102
}
330
1A
100
AcDbPlotSettings
  1

  2
none_device
  4
ANSI_A_(8.50_x_11.00_Inches)
  6

 40
6.349999904632567
 41
19.04999923706055
 42
6.350006103515625
 43
19.04998779296875
 44
215.8999938964844
 45
279.3999938964844
 46
0.0
 47
0.0
 48
0.0
 49
0.0
140
0.0
141
0.0
142
1.0
143
78.436453180766
 70
 11952
 72
     0
 73
     1
 74
     0
  7

 75
     0
147
0.0127491741332998
 76
     0
 77
     2
 78
   300
148
0.0
149
0.0
100
AcDbLayout
  1
Model
 70
     1
 71
     0
 10
0.0
 20
0.0
 11
12.0
 21
9.0
 12
0.0
 22
0.0
 32
0.0
 14
0.0
 24
0.0
 34
0.0
 15
0.0
 25
0.0
 35
0.0
146
0.0
 13
0.0
 23
0.0
 33
0.0
 16
1.0
 26
0.0
 36
0.0
 17
0.0
 27
1.0
 37
0.0
 76
     0
330
1F
  0
MLINESTYLE
  5
18
102
{ACAD_REACTORS
330
17
102
}
330
17
100
AcDbMlineStyle
  2
STANDARD
 70
     0
  3

 62
   256
 51
90.0
 52
90.0
 71
     2
 49
0.5
 62
   256
  6
BYLAYER
 49
-0.5
 62
   256
  6
BYLAYER
  0
ACDBPLACEHOLDER
  5
F
102
{ACAD_REACTORS
330
E
102
}
330
E
  0
DICTIONARYVAR
  5
5F
102
{ACAD_REACTORS
330
5E
102
}
330
5E
100
DictionaryVariables
280
     0
  1
2
  0
DICTIONARYVAR
  5
63
102
{ACAD_REACTORS
330
5E
102
}
330
5E
100
DictionaryVariables
280
     0
  1
1
  0
DICTIONARYVAR
  5
85
102
{ACAD_REACTORS
330
5E
102
}
330
5E
100
DictionaryVariables
280
     0
  1

  0
ENDSEC
  0
EOF
