  0
SECTION
  2
HEADER
  9
$ACADVER
  1
AC1015
  9
$ACADMAINTVER
 70
    20
  9
$DWGCODEPAGE
  3
ANSI_936
  9
$INSBASE
 10
0.0
 20
0.0
 30
0.0
  9
$EXTMIN
 10
0.0000598703481955
 20
-3.001253911717867
 30
0.0
  9
$EXTMAX
 10
1000.000059870348
 20
1000.000033050419
 30
0.0
  9
$LIMMIN
 10
0.0
 20
0.0
  9
$LIMMAX
 10
420.0
 20
297.0
  9
$ORTHOMODE
 70
     0
  9
$REGENMODE
 70
     1
  9
$FILLMODE
 70
     1
  9
$QTEXTMODE
 70
     0
  9
$MIRRTEXT
 70
     0
  9
$LTSCALE
 40
1.0
  9
$ATTMODE
 70
     1
  9
$TEXTSIZE
 40
2.5
  9
$TRACEWID
 40
1.0
  9
$TEXTSTYLE
  7
Standard
  9
$CLAYER
  8
2
  9
$CELTYPE
  6
ByLayer
  9
$CECOLOR
 62
   256
  9
$CELTSCALE
 40
1.0
  9
$DISPSILH
 70
     0
  9
$DIMSCALE
 40
1.0
  9
$DIMASZ
 40
2.5
  9
$DIMEXO
 40
0.625
  9
$DIMDLI
 40
3.75
  9
$DIMRND
 40
0.0
  9
$DIMDLE
 40
0.0
  9
$DIMEXE
 40
1.25
  9
$DIMTP
 40
0.0
  9
$DIMTM
 40
0.0
  9
$DIMTXT
 40
2.5
  9
$DIMCEN
 40
2.5
  9
$DIMTSZ
 40
0.0
  9
$DIMTOL
 70
     0
  9
$DIMLIM
 70
     0
  9
$DIMTIH
 70
     0
  9
$DIMTOH
 70
     0
  9
$DIMSE1
 70
     0
  9
$DIMSE2
 70
     0
  9
$DIMTAD
 70
     1
  9
$DIMZIN
 70
     8
  9
$DIMBLK
  1

  9
$DIMASO
 70
     1
  9
$DIMSHO
 70
     1
  9
$DIMPOST
  1

  9
$DIMAPOST
  1

  9
$DIMALT
 70
     0
  9
$DIMALTD
 70
     3
  9
$DIMALTF
 40
0.03937007874016
  9
$DIMLFAC
 40
1.0
  9
$DIMTOFL
 70
     1
  9
$DIMTVP
 40
0.0
  9
$DIMTIX
 70
     0
  9
$DIMSOXD
 70
     0
  9
$DIMSAH
 70
     0
  9
$DIMBLK1
  1

  9
$DIMBLK2
  1

  9
$DIMSTYLE
  2
ISO-25
  9
$DIMCLRD
 70
     0
  9
$DIMCLRE
 70
     0
  9
$DIMCLRT
 70
     0
  9
$DIMTFAC
 40
1.0
  9
$DIMGAP
 40
0.625
  9
$DIMJUST
 70
     0
  9
$DIMSD1
 70
     0
  9
$DIMSD2
 70
     0
  9
$DIMTOLJ
 70
     0
  9
$DIMTZIN
 70
     8
  9
$DIMALTZ
 70
     0
  9
$DIMALTTZ
 70
     0
  9
$DIMUPT
 70
     0
  9
$DIMDEC
 70
     2
  9
$DIMTDEC
 70
     2
  9
$DIMALTU
 70
     2
  9
$DIMALTTD
 70
     3
  9
$DIMTXSTY
  7
Standard
  9
$DIMAUNIT
 70
     0
  9
$DIMADEC
 70
     0
  9
$DIMALTRND
 40
0.0
  9
$DIMAZIN
 70
     0
  9
$DIMDSEP
 70
    44
  9
$DIMATFIT
 70
     3
  9
$DIMFRAC
 70
     0
  9
$DIMLDRBLK
  1

  9
$DIMLUNIT
 70
     2
  9
$DIMLWD
 70
    -2
  9
$DIMLWE
 70
    -2
  9
$DIMTMOVE
 70
     0
  9
$LUNITS
 70
     2
  9
$LUPREC
 70
     4
  9
$SKETCHINC
 40
1.0
  9
$FILLETRAD
 40
0.0
  9
$AUNITS
 70
     0
  9
$AUPREC
 70
     0
  9
$MENU
  1
.
  9
$ELEVATION
 40
0.0
  9
$PELEVATION
 40
0.0
  9
$THICKNESS
 40
0.0
  9
$LIMCHECK
 70
     0
  9
$CHAMFERA
 40
0.0
  9
$CHAMFERB
 40
0.0
  9
$CHAMFERC
 40
0.0
  9
$CHAMFERD
 40
0.0
  9
$SKPOLY
 70
     0
  9
$TDCREATE
 40
2455505.725807523
  9
$TDUCREATE
 40
2455505.392474190
  9
$TDUPDATE
 40
2457095.673154653
  9
$TDUUPDATE
 40
2457095.339821320
  9
$TDINDWG
 40
0.0501822338
  9
$TDUSRTIMER
 40
0.0501817245
  9
$USRTIMER
 70
     1
  9
$ANGBASE
 50
0.0
  9
$ANGDIR
 70
     0
  9
$PDMODE
 70
     0
  9
$PDSIZE
 40
0.0
  9
$PLINEWID
 40
0.0
  9
$SPLFRAME
 70
     0
  9
$SPLINETYPE
 70
     6
  9
$SPLINESEGS
 70
     8
  9
$HANDSEED
  5
319
  9
$SURFTAB1
 70
     6
  9
$SURFTAB2
 70
     6
  9
$SURFTYPE
 70
     6
  9
$SURFU
 70
     6
  9
$SURFV
 70
     6
  9
$UCSBASE
  2

  9
$UCSNAME
  2

  9
$UCSORG
 10
0.0
 20
0.0
 30
0.0
  9
$UCSXDIR
 10
1.0
 20
0.0
 30
0.0
  9
$UCSYDIR
 10
0.0
 20
1.0
 30
0.0
  9
$UCSORTHOREF
  2

  9
$UCSORTHOVIEW
 70
     0
  9
$UCSORGTOP
 10
0.0
 20
0.0
 30
0.0
  9
$UCSORGBOTTOM
 10
0.0
 20
0.0
 30
0.0
  9
$UCSORGLEFT
 10
0.0
 20
0.0
 30
0.0
  9
$UCSORGRIGHT
 10
0.0
 20
0.0
 30
0.0
  9
$UCSORGFRONT
 10
0.0
 20
0.0
 30
0.0
  9
$UCSORGBACK
 10
0.0
 20
0.0
 30
0.0
  9
$PUCSBASE
  2

  9
$PUCSNAME
  2

  9
$PUCSORG
 10
0.0
 20
0.0
 30
0.0
  9
$PUCSXDIR
 10
1.0
 20
0.0
 30
0.0
  9
$PUCSYDIR
 10
0.0
 20
1.0
 30
0.0
  9
$PUCSORTHOREF
  2

  9
$PUCSORTHOVIEW
 70
     0
  9
$PUCSORGTOP
 10
0.0
 20
0.0
 30
0.0
  9
$PUCSORGBOTTOM
 10
0.0
 20
0.0
 30
0.0
  9
$PUCSORGLEFT
 10
0.0
 20
0.0
 30
0.0
  9
$PUCSORGRIGHT
 10
0.0
 20
0.0
 30
0.0
  9
$PUCSORGFRONT
 10
0.0
 20
0.0
 30
0.0
  9
$PUCSORGBACK
 10
0.0
 20
0.0
 30
0.0
  9
$USERI1
 70
     0
  9
$USERI2
 70
     0
  9
$USERI3
 70
     0
  9
$USERI4
 70
     0
  9
$USERI5
 70
     0
  9
$USERR1
 40
0.0
  9
$USERR2
 40
0.0
  9
$USERR3
 40
0.0
  9
$USERR4
 40
0.0
  9
$USERR5
 40
0.0
  9
$WORLDVIEW
 70
     1
  9
$SHADEDGE
 70
     3
  9
$SHADEDIF
 70
    70
  9
$TILEMODE
 70
     1
  9
$MAXACTVP
 70
    64
  9
$PINSBASE
 10
0.0
 20
0.0
 30
0.0
  9
$PLIMCHECK
 70
     0
  9
$PEXTMIN
 10
0.0
 20
0.0
 30
0.0
  9
$PEXTMAX
 10
0.0
 20
0.0
 30
0.0
  9
$PLIMMIN
 10
0.0
 20
0.0
  9
$PLIMMAX
 10
12.0
 20
9.0
  9
$UNITMODE
 70
     0
  9
$VISRETAIN
 70
     1
  9
$PLINEGEN
 70
     0
  9
$PSLTSCALE
 70
     1
  9
$TREEDEPTH
 70
  3020
  9
$CMLSTYLE
  2
Standard
  9
$CMLJUST
 70
     0
  9
$CMLSCALE
 40
20.0
  9
$PROXYGRAPHICS
 70
     1
  9
$MEASUREMENT
 70
     1
  9
$CELWEIGHT
370
    -1
  9
$ENDCAPS
280
     0
  9
$JOINSTYLE
280
     0
  9
$LWDISPLAY
290
     0
  9
$INSUNITS
 70
     4
  9
$HYPERLINKBASE
  1

  9
$STYLESHEET
  1

  9
$XEDIT
290
     1
  9
$CEPSNTYPE
380
     0
  9
$PSTYLEMODE
290
     1
  9
$FINGERPRINTGUID
  2
{FDEAD578-A652-11D2-9A35-0060089B3A3F}
  9
$VERSIONGUID
  2
{0FC9700E-CCA0-449D-8AA3-3CCF868E2A94}
  9
$EXTNAMES
290
     1
  9
$PSVPSCALE
 40
0.0
  9
$OLESTARTUP
290
     0
  0
ENDSEC
  0
SECTION
  2
CLASSES
  0
CLASS
  1
ACDBDICTIONARYWDFLT
  2
AcDbDictionaryWithDefault
  3
ObjectDBX Classes
 90
        0
280
     0
281
     0
  0
CLASS
  1
ACDBPLACEHOLDER
  2
AcDbPlaceHolder
  3
ObjectDBX Classes
 90
        0
280
     0
281
     0
  0
CLASS
  1
LAYOUT
  2
AcDbLayout
  3
ObjectDBX Classes
 90
        0
280
     0
281
     0
  0
CLASS
  1
DICTIONARYVAR
  2
AcDbDictionaryVar
  3
ObjectDBX Classes
 90
        0
280
     0
281
     0
  0
ENDSEC
  0
SECTION
  2
TABLES
  0
TABLE
  2
VPORT
  5
8
330
0
100
AcDbSymbolTable
 70
     3
  0
VPORT
  5
30F
330
8
100
AcDbSymbolTableRecord
100
AcDbViewportTableRecord
  2
*Active
 70
     0
 10
0.0
 20
0.0
 11
1.0
 21
1.0
 12
564.0949760853723
 22
571.6802575354349
 13
0.0
 23
0.0
 14
10.0
 24
10.0
 15
10.0
 25
10.0
 16
0.0
 26
0.0
 36
1.0
 17
0.0
 27
0.0
 37
0.0
 40
1374.743592735104
 41
1.68860353130016
 42
50.0
 43
0.0
 44
0.0
 50
0.0
 51
0.0
 71
     0
 72
  1000
 73
     1
 74
     3
 75
     0
 76
     0
 77
     0
 78
     0
281
     0
 65
     1
110
0.0
120
0.0
130
0.0
111
1.0
121
0.0
131
0.0
112
0.0
122
1.0
132
0.0
 79
     0
146
0.0
  0
ENDTAB
  0
TABLE
  2
LTYPE
  5
5
330
0
100
AcDbSymbolTable
 70
     1
  0
LTYPE
  5
14
330
5
100
AcDbSymbolTableRecord
100
AcDbLinetypeTableRecord
  2
ByBlock
 70
     0
  3

 72
    65
 73
     0
 40
0.0
  0
LTYPE
  5
15
330
5
100
AcDbSymbolTableRecord
100
AcDbLinetypeTableRecord
  2
ByLayer
 70
     0
  3

 72
    65
 73
     0
 40
0.0
  0
LTYPE
  5
16
330
5
100
AcDbSymbolTableRecord
100
AcDbLinetypeTableRecord
  2
Continuous
 70
     0
  3
Solid line
 72
    65
 73
     0
 40
0.0
  0
ENDTAB
  0
TABLE
  2
LAYER
  5
2
330
0
100
AcDbSymbolTable
 70
     4
  0
LAYER
  5
10
330
2
100
AcDbSymbolTableRecord
100
AcDbLayerTableRecord
  2
0
 70
     0
 62
     2
  6
Continuous
370
    -3
390
F
  0
LAYER
  5
94
330
2
100
AcDbSymbolTableRecord
100
AcDbLayerTableRecord
  2
1
 70
     0
 62
     1
  6
Continuous
370
    -3
390
F
  0
LAYER
  5
95
330
2
100
AcDbSymbolTableRecord
100
AcDbLayerTableRecord
  2
2
 70
     0
 62
     7
  6
Continuous
370
    -3
390
F
  0
LAYER
  5
10E
330
2
100
AcDbSymbolTableRecord
100
AcDbLayerTableRecord
  2
3
 70
     0
 62
     7
  6
Continuous
370
    -3
390
F
  0
ENDTAB
  0
TABLE
  2
STYLE
  5
3
330
0
100
AcDbSymbolTable
 70
     1
  0
STYLE
  5
11
330
3
100
AcDbSymbolTableRecord
100
AcDbTextStyleTableRecord
  2
Standard
 70
     0
 40
0.0
 41
1.0
 50
0.0
 71
     0
 42
2.5
  3
txt
  4

  0
ENDTAB
  0
TABLE
  2
VIEW
  5
6
330
0
100
AcDbSymbolTable
 70
     0
  0
ENDTAB
  0
TABLE
  2
UCS
  5
7
330
0
100
AcDbSymbolTable
 70
     0
  0
ENDTAB
  0
TABLE
  2
APPID
  5
9
330
0
100
AcDbSymbolTable
 70
     1
  0
APPID
  5
12
330
9
100
AcDbSymbolTableRecord
100
AcDbRegAppTableRecord
  2
ACAD
 70
     0
  0
ENDTAB
  0
TABLE
  2
DIMSTYLE
  5
A
330
0
100
AcDbSymbolTable
 70
     1
100
AcDbDimStyleTable
 71
     0
  0
DIMSTYLE
105
27
330
A
100
AcDbSymbolTableRecord
100
AcDbDimStyleTableRecord
  2
ISO-25
 70
     0
 41
2.5
 42
0.625
 43
3.75
 44
1.25
 73
     0
 74
     0
 77
     1
 78
     8
140
2.5
141
2.5
143
0.03937007874016
147
0.625
171
     3
172
     1
271
     2
272
     2
274
     3
278
    44
283
     0
284
     8
340
11
  0
ENDTAB
  0
TABLE
  2
BLOCK_RECORD
  5
1
330
0
100
AcDbSymbolTable
 70
     1
  0
BLOCK_RECORD
  5
1F
330
1
100
AcDbSymbolTableRecord
100
AcDbBlockTableRecord
  2
*Model_Space
340
22
  0
BLOCK_RECORD
  5
50
330
1
100
AcDbSymbolTableRecord
100
AcDbBlockTableRecord
  2
*Paper_Space
340
51
  0
BLOCK_RECORD
  5
55
330
1
100
AcDbSymbolTableRecord
100
AcDbBlockTableRecord
  2
*Paper_Space0
340
56
  0
ENDTAB
  0
ENDSEC
  0
SECTION
  2
BLOCKS
  0
BLOCK
  5
20
330
1F
100
AcDbEntity
  8
0
100
AcDbBlockBegin
  2
*Model_Space
 70
     0
 10
0.0
 20
0.0
 30
0.0
  3
*Model_Space
  1

  0
ENDBLK
  5
21
330
1F
100
AcDbEntity
  8
0
100
AcDbBlockEnd
  0
BLOCK
  5
52
330
50
100
AcDbEntity
 67
     1
  8
0
100
AcDbBlockBegin
  2
*Paper_Space
 70
     0
 10
0.0
 20
0.0
 30
0.0
  3
*Paper_Space
  1

  0
ENDBLK
  5
53
330
50
100
AcDbEntity
 67
     1
  8
0
100
AcDbBlockEnd
  0
BLOCK
  5
57
330
55
100
AcDbEntity
  8
0
100
AcDbBlockBegin
  2
*Paper_Space0
 70
     0
 10
0.0
 20
0.0
 30
0.0
  3
*Paper_Space0
  1

  0
ENDBLK
  5
58
330
55
100
AcDbEntity
  8
0
100
AcDbBlockEnd
  0
ENDSEC
  0
SECTION
  2
ENTITIES
  0
LWPOLYLINE
  5
2A9
330
1F
100
AcDbEntity
  8
0
 62
     2
100
AcDbPolyline
 90
        4
 70
     1
 43
0.0
 10
0.0000598703481955
 20
0.000033050419006
 10
1000.000059870348
 20
0.000033050419006
 10
1000.000059870348
 20
1000.000033050419
 10
0.0000598703481955
 20
1000.000033050419
  0
LINE
  5
2AA
330
1F
100
AcDbEntity
  8
1
 62
     1
100
AcDbLine
 10
585.1930271372337
 20
30.24552940115734
 30
0.0
 11
585.1930271372337
 21
969.7545366996806
 31
0.0
  0
LINE
  5
2AB
330
1F
100
AcDbEntity
  8
1
 62
     1
100
AcDbLine
 10
585.1930271372337
 20
969.7545366996806
 30
0.0
 11
414.8070926034627
 21
969.7545366996809
 31
0.0
  0
LINE
  5
2AC
330
1F
100
AcDbEntity
  8
1
 62
     1
100
AcDbLine
 10
414.8070926034624
 20
969.7545366996806
 30
0.0
 11
414.8070926034624
 21
30.24552940115734
 31
0.0
  0
LINE
  5
2AD
330
1F
100
AcDbEntity
  8
1
 62
     1
100
AcDbLine
 10
414.8070926034624
 20
30.24552940115734
 30
0.0
 11
585.1930271372339
 21
30.24552940115734
 31
0.0
  0
LINE
  5
2AE
330
1F
100
AcDbEntity
  8
3
100
AcDbLine
 10
488.2384069616965
 20
930.7045896940923
 30
0.0
 11
520.3507936152572
 21
930.7045896940923
 31
0.0
  0
LINE
  5
2AF
330
1F
100
AcDbEntity
  8
3
100
AcDbLine
 10
520.3507936152572
 20
930.7045896940923
 30
0.0
 11
520.3507936152572
 21
210.1116590807003
 31
0.0
  0
LINE
  5
2B0
330
1F
100
AcDbEntity
  8
3
100
AcDbLine
 10
488.2384069616965
 20
930.7045896940923
 30
0.0
 11
488.2384069616965
 21
210.1116590807003
 31
0.0
  0
LINE
  5
2B1
330
1F
100
AcDbEntity
  8
3
100
AcDbLine
 10
488.2384069616965
 20
210.1116590807003
 30
0.0
 11
520.3507936152572
 21
210.1116590807003
 31
0.0
  0
LINE
  5
2B2
330
1F
100
AcDbEntity
  8
3
100
AcDbLine
 10
496.2665036250784
 20
334.31087976049
 30
0.0
 11
488.2384069616965
 21
334.31087976049
 31
0.0
  0
LINE
  5
2B3
330
1F
100
AcDbEntity
  8
3
100
AcDbLine
 10
504.2946002884768
 20
316.8179610330269
 30
0.0
 11
488.2384069616965
 21
316.8179610330269
 31
0.0
  0
LINE
  5
2B4
330
1F
100
AcDbEntity
  8
3
100
AcDbLine
 10
504.2946002884683
 20
351.8037984879444
 30
0.0
 11
488.2384069616965
 21
351.8037984879444
 31
0.0
  0
LINE
  5
2B5
330
1F
100
AcDbEntity
  8
3
100
AcDbLine
 10
496.2665036250866
 20
369.2967172154072
 30
0.0
 11
488.2384069617047
 21
369.2967172154072
 31
0.0
  0
LINE
  5
2B6
330
1F
100
AcDbEntity
  8
3
100
AcDbLine
 10
496.2665036250951
 20
404.2825546703245
 30
0.0
 11
488.238406961713
 21
404.2825546703245
 31
0.0
  0
LINE
  5
2B7
330
1F
100
AcDbEntity
  8
3
100
AcDbLine
 10
504.2946002884768
 20
386.7896359428619
 30
0.0
 11
488.2384069617047
 21
386.7896359428619
 31
0.0
  0
LINE
  5
2B8
330
1F
100
AcDbEntity
  8
3
100
AcDbLine
 10
504.2946002884768
 20
456.7613108526964
 30
0.0
 11
488.2384069617047
 21
456.7613108526964
 31
0.0
  0
LINE
  5
2B9
330
1F
100
AcDbEntity
  8
3
100
AcDbLine
 10
496.2665036250951
 20
474.2542295801595
 30
0.0
 11
488.238406961713
 21
474.2542295801595
 31
0.0
  0
LINE
  5
2BA
330
1F
100
AcDbEntity
  8
3
100
AcDbLine
 10
496.2665036250866
 20
439.268392125242
 30
0.0
 11
488.2384069617047
 21
439.268392125242
 31
0.0
  0
LINE
  5
2BB
330
1F
100
AcDbEntity
  8
3
100
AcDbLine
 10
504.2946002884683
 20
421.7754733977791
 30
0.0
 11
488.2384069616965
 21
421.7754733977791
 31
0.0
  0
LINE
  5
2BC
330
1F
100
AcDbEntity
  8
3
100
AcDbLine
 10
504.2946002884852
 20
561.7188232174489
 30
0.0
 11
488.238406961713
 21
561.7188232174489
 31
0.0
  0
LINE
  5
2BD
330
1F
100
AcDbEntity
  8
3
100
AcDbLine
 10
496.2665036251032
 20
579.2117419449116
 30
0.0
 11
488.2384069617216
 21
579.2117419449116
 31
0.0
  0
LINE
  5
2BE
330
1F
100
AcDbEntity
  8
3
100
AcDbLine
 10
496.2665036251117
 20
614.1975793998291
 30
0.0
 11
488.2384069617298
 21
614.1975793998291
 31
0.0
  0
LINE
  5
2BF
330
1F
100
AcDbEntity
  8
3
100
AcDbLine
 10
504.2946002884934
 20
596.7046606723661
 30
0.0
 11
488.2384069617216
 21
596.7046606723661
 31
0.0
  0
LINE
  5
2C0
330
1F
100
AcDbEntity
  8
3
100
AcDbLine
 10
504.2946002884934
 20
526.7329857625314
 30
0.0
 11
488.2384069617216
 21
526.7329857625314
 31
0.0
  0
LINE
  5
2C1
330
1F
100
AcDbEntity
  8
3
100
AcDbLine
 10
496.2665036251117
 20
544.2259044899941
 30
0.0
 11
488.2384069617298
 21
544.2259044899941
 31
0.0
  0
LINE
  5
2C2
330
1F
100
AcDbEntity
  8
3
100
AcDbLine
 10
496.2665036251032
 20
509.2400670350767
 30
0.0
 11
488.2384069617216
 21
509.2400670350767
 31
0.0
  0
LINE
  5
2C3
330
1F
100
AcDbEntity
  8
3
100
AcDbLine
 10
504.2946002884852
 20
491.7471483076139
 30
0.0
 11
488.238406961713
 21
491.7471483076139
 31
0.0
  0
LINE
  5
2C4
330
1F
100
AcDbEntity
  8
3
100
AcDbLine
 10
504.2946002885187
 20
771.6338479469533
 30
0.0
 11
488.2384069617467
 21
771.6338479469533
 31
0.0
  0
LINE
  5
2C5
330
1F
100
AcDbEntity
  8
3
100
AcDbLine
 10
496.2665036251369
 20
789.1267666744161
 30
0.0
 11
488.238406961755
 21
789.1267666744161
 31
0.0
  0
LINE
  5
2C6
330
1F
100
AcDbEntity
  8
3
100
AcDbLine
 10
496.2665036251452
 20
824.1126041293334
 30
0.0
 11
488.2384069617631
 21
824.1126041293334
 31
0.0
  0
LINE
  5
2C7
330
1F
100
AcDbEntity
  8
3
100
AcDbLine
 10
504.2946002885271
 20
806.6196854018707
 30
0.0
 11
488.238406961755
 21
806.6196854018707
 31
0.0
  0
LINE
  5
2C8
330
1F
100
AcDbEntity
  8
3
100
AcDbLine
 10
504.2946002885271
 20
876.5913603117056
 30
0.0
 11
488.238406961755
 21
876.5913603117056
 31
0.0
  0
LINE
  5
2C9
330
1F
100
AcDbEntity
  8
3
100
AcDbLine
 10
496.2665036251452
 20
894.0842790391682
 30
0.0
 11
488.2384069617631
 21
894.0842790391682
 31
0.0
  0
LINE
  5
2CA
330
1F
100
AcDbEntity
  8
3
100
AcDbLine
 10
496.2665036251369
 20
859.0984415842511
 30
0.0
 11
488.238406961755
 21
859.0984415842511
 31
0.0
  0
LINE
  5
2CB
330
1F
100
AcDbEntity
  8
3
100
AcDbLine
 10
504.2946002885187
 20
841.6055228567879
 30
0.0
 11
488.2384069617467
 21
841.6055228567879
 31
0.0
  0
LINE
  5
2CC
330
1F
100
AcDbEntity
  8
3
100
AcDbLine
 10
504.2946002885017
 20
701.6621730371185
 30
0.0
 11
488.2384069617298
 21
701.6621730371185
 31
0.0
  0
LINE
  5
2CD
330
1F
100
AcDbEntity
  8
3
100
AcDbLine
 10
496.2665036251201
 20
719.1550917645815
 30
0.0
 11
488.2384069617383
 21
719.1550917645815
 31
0.0
  0
LINE
  5
2CE
330
1F
100
AcDbEntity
  8
3
100
AcDbLine
 10
496.2665036251284
 20
754.1409292194987
 30
0.0
 11
488.2384069617467
 21
754.1409292194987
 31
0.0
  0
LINE
  5
2CF
330
1F
100
AcDbEntity
  8
3
100
AcDbLine
 10
504.2946002885103
 20
736.6480104920358
 30
0.0
 11
488.2384069617383
 21
736.6480104920358
 31
0.0
  0
LINE
  5
2D0
330
1F
100
AcDbEntity
  8
3
100
AcDbLine
 10
504.2946002885103
 20
666.6763355822011
 30
0.0
 11
488.2384069617383
 21
666.6763355822011
 31
0.0
  0
LINE
  5
2D1
330
1F
100
AcDbEntity
  8
3
100
AcDbLine
 10
496.2665036251284
 20
684.1692543096639
 30
0.0
 11
488.2384069617467
 21
684.1692543096639
 31
0.0
  0
LINE
  5
2D2
330
1F
100
AcDbEntity
  8
3
100
AcDbLine
 10
496.2665036251201
 20
649.1834168547464
 30
0.0
 11
488.2384069617383
 21
649.1834168547464
 31
0.0
  0
LINE
  5
2D3
330
1F
100
AcDbEntity
  8
3
100
AcDbLine
 10
504.2946002885017
 20
631.6904981272836
 30
0.0
 11
488.2384069617298
 21
631.6904981272836
 31
0.0
  0
LINE
  5
2D4
330
1F
100
AcDbEntity
  8
3
100
AcDbLine
 10
507.2846002884751
 20
174.9544735936151
 30
0.0
 11
507.2846002884751
 21
133.1017409135951
 31
0.0
  0
LINE
  5
2D5
330
1F
100
AcDbEntity
  8
3
100
AcDbLine
 10
501.3046002884784
 20
174.9544735936151
 30
0.0
 11
501.3046002884784
 21
133.1017409135951
 31
0.0
  0
LINE
  5
2D6
330
1F
100
AcDbEntity
  8
3
100
AcDbLine
 10
520.3507936152572
 20
210.1116590807003
 30
0.0
 11
507.2846002884751
 21
174.954473593611
 31
0.0
  0
LINE
  5
2D7
330
1F
100
AcDbEntity
  8
3
100
AcDbLine
 10
488.2384069616965
 20
210.1116590807003
 30
0.0
 11
501.3046002884784
 21
174.9544735936151
 31
0.0
  0
LINE
  5
2D8
330
1F
100
AcDbEntity
  8
3
100
AcDbLine
 10
478.1758392820744
 20
939.9045896940924
 30
0.0
 11
522.3743084349407
 21
939.9045896940924
 31
0.0
  0
LINE
  5
2D9
330
1F
100
AcDbEntity
  8
3
100
AcDbLine
 10
522.3743084349407
 20
939.9045896940924
 30
0.0
 11
520.3507936152572
 21
930.7045896940923
 31
0.0
  0
LINE
  5
2DA
330
1F
100
AcDbEntity
  8
3
100
AcDbLine
 10
488.2384069616965
 20
930.7045896940923
 30
0.0
 11
478.1758392820744
 21
939.9045896940924
 31
0.0
  0
HATCH
  5
2DB
330
1F
100
AcDbEntity
  8
3
100
AcDbHatch
 10
0.0
 20
0.0
 30
0.0
210
0.0
220
0.0
230
1.0
  2
SOLID
 70
     1
 71
     0
 91
        1
 92
        7
 72
     1
 73
     1
 93
        2
 10
498.2459116804136
 20
133.1017409135951
 42
1.0
 10
498.2459116804136
 20
129.9127774262102
 42
0.0
 97
        0
 75
     0
 76
     1
 47
0.23246673366308
 98
        1
 10
497.8267328593668
 20
131.5915090705864
  0
HATCH
  5
2DC
330
1F
100
AcDbEntity
  8
3
100
AcDbHatch
 10
0.0
 20
0.0
 30
0.0
210
0.0
220
0.0
230
1.0
  2
SOLID
 70
     1
 71
     0
 91
        1
 92
        7
 72
     1
 73
     1
 93
        4
 10
516.3232888965321
 20
133.1017409135951
 42
0.0
 10
514.4557090721158
 20
133.1017409135951
 42
0.0
 10
514.4557090721158
 20
129.250636340757
 42
0.0
 10
516.3232888965321
 20
129.174349061997
 42
1.0
 97
        0
 75
     0
 76
     1
 47
0.2349577570097936
 98
        1
 10
516.4766391275827
 20
131.2592155252593
  0
ARC
  5
2DD
330
1F
100
AcDbEntity
  8
3
100
AcDbCircle
 10
516.3232888965321
 20
131.1380449878003
 30
0.0
 40
1.963695925797331
100
AcDbArc
 50
270.0
 51
90.0
  0
LINE
  5
2DE
330
1F
100
AcDbEntity
  8
3
100
AcDbLine
 10
514.4557090721157
 20
133.1017409135951
 30
0.0
 11
514.4557090721157
 21
129.2506363407527
 31
0.0
  0
ARC
  5
2DF
330
1F
100
AcDbEntity
  8
3
100
AcDbCircle
 10
498.2459116804096
 20
131.5072591699068
 30
0.0
 40
1.594481743691513
100
AcDbArc
 50
90.0
 51
270.0
  0
LINE
  5
2E0
330
1F
100
AcDbEntity
  8
3
100
AcDbLine
 10
498.2459116804096
 20
133.1017409135951
 30
0.0
 11
498.2459116804096
 21
129.912777426206
 31
0.0
  0
LINE
  5
2E1
330
1F
100
AcDbEntity
  8
3
100
AcDbLine
 10
498.2459116804096
 20
129.912777426206
 30
0.0
 11
516.3232888965321
 21
129.174349061997
 31
0.0
  0
LINE
  5
2E2
330
1F
100
AcDbEntity
  8
3
100
AcDbLine
 10
498.2459116804096
 20
133.1017409135951
 30
0.0
 11
516.3232888965321
 21
133.1017409135951
 31
0.0
  0
LINE
  5
2E3
330
1F
100
AcDbEntity
  8
3
100
AcDbLine
 10
507.2846002884751
 20
129.5435632440994
 30
0.0
 11
507.2846002884666
 21
51.02888109231606
 31
0.0
  0
LINE
  5
2E4
330
1F
100
AcDbEntity
  8
3
100
AcDbLine
 10
501.3046002884784
 20
129.7878354947345
 30
0.0
 11
501.3046002884658
 21
51.02888109231606
 31
0.0
  0
LINE
  5
2E5
330
1F
100
AcDbEntity
  8
3
100
AcDbLine
 10
501.3046002884658
 20
51.02888109231606
 30
0.0
 11
507.2846002884666
 21
51.02888109230764
 31
0.0
  0
LINE
  5
2E6
330
1F
100
AcDbEntity
  8
3
100
AcDbLine
 10
488.2384069616965
 20
345.1903768787083
 30
0.0
 11
520.3507936152572
 21
345.1903768787083
 31
0.0
  0
ENDSEC
  0
SECTION
  2
OBJECTS
  0
DICTIONARY
  5
C
330
0
100
AcDbDictionary
281
     1
  3
ACAD_COLOR
350
6B
  3
ACAD_GROUP
350
D
  3
ACAD_LAYOUT
350
1A
  3
ACAD_MATERIAL
350
6A
  3
ACAD_MLINESTYLE
350
17
  3
ACAD_PLOTSETTINGS
350
19
  3
ACAD_PLOTSTYLENAME
350
E
  3
ACDBHEADERROUNDTRIPXREC
350
310
  3
AcDbVariableDictionary
350
5E
  0
DICTIONARY
  5
6B
102
{ACAD_REACTORS
330
C
102
}
330
C
100
AcDbDictionary
281
     1
  0
DICTIONARY
  5
D
102
{ACAD_REACTORS
330
C
102
}
330
C
100
AcDbDictionary
281
     1
  0
DICTIONARY
  5
1A
102
{ACAD_REACTORS
330
C
102
}
330
C
100
AcDbDictionary
281
     1
  3
Layout1
350
51
  3
Layout2
350
56
  3
Model
350
22
  0
DICTIONARY
  5
6A
102
{ACAD_REACTORS
330
C
102
}
330
C
100
AcDbDictionary
281
     1
  0
DICTIONARY
  5
17
102
{ACAD_REACTORS
330
C
102
}
330
C
100
AcDbDictionary
281
     1
  3
Standard
350
18
  0
DICTIONARY
  5
19
102
{ACAD_REACTORS
330
C
102
}
330
C
100
AcDbDictionary
281
     1
  0
ACDBDICTIONARYWDFLT
  5
E
102
{ACAD_REACTORS
330
C
102
}
330
C
100
AcDbDictionary
281
     1
  3
Normal
350
F
100
AcDbDictionaryWithDefault
340
F
  0
DICTIONARY
  5
310
102
{ACAD_REACTORS
330
C
102
}
330
C
100
AcDbDictionary
281
     1
  3
COLORDICT
350
312
  3
MATERIALDICT
350
311
  0
DICTIONARY
  5
5E
102
{ACAD_REACTORS
330
C
102
}
330
C
100
AcDbDictionary
281
     1
  3
DIMASSOC
350
5F
  3
HIDETEXT
350
63
  3
PROJECTNAME
350
85
  0
LAYOUT
  5
51
102
{ACAD_XDICTIONARY
360
315
102
}
102
{ACAD_REACTORS
330
1A
102
}
330
1A
100
AcDbPlotSettings
  1

  2
None
  4

  6

 40
0.0
 41
0.0
 42
0.0
 43
0.0
 44
0.0
 45
0.0
 46
0.0
 47
0.0
 48
0.0
 49
0.0
140
0.0
141
0.0
142
1.0
143
1.0
 70
   688
 72
     0
 73
     0
 74
     5
  7

 75
    16
147
1.0
148
0.0
149
0.0
100
AcDbLayout
  1
Layout1
 70
     1
 71
     1
 10
0.0
 20
0.0
 11
12.0
 21
9.0
 12
0.0
 22
0.0
 32
0.0
 14
0.0
 24
0.0
 34
0.0
 15
0.0
 25
0.0
 35
0.0
146
0.0
 13
0.0
 23
0.0
 33
0.0
 16
1.0
 26
0.0
 36
0.0
 17
0.0
 27
1.0
 37
0.0
 76
     0
330
50
  0
LAYOUT
  5
56
102
{ACAD_XDICTIONARY
360
317
102
}
102
{ACAD_REACTORS
330
1A
102
}
330
1A
100
AcDbPlotSettings
  1

  2
None
  4

  6

 40
0.0
 41
0.0
 42
0.0
 43
0.0
 44
0.0
 45
0.0
 46
0.0
 47
0.0
 48
0.0
 49
0.0
140
0.0
141
0.0
142
1.0
143
1.0
 70
   688
 72
     0
 73
     0
 74
     5
  7

 75
    16
147
1.0
148
0.0
149
0.0
100
AcDbLayout
  1
Layout2
 70
     1
 71
     2
 10
0.0
 20
0.0
 11
12.0
 21
9.0
 12
0.0
 22
0.0
 32
0.0
 14
0.0
 24
0.0
 34
0.0
 15
0.0
 25
0.0
 35
0.0
146
0.0
 13
0.0
 23
0.0
 33
0.0
 16
1.0
 26
0.0
 36
0.0
 17
0.0
 27
1.0
 37
0.0
 76
     0
330
55
  0
LAYOUT
  5
22
102
{ACAD_XDICTIONARY
360
313
102
}
102
{ACAD_REACTORS
330
1A
102
}
330
1A
100
AcDbPlotSettings
  1

  2
none_device
  4
ANSI_A_(8.50_x_11.00_Inches)
  6

 40
6.349999904632567
 41
19.04999923706055
 42
6.350006103515625
 43
19.04998779296875
 44
215.8999938964844
 45
279.3999938964844
 46
0.0
 47
0.0
 48
0.0
 49
0.0
140
0.0
141
0.0
142
1.0
143
78.436453180766
 70
 11952
 72
     0
 73
     1
 74
     0
  7

 75
     0
147
0.0127491741332998
148
0.0
149
0.0
100
AcDbLayout
  1
Model
 70
     1
 71
     0
 10
0.0
 20
0.0
 11
12.0
 21
9.0
 12
0.0
 22
0.0
 32
0.0
 14
0.0
 24
0.0
 34
0.0
 15
0.0
 25
0.0
 35
0.0
146
0.0
 13
0.0
 23
0.0
 33
0.0
 16
1.0
 26
0.0
 36
0.0
 17
0.0
 27
1.0
 37
0.0
 76
     0
330
1F
  0
MLINESTYLE
  5
18
102
{ACAD_REACTORS
330
17
102
}
330
17
100
AcDbMlineStyle
  2
STANDARD
 70
     0
  3

 62
   256
 51
90.0
 52
90.0
 71
     2
 49
0.5
 62
   256
  6
BYLAYER
 49
-0.5
 62
   256
  6
BYLAYER
  0
ACDBPLACEHOLDER
  5
F
102
{ACAD_REACTORS
330
E
102
}
330
E
  0
XRECORD
  5
312
102
{ACAD_REACTORS
330
310
102
}
330
310
100
AcDbXrecord
280
     1
340
6B
  0
XRECORD
  5
311
102
{ACAD_REACTORS
330
310
102
}
330
310
100
AcDbXrecord
280
     1
340
6A
  0
DICTIONARYVAR
  5
5F
102
{ACAD_REACTORS
330
5E
102
}
330
5E
100
DictionaryVariables
280
     0
  1
2
  0
DICTIONARYVAR
  5
63
102
{ACAD_REACTORS
330
5E
102
}
330
5E
100
DictionaryVariables
280
     0
  1
1
  0
DICTIONARYVAR
  5
85
102
{ACAD_REACTORS
330
5E
102
}
330
5E
100
DictionaryVariables
280
     0
  1

  0
DICTIONARY
  5
315
330
51
100
AcDbDictionary
280
     1
281
     1
  3
ACAD_XREC_ROUNDTRIP
360
316
  0
DICTIONARY
  5
317
330
56
100
AcDbDictionary
280
     1
281
     1
  3
ACAD_XREC_ROUNDTRIP
360
318
  0
DICTIONARY
  5
313
330
22
100
AcDbDictionary
280
     1
281
     1
  3
ACAD_XREC_ROUNDTRIP
360
314
  0
XRECORD
  5
316
102
{ACAD_REACTORS
330
315
102
}
330
315
100
AcDbXrecord
280
     1
102
SHADEPLOT
 70
     0
102
SHADEPLOTRESLEVEL
 70
     2
102
SHADEPLOTCUSTOMDPI
 70
   300
  0
XRECORD
  5
318
102
{ACAD_REACTORS
330
317
102
}
330
317
100
AcDbXrecord
280
     1
102
SHADEPLOT
 70
     0
102
SHADEPLOTRESLEVEL
 70
     2
102
SHADEPLOTCUSTOMDPI
 70
   300
  0
XRECORD
  5
314
102
{ACAD_REACTORS
330
313
102
}
330
313
100
AcDbXrecord
280
     1
102
SHADEPLOT
 70
     0
102
SHADEPLOTRESLEVEL
 70
     2
102
SHADEPLOTCUSTOMDPI
 70
   300
  0
ENDSEC
  0
EOF
