  0
SECTION
  2
HEADER
  9
$ACADVER
  1
AC1015
  9
$ACADMAINTVER
 70
    20
  9
$DWGCODEPAGE
  3
ANSI_936
  9
$INSBASE
 10
0.0
 20
0.0
 30
0.0
  9
$EXTMIN
 10
0.0
 20
0.0
 30
0.0
  9
$EXTMAX
 10
1000.0
 20
1000.0
 30
0.0
  9
$LIMMIN
 10
0.0
 20
0.0
  9
$LIMMAX
 10
420.0
 20
297.0
  9
$ORTHOMODE
 70
     0
  9
$REGENMODE
 70
     1
  9
$FILLMODE
 70
     1
  9
$QTEXTMODE
 70
     0
  9
$MIRRTEXT
 70
     0
  9
$LTSCALE
 40
1.0
  9
$ATTMODE
 70
     1
  9
$TEXTSIZE
 40
2.5
  9
$TRACEWID
 40
1.0
  9
$TEXTSTYLE
  7
Standard
  9
$CLAYER
  8
2
  9
$CELTYPE
  6
ByLayer
  9
$CECOLOR
 62
   256
  9
$CELTSCALE
 40
1.0
  9
$DISPSILH
 70
     0
  9
$DIMSCALE
 40
1.0
  9
$DIMASZ
 40
2.5
  9
$DIMEXO
 40
0.625
  9
$DIMDLI
 40
3.75
  9
$DIMRND
 40
0.0
  9
$DIMDLE
 40
0.0
  9
$DIMEXE
 40
1.25
  9
$DIMTP
 40
0.0
  9
$DIMTM
 40
0.0
  9
$DIMTXT
 40
2.5
  9
$DIMCEN
 40
2.5
  9
$DIMTSZ
 40
0.0
  9
$DIMTOL
 70
     0
  9
$DIMLIM
 70
     0
  9
$DIMTIH
 70
     0
  9
$DIMTOH
 70
     0
  9
$DIMSE1
 70
     0
  9
$DIMSE2
 70
     0
  9
$DIMTAD
 70
     1
  9
$DIMZIN
 70
     8
  9
$DIMBLK
  1

  9
$DIMASO
 70
     1
  9
$DIMSHO
 70
     1
  9
$DIMPOST
  1

  9
$DIMAPOST
  1

  9
$DIMALT
 70
     0
  9
$DIMALTD
 70
     3
  9
$DIMALTF
 40
0.03937007874016
  9
$DIMLFAC
 40
1.0
  9
$DIMTOFL
 70
     1
  9
$DIMTVP
 40
0.0
  9
$DIMTIX
 70
     0
  9
$DIMSOXD
 70
     0
  9
$DIMSAH
 70
     0
  9
$DIMBLK1
  1

  9
$DIMBLK2
  1

  9
$DIMSTYLE
  2
ISO-25
  9
$DIMCLRD
 70
     0
  9
$DIMCLRE
 70
     0
  9
$DIMCLRT
 70
     0
  9
$DIMTFAC
 40
1.0
  9
$DIMGAP
 40
0.625
  9
$DIMJUST
 70
     0
  9
$DIMSD1
 70
     0
  9
$DIMSD2
 70
     0
  9
$DIMTOLJ
 70
     0
  9
$DIMTZIN
 70
     8
  9
$DIMALTZ
 70
     0
  9
$DIMALTTZ
 70
     0
  9
$DIMUPT
 70
     0
  9
$DIMDEC
 70
     2
  9
$DIMTDEC
 70
     2
  9
$DIMALTU
 70
     2
  9
$DIMALTTD
 70
     3
  9
$DIMTXSTY
  7
Standard
  9
$DIMAUNIT
 70
     0
  9
$DIMADEC
 70
     0
  9
$DIMALTRND
 40
0.0
  9
$DIMAZIN
 70
     0
  9
$DIMDSEP
 70
    44
  9
$DIMATFIT
 70
     3
  9
$DIMFRAC
 70
     0
  9
$DIMLDRBLK
  1

  9
$DIMLUNIT
 70
     2
  9
$DIMLWD
 70
    -2
  9
$DIMLWE
 70
    -2
  9
$DIMTMOVE
 70
     0
  9
$LUNITS
 70
     2
  9
$LUPREC
 70
     4
  9
$SKETCHINC
 40
1.0
  9
$FILLETRAD
 40
0.0
  9
$AUNITS
 70
     0
  9
$AUPREC
 70
     0
  9
$MENU
  1
.
  9
$ELEVATION
 40
0.0
  9
$PELEVATION
 40
0.0
  9
$THICKNESS
 40
0.0
  9
$LIMCHECK
 70
     0
  9
$CHAMFERA
 40
0.0
  9
$CHAMFERB
 40
0.0
  9
$CHAMFERC
 40
0.0
  9
$CHAMFERD
 40
0.0
  9
$SKPOLY
 70
     0
  9
$TDCREATE
 40
2455505.725807523
  9
$TDUCREATE
 40
2455505.392474190
  9
$TDUPDATE
 40
2457098.623228437
  9
$TDUUPDATE
 40
2457098.289895105
  9
$TDINDWG
 40
0.0795079861
  9
$TDUSRTIMER
 40
0.0795068056
  9
$USRTIMER
 70
     1
  9
$ANGBASE
 50
0.0
  9
$ANGDIR
 70
     0
  9
$PDMODE
 70
     0
  9
$PDSIZE
 40
0.0
  9
$PLINEWID
 40
0.0
  9
$SPLFRAME
 70
     0
  9
$SPLINETYPE
 70
     6
  9
$SPLINESEGS
 70
     8
  9
$HANDSEED
  5
316
  9
$SURFTAB1
 70
     6
  9
$SURFTAB2
 70
     6
  9
$SURFTYPE
 70
     6
  9
$SURFU
 70
     6
  9
$SURFV
 70
     6
  9
$UCSBASE
  2

  9
$UCSNAME
  2

  9
$UCSORG
 10
0.0
 20
0.0
 30
0.0
  9
$UCSXDIR
 10
1.0
 20
0.0
 30
0.0
  9
$UCSYDIR
 10
0.0
 20
1.0
 30
0.0
  9
$UCSORTHOREF
  2

  9
$UCSORTHOVIEW
 70
     0
  9
$UCSORGTOP
 10
0.0
 20
0.0
 30
0.0
  9
$UCSORGBOTTOM
 10
0.0
 20
0.0
 30
0.0
  9
$UCSORGLEFT
 10
0.0
 20
0.0
 30
0.0
  9
$UCSORGRIGHT
 10
0.0
 20
0.0
 30
0.0
  9
$UCSORGFRONT
 10
0.0
 20
0.0
 30
0.0
  9
$UCSORGBACK
 10
0.0
 20
0.0
 30
0.0
  9
$PUCSBASE
  2

  9
$PUCSNAME
  2

  9
$PUCSORG
 10
0.0
 20
0.0
 30
0.0
  9
$PUCSXDIR
 10
1.0
 20
0.0
 30
0.0
  9
$PUCSYDIR
 10
0.0
 20
1.0
 30
0.0
  9
$PUCSORTHOREF
  2

  9
$PUCSORTHOVIEW
 70
     0
  9
$PUCSORGTOP
 10
0.0
 20
0.0
 30
0.0
  9
$PUCSORGBOTTOM
 10
0.0
 20
0.0
 30
0.0
  9
$PUCSORGLEFT
 10
0.0
 20
0.0
 30
0.0
  9
$PUCSORGRIGHT
 10
0.0
 20
0.0
 30
0.0
  9
$PUCSORGFRONT
 10
0.0
 20
0.0
 30
0.0
  9
$PUCSORGBACK
 10
0.0
 20
0.0
 30
0.0
  9
$USERI1
 70
     0
  9
$USERI2
 70
     0
  9
$USERI3
 70
     0
  9
$USERI4
 70
     0
  9
$USERI5
 70
     0
  9
$USERR1
 40
0.0
  9
$USERR2
 40
0.0
  9
$USERR3
 40
0.0
  9
$USERR4
 40
0.0
  9
$USERR5
 40
0.0
  9
$WORLDVIEW
 70
     1
  9
$SHADEDGE
 70
     3
  9
$SHADEDIF
 70
    70
  9
$TILEMODE
 70
     1
  9
$MAXACTVP
 70
    64
  9
$PINSBASE
 10
0.0
 20
0.0
 30
0.0
  9
$PLIMCHECK
 70
     0
  9
$PEXTMIN
 10
26.66999878883363
 20
20.31999878883363
 30
0.0
  9
$PEXTMAX
 10
240.0299890995026
 20
182.8799890995025
 30
0.0
  9
$PLIMMIN
 10
-6.350006103515625
 20
-6.349999904632567
  9
$PLIMMAX
 10
273.0499877929688
 20
209.5499939918518
  9
$UNITMODE
 70
     0
  9
$VISRETAIN
 70
     1
  9
$PLINEGEN
 70
     0
  9
$PSLTSCALE
 70
     1
  9
$TREEDEPTH
 70
  3020
  9
$CMLSTYLE
  2
Standard
  9
$CMLJUST
 70
     0
  9
$CMLSCALE
 40
20.0
  9
$PROXYGRAPHICS
 70
     1
  9
$MEASUREMENT
 70
     1
  9
$CELWEIGHT
370
    -1
  9
$ENDCAPS
280
     0
  9
$JOINSTYLE
280
     0
  9
$LWDISPLAY
290
     0
  9
$INSUNITS
 70
     4
  9
$HYPERLINKBASE
  1

  9
$STYLESHEET
  1

  9
$XEDIT
290
     1
  9
$CEPSNTYPE
380
     0
  9
$PSTYLEMODE
290
     1
  9
$FINGERPRINTGUID
  2
{FDEAD578-A652-11D2-9A35-0060089B3A3F}
  9
$VERSIONGUID
  2
{BC24E8B9-A889-41FF-9F6D-D861092AC2A7}
  9
$EXTNAMES
290
     1
  9
$PSVPSCALE
 40
0.0
  9
$OLESTARTUP
290
     0
  0
ENDSEC
  0
SECTION
  2
CLASSES
  0
CLASS
  1
ACDBDICTIONARYWDFLT
  2
AcDbDictionaryWithDefault
  3
ObjectDBX Classes
 90
        0
280
     0
281
     0
  0
CLASS
  1
ACDBPLACEHOLDER
  2
AcDbPlaceHolder
  3
ObjectDBX Classes
 90
        0
280
     0
281
     0
  0
CLASS
  1
LAYOUT
  2
AcDbLayout
  3
ObjectDBX Classes
 90
        0
280
     0
281
     0
  0
CLASS
  1
DICTIONARYVAR
  2
AcDbDictionaryVar
  3
ObjectDBX Classes
 90
        0
280
     0
281
     0
  0
CLASS
  1
MATERIAL
  2
AcDbMaterial
  3
ObjectDBX Classes
 90
        0
280
     0
281
     0
  0
CLASS
  1
SORTENTSTABLE
  2
AcDbSortentsTable
  3
ObjectDBX Classes
 90
    32768
280
     0
281
     0
  0
CLASS
  1
DIMASSOC
  2
AcDbDimAssoc
  3
"AcDbDimAssoc|Product Desc:     AcDim ARX App For Dimension|Company:          Autodesk, Inc.|WEB Address:      www.autodesk.com"
 90
    32768
280
     0
281
     0
  0
ENDSEC
  0
SECTION
  2
TABLES
  0
TABLE
  2
VPORT
  5
8
330
0
100
AcDbSymbolTable
 70
     2
  0
VPORT
  5
308
330
8
100
AcDbSymbolTableRecord
100
AcDbViewportTableRecord
  2
*Active
 70
     0
 10
0.0
 20
0.0
 11
1.0
 21
1.0
 12
667.2260209336664
 22
535.4774302204255
 13
0.0
 23
0.0
 14
10.0
 24
10.0
 15
10.0
 25
10.0
 16
0.0
 26
0.0
 36
1.0
 17
0.0
 27
0.0
 37
0.0
 40
1127.532058649969
 41
1.68860353130016
 42
50.0
 43
0.0
 44
0.0
 50
0.0
 51
0.0
 71
     0
 72
  1000
 73
     1
 74
     3
 75
     0
 76
     0
 77
     0
 78
     0
281
     0
 65
     1
110
0.0
120
0.0
130
0.0
111
1.0
121
0.0
131
0.0
112
0.0
122
1.0
132
0.0
 79
     0
146
0.0
  0
ENDTAB
  0
TABLE
  2
LTYPE
  5
5
330
0
100
AcDbSymbolTable
 70
     1
  0
LTYPE
  5
14
330
5
100
AcDbSymbolTableRecord
100
AcDbLinetypeTableRecord
  2
ByBlock
 70
     0
  3

 72
    65
 73
     0
 40
0.0
  0
LTYPE
  5
15
330
5
100
AcDbSymbolTableRecord
100
AcDbLinetypeTableRecord
  2
ByLayer
 70
     0
  3

 72
    65
 73
     0
 40
0.0
  0
LTYPE
  5
16
330
5
100
AcDbSymbolTableRecord
100
AcDbLinetypeTableRecord
  2
Continuous
 70
     0
  3
Solid line
 72
    65
 73
     0
 40
0.0
  0
ENDTAB
  0
TABLE
  2
LAYER
  5
2
330
0
100
AcDbSymbolTable
 70
     4
  0
LAYER
  5
10
330
2
100
AcDbSymbolTableRecord
100
AcDbLayerTableRecord
  2
0
 70
     0
 62
     2
  6
Continuous
370
    -3
390
F
  0
LAYER
  5
94
330
2
100
AcDbSymbolTableRecord
100
AcDbLayerTableRecord
  2
1
 70
     0
 62
     1
  6
Continuous
370
    -3
390
F
  0
LAYER
  5
95
330
2
100
AcDbSymbolTableRecord
100
AcDbLayerTableRecord
  2
2
 70
     0
 62
     7
  6
Continuous
370
    -3
390
F
  0
LAYER
  5
227
330
2
100
AcDbSymbolTableRecord
100
AcDbLayerTableRecord
  2
Defpoints
 70
     0
 62
     7
  6
Continuous
290
     0
370
    -3
390
F
  0
ENDTAB
  0
TABLE
  2
STYLE
  5
3
330
0
100
AcDbSymbolTable
 70
     1
  0
STYLE
  5
11
330
3
100
AcDbSymbolTableRecord
100
AcDbTextStyleTableRecord
  2
Standard
 70
     0
 40
0.0
 41
1.0
 50
0.0
 71
     0
 42
2.5
  3
txt
  4

  0
ENDTAB
  0
TABLE
  2
VIEW
  5
6
330
0
100
AcDbSymbolTable
 70
     0
  0
ENDTAB
  0
TABLE
  2
UCS
  5
7
330
0
100
AcDbSymbolTable
 70
     0
  0
ENDTAB
  0
TABLE
  2
APPID
  5
9
330
0
100
AcDbSymbolTable
 70
     1
  0
APPID
  5
12
330
9
100
AcDbSymbolTableRecord
100
AcDbRegAppTableRecord
  2
ACAD
 70
     0
  0
ENDTAB
  0
TABLE
  2
DIMSTYLE
  5
A
330
0
100
AcDbSymbolTable
 70
     1
100
AcDbDimStyleTable
 71
     1
340
27
  0
DIMSTYLE
105
27
330
A
100
AcDbSymbolTableRecord
100
AcDbDimStyleTableRecord
  2
ISO-25
 70
     0
 41
2.5
 42
0.625
 43
3.75
 44
1.25
 73
     0
 74
     0
 77
     1
 78
     8
140
2.5
141
2.5
143
0.03937007874016
147
0.625
171
     3
172
     1
271
     2
272
     2
274
     3
278
    44
283
     0
284
     8
340
11
  0
ENDTAB
  0
TABLE
  2
BLOCK_RECORD
  5
1
330
0
100
AcDbSymbolTable
 70
     3
  0
BLOCK_RECORD
  5
1F
330
1
100
AcDbSymbolTableRecord
100
AcDbBlockTableRecord
  2
*Model_Space
340
22
  0
BLOCK_RECORD
  5
50
330
1
100
AcDbSymbolTableRecord
100
AcDbBlockTableRecord
  2
*Paper_Space
340
51
  0
BLOCK_RECORD
  5
55
330
1
100
AcDbSymbolTableRecord
100
AcDbBlockTableRecord
  2
*Paper_Space0
340
56
  0
BLOCK_RECORD
  5
228
330
1
100
AcDbSymbolTableRecord
100
AcDbBlockTableRecord
  2
*D1
340
0
  0
BLOCK_RECORD
  5
240
330
1
100
AcDbSymbolTableRecord
100
AcDbBlockTableRecord
  2
*D2
340
0
  0
ENDTAB
  0
ENDSEC
  0
SECTION
  2
BLOCKS
  0
BLOCK
  5
20
330
1F
100
AcDbEntity
  8
0
100
AcDbBlockBegin
  2
*Model_Space
 70
     0
 10
0.0
 20
0.0
 30
0.0
  3
*Model_Space
  1

  0
ENDBLK
  5
21
330
1F
100
AcDbEntity
  8
0
100
AcDbBlockEnd
  0
BLOCK
  5
52
330
50
100
AcDbEntity
 67
     1
  8
0
100
AcDbBlockBegin
  2
*Paper_Space
 70
     0
 10
0.0
 20
0.0
 30
0.0
  3
*Paper_Space
  1

  0
ENDBLK
  5
53
330
50
100
AcDbEntity
 67
     1
  8
0
100
AcDbBlockEnd
  0
BLOCK
  5
57
330
55
100
AcDbEntity
  8
0
100
AcDbBlockBegin
  2
*Paper_Space0
 70
     0
 10
0.0
 20
0.0
 30
0.0
  3
*Paper_Space0
  1

  0
ENDBLK
  5
58
330
55
100
AcDbEntity
  8
0
100
AcDbBlockEnd
  0
BLOCK
  5
232
330
228
100
AcDbEntity
  8
0
100
AcDbBlockBegin
  2
*D1
 70
     1
 10
0.0
 20
0.0
 30
0.0
  3
*D1
  1

  0
ARC
  5
235
330
228
100
AcDbEntity
  8
2
 62
     0
370
    -2
100
AcDbCircle
 10
499.2431472694014
 20
650.2936295866742
 30
0.0
 40
82.03732203104769
100
AcDbArc
 50
1.746095415485485
 51
58.25390458451447
  0
SOLID
  5
236
330
228
100
AcDbEntity
  8
2
 62
     0
100
AcDbTrace
 10
581.6589951781049
 20
652.7996880997691
 30
0.0
 11
580.8257585858764
 21
652.7869906269497
 31
0.0
 12
581.280469300449
 22
650.293629586674
 32
0.0
 13
581.280469300449
 23
650.293629586674
 33
0.0
  0
SOLID
  5
237
330
228
100
AcDbEntity
  8
2
 62
     0
100
AcDbTrace
 10
542.1937669293241
 20
719.6995629736757
 30
0.0
 11
542.6213815594636
 21
720.4148182934987
 31
0.0
 12
540.2618082849253
 22
721.3400345240062
 32
0.0
 13
540.2618082849253
 23
721.3400345240062
 33
0.0
  0
MTEXT
  5
238
330
228
100
AcDbEntity
  8
2
 62
     0
100
AcDbMText
 10
571.9133498388294
 20
692.249790602198
 30
0.0
 40
2.5
 41
0.0
 71
     5
 72
     1
  1
60бу
 11
0.5000000000000006
 21
-0.8660254037844385
 31
0.0
 73
     1
 44
1.0
1001
ACAD
1000
MTEXTBEGIN
1070
    73
1070
     1
1070
    44
1040
1.0
1070
    74
1070
     0
1000
MTEXTEND
  0
POINT
  5
239
330
228
100
AcDbEntity
  8
Defpoints
 62
     0
100
AcDbPoint
 10
576.3330134110142
 20
678.3520462257873
 30
0.0
  0
POINT
  5
23A
330
228
100
AcDbEntity
  8
Defpoints
 62
     0
100
AcDbPoint
 10
499.2431472694014
 20
650.2936295866742
 30
0.0
  0
POINT
  5
23B
330
228
100
AcDbEntity
  8
Defpoints
 62
     0
100
AcDbPoint
 10
141.9153105131309
 20
650.2936295866742
 30
0.0
  0
POINT
  5
23C
330
228
100
AcDbEntity
  8
Defpoints
 62
     0
100
AcDbPoint
 10
1056.570984025672
 20
650.2936295866742
 30
0.0
  0
POINT
  5
23D
330
228
100
AcDbEntity
  8
Defpoints
 62
     0
100
AcDbPoint
 10
599.2431472694014
 20
823.4987103435617
 30
0.0
  0
ENDBLK
  5
233
330
228
100
AcDbEntity
  8
0
100
AcDbBlockEnd
  0
BLOCK
  5
24A
330
240
100
AcDbEntity
  8
0
100
AcDbBlockBegin
  2
*D2
 70
     1
 10
0.0
 20
0.0
 30
0.0
  3
*D2
  1

  0
LINE
  5
24D
330
240
100
AcDbEntity
  8
2
 62
     0
370
    -2
100
AcDbLine
 10
599.7844131467667
 20
823.186210343562
 30
0.0
 11
628.3726149609142
 21
806.6808043305165
 31
0.0
  0
LINE
  5
24E
330
240
100
AcDbEntity
  8
2
 62
     0
370
    -2
100
AcDbLine
 10
499.7844131467666
 20
649.9811295866742
 30
0.0
 11
528.3726149609143
 21
633.4757235736288
 31
0.0
  0
LINE
  5
24F
330
240
100
AcDbEntity
  8
2
 62
     0
370
    -2
100
AcDbLine
 10
626.0400832061836
 20
805.1407408210554
 30
0.0
 11
528.5400832061838
 21
636.2657870830899
 31
0.0
  0
SOLID
  5
250
330
240
100
AcDbEntity
  8
2
 62
     0
100
AcDbTrace
 10
625.6792392879401
 20
805.3490741543889
 30
0.0
 11
626.4009271244272
 21
804.9324074877221
 31
0.0
 12
627.2900832061838
 22
807.3058043305165
 32
0.0
 13
627.2900832061838
 23
807.3058043305165
 33
0.0
  0
SOLID
  5
251
330
240
100
AcDbEntity
  8
2
 62
     0
100
AcDbTrace
 10
528.1792392879403
 20
636.4741204164232
 30
0.0
 11
528.9009271244273
 21
636.0574537497565
 31
0.0
 12
527.2900832061838
 22
634.1007235736287
 32
0.0
 13
527.2900832061838
 23
634.1007235736287
 33
0.0
  0
MTEXT
  5
252
330
240
100
AcDbEntity
  8
2
 62
     0
100
AcDbMText
 10
575.6662855740877
 20
721.6407639520728
 30
0.0
 40
2.5
 41
0.0
 71
     5
 72
     1
  1
200
 11
0.4999999999999995
 21
0.8660254037844389
 31
0.0
 73
     1
 44
1.0
1001
ACAD
1000
MTEXTBEGIN
1070
    73
1070
     1
1070
    44
1040
1.0
1070
    74
1070
     0
1000
MTEXTEND
  0
POINT
  5
253
330
240
100
AcDbEntity
  8
Defpoints
 62
     0
100
AcDbPoint
 10
599.2431472694014
 20
823.4987103435621
 30
0.0
  0
POINT
  5
254
330
240
100
AcDbEntity
  8
Defpoints
 62
     0
100
AcDbPoint
 10
499.2431472694014
 20
650.2936295866742
 30
0.0
  0
POINT
  5
255
330
240
100
AcDbEntity
  8
Defpoints
 62
     0
100
AcDbPoint
 10
527.2900832061838
 20
634.1007235736287
 30
0.0
  0
ENDBLK
  5
24B
330
240
100
AcDbEntity
  8
0
100
AcDbBlockEnd
  0
ENDSEC
  0
SECTION
  2
ENTITIES
  0
LWPOLYLINE
  5
96
330
1F
100
AcDbEntity
  8
0
 62
     2
100
AcDbPolyline
 90
        4
 70
     1
 43
0.0
 10
0.0
 20
0.0
 10
1000.0
 20
0.0
 10
1000.0
 20
1000.0
 10
0.0
 20
1000.0
  0
LINE
  5
B1
330
1F
100
AcDbEntity
  8
1
 62
     1
100
AcDbLine
 10
20.0
 20
247.8637874094892
 30
0.0
 11
980.0
 21
247.8637874094892
 31
0.0
  0
LINE
  5
B2
330
1F
100
AcDbEntity
  8
1
 62
     1
100
AcDbLine
 10
980.0000000000004
 20
247.8637874094892
 30
0.0
 11
980.0
 21
752.1362125905108
 31
0.0
  0
LINE
  5
B3
330
1F
100
AcDbEntity
  8
1
 62
     1
100
AcDbLine
 10
980.0
 20
752.1362125905108
 30
0.0
 11
19.99999999999994
 21
752.1362125905108
 31
0.0
  0
LINE
  5
B4
330
1F
100
AcDbEntity
  8
1
 62
     1
100
AcDbLine
 10
19.99999999999994
 20
752.1362125905108
 30
0.0
 11
19.99999999999994
 21
247.8637874094892
 31
0.0
  0
LINE
  5
1E4
102
{ACAD_REACTORS
330
2C9
102
}
330
1F
100
AcDbEntity
  8
2
100
AcDbLine
 10
41.1910051514381
 20
302.329081149091
 30
0.0
 11
954.1222696187316
 21
302.3290811490911
 31
0.0
  0
LINE
  5
1E7
102
{ACAD_REACTORS
330
2C9
102
}
330
1F
100
AcDbEntity
  8
2
100
AcDbLine
 10
954.1222696187452
 20
272.3290811490911
 30
0.0
 11
954.1222696187316
 21
302.3290811490911
 31
0.0
  0
LINE
  5
21B
330
1F
100
AcDbEntity
  8
2
100
AcDbLine
 10
138.5506264214023
 20
422.3290811490908
 30
0.0
 11
738.5506264214022
 21
422.3290811490908
 31
0.0
  0
CIRCLE
  5
21F
330
1F
100
AcDbEntity
  8
2
100
AcDbCircle
 10
258.5506264214022
 20
362.3290811490911
 30
0.0
 40
60.0
  0
CIRCLE
  5
220
330
1F
100
AcDbEntity
  8
2
100
AcDbCircle
 10
618.5506264214023
 20
362.3290811490911
 30
0.0
 40
60.00000000000007
  0
LINE
  5
221
330
1F
100
AcDbEntity
  8
2
100
AcDbLine
 10
138.5506264214023
 20
422.3290811490911
 30
0.0
 11
138.5506264214023
 21
482.3290811490909
 31
0.0
  0
LINE
  5
222
330
1F
100
AcDbEntity
  8
2
100
AcDbLine
 10
738.5506264214022
 20
422.3290811490911
 30
0.0
 11
738.5506264214022
 21
482.3290811490909
 31
0.0
  0
LINE
  5
224
330
1F
100
AcDbEntity
  8
2
100
AcDbLine
 10
138.5506264214023
 20
482.3290811490909
 30
0.0
 11
738.5506264214022
 21
482.329081149091
 31
0.0
  0
LINE
  5
225
330
1F
100
AcDbEntity
  8
2
100
AcDbLine
 10
498.5506264214022
 20
482.329081149091
 30
0.0
 11
328.8449989366307
 21
652.0347086338623
 31
0.0
  0
LINE
  5
257
330
1F
100
AcDbEntity
  8
2
100
AcDbLine
 10
583.4034401637877
 20
567.1818948914768
 30
0.0
 11
413.6978126790165
 21
736.8875223762481
 31
0.0
  0
LINE
  5
258
330
1F
100
AcDbEntity
  8
2
100
AcDbLine
 10
498.5506264214022
 20
482.329081149091
 30
0.0
 11
583.4034401637877
 21
567.1818948914768
 31
0.0
  0
LINE
  5
259
330
1F
100
AcDbEntity
  8
2
100
AcDbLine
 10
328.8449989366307
 20
652.0347086338623
 30
0.0
 11
413.6978126790165
 21
736.8875223762481
 31
0.0
  0
CIRCLE
  5
25A
330
1F
100
AcDbEntity
  8
2
100
AcDbCircle
 10
618.5506264214023
 20
362.3290811490911
 30
0.0
 40
30.00000000000007
  0
CIRCLE
  5
25B
330
1F
100
AcDbEntity
  8
2
100
AcDbCircle
 10
258.5506264214022
 20
362.3290811490911
 30
0.0
 40
30.0
  0
LINE
  5
2A8
330
1F
100
AcDbEntity
  8
2
100
AcDbLine
 10
888.5066188717056
 20
473.0363162160057
 30
0.0
 11
888.954408256186
 21
429.6099501527898
 31
0.0
  0
HATCH
  5
2A9
330
1F
100
AcDbEntity
  8
2
100
AcDbHatch
 10
0.0
 20
0.0
 30
0.0
210
0.0
220
0.0
230
1.0
  2
SOLID
 70
     1
 71
     0
 91
        2
 92
        7
 72
     0
 73
     1
 93
        3
 10
888.5066188717056
 20
473.0363162160053
 10
888.7305135639397
 20
451.3231331844034
 10
937.508651309009
 20
451.8261071667441
 97
        0
 92
        7
 72
     0
 73
     1
 93
        3
 10
888.7305135639397
 20
451.3231331844034
 10
888.954408256186
 20
429.6099501527898
 10
937.508651309009
 20
451.8261071667441
 97
        0
 75
     0
 76
     1
 47
0.0666496363939948
 98
        2
 10
902.4654836812286
 20
462.2994976776298
 10
898.9604713960131
 20
446.5275440949879
  0
LINE
  5
2AA
330
1F
100
AcDbEntity
  8
2
100
AcDbLine
 10
937.5086513090087
 20
451.8261071667444
 30
0.0
 11
888.5066188717056
 21
473.0363162160057
 31
0.0
  0
LINE
  5
2AB
330
1F
100
AcDbEntity
  8
2
100
AcDbLine
 10
738.5506264214022
 20
451.8261071667445
 30
0.0
 11
937.5086513090087
 21
451.8261071667444
 31
0.0
  0
LINE
  5
2AC
102
{ACAD_REACTORS
330
2C9
102
}
330
1F
100
AcDbEntity
  8
2
100
AcDbLine
 10
41.1910051514381
 20
302.3290811490911
 30
0.0
 11
41.19100515143816
 21
272.329081149091
 31
0.0
  0
LINE
  5
2AF
102
{ACAD_REACTORS
330
2C9
102
}
330
1F
100
AcDbEntity
  8
2
100
AcDbLine
 10
41.1910051514381
 20
272.329081149091
 30
0.0
 11
954.1222696187316
 21
272.3290811490911
 31
0.0
  0
LINE
  5
2B0
330
1F
100
AcDbEntity
  8
2
 62
     2
370
     0
100
AcDbLine
 10
1000.0
 20
1000.0
 30
0.0
 11
0.0
 21
1000.0
 31
0.0
  0
LINE
  5
2B1
330
1F
100
AcDbEntity
  8
2
 62
     2
370
     0
100
AcDbLine
 10
0.0
 20
1000.0
 30
0.0
 11
0.0
 21
0.0
 31
0.0
  0
LINE
  5
2B2
330
1F
100
AcDbEntity
  8
2
 62
     2
370
     0
100
AcDbLine
 10
0.0
 20
0.0
 30
0.0
 11
1000.0
 21
0.0
 31
0.0
  0
LINE
  5
2B3
330
1F
100
AcDbEntity
  8
2
 62
     2
370
     0
100
AcDbLine
 10
1000.0
 20
0.0
 30
0.0
 11
1000.0
 21
1000.0
 31
0.0
  0
ARC
  5
2B4
330
1F
100
AcDbEntity
  8
2
 62
     7
370
     0
100
AcDbCircle
 10
258.5506264214022
 20
362.3290811490909
 30
0.0
 40
60.0
100
AcDbArc
 50
90.0
 51
179.9999999999997
  0
LINE
  5
2B5
330
1F
100
AcDbEntity
  8
2
 62
     7
370
     0
100
AcDbLine
 10
258.5506264214022
 20
422.3290811490908
 30
0.0
 11
138.5506264214023
 21
422.3290811490906
 31
0.0
  0
LINE
  5
2B6
330
1F
100
AcDbEntity
  8
2
 62
     7
370
     0
100
AcDbLine
 10
138.5506264214023
 20
422.3290811490906
 30
0.0
 11
138.5506264214023
 21
482.3290811490909
 31
0.0
  0
LINE
  5
2B7
330
1F
100
AcDbEntity
  8
2
 62
     7
370
     0
100
AcDbLine
 10
138.5506264214023
 20
482.3290811490909
 30
0.0
 11
738.5506264214022
 21
482.329081149091
 31
0.0
  0
LINE
  5
2B8
330
1F
100
AcDbEntity
  8
2
 62
     7
370
     0
100
AcDbLine
 10
738.5506264214022
 20
482.329081149091
 30
0.0
 11
738.5506264214022
 21
422.3290811490908
 31
0.0
  0
LINE
  5
2B9
330
1F
100
AcDbEntity
  8
2
 62
     7
370
     0
100
AcDbLine
 10
738.5506264214022
 20
422.3290811490908
 30
0.0
 11
618.5506264214023
 21
422.3290811490908
 31
0.0
  0
ARC
  5
2BA
330
1F
100
AcDbEntity
  8
2
 62
     7
370
     0
100
AcDbCircle
 10
618.5506264214023
 20
362.3290811490908
 30
0.0
 40
60.00000000000007
100
AcDbArc
 50
0.0000000000003257
 51
90.00000000000012
  0
ARC
  5
2BB
330
1F
100
AcDbEntity
  8
2
 62
     7
370
     0
100
AcDbCircle
 10
618.5506264214023
 20
362.3290811490911
 30
0.0
 40
60.00000000000014
100
AcDbArc
 50
180.0
 51
0.0
  0
ARC
  5
2BC
330
1F
100
AcDbEntity
  8
2
 62
     7
370
     0
100
AcDbCircle
 10
618.5506264214019
 20
362.3290811490908
 30
0.0
 40
60.00000000000007
100
AcDbArc
 50
89.99999999999987
 51
179.9999999999996
  0
LINE
  5
2BD
330
1F
100
AcDbEntity
  8
2
 62
     7
370
     0
100
AcDbLine
 10
618.5506264214023
 20
422.3290811490908
 30
0.0
 11
258.5506264214022
 21
422.3290811490908
 31
0.0
  0
ARC
  5
2BE
330
1F
100
AcDbEntity
  8
2
 62
     7
370
     0
100
AcDbCircle
 10
258.5506264214022
 20
362.3290811490909
 30
0.0
 40
60.0
100
AcDbArc
 50
0.0000000000002606
 51
90.0
  0
ARC
  5
2BF
330
1F
100
AcDbEntity
  8
2
 62
     7
370
     0
100
AcDbCircle
 10
258.5506264214022
 20
362.3290811490911
 30
0.0
 40
60.0
100
AcDbArc
 50
180.0
 51
0.0
  0
ARC
  5
2C0
330
1F
100
AcDbEntity
  8
2
 62
     7
370
     0
100
AcDbCircle
 10
258.5506264214022
 20
362.3290811490911
 30
0.0
 40
30.0
100
AcDbArc
 50
0.0
 51
180.0
  0
ARC
  5
2C1
330
1F
100
AcDbEntity
  8
2
 62
     7
370
     0
100
AcDbCircle
 10
258.5506264214022
 20
362.3290811490911
 30
0.0
 40
30.0
100
AcDbArc
 50
180.0
 51
0.0
  0
ARC
  5
2C2
330
1F
100
AcDbEntity
  8
2
 62
     7
370
     0
100
AcDbCircle
 10
618.5506264214019
 20
362.3290811490911
 30
0.0
 40
30.00000000000007
100
AcDbArc
 50
0.0
 51
180.0
  0
ARC
  5
2C3
330
1F
100
AcDbEntity
  8
2
 62
     7
370
     0
100
AcDbCircle
 10
618.5506264214019
 20
362.3290811490911
 30
0.0
 40
30.00000000000007
100
AcDbArc
 50
180.0
 51
0.0
  0
HATCH
  5
2C9
330
1F
100
AcDbEntity
  8
2
100
AcDbHatch
 10
0.0
 20
0.0
 30
0.0
210
0.0
220
0.0
230
1.0
  2
SOLID
 70
     1
 71
     1
 91
        1
 92
        7
 72
     0
 73
     1
 93
        4
 10
954.1222696187452
 20
272.3290811490911
 10
954.122269618732
 20
302.3290811490911
 10
41.1910051514381
 20
302.329081149091
 10
41.19100515143816
 20
272.329081149091
 97
        4
330
1E4
330
2AC
330
2AF
330
1E7
 75
     0
 76
     1
 47
0.8774901831618251
 98
        1
 10
498.055336129657
 20
286.8914086251787
  0
LINE
  5
2E1
330
1F
100
AcDbEntity
  8
2
100
AcDbLine
 10
502.7057515093977
 20
486.4842062370865
 30
0.0
 11
333.0001240246263
 21
656.1898337218579
 31
0.0
  0
LINE
  5
2E2
330
1F
100
AcDbEntity
  8
2
100
AcDbLine
 10
513.4820588546805
 20
497.2605135823695
 30
0.0
 11
343.7764313699092
 21
666.9661410671408
 31
0.0
  0
LINE
  5
2E3
330
1F
100
AcDbEntity
  8
2
100
AcDbLine
 10
524.2583661999636
 20
508.0368209276524
 30
0.0
 11
354.5527387151923
 21
677.742448412424
 31
0.0
  0
LINE
  5
2E4
330
1F
100
AcDbEntity
  8
2
100
AcDbLine
 10
535.0346735452465
 20
518.8131282729354
 30
0.0
 11
365.3290460604752
 21
688.5187557577069
 31
0.0
  0
LINE
  5
2E5
330
1F
100
AcDbEntity
  8
2
100
AcDbLine
 10
545.8109808905295
 20
529.5894356182185
 30
0.0
 11
376.1053534057583
 21
699.2950631029899
 31
0.0
  0
LINE
  5
2E6
330
1F
100
AcDbEntity
  8
2
100
AcDbLine
 10
556.5872882358124
 20
540.3657429635014
 30
0.0
 11
386.881660751041
 21
710.0713704482729
 31
0.0
  0
LINE
  5
2E7
330
1F
100
AcDbEntity
  8
2
100
AcDbLine
 10
567.3635955810955
 20
551.1420503087846
 30
0.0
 11
397.6579680963241
 21
720.8476777935559
 31
0.0
  0
LINE
  5
2E8
330
1F
100
AcDbEntity
  8
2
100
AcDbLine
 10
578.1399029263784
 20
561.9183576540674
 30
0.0
 11
408.4342754416069
 21
731.6239851388389
 31
0.0
  0
LINE
  5
2E9
330
1F
100
AcDbEntity
  8
2
100
AcDbLine
 10
138.5506264214022
 20
479.8838696325129
 30
0.0
 11
140.9958379379803
 21
482.329081149091
 31
0.0
  0
LINE
  5
2EA
330
1F
100
AcDbEntity
  8
2
100
AcDbLine
 10
138.5506264214022
 20
458.3312549419469
 30
0.0
 11
162.5484526285463
 21
482.329081149091
 31
0.0
  0
LINE
  5
2EB
330
1F
100
AcDbEntity
  8
2
100
AcDbLine
 10
138.5506264214022
 20
436.7786402513809
 30
0.0
 11
184.1010673191122
 21
482.3290811490909
 31
0.0
  0
LINE
  5
2EC
330
1F
100
AcDbEntity
  8
2
100
AcDbLine
 10
145.653682009678
 20
422.3290811490908
 30
0.0
 11
205.6536820096783
 21
482.329081149091
 31
0.0
  0
LINE
  5
2ED
330
1F
100
AcDbEntity
  8
2
100
AcDbLine
 10
167.2062967002441
 20
422.3290811490908
 30
0.0
 11
227.2062967002442
 21
482.3290811490909
 31
0.0
  0
LINE
  5
2EE
330
1F
100
AcDbEntity
  8
2
100
AcDbLine
 10
188.75891139081
 20
422.3290811490908
 30
0.0
 11
248.7589113908102
 21
482.329081149091
 31
0.0
  0
LINE
  5
2EF
330
1F
100
AcDbEntity
  8
2
100
AcDbLine
 10
210.311526081376
 20
422.3290811490908
 30
0.0
 11
270.3115260813762
 21
482.329081149091
 31
0.0
  0
LINE
  5
2F0
330
1F
100
AcDbEntity
  8
2
100
AcDbLine
 10
231.8641407719419
 20
422.3290811490909
 30
0.0
 11
291.8641407719422
 21
482.329081149091
 31
0.0
  0
LINE
  5
2F1
330
1F
100
AcDbEntity
  8
2
100
AcDbLine
 10
253.416755462508
 20
422.3290811490908
 30
0.0
 11
313.4167554625081
 21
482.329081149091
 31
0.0
  0
LINE
  5
2F2
330
1F
100
AcDbEntity
  8
2
100
AcDbLine
 10
274.9693701530739
 20
422.3290811490909
 30
0.0
 11
334.9693701530741
 21
482.329081149091
 31
0.0
  0
LINE
  5
2F3
330
1F
100
AcDbEntity
  8
2
100
AcDbLine
 10
296.5219848436399
 20
422.3290811490908
 30
0.0
 11
356.5219848436401
 21
482.329081149091
 31
0.0
  0
LINE
  5
2F4
330
1F
100
AcDbEntity
  8
2
100
AcDbLine
 10
318.0745995342058
 20
422.3290811490908
 30
0.0
 11
378.0745995342061
 21
482.329081149091
 31
0.0
  0
LINE
  5
2F5
330
1F
100
AcDbEntity
  8
2
100
AcDbLine
 10
339.6272142247717
 20
422.3290811490908
 30
0.0
 11
399.627214224772
 21
482.329081149091
 31
0.0
  0
LINE
  5
2F6
330
1F
100
AcDbEntity
  8
2
100
AcDbLine
 10
361.1798289153377
 20
422.3290811490908
 30
0.0
 11
421.1798289153379
 21
482.329081149091
 31
0.0
  0
LINE
  5
2F7
330
1F
100
AcDbEntity
  8
2
100
AcDbLine
 10
382.7324436059037
 20
422.3290811490908
 30
0.0
 11
442.7324436059037
 21
482.3290811490909
 31
0.0
  0
LINE
  5
2F8
330
1F
100
AcDbEntity
  8
2
100
AcDbLine
 10
404.2850582964696
 20
422.3290811490908
 30
0.0
 11
464.2850582964697
 21
482.3290811490909
 31
0.0
  0
LINE
  5
2F9
330
1F
100
AcDbEntity
  8
2
100
AcDbLine
 10
425.8376729870357
 20
422.3290811490908
 30
0.0
 11
485.8376729870356
 21
482.3290811490909
 31
0.0
  0
LINE
  5
2FA
330
1F
100
AcDbEntity
  8
2
100
AcDbLine
 10
447.3902876776017
 20
422.3290811490909
 30
0.0
 11
507.3902876776017
 21
482.3290811490909
 31
0.0
  0
LINE
  5
2FB
330
1F
100
AcDbEntity
  8
2
100
AcDbLine
 10
468.9429023681676
 20
422.3290811490908
 30
0.0
 11
528.9429023681676
 21
482.3290811490909
 31
0.0
  0
LINE
  5
2FC
330
1F
100
AcDbEntity
  8
2
100
AcDbLine
 10
490.4955170587334
 20
422.3290811490908
 30
0.0
 11
550.4955170587336
 21
482.3290811490909
 31
0.0
  0
LINE
  5
2FD
330
1F
100
AcDbEntity
  8
2
100
AcDbLine
 10
512.0481317492995
 20
422.3290811490908
 30
0.0
 11
572.0481317492995
 21
482.3290811490909
 31
0.0
  0
LINE
  5
2FE
330
1F
100
AcDbEntity
  8
2
100
AcDbLine
 10
533.6007464398654
 20
422.3290811490908
 30
0.0
 11
593.6007464398655
 21
482.3290811490909
 31
0.0
  0
LINE
  5
2FF
330
1F
100
AcDbEntity
  8
2
100
AcDbLine
 10
555.1533611304314
 20
422.3290811490908
 30
0.0
 11
615.1533611304316
 21
482.3290811490909
 31
0.0
  0
LINE
  5
300
330
1F
100
AcDbEntity
  8
2
100
AcDbLine
 10
576.7059758209974
 20
422.3290811490908
 30
0.0
 11
636.7059758209975
 21
482.329081149091
 31
0.0
  0
LINE
  5
301
330
1F
100
AcDbEntity
  8
2
100
AcDbLine
 10
598.2585905115634
 20
422.3290811490908
 30
0.0
 11
658.2585905115636
 21
482.329081149091
 31
0.0
  0
LINE
  5
302
330
1F
100
AcDbEntity
  8
2
100
AcDbLine
 10
619.8112052021294
 20
422.3290811490908
 30
0.0
 11
679.8112052021295
 21
482.329081149091
 31
0.0
  0
LINE
  5
303
330
1F
100
AcDbEntity
  8
2
100
AcDbLine
 10
641.3638198926953
 20
422.3290811490908
 30
0.0
 11
701.3638198926956
 21
482.329081149091
 31
0.0
  0
LINE
  5
304
330
1F
100
AcDbEntity
  8
2
100
AcDbLine
 10
662.9164345832613
 20
422.3290811490908
 30
0.0
 11
722.9164345832614
 21
482.329081149091
 31
0.0
  0
LINE
  5
305
330
1F
100
AcDbEntity
  8
2
100
AcDbLine
 10
684.4690492738273
 20
422.3290811490908
 30
0.0
 11
738.5506264214022
 21
476.4106582966659
 31
0.0
  0
LINE
  5
306
330
1F
100
AcDbEntity
  8
2
100
AcDbLine
 10
706.0216639643932
 20
422.3290811490908
 30
0.0
 11
738.5506264214025
 21
454.8580436061
 31
0.0
  0
LINE
  5
307
330
1F
100
AcDbEntity
  8
2
100
AcDbLine
 10
727.574278654959
 20
422.3290811490906
 30
0.0
 11
738.5506264214022
 21
433.305428915534
 31
0.0
  0
VIEWPORT
  5
218
102
{ACAD_XDICTIONARY
360
312
102
}
330
50
100
AcDbEntity
 67
     1
  8
0
100
AcDbViewport
 10
157.4493249788839
 20
101.2116072185907
 30
0.0
 40
238.8080601943901
 41
141.423404468731
 68
     1
 69
     1
 12
157.4493249788839
 22
101.2116072185907
 13
0.0
 23
0.0
 14
10.0
 24
10.0
 15
10.0
 25
10.0
 16
0.0
 26
0.0
 36
1.0
 17
0.0
 27
0.0
 37
0.0
 42
50.0
 43
0.0
 44
0.0
 45
141.423404468731
 50
0.0
 51
0.0
 72
  1000
 90
    32800
  1

281
     0
 71
     1
 74
     0
110
0.0
120
0.0
130
0.0
111
1.0
121
0.0
131
0.0
112
0.0
122
1.0
132
0.0
 79
     0
146
0.0
  0
VIEWPORT
  5
21A
102
{ACAD_XDICTIONARY
360
314
102
}
330
50
100
AcDbEntity
 67
     1
  8
2
100
AcDbViewport
 10
133.3499939441681
 20
101.5999939441681
 30
0.0
 40
213.3599903106689
 41
162.5599903106689
 68
     2
 69
     2
 12
500.0
 22
500.0
 13
0.0
 23
0.0
 14
10.0
 24
10.0
 15
10.0
 25
10.0
 16
0.0
 26
0.0
 36
1.0
 17
0.0
 27
0.0
 37
0.0
 42
50.0
 43
0.0
 44
0.0
 45
1013.574660633484
 50
0.0
 51
0.0
 72
  1000
 90
    32864
  1

281
     0
 71
     1
 74
     0
110
0.0
120
0.0
130
0.0
111
1.0
121
0.0
131
0.0
112
0.0
122
1.0
132
0.0
 79
     0
146
0.0
  0
ENDSEC
  0
SECTION
  2
OBJECTS
  0
DICTIONARY
  5
C
330
0
100
AcDbDictionary
281
     1
  3
ACAD_COLOR
350
6B
  3
ACAD_GROUP
350
D
  3
ACAD_LAYOUT
350
1A
  3
ACAD_MATERIAL
350
6A
  3
ACAD_MLINESTYLE
350
17
  3
ACAD_PLOTSETTINGS
350
19
  3
ACAD_PLOTSTYLENAME
350
E
  3
ACDBHEADERROUNDTRIPXREC
350
309
  3
AcDbVariableDictionary
350
5E
  0
DICTIONARY
  5
312
330
218
100
AcDbDictionary
280
     1
281
     1
  3
ACAD_XREC_ROUNDTRIP
360
313
  0
DICTIONARY
  5
314
330
21A
100
AcDbDictionary
280
     1
281
     1
  3
ACAD_XREC_ROUNDTRIP
360
315
  0
DICTIONARY
  5
6B
102
{ACAD_REACTORS
330
C
102
}
330
C
100
AcDbDictionary
281
     1
  0
DICTIONARY
  5
D
102
{ACAD_REACTORS
330
C
102
}
330
C
100
AcDbDictionary
281
     1
  0
DICTIONARY
  5
1A
102
{ACAD_REACTORS
330
C
102
}
330
C
100
AcDbDictionary
281
     1
  3
Layout1
350
51
  3
Layout2
350
56
  3
Model
350
22
  0
DICTIONARY
  5
6A
102
{ACAD_REACTORS
330
C
102
}
330
C
100
AcDbDictionary
281
     1
  3
Global
350
10E
  0
DICTIONARY
  5
17
102
{ACAD_REACTORS
330
C
102
}
330
C
100
AcDbDictionary
281
     1
  3
Standard
350
18
  0
DICTIONARY
  5
19
102
{ACAD_REACTORS
330
C
102
}
330
C
100
AcDbDictionary
281
     1
  0
ACDBDICTIONARYWDFLT
  5
E
102
{ACAD_REACTORS
330
C
102
}
330
C
100
AcDbDictionary
281
     1
  3
Normal
350
F
100
AcDbDictionaryWithDefault
340
F
  0
DICTIONARY
  5
309
102
{ACAD_REACTORS
330
C
102
}
330
C
100
AcDbDictionary
281
     1
  3
COLORDICT
350
30B
  3
MATERIALDICT
350
30A
  0
DICTIONARY
  5
5E
102
{ACAD_REACTORS
330
C
102
}
330
C
100
AcDbDictionary
281
     1
  3
DIMASSOC
350
5F
  3
HIDETEXT
350
63
  3
PROJECTNAME
350
85
  3
SORTENTS
350
2CB
  0
XRECORD
  5
313
102
{ACAD_REACTORS
330
312
102
}
330
312
100
AcDbXrecord
280
     1
102
SHADEPLOT
 70
     0
  0
XRECORD
  5
315
102
{ACAD_REACTORS
330
314
102
}
330
314
100
AcDbXrecord
280
     1
102
SHADEPLOT
 70
     0
  0
LAYOUT
  5
51
102
{ACAD_XDICTIONARY
360
30E
102
}
102
{ACAD_REACTORS
330
1A
102
}
330
1A
100
AcDbPlotSettings
  1

  2
none_device
  4
Letter_(8.50_x_11.00_Inches)
  6

 40
6.349999904632567
 41
6.349999904632567
 42
6.350006103515625
 43
6.350006103515625
 44
215.8999938964844
 45
279.3999938964844
 46
0.0
 47
0.0
 48
0.0
 49
0.0
140
0.0
141
0.0
142
1.0
143
1.0
 70
   688
 72
     1
 73
     1
 74
     5
  7

 75
    16
147
1.0
148
0.0
149
0.0
100
AcDbLayout
  1
Layout1
 70
     1
 71
     1
 10
-6.350006103515625
 20
-6.349999904632567
 11
273.0499877929688
 21
209.5499939918518
 12
0.0
 22
0.0
 32
0.0
 14
26.66999878883363
 24
20.31999878883363
 34
0.0
 15
240.0299890995026
 25
182.8799890995025
 35
0.0
146
0.0
 13
0.0
 23
0.0
 33
0.0
 16
1.0
 26
0.0
 36
0.0
 17
0.0
 27
1.0
 37
0.0
 76
     0
330
50
331
218
  0
LAYOUT
  5
56
102
{ACAD_XDICTIONARY
360
310
102
}
102
{ACAD_REACTORS
330
1A
102
}
330
1A
100
AcDbPlotSettings
  1

  2
None
  4

  6

 40
0.0
 41
0.0
 42
0.0
 43
0.0
 44
0.0
 45
0.0
 46
0.0
 47
0.0
 48
0.0
 49
0.0
140
0.0
141
0.0
142
1.0
143
1.0
 70
   688
 72
     0
 73
     0
 74
     5
  7

 75
    16
147
1.0
148
0.0
149
0.0
100
AcDbLayout
  1
Layout2
 70
     1
 71
     2
 10
0.0
 20
0.0
 11
12.0
 21
9.0
 12
0.0
 22
0.0
 32
0.0
 14
0.0
 24
0.0
 34
0.0
 15
0.0
 25
0.0
 35
0.0
146
0.0
 13
0.0
 23
0.0
 33
0.0
 16
1.0
 26
0.0
 36
0.0
 17
0.0
 27
1.0
 37
0.0
 76
     0
330
55
  0
LAYOUT
  5
22
102
{ACAD_XDICTIONARY
360
30C
102
}
102
{ACAD_REACTORS
330
1A
102
}
330
1A
100
AcDbPlotSettings
  1

  2
none_device
  4
ANSI_A_(8.50_x_11.00_Inches)
  6

 40
6.349999904632567
 41
19.04999923706055
 42
6.350006103515625
 43
19.04998779296875
 44
215.8999938964844
 45
279.3999938964844
 46
0.0
 47
0.0
 48
0.0
 49
0.0
140
0.0
141
0.0
142
1.0
143
78.436453180766
 70
 11952
 72
     0
 73
     1
 74
     0
  7

 75
     0
147
0.0127491741332998
148
0.0
149
0.0
100
AcDbLayout
  1
Model
 70
     1
 71
     0
 10
0.0
 20
0.0
 11
12.0
 21
9.0
 12
0.0
 22
0.0
 32
0.0
 14
0.0
 24
0.0
 34
0.0
 15
0.0
 25
0.0
 35
0.0
146
0.0
 13
0.0
 23
0.0
 33
0.0
 16
1.0
 26
0.0
 36
0.0
 17
0.0
 27
1.0
 37
0.0
 76
     0
330
1F
  0
MATERIAL
  5
10E
330
6A
100
AcDbMaterial
  1
Global
 72
     0
 73
     2
 43
0.0008202099737533
 43
0.0
 43
0.0
 43
0.0
 43
0.0
 43
0.0008202099737533
 43
0.0
 43
0.0
 43
0.0
 43
0.0
 43
1.0
 43
0.0
 43
0.0
 43
0.0
 43
0.0
 43
1.0
 77
     0
 78
     2
 47
0.0008202099737533
 47
0.0
 47
0.0
 47
0.0
 47
0.0
 47
0.0008202099737533
 47
0.0
 47
0.0
 47
0.0
 47
0.0
 47
1.0
 47
0.0
 47
0.0
 47
0.0
 47
0.0
 47
1.0
171
     0
172
     2
 49
0.0008202099737533
 49
0.0
 49
0.0
 49
0.0
 49
0.0
 49
0.0008202099737533
 49
0.0
 49
0.0
 49
0.0
 49
0.0
 49
1.0
 49
0.0
 49
0.0
 49
0.0
 49
0.0
 49
1.0
175
     0
176
     2
142
0.0008202099737533
142
0.0
142
0.0
142
0.0
142
0.0
142
0.0008202099737533
142
0.0
142
0.0
142
0.0
142
0.0
142
1.0
142
0.0
142
0.0
142
0.0
142
0.0
142
1.0
179
     0
270
     2
144
0.0008202099737533
144
0.0
144
0.0
144
0.0
144
0.0
144
0.0008202099737533
144
0.0
144
0.0
144
0.0
144
0.0
144
1.0
144
0.0
144
0.0
144
0.0
144
0.0
144
1.0
274
     2
147
0.0008202099737533
147
0.0
147
0.0
147
0.0
147
0.0
147
0.0008202099737533
147
0.0
147
0.0
147
0.0
147
0.0
147
1.0
147
0.0
147
0.0
147
0.0
147
0.0
147
1.0
  0
MLINESTYLE
  5
18
102
{ACAD_REACTORS
330
17
102
}
330
17
100
AcDbMlineStyle
  2
STANDARD
 70
     0
  3

 62
   256
 51
90.0
 52
90.0
 71
     2
 49
0.5
 62
   256
  6
BYLAYER
 49
-0.5
 62
   256
  6
BYLAYER
  0
ACDBPLACEHOLDER
  5
F
102
{ACAD_REACTORS
330
E
102
}
330
E
  0
XRECORD
  5
30B
102
{ACAD_REACTORS
330
309
102
}
330
309
100
AcDbXrecord
280
     1
340
6B
  0
XRECORD
  5
30A
102
{ACAD_REACTORS
330
309
102
}
330
309
100
AcDbXrecord
280
     1
340
6A
  0
DICTIONARYVAR
  5
5F
102
{ACAD_REACTORS
330
5E
102
}
330
5E
100
DictionaryVariables
280
     0
  1
2
  0
DICTIONARYVAR
  5
63
102
{ACAD_REACTORS
330
5E
102
}
330
5E
100
DictionaryVariables
280
     0
  1
1
  0
DICTIONARYVAR
  5
85
102
{ACAD_REACTORS
330
5E
102
}
330
5E
100
DictionaryVariables
280
     0
  1

  0
DICTIONARYVAR
  5
2CB
102
{ACAD_REACTORS
330
5E
102
}
330
5E
100
DictionaryVariables
280
     0
  1
1
  0
DICTIONARY
  5
30E
330
51
100
AcDbDictionary
280
     1
281
     1
  3
ACAD_XREC_ROUNDTRIP
360
30F
  0
DICTIONARY
  5
310
330
56
100
AcDbDictionary
280
     1
281
     1
  3
ACAD_XREC_ROUNDTRIP
360
311
  0
DICTIONARY
  5
30C
330
22
100
AcDbDictionary
280
     1
281
     1
  3
ACAD_XREC_ROUNDTRIP
360
30D
  0
XRECORD
  5
30F
102
{ACAD_REACTORS
330
30E
102
}
330
30E
100
AcDbXrecord
280
     1
102
SHADEPLOT
 70
     0
102
SHADEPLOTRESLEVEL
 70
     2
102
SHADEPLOTCUSTOMDPI
 70
   300
  0
XRECORD
  5
311
102
{ACAD_REACTORS
330
310
102
}
330
310
100
AcDbXrecord
280
     1
102
SHADEPLOT
 70
     0
102
SHADEPLOTRESLEVEL
 70
     2
102
SHADEPLOTCUSTOMDPI
 70
   300
  0
XRECORD
  5
30D
102
{ACAD_REACTORS
330
30C
102
}
330
30C
100
AcDbXrecord
280
     1
102
SHADEPLOT
 70
     0
102
SHADEPLOTRESLEVEL
 70
     2
102
SHADEPLOTCUSTOMDPI
 70
   300
  0
ENDSEC
  0
EOF
