  0
SECTION
  2
HEADER
  9
$ACADVER
  1
AC1015
  9
$ACADMAINTVER
 70
    20
  9
$DWGCODEPAGE
  3
ANSI_936
  9
$INSBASE
 10
0.0
 20
0.0
 30
0.0
  9
$EXTMIN
 10
0.0000381854042644
 20
-0.0000014170218492
 30
0.0
  9
$EXTMAX
 10
1000.000038185404
 20
999.9999985829781
 30
0.0
  9
$LIMMIN
 10
0.0
 20
0.0
  9
$LIMMAX
 10
420.0
 20
297.0
  9
$ORTHOMODE
 70
     0
  9
$REGENMODE
 70
     1
  9
$FILLMODE
 70
     1
  9
$QTEXTMODE
 70
     0
  9
$MIRRTEXT
 70
     0
  9
$LTSCALE
 40
1.0
  9
$ATTMODE
 70
     1
  9
$TEXTSIZE
 40
2.5
  9
$TRACEWID
 40
1.0
  9
$TEXTSTYLE
  7
Standard
  9
$CLAYER
  8
2
  9
$CELTYPE
  6
ByLayer
  9
$CECOLOR
 62
   256
  9
$CELTSCALE
 40
1.0
  9
$DISPSILH
 70
     0
  9
$DIMSCALE
 40
1.0
  9
$DIMASZ
 40
2.5
  9
$DIMEXO
 40
0.625
  9
$DIMDLI
 40
3.75
  9
$DIMRND
 40
0.0
  9
$DIMDLE
 40
0.0
  9
$DIMEXE
 40
1.25
  9
$DIMTP
 40
0.0
  9
$DIMTM
 40
0.0
  9
$DIMTXT
 40
2.5
  9
$DIMCEN
 40
2.5
  9
$DIMTSZ
 40
0.0
  9
$DIMTOL
 70
     0
  9
$DIMLIM
 70
     0
  9
$DIMTIH
 70
     0
  9
$DIMTOH
 70
     0
  9
$DIMSE1
 70
     0
  9
$DIMSE2
 70
     0
  9
$DIMTAD
 70
     1
  9
$DIMZIN
 70
     8
  9
$DIMBLK
  1

  9
$DIMASO
 70
     1
  9
$DIMSHO
 70
     1
  9
$DIMPOST
  1

  9
$DIMAPOST
  1

  9
$DIMALT
 70
     0
  9
$DIMALTD
 70
     3
  9
$DIMALTF
 40
0.03937007874016
  9
$DIMLFAC
 40
1.0
  9
$DIMTOFL
 70
     1
  9
$DIMTVP
 40
0.0
  9
$DIMTIX
 70
     0
  9
$DIMSOXD
 70
     0
  9
$DIMSAH
 70
     0
  9
$DIMBLK1
  1

  9
$DIMBLK2
  1

  9
$DIMSTYLE
  2
ISO-25
  9
$DIMCLRD
 70
     0
  9
$DIMCLRE
 70
     0
  9
$DIMCLRT
 70
     0
  9
$DIMTFAC
 40
1.0
  9
$DIMGAP
 40
0.625
  9
$DIMJUST
 70
     0
  9
$DIMSD1
 70
     0
  9
$DIMSD2
 70
     0
  9
$DIMTOLJ
 70
     0
  9
$DIMTZIN
 70
     8
  9
$DIMALTZ
 70
     0
  9
$DIMALTTZ
 70
     0
  9
$DIMUPT
 70
     0
  9
$DIMDEC
 70
     2
  9
$DIMTDEC
 70
     2
  9
$DIMALTU
 70
     2
  9
$DIMALTTD
 70
     3
  9
$DIMTXSTY
  7
Standard
  9
$DIMAUNIT
 70
     0
  9
$DIMADEC
 70
     0
  9
$DIMALTRND
 40
0.0
  9
$DIMAZIN
 70
     0
  9
$DIMDSEP
 70
    44
  9
$DIMATFIT
 70
     3
  9
$DIMFRAC
 70
     0
  9
$DIMLDRBLK
  1

  9
$DIMLUNIT
 70
     2
  9
$DIMLWD
 70
    -2
  9
$DIMLWE
 70
    -2
  9
$DIMTMOVE
 70
     0
  9
$LUNITS
 70
     2
  9
$LUPREC
 70
     4
  9
$SKETCHINC
 40
1.0
  9
$FILLETRAD
 40
0.0
  9
$AUNITS
 70
     0
  9
$AUPREC
 70
     0
  9
$MENU
  1
.
  9
$ELEVATION
 40
0.0
  9
$PELEVATION
 40
0.0
  9
$THICKNESS
 40
0.0
  9
$LIMCHECK
 70
     0
  9
$CHAMFERA
 40
0.0
  9
$CHAMFERB
 40
0.0
  9
$CHAMFERC
 40
0.0
  9
$CHAMFERD
 40
0.0
  9
$SKPOLY
 70
     0
  9
$TDCREATE
 40
2455505.725807523
  9
$TDUCREATE
 40
2455505.392474190
  9
$TDUPDATE
 40
2457095.977687060
  9
$TDUUPDATE
 40
2457095.644353727
  9
$TDINDWG
 40
0.0514304167
  9
$TDUSRTIMER
 40
0.0514297917
  9
$USRTIMER
 70
     1
  9
$ANGBASE
 50
0.0
  9
$ANGDIR
 70
     0
  9
$PDMODE
 70
     0
  9
$PDSIZE
 40
0.0
  9
$PLINEWID
 40
0.0
  9
$SPLFRAME
 70
     0
  9
$SPLINETYPE
 70
     6
  9
$SPLINESEGS
 70
     8
  9
$HANDSEED
  5
23E
  9
$SURFTAB1
 70
     6
  9
$SURFTAB2
 70
     6
  9
$SURFTYPE
 70
     6
  9
$SURFU
 70
     6
  9
$SURFV
 70
     6
  9
$UCSBASE
  2

  9
$UCSNAME
  2

  9
$UCSORG
 10
0.0
 20
0.0
 30
0.0
  9
$UCSXDIR
 10
1.0
 20
0.0
 30
0.0
  9
$UCSYDIR
 10
0.0
 20
1.0
 30
0.0
  9
$UCSORTHOREF
  2

  9
$UCSORTHOVIEW
 70
     0
  9
$UCSORGTOP
 10
0.0
 20
0.0
 30
0.0
  9
$UCSORGBOTTOM
 10
0.0
 20
0.0
 30
0.0
  9
$UCSORGLEFT
 10
0.0
 20
0.0
 30
0.0
  9
$UCSORGRIGHT
 10
0.0
 20
0.0
 30
0.0
  9
$UCSORGFRONT
 10
0.0
 20
0.0
 30
0.0
  9
$UCSORGBACK
 10
0.0
 20
0.0
 30
0.0
  9
$PUCSBASE
  2

  9
$PUCSNAME
  2

  9
$PUCSORG
 10
0.0
 20
0.0
 30
0.0
  9
$PUCSXDIR
 10
1.0
 20
0.0
 30
0.0
  9
$PUCSYDIR
 10
0.0
 20
1.0
 30
0.0
  9
$PUCSORTHOREF
  2

  9
$PUCSORTHOVIEW
 70
     0
  9
$PUCSORGTOP
 10
0.0
 20
0.0
 30
0.0
  9
$PUCSORGBOTTOM
 10
0.0
 20
0.0
 30
0.0
  9
$PUCSORGLEFT
 10
0.0
 20
0.0
 30
0.0
  9
$PUCSORGRIGHT
 10
0.0
 20
0.0
 30
0.0
  9
$PUCSORGFRONT
 10
0.0
 20
0.0
 30
0.0
  9
$PUCSORGBACK
 10
0.0
 20
0.0
 30
0.0
  9
$USERI1
 70
     0
  9
$USERI2
 70
     0
  9
$USERI3
 70
     0
  9
$USERI4
 70
     0
  9
$USERI5
 70
     0
  9
$USERR1
 40
0.0
  9
$USERR2
 40
0.0
  9
$USERR3
 40
0.0
  9
$USERR4
 40
0.0
  9
$USERR5
 40
0.0
  9
$WORLDVIEW
 70
     1
  9
$SHADEDGE
 70
     3
  9
$SHADEDIF
 70
    70
  9
$TILEMODE
 70
     1
  9
$MAXACTVP
 70
    64
  9
$PINSBASE
 10
0.0
 20
0.0
 30
0.0
  9
$PLIMCHECK
 70
     0
  9
$PEXTMIN
 10
0.0
 20
0.0
 30
0.0
  9
$PEXTMAX
 10
0.0
 20
0.0
 30
0.0
  9
$PLIMMIN
 10
0.0
 20
0.0
  9
$PLIMMAX
 10
12.0
 20
9.0
  9
$UNITMODE
 70
     0
  9
$VISRETAIN
 70
     1
  9
$PLINEGEN
 70
     0
  9
$PSLTSCALE
 70
     1
  9
$TREEDEPTH
 70
  3020
  9
$CMLSTYLE
  2
Standard
  9
$CMLJUST
 70
     0
  9
$CMLSCALE
 40
20.0
  9
$PROXYGRAPHICS
 70
     1
  9
$MEASUREMENT
 70
     1
  9
$CELWEIGHT
370
    -1
  9
$ENDCAPS
280
     0
  9
$JOINSTYLE
280
     0
  9
$LWDISPLAY
290
     0
  9
$INSUNITS
 70
     4
  9
$HYPERLINKBASE
  1

  9
$STYLESHEET
  1

  9
$XEDIT
290
     1
  9
$CEPSNTYPE
380
     0
  9
$PSTYLEMODE
290
     1
  9
$FINGERPRINTGUID
  2
{FDEAD578-A652-11D2-9A35-0060089B3A3F}
  9
$VERSIONGUID
  2
{719405D6-8909-4685-BF7E-8F442C5048DE}
  9
$EXTNAMES
290
     1
  9
$PSVPSCALE
 40
0.0
  9
$OLESTARTUP
290
     0
  0
ENDSEC
  0
SECTION
  2
CLASSES
  0
CLASS
  1
ACDBDICTIONARYWDFLT
  2
AcDbDictionaryWithDefault
  3
ObjectDBX Classes
 90
        0
280
     0
281
     0
  0
CLASS
  1
ACDBPLACEHOLDER
  2
AcDbPlaceHolder
  3
ObjectDBX Classes
 90
        0
280
     0
281
     0
  0
CLASS
  1
LAYOUT
  2
AcDbLayout
  3
ObjectDBX Classes
 90
        0
280
     0
281
     0
  0
CLASS
  1
DICTIONARYVAR
  2
AcDbDictionaryVar
  3
ObjectDBX Classes
 90
        0
280
     0
281
     0
  0
ENDSEC
  0
SECTION
  2
TABLES
  0
TABLE
  2
VPORT
  5
8
330
0
100
AcDbSymbolTable
 70
     3
  0
VPORT
  5
234
330
8
100
AcDbSymbolTableRecord
100
AcDbViewportTableRecord
  2
*Active
 70
     0
 10
0.0
 20
0.0
 11
1.0
 21
1.0
 12
696.6063458101157
 22
507.1815167443392
 13
0.0
 23
0.0
 14
10.0
 24
10.0
 15
10.0
 25
10.0
 16
0.0
 26
0.0
 36
1.0
 17
0.0
 27
0.0
 37
0.0
 40
1307.962545525967
 41
2.425287356321839
 42
50.0
 43
0.0
 44
0.0
 50
0.0
 51
0.0
 71
     0
 72
  1000
 73
     1
 74
     3
 75
     0
 76
     0
 77
     0
 78
     0
281
     0
 65
     1
110
0.0
120
0.0
130
0.0
111
1.0
121
0.0
131
0.0
112
0.0
122
1.0
132
0.0
 79
     0
146
0.0
  0
ENDTAB
  0
TABLE
  2
LTYPE
  5
5
330
0
100
AcDbSymbolTable
 70
     1
  0
LTYPE
  5
14
330
5
100
AcDbSymbolTableRecord
100
AcDbLinetypeTableRecord
  2
ByBlock
 70
     0
  3

 72
    65
 73
     0
 40
0.0
  0
LTYPE
  5
15
330
5
100
AcDbSymbolTableRecord
100
AcDbLinetypeTableRecord
  2
ByLayer
 70
     0
  3

 72
    65
 73
     0
 40
0.0
  0
LTYPE
  5
16
330
5
100
AcDbSymbolTableRecord
100
AcDbLinetypeTableRecord
  2
Continuous
 70
     0
  3
Solid line
 72
    65
 73
     0
 40
0.0
  0
ENDTAB
  0
TABLE
  2
LAYER
  5
2
330
0
100
AcDbSymbolTable
 70
     4
  0
LAYER
  5
10
330
2
100
AcDbSymbolTableRecord
100
AcDbLayerTableRecord
  2
0
 70
     0
 62
     2
  6
Continuous
370
    -3
390
F
  0
LAYER
  5
94
330
2
100
AcDbSymbolTableRecord
100
AcDbLayerTableRecord
  2
1
 70
     0
 62
     1
  6
Continuous
370
    -3
390
F
  0
LAYER
  5
95
330
2
100
AcDbSymbolTableRecord
100
AcDbLayerTableRecord
  2
2
 70
     0
 62
     7
  6
Continuous
370
    -3
390
F
  0
LAYER
  5
10E
330
2
100
AcDbSymbolTableRecord
100
AcDbLayerTableRecord
  2
3
 70
     0
 62
     7
  6
Continuous
370
    -3
390
F
  0
ENDTAB
  0
TABLE
  2
STYLE
  5
3
330
0
100
AcDbSymbolTable
 70
     1
  0
STYLE
  5
11
330
3
100
AcDbSymbolTableRecord
100
AcDbTextStyleTableRecord
  2
Standard
 70
     0
 40
0.0
 41
1.0
 50
0.0
 71
     0
 42
2.5
  3
txt
  4

  0
ENDTAB
  0
TABLE
  2
VIEW
  5
6
330
0
100
AcDbSymbolTable
 70
     0
  0
ENDTAB
  0
TABLE
  2
UCS
  5
7
330
0
100
AcDbSymbolTable
 70
     0
  0
ENDTAB
  0
TABLE
  2
APPID
  5
9
330
0
100
AcDbSymbolTable
 70
     1
  0
APPID
  5
12
330
9
100
AcDbSymbolTableRecord
100
AcDbRegAppTableRecord
  2
ACAD
 70
     0
  0
ENDTAB
  0
TABLE
  2
DIMSTYLE
  5
A
330
0
100
AcDbSymbolTable
 70
     1
100
AcDbDimStyleTable
 71
     0
  0
DIMSTYLE
105
27
330
A
100
AcDbSymbolTableRecord
100
AcDbDimStyleTableRecord
  2
ISO-25
 70
     0
 41
2.5
 42
0.625
 43
3.75
 44
1.25
 73
     0
 74
     0
 77
     1
 78
     8
140
2.5
141
2.5
143
0.03937007874016
147
0.625
171
     3
172
     1
271
     2
272
     2
274
     3
278
    44
283
     0
284
     8
340
11
  0
ENDTAB
  0
TABLE
  2
BLOCK_RECORD
  5
1
330
0
100
AcDbSymbolTable
 70
     1
  0
BLOCK_RECORD
  5
1F
330
1
100
AcDbSymbolTableRecord
100
AcDbBlockTableRecord
  2
*Model_Space
340
22
  0
BLOCK_RECORD
  5
50
330
1
100
AcDbSymbolTableRecord
100
AcDbBlockTableRecord
  2
*Paper_Space
340
51
  0
BLOCK_RECORD
  5
55
330
1
100
AcDbSymbolTableRecord
100
AcDbBlockTableRecord
  2
*Paper_Space0
340
56
  0
ENDTAB
  0
ENDSEC
  0
SECTION
  2
BLOCKS
  0
BLOCK
  5
20
330
1F
100
AcDbEntity
  8
0
100
AcDbBlockBegin
  2
*Model_Space
 70
     0
 10
0.0
 20
0.0
 30
0.0
  3
*Model_Space
  1

  0
ENDBLK
  5
21
330
1F
100
AcDbEntity
  8
0
100
AcDbBlockEnd
  0
BLOCK
  5
52
330
50
100
AcDbEntity
 67
     1
  8
0
100
AcDbBlockBegin
  2
*Paper_Space
 70
     0
 10
0.0
 20
0.0
 30
0.0
  3
*Paper_Space
  1

  0
ENDBLK
  5
53
330
50
100
AcDbEntity
 67
     1
  8
0
100
AcDbBlockEnd
  0
BLOCK
  5
57
330
55
100
AcDbEntity
  8
0
100
AcDbBlockBegin
  2
*Paper_Space0
 70
     0
 10
0.0
 20
0.0
 30
0.0
  3
*Paper_Space0
  1

  0
ENDBLK
  5
58
330
55
100
AcDbEntity
  8
0
100
AcDbBlockEnd
  0
ENDSEC
  0
SECTION
  2
ENTITIES
  0
LINE
  5
1D6
330
1F
100
AcDbEntity
  8
3
100
AcDbLine
 10
941.2531810690065
 20
499.9999985828862
 30
0.0
 11
849.5575436926719
 21
499.9999985828862
 31
0.0
  0
SPLINE
  5
1D7
330
1F
100
AcDbEntity
  8
3
100
AcDbSpline
210
0.0
220
0.0
230
1.0
 70
     8
 71
     3
 72
     9
 73
     5
 74
     0
 42
0.0000000001
 43
0.0000000001
 40
12.33514672210764
 40
12.33514672210764
 40
12.33514672210764
 40
12.33514672210764
 40
34.31553791317551
 40
38.29464428346954
 40
38.29464428346954
 40
38.29464428346954
 40
38.29464428346954
 10
161.2943960818974
 20
554.2369456473444
 30
0.0
 10
166.1375303497643
 20
553.9756903867253
 30
0.0
 10
173.0432883101167
 20
528.8816908904707
 30
0.0
 10
175.9382928395596
 20
499.9999985830544
 30
0.0
 10
175.9382928395596
 20
499.9999985830544
 30
0.0
  0
SPLINE
  5
1D8
330
1F
100
AcDbEntity
  8
3
100
AcDbSpline
210
0.0
220
0.0
230
1.0
 70
     8
 71
     3
 72
     9
 73
     5
 74
     0
 42
0.0000000001
 43
0.0000000001
 40
12.33514672210764
 40
12.33514672210764
 40
12.33514672210764
 40
12.33514672210764
 40
34.31553791317551
 40
38.29464428346954
 40
38.29464428346954
 40
38.29464428346954
 40
38.29464428346954
 10
161.2943960818974
 20
554.2369456473444
 30
0.0
 10
156.4512618140306
 20
553.975690386729
 30
0.0
 10
149.5455038536628
 20
528.8816908904785
 30
0.0
 10
146.6504993242047
 20
499.9999985830621
 30
0.0
 10
146.6504993242047
 20
499.9999985830621
 30
0.0
  0
SPLINE
  5
1D9
330
1F
100
AcDbEntity
  8
3
100
AcDbSpline
210
0.0
220
0.0
230
1.0
 70
     8
 71
     3
 72
     9
 73
     5
 74
     0
 42
0.0000000001
 43
0.0000000001
 40
12.33514672210764
 40
12.33514672210764
 40
12.33514672210764
 40
12.33514672210764
 40
34.31553791317551
 40
38.29464428346954
 40
38.29464428346954
 40
38.29464428346954
 40
38.29464428346954
 10
190.5821895972294
 20
445.7630515187682
 30
0.0
 10
185.7390553293625
 20
446.0243067793872
 30
0.0
 10
178.8332973690101
 20
471.1183062756417
 30
0.0
 10
175.938292839567
 20
499.9999985830581
 30
0.0
 10
175.938292839567
 20
499.9999985830581
 30
0.0
  0
SPLINE
  5
1DA
330
1F
100
AcDbEntity
  8
3
100
AcDbSpline
210
0.0
220
0.0
230
1.0
 70
     8
 71
     3
 72
     9
 73
     5
 74
     0
 42
0.0000000001
 43
0.0000000001
 40
12.33514672210764
 40
12.33514672210764
 40
12.33514672210764
 40
12.33514672210764
 40
34.31553791317551
 40
38.29464428346954
 40
38.29464428346954
 40
38.29464428346954
 40
38.29464428346954
 10
190.5821895972332
 20
445.7630515187682
 30
0.0
 10
195.4253238651001
 20
446.0243067793872
 30
0.0
 10
202.3310818254564
 20
471.1183062756379
 30
0.0
 10
205.226086354903
 20
499.9999985830544
 30
0.0
 10
205.226086354903
 20
499.9999985830544
 30
0.0
  0
SPLINE
  5
1DB
330
1F
100
AcDbEntity
  8
3
100
AcDbSpline
210
0.0
220
0.0
230
1.0
 70
     8
 71
     3
 72
     9
 73
     5
 74
     0
 42
0.0000000001
 43
0.0000000001
 40
12.33514672210764
 40
12.33514672210764
 40
12.33514672210764
 40
12.33514672210764
 40
34.31553791317551
 40
38.29464428346954
 40
38.29464428346954
 40
38.29464428346954
 40
38.29464428346954
 10
219.8699831126034
 20
554.2369456473291
 30
0.0
 10
215.0268488447366
 20
553.9756903867137
 30
0.0
 10
208.1210908843688
 20
528.8816908904632
 30
0.0
 10
205.2260863549107
 20
499.9999985830466
 30
0.0
 10
205.2260863549107
 20
499.9999985830466
 30
0.0
  0
SPLINE
  5
1DC
330
1F
100
AcDbEntity
  8
3
100
AcDbSpline
210
0.0
220
0.0
230
1.0
 70
     8
 71
     3
 72
     9
 73
     5
 74
     0
 42
0.0000000001
 43
0.0000000001
 40
12.33514672210764
 40
12.33514672210764
 40
12.33514672210764
 40
12.33514672210764
 40
34.31553791317551
 40
38.29464428346954
 40
38.29464428346954
 40
38.29464428346954
 40
38.29464428346954
 10
219.8699831126034
 20
554.2369456473291
 30
0.0
 10
224.7131173804703
 20
553.9756903867099
 30
0.0
 10
231.6188753408227
 20
528.8816908904556
 30
0.0
 10
234.5138798702655
 20
499.9999985830391
 30
0.0
 10
234.5138798702655
 20
499.9999985830391
 30
0.0
  0
SPLINE
  5
1DD
330
1F
100
AcDbEntity
  8
3
100
AcDbSpline
210
0.0
220
0.0
230
1.0
 70
     8
 71
     3
 72
     9
 73
     5
 74
     0
 42
0.0000000001
 43
0.0000000001
 40
12.33514672210764
 40
12.33514672210764
 40
12.33514672210764
 40
12.33514672210764
 40
34.31553791317551
 40
38.29464428346954
 40
38.29464428346954
 40
38.29464428346954
 40
38.29464428346954
 10
249.1577766279353
 20
445.7630515187529
 30
0.0
 10
244.3146423600685
 20
446.0243067793721
 30
0.0
 10
237.4088843997161
 20
471.1183062756265
 30
0.0
 10
234.5138798702731
 20
499.999998583043
 30
0.0
 10
234.5138798702731
 20
499.999998583043
 30
0.0
  0
SPLINE
  5
1DE
330
1F
100
AcDbEntity
  8
3
100
AcDbSpline
210
0.0
220
0.0
230
1.0
 70
     8
 71
     3
 72
     9
 73
     5
 74
     0
 42
0.0000000001
 43
0.0000000001
 40
12.33514672210764
 40
12.33514672210764
 40
12.33514672210764
 40
12.33514672210764
 40
34.31553791317551
 40
38.29464428346954
 40
38.29464428346954
 40
38.29464428346954
 40
38.29464428346954
 10
249.1577766279391
 20
445.7630515187529
 30
0.0
 10
254.000910895806
 20
446.0243067793721
 30
0.0
 10
260.9066688561622
 20
471.1183062756225
 30
0.0
 10
263.8016733856089
 20
499.9999985830391
 30
0.0
 10
263.8016733856089
 20
499.9999985830391
 30
0.0
  0
SPLINE
  5
1DF
330
1F
100
AcDbEntity
  8
3
100
AcDbSpline
210
0.0
220
0.0
230
1.0
 70
     8
 71
     3
 72
     9
 73
     5
 74
     0
 42
0.0000000001
 43
0.0000000001
 40
12.33514672210764
 40
12.33514672210764
 40
12.33514672210764
 40
12.33514672210764
 40
34.31553791317551
 40
38.29464428346954
 40
38.29464428346954
 40
38.29464428346954
 40
38.29464428346954
 10
278.4455701433093
 20
554.2369456473136
 30
0.0
 10
273.6024358754424
 20
553.9756903866986
 30
0.0
 10
266.6966779150746
 20
528.8816908904478
 30
0.0
 10
263.8016733856166
 20
499.9999985830315
 30
0.0
 10
263.8016733856166
 20
499.9999985830315
 30
0.0
  0
SPLINE
  5
1E0
330
1F
100
AcDbEntity
  8
3
100
AcDbSpline
210
0.0
220
0.0
230
1.0
 70
     8
 71
     3
 72
     9
 73
     5
 74
     0
 42
0.0000000001
 43
0.0000000001
 40
12.33514672210764
 40
12.33514672210764
 40
12.33514672210764
 40
12.33514672210764
 40
34.31553791317551
 40
38.29464428346954
 40
38.29464428346954
 40
38.29464428346954
 40
38.29464428346954
 10
278.4455701433093
 20
554.2369456473136
 30
0.0
 10
283.2887044111761
 20
553.9756903866945
 30
0.0
 10
290.1944623715285
 20
528.8816908904403
 30
0.0
 10
293.0894669009715
 20
499.9999985830239
 30
0.0
 10
293.0894669009715
 20
499.9999985830239
 30
0.0
  0
SPLINE
  5
1E1
330
1F
100
AcDbEntity
  8
3
100
AcDbSpline
210
0.0
220
0.0
230
1.0
 70
     8
 71
     3
 72
     9
 73
     5
 74
     0
 42
0.0000000001
 43
0.0000000001
 40
12.33514672210764
 40
12.33514672210764
 40
12.33514672210764
 40
12.33514672210764
 40
34.31553791317551
 40
38.29464428346954
 40
38.29464428346954
 40
38.29464428346954
 40
38.29464428346954
 10
307.7333636586413
 20
445.7630515187378
 30
0.0
 10
302.8902293907743
 20
446.0243067793569
 30
0.0
 10
295.9844714304219
 20
471.1183062756112
 30
0.0
 10
293.0894669009791
 20
499.9999985830275
 30
0.0
 10
293.0894669009791
 20
499.9999985830275
 30
0.0
  0
SPLINE
  5
1E2
330
1F
100
AcDbEntity
  8
3
100
AcDbSpline
210
0.0
220
0.0
230
1.0
 70
     8
 71
     3
 72
     9
 73
     5
 74
     0
 42
0.0000000001
 43
0.0000000001
 40
12.33514672210764
 40
12.33514672210764
 40
12.33514672210764
 40
12.33514672210764
 40
34.31553791317551
 40
38.29464428346954
 40
38.29464428346954
 40
38.29464428346954
 40
38.29464428346954
 10
307.733363658645
 20
445.7630515187378
 30
0.0
 10
312.5764979265119
 20
446.0243067793569
 30
0.0
 10
319.4822558868682
 20
471.1183062756072
 30
0.0
 10
322.3772604163148
 20
499.9999985830239
 30
0.0
 10
322.3772604163148
 20
499.9999985830239
 30
0.0
  0
SPLINE
  5
1E3
330
1F
100
AcDbEntity
  8
3
100
AcDbSpline
210
0.0
220
0.0
230
1.0
 70
     8
 71
     3
 72
     9
 73
     5
 74
     0
 42
0.0000000001
 43
0.0000000001
 40
12.33514672210764
 40
12.33514672210764
 40
12.33514672210764
 40
12.33514672210764
 40
34.31553791317551
 40
38.29464428346954
 40
38.29464428346954
 40
38.29464428346954
 40
38.29464428346954
 10
337.0211571740153
 20
554.2369456472986
 30
0.0
 10
332.1780229061484
 20
553.9756903866832
 30
0.0
 10
325.2722649457806
 20
528.8816908904323
 30
0.0
 10
322.3772604163224
 20
499.9999985830162
 30
0.0
 10
322.3772604163224
 20
499.9999985830162
 30
0.0
  0
SPLINE
  5
1E4
330
1F
100
AcDbEntity
  8
3
100
AcDbSpline
210
0.0
220
0.0
230
1.0
 70
     8
 71
     3
 72
     9
 73
     5
 74
     0
 42
0.0000000001
 43
0.0000000001
 40
12.33514672210764
 40
12.33514672210764
 40
12.33514672210764
 40
12.33514672210764
 40
34.31553791317551
 40
38.29464428346954
 40
38.29464428346954
 40
38.29464428346954
 40
38.29464428346954
 10
337.0211571740153
 20
554.2369456472986
 30
0.0
 10
341.864291441882
 20
553.9756903866794
 30
0.0
 10
348.7700494022346
 20
528.881690890425
 30
0.0
 10
351.6650539316773
 20
499.9999985830084
 30
0.0
 10
351.6650539316773
 20
499.9999985830084
 30
0.0
  0
SPLINE
  5
1E5
330
1F
100
AcDbEntity
  8
3
100
AcDbSpline
210
0.0
220
0.0
230
1.0
 70
     8
 71
     3
 72
     9
 73
     5
 74
     0
 42
0.0000000001
 43
0.0000000001
 40
12.33514672210764
 40
12.33514672210764
 40
12.33514672210764
 40
12.33514672210764
 40
34.31553791317551
 40
38.29464428346954
 40
38.29464428346954
 40
38.29464428346954
 40
38.29464428346954
 10
366.3089506893471
 20
445.7630515187224
 30
0.0
 10
361.4658164214803
 20
446.0243067793416
 30
0.0
 10
354.5600584611279
 20
471.118306275596
 30
0.0
 10
351.6650539316849
 20
499.9999985830123
 30
0.0
 10
351.6650539316849
 20
499.9999985830123
 30
0.0
  0
SPLINE
  5
1E6
330
1F
100
AcDbEntity
  8
3
100
AcDbSpline
210
0.0
220
0.0
230
1.0
 70
     8
 71
     3
 72
     9
 73
     5
 74
     0
 42
0.0000000001
 43
0.0000000001
 40
12.33514672210764
 40
12.33514672210764
 40
12.33514672210764
 40
12.33514672210764
 40
34.31553791317551
 40
38.29464428346954
 40
38.29464428346954
 40
38.29464428346954
 40
38.29464428346954
 10
366.308950689351
 20
445.7630515187224
 30
0.0
 10
371.1520849572178
 20
446.0243067793416
 30
0.0
 10
378.0578429175741
 20
471.1183062755921
 30
0.0
 10
380.9528474470208
 20
499.9999985830084
 30
0.0
 10
380.9528474470208
 20
499.9999985830084
 30
0.0
  0
SPLINE
  5
1E7
330
1F
100
AcDbEntity
  8
3
100
AcDbSpline
210
0.0
220
0.0
230
1.0
 70
     8
 71
     3
 72
     9
 73
     5
 74
     0
 42
0.0000000001
 43
0.0000000001
 40
12.33514672210764
 40
12.33514672210764
 40
12.33514672210764
 40
12.33514672210764
 40
34.31553791317551
 40
38.29464428346954
 40
38.29464428346954
 40
38.29464428346954
 40
38.29464428346954
 10
395.5967442047212
 20
554.236945647283
 30
0.0
 10
390.7536099368543
 20
553.9756903866678
 30
0.0
 10
383.8478519764867
 20
528.8816908904173
 30
0.0
 10
380.9528474470283
 20
499.9999985830007
 30
0.0
 10
380.9528474470283
 20
499.9999985830007
 30
0.0
  0
SPLINE
  5
1E8
330
1F
100
AcDbEntity
  8
3
100
AcDbSpline
210
0.0
220
0.0
230
1.0
 70
     8
 71
     3
 72
     9
 73
     5
 74
     0
 42
0.0000000001
 43
0.0000000001
 40
12.33514672210764
 40
12.33514672210764
 40
12.33514672210764
 40
12.33514672210764
 40
34.31553791317551
 40
38.29464428346954
 40
38.29464428346954
 40
38.29464428346954
 40
38.29464428346954
 10
395.5967442047212
 20
554.236945647283
 30
0.0
 10
400.4398784725878
 20
553.9756903866641
 30
0.0
 10
407.3456364329403
 20
528.8816908904098
 30
0.0
 10
410.2406409623831
 20
499.9999985829932
 30
0.0
 10
410.2406409623831
 20
499.9999985829932
 30
0.0
  0
SPLINE
  5
1E9
330
1F
100
AcDbEntity
  8
3
100
AcDbSpline
210
0.0
220
0.0
230
1.0
 70
     8
 71
     3
 72
     9
 73
     5
 74
     0
 42
0.0000000001
 43
0.0000000001
 40
12.33514672210764
 40
12.33514672210764
 40
12.33514672210764
 40
12.33514672210764
 40
34.31553791317551
 40
38.29464428346954
 40
38.29464428346954
 40
38.29464428346954
 40
38.29464428346954
 10
424.884537720053
 20
445.7630515187069
 30
0.0
 10
420.0414034521862
 20
446.0243067793261
 30
0.0
 10
413.1356454918337
 20
471.1183062755806
 30
0.0
 10
410.2406409623909
 20
499.9999985829971
 30
0.0
 10
410.2406409623909
 20
499.9999985829971
 30
0.0
  0
SPLINE
  5
1EA
330
1F
100
AcDbEntity
  8
3
100
AcDbSpline
210
0.0
220
0.0
230
1.0
 70
     8
 71
     3
 72
     9
 73
     5
 74
     0
 42
0.0000000001
 43
0.0000000001
 40
12.33514672210764
 40
12.33514672210764
 40
12.33514672210764
 40
12.33514672210764
 40
34.31553791317551
 40
38.29464428346954
 40
38.29464428346954
 40
38.29464428346954
 40
38.29464428346954
 10
424.8845377200568
 20
445.7630515187069
 30
0.0
 10
429.7276719879237
 20
446.0243067793261
 30
0.0
 10
436.63342994828
 20
471.1183062755767
 30
0.0
 10
439.5284344777266
 20
499.9999985829932
 30
0.0
 10
439.5284344777266
 20
499.9999985829932
 30
0.0
  0
SPLINE
  5
1EB
330
1F
100
AcDbEntity
  8
3
100
AcDbSpline
210
0.0
220
0.0
230
1.0
 70
     8
 71
     3
 72
     9
 73
     5
 74
     0
 42
0.0000000001
 43
0.0000000001
 40
12.33514672210764
 40
12.33514672210764
 40
12.33514672210764
 40
12.33514672210764
 40
34.31553791317551
 40
38.29464428346954
 40
38.29464428346954
 40
38.29464428346954
 40
38.29464428346954
 10
454.1723312354269
 20
554.2369456472678
 30
0.0
 10
449.3291969675602
 20
553.9756903866527
 30
0.0
 10
442.4234390071922
 20
528.8816908904022
 30
0.0
 10
439.5284344777342
 20
499.9999985829855
 30
0.0
 10
439.5284344777342
 20
499.9999985829855
 30
0.0
  0
SPLINE
  5
1EC
330
1F
100
AcDbEntity
  8
3
100
AcDbSpline
210
0.0
220
0.0
230
1.0
 70
     8
 71
     3
 72
     9
 73
     5
 74
     0
 42
0.0000000001
 43
0.0000000001
 40
12.33514672210764
 40
12.33514672210764
 40
12.33514672210764
 40
12.33514672210764
 40
34.31553791317551
 40
38.29464428346954
 40
38.29464428346954
 40
38.29464428346954
 40
38.29464428346954
 10
454.1723312354269
 20
554.2369456472678
 30
0.0
 10
459.0154655032938
 20
553.9756903866488
 30
0.0
 10
465.9212234636461
 20
528.8816908903944
 30
0.0
 10
468.8162279930891
 20
499.999998582978
 30
0.0
 10
468.8162279930891
 20
499.999998582978
 30
0.0
  0
SPLINE
  5
1ED
330
1F
100
AcDbEntity
  8
3
100
AcDbSpline
210
0.0
220
0.0
230
1.0
 70
     8
 71
     3
 72
     9
 73
     5
 74
     0
 42
0.0000000001
 43
0.0000000001
 40
12.33514672210764
 40
12.33514672210764
 40
12.33514672210764
 40
12.33514672210764
 40
34.31553791317551
 40
38.29464428346954
 40
38.29464428346954
 40
38.29464428346954
 40
38.29464428346954
 10
483.4601247507588
 20
445.7630515186918
 30
0.0
 10
478.616990482892
 20
446.0243067793109
 30
0.0
 10
471.7112325225396
 20
471.1183062755653
 30
0.0
 10
468.8162279930968
 20
499.9999985829817
 30
0.0
 10
468.8162279930968
 20
499.9999985829817
 30
0.0
  0
SPLINE
  5
1EE
330
1F
100
AcDbEntity
  8
3
100
AcDbSpline
210
0.0
220
0.0
230
1.0
 70
     8
 71
     3
 72
     9
 73
     5
 74
     0
 42
0.0000000001
 43
0.0000000001
 40
12.33514672210764
 40
12.33514672210764
 40
12.33514672210764
 40
12.33514672210764
 40
34.31553791317551
 40
38.29464428346954
 40
38.29464428346954
 40
38.29464428346954
 40
38.29464428346954
 10
483.4601247507626
 20
445.7630515186918
 30
0.0
 10
488.3032590186295
 20
446.0243067793109
 30
0.0
 10
495.2090169789857
 20
471.1183062755615
 30
0.0
 10
498.1040215084324
 20
499.999998582978
 30
0.0
 10
498.1040215084324
 20
499.999998582978
 30
0.0
  0
SPLINE
  5
1EF
330
1F
100
AcDbEntity
  8
3
100
AcDbSpline
210
0.0
220
0.0
230
1.0
 70
     8
 71
     3
 72
     9
 73
     5
 74
     0
 42
0.0000000001
 43
0.0000000001
 40
12.33514672210764
 40
12.33514672210764
 40
12.33514672210764
 40
12.33514672210764
 40
34.31553791317551
 40
38.29464428346954
 40
38.29464428346954
 40
38.29464428346954
 40
38.29464428346954
 10
512.7479182661327
 20
554.2369456472528
 30
0.0
 10
507.904783998266
 20
553.9756903866374
 30
0.0
 10
500.999026037898
 20
528.8816908903867
 30
0.0
 10
498.1040215084401
 20
499.9999985829703
 30
0.0
 10
498.1040215084401
 20
499.9999985829703
 30
0.0
  0
SPLINE
  5
1F0
330
1F
100
AcDbEntity
  8
3
100
AcDbSpline
210
0.0
220
0.0
230
1.0
 70
     8
 71
     3
 72
     9
 73
     5
 74
     0
 42
0.0000000001
 43
0.0000000001
 40
12.33514672210764
 40
12.33514672210764
 40
12.33514672210764
 40
12.33514672210764
 40
34.31553791317551
 40
38.29464428346954
 40
38.29464428346954
 40
38.29464428346954
 40
38.29464428346954
 10
512.7479182661327
 20
554.2369456472528
 30
0.0
 10
517.5910525339997
 20
553.9756903866336
 30
0.0
 10
524.4968104943522
 20
528.8816908903791
 30
0.0
 10
527.3918150237949
 20
499.9999985829628
 30
0.0
 10
527.3918150237949
 20
499.9999985829628
 30
0.0
  0
SPLINE
  5
1F1
330
1F
100
AcDbEntity
  8
3
100
AcDbSpline
210
0.0
220
0.0
230
1.0
 70
     8
 71
     3
 72
     9
 73
     5
 74
     0
 42
0.0000000001
 43
0.0000000001
 40
12.33514672210764
 40
12.33514672210764
 40
12.33514672210764
 40
12.33514672210764
 40
34.31553791317551
 40
38.29464428346954
 40
38.29464428346954
 40
38.29464428346954
 40
38.29464428346954
 10
542.0357117814647
 20
445.7630515186765
 30
0.0
 10
537.1925775135978
 20
446.0243067792957
 30
0.0
 10
530.2868195532454
 20
471.1183062755501
 30
0.0
 10
527.3918150238026
 20
499.9999985829666
 30
0.0
 10
527.3918150238026
 20
499.9999985829666
 30
0.0
  0
SPLINE
  5
1F2
330
1F
100
AcDbEntity
  8
3
100
AcDbSpline
210
0.0
220
0.0
230
1.0
 70
     8
 71
     3
 72
     9
 73
     5
 74
     0
 42
0.0000000001
 43
0.0000000001
 40
12.33514672210764
 40
12.33514672210764
 40
12.33514672210764
 40
12.33514672210764
 40
34.31553791317551
 40
38.29464428346954
 40
38.29464428346954
 40
38.29464428346954
 40
38.29464428346954
 10
542.0357117814686
 20
445.7630515186765
 30
0.0
 10
546.8788460493355
 20
446.0243067792957
 30
0.0
 10
553.7846040096917
 20
471.1183062755463
 30
0.0
 10
556.6796085391383
 20
499.9999985829628
 30
0.0
 10
556.6796085391383
 20
499.9999985829628
 30
0.0
  0
SPLINE
  5
1F3
330
1F
100
AcDbEntity
  8
3
100
AcDbSpline
210
0.0
220
0.0
230
1.0
 70
     8
 71
     3
 72
     9
 73
     5
 74
     0
 42
0.0000000001
 43
0.0000000001
 40
12.33514672210764
 40
12.33514672210764
 40
12.33514672210764
 40
12.33514672210764
 40
34.31553791317551
 40
38.29464428346954
 40
38.29464428346954
 40
38.29464428346954
 40
38.29464428346954
 10
571.3235052968387
 20
554.2369456472374
 30
0.0
 10
566.4803710289716
 20
553.975690386622
 30
0.0
 10
559.5746130686042
 20
528.8816908903716
 30
0.0
 10
556.6796085391461
 20
499.9999985829551
 30
0.0
 10
556.6796085391461
 20
499.9999985829551
 30
0.0
  0
SPLINE
  5
1F4
330
1F
100
AcDbEntity
  8
3
100
AcDbSpline
210
0.0
220
0.0
230
1.0
 70
     8
 71
     3
 72
     9
 73
     5
 74
     0
 42
0.0000000001
 43
0.0000000001
 40
12.33514672210764
 40
12.33514672210764
 40
12.33514672210764
 40
12.33514672210764
 40
34.31553791317551
 40
38.29464428346954
 40
38.29464428346954
 40
38.29464428346954
 40
38.29464428346954
 10
571.3235052968387
 20
554.2369456472374
 30
0.0
 10
576.1666395647056
 20
553.9756903866183
 30
0.0
 10
583.0723975250577
 20
528.881690890364
 30
0.0
 10
585.9674020545006
 20
499.9999985829472
 30
0.0
 10
585.9674020545006
 20
499.9999985829472
 30
0.0
  0
SPLINE
  5
1F5
330
1F
100
AcDbEntity
  8
3
100
AcDbSpline
210
0.0
220
0.0
230
1.0
 70
     8
 71
     3
 72
     9
 73
     5
 74
     0
 42
0.0000000001
 43
0.0000000001
 40
12.33514672210764
 40
12.33514672210764
 40
12.33514672210764
 40
12.33514672210764
 40
34.31553791317551
 40
38.29464428346954
 40
38.29464428346954
 40
38.29464428346954
 40
38.29464428346954
 10
600.6112988121706
 20
445.7630515186612
 30
0.0
 10
595.7681645443036
 20
446.0243067792801
 30
0.0
 10
588.8624065839512
 20
471.1183062755346
 30
0.0
 10
585.9674020545083
 20
499.9999985829512
 30
0.0
 10
585.9674020545083
 20
499.9999985829512
 30
0.0
  0
SPLINE
  5
1F6
330
1F
100
AcDbEntity
  8
3
100
AcDbSpline
210
0.0
220
0.0
230
1.0
 70
     8
 71
     3
 72
     9
 73
     5
 74
     0
 42
0.0000000001
 43
0.0000000001
 40
12.33514672210764
 40
12.33514672210764
 40
12.33514672210764
 40
12.33514672210764
 40
34.31553791317551
 40
38.29464428346954
 40
38.29464428346954
 40
38.29464428346954
 40
38.29464428346954
 10
600.6112988121742
 20
445.7630515186612
 30
0.0
 10
605.4544330800413
 20
446.0243067792801
 30
0.0
 10
612.3601910403976
 20
471.118306275531
 30
0.0
 10
615.2551955698442
 20
499.9999985829472
 30
0.0
 10
615.2551955698442
 20
499.9999985829472
 30
0.0
  0
SPLINE
  5
1F7
330
1F
100
AcDbEntity
  8
3
100
AcDbSpline
210
0.0
220
0.0
230
1.0
 70
     8
 71
     3
 72
     9
 73
     5
 74
     0
 42
0.0000000001
 43
0.0000000001
 40
12.33514672210764
 40
12.33514672210764
 40
12.33514672210764
 40
12.33514672210764
 40
34.31553791317551
 40
38.29464428346954
 40
38.29464428346954
 40
38.29464428346954
 40
38.29464428346954
 10
629.8990923275445
 20
554.2369456472222
 30
0.0
 10
625.0559580596777
 20
553.9756903866067
 30
0.0
 10
618.15020009931
 20
528.8816908903562
 30
0.0
 10
615.2551955698519
 20
499.9999985829396
 30
0.0
 10
615.2551955698519
 20
499.9999985829396
 30
0.0
  0
SPLINE
  5
1F8
330
1F
100
AcDbEntity
  8
3
100
AcDbSpline
210
0.0
220
0.0
230
1.0
 70
     8
 71
     3
 72
     9
 73
     5
 74
     0
 42
0.0000000001
 43
0.0000000001
 40
12.33514672210764
 40
12.33514672210764
 40
12.33514672210764
 40
12.33514672210764
 40
34.31553791317551
 40
38.29464428346954
 40
38.29464428346954
 40
38.29464428346954
 40
38.29464428346954
 10
629.8990923275445
 20
554.2369456472222
 30
0.0
 10
634.7422265954115
 20
553.9756903866029
 30
0.0
 10
641.6479845557639
 20
528.8816908903486
 30
0.0
 10
644.5429890852067
 20
499.9999985829322
 30
0.0
 10
644.5429890852067
 20
499.9999985829322
 30
0.0
  0
SPLINE
  5
1F9
330
1F
100
AcDbEntity
  8
3
100
AcDbSpline
210
0.0
220
0.0
230
1.0
 70
     8
 71
     3
 72
     9
 73
     5
 74
     0
 42
0.0000000001
 43
0.0000000001
 40
12.33514672210764
 40
12.33514672210764
 40
12.33514672210764
 40
12.33514672210764
 40
34.31553791317551
 40
38.29464428346954
 40
38.29464428346954
 40
38.29464428346954
 40
38.29464428346954
 10
659.1868858428764
 20
445.763051518646
 30
0.0
 10
654.3437515750097
 20
446.0243067792651
 30
0.0
 10
647.4379936146573
 20
471.1183062755194
 30
0.0
 10
644.5429890852144
 20
499.999998582936
 30
0.0
 10
644.5429890852144
 20
499.999998582936
 30
0.0
  0
SPLINE
  5
1FA
330
1F
100
AcDbEntity
  8
3
100
AcDbSpline
210
0.0
220
0.0
230
1.0
 70
     8
 71
     3
 72
     9
 73
     5
 74
     0
 42
0.0000000001
 43
0.0000000001
 40
12.33514672210764
 40
12.33514672210764
 40
12.33514672210764
 40
12.33514672210764
 40
34.31553791317551
 40
38.29464428346954
 40
38.29464428346954
 40
38.29464428346954
 40
38.29464428346954
 10
659.1868858428804
 20
445.763051518646
 30
0.0
 10
664.0300201107471
 20
446.0243067792651
 30
0.0
 10
670.9357780711034
 20
471.1183062755158
 30
0.0
 10
673.8307826005502
 20
499.9999985829322
 30
0.0
 10
673.8307826005502
 20
499.9999985829322
 30
0.0
  0
SPLINE
  5
1FB
330
1F
100
AcDbEntity
  8
3
100
AcDbSpline
210
0.0
220
0.0
230
1.0
 70
     8
 71
     3
 72
     9
 73
     5
 74
     0
 42
0.0000000001
 43
0.0000000001
 40
12.33514672210764
 40
12.33514672210764
 40
12.33514672210764
 40
12.33514672210764
 40
34.31553791317551
 40
38.29464428346954
 40
38.29464428346954
 40
38.29464428346954
 40
38.29464428346954
 10
688.4746793582504
 20
554.2369456472068
 30
0.0
 10
683.6315450903838
 20
553.9756903865915
 30
0.0
 10
676.725787130016
 20
528.8816908903408
 30
0.0
 10
673.830782600558
 20
499.9999985829244
 30
0.0
 10
673.830782600558
 20
499.9999985829244
 30
0.0
  0
SPLINE
  5
1FC
330
1F
100
AcDbEntity
  8
3
100
AcDbSpline
210
0.0
220
0.0
230
1.0
 70
     8
 71
     3
 72
     9
 73
     5
 74
     0
 42
0.0000000001
 43
0.0000000001
 40
12.33514672210764
 40
12.33514672210764
 40
12.33514672210764
 40
12.33514672210764
 40
34.31553791317551
 40
38.29464428346954
 40
38.29464428346954
 40
38.29464428346954
 40
38.29464428346954
 10
688.4746793582504
 20
554.2369456472068
 30
0.0
 10
693.3178136261174
 20
553.9756903865877
 30
0.0
 10
700.2235715864696
 20
528.8816908903331
 30
0.0
 10
703.1185761159126
 20
499.9999985829168
 30
0.0
 10
703.1185761159126
 20
499.9999985829168
 30
0.0
  0
SPLINE
  5
1FD
330
1F
100
AcDbEntity
  8
3
100
AcDbSpline
210
0.0
220
0.0
230
1.0
 70
     8
 71
     3
 72
     9
 73
     5
 74
     0
 42
0.0000000001
 43
0.0000000001
 40
12.33514672210764
 40
12.33514672210764
 40
12.33514672210764
 40
12.33514672210764
 40
34.31553791317551
 40
38.29464428346954
 40
38.29464428346954
 40
38.29464428346954
 40
38.29464428346954
 10
717.7624728735824
 20
445.7630515186306
 30
0.0
 10
712.9193386057157
 20
446.0243067792498
 30
0.0
 10
706.0135806453631
 20
471.1183062755042
 30
0.0
 10
703.1185761159203
 20
499.9999985829204
 30
0.0
 10
703.1185761159203
 20
499.9999985829204
 30
0.0
  0
SPLINE
  5
1FE
330
1F
100
AcDbEntity
  8
3
100
AcDbSpline
210
0.0
220
0.0
230
1.0
 70
     8
 71
     3
 72
     9
 73
     5
 74
     0
 42
0.0000000001
 43
0.0000000001
 40
12.33514672210764
 40
12.33514672210764
 40
12.33514672210764
 40
12.33514672210764
 40
34.31553791317551
 40
38.29464428346954
 40
38.29464428346954
 40
38.29464428346954
 40
38.29464428346954
 10
717.762472873586
 20
445.7630515186306
 30
0.0
 10
722.6056071414529
 20
446.0243067792498
 30
0.0
 10
729.5113651018093
 20
471.1183062755006
 30
0.0
 10
732.4063696312561
 20
499.9999985829168
 30
0.0
 10
732.4063696312561
 20
499.9999985829168
 30
0.0
  0
SPLINE
  5
1FF
330
1F
100
AcDbEntity
  8
3
100
AcDbSpline
210
0.0
220
0.0
230
1.0
 70
     8
 71
     3
 72
     9
 73
     5
 74
     0
 42
0.0000000001
 43
0.0000000001
 40
12.33514672210764
 40
12.33514672210764
 40
12.33514672210764
 40
12.33514672210764
 40
34.31553791317551
 40
38.29464428346954
 40
38.29464428346954
 40
38.29464428346954
 40
38.29464428346954
 10
747.0502663889561
 20
554.2369456471916
 30
0.0
 10
742.2071321210895
 20
553.975690386576
 30
0.0
 10
735.3013741607218
 20
528.8816908903258
 30
0.0
 10
732.4063696312637
 20
499.9999985829091
 30
0.0
 10
732.4063696312637
 20
499.9999985829091
 30
0.0
  0
SPLINE
  5
200
330
1F
100
AcDbEntity
  8
3
100
AcDbSpline
210
0.0
220
0.0
230
1.0
 70
     8
 71
     3
 72
     9
 73
     5
 74
     0
 42
0.0000000001
 43
0.0000000001
 40
12.33514672210764
 40
12.33514672210764
 40
12.33514672210764
 40
12.33514672210764
 40
34.31553791317551
 40
38.29464428346954
 40
38.29464428346954
 40
38.29464428346954
 40
38.29464428346954
 10
747.0502663889561
 20
554.2369456471916
 30
0.0
 10
751.8934006568232
 20
553.9756903865725
 30
0.0
 10
758.7991586171756
 20
528.8816908903181
 30
0.0
 10
761.6941631466183
 20
499.9999985829015
 30
0.0
 10
761.6941631466183
 20
499.9999985829015
 30
0.0
  0
SPLINE
  5
201
330
1F
100
AcDbEntity
  8
3
100
AcDbSpline
210
0.0
220
0.0
230
1.0
 70
     8
 71
     3
 72
     9
 73
     5
 74
     0
 42
0.0000000001
 43
0.0000000001
 40
12.33514672210764
 40
12.33514672210764
 40
12.33514672210764
 40
12.33514672210764
 40
34.31553791317551
 40
38.29464428346954
 40
38.29464428346954
 40
38.29464428346954
 40
38.29464428346954
 10
776.3380599042881
 20
445.7630515186154
 30
0.0
 10
771.4949256364215
 20
446.0243067792344
 30
0.0
 10
764.5891676760689
 20
471.1183062754889
 30
0.0
 10
761.6941631466261
 20
499.9999985829054
 30
0.0
 10
761.6941631466261
 20
499.9999985829054
 30
0.0
  0
SPLINE
  5
202
330
1F
100
AcDbEntity
  8
3
100
AcDbSpline
210
0.0
220
0.0
230
1.0
 70
     8
 71
     3
 72
     9
 73
     5
 74
     0
 42
0.0000000001
 43
0.0000000001
 40
12.33514672210764
 40
12.33514672210764
 40
12.33514672210764
 40
12.33514672210764
 40
34.31553791317551
 40
38.29464428346954
 40
38.29464428346954
 40
38.29464428346954
 40
38.29464428346954
 10
776.3380599042924
 20
445.7630515186154
 30
0.0
 10
781.181194172159
 20
446.0243067792344
 30
0.0
 10
788.086952132515
 20
471.1183062754852
 30
0.0
 10
790.981956661962
 20
499.9999985829015
 30
0.0
 10
790.981956661962
 20
499.9999985829015
 30
0.0
  0
SPLINE
  5
203
330
1F
100
AcDbEntity
  8
3
100
AcDbSpline
210
0.0
220
0.0
230
1.0
 70
     8
 71
     3
 72
     9
 73
     5
 74
     0
 42
0.0000000001
 43
0.0000000001
 40
12.33514672210764
 40
12.33514672210764
 40
12.33514672210764
 40
12.33514672210764
 40
34.31553791317551
 40
38.29464428346954
 40
38.29464428346954
 40
38.29464428346954
 40
38.29464428346954
 10
805.6258534196624
 20
554.2369456471764
 30
0.0
 10
800.7827191517955
 20
553.975690386561
 30
0.0
 10
793.8769611914278
 20
528.8816908903104
 30
0.0
 10
790.9819566619696
 20
499.9999985828938
 30
0.0
 10
790.9819566619696
 20
499.9999985828938
 30
0.0
  0
SPLINE
  5
204
330
1F
100
AcDbEntity
  8
3
100
AcDbSpline
210
0.0
220
0.0
230
1.0
 70
     8
 71
     3
 72
     9
 73
     5
 74
     0
 42
0.0000000001
 43
0.0000000001
 40
12.33514672210764
 40
12.33514672210764
 40
12.33514672210764
 40
12.33514672210764
 40
34.31553791317551
 40
38.29464428346954
 40
38.29464428346954
 40
38.29464428346954
 40
38.29464428346954
 10
805.6258534196624
 20
554.2369456471764
 30
0.0
 10
810.4689876875292
 20
553.9756903865572
 30
0.0
 10
817.3747456478817
 20
528.8816908903028
 30
0.0
 10
820.2697501773245
 20
499.9999985828862
 30
0.0
 10
820.2697501773245
 20
499.9999985828862
 30
0.0
  0
SPLINE
  5
205
330
1F
100
AcDbEntity
  8
3
100
AcDbSpline
210
0.0
220
0.0
230
1.0
 70
     8
 71
     3
 72
     9
 73
     5
 74
     0
 42
0.0000000001
 43
0.0000000001
 40
12.33514672210764
 40
12.33514672210764
 40
12.33514672210764
 40
12.33514672210764
 40
34.31553791317551
 40
38.29464428346954
 40
38.29464428346954
 40
38.29464428346954
 40
38.29464428346954
 10
834.9136469349941
 20
445.7630515186001
 30
0.0
 10
830.0705126671275
 20
446.0243067792192
 30
0.0
 10
823.1647547067748
 20
471.1183062754737
 30
0.0
 10
820.2697501773322
 20
499.99999858289
 30
0.0
 10
820.2697501773322
 20
499.99999858289
 30
0.0
  0
SPLINE
  5
206
330
1F
100
AcDbEntity
  8
3
100
AcDbSpline
210
0.0
220
0.0
230
1.0
 70
     8
 71
     3
 72
     9
 73
     5
 74
     0
 42
0.0000000001
 43
0.0000000001
 40
12.33514672210764
 40
12.33514672210764
 40
12.33514672210764
 40
12.33514672210764
 40
34.31553791317551
 40
38.29464428346954
 40
38.29464428346954
 40
38.29464428346954
 40
38.29464428346954
 10
834.9136469349982
 20
445.7630515186001
 30
0.0
 10
839.756781202865
 20
446.0243067792192
 30
0.0
 10
846.6625391632213
 20
471.1183062754697
 30
0.0
 10
849.5575436926678
 20
499.9999985828862
 30
0.0
 10
849.5575436926678
 20
499.9999985828862
 30
0.0
  0
LINE
  5
207
330
1F
100
AcDbEntity
  8
3
100
AcDbLine
 10
146.6504993242009
 20
499.9999985830659
 30
0.0
 11
54.95486194786605
 21
499.9999985830659
 31
0.0
  0
LINE
  5
208
330
1F
100
AcDbEntity
  8
1
 62
     1
100
AcDbLine
 10
32.02439129710604
 20
589.090026209069
 30
0.0
 11
32.02439129710604
 21
399.542574211026
 31
0.0
  0
LINE
  5
209
330
1F
100
AcDbEntity
  8
1
 62
     1
100
AcDbLine
 10
967.9756850737023
 20
589.090026209069
 30
0.0
 11
32.02439129710604
 21
589.090026209069
 31
0.0
  0
LINE
  5
20A
330
1F
100
AcDbEntity
  8
1
 62
     1
100
AcDbLine
 10
967.9756850737023
 20
399.5425742110259
 30
0.0
 11
967.9756850737019
 21
589.090026209069
 31
0.0
  0
LINE
  5
20B
330
1F
100
AcDbEntity
  8
1
 62
     1
100
AcDbLine
 10
32.02439129710604
 20
399.5425742110259
 30
0.0
 11
967.9756850737023
 21
399.5425742110261
 31
0.0
  0
LWPOLYLINE
  5
20C
330
1F
100
AcDbEntity
  8
0
 62
     2
100
AcDbPolyline
 90
        4
 70
     1
 43
0.0
 10
0.0000381854042644
 20
-0.0000014170218492
 10
1000.000038185404
 20
-0.0000014170218492
 10
1000.000038185404
 20
999.9999985829781
 10
0.0000381854042644
 20
999.9999985829781
  0
ENDSEC
  0
SECTION
  2
OBJECTS
  0
DICTIONARY
  5
C
330
0
100
AcDbDictionary
281
     1
  3
ACAD_COLOR
350
6B
  3
ACAD_GROUP
350
D
  3
ACAD_LAYOUT
350
1A
  3
ACAD_MATERIAL
350
6A
  3
ACAD_MLINESTYLE
350
17
  3
ACAD_PLOTSETTINGS
350
19
  3
ACAD_PLOTSTYLENAME
350
E
  3
ACDBHEADERROUNDTRIPXREC
350
235
  3
AcDbVariableDictionary
350
5E
  0
DICTIONARY
  5
6B
102
{ACAD_REACTORS
330
C
102
}
330
C
100
AcDbDictionary
281
     1
  0
DICTIONARY
  5
D
102
{ACAD_REACTORS
330
C
102
}
330
C
100
AcDbDictionary
281
     1
  0
DICTIONARY
  5
1A
102
{ACAD_REACTORS
330
C
102
}
330
C
100
AcDbDictionary
281
     1
  3
Layout1
350
51
  3
Layout2
350
56
  3
Model
350
22
  0
DICTIONARY
  5
6A
102
{ACAD_REACTORS
330
C
102
}
330
C
100
AcDbDictionary
281
     1
  0
DICTIONARY
  5
17
102
{ACAD_REACTORS
330
C
102
}
330
C
100
AcDbDictionary
281
     1
  3
Standard
350
18
  0
DICTIONARY
  5
19
102
{ACAD_REACTORS
330
C
102
}
330
C
100
AcDbDictionary
281
     1
  0
ACDBDICTIONARYWDFLT
  5
E
102
{ACAD_REACTORS
330
C
102
}
330
C
100
AcDbDictionary
281
     1
  3
Normal
350
F
100
AcDbDictionaryWithDefault
340
F
  0
DICTIONARY
  5
235
102
{ACAD_REACTORS
330
C
102
}
330
C
100
AcDbDictionary
281
     1
  3
COLORDICT
350
237
  3
MATERIALDICT
350
236
  0
DICTIONARY
  5
5E
102
{ACAD_REACTORS
330
C
102
}
330
C
100
AcDbDictionary
281
     1
  3
DIMASSOC
350
5F
  3
HIDETEXT
350
63
  3
PROJECTNAME
350
85
  0
LAYOUT
  5
51
102
{ACAD_XDICTIONARY
360
23A
102
}
102
{ACAD_REACTORS
330
1A
102
}
330
1A
100
AcDbPlotSettings
  1

  2
None
  4

  6

 40
0.0
 41
0.0
 42
0.0
 43
0.0
 44
0.0
 45
0.0
 46
0.0
 47
0.0
 48
0.0
 49
0.0
140
0.0
141
0.0
142
1.0
143
1.0
 70
   688
 72
     0
 73
     0
 74
     5
  7

 75
    16
147
1.0
148
0.0
149
0.0
100
AcDbLayout
  1
Layout1
 70
     1
 71
     1
 10
0.0
 20
0.0
 11
12.0
 21
9.0
 12
0.0
 22
0.0
 32
0.0
 14
0.0
 24
0.0
 34
0.0
 15
0.0
 25
0.0
 35
0.0
146
0.0
 13
0.0
 23
0.0
 33
0.0
 16
1.0
 26
0.0
 36
0.0
 17
0.0
 27
1.0
 37
0.0
 76
     0
330
50
  0
LAYOUT
  5
56
102
{ACAD_XDICTIONARY
360
23C
102
}
102
{ACAD_REACTORS
330
1A
102
}
330
1A
100
AcDbPlotSettings
  1

  2
None
  4

  6

 40
0.0
 41
0.0
 42
0.0
 43
0.0
 44
0.0
 45
0.0
 46
0.0
 47
0.0
 48
0.0
 49
0.0
140
0.0
141
0.0
142
1.0
143
1.0
 70
   688
 72
     0
 73
     0
 74
     5
  7

 75
    16
147
1.0
148
0.0
149
0.0
100
AcDbLayout
  1
Layout2
 70
     1
 71
     2
 10
0.0
 20
0.0
 11
12.0
 21
9.0
 12
0.0
 22
0.0
 32
0.0
 14
0.0
 24
0.0
 34
0.0
 15
0.0
 25
0.0
 35
0.0
146
0.0
 13
0.0
 23
0.0
 33
0.0
 16
1.0
 26
0.0
 36
0.0
 17
0.0
 27
1.0
 37
0.0
 76
     0
330
55
  0
LAYOUT
  5
22
102
{ACAD_XDICTIONARY
360
238
102
}
102
{ACAD_REACTORS
330
1A
102
}
330
1A
100
AcDbPlotSettings
  1

  2
none_device
  4
ANSI_A_(8.50_x_11.00_Inches)
  6

 40
6.349999904632567
 41
19.04999923706055
 42
6.350006103515625
 43
19.04998779296875
 44
215.8999938964844
 45
279.3999938964844
 46
0.0
 47
0.0
 48
0.0
 49
0.0
140
0.0
141
0.0
142
1.0
143
78.436453180766
 70
 11952
 72
     0
 73
     1
 74
     0
  7

 75
     0
147
0.0127491741332998
148
0.0
149
0.0
100
AcDbLayout
  1
Model
 70
     1
 71
     0
 10
0.0
 20
0.0
 11
12.0
 21
9.0
 12
0.0
 22
0.0
 32
0.0
 14
0.0
 24
0.0
 34
0.0
 15
0.0
 25
0.0
 35
0.0
146
0.0
 13
0.0
 23
0.0
 33
0.0
 16
1.0
 26
0.0
 36
0.0
 17
0.0
 27
1.0
 37
0.0
 76
     0
330
1F
  0
MLINESTYLE
  5
18
102
{ACAD_REACTORS
330
17
102
}
330
17
100
AcDbMlineStyle
  2
STANDARD
 70
     0
  3

 62
   256
 51
90.0
 52
90.0
 71
     2
 49
0.5
 62
   256
  6
BYLAYER
 49
-0.5
 62
   256
  6
BYLAYER
  0
ACDBPLACEHOLDER
  5
F
102
{ACAD_REACTORS
330
E
102
}
330
E
  0
XRECORD
  5
237
102
{ACAD_REACTORS
330
235
102
}
330
235
100
AcDbXrecord
280
     1
340
6B
  0
XRECORD
  5
236
102
{ACAD_REACTORS
330
235
102
}
330
235
100
AcDbXrecord
280
     1
340
6A
  0
DICTIONARYVAR
  5
5F
102
{ACAD_REACTORS
330
5E
102
}
330
5E
100
DictionaryVariables
280
     0
  1
2
  0
DICTIONARYVAR
  5
63
102
{ACAD_REACTORS
330
5E
102
}
330
5E
100
DictionaryVariables
280
     0
  1
1
  0
DICTIONARYVAR
  5
85
102
{ACAD_REACTORS
330
5E
102
}
330
5E
100
DictionaryVariables
280
     0
  1

  0
DICTIONARY
  5
23A
330
51
100
AcDbDictionary
280
     1
281
     1
  3
ACAD_XREC_ROUNDTRIP
360
23B
  0
DICTIONARY
  5
23C
330
56
100
AcDbDictionary
280
     1
281
     1
  3
ACAD_XREC_ROUNDTRIP
360
23D
  0
DICTIONARY
  5
238
330
22
100
AcDbDictionary
280
     1
281
     1
  3
ACAD_XREC_ROUNDTRIP
360
239
  0
XRECORD
  5
23B
102
{ACAD_REACTORS
330
23A
102
}
330
23A
100
AcDbXrecord
280
     1
102
SHADEPLOT
 70
     0
102
SHADEPLOTRESLEVEL
 70
     2
102
SHADEPLOTCUSTOMDPI
 70
   300
  0
XRECORD
  5
23D
102
{ACAD_REACTORS
330
23C
102
}
330
23C
100
AcDbXrecord
280
     1
102
SHADEPLOT
 70
     0
102
SHADEPLOTRESLEVEL
 70
     2
102
SHADEPLOTCUSTOMDPI
 70
   300
  0
XRECORD
  5
239
102
{ACAD_REACTORS
330
238
102
}
330
238
100
AcDbXrecord
280
     1
102
SHADEPLOT
 70
     0
102
SHADEPLOTRESLEVEL
 70
     2
102
SHADEPLOTCUSTOMDPI
 70
   300
  0
ENDSEC
  0
EOF
