  0
SECTION
  2
HEADER
  9
$ACADVER
  1
AC1015
  9
$ACADMAINTVER
 70
    20
  9
$DWGCODEPAGE
  3
ANSI_936
  9
$INSBASE
 10
0.0
 20
0.0
 30
0.0
  9
$EXTMIN
 10
-0.0001104052280425
 20
0.0000079127530626
 30
0.0
  9
$EXTMAX
 10
999.9998895947721
 20
1000.000007912753
 30
0.0
  9
$LIMMIN
 10
0.0
 20
0.0
  9
$LIMMAX
 10
420.0
 20
297.0
  9
$ORTHOMODE
 70
     0
  9
$REGENMODE
 70
     1
  9
$FILLMODE
 70
     1
  9
$QTEXTMODE
 70
     0
  9
$MIRRTEXT
 70
     0
  9
$LTSCALE
 40
1.0
  9
$ATTMODE
 70
     1
  9
$TEXTSIZE
 40
2.5
  9
$TRACEWID
 40
1.0
  9
$TEXTSTYLE
  7
Standard
  9
$CLAYER
  8
2
  9
$CELTYPE
  6
ByLayer
  9
$CECOLOR
 62
   256
  9
$CELTSCALE
 40
1.0
  9
$DISPSILH
 70
     0
  9
$DIMSCALE
 40
1.0
  9
$DIMASZ
 40
2.5
  9
$DIMEXO
 40
0.625
  9
$DIMDLI
 40
3.75
  9
$DIMRND
 40
0.0
  9
$DIMDLE
 40
0.0
  9
$DIMEXE
 40
1.25
  9
$DIMTP
 40
0.0
  9
$DIMTM
 40
0.0
  9
$DIMTXT
 40
2.5
  9
$DIMCEN
 40
2.5
  9
$DIMTSZ
 40
0.0
  9
$DIMTOL
 70
     0
  9
$DIMLIM
 70
     0
  9
$DIMTIH
 70
     0
  9
$DIMTOH
 70
     0
  9
$DIMSE1
 70
     0
  9
$DIMSE2
 70
     0
  9
$DIMTAD
 70
     1
  9
$DIMZIN
 70
     8
  9
$DIMBLK
  1

  9
$DIMASO
 70
     1
  9
$DIMSHO
 70
     1
  9
$DIMPOST
  1

  9
$DIMAPOST
  1

  9
$DIMALT
 70
     0
  9
$DIMALTD
 70
     3
  9
$DIMALTF
 40
0.03937007874016
  9
$DIMLFAC
 40
1.0
  9
$DIMTOFL
 70
     1
  9
$DIMTVP
 40
0.0
  9
$DIMTIX
 70
     0
  9
$DIMSOXD
 70
     0
  9
$DIMSAH
 70
     0
  9
$DIMBLK1
  1

  9
$DIMBLK2
  1

  9
$DIMSTYLE
  2
ISO-25
  9
$DIMCLRD
 70
     0
  9
$DIMCLRE
 70
     0
  9
$DIMCLRT
 70
     0
  9
$DIMTFAC
 40
1.0
  9
$DIMGAP
 40
0.625
  9
$DIMJUST
 70
     0
  9
$DIMSD1
 70
     0
  9
$DIMSD2
 70
     0
  9
$DIMTOLJ
 70
     0
  9
$DIMTZIN
 70
     8
  9
$DIMALTZ
 70
     0
  9
$DIMALTTZ
 70
     0
  9
$DIMUPT
 70
     0
  9
$DIMDEC
 70
     2
  9
$DIMTDEC
 70
     2
  9
$DIMALTU
 70
     2
  9
$DIMALTTD
 70
     3
  9
$DIMTXSTY
  7
Standard
  9
$DIMAUNIT
 70
     0
  9
$DIMADEC
 70
     0
  9
$DIMALTRND
 40
0.0
  9
$DIMAZIN
 70
     0
  9
$DIMDSEP
 70
    44
  9
$DIMATFIT
 70
     3
  9
$DIMFRAC
 70
     0
  9
$DIMLDRBLK
  1

  9
$DIMLUNIT
 70
     2
  9
$DIMLWD
 70
    -2
  9
$DIMLWE
 70
    -2
  9
$DIMTMOVE
 70
     0
  9
$LUNITS
 70
     2
  9
$LUPREC
 70
     4
  9
$SKETCHINC
 40
1.0
  9
$FILLETRAD
 40
0.0
  9
$AUNITS
 70
     0
  9
$AUPREC
 70
     0
  9
$MENU
  1
.
  9
$ELEVATION
 40
0.0
  9
$PELEVATION
 40
0.0
  9
$THICKNESS
 40
0.0
  9
$LIMCHECK
 70
     0
  9
$CHAMFERA
 40
0.0
  9
$CHAMFERB
 40
0.0
  9
$CHAMFERC
 40
0.0
  9
$CHAMFERD
 40
0.0
  9
$SKPOLY
 70
     0
  9
$TDCREATE
 40
2455505.725807523
  9
$TDUCREATE
 40
2455505.392474190
  9
$TDUPDATE
 40
2457095.983390173
  9
$TDUUPDATE
 40
2457095.650056841
  9
$TDINDWG
 40
0.0530916667
  9
$TDUSRTIMER
 40
0.0530908681
  9
$USRTIMER
 70
     1
  9
$ANGBASE
 50
0.0
  9
$ANGDIR
 70
     0
  9
$PDMODE
 70
     0
  9
$PDSIZE
 40
0.0
  9
$PLINEWID
 40
0.0
  9
$SPLFRAME
 70
     0
  9
$SPLINETYPE
 70
     6
  9
$SPLINESEGS
 70
     8
  9
$HANDSEED
  5
367
  9
$SURFTAB1
 70
     6
  9
$SURFTAB2
 70
     6
  9
$SURFTYPE
 70
     6
  9
$SURFU
 70
     6
  9
$SURFV
 70
     6
  9
$UCSBASE
  2

  9
$UCSNAME
  2

  9
$UCSORG
 10
0.0
 20
0.0
 30
0.0
  9
$UCSXDIR
 10
1.0
 20
0.0
 30
0.0
  9
$UCSYDIR
 10
0.0
 20
1.0
 30
0.0
  9
$UCSORTHOREF
  2

  9
$UCSORTHOVIEW
 70
     0
  9
$UCSORGTOP
 10
0.0
 20
0.0
 30
0.0
  9
$UCSORGBOTTOM
 10
0.0
 20
0.0
 30
0.0
  9
$UCSORGLEFT
 10
0.0
 20
0.0
 30
0.0
  9
$UCSORGRIGHT
 10
0.0
 20
0.0
 30
0.0
  9
$UCSORGFRONT
 10
0.0
 20
0.0
 30
0.0
  9
$UCSORGBACK
 10
0.0
 20
0.0
 30
0.0
  9
$PUCSBASE
  2

  9
$PUCSNAME
  2

  9
$PUCSORG
 10
0.0
 20
0.0
 30
0.0
  9
$PUCSXDIR
 10
1.0
 20
0.0
 30
0.0
  9
$PUCSYDIR
 10
0.0
 20
1.0
 30
0.0
  9
$PUCSORTHOREF
  2

  9
$PUCSORTHOVIEW
 70
     0
  9
$PUCSORGTOP
 10
0.0
 20
0.0
 30
0.0
  9
$PUCSORGBOTTOM
 10
0.0
 20
0.0
 30
0.0
  9
$PUCSORGLEFT
 10
0.0
 20
0.0
 30
0.0
  9
$PUCSORGRIGHT
 10
0.0
 20
0.0
 30
0.0
  9
$PUCSORGFRONT
 10
0.0
 20
0.0
 30
0.0
  9
$PUCSORGBACK
 10
0.0
 20
0.0
 30
0.0
  9
$USERI1
 70
     0
  9
$USERI2
 70
     0
  9
$USERI3
 70
     0
  9
$USERI4
 70
     0
  9
$USERI5
 70
     0
  9
$USERR1
 40
0.0
  9
$USERR2
 40
0.0
  9
$USERR3
 40
0.0
  9
$USERR4
 40
0.0
  9
$USERR5
 40
0.0
  9
$WORLDVIEW
 70
     1
  9
$SHADEDGE
 70
     3
  9
$SHADEDIF
 70
    70
  9
$TILEMODE
 70
     1
  9
$MAXACTVP
 70
    64
  9
$PINSBASE
 10
0.0
 20
0.0
 30
0.0
  9
$PLIMCHECK
 70
     0
  9
$PEXTMIN
 10
0.0
 20
0.0
 30
0.0
  9
$PEXTMAX
 10
0.0
 20
0.0
 30
0.0
  9
$PLIMMIN
 10
0.0
 20
0.0
  9
$PLIMMAX
 10
12.0
 20
9.0
  9
$UNITMODE
 70
     0
  9
$VISRETAIN
 70
     1
  9
$PLINEGEN
 70
     0
  9
$PSLTSCALE
 70
     1
  9
$TREEDEPTH
 70
  3020
  9
$CMLSTYLE
  2
Standard
  9
$CMLJUST
 70
     0
  9
$CMLSCALE
 40
20.0
  9
$PROXYGRAPHICS
 70
     1
  9
$MEASUREMENT
 70
     1
  9
$CELWEIGHT
370
    -1
  9
$ENDCAPS
280
     0
  9
$JOINSTYLE
280
     0
  9
$LWDISPLAY
290
     0
  9
$INSUNITS
 70
     4
  9
$HYPERLINKBASE
  1

  9
$STYLESHEET
  1

  9
$XEDIT
290
     1
  9
$CEPSNTYPE
380
     0
  9
$PSTYLEMODE
290
     1
  9
$FINGERPRINTGUID
  2
{FDEAD578-A652-11D2-9A35-0060089B3A3F}
  9
$VERSIONGUID
  2
{F0657B71-213B-429D-8461-852E722E56FC}
  9
$EXTNAMES
290
     1
  9
$PSVPSCALE
 40
0.0
  9
$OLESTARTUP
290
     0
  0
ENDSEC
  0
SECTION
  2
CLASSES
  0
CLASS
  1
ACDBDICTIONARYWDFLT
  2
AcDbDictionaryWithDefault
  3
ObjectDBX Classes
 90
        0
280
     0
281
     0
  0
CLASS
  1
ACDBPLACEHOLDER
  2
AcDbPlaceHolder
  3
ObjectDBX Classes
 90
        0
280
     0
281
     0
  0
CLASS
  1
LAYOUT
  2
AcDbLayout
  3
ObjectDBX Classes
 90
        0
280
     0
281
     0
  0
CLASS
  1
DICTIONARYVAR
  2
AcDbDictionaryVar
  3
ObjectDBX Classes
 90
        0
280
     0
281
     0
  0
ENDSEC
  0
SECTION
  2
TABLES
  0
TABLE
  2
VPORT
  5
8
330
0
100
AcDbSymbolTable
 70
     2
  0
VPORT
  5
35D
330
8
100
AcDbSymbolTableRecord
100
AcDbViewportTableRecord
  2
*Active
 70
     0
 10
0.0
 20
0.0
 11
1.0
 21
1.0
 12
765.7971945580634
 22
376.7658057759087
 13
0.0
 23
0.0
 14
10.0
 24
10.0
 15
10.0
 25
10.0
 16
0.0
 26
0.0
 36
1.0
 17
0.0
 27
0.0
 37
0.0
 40
1772.498685035267
 41
2.425287356321839
 42
50.0
 43
0.0
 44
0.0
 50
0.0
 51
0.0
 71
     0
 72
  1000
 73
     1
 74
     3
 75
     0
 76
     0
 77
     0
 78
     0
281
     0
 65
     1
110
0.0
120
0.0
130
0.0
111
1.0
121
0.0
131
0.0
112
0.0
122
1.0
132
0.0
 79
     0
146
0.0
  0
ENDTAB
  0
TABLE
  2
LTYPE
  5
5
330
0
100
AcDbSymbolTable
 70
     1
  0
LTYPE
  5
14
330
5
100
AcDbSymbolTableRecord
100
AcDbLinetypeTableRecord
  2
ByBlock
 70
     0
  3

 72
    65
 73
     0
 40
0.0
  0
LTYPE
  5
15
330
5
100
AcDbSymbolTableRecord
100
AcDbLinetypeTableRecord
  2
ByLayer
 70
     0
  3

 72
    65
 73
     0
 40
0.0
  0
LTYPE
  5
16
330
5
100
AcDbSymbolTableRecord
100
AcDbLinetypeTableRecord
  2
Continuous
 70
     0
  3
Solid line
 72
    65
 73
     0
 40
0.0
  0
ENDTAB
  0
TABLE
  2
LAYER
  5
2
330
0
100
AcDbSymbolTable
 70
     4
  0
LAYER
  5
10
330
2
100
AcDbSymbolTableRecord
100
AcDbLayerTableRecord
  2
0
 70
     0
 62
     2
  6
Continuous
370
    -3
390
F
  0
LAYER
  5
94
330
2
100
AcDbSymbolTableRecord
100
AcDbLayerTableRecord
  2
1
 70
     0
 62
     1
  6
Continuous
370
    -3
390
F
  0
LAYER
  5
95
330
2
100
AcDbSymbolTableRecord
100
AcDbLayerTableRecord
  2
2
 70
     0
 62
     7
  6
Continuous
370
    -3
390
F
  0
LAYER
  5
10E
330
2
100
AcDbSymbolTableRecord
100
AcDbLayerTableRecord
  2
3
 70
     0
 62
     7
  6
Continuous
370
    -3
390
F
  0
ENDTAB
  0
TABLE
  2
STYLE
  5
3
330
0
100
AcDbSymbolTable
 70
     1
  0
STYLE
  5
11
330
3
100
AcDbSymbolTableRecord
100
AcDbTextStyleTableRecord
  2
Standard
 70
     0
 40
0.0
 41
1.0
 50
0.0
 71
     0
 42
2.5
  3
txt
  4

  0
ENDTAB
  0
TABLE
  2
VIEW
  5
6
330
0
100
AcDbSymbolTable
 70
     0
  0
ENDTAB
  0
TABLE
  2
UCS
  5
7
330
0
100
AcDbSymbolTable
 70
     0
  0
ENDTAB
  0
TABLE
  2
APPID
  5
9
330
0
100
AcDbSymbolTable
 70
     1
  0
APPID
  5
12
330
9
100
AcDbSymbolTableRecord
100
AcDbRegAppTableRecord
  2
ACAD
 70
     0
  0
ENDTAB
  0
TABLE
  2
DIMSTYLE
  5
A
330
0
100
AcDbSymbolTable
 70
     1
100
AcDbDimStyleTable
 71
     0
  0
DIMSTYLE
105
27
330
A
100
AcDbSymbolTableRecord
100
AcDbDimStyleTableRecord
  2
ISO-25
 70
     0
 41
2.5
 42
0.625
 43
3.75
 44
1.25
 73
     0
 74
     0
 77
     1
 78
     8
140
2.5
141
2.5
143
0.03937007874016
147
0.625
171
     3
172
     1
271
     2
272
     2
274
     3
278
    44
283
     0
284
     8
340
11
  0
ENDTAB
  0
TABLE
  2
BLOCK_RECORD
  5
1
330
0
100
AcDbSymbolTable
 70
     1
  0
BLOCK_RECORD
  5
1F
330
1
100
AcDbSymbolTableRecord
100
AcDbBlockTableRecord
  2
*Model_Space
340
22
  0
BLOCK_RECORD
  5
50
330
1
100
AcDbSymbolTableRecord
100
AcDbBlockTableRecord
  2
*Paper_Space
340
51
  0
BLOCK_RECORD
  5
55
330
1
100
AcDbSymbolTableRecord
100
AcDbBlockTableRecord
  2
*Paper_Space0
340
56
  0
ENDTAB
  0
ENDSEC
  0
SECTION
  2
BLOCKS
  0
BLOCK
  5
20
330
1F
100
AcDbEntity
  8
0
100
AcDbBlockBegin
  2
*Model_Space
 70
     0
 10
0.0
 20
0.0
 30
0.0
  3
*Model_Space
  1

  0
ENDBLK
  5
21
330
1F
100
AcDbEntity
  8
0
100
AcDbBlockEnd
  0
BLOCK
  5
52
330
50
100
AcDbEntity
 67
     1
  8
0
100
AcDbBlockBegin
  2
*Paper_Space
 70
     0
 10
0.0
 20
0.0
 30
0.0
  3
*Paper_Space
  1

  0
ENDBLK
  5
53
330
50
100
AcDbEntity
 67
     1
  8
0
100
AcDbBlockEnd
  0
BLOCK
  5
57
330
55
100
AcDbEntity
  8
0
100
AcDbBlockBegin
  2
*Paper_Space0
 70
     0
 10
0.0
 20
0.0
 30
0.0
  3
*Paper_Space0
  1

  0
ENDBLK
  5
58
330
55
100
AcDbEntity
  8
0
100
AcDbBlockEnd
  0
ENDSEC
  0
SECTION
  2
ENTITIES
  0
LWPOLYLINE
  5
2D6
330
1F
100
AcDbEntity
  8
0
 62
     2
100
AcDbPolyline
 90
        4
 70
     1
 43
0.0
 10
-0.0001104052280425
 20
0.0000079127530626
 10
999.9998895947721
 20
0.0000079127530626
 10
999.9998895947721
 20
1000.000007912753
 10
-0.0001104052280425
 20
1000.000007912753
  0
LINE
  5
2D7
330
1F
100
AcDbEntity
  8
1
 62
     1
100
AcDbLine
 10
29.21567404016787
 20
409.5088077807126
 30
0.0
 11
970.7841051493762
 21
409.5088077807126
 31
0.0
  0
LINE
  5
2D8
330
1F
100
AcDbEntity
  8
1
 62
     1
100
AcDbLine
 10
970.7841051493762
 20
409.5088077807128
 30
0.0
 11
970.7841051493762
 21
588.3622173705299
 31
0.0
  0
LINE
  5
2D9
330
1F
100
AcDbEntity
  8
1
 62
     1
100
AcDbLine
 10
970.7841051493762
 20
588.36221737053
 30
0.0
 11
29.21567404016787
 21
588.3622173705299
 31
0.0
  0
LINE
  5
2DA
330
1F
100
AcDbEntity
  8
1
 62
     1
100
AcDbLine
 10
29.21567404016787
 20
588.3622173705299
 30
0.0
 11
29.21567404016787
 21
409.5088077807128
 31
0.0
  0
LINE
  5
2DB
330
1F
100
AcDbEntity
  8
3
100
AcDbLine
 10
936.4309004797341
 20
559.533244692791
 30
0.0
 11
936.4309004797341
 21
527.6800764057062
 31
0.0
  0
MTEXT
  5
2DC
330
1F
100
AcDbEntity
  8
3
100
AcDbMText
 10
874.7291484916965
 20
510.3631735947612
 30
0.0
 40
13.0896
 41
59.2199312568412
 71
     1
 72
     5
  1
{\f@Batang|b0|i0|c0|p18;7}
 73
     1
 44
1.0
1001
ACAD
1000
MTEXTBEGIN
1070
    73
1070
     1
1070
    44
1040
1.0
1070
    74
1070
     0
1000
MTEXTEND
  0
LINE
  5
2DD
330
1F
100
AcDbEntity
  8
3
100
AcDbLine
 10
844.7275737772837
 20
559.533244692791
 30
0.0
 11
844.7275737772837
 21
538.297799168069
 31
0.0
  0
LINE
  5
2DE
330
1F
100
AcDbEntity
  8
3
100
AcDbLine
 10
867.6534054528984
 20
559.533244692791
 30
0.0
 11
867.6534054528984
 21
538.297799168069
 31
0.0
  0
LINE
  5
2DF
330
1F
100
AcDbEntity
  8
3
100
AcDbLine
 10
856.1904896150908
 20
559.533244692791
 30
0.0
 11
856.1904896150908
 21
538.297799168069
 31
0.0
  0
LINE
  5
2E0
330
1F
100
AcDbEntity
  8
3
100
AcDbLine
 10
879.1163212907054
 20
559.533244692791
 30
0.0
 11
879.1163212907054
 21
538.297799168069
 31
0.0
  0
LINE
  5
2E1
330
1F
100
AcDbEntity
  8
3
100
AcDbLine
 10
879.1163212907054
 20
559.533244692791
 30
0.0
 11
879.1163212907054
 21
527.6800764057062
 31
0.0
  0
LINE
  5
2E2
330
1F
100
AcDbEntity
  8
3
100
AcDbLine
 10
913.5050688041269
 20
559.533244692791
 30
0.0
 11
913.5050688041269
 21
538.297799168069
 31
0.0
  0
LINE
  5
2E3
330
1F
100
AcDbEntity
  8
3
100
AcDbLine
 10
924.9679846419343
 20
559.533244692791
 30
0.0
 11
924.9679846419343
 21
538.297799168069
 31
0.0
  0
LINE
  5
2E4
330
1F
100
AcDbEntity
  8
3
100
AcDbLine
 10
902.0421529663199
 20
559.533244692791
 30
0.0
 11
902.0421529663199
 21
538.297799168069
 31
0.0
  0
LINE
  5
2E5
330
1F
100
AcDbEntity
  8
3
100
AcDbLine
 10
890.5792371285127
 20
559.533244692791
 30
0.0
 11
890.5792371285127
 21
538.297799168069
 31
0.0
  0
MTEXT
  5
2E6
330
1F
100
AcDbEntity
  8
3
100
AcDbMText
 10
760.662842880688
 20
510.3631735947612
 30
0.0
 40
13.0896
 41
59.2199312568412
 71
     1
 72
     5
  1
{\f@Batang|b0|i0|c0|p18;6}
 73
     1
 44
1.0
1001
ACAD
1000
MTEXTBEGIN
1070
    73
1070
     1
1070
    44
1040
1.0
1070
    74
1070
     0
1000
MTEXTEND
  0
MTEXT
  5
2E7
330
1F
100
AcDbEntity
  8
3
100
AcDbMText
 10
645.5809442532527
 20
510.3631735947612
 30
0.0
 40
13.0896
 41
59.2199312568412
 71
     1
 72
     5
  1
{\f@Batang|b0|i0|c0|p18;5}
 73
     1
 44
1.0
1001
ACAD
1000
MTEXTBEGIN
1070
    73
1070
     1
1070
    44
1040
1.0
1070
    74
1070
     0
1000
MTEXTEND
  0
MTEXT
  5
2E8
330
1F
100
AcDbEntity
  8
3
100
AcDbMText
 10
530.8913175705588
 20
510.3631735947612
 30
0.0
 40
13.0896
 41
59.2199312568412
 71
     1
 72
     5
  1
{\f@Batang|b0|i0|c0|p18;4}
 73
     1
 44
1.0
1001
ACAD
1000
MTEXTBEGIN
1070
    73
1070
     1
1070
    44
1040
1.0
1070
    74
1070
     0
1000
MTEXTEND
  0
MTEXT
  5
2E9
330
1F
100
AcDbEntity
  8
3
100
AcDbMText
 10
416.6513585924867
 20
510.3631735947612
 30
0.0
 40
13.0896
 41
59.2199312568412
 71
     1
 72
     5
  1
{\f@Batang|b0|i0|c0|p18;3}
 73
     1
 44
1.0
1001
ACAD
1000
MTEXTBEGIN
1070
    73
1070
     1
1070
    44
1040
1.0
1070
    74
1070
     0
1000
MTEXTEND
  0
MTEXT
  5
2EA
330
1F
100
AcDbEntity
  8
3
100
AcDbMText
 10
188.213785605942
 20
510.3631735947612
 30
0.0
 40
13.0896
 41
59.2199312568412
 71
     1
 72
     5
  1
{\f@Batang|b0|i0|c0|p18;1}
 73
     1
 44
1.0
1001
ACAD
1000
MTEXTBEGIN
1070
    73
1070
     1
1070
    44
1040
1.0
1070
    74
1070
     0
1000
MTEXTEND
  0
MTEXT
  5
2EB
330
1F
100
AcDbEntity
  8
3
100
AcDbMText
 10
73.04270519726625
 20
510.3631735947612
 30
0.0
 40
13.0896
 41
59.2199312568412
 71
     1
 72
     5
  1
{\f@Batang|b0|i0|c0|p18;0}
 73
     1
 44
1.0
1001
ACAD
1000
MTEXTBEGIN
1070
    73
1070
     1
1070
    44
1040
1.0
1070
    74
1070
     0
1000
MTEXTEND
  0
MTEXT
  5
2EC
330
1F
100
AcDbEntity
  8
3
100
AcDbMText
 10
301.2304662582707
 20
510.3631735947612
 30
0.0
 40
13.0896
 41
59.2199312568412
 71
     1
 72
     5
  1
{\f@Batang|b0|i0|c0|p18;2}
 73
     1
 44
1.0
1001
ACAD
1000
MTEXTBEGIN
1070
    73
1070
     1
1070
    44
1040
1.0
1070
    74
1070
     0
1000
MTEXTEND
  0
LINE
  5
2ED
330
1F
100
AcDbEntity
  8
3
100
AcDbLine
 10
546.6917619943179
 20
559.533244692791
 30
0.0
 11
546.6917619943179
 21
538.297799168069
 31
0.0
  0
LINE
  5
2EE
330
1F
100
AcDbEntity
  8
3
100
AcDbLine
 10
558.1546778321248
 20
559.533244692791
 30
0.0
 11
558.1546778321248
 21
538.297799168069
 31
0.0
  0
LINE
  5
2EF
330
1F
100
AcDbEntity
  8
3
100
AcDbLine
 10
581.0805095077394
 20
559.533244692791
 30
0.0
 11
581.0805095077394
 21
538.297799168069
 31
0.0
  0
LINE
  5
2F0
330
1F
100
AcDbEntity
  8
3
100
AcDbLine
 10
569.6175936699321
 20
559.533244692791
 30
0.0
 11
569.6175936699321
 21
538.297799168069
 31
0.0
  0
LINE
  5
2F1
330
1F
100
AcDbEntity
  8
3
100
AcDbLine
 10
592.5434253455466
 20
559.533244692791
 30
0.0
 11
592.5434253455466
 21
538.297799168069
 31
0.0
  0
LINE
  5
2F2
330
1F
100
AcDbEntity
  8
3
100
AcDbLine
 10
592.5434253455466
 20
559.533244692791
 30
0.0
 11
592.5434253455466
 21
527.6800764057062
 31
0.0
  0
LINE
  5
2F3
330
1F
100
AcDbEntity
  8
3
100
AcDbLine
 10
649.8580045345754
 20
559.533244692791
 30
0.0
 11
649.8580045345754
 21
517.0623536433453
 31
0.0
  0
LINE
  5
2F4
330
1F
100
AcDbEntity
  8
3
100
AcDbLine
 10
649.8580045345754
 20
559.533244692791
 30
0.0
 11
649.8580045345754
 21
538.297799168069
 31
0.0
  0
LINE
  5
2F5
330
1F
100
AcDbEntity
  8
3
100
AcDbLine
 10
626.9321728589609
 20
559.533244692791
 30
0.0
 11
626.9321728589609
 21
538.297799168069
 31
0.0
  0
LINE
  5
2F6
330
1F
100
AcDbEntity
  8
3
100
AcDbLine
 10
638.3950886967681
 20
559.533244692791
 30
0.0
 11
638.3950886967681
 21
538.297799168069
 31
0.0
  0
LINE
  5
2F7
330
1F
100
AcDbEntity
  8
3
100
AcDbLine
 10
615.4692570211537
 20
559.533244692791
 30
0.0
 11
615.4692570211537
 21
538.297799168069
 31
0.0
  0
LINE
  5
2F8
330
1F
100
AcDbEntity
  8
3
100
AcDbLine
 10
604.0063411833537
 20
559.533244692791
 30
0.0
 11
604.0063411833537
 21
538.297799168069
 31
0.0
  0
LINE
  5
2F9
330
1F
100
AcDbEntity
  8
3
100
AcDbLine
 10
718.6354995614189
 20
559.533244692791
 30
0.0
 11
718.6354995614189
 21
538.297799168069
 31
0.0
  0
LINE
  5
2FA
330
1F
100
AcDbEntity
  8
3
100
AcDbLine
 10
730.0984153992258
 20
559.533244692791
 30
0.0
 11
730.0984153992258
 21
538.297799168069
 31
0.0
  0
LINE
  5
2FB
330
1F
100
AcDbEntity
  8
3
100
AcDbLine
 10
753.0242470748333
 20
559.533244692791
 30
0.0
 11
753.0242470748333
 21
538.297799168069
 31
0.0
  0
LINE
  5
2FC
330
1F
100
AcDbEntity
  8
3
100
AcDbLine
 10
741.5613312370258
 20
559.533244692791
 30
0.0
 11
741.5613312370258
 21
538.297799168069
 31
0.0
  0
LINE
  5
2FD
330
1F
100
AcDbEntity
  8
3
100
AcDbLine
 10
764.4871629126405
 20
559.533244692791
 30
0.0
 11
764.4871629126405
 21
538.297799168069
 31
0.0
  0
LINE
  5
2FE
330
1F
100
AcDbEntity
  8
3
100
AcDbLine
 10
764.4871629126405
 20
559.533244692791
 30
0.0
 11
764.4871629126405
 21
517.0623536433453
 31
0.0
  0
LINE
  5
2FF
330
1F
100
AcDbEntity
  8
3
100
AcDbLine
 10
707.1725837236115
 20
559.533244692791
 30
0.0
 11
707.1725837236115
 21
527.6800764057062
 31
0.0
  0
LINE
  5
300
330
1F
100
AcDbEntity
  8
3
100
AcDbLine
 10
707.1725837236115
 20
559.533244692791
 30
0.0
 11
707.1725837236115
 21
538.297799168069
 31
0.0
  0
LINE
  5
301
330
1F
100
AcDbEntity
  8
3
100
AcDbLine
 10
684.2467520479972
 20
559.533244692791
 30
0.0
 11
684.2467520479972
 21
538.297799168069
 31
0.0
  0
LINE
  5
302
330
1F
100
AcDbEntity
  8
3
100
AcDbLine
 10
695.7096678858042
 20
559.533244692791
 30
0.0
 11
695.7096678858042
 21
538.297799168069
 31
0.0
  0
LINE
  5
303
330
1F
100
AcDbEntity
  8
3
100
AcDbLine
 10
672.7838362101898
 20
559.533244692791
 30
0.0
 11
672.7838362101898
 21
538.297799168069
 31
0.0
  0
LINE
  5
304
330
1F
100
AcDbEntity
  8
3
100
AcDbLine
 10
661.3209203723824
 20
559.533244692791
 30
0.0
 11
661.3209203723824
 21
538.297799168069
 31
0.0
  0
LINE
  5
305
330
1F
100
AcDbEntity
  8
3
100
AcDbLine
 10
833.2646579394763
 20
559.533244692791
 30
0.0
 11
833.2646579394763
 21
538.297799168069
 31
0.0
  0
LINE
  5
306
330
1F
100
AcDbEntity
  8
3
100
AcDbLine
 10
821.8017421016691
 20
559.533244692791
 30
0.0
 11
821.8017421016691
 21
527.6800764057062
 31
0.0
  0
LINE
  5
307
330
1F
100
AcDbEntity
  8
3
100
AcDbLine
 10
821.8017421016691
 20
559.533244692791
 30
0.0
 11
821.8017421016691
 21
538.297799168069
 31
0.0
  0
LINE
  5
308
330
1F
100
AcDbEntity
  8
3
100
AcDbLine
 10
798.8759104260621
 20
559.533244692791
 30
0.0
 11
798.8759104260621
 21
538.297799168069
 31
0.0
  0
LINE
  5
309
330
1F
100
AcDbEntity
  8
3
100
AcDbLine
 10
810.3388262638695
 20
559.533244692791
 30
0.0
 11
810.3388262638695
 21
538.297799168069
 31
0.0
  0
LINE
  5
30A
330
1F
100
AcDbEntity
  8
3
100
AcDbLine
 10
787.4129945882548
 20
559.533244692791
 30
0.0
 11
787.4129945882548
 21
538.297799168069
 31
0.0
  0
LINE
  5
30B
330
1F
100
AcDbEntity
  8
3
100
AcDbLine
 10
775.9500787504475
 20
559.533244692791
 30
0.0
 11
775.9500787504475
 21
538.297799168069
 31
0.0
  0
LINE
  5
30C
330
1F
100
AcDbEntity
  8
3
100
AcDbLine
 10
317.4849922453644
 20
559.533244692791
 30
0.0
 11
317.4849922453644
 21
538.2977991680673
 31
0.0
  0
LINE
  5
30D
330
1F
100
AcDbEntity
  8
3
100
AcDbLine
 10
328.9479080831717
 20
559.533244692791
 30
0.0
 11
328.9479080831717
 21
538.2977991680673
 31
0.0
  0
LINE
  5
30E
330
1F
100
AcDbEntity
  8
3
100
AcDbLine
 10
351.8737397587861
 20
559.533244692791
 30
0.0
 11
351.8737397587861
 21
538.2977991680673
 31
0.0
  0
LINE
  5
30F
330
1F
100
AcDbEntity
  8
3
100
AcDbLine
 10
340.4108239209789
 20
559.533244692791
 30
0.0
 11
340.4108239209789
 21
538.2977991680673
 31
0.0
  0
LINE
  5
310
330
1F
100
AcDbEntity
  8
3
100
AcDbLine
 10
363.3366555965933
 20
559.533244692791
 30
0.0
 11
363.3366555965933
 21
538.2977991680673
 31
0.0
  0
LINE
  5
311
330
1F
100
AcDbEntity
  8
3
100
AcDbLine
 10
363.3366555965933
 20
559.533244692791
 30
0.0
 11
363.3366555965933
 21
527.6800764057062
 31
0.0
  0
LINE
  5
312
330
1F
100
AcDbEntity
  8
3
100
AcDbLine
 10
420.6512347856221
 20
559.533244692791
 30
0.0
 11
420.6512347856221
 21
517.0623536433453
 31
0.0
  0
LINE
  5
313
330
1F
100
AcDbEntity
  8
3
100
AcDbLine
 10
420.6512347856221
 20
559.533244692791
 30
0.0
 11
420.6512347856221
 21
538.2977991680673
 31
0.0
  0
LINE
  5
314
330
1F
100
AcDbEntity
  8
3
100
AcDbLine
 10
397.7254031100077
 20
559.533244692791
 30
0.0
 11
397.7254031100077
 21
538.2977991680673
 31
0.0
  0
LINE
  5
315
330
1F
100
AcDbEntity
  8
3
100
AcDbLine
 10
409.1883189478147
 20
559.533244692791
 30
0.0
 11
409.1883189478147
 21
538.2977991680673
 31
0.0
  0
LINE
  5
316
330
1F
100
AcDbEntity
  8
3
100
AcDbLine
 10
386.2624872722005
 20
559.533244692791
 30
0.0
 11
386.2624872722005
 21
538.2977991680673
 31
0.0
  0
LINE
  5
317
330
1F
100
AcDbEntity
  8
3
100
AcDbLine
 10
374.7995714343931
 20
559.533244692791
 30
0.0
 11
374.7995714343931
 21
538.2977991680673
 31
0.0
  0
LINE
  5
318
330
1F
100
AcDbEntity
  8
3
100
AcDbLine
 10
489.4287298124582
 20
559.533244692791
 30
0.0
 11
489.4287298124582
 21
538.2977991680673
 31
0.0
  0
LINE
  5
319
330
1F
100
AcDbEntity
  8
3
100
AcDbLine
 10
500.8916456502653
 20
559.533244692791
 30
0.0
 11
500.8916456502653
 21
538.2977991680673
 31
0.0
  0
LINE
  5
31A
330
1F
100
AcDbEntity
  8
3
100
AcDbLine
 10
523.8174773258797
 20
559.533244692791
 30
0.0
 11
523.8174773258797
 21
538.2977991680673
 31
0.0
  0
LINE
  5
31B
330
1F
100
AcDbEntity
  8
3
100
AcDbLine
 10
512.3545614880725
 20
559.533244692791
 30
0.0
 11
512.3545614880725
 21
538.2977991680673
 31
0.0
  0
LINE
  5
31C
330
1F
100
AcDbEntity
  8
3
100
AcDbLine
 10
535.2803931636869
 20
559.533244692791
 30
0.0
 11
535.2803931636869
 21
538.2977991680673
 31
0.0
  0
LINE
  5
31D
330
1F
100
AcDbEntity
  8
3
100
AcDbLine
 10
535.2803931636869
 20
559.533244692791
 30
0.0
 11
535.2803931636869
 21
517.0623536433453
 31
0.0
  0
LINE
  5
31E
330
1F
100
AcDbEntity
  8
3
100
AcDbLine
 10
477.9658139746582
 20
559.533244692791
 30
0.0
 11
477.9658139746582
 21
527.6800764057062
 31
0.0
  0
LINE
  5
31F
330
1F
100
AcDbEntity
  8
3
100
AcDbLine
 10
477.9658139746582
 20
559.533244692791
 30
0.0
 11
477.9658139746582
 21
538.2977991680673
 31
0.0
  0
LINE
  5
320
330
1F
100
AcDbEntity
  8
3
100
AcDbLine
 10
455.0399822990438
 20
559.533244692791
 30
0.0
 11
455.0399822990438
 21
538.2977991680673
 31
0.0
  0
LINE
  5
321
330
1F
100
AcDbEntity
  8
3
100
AcDbLine
 10
466.502898136851
 20
559.533244692791
 30
0.0
 11
466.502898136851
 21
538.2977991680673
 31
0.0
  0
LINE
  5
322
330
1F
100
AcDbEntity
  8
3
100
AcDbLine
 10
443.5770664612365
 20
559.533244692791
 30
0.0
 11
443.5770664612365
 21
538.2977991680673
 31
0.0
  0
LINE
  5
323
330
1F
100
AcDbEntity
  8
3
100
AcDbLine
 10
432.1141506234293
 20
559.533244692791
 30
0.0
 11
432.1141506234293
 21
538.2977991680673
 31
0.0
  0
LINE
  5
324
330
1F
100
AcDbEntity
  8
3
100
AcDbLine
 10
202.8558338672993
 20
559.533244692791
 30
0.0
 11
202.8558338672993
 21
538.2977991680673
 31
0.0
  0
LINE
  5
325
330
1F
100
AcDbEntity
  8
3
100
AcDbLine
 10
214.3187497051067
 20
559.533244692791
 30
0.0
 11
214.3187497051067
 21
538.2977991680673
 31
0.0
  0
LINE
  5
326
330
1F
100
AcDbEntity
  8
3
100
AcDbLine
 10
237.2445813807211
 20
559.533244692791
 30
0.0
 11
237.2445813807211
 21
538.2977991680673
 31
0.0
  0
LINE
  5
327
330
1F
100
AcDbEntity
  8
3
100
AcDbLine
 10
225.7816655429138
 20
559.533244692791
 30
0.0
 11
225.7816655429138
 21
538.2977991680673
 31
0.0
  0
LINE
  5
328
330
1F
100
AcDbEntity
  8
3
100
AcDbLine
 10
248.7074972185284
 20
559.533244692791
 30
0.0
 11
248.7074972185284
 21
538.2977991680673
 31
0.0
  0
LINE
  5
329
330
1F
100
AcDbEntity
  8
3
100
AcDbLine
 10
248.7074972185284
 20
559.533244692791
 30
0.0
 11
248.7074972185284
 21
527.6800764057062
 31
0.0
  0
LINE
  5
32A
330
1F
100
AcDbEntity
  8
3
100
AcDbLine
 10
306.0220764075645
 20
559.533244692791
 30
0.0
 11
306.0220764075645
 21
517.0623536433453
 31
0.0
  0
LINE
  5
32B
330
1F
100
AcDbEntity
  8
3
100
AcDbLine
 10
306.0220764075645
 20
559.533244692791
 30
0.0
 11
306.0220764075645
 21
538.2977991680673
 31
0.0
  0
LINE
  5
32C
330
1F
100
AcDbEntity
  8
3
100
AcDbLine
 10
283.09624473195
 20
559.533244692791
 30
0.0
 11
283.09624473195
 21
538.2977991680673
 31
0.0
  0
LINE
  5
32D
330
1F
100
AcDbEntity
  8
3
100
AcDbLine
 10
294.5591605697574
 20
559.533244692791
 30
0.0
 11
294.5591605697574
 21
538.2977991680673
 31
0.0
  0
LINE
  5
32E
330
1F
100
AcDbEntity
  8
3
100
AcDbLine
 10
271.6333288941427
 20
559.533244692791
 30
0.0
 11
271.6333288941427
 21
538.2977991680673
 31
0.0
  0
LINE
  5
32F
330
1F
100
AcDbEntity
  8
3
100
AcDbLine
 10
260.1704130563356
 20
559.533244692791
 30
0.0
 11
260.1704130563356
 21
538.2977991680673
 31
0.0
  0
LINE
  5
330
330
1F
100
AcDbEntity
  8
3
100
AcDbLine
 10
145.5412546782706
 20
559.533244692791
 30
0.0
 11
145.5412546782706
 21
538.2977991680673
 31
0.0
  0
LINE
  5
331
330
1F
100
AcDbEntity
  8
3
100
AcDbLine
 10
157.0041705160778
 20
559.533244692791
 30
0.0
 11
157.0041705160778
 21
538.2977991680673
 31
0.0
  0
LINE
  5
332
330
1F
100
AcDbEntity
  8
3
100
AcDbLine
 10
179.9300021916849
 20
559.533244692791
 30
0.0
 11
179.9300021916849
 21
538.2977991680673
 31
0.0
  0
LINE
  5
333
330
1F
100
AcDbEntity
  8
3
100
AcDbLine
 10
168.4670863538775
 20
559.533244692791
 30
0.0
 11
168.4670863538775
 21
538.2977991680673
 31
0.0
  0
LINE
  5
334
330
1F
100
AcDbEntity
  8
3
100
AcDbLine
 10
191.3929180294922
 20
559.533244692791
 30
0.0
 11
191.3929180294922
 21
538.2977991680673
 31
0.0
  0
LINE
  5
335
330
1F
100
AcDbEntity
  8
3
100
AcDbLine
 10
191.3929180294922
 20
559.533244692791
 30
0.0
 11
191.3929180294922
 21
517.0623536433453
 31
0.0
  0
LINE
  5
336
330
1F
100
AcDbEntity
  8
3
100
AcDbLine
 10
134.0783388404634
 20
559.533244692791
 30
0.0
 11
134.0783388404634
 21
527.6800764057062
 31
0.0
  0
LINE
  5
337
330
1F
100
AcDbEntity
  8
3
100
AcDbLine
 10
134.0783388404634
 20
559.533244692791
 30
0.0
 11
134.0783388404634
 21
538.2977991680673
 31
0.0
  0
LINE
  5
338
330
1F
100
AcDbEntity
  8
3
100
AcDbLine
 10
111.1525071648488
 20
559.533244692791
 30
0.0
 11
111.1525071648488
 21
538.2977991680673
 31
0.0
  0
LINE
  5
339
330
1F
100
AcDbEntity
  8
3
100
AcDbLine
 10
122.6154230026561
 20
559.533244692791
 30
0.0
 11
122.6154230026561
 21
538.2977991680673
 31
0.0
  0
LINE
  5
33A
330
1F
100
AcDbEntity
  8
3
100
AcDbLine
 10
99.68959132704164
 20
559.533244692791
 30
0.0
 11
99.68959132704164
 21
538.2977991680673
 31
0.0
  0
LINE
  5
33B
330
1F
100
AcDbEntity
  8
3
100
AcDbLine
 10
88.22667548924181
 20
559.533244692791
 30
0.0
 11
88.22667548924181
 21
538.2977991680673
 31
0.0
  0
LINE
  5
33C
330
1F
100
AcDbEntity
  8
3
100
AcDbLine
 10
76.76375965143455
 20
559.533244692791
 30
0.0
 11
76.76375965143455
 21
517.0623536433453
 31
0.0
  0
LWPOLYLINE
  5
33D
330
1F
100
AcDbEntity
  8
3
100
AcDbPolyline
 90
        4
 70
     1
 43
0.0
 10
51.76731355157998
 20
559.533244692791
 10
950.3887382545777
 20
559.533244692791
 10
950.3887382545777
 20
440.49239756199
 10
51.76731355157998
 20
440.49239756199
  0
ENDSEC
  0
SECTION
  2
OBJECTS
  0
DICTIONARY
  5
C
330
0
100
AcDbDictionary
281
     1
  3
ACAD_COLOR
350
6B
  3
ACAD_GROUP
350
D
  3
ACAD_LAYOUT
350
1A
  3
ACAD_MATERIAL
350
6A
  3
ACAD_MLINESTYLE
350
17
  3
ACAD_PLOTSETTINGS
350
19
  3
ACAD_PLOTSTYLENAME
350
E
  3
ACDBHEADERROUNDTRIPXREC
350
35E
  3
AcDbVariableDictionary
350
5E
  0
DICTIONARY
  5
6B
102
{ACAD_REACTORS
330
C
102
}
330
C
100
AcDbDictionary
281
     1
  0
DICTIONARY
  5
D
102
{ACAD_REACTORS
330
C
102
}
330
C
100
AcDbDictionary
281
     1
  0
DICTIONARY
  5
1A
102
{ACAD_REACTORS
330
C
102
}
330
C
100
AcDbDictionary
281
     1
  3
Layout1
350
51
  3
Layout2
350
56
  3
Model
350
22
  0
DICTIONARY
  5
6A
102
{ACAD_REACTORS
330
C
102
}
330
C
100
AcDbDictionary
281
     1
  0
DICTIONARY
  5
17
102
{ACAD_REACTORS
330
C
102
}
330
C
100
AcDbDictionary
281
     1
  3
Standard
350
18
  0
DICTIONARY
  5
19
102
{ACAD_REACTORS
330
C
102
}
330
C
100
AcDbDictionary
281
     1
  0
ACDBDICTIONARYWDFLT
  5
E
102
{ACAD_REACTORS
330
C
102
}
330
C
100
AcDbDictionary
281
     1
  3
Normal
350
F
100
AcDbDictionaryWithDefault
340
F
  0
DICTIONARY
  5
35E
102
{ACAD_REACTORS
330
C
102
}
330
C
100
AcDbDictionary
281
     1
  3
COLORDICT
350
360
  3
MATERIALDICT
350
35F
  0
DICTIONARY
  5
5E
102
{ACAD_REACTORS
330
C
102
}
330
C
100
AcDbDictionary
281
     1
  3
DIMASSOC
350
5F
  3
HIDETEXT
350
63
  3
PROJECTNAME
350
85
  0
LAYOUT
  5
51
102
{ACAD_XDICTIONARY
360
363
102
}
102
{ACAD_REACTORS
330
1A
102
}
330
1A
100
AcDbPlotSettings
  1

  2
None
  4

  6

 40
0.0
 41
0.0
 42
0.0
 43
0.0
 44
0.0
 45
0.0
 46
0.0
 47
0.0
 48
0.0
 49
0.0
140
0.0
141
0.0
142
1.0
143
1.0
 70
   688
 72
     0
 73
     0
 74
     5
  7

 75
    16
147
1.0
148
0.0
149
0.0
100
AcDbLayout
  1
Layout1
 70
     1
 71
     1
 10
0.0
 20
0.0
 11
12.0
 21
9.0
 12
0.0
 22
0.0
 32
0.0
 14
0.0
 24
0.0
 34
0.0
 15
0.0
 25
0.0
 35
0.0
146
0.0
 13
0.0
 23
0.0
 33
0.0
 16
1.0
 26
0.0
 36
0.0
 17
0.0
 27
1.0
 37
0.0
 76
     0
330
50
  0
LAYOUT
  5
56
102
{ACAD_XDICTIONARY
360
365
102
}
102
{ACAD_REACTORS
330
1A
102
}
330
1A
100
AcDbPlotSettings
  1

  2
None
  4

  6

 40
0.0
 41
0.0
 42
0.0
 43
0.0
 44
0.0
 45
0.0
 46
0.0
 47
0.0
 48
0.0
 49
0.0
140
0.0
141
0.0
142
1.0
143
1.0
 70
   688
 72
     0
 73
     0
 74
     5
  7

 75
    16
147
1.0
148
0.0
149
0.0
100
AcDbLayout
  1
Layout2
 70
     1
 71
     2
 10
0.0
 20
0.0
 11
12.0
 21
9.0
 12
0.0
 22
0.0
 32
0.0
 14
0.0
 24
0.0
 34
0.0
 15
0.0
 25
0.0
 35
0.0
146
0.0
 13
0.0
 23
0.0
 33
0.0
 16
1.0
 26
0.0
 36
0.0
 17
0.0
 27
1.0
 37
0.0
 76
     0
330
55
  0
LAYOUT
  5
22
102
{ACAD_XDICTIONARY
360
361
102
}
102
{ACAD_REACTORS
330
1A
102
}
330
1A
100
AcDbPlotSettings
  1

  2
none_device
  4
ANSI_A_(8.50_x_11.00_Inches)
  6

 40
6.349999904632567
 41
19.04999923706055
 42
6.350006103515625
 43
19.04998779296875
 44
215.8999938964844
 45
279.3999938964844
 46
0.0
 47
0.0
 48
0.0
 49
0.0
140
0.0
141
0.0
142
1.0
143
78.436453180766
 70
 11952
 72
     0
 73
     1
 74
     0
  7

 75
     0
147
0.0127491741332998
148
0.0
149
0.0
100
AcDbLayout
  1
Model
 70
     1
 71
     0
 10
0.0
 20
0.0
 11
12.0
 21
9.0
 12
0.0
 22
0.0
 32
0.0
 14
0.0
 24
0.0
 34
0.0
 15
0.0
 25
0.0
 35
0.0
146
0.0
 13
0.0
 23
0.0
 33
0.0
 16
1.0
 26
0.0
 36
0.0
 17
0.0
 27
1.0
 37
0.0
 76
     0
330
1F
  0
MLINESTYLE
  5
18
102
{ACAD_REACTORS
330
17
102
}
330
17
100
AcDbMlineStyle
  2
STANDARD
 70
     0
  3

 62
   256
 51
90.0
 52
90.0
 71
     2
 49
0.5
 62
   256
  6
BYLAYER
 49
-0.5
 62
   256
  6
BYLAYER
  0
ACDBPLACEHOLDER
  5
F
102
{ACAD_REACTORS
330
E
102
}
330
E
  0
XRECORD
  5
360
102
{ACAD_REACTORS
330
35E
102
}
330
35E
100
AcDbXrecord
280
     1
340
6B
  0
XRECORD
  5
35F
102
{ACAD_REACTORS
330
35E
102
}
330
35E
100
AcDbXrecord
280
     1
340
6A
  0
DICTIONARYVAR
  5
5F
102
{ACAD_REACTORS
330
5E
102
}
330
5E
100
DictionaryVariables
280
     0
  1
2
  0
DICTIONARYVAR
  5
63
102
{ACAD_REACTORS
330
5E
102
}
330
5E
100
DictionaryVariables
280
     0
  1
1
  0
DICTIONARYVAR
  5
85
102
{ACAD_REACTORS
330
5E
102
}
330
5E
100
DictionaryVariables
280
     0
  1

  0
DICTIONARY
  5
363
330
51
100
AcDbDictionary
280
     1
281
     1
  3
ACAD_XREC_ROUNDTRIP
360
364
  0
DICTIONARY
  5
365
330
56
100
AcDbDictionary
280
     1
281
     1
  3
ACAD_XREC_ROUNDTRIP
360
366
  0
DICTIONARY
  5
361
330
22
100
AcDbDictionary
280
     1
281
     1
  3
ACAD_XREC_ROUNDTRIP
360
362
  0
XRECORD
  5
364
102
{ACAD_REACTORS
330
363
102
}
330
363
100
AcDbXrecord
280
     1
102
SHADEPLOT
 70
     0
102
SHADEPLOTRESLEVEL
 70
     2
102
SHADEPLOTCUSTOMDPI
 70
   300
  0
XRECORD
  5
366
102
{ACAD_REACTORS
330
365
102
}
330
365
100
AcDbXrecord
280
     1
102
SHADEPLOT
 70
     0
102
SHADEPLOTRESLEVEL
 70
     2
102
SHADEPLOTCUSTOMDPI
 70
   300
  0
XRECORD
  5
362
102
{ACAD_REACTORS
330
361
102
}
330
361
100
AcDbXrecord
280
     1
102
SHADEPLOT
 70
     0
102
SHADEPLOTRESLEVEL
 70
     2
102
SHADEPLOTCUSTOMDPI
 70
   300
  0
ENDSEC
  0
EOF
