  0
SECTION
  2
HEADER
  9
$ACADVER
  1
AC1015
  9
$ACADMAINTVER
 70
    20
  9
$DWGCODEPAGE
  3
ANSI_936
  9
$INSBASE
 10
0.0
 20
0.0
 30
0.0
  9
$EXTMIN
 10
0.0
 20
0.0
 30
0.0
  9
$EXTMAX
 10
1000.0
 20
1152.527467054198
 30
0.0
  9
$LIMMIN
 10
0.0
 20
0.0
  9
$LIMMAX
 10
420.0
 20
297.0
  9
$ORTHOMODE
 70
     0
  9
$REGENMODE
 70
     1
  9
$FILLMODE
 70
     1
  9
$QTEXTMODE
 70
     0
  9
$MIRRTEXT
 70
     0
  9
$LTSCALE
 40
1.0
  9
$ATTMODE
 70
     1
  9
$TEXTSIZE
 40
2.5
  9
$TRACEWID
 40
1.0
  9
$TEXTSTYLE
  7
Standard
  9
$CLAYER
  8
2
  9
$CELTYPE
  6
ByLayer
  9
$CECOLOR
 62
   256
  9
$CELTSCALE
 40
1.0
  9
$DISPSILH
 70
     0
  9
$DIMSCALE
 40
1.0
  9
$DIMASZ
 40
2.5
  9
$DIMEXO
 40
0.625
  9
$DIMDLI
 40
3.75
  9
$DIMRND
 40
0.0
  9
$DIMDLE
 40
0.0
  9
$DIMEXE
 40
1.25
  9
$DIMTP
 40
0.0
  9
$DIMTM
 40
0.0
  9
$DIMTXT
 40
2.5
  9
$DIMCEN
 40
2.5
  9
$DIMTSZ
 40
0.0
  9
$DIMTOL
 70
     0
  9
$DIMLIM
 70
     0
  9
$DIMTIH
 70
     0
  9
$DIMTOH
 70
     0
  9
$DIMSE1
 70
     0
  9
$DIMSE2
 70
     0
  9
$DIMTAD
 70
     1
  9
$DIMZIN
 70
     8
  9
$DIMBLK
  1

  9
$DIMASO
 70
     1
  9
$DIMSHO
 70
     1
  9
$DIMPOST
  1

  9
$DIMAPOST
  1

  9
$DIMALT
 70
     0
  9
$DIMALTD
 70
     3
  9
$DIMALTF
 40
0.03937007874016
  9
$DIMLFAC
 40
1.0
  9
$DIMTOFL
 70
     1
  9
$DIMTVP
 40
0.0
  9
$DIMTIX
 70
     0
  9
$DIMSOXD
 70
     0
  9
$DIMSAH
 70
     0
  9
$DIMBLK1
  1

  9
$DIMBLK2
  1

  9
$DIMSTYLE
  2
ISO-25
  9
$DIMCLRD
 70
     0
  9
$DIMCLRE
 70
     0
  9
$DIMCLRT
 70
     0
  9
$DIMTFAC
 40
1.0
  9
$DIMGAP
 40
0.625
  9
$DIMJUST
 70
     0
  9
$DIMSD1
 70
     0
  9
$DIMSD2
 70
     0
  9
$DIMTOLJ
 70
     0
  9
$DIMTZIN
 70
     8
  9
$DIMALTZ
 70
     0
  9
$DIMALTTZ
 70
     0
  9
$DIMUPT
 70
     0
  9
$DIMDEC
 70
     2
  9
$DIMTDEC
 70
     2
  9
$DIMALTU
 70
     2
  9
$DIMALTTD
 70
     3
  9
$DIMTXSTY
  7
Standard
  9
$DIMAUNIT
 70
     0
  9
$DIMADEC
 70
     0
  9
$DIMALTRND
 40
0.0
  9
$DIMAZIN
 70
     0
  9
$DIMDSEP
 70
    44
  9
$DIMATFIT
 70
     3
  9
$DIMFRAC
 70
     0
  9
$DIMLDRBLK
  1

  9
$DIMLUNIT
 70
     2
  9
$DIMLWD
 70
    -2
  9
$DIMLWE
 70
    -2
  9
$DIMTMOVE
 70
     0
  9
$LUNITS
 70
     2
  9
$LUPREC
 70
     4
  9
$SKETCHINC
 40
1.0
  9
$FILLETRAD
 40
0.0
  9
$AUNITS
 70
     0
  9
$AUPREC
 70
     0
  9
$MENU
  1
.
  9
$ELEVATION
 40
0.0
  9
$PELEVATION
 40
0.0
  9
$THICKNESS
 40
0.0
  9
$LIMCHECK
 70
     0
  9
$CHAMFERA
 40
0.0
  9
$CHAMFERB
 40
0.0
  9
$CHAMFERC
 40
0.0
  9
$CHAMFERD
 40
0.0
  9
$SKPOLY
 70
     0
  9
$TDCREATE
 40
2455505.725807523
  9
$TDUCREATE
 40
2455505.392474190
  9
$TDUPDATE
 40
2457094.917604259
  9
$TDUUPDATE
 40
2457094.584270926
  9
$TDINDWG
 40
0.0893462500
  9
$TDUSRTIMER
 40
0.0893457292
  9
$USRTIMER
 70
     1
  9
$ANGBASE
 50
0.0
  9
$ANGDIR
 70
     0
  9
$PDMODE
 70
     0
  9
$PDSIZE
 40
0.0
  9
$PLINEWID
 40
0.0
  9
$SPLFRAME
 70
     0
  9
$SPLINETYPE
 70
     6
  9
$SPLINESEGS
 70
     8
  9
$HANDSEED
  5
4E1
  9
$SURFTAB1
 70
     6
  9
$SURFTAB2
 70
     6
  9
$SURFTYPE
 70
     6
  9
$SURFU
 70
     6
  9
$SURFV
 70
     6
  9
$UCSBASE
  2

  9
$UCSNAME
  2

  9
$UCSORG
 10
0.0
 20
0.0
 30
0.0
  9
$UCSXDIR
 10
1.0
 20
0.0
 30
0.0
  9
$UCSYDIR
 10
0.0
 20
1.0
 30
0.0
  9
$UCSORTHOREF
  2

  9
$UCSORTHOVIEW
 70
     0
  9
$UCSORGTOP
 10
0.0
 20
0.0
 30
0.0
  9
$UCSORGBOTTOM
 10
0.0
 20
0.0
 30
0.0
  9
$UCSORGLEFT
 10
0.0
 20
0.0
 30
0.0
  9
$UCSORGRIGHT
 10
0.0
 20
0.0
 30
0.0
  9
$UCSORGFRONT
 10
0.0
 20
0.0
 30
0.0
  9
$UCSORGBACK
 10
0.0
 20
0.0
 30
0.0
  9
$PUCSBASE
  2

  9
$PUCSNAME
  2

  9
$PUCSORG
 10
0.0
 20
0.0
 30
0.0
  9
$PUCSXDIR
 10
1.0
 20
0.0
 30
0.0
  9
$PUCSYDIR
 10
0.0
 20
1.0
 30
0.0
  9
$PUCSORTHOREF
  2

  9
$PUCSORTHOVIEW
 70
     0
  9
$PUCSORGTOP
 10
0.0
 20
0.0
 30
0.0
  9
$PUCSORGBOTTOM
 10
0.0
 20
0.0
 30
0.0
  9
$PUCSORGLEFT
 10
0.0
 20
0.0
 30
0.0
  9
$PUCSORGRIGHT
 10
0.0
 20
0.0
 30
0.0
  9
$PUCSORGFRONT
 10
0.0
 20
0.0
 30
0.0
  9
$PUCSORGBACK
 10
0.0
 20
0.0
 30
0.0
  9
$USERI1
 70
     0
  9
$USERI2
 70
     0
  9
$USERI3
 70
     0
  9
$USERI4
 70
     0
  9
$USERI5
 70
     0
  9
$USERR1
 40
0.0
  9
$USERR2
 40
0.0
  9
$USERR3
 40
0.0
  9
$USERR4
 40
0.0
  9
$USERR5
 40
0.0
  9
$WORLDVIEW
 70
     1
  9
$SHADEDGE
 70
     3
  9
$SHADEDIF
 70
    70
  9
$TILEMODE
 70
     1
  9
$MAXACTVP
 70
    64
  9
$PINSBASE
 10
0.0
 20
0.0
 30
0.0
  9
$PLIMCHECK
 70
     0
  9
$PEXTMIN
 10
0.0
 20
0.0
 30
0.0
  9
$PEXTMAX
 10
0.0
 20
0.0
 30
0.0
  9
$PLIMMIN
 10
0.0
 20
0.0
  9
$PLIMMAX
 10
12.0
 20
9.0
  9
$UNITMODE
 70
     0
  9
$VISRETAIN
 70
     1
  9
$PLINEGEN
 70
     0
  9
$PSLTSCALE
 70
     1
  9
$TREEDEPTH
 70
  3020
  9
$CMLSTYLE
  2
Standard
  9
$CMLJUST
 70
     0
  9
$CMLSCALE
 40
20.0
  9
$PROXYGRAPHICS
 70
     1
  9
$MEASUREMENT
 70
     1
  9
$CELWEIGHT
370
    -1
  9
$ENDCAPS
280
     0
  9
$JOINSTYLE
280
     0
  9
$LWDISPLAY
290
     0
  9
$INSUNITS
 70
     4
  9
$HYPERLINKBASE
  1

  9
$STYLESHEET
  1

  9
$XEDIT
290
     1
  9
$CEPSNTYPE
380
     0
  9
$PSTYLEMODE
290
     1
  9
$FINGERPRINTGUID
  2
{FDEAD578-A652-11D2-9A35-0060089B3A3F}
  9
$VERSIONGUID
  2
{E007B208-8E6F-4402-9D1F-5DECE9C23062}
  9
$EXTNAMES
290
     1
  9
$PSVPSCALE
 40
0.0
  9
$OLESTARTUP
290
     0
  0
ENDSEC
  0
SECTION
  2
CLASSES
  0
CLASS
  1
ACDBDICTIONARYWDFLT
  2
AcDbDictionaryWithDefault
  3
ObjectDBX Classes
 90
        0
280
     0
281
     0
  0
CLASS
  1
ACDBPLACEHOLDER
  2
AcDbPlaceHolder
  3
ObjectDBX Classes
 90
        0
280
     0
281
     0
  0
CLASS
  1
LAYOUT
  2
AcDbLayout
  3
ObjectDBX Classes
 90
        0
280
     0
281
     0
  0
CLASS
  1
DICTIONARYVAR
  2
AcDbDictionaryVar
  3
ObjectDBX Classes
 90
        0
280
     0
281
     0
  0
CLASS
  1
MATERIAL
  2
AcDbMaterial
  3
ObjectDBX Classes
 90
        0
280
     0
281
     0
  0
CLASS
  1
SORTENTSTABLE
  2
AcDbSortentsTable
  3
ObjectDBX Classes
 90
        0
280
     0
281
     0
  0
ENDSEC
  0
SECTION
  2
TABLES
  0
TABLE
  2
VPORT
  5
8
330
0
100
AcDbSymbolTable
 70
     3
  0
VPORT
  5
4D7
330
8
100
AcDbSymbolTableRecord
100
AcDbViewportTableRecord
  2
*Active
 70
     0
 10
0.0
 20
0.0
 11
1.0
 21
1.0
 12
362.3703826895217
 22
533.1302170616427
 13
0.0
 23
0.0
 14
10.0
 24
10.0
 15
10.0
 25
10.0
 16
0.0
 26
0.0
 36
1.0
 17
0.0
 27
0.0
 37
0.0
 40
1066.730866315838
 41
1.975095785440613
 42
50.0
 43
0.0
 44
0.0
 50
0.0
 51
0.0
 71
     0
 72
  1000
 73
     1
 74
     3
 75
     0
 76
     0
 77
     0
 78
     0
281
     0
 65
     1
110
0.0
120
0.0
130
0.0
111
1.0
121
0.0
131
0.0
112
0.0
122
1.0
132
0.0
 79
     0
146
0.0
  0
ENDTAB
  0
TABLE
  2
LTYPE
  5
5
330
0
100
AcDbSymbolTable
 70
     3
  0
LTYPE
  5
14
330
5
100
AcDbSymbolTableRecord
100
AcDbLinetypeTableRecord
  2
ByBlock
 70
     0
  3

 72
    65
 73
     0
 40
0.0
  0
LTYPE
  5
15
330
5
100
AcDbSymbolTableRecord
100
AcDbLinetypeTableRecord
  2
ByLayer
 70
     0
  3

 72
    65
 73
     0
 40
0.0
  0
LTYPE
  5
16
330
5
100
AcDbSymbolTableRecord
100
AcDbLinetypeTableRecord
  2
Continuous
 70
     0
  3
Solid line
 72
    65
 73
     0
 40
0.0
  0
LTYPE
  5
3AF
330
5
100
AcDbSymbolTableRecord
100
AcDbLinetypeTableRecord
  2
ACAD_ISO03W100
 70
     0
  3
ISO dash space __    __    __    __    __    __
 72
    65
 73
     2
 40
30.0
 49
12.0
 74
     0
 49
-18.0
 74
     0
  0
LTYPE
  5
410
330
5
100
AcDbSymbolTableRecord
100
AcDbLinetypeTableRecord
  2
ACAD_ISO10W100
 70
     0
  3
ISO dash dot __ . __ . __ . __ . __ . __ . __ .
 72
    65
 73
     4
 40
18.0
 49
12.0
 74
     0
 49
-3.0
 74
     0
 49
0.0
 74
     0
 49
-3.0
 74
     0
  0
ENDTAB
  0
TABLE
  2
LAYER
  5
2
330
0
100
AcDbSymbolTable
 70
     4
  0
LAYER
  5
10
330
2
100
AcDbSymbolTableRecord
100
AcDbLayerTableRecord
  2
0
 70
     0
 62
     2
  6
Continuous
370
    -3
390
F
  0
LAYER
  5
94
330
2
100
AcDbSymbolTableRecord
100
AcDbLayerTableRecord
  2
1
 70
     0
 62
     1
  6
Continuous
370
    -3
390
F
  0
LAYER
  5
95
330
2
100
AcDbSymbolTableRecord
100
AcDbLayerTableRecord
  2
2
 70
     0
 62
     7
  6
Continuous
370
    -3
390
F
  0
LAYER
  5
177
102
{ACAD_XDICTIONARY
360
178
102
}
330
2
100
AcDbSymbolTableRecord
100
AcDbLayerTableRecord
  2
3
 70
     0
 62
     7
  6
Continuous
370
    -3
390
F
  0
ENDTAB
  0
TABLE
  2
STYLE
  5
3
330
0
100
AcDbSymbolTable
 70
     1
  0
STYLE
  5
11
330
3
100
AcDbSymbolTableRecord
100
AcDbTextStyleTableRecord
  2
Standard
 70
     0
 40
0.0
 41
1.0
 50
0.0
 71
     0
 42
2.5
  3
txt
  4

  0
ENDTAB
  0
TABLE
  2
VIEW
  5
6
330
0
100
AcDbSymbolTable
 70
     0
  0
ENDTAB
  0
TABLE
  2
UCS
  5
7
330
0
100
AcDbSymbolTable
 70
     0
  0
ENDTAB
  0
TABLE
  2
APPID
  5
9
330
0
100
AcDbSymbolTable
 70
     1
  0
APPID
  5
12
330
9
100
AcDbSymbolTableRecord
100
AcDbRegAppTableRecord
  2
ACAD
 70
     0
  0
ENDTAB
  0
TABLE
  2
DIMSTYLE
  5
A
330
0
100
AcDbSymbolTable
 70
     1
100
AcDbDimStyleTable
 71
     0
  0
DIMSTYLE
105
27
330
A
100
AcDbSymbolTableRecord
100
AcDbDimStyleTableRecord
  2
ISO-25
 70
     0
 41
2.5
 42
0.625
 43
3.75
 44
1.25
 73
     0
 74
     0
 77
     1
 78
     8
140
2.5
141
2.5
143
0.03937007874016
147
0.625
171
     3
172
     1
271
     2
272
     2
274
     3
278
    44
283
     0
284
     8
340
11
  0
ENDTAB
  0
TABLE
  2
BLOCK_RECORD
  5
1
330
0
100
AcDbSymbolTable
 70
     2
  0
BLOCK_RECORD
  5
1F
330
1
100
AcDbSymbolTableRecord
100
AcDbBlockTableRecord
  2
*Model_Space
340
22
  0
BLOCK_RECORD
  5
50
330
1
100
AcDbSymbolTableRecord
100
AcDbBlockTableRecord
  2
*Paper_Space
340
51
  0
BLOCK_RECORD
  5
55
330
1
100
AcDbSymbolTableRecord
100
AcDbBlockTableRecord
  2
*Paper_Space0
340
56
  0
BLOCK_RECORD
  5
307
102
{ACAD_XDICTIONARY
360
30E
102
}
330
1
100
AcDbSymbolTableRecord
100
AcDbBlockTableRecord
  2
A$C505170E7
340
0
  0
ENDTAB
  0
ENDSEC
  0
SECTION
  2
BLOCKS
  0
BLOCK
  5
20
330
1F
100
AcDbEntity
  8
0
100
AcDbBlockBegin
  2
*Model_Space
 70
     0
 10
0.0
 20
0.0
 30
0.0
  3
*Model_Space
  1

  0
ENDBLK
  5
21
330
1F
100
AcDbEntity
  8
0
100
AcDbBlockEnd
  0
BLOCK
  5
52
330
50
100
AcDbEntity
 67
     1
  8
0
100
AcDbBlockBegin
  2
*Paper_Space
 70
     0
 10
0.0
 20
0.0
 30
0.0
  3
*Paper_Space
  1

  0
ENDBLK
  5
53
330
50
100
AcDbEntity
 67
     1
  8
0
100
AcDbBlockEnd
  0
BLOCK
  5
57
330
55
100
AcDbEntity
  8
0
100
AcDbBlockBegin
  2
*Paper_Space0
 70
     0
 10
0.0
 20
0.0
 30
0.0
  3
*Paper_Space0
  1

  0
ENDBLK
  5
58
330
55
100
AcDbEntity
  8
0
100
AcDbBlockEnd
  0
BLOCK
  5
310
330
307
100
AcDbEntity
  8
0
100
AcDbBlockBegin
  2
A$C505170E7
 70
     0
 10
0.0
 20
0.0
 30
0.0
  3
A$C505170E7
  1

  0
LINE
  5
308
330
307
100
AcDbEntity
  8
0
100
AcDbLine
 10
236.7169727290384
 20
546.6742378672643
 30
0.0
 11
473.4338720086744
 21
410.0056723464367
 31
0.0
  0
LINE
  5
309
330
307
100
AcDbEntity
  8
0
100
AcDbLine
 10
473.4338720086924
 20
136.6685413047889
 30
0.0
 11
236.716972729082
 21
-0.0000242160458583
 31
0.0
  0
LINE
  5
30A
330
307
100
AcDbEntity
  8
0
100
AcDbLine
 10
0.0000734494387871
 20
136.6685413047635
 30
0.0
 11
236.716972729082
 21
-0.0000242160458583
 31
0.0
  0
LINE
  5
30B
330
307
100
AcDbEntity
  8
0
100
AcDbLine
 10
0.0000734494133212
 20
410.0056723464184
 30
0.0
 11
0.0000734494387871
 21
136.6685413047635
 31
0.0
  0
LINE
  5
30C
330
307
100
AcDbEntity
  8
0
100
AcDbLine
 10
0.0000734494133212
 20
410.0056723464184
 30
0.0
 11
236.7169727290384
 21
546.6742378672643
 31
0.0
  0
LINE
  5
30D
330
307
100
AcDbEntity
  8
0
100
AcDbLine
 10
473.4338720086924
 20
136.6685413047889
 30
0.0
 11
473.4338720086744
 21
410.0056723464367
 31
0.0
  0
ENDBLK
  5
311
330
307
100
AcDbEntity
  8
0
100
AcDbBlockEnd
  0
ENDSEC
  0
SECTION
  2
ENTITIES
  0
LWPOLYLINE
  5
96
330
1F
100
AcDbEntity
  8
0
 62
     2
100
AcDbPolyline
 90
        4
 70
     1
 43
0.0
 10
0.0
 20
0.0
 10
1000.0
 20
0.0
 10
1000.0
 20
1000.0
 10
0.0
 20
1000.0
  0
LINE
  5
B1
330
1F
100
AcDbEntity
  8
1
 62
     1
100
AcDbLine
 10
20.0
 20
192.5274670541985
 30
0.0
 11
980.0
 21
192.5274670541985
 31
0.0
  0
LINE
  5
B2
330
1F
100
AcDbEntity
  8
1
 62
     1
100
AcDbLine
 10
980.0
 20
192.5274670541985
 30
0.0
 11
980.0
 21
821.7912292277906
 31
0.0
  0
LINE
  5
B3
330
1F
100
AcDbEntity
  8
1
 62
     1
100
AcDbLine
 10
980.0
 20
821.7912292277906
 30
0.0
 11
19.99999999999994
 21
821.7912292277906
 31
0.0
  0
LINE
  5
B4
330
1F
100
AcDbEntity
  8
1
 62
     1
100
AcDbLine
 10
20.0
 20
821.7912292277906
 30
0.0
 11
20.0
 21
192.5274670541985
 31
0.0
  0
LINE
  5
498
330
1F
100
AcDbEntity
  8
2
100
AcDbLine
 10
54.33932327521955
 20
503.404362287692
 30
0.0
 11
949.1131058513577
 21
503.404362287692
 31
0.0
  0
ARC
  5
499
330
1F
100
AcDbEntity
  8
2
100
AcDbCircle
 10
409.4325734412652
 20
503.404362287692
 30
0.0
 40
360.8035701660476
100
AcDbArc
 50
128.2658226175802
 51
231.7341773824198
  0
ARC
  5
49A
330
1F
100
AcDbEntity
  8
2
100
AcDbCircle
 10
409.4325734412652
 20
503.404362287692
 30
0.0
 40
355.0932501660477
100
AcDbArc
 50
128.9962884626631
 51
231.0037115373368
  0
LINE
  5
49B
330
1F
100
AcDbEntity
  8
2
100
AcDbLine
 10
58.96083297814874
 20
560.5075622876919
 30
0.0
 11
949.1131058513634
 21
560.5075622876919
 31
0.0
  0
LINE
  5
49C
330
1F
100
AcDbEntity
  8
2
100
AcDbLine
 10
73.20628875708587
 20
617.610762287692
 30
0.0
 11
949.1131058513527
 21
617.6107622877024
 31
0.0
  0
LINE
  5
49D
330
1F
100
AcDbEntity
  8
2
100
AcDbLine
 10
73.20628875708587
 20
617.610762287692
 30
0.0
 11
399.6178506213451
 21
415.8414264308776
 31
0.0
  0
LINE
  5
49E
330
1F
100
AcDbEntity
  8
2
100
AcDbLine
 10
58.96083297814874
 20
560.5075622876919
 30
0.0
 11
399.6178506213554
 21
462.7569616440829
 31
0.0
  0
HATCH
  5
49F
330
1F
100
AcDbEntity
  8
2
100
AcDbHatch
 10
0.0
 20
0.0
 30
0.0
210
0.0
220
0.0
230
1.0
  2
SOLID
 70
     1
 71
     0
 91
        1
 92
        7
 72
     0
 73
     1
 93
        3
 10
439.3737617926243
 20
391.2665500153563
 10
407.078793368985
 20
427.6084550942524
 10
392.3824781971904
 20
403.8256067836754
 97
        0
 75
     0
 76
     1
 47
0.1145981024045795
 98
        1
 10
410.6741979392291
 20
408.2091940111876
  0
LINE
  5
4A0
330
1F
100
AcDbEntity
  8
2
100
AcDbLine
 10
392.3824781971957
 20
403.8256067836654
 30
0.0
 11
439.3737617926347
 21
391.2665500153563
 31
0.0
  0
LINE
  5
4A1
330
1F
100
AcDbEntity
  8
2
100
AcDbLine
 10
399.6178506213451
 20
415.8414264308776
 30
0.0
 11
439.3737617926347
 21
391.2665500153563
 31
0.0
  0
LINE
  5
4A2
330
1F
100
AcDbEntity
  8
2
100
AcDbLine
 10
399.6178506213502
 20
462.7569616440829
 30
0.0
 11
444.7711917921859
 21
450.6891198731326
 31
0.0
  0
LINE
  5
4A3
330
1F
100
AcDbEntity
  8
2
100
AcDbLine
 10
396.1544417784466
 20
449.1652238928736
 30
0.0
 11
444.7711917921859
 21
450.6891198731326
 31
0.0
  0
HATCH
  5
4A4
330
1F
100
AcDbEntity
  8
2
100
AcDbHatch
 10
0.0
 20
0.0
 30
0.0
210
0.0
220
0.0
230
1.0
  2
SOLID
 70
     1
 71
     0
 91
        1
 92
        7
 72
     0
 73
     1
 93
        3
 10
444.7711917921754
 20
450.6891198731325
 10
403.3689860588184
 20
476.1755164536691
 10
396.1544417784363
 20
449.1652238928836
 97
        0
 75
     0
 76
     1
 47
0.1145981024045795
 98
        1
 10
412.4052983420289
 20
458.636892650388
  0
HATCH
  5
4A5
330
1F
100
AcDbEntity
  8
2
100
AcDbHatch
 10
0.0
 20
0.0
 30
0.0
210
0.0
220
0.0
230
1.0
  2
SOLID
 70
     1
 71
     0
 91
        1
 92
        7
 72
     0
 73
     1
 93
        3
 10
444.7711917921754
 20
556.1196047022511
 10
403.3689860588184
 20
530.6332081217144
 10
396.1544417784363
 20
557.6435006825
 97
        0
 75
     0
 76
     1
 47
0.1145981024045795
 98
        1
 10
412.4052983420289
 20
548.1718319249954
  0
LINE
  5
4A6
330
1F
100
AcDbEntity
  8
2
100
AcDbLine
 10
396.1544417784466
 20
557.6435006825105
 30
0.0
 11
444.7711917921859
 21
556.1196047022512
 31
0.0
  0
LINE
  5
4A7
330
1F
100
AcDbEntity
  8
2
100
AcDbLine
 10
399.6178506213502
 20
544.0517629313011
 30
0.0
 11
444.7711917921859
 21
556.1196047022512
 31
0.0
  0
LINE
  5
4A8
330
1F
100
AcDbEntity
  8
2
100
AcDbLine
 10
399.6178506213451
 20
590.9672981445063
 30
0.0
 11
439.3737617926347
 21
615.5421745600275
 31
0.0
  0
LINE
  5
4A9
330
1F
100
AcDbEntity
  8
2
100
AcDbLine
 10
392.3824781971957
 20
602.9831177917185
 30
0.0
 11
439.3737617926347
 21
615.5421745600275
 31
0.0
  0
HATCH
  5
4AA
330
1F
100
AcDbEntity
  8
2
100
AcDbHatch
 10
0.0
 20
0.0
 30
0.0
210
0.0
220
0.0
230
1.0
  2
SOLID
 70
     1
 71
     0
 91
        1
 92
        7
 72
     0
 73
     1
 93
        3
 10
439.3737617926243
 20
615.5421745600271
 10
407.078793368985
 20
579.2002694811312
 10
392.3824781971904
 20
602.983117791708
 97
        0
 75
     0
 76
     1
 47
0.1145981024045795
 98
        1
 10
410.6741979392291
 20
598.5995305641957
  0
LINE
  5
4AB
330
1F
100
AcDbEntity
  8
2
100
AcDbLine
 10
73.20628875708587
 20
389.1979622876815
 30
0.0
 11
399.6178506213451
 21
590.9672981444958
 31
0.0
  0
LINE
  5
4AC
330
1F
100
AcDbEntity
  8
2
100
AcDbLine
 10
58.96083297814874
 20
446.3011622876816
 30
0.0
 11
399.6178506213554
 21
544.0517629312906
 31
0.0
  0
HATCH
  5
4AD
330
1F
100
AcDbEntity
  8
2
100
AcDbHatch
 10
0.0
 20
0.0
 30
0.0
210
0.0
220
0.0
230
1.0
  2
SOLID
 70
     1
 71
     0
 91
        1
 92
        7
 72
     0
 73
     1
 93
        3
 10
759.133224241484
 20
614.2843622876816
 10
804.2302365325225
 20
628.2225306612276
 10
804.4737251584074
 20
601.0807011268577
 97
        0
 75
     0
 76
     1
 47
0.1145981024045795
 98
        1
 10
791.4879152435659
 20
613.9205554140595
  0
LINE
  5
4AE
330
1F
100
AcDbEntity
  8
2
100
AcDbLine
 10
759.133224241484
 20
614.2843622876819
 30
0.0
 11
804.2302365325175
 21
628.222530661218
 31
0.0
  0
LINE
  5
4AF
330
1F
100
AcDbEntity
  8
2
100
AcDbLine
 10
804.4737251584022
 20
601.080701126848
 30
0.0
 11
759.1332242414739
 21
614.2843622876819
 31
0.0
  0
LINE
  5
4B0
330
1F
100
AcDbEntity
  8
2
100
AcDbLine
 10
804.4737251584022
 20
545.6407011268478
 30
0.0
 11
759.1332242414739
 21
558.844362287682
 31
0.0
  0
LINE
  5
4B1
330
1F
100
AcDbEntity
  8
2
100
AcDbLine
 10
759.133224241484
 20
558.844362287682
 30
0.0
 11
804.2302365325175
 21
572.7825306612181
 31
0.0
  0
HATCH
  5
4B2
330
1F
100
AcDbEntity
  8
2
100
AcDbHatch
 10
0.0
 20
0.0
 30
0.0
210
0.0
220
0.0
230
1.0
  2
SOLID
 70
     1
 71
     0
 91
        1
 92
        7
 72
     0
 73
     1
 93
        3
 10
759.133224241484
 20
558.8443622876817
 10
804.2302365325225
 20
572.7825306612277
 10
804.4737251584074
 20
545.6407011268574
 97
        0
 75
     0
 76
     1
 47
0.1145981024045795
 98
        1
 10
791.4879152435659
 20
558.4805554140595
  0
HATCH
  5
4B3
330
1F
100
AcDbEntity
  8
2
100
AcDbHatch
 10
0.0
 20
0.0
 30
0.0
210
0.0
220
0.0
230
1.0
  2
SOLID
 70
     1
 71
     0
 91
        1
 92
        7
 72
     0
 73
     1
 93
        3
 10
759.133224241484
 20
503.4043622876817
 10
804.2302365325225
 20
517.3425306612277
 10
804.4737251584074
 20
490.2007011268576
 97
        0
 75
     0
 76
     1
 47
0.1145981024045795
 98
        1
 10
791.4879152435659
 20
503.0405554140596
  0
LINE
  5
4B4
330
1F
100
AcDbEntity
  8
2
100
AcDbLine
 10
759.133224241484
 20
503.4043622876819
 30
0.0
 11
804.2302365325175
 21
517.342530661218
 31
0.0
  0
LINE
  5
4B5
330
1F
100
AcDbEntity
  8
2
100
AcDbLine
 10
804.4737251584022
 20
490.2007011268477
 30
0.0
 11
759.1332242414739
 21
503.4043622876819
 31
0.0
  0
LINE
  5
4B6
330
1F
100
AcDbEntity
  8
2
100
AcDbLine
 10
73.20628875720541
 20
389.1979622873388
 30
0.0
 11
949.1131058513634
 21
389.197962287671
 31
0.0
  0
LINE
  5
4B7
330
1F
100
AcDbEntity
  8
2
100
AcDbLine
 10
58.96083297820576
 20
446.3011622873387
 30
0.0
 11
949.1131058513634
 21
446.3011622876816
 31
0.0
  0
HATCH
  5
4B8
330
1F
100
AcDbEntity
  8
2
100
AcDbHatch
 10
0.0
 20
0.0
 30
0.0
210
0.0
220
0.0
230
1.0
  2
SOLID
 70
     1
 71
     0
 91
        1
 92
        7
 72
     0
 73
     1
 93
        3
 10
759.1332242415039
 20
447.9643622876413
 10
804.2302365325479
 20
434.0261939141152
 10
804.4737251584223
 20
461.1680234484855
 97
        0
 75
     0
 76
     1
 47
0.1145981024045795
 98
        1
 10
791.4879152435859
 20
448.3281691612836
  0
LINE
  5
4B9
330
1F
100
AcDbEntity
  8
2
100
AcDbLine
 10
759.1332242415042
 20
447.9643622876416
 30
0.0
 11
804.2302365325426
 21
434.0261939141256
 31
0.0
  0
LINE
  5
4BA
330
1F
100
AcDbEntity
  8
2
100
AcDbLine
 10
804.4737251584173
 20
461.1680234484957
 30
0.0
 11
759.1332242414941
 21
447.9643622876416
 31
0.0
  0
LINE
  5
4BB
330
1F
100
AcDbEntity
  8
2
100
AcDbLine
 10
804.4737251584427
 20
405.7280234484956
 30
0.0
 11
759.1332242415194
 21
392.5243622876416
 31
0.0
  0
LINE
  5
4BC
330
1F
100
AcDbEntity
  8
2
100
AcDbLine
 10
759.1332242415294
 20
392.5243622876416
 30
0.0
 11
804.230236532568
 21
378.5861939141256
 31
0.0
  0
HATCH
  5
4BD
330
1F
100
AcDbEntity
  8
2
100
AcDbHatch
 10
0.0
 20
0.0
 30
0.0
210
0.0
220
0.0
230
1.0
  2
SOLID
 70
     1
 71
     0
 91
        1
 92
        7
 72
     0
 73
     1
 93
        3
 10
759.1332242415293
 20
392.5243622876414
 10
804.2302365325729
 20
378.5861939141152
 10
804.4737251584475
 20
405.7280234484854
 97
        0
 75
     0
 76
     1
 47
0.1145981024045795
 98
        1
 10
791.487915243611
 20
392.8881691612836
  0
HATCH
  5
4BE
330
1F
100
AcDbEntity
  8
2
100
AcDbHatch
 10
0.0
 20
0.0
 30
0.0
210
0.0
220
0.0
230
1.0
  2
SOLID
 70
     1
 71
     0
 91
        1
 92
        7
 72
     1
 73
     1
 93
        4
 10
185.9830270979979
 20
779.3781229108365
 42
0.0
 10
185.9830270979979
 20
786.687818358736
 42
0.4848642618520341
 10
185.9830270979979
 20
220.1209062166476
 42
0.0
 10
185.9830270979979
 20
227.4306016645577
 42
-0.4770152913289193
 97
        0
 75
     0
 76
     1
 47
3.131626848261221
 98
        1
 10
55.67108673272368
 20
559.9559818198056
  0
ENDSEC
  0
SECTION
  2
OBJECTS
  0
DICTIONARY
  5
C
330
0
100
AcDbDictionary
281
     1
  3
ACAD_COLOR
350
6B
  3
ACAD_GROUP
350
D
  3
ACAD_LAYOUT
350
1A
  3
ACAD_MATERIAL
350
6A
  3
ACAD_MLINESTYLE
350
17
  3
ACAD_PLOTSETTINGS
350
19
  3
ACAD_PLOTSTYLENAME
350
E
  3
ACDBHEADERROUNDTRIPXREC
350
4D8
  3
AcDbVariableDictionary
350
5E
  0
DICTIONARY
  5
178
330
177
100
AcDbDictionary
280
     1
281
     1
  3
ACAD_XREC_ROUNDTRIP
360
179
  3
ADSK_XREC_LAYER_RECONCILED
360
17A
  0
DICTIONARY
  5
30E
330
307
100
AcDbDictionary
280
     1
281
     1
  3
ACAD_SORTENTS
360
30F
  0
DICTIONARY
  5
6B
102
{ACAD_REACTORS
330
C
102
}
330
C
100
AcDbDictionary
281
     1
  0
DICTIONARY
  5
D
102
{ACAD_REACTORS
330
C
102
}
330
C
100
AcDbDictionary
281
     1
  0
DICTIONARY
  5
1A
102
{ACAD_REACTORS
330
C
102
}
330
C
100
AcDbDictionary
281
     1
  3
Layout1
350
51
  3
Layout2
350
56
  3
Model
350
22
  0
DICTIONARY
  5
6A
102
{ACAD_REACTORS
330
C
102
}
330
C
100
AcDbDictionary
281
     1
  3
Global
350
140
  0
DICTIONARY
  5
17
102
{ACAD_REACTORS
330
C
102
}
330
C
100
AcDbDictionary
281
     1
  3
Standard
350
18
  0
DICTIONARY
  5
19
102
{ACAD_REACTORS
330
C
102
}
330
C
100
AcDbDictionary
281
     1
  0
ACDBDICTIONARYWDFLT
  5
E
102
{ACAD_REACTORS
330
C
102
}
330
C
100
AcDbDictionary
281
     1
  3
Normal
350
F
100
AcDbDictionaryWithDefault
340
F
  0
DICTIONARY
  5
4D8
102
{ACAD_REACTORS
330
C
102
}
330
C
100
AcDbDictionary
281
     1
  3
COLORDICT
350
4DA
  3
MATERIALDICT
350
4D9
  0
DICTIONARY
  5
5E
102
{ACAD_REACTORS
330
C
102
}
330
C
100
AcDbDictionary
281
     1
  3
DIMASSOC
350
5F
  3
HIDETEXT
350
63
  3
PROJECTNAME
350
85
  0
XRECORD
  5
179
102
{ACAD_REACTORS
330
178
102
}
330
178
100
AcDbXrecord
280
     1
102
MATERIAL
340
140
  0
XRECORD
  5
17A
102
{ACAD_REACTORS
330
178
102
}
330
178
100
AcDbXrecord
280
     1
290
     1
  0
SORTENTSTABLE
  5
30F
102
{ACAD_REACTORS
330
30E
102
}
330
30E
100
AcDbSortentsTable
330
307
  0
LAYOUT
  5
51
102
{ACAD_XDICTIONARY
360
4DD
102
}
102
{ACAD_REACTORS
330
1A
102
}
330
1A
100
AcDbPlotSettings
  1

  2
None
  4

  6

 40
0.0
 41
0.0
 42
0.0
 43
0.0
 44
0.0
 45
0.0
 46
0.0
 47
0.0
 48
0.0
 49
0.0
140
0.0
141
0.0
142
1.0
143
1.0
 70
   688
 72
     0
 73
     0
 74
     5
  7

 75
    16
147
1.0
148
0.0
149
0.0
100
AcDbLayout
  1
Layout1
 70
     1
 71
     1
 10
0.0
 20
0.0
 11
12.0
 21
9.0
 12
0.0
 22
0.0
 32
0.0
 14
0.0
 24
0.0
 34
0.0
 15
0.0
 25
0.0
 35
0.0
146
0.0
 13
0.0
 23
0.0
 33
0.0
 16
1.0
 26
0.0
 36
0.0
 17
0.0
 27
1.0
 37
0.0
 76
     0
330
50
  0
LAYOUT
  5
56
102
{ACAD_XDICTIONARY
360
4DF
102
}
102
{ACAD_REACTORS
330
1A
102
}
330
1A
100
AcDbPlotSettings
  1

  2
None
  4

  6

 40
0.0
 41
0.0
 42
0.0
 43
0.0
 44
0.0
 45
0.0
 46
0.0
 47
0.0
 48
0.0
 49
0.0
140
0.0
141
0.0
142
1.0
143
1.0
 70
   688
 72
     0
 73
     0
 74
     5
  7

 75
    16
147
1.0
148
0.0
149
0.0
100
AcDbLayout
  1
Layout2
 70
     1
 71
     2
 10
0.0
 20
0.0
 11
12.0
 21
9.0
 12
0.0
 22
0.0
 32
0.0
 14
0.0
 24
0.0
 34
0.0
 15
0.0
 25
0.0
 35
0.0
146
0.0
 13
0.0
 23
0.0
 33
0.0
 16
1.0
 26
0.0
 36
0.0
 17
0.0
 27
1.0
 37
0.0
 76
     0
330
55
  0
LAYOUT
  5
22
102
{ACAD_XDICTIONARY
360
4DB
102
}
102
{ACAD_REACTORS
330
1A
102
}
330
1A
100
AcDbPlotSettings
  1

  2
none_device
  4
ANSI_A_(8.50_x_11.00_Inches)
  6

 40
6.349999904632567
 41
19.04999923706055
 42
6.350006103515625
 43
19.04998779296875
 44
215.8999938964844
 45
279.3999938964844
 46
0.0
 47
0.0
 48
0.0
 49
0.0
140
0.0
141
0.0
142
1.0
143
78.436453180766
 70
 11952
 72
     0
 73
     1
 74
     0
  7

 75
     0
147
0.0127491741332998
148
0.0
149
0.0
100
AcDbLayout
  1
Model
 70
     1
 71
     0
 10
0.0
 20
0.0
 11
12.0
 21
9.0
 12
0.0
 22
0.0
 32
0.0
 14
0.0
 24
0.0
 34
0.0
 15
0.0
 25
0.0
 35
0.0
146
0.0
 13
0.0
 23
0.0
 33
0.0
 16
1.0
 26
0.0
 36
0.0
 17
0.0
 27
1.0
 37
0.0
 76
     0
330
1F
  0
MATERIAL
  5
140
330
6A
100
AcDbMaterial
  1
Global
 72
     0
 73
     2
 43
0.0008202099737533
 43
0.0
 43
0.0
 43
0.0
 43
0.0
 43
0.0008202099737533
 43
0.0
 43
0.0
 43
0.0
 43
0.0
 43
1.0
 43
0.0
 43
0.0
 43
0.0
 43
0.0
 43
1.0
 77
     0
 78
     2
 47
0.0008202099737533
 47
0.0
 47
0.0
 47
0.0
 47
0.0
 47
0.0008202099737533
 47
0.0
 47
0.0
 47
0.0
 47
0.0
 47
1.0
 47
0.0
 47
0.0
 47
0.0
 47
0.0
 47
1.0
171
     0
172
     2
 49
0.0008202099737533
 49
0.0
 49
0.0
 49
0.0
 49
0.0
 49
0.0008202099737533
 49
0.0
 49
0.0
 49
0.0
 49
0.0
 49
1.0
 49
0.0
 49
0.0
 49
0.0
 49
0.0
 49
1.0
175
     0
176
     2
142
0.0008202099737533
142
0.0
142
0.0
142
0.0
142
0.0
142
0.0008202099737533
142
0.0
142
0.0
142
0.0
142
0.0
142
1.0
142
0.0
142
0.0
142
0.0
142
0.0
142
1.0
179
     0
270
     2
144
0.0008202099737533
144
0.0
144
0.0
144
0.0
144
0.0
144
0.0008202099737533
144
0.0
144
0.0
144
0.0
144
0.0
144
1.0
144
0.0
144
0.0
144
0.0
144
0.0
144
1.0
274
     2
147
0.0008202099737533
147
0.0
147
0.0
147
0.0
147
0.0
147
0.0008202099737533
147
0.0
147
0.0
147
0.0
147
0.0
147
1.0
147
0.0
147
0.0
147
0.0
147
0.0
147
1.0
  0
MLINESTYLE
  5
18
102
{ACAD_REACTORS
330
17
102
}
330
17
100
AcDbMlineStyle
  2
STANDARD
 70
     0
  3

 62
   256
 51
90.0
 52
90.0
 71
     2
 49
0.5
 62
   256
  6
BYLAYER
 49
-0.5
 62
   256
  6
BYLAYER
  0
ACDBPLACEHOLDER
  5
F
102
{ACAD_REACTORS
330
E
102
}
330
E
  0
XRECORD
  5
4DA
102
{ACAD_REACTORS
330
4D8
102
}
330
4D8
100
AcDbXrecord
280
     1
340
6B
  0
XRECORD
  5
4D9
102
{ACAD_REACTORS
330
4D8
102
}
330
4D8
100
AcDbXrecord
280
     1
340
6A
  0
DICTIONARYVAR
  5
5F
102
{ACAD_REACTORS
330
5E
102
}
330
5E
100
DictionaryVariables
280
     0
  1
2
  0
DICTIONARYVAR
  5
63
102
{ACAD_REACTORS
330
5E
102
}
330
5E
100
DictionaryVariables
280
     0
  1
1
  0
DICTIONARYVAR
  5
85
102
{ACAD_REACTORS
330
5E
102
}
330
5E
100
DictionaryVariables
280
     0
  1

  0
DICTIONARY
  5
4DD
330
51
100
AcDbDictionary
280
     1
281
     1
  3
ACAD_XREC_ROUNDTRIP
360
4DE
  0
DICTIONARY
  5
4DF
330
56
100
AcDbDictionary
280
     1
281
     1
  3
ACAD_XREC_ROUNDTRIP
360
4E0
  0
DICTIONARY
  5
4DB
330
22
100
AcDbDictionary
280
     1
281
     1
  3
ACAD_XREC_ROUNDTRIP
360
4DC
  0
XRECORD
  5
4DE
102
{ACAD_REACTORS
330
4DD
102
}
330
4DD
100
AcDbXrecord
280
     1
102
SHADEPLOT
 70
     0
102
SHADEPLOTRESLEVEL
 70
     2
102
SHADEPLOTCUSTOMDPI
 70
   300
  0
XRECORD
  5
4E0
102
{ACAD_REACTORS
330
4DF
102
}
330
4DF
100
AcDbXrecord
280
     1
102
SHADEPLOT
 70
     0
102
SHADEPLOTRESLEVEL
 70
     2
102
SHADEPLOTCUSTOMDPI
 70
   300
  0
XRECORD
  5
4DC
102
{ACAD_REACTORS
330
4DB
102
}
330
4DB
100
AcDbXrecord
280
     1
102
SHADEPLOT
 70
     0
102
SHADEPLOTRESLEVEL
 70
     2
102
SHADEPLOTCUSTOMDPI
 70
   300
  0
ENDSEC
  0
EOF
